solid OpenSCAD_Model
  facet normal -0.34202 0.939693 0
    outer loop
      vertex -4.63525 14.2658 0
      vertex -5.6191 13.9078 3
      vertex -4.63525 14.2658 3
    endloop
  endfacet
  facet normal -0.34202 0.939693 0
    outer loop
      vertex -5.6191 13.9078 3
      vertex -4.63525 14.2658 0
      vertex -5.6191 13.9078 0
    endloop
  endfacet
  facet normal -0.898794 0.438371 0
    outer loop
      vertex -13.7032 6.10105 0
      vertex -13.2442 7.04207 3
      vertex -13.2442 7.04207 0
    endloop
  endfacet
  facet normal -0.898794 0.438371 0
    outer loop
      vertex -13.2442 7.04207 3
      vertex -13.7032 6.10105 0
      vertex -13.7032 6.10105 3
    endloop
  endfacet
  facet normal 0.999391 -0.0349003 0
    outer loop
      vertex 14.9635 -1.04635 3
      vertex 15 -1.80688e-09 0
      vertex 15 -1.80688e-09 3
    endloop
  endfacet
  facet normal 0.999391 -0.0349003 0
    outer loop
      vertex 15 -1.80688e-09 0
      vertex 14.9635 -1.04635 3
      vertex 14.9635 -1.04635 0
    endloop
  endfacet
  facet normal -0.984808 0.173648 0
    outer loop
      vertex -14.854 2.0876 0
      vertex -14.6722 3.11868 3
      vertex -14.6722 3.11868 0
    endloop
  endfacet
  facet normal -0.984808 0.173648 0
    outer loop
      vertex -14.6722 3.11868 3
      vertex -14.854 2.0876 0
      vertex -14.854 2.0876 3
    endloop
  endfacet
  facet normal -0.743145 0.669131 0
    outer loop
      vertex -11.4907 9.64181 0
      vertex -10.7901 10.4199 3
      vertex -10.7901 10.4199 0
    endloop
  endfacet
  facet normal -0.743145 0.669131 0
    outer loop
      vertex -10.7901 10.4199 3
      vertex -11.4907 9.64181 0
      vertex -11.4907 9.64181 3
    endloop
  endfacet
  facet normal -0.207911 0.978148 0
    outer loop
      vertex -2.60472 14.7721 0
      vertex -3.62883 14.5544 3
      vertex -2.60472 14.7721 3
    endloop
  endfacet
  facet normal -0.207911 0.978148 0
    outer loop
      vertex -3.62883 14.5544 3
      vertex -2.60472 14.7721 0
      vertex -3.62883 14.5544 0
    endloop
  endfacet
  facet normal 0.951056 -0.309018 0
    outer loop
      vertex 14.0954 -5.1303 3
      vertex 14.4189 -4.13456 0
      vertex 14.4189 -4.13456 3
    endloop
  endfacet
  facet normal 0.951056 -0.309018 0
    outer loop
      vertex 14.4189 -4.13456 0
      vertex 14.0954 -5.1303 3
      vertex 14.0954 -5.1303 0
    endloop
  endfacet
  facet normal 0 1 -0
    outer loop
      vertex 0 14.9909 0
      vertex -0.523492 14.9909 3
      vertex 0 14.9909 3
    endloop
  endfacet
  facet normal 0 1 0
    outer loop
      vertex -0.523492 14.9909 3
      vertex 0 14.9909 0
      vertex -0.523492 14.9909 0
    endloop
  endfacet
  facet normal -0.999391 0.0349003 0
    outer loop
      vertex -15 0 0
      vertex -14.9635 1.04635 3
      vertex -14.9635 1.04635 0
    endloop
  endfacet
  facet normal -0.999391 0.0349003 0
    outer loop
      vertex -14.9635 1.04635 3
      vertex -15 0 0
      vertex -15 0 3
    endloop
  endfacet
  facet normal -0.970296 0.241922 0
    outer loop
      vertex -14.6722 3.11868 0
      vertex -14.4189 4.13456 3
      vertex -14.4189 4.13456 0
    endloop
  endfacet
  facet normal -0.970296 0.241922 0
    outer loop
      vertex -14.4189 4.13456 3
      vertex -14.6722 3.11868 0
      vertex -14.6722 3.11868 3
    endloop
  endfacet
  facet normal -0.829038 0.559193 0
    outer loop
      vertex -12.7207 7.94879 0
      vertex -12.1353 8.81678 3
      vertex -12.1353 8.81678 0
    endloop
  endfacet
  facet normal -0.829038 0.559193 0
    outer loop
      vertex -12.1353 8.81678 3
      vertex -12.7207 7.94879 0
      vertex -12.7207 7.94879 3
    endloop
  endfacet
  facet normal -0.788011 0.615662 0
    outer loop
      vertex -12.1353 8.81678 0
      vertex -11.4907 9.64181 3
      vertex -11.4907 9.64181 0
    endloop
  endfacet
  facet normal -0.788011 0.615662 0
    outer loop
      vertex -11.4907 9.64181 3
      vertex -12.1353 8.81678 0
      vertex -12.1353 8.81678 3
    endloop
  endfacet
  facet normal -0.139173 0.990268 0
    outer loop
      vertex -1.56793 14.9178 0
      vertex -2.60472 14.7721 3
      vertex -1.56793 14.9178 3
    endloop
  endfacet
  facet normal -0.139173 0.990268 0
    outer loop
      vertex -2.60472 14.7721 3
      vertex -1.56793 14.9178 0
      vertex -2.60472 14.7721 0
    endloop
  endfacet
  facet normal -0.275638 0.961262 0
    outer loop
      vertex -3.62883 14.5544 0
      vertex -4.63525 14.2658 3
      vertex -3.62883 14.5544 3
    endloop
  endfacet
  facet normal -0.275638 0.961262 0
    outer loop
      vertex -4.63525 14.2658 3
      vertex -3.62883 14.5544 0
      vertex -4.63525 14.2658 0
    endloop
  endfacet
  facet normal -0.529919 0.848048 0
    outer loop
      vertex -7.5 12.9904 0
      vertex -8.38789 12.4356 3
      vertex -7.5 12.9904 3
    endloop
  endfacet
  facet normal -0.529919 0.848048 0
    outer loop
      vertex -8.38789 12.4356 3
      vertex -7.5 12.9904 0
      vertex -8.38789 12.4356 0
    endloop
  endfacet
  facet normal -0.469471 0.882948 0
    outer loop
      vertex -6.57557 13.4819 0
      vertex -7.5 12.9904 3
      vertex -6.57557 13.4819 3
    endloop
  endfacet
  facet normal -0.469471 0.882948 0
    outer loop
      vertex -7.5 12.9904 3
      vertex -6.57557 13.4819 0
      vertex -7.5 12.9904 0
    endloop
  endfacet
  facet normal -0.694659 0.71934 0
    outer loop
      vertex -10.037 11.1472 0
      vertex -10.7901 10.4199 3
      vertex -10.037 11.1472 3
    endloop
  endfacet
  facet normal -0.694659 0.71934 0
    outer loop
      vertex -10.7901 10.4199 3
      vertex -10.037 11.1472 0
      vertex -10.7901 10.4199 0
    endloop
  endfacet
  facet normal 0.970296 -0.241922 0
    outer loop
      vertex 14.4189 -4.13456 3
      vertex 14.6722 -3.11868 0
      vertex 14.6722 -3.11868 3
    endloop
  endfacet
  facet normal 0.970296 -0.241922 0
    outer loop
      vertex 14.6722 -3.11868 0
      vertex 14.4189 -4.13456 3
      vertex 14.4189 -4.13456 0
    endloop
  endfacet
  facet normal 0 -1 0
    outer loop
      vertex -0.523492 -14.9909 0
      vertex 0.523492 -14.9909 3
      vertex -0.523492 -14.9909 3
    endloop
  endfacet
  facet normal 0 -1 -0
    outer loop
      vertex 0.523492 -14.9909 3
      vertex -0.523492 -14.9909 0
      vertex 0.523492 -14.9909 0
    endloop
  endfacet
  facet normal -0.970296 -0.241922 0
    outer loop
      vertex -14.4189 -4.13456 0
      vertex -14.6722 -3.11868 3
      vertex -14.6722 -3.11868 0
    endloop
  endfacet
  facet normal -0.970296 -0.241922 0
    outer loop
      vertex -14.6722 -3.11868 3
      vertex -14.4189 -4.13456 0
      vertex -14.4189 -4.13456 3
    endloop
  endfacet
  facet normal -0.898794 -0.438371 0
    outer loop
      vertex -13.2442 -7.04207 0
      vertex -13.7032 -6.10105 3
      vertex -13.7032 -6.10105 0
    endloop
  endfacet
  facet normal -0.898794 -0.438371 0
    outer loop
      vertex -13.7032 -6.10105 3
      vertex -13.2442 -7.04207 0
      vertex -13.2442 -7.04207 3
    endloop
  endfacet
  facet normal 0.0697568 -0.997564 0
    outer loop
      vertex 0.523492 -14.9909 0
      vertex 1.56793 -14.9178 3
      vertex 0.523492 -14.9909 3
    endloop
  endfacet
  facet normal 0.0697568 -0.997564 0
    outer loop
      vertex 1.56793 -14.9178 3
      vertex 0.523492 -14.9909 0
      vertex 1.56793 -14.9178 0
    endloop
  endfacet
  facet normal -0.951056 0.309018 0
    outer loop
      vertex -14.4189 4.13456 0
      vertex -14.0954 5.1303 3
      vertex -14.0954 5.1303 0
    endloop
  endfacet
  facet normal -0.951056 0.309018 0
    outer loop
      vertex -14.0954 5.1303 3
      vertex -14.4189 4.13456 0
      vertex -14.4189 4.13456 3
    endloop
  endfacet
  facet normal -0.927184 0.374606 0
    outer loop
      vertex -14.0954 5.1303 0
      vertex -13.7032 6.10105 3
      vertex -13.7032 6.10105 0
    endloop
  endfacet
  facet normal -0.927184 0.374606 0
    outer loop
      vertex -13.7032 6.10105 3
      vertex -14.0954 5.1303 0
      vertex -14.0954 5.1303 3
    endloop
  endfacet
  facet normal -0.994522 0.104529 0
    outer loop
      vertex -14.9635 1.04635 0
      vertex -14.854 2.0876 3
      vertex -14.854 2.0876 0
    endloop
  endfacet
  facet normal -0.994522 0.104529 0
    outer loop
      vertex -14.854 2.0876 3
      vertex -14.9635 1.04635 0
      vertex -14.9635 1.04635 3
    endloop
  endfacet
  facet normal 0 0 1
    outer loop
      vertex 0 14.9909 3
      vertex -0.348994 9.99391 3
      vertex 0 9.99391 3
    endloop
  endfacet
  facet normal -0 0 1
    outer loop
      vertex -0.523492 14.9909 3
      vertex -0.348994 9.99391 3
      vertex 0 14.9909 3
    endloop
  endfacet
  facet normal 0 0 1
    outer loop
      vertex -0.523492 14.9909 3
      vertex -1.04528 9.94522 3
      vertex -0.348994 9.99391 3
    endloop
  endfacet
  facet normal -0 0 1
    outer loop
      vertex -1.56793 14.9178 3
      vertex -1.04528 9.94522 3
      vertex -0.523492 14.9909 3
    endloop
  endfacet
  facet normal 0 0 1
    outer loop
      vertex -1.56793 14.9178 3
      vertex -1.73648 9.84808 3
      vertex -1.04528 9.94522 3
    endloop
  endfacet
  facet normal -0 0 1
    outer loop
      vertex -2.60472 14.7721 3
      vertex -1.73648 9.84808 3
      vertex -1.56793 14.9178 3
    endloop
  endfacet
  facet normal 0 0 1
    outer loop
      vertex -1.73648 9.84808 3
      vertex -2.60472 14.7721 3
      vertex -2.41922 9.70296 3
    endloop
  endfacet
  facet normal -0 0 1
    outer loop
      vertex -3.62883 14.5544 3
      vertex -2.41922 9.70296 3
      vertex -2.60472 14.7721 3
    endloop
  endfacet
  facet normal 0 0 1
    outer loop
      vertex -2.41922 9.70296 3
      vertex -3.62883 14.5544 3
      vertex -3.09017 9.51056 3
    endloop
  endfacet
  facet normal -0 0 1
    outer loop
      vertex -4.63525 14.2658 3
      vertex -3.09017 9.51056 3
      vertex -3.62883 14.5544 3
    endloop
  endfacet
  facet normal 0 0 1
    outer loop
      vertex -3.09017 9.51056 3
      vertex -4.63525 14.2658 3
      vertex -3.74607 9.27184 3
    endloop
  endfacet
  facet normal -0 0 1
    outer loop
      vertex -5.6191 13.9078 3
      vertex -3.74607 9.27184 3
      vertex -4.63525 14.2658 3
    endloop
  endfacet
  facet normal 0 0 1
    outer loop
      vertex -3.74607 9.27184 3
      vertex -5.6191 13.9078 3
      vertex -4.38371 8.98794 3
    endloop
  endfacet
  facet normal -0 0 1
    outer loop
      vertex -6.57557 13.4819 3
      vertex -4.38371 8.98794 3
      vertex -5.6191 13.9078 3
    endloop
  endfacet
  facet normal 0 0 1
    outer loop
      vertex -4.38371 8.98794 3
      vertex -6.57557 13.4819 3
      vertex -5 8.66025 3
    endloop
  endfacet
  facet normal -0 0 1
    outer loop
      vertex -7.5 12.9904 3
      vertex -5 8.66025 3
      vertex -6.57557 13.4819 3
    endloop
  endfacet
  facet normal 0 0 1
    outer loop
      vertex -5 8.66025 3
      vertex -7.5 12.9904 3
      vertex -5.59193 8.29038 3
    endloop
  endfacet
  facet normal -0 0 1
    outer loop
      vertex -8.38789 12.4356 3
      vertex -5.59193 8.29038 3
      vertex -7.5 12.9904 3
    endloop
  endfacet
  facet normal 0 0 1
    outer loop
      vertex -5.59193 8.29038 3
      vertex -8.38789 12.4356 3
      vertex -6.15661 7.88011 3
    endloop
  endfacet
  facet normal -0 0 1
    outer loop
      vertex -9.23492 11.8202 3
      vertex -6.15661 7.88011 3
      vertex -8.38789 12.4356 3
    endloop
  endfacet
  facet normal 0 0 1
    outer loop
      vertex -6.15661 7.88011 3
      vertex -9.23492 11.8202 3
      vertex -6.69131 7.43145 3
    endloop
  endfacet
  facet normal -0 0 1
    outer loop
      vertex -10.037 11.1472 3
      vertex -6.69131 7.43145 3
      vertex -9.23492 11.8202 3
    endloop
  endfacet
  facet normal 0 0 1
    outer loop
      vertex -6.69131 7.43145 3
      vertex -10.037 11.1472 3
      vertex -7.1934 6.94658 3
    endloop
  endfacet
  facet normal -0 0 1
    outer loop
      vertex -10.7901 10.4199 3
      vertex -7.1934 6.94658 3
      vertex -10.037 11.1472 3
    endloop
  endfacet
  facet normal 0 0 1
    outer loop
      vertex -7.1934 6.94658 3
      vertex -10.7901 10.4199 3
      vertex -7.66044 6.42788 3
    endloop
  endfacet
  facet normal -0 0 1
    outer loop
      vertex -11.4907 9.64181 3
      vertex -7.66044 6.42788 3
      vertex -10.7901 10.4199 3
    endloop
  endfacet
  facet normal 0 0 1
    outer loop
      vertex -7.66044 6.42788 3
      vertex -11.4907 9.64181 3
      vertex -8.09017 5.87785 3
    endloop
  endfacet
  facet normal -0 0 1
    outer loop
      vertex -12.1353 8.81678 3
      vertex -8.09017 5.87785 3
      vertex -11.4907 9.64181 3
    endloop
  endfacet
  facet normal 0 0 1
    outer loop
      vertex -8.09017 5.87785 3
      vertex -12.1353 8.81678 3
      vertex -8.48048 5.29919 3
    endloop
  endfacet
  facet normal -0 0 1
    outer loop
      vertex -12.7207 7.94879 3
      vertex -8.48048 5.29919 3
      vertex -12.1353 8.81678 3
    endloop
  endfacet
  facet normal 0 0 1
    outer loop
      vertex -8.48048 5.29919 3
      vertex -12.7207 7.94879 3
      vertex -8.82948 4.69472 3
    endloop
  endfacet
  facet normal -0 0 1
    outer loop
      vertex -13.2442 7.04207 3
      vertex -8.82948 4.69472 3
      vertex -12.7207 7.94879 3
    endloop
  endfacet
  facet normal -0 0 1
    outer loop
      vertex -13.7032 6.10105 3
      vertex -9.13545 4.06737 3
      vertex -13.2442 7.04207 3
    endloop
  endfacet
  facet normal 0 0 1
    outer loop
      vertex -8.82948 4.69472 3
      vertex -13.2442 7.04207 3
      vertex -9.13545 4.06737 3
    endloop
  endfacet
  facet normal -0 0 1
    outer loop
      vertex 9.97564 -0.697564 3
      vertex 14.9635 -1.04635 3
      vertex 15 -1.80688e-09 3
    endloop
  endfacet
  facet normal 0 0 1
    outer loop
      vertex 14.9635 -1.04635 3
      vertex 9.97564 -0.697564 3
      vertex 14.854 -2.0876 3
    endloop
  endfacet
  facet normal 0 0 1
    outer loop
      vertex 14.854 -2.0876 3
      vertex 9.90268 -1.39173 3
      vertex 14.6722 -3.11868 3
    endloop
  endfacet
  facet normal -0 0 1
    outer loop
      vertex 9.78148 -2.07912 3
      vertex 14.6722 -3.11868 3
      vertex 9.90268 -1.39173 3
    endloop
  endfacet
  facet normal -0 0 1
    outer loop
      vertex 9.61262 -2.75637 3
      vertex 14.4189 -4.13456 3
      vertex 9.78148 -2.07912 3
    endloop
  endfacet
  facet normal 0 0 1
    outer loop
      vertex 14.4189 -4.13456 3
      vertex 9.61262 -2.75637 3
      vertex 14.0954 -5.1303 3
    endloop
  endfacet
  facet normal 0 0 1
    outer loop
      vertex 14.0954 -5.1303 3
      vertex 9.39693 -3.4202 3
      vertex 13.7032 -6.10105 3
    endloop
  endfacet
  facet normal 0 0 1
    outer loop
      vertex 12.5 7.07107 3
      vertex 15 -1.80688e-09 3
      vertex 19.5711 -1.80688e-09 3
    endloop
  endfacet
  facet normal 0 0 1
    outer loop
      vertex 10 -1.80688e-09 3
      vertex 15 -1.80688e-09 3
      vertex 12.5 7.07107 3
    endloop
  endfacet
  facet normal 0 0 1
    outer loop
      vertex 9.97564 -0.697564 3
      vertex 15 -1.80688e-09 3
      vertex 10 -1.80688e-09 3
    endloop
  endfacet
  facet normal 0 0 1
    outer loop
      vertex 14.6722 -3.11868 3
      vertex 9.78148 -2.07912 3
      vertex 14.4189 -4.13456 3
    endloop
  endfacet
  facet normal -0 0 1
    outer loop
      vertex 9.39693 -3.4202 3
      vertex 14.0954 -5.1303 3
      vertex 9.61262 -2.75637 3
    endloop
  endfacet
  facet normal 0 0 1
    outer loop
      vertex 13.7032 -6.10105 3
      vertex 9.13545 -4.06737 3
      vertex 13.2442 -7.04207 3
    endloop
  endfacet
  facet normal 0 0 1
    outer loop
      vertex 14.854 -2.0876 3
      vertex 9.97564 -0.697564 3
      vertex 9.90268 -1.39173 3
    endloop
  endfacet
  facet normal 0 -0 1
    outer loop
      vertex 10 -1.80688e-09 3
      vertex 12.5 7.07107 3
      vertex 5.42893 -1.80688e-09 3
    endloop
  endfacet
  facet normal -0 0 1
    outer loop
      vertex 9.13545 -4.06737 3
      vertex 13.7032 -6.10105 3
      vertex 9.39693 -3.4202 3
    endloop
  endfacet
  facet normal -0 0 1
    outer loop
      vertex 8.82948 -4.69472 3
      vertex 13.2442 -7.04207 3
      vertex 9.13545 -4.06737 3
    endloop
  endfacet
  facet normal 0 0 1
    outer loop
      vertex 13.2442 -7.04207 3
      vertex 8.82948 -4.69472 3
      vertex 12.7207 -7.94879 3
    endloop
  endfacet
  facet normal -0 0 1
    outer loop
      vertex 8.48048 -5.29919 3
      vertex 12.7207 -7.94879 3
      vertex 8.82948 -4.69472 3
    endloop
  endfacet
  facet normal 0 0 1
    outer loop
      vertex 12.7207 -7.94879 3
      vertex 8.48048 -5.29919 3
      vertex 12.1353 -8.81678 3
    endloop
  endfacet
  facet normal -0 0 1
    outer loop
      vertex 8.09017 -5.87785 3
      vertex 12.1353 -8.81678 3
      vertex 8.48048 -5.29919 3
    endloop
  endfacet
  facet normal 0 0 1
    outer loop
      vertex 12.1353 -8.81678 3
      vertex 8.09017 -5.87785 3
      vertex 11.4907 -9.64181 3
    endloop
  endfacet
  facet normal -0 0 1
    outer loop
      vertex 7.66044 -6.42788 3
      vertex 11.4907 -9.64181 3
      vertex 8.09017 -5.87785 3
    endloop
  endfacet
  facet normal 0 0 1
    outer loop
      vertex 11.4907 -9.64181 3
      vertex 7.66044 -6.42788 3
      vertex 10.7901 -10.4199 3
    endloop
  endfacet
  facet normal -0 0 1
    outer loop
      vertex 7.1934 -6.94658 3
      vertex 10.7901 -10.4199 3
      vertex 7.66044 -6.42788 3
    endloop
  endfacet
  facet normal 0 0 1
    outer loop
      vertex 10.7901 -10.4199 3
      vertex 7.1934 -6.94658 3
      vertex 10.037 -11.1472 3
    endloop
  endfacet
  facet normal -0 0 1
    outer loop
      vertex 6.69131 -7.43145 3
      vertex 10.037 -11.1472 3
      vertex 7.1934 -6.94658 3
    endloop
  endfacet
  facet normal 0 0 1
    outer loop
      vertex 10.037 -11.1472 3
      vertex 6.69131 -7.43145 3
      vertex 9.23492 -11.8202 3
    endloop
  endfacet
  facet normal -0 0 1
    outer loop
      vertex 6.15661 -7.88011 3
      vertex 9.23492 -11.8202 3
      vertex 6.69131 -7.43145 3
    endloop
  endfacet
  facet normal 0 0 1
    outer loop
      vertex 9.23492 -11.8202 3
      vertex 6.15661 -7.88011 3
      vertex 8.38789 -12.4356 3
    endloop
  endfacet
  facet normal -0 0 1
    outer loop
      vertex 5.59193 -8.29038 3
      vertex 8.38789 -12.4356 3
      vertex 6.15661 -7.88011 3
    endloop
  endfacet
  facet normal 0 0 1
    outer loop
      vertex 8.38789 -12.4356 3
      vertex 5.59193 -8.29038 3
      vertex 7.5 -12.9904 3
    endloop
  endfacet
  facet normal -0 0 1
    outer loop
      vertex 5 -8.66025 3
      vertex 7.5 -12.9904 3
      vertex 5.59193 -8.29038 3
    endloop
  endfacet
  facet normal 0 0 1
    outer loop
      vertex 7.5 -12.9904 3
      vertex 5 -8.66025 3
      vertex 6.57557 -13.4819 3
    endloop
  endfacet
  facet normal -0 0 1
    outer loop
      vertex 4.38371 -8.98794 3
      vertex 6.57557 -13.4819 3
      vertex 5 -8.66025 3
    endloop
  endfacet
  facet normal 0 0 1
    outer loop
      vertex 6.57557 -13.4819 3
      vertex 4.38371 -8.98794 3
      vertex 5.6191 -13.9078 3
    endloop
  endfacet
  facet normal -0 0 1
    outer loop
      vertex 3.74607 -9.27184 3
      vertex 5.6191 -13.9078 3
      vertex 4.38371 -8.98794 3
    endloop
  endfacet
  facet normal 0 0 1
    outer loop
      vertex 5.6191 -13.9078 3
      vertex 3.74607 -9.27184 3
      vertex 4.63525 -14.2658 3
    endloop
  endfacet
  facet normal -0 0 1
    outer loop
      vertex 3.09017 -9.51056 3
      vertex 4.63525 -14.2658 3
      vertex 3.74607 -9.27184 3
    endloop
  endfacet
  facet normal 0 0 1
    outer loop
      vertex 4.63525 -14.2658 3
      vertex 3.09017 -9.51056 3
      vertex 3.62883 -14.5544 3
    endloop
  endfacet
  facet normal -0 0 1
    outer loop
      vertex 2.41922 -9.70296 3
      vertex 3.62883 -14.5544 3
      vertex 3.09017 -9.51056 3
    endloop
  endfacet
  facet normal 0 0 1
    outer loop
      vertex 3.62883 -14.5544 3
      vertex 2.41922 -9.70296 3
      vertex 2.60472 -14.7721 3
    endloop
  endfacet
  facet normal -0 0 1
    outer loop
      vertex 1.73648 -9.84808 3
      vertex 2.60472 -14.7721 3
      vertex 2.41922 -9.70296 3
    endloop
  endfacet
  facet normal 0 0 1
    outer loop
      vertex 1.73648 -9.84808 3
      vertex 1.56793 -14.9178 3
      vertex 2.60472 -14.7721 3
    endloop
  endfacet
  facet normal -0 0 1
    outer loop
      vertex 1.04528 -9.94522 3
      vertex 1.56793 -14.9178 3
      vertex 1.73648 -9.84808 3
    endloop
  endfacet
  facet normal 0 0 1
    outer loop
      vertex 1.04528 -9.94522 3
      vertex 0.523492 -14.9909 3
      vertex 1.56793 -14.9178 3
    endloop
  endfacet
  facet normal -0 0 1
    outer loop
      vertex 0.348994 -9.99391 3
      vertex 0.523492 -14.9909 3
      vertex 1.04528 -9.94522 3
    endloop
  endfacet
  facet normal -0 0 1
    outer loop
      vertex -0.348994 -9.99391 3
      vertex 0.523492 -14.9909 3
      vertex 0.348994 -9.99391 3
    endloop
  endfacet
  facet normal 0 0 1
    outer loop
      vertex -0.348994 -9.99391 3
      vertex -0.523492 -14.9909 3
      vertex 0.523492 -14.9909 3
    endloop
  endfacet
  facet normal 0 0 1
    outer loop
      vertex -1.04528 -9.94522 3
      vertex -0.523492 -14.9909 3
      vertex -0.348994 -9.99391 3
    endloop
  endfacet
  facet normal 0 0 1
    outer loop
      vertex -1.04528 -9.94522 3
      vertex -1.56793 -14.9178 3
      vertex -0.523492 -14.9909 3
    endloop
  endfacet
  facet normal 0 0 1
    outer loop
      vertex -1.73648 -9.84808 3
      vertex -1.56793 -14.9178 3
      vertex -1.04528 -9.94522 3
    endloop
  endfacet
  facet normal 0 0 1
    outer loop
      vertex -2.60472 -14.7721 3
      vertex -1.73648 -9.84808 3
      vertex -2.41922 -9.70296 3
    endloop
  endfacet
  facet normal 0 0 1
    outer loop
      vertex -1.73648 -9.84808 3
      vertex -2.60472 -14.7721 3
      vertex -1.56793 -14.9178 3
    endloop
  endfacet
  facet normal 0 0 1
    outer loop
      vertex -3.62883 -14.5544 3
      vertex -2.41922 -9.70296 3
      vertex -3.09017 -9.51056 3
    endloop
  endfacet
  facet normal 0 0 1
    outer loop
      vertex -2.41922 -9.70296 3
      vertex -3.62883 -14.5544 3
      vertex -2.60472 -14.7721 3
    endloop
  endfacet
  facet normal 0 0 1
    outer loop
      vertex -4.63525 -14.2658 3
      vertex -3.09017 -9.51056 3
      vertex -3.74607 -9.27184 3
    endloop
  endfacet
  facet normal 0 0 1
    outer loop
      vertex -5.6191 -13.9078 3
      vertex -3.74607 -9.27184 3
      vertex -4.38371 -8.98794 3
    endloop
  endfacet
  facet normal 0 0 1
    outer loop
      vertex -3.09017 -9.51056 3
      vertex -4.63525 -14.2658 3
      vertex -3.62883 -14.5544 3
    endloop
  endfacet
  facet normal 0 0 1
    outer loop
      vertex -6.57557 -13.4819 3
      vertex -4.38371 -8.98794 3
      vertex -5 -8.66025 3
    endloop
  endfacet
  facet normal 0 0 1
    outer loop
      vertex -7.5 -12.9904 3
      vertex -5 -8.66025 3
      vertex -5.59193 -8.29038 3
    endloop
  endfacet
  facet normal 0 0 1
    outer loop
      vertex -3.74607 -9.27184 3
      vertex -5.6191 -13.9078 3
      vertex -4.63525 -14.2658 3
    endloop
  endfacet
  facet normal 0 0 1
    outer loop
      vertex -8.38789 -12.4356 3
      vertex -5.59193 -8.29038 3
      vertex -6.15661 -7.88011 3
    endloop
  endfacet
  facet normal 0 0 1
    outer loop
      vertex -4.38371 -8.98794 3
      vertex -6.57557 -13.4819 3
      vertex -5.6191 -13.9078 3
    endloop
  endfacet
  facet normal 0 0 1
    outer loop
      vertex -9.23492 -11.8202 3
      vertex -6.15661 -7.88011 3
      vertex -6.69131 -7.43145 3
    endloop
  endfacet
  facet normal 0 0 1
    outer loop
      vertex -10.037 -11.1472 3
      vertex -6.69131 -7.43145 3
      vertex -7.1934 -6.94658 3
    endloop
  endfacet
  facet normal 0 0 1
    outer loop
      vertex -5 -8.66025 3
      vertex -7.5 -12.9904 3
      vertex -6.57557 -13.4819 3
    endloop
  endfacet
  facet normal 0 0 1
    outer loop
      vertex -10.7901 -10.4199 3
      vertex -7.1934 -6.94658 3
      vertex -7.66044 -6.42788 3
    endloop
  endfacet
  facet normal 0 0 1
    outer loop
      vertex -11.4907 -9.64181 3
      vertex -7.66044 -6.42788 3
      vertex -8.09017 -5.87785 3
    endloop
  endfacet
  facet normal 0 0 1
    outer loop
      vertex -5.59193 -8.29038 3
      vertex -8.38789 -12.4356 3
      vertex -7.5 -12.9904 3
    endloop
  endfacet
  facet normal 0 0 1
    outer loop
      vertex -12.1353 -8.81678 3
      vertex -8.09017 -5.87785 3
      vertex -8.48048 -5.29919 3
    endloop
  endfacet
  facet normal 0 0 1
    outer loop
      vertex -12.7207 -7.94879 3
      vertex -8.48048 -5.29919 3
      vertex -8.82948 -4.69472 3
    endloop
  endfacet
  facet normal 0 0 1
    outer loop
      vertex -13.2442 -7.04207 3
      vertex -8.82948 -4.69472 3
      vertex -9.13545 -4.06737 3
    endloop
  endfacet
  facet normal 0 0 1
    outer loop
      vertex -6.15661 -7.88011 3
      vertex -9.23492 -11.8202 3
      vertex -8.38789 -12.4356 3
    endloop
  endfacet
  facet normal 0 0 1
    outer loop
      vertex -13.7032 -6.10105 3
      vertex -9.13545 -4.06737 3
      vertex -9.39693 -3.4202 3
    endloop
  endfacet
  facet normal 0 0 1
    outer loop
      vertex -14.0954 -5.1303 3
      vertex -9.39693 -3.4202 3
      vertex -9.61262 -2.75637 3
    endloop
  endfacet
  facet normal 0 0 1
    outer loop
      vertex -14.4189 -4.13456 3
      vertex -9.61262 -2.75637 3
      vertex -9.78148 -2.07912 3
    endloop
  endfacet
  facet normal 0 0 1
    outer loop
      vertex -14.6722 -3.11868 3
      vertex -9.78148 -2.07912 3
      vertex -9.90268 -1.39173 3
    endloop
  endfacet
  facet normal 0 0 1
    outer loop
      vertex -14.854 -2.0876 3
      vertex -9.90268 -1.39173 3
      vertex -9.97564 -0.697564 3
    endloop
  endfacet
  facet normal 0 0 1
    outer loop
      vertex -6.69131 -7.43145 3
      vertex -10.037 -11.1472 3
      vertex -9.23492 -11.8202 3
    endloop
  endfacet
  facet normal 0 0 1
    outer loop
      vertex -14.9635 -1.04635 3
      vertex -9.97564 -0.697564 3
      vertex -10 0 3
    endloop
  endfacet
  facet normal 0 0 1
    outer loop
      vertex -9.13545 4.06737 3
      vertex -13.7032 6.10105 3
      vertex -9.39693 3.4202 3
    endloop
  endfacet
  facet normal -0 0 1
    outer loop
      vertex -14.0954 5.1303 3
      vertex -9.39693 3.4202 3
      vertex -13.7032 6.10105 3
    endloop
  endfacet
  facet normal 0 0 1
    outer loop
      vertex -7.1934 -6.94658 3
      vertex -10.7901 -10.4199 3
      vertex -10.037 -11.1472 3
    endloop
  endfacet
  facet normal 0 0 1
    outer loop
      vertex -9.39693 3.4202 3
      vertex -14.0954 5.1303 3
      vertex -9.61262 2.75637 3
    endloop
  endfacet
  facet normal 0 0 1
    outer loop
      vertex -7.66044 -6.42788 3
      vertex -11.4907 -9.64181 3
      vertex -10.7901 -10.4199 3
    endloop
  endfacet
  facet normal -0 0 1
    outer loop
      vertex -14.4189 4.13456 3
      vertex -9.61262 2.75637 3
      vertex -14.0954 5.1303 3
    endloop
  endfacet
  facet normal 0 0 1
    outer loop
      vertex -8.09017 -5.87785 3
      vertex -12.1353 -8.81678 3
      vertex -11.4907 -9.64181 3
    endloop
  endfacet
  facet normal 0 0 1
    outer loop
      vertex -9.61262 2.75637 3
      vertex -14.4189 4.13456 3
      vertex -9.78148 2.07912 3
    endloop
  endfacet
  facet normal 0 0 1
    outer loop
      vertex -8.48048 -5.29919 3
      vertex -12.7207 -7.94879 3
      vertex -12.1353 -8.81678 3
    endloop
  endfacet
  facet normal -0 0 1
    outer loop
      vertex -14.6722 3.11868 3
      vertex -9.78148 2.07912 3
      vertex -14.4189 4.13456 3
    endloop
  endfacet
  facet normal 0 0 1
    outer loop
      vertex -8.82948 -4.69472 3
      vertex -13.2442 -7.04207 3
      vertex -12.7207 -7.94879 3
    endloop
  endfacet
  facet normal 0 0 1
    outer loop
      vertex -9.78148 2.07912 3
      vertex -14.6722 3.11868 3
      vertex -9.90268 1.39173 3
    endloop
  endfacet
  facet normal 0 0 1
    outer loop
      vertex -9.13545 -4.06737 3
      vertex -13.7032 -6.10105 3
      vertex -13.2442 -7.04207 3
    endloop
  endfacet
  facet normal -0 0 1
    outer loop
      vertex -14.854 2.0876 3
      vertex -9.90268 1.39173 3
      vertex -14.6722 3.11868 3
    endloop
  endfacet
  facet normal 0 0 1
    outer loop
      vertex -9.39693 -3.4202 3
      vertex -14.0954 -5.1303 3
      vertex -13.7032 -6.10105 3
    endloop
  endfacet
  facet normal 0 0 1
    outer loop
      vertex -9.90268 1.39173 3
      vertex -14.854 2.0876 3
      vertex -9.97564 0.697564 3
    endloop
  endfacet
  facet normal 0 0 1
    outer loop
      vertex -9.61262 -2.75637 3
      vertex -14.4189 -4.13456 3
      vertex -14.0954 -5.1303 3
    endloop
  endfacet
  facet normal -0 0 1
    outer loop
      vertex -14.9635 1.04635 3
      vertex -9.97564 0.697564 3
      vertex -14.854 2.0876 3
    endloop
  endfacet
  facet normal 0 0 1
    outer loop
      vertex -9.78148 -2.07912 3
      vertex -14.6722 -3.11868 3
      vertex -14.4189 -4.13456 3
    endloop
  endfacet
  facet normal 0 0 1
    outer loop
      vertex -9.97564 0.697564 3
      vertex -14.9635 1.04635 3
      vertex -10 0 3
    endloop
  endfacet
  facet normal 0 0 1
    outer loop
      vertex -9.90268 -1.39173 3
      vertex -14.854 -2.0876 3
      vertex -14.6722 -3.11868 3
    endloop
  endfacet
  facet normal 0 0 1
    outer loop
      vertex -15 0 3
      vertex -10 0 3
      vertex -14.9635 1.04635 3
    endloop
  endfacet
  facet normal 0 0 1
    outer loop
      vertex -9.97564 -0.697564 3
      vertex -14.9635 -1.04635 3
      vertex -14.854 -2.0876 3
    endloop
  endfacet
  facet normal 0 0 1
    outer loop
      vertex -10 0 3
      vertex -15 0 3
      vertex -14.9635 -1.04635 3
    endloop
  endfacet
  facet normal -0.866026 0.5 0
    outer loop
      vertex -13.2442 7.04207 0
      vertex -12.7207 7.94879 3
      vertex -12.7207 7.94879 0
    endloop
  endfacet
  facet normal -0.866026 0.5 0
    outer loop
      vertex -12.7207 7.94879 3
      vertex -13.2442 7.04207 0
      vertex -13.2442 7.04207 3
    endloop
  endfacet
  facet normal -0.0697568 0.997564 0
    outer loop
      vertex -0.523492 14.9909 0
      vertex -1.56793 14.9178 3
      vertex -0.523492 14.9909 3
    endloop
  endfacet
  facet normal -0.0697568 0.997564 0
    outer loop
      vertex -1.56793 14.9178 3
      vertex -0.523492 14.9909 0
      vertex -1.56793 14.9178 0
    endloop
  endfacet
  facet normal -0.406738 0.913545 0
    outer loop
      vertex -5.6191 13.9078 0
      vertex -6.57557 13.4819 3
      vertex -5.6191 13.9078 3
    endloop
  endfacet
  facet normal -0.406738 0.913545 0
    outer loop
      vertex -6.57557 13.4819 3
      vertex -5.6191 13.9078 0
      vertex -6.57557 13.4819 0
    endloop
  endfacet
  facet normal -0.642787 0.766045 0
    outer loop
      vertex -9.23492 11.8202 0
      vertex -10.037 11.1472 3
      vertex -9.23492 11.8202 3
    endloop
  endfacet
  facet normal -0.642787 0.766045 0
    outer loop
      vertex -10.037 11.1472 3
      vertex -9.23492 11.8202 0
      vertex -10.037 11.1472 0
    endloop
  endfacet
  facet normal -0.587785 0.809017 0
    outer loop
      vertex -8.38789 12.4356 0
      vertex -9.23492 11.8202 3
      vertex -8.38789 12.4356 3
    endloop
  endfacet
  facet normal -0.587785 0.809017 0
    outer loop
      vertex -9.23492 11.8202 3
      vertex -8.38789 12.4356 0
      vertex -9.23492 11.8202 0
    endloop
  endfacet
  facet normal 0.994522 -0.104529 0
    outer loop
      vertex 14.854 -2.0876 3
      vertex 14.9635 -1.04635 0
      vertex 14.9635 -1.04635 3
    endloop
  endfacet
  facet normal 0.994522 -0.104529 0
    outer loop
      vertex 14.9635 -1.04635 0
      vertex 14.854 -2.0876 3
      vertex 14.854 -2.0876 0
    endloop
  endfacet
  facet normal 0.788011 -0.615662 0
    outer loop
      vertex 11.4907 -9.64181 3
      vertex 12.1353 -8.81678 0
      vertex 12.1353 -8.81678 3
    endloop
  endfacet
  facet normal 0.788011 -0.615662 0
    outer loop
      vertex 12.1353 -8.81678 0
      vertex 11.4907 -9.64181 3
      vertex 11.4907 -9.64181 0
    endloop
  endfacet
  facet normal 0.898794 -0.438371 0
    outer loop
      vertex 13.2442 -7.04207 3
      vertex 13.7032 -6.10105 0
      vertex 13.7032 -6.10105 3
    endloop
  endfacet
  facet normal 0.898794 -0.438371 0
    outer loop
      vertex 13.7032 -6.10105 0
      vertex 13.2442 -7.04207 3
      vertex 13.2442 -7.04207 0
    endloop
  endfacet
  facet normal -0.984808 -0.173648 0
    outer loop
      vertex -14.6722 -3.11868 0
      vertex -14.854 -2.0876 3
      vertex -14.854 -2.0876 0
    endloop
  endfacet
  facet normal -0.984808 -0.173648 0
    outer loop
      vertex -14.854 -2.0876 3
      vertex -14.6722 -3.11868 0
      vertex -14.6722 -3.11868 3
    endloop
  endfacet
  facet normal -0.788011 -0.615662 0
    outer loop
      vertex -11.4907 -9.64181 0
      vertex -12.1353 -8.81678 3
      vertex -12.1353 -8.81678 0
    endloop
  endfacet
  facet normal -0.788011 -0.615662 0
    outer loop
      vertex -12.1353 -8.81678 3
      vertex -11.4907 -9.64181 0
      vertex -11.4907 -9.64181 3
    endloop
  endfacet
  facet normal -0.927184 -0.374606 0
    outer loop
      vertex -13.7032 -6.10105 0
      vertex -14.0954 -5.1303 3
      vertex -14.0954 -5.1303 0
    endloop
  endfacet
  facet normal -0.927184 -0.374606 0
    outer loop
      vertex -14.0954 -5.1303 3
      vertex -13.7032 -6.10105 0
      vertex -13.7032 -6.10105 3
    endloop
  endfacet
  facet normal 0.275638 -0.961262 0
    outer loop
      vertex 3.62883 -14.5544 0
      vertex 4.63525 -14.2658 3
      vertex 3.62883 -14.5544 3
    endloop
  endfacet
  facet normal 0.275638 -0.961262 0
    outer loop
      vertex 4.63525 -14.2658 3
      vertex 3.62883 -14.5544 0
      vertex 4.63525 -14.2658 0
    endloop
  endfacet
  facet normal 0.406738 -0.913545 0
    outer loop
      vertex 5.6191 -13.9078 0
      vertex 6.57557 -13.4819 3
      vertex 5.6191 -13.9078 3
    endloop
  endfacet
  facet normal 0.406738 -0.913545 0
    outer loop
      vertex 6.57557 -13.4819 3
      vertex 5.6191 -13.9078 0
      vertex 6.57557 -13.4819 0
    endloop
  endfacet
  facet normal 0.984808 -0.173648 0
    outer loop
      vertex 14.6722 -3.11868 3
      vertex 14.854 -2.0876 0
      vertex 14.854 -2.0876 3
    endloop
  endfacet
  facet normal 0.984808 -0.173648 0
    outer loop
      vertex 14.854 -2.0876 0
      vertex 14.6722 -3.11868 3
      vertex 14.6722 -3.11868 0
    endloop
  endfacet
  facet normal 0.587785 -0.809017 0
    outer loop
      vertex 8.38789 -12.4356 0
      vertex 9.23492 -11.8202 3
      vertex 8.38789 -12.4356 3
    endloop
  endfacet
  facet normal 0.587785 -0.809017 0
    outer loop
      vertex 9.23492 -11.8202 3
      vertex 8.38789 -12.4356 0
      vertex 9.23492 -11.8202 0
    endloop
  endfacet
  facet normal 0.694659 -0.71934 0
    outer loop
      vertex 10.037 -11.1472 0
      vertex 10.7901 -10.4199 3
      vertex 10.037 -11.1472 3
    endloop
  endfacet
  facet normal 0.694659 -0.71934 0
    outer loop
      vertex 10.7901 -10.4199 3
      vertex 10.037 -11.1472 0
      vertex 10.7901 -10.4199 0
    endloop
  endfacet
  facet normal 0.642787 -0.766045 0
    outer loop
      vertex 9.23492 -11.8202 0
      vertex 10.037 -11.1472 3
      vertex 9.23492 -11.8202 3
    endloop
  endfacet
  facet normal 0.642787 -0.766045 0
    outer loop
      vertex 10.037 -11.1472 3
      vertex 9.23492 -11.8202 0
      vertex 10.037 -11.1472 0
    endloop
  endfacet
  facet normal 0.866026 -0.5 0
    outer loop
      vertex 12.7207 -7.94879 3
      vertex 13.2442 -7.04207 0
      vertex 13.2442 -7.04207 3
    endloop
  endfacet
  facet normal 0.866026 -0.5 0
    outer loop
      vertex 13.2442 -7.04207 0
      vertex 12.7207 -7.94879 3
      vertex 12.7207 -7.94879 0
    endloop
  endfacet
  facet normal 0.927184 -0.374606 0
    outer loop
      vertex 13.7032 -6.10105 3
      vertex 14.0954 -5.1303 0
      vertex 14.0954 -5.1303 3
    endloop
  endfacet
  facet normal 0.927184 -0.374606 0
    outer loop
      vertex 14.0954 -5.1303 0
      vertex 13.7032 -6.10105 3
      vertex 13.7032 -6.10105 0
    endloop
  endfacet
  facet normal -0.34202 -0.939693 0
    outer loop
      vertex -5.6191 -13.9078 0
      vertex -4.63525 -14.2658 3
      vertex -5.6191 -13.9078 3
    endloop
  endfacet
  facet normal -0.34202 -0.939693 -0
    outer loop
      vertex -4.63525 -14.2658 3
      vertex -5.6191 -13.9078 0
      vertex -4.63525 -14.2658 0
    endloop
  endfacet
  facet normal -0.139173 -0.990268 0
    outer loop
      vertex -2.60472 -14.7721 0
      vertex -1.56793 -14.9178 3
      vertex -2.60472 -14.7721 3
    endloop
  endfacet
  facet normal -0.139173 -0.990268 -0
    outer loop
      vertex -1.56793 -14.9178 3
      vertex -2.60472 -14.7721 0
      vertex -1.56793 -14.9178 0
    endloop
  endfacet
  facet normal -0.694659 -0.71934 0
    outer loop
      vertex -10.7901 -10.4199 0
      vertex -10.037 -11.1472 3
      vertex -10.7901 -10.4199 3
    endloop
  endfacet
  facet normal -0.694659 -0.71934 -0
    outer loop
      vertex -10.037 -11.1472 3
      vertex -10.7901 -10.4199 0
      vertex -10.037 -11.1472 0
    endloop
  endfacet
  facet normal -0.951056 -0.309018 0
    outer loop
      vertex -14.0954 -5.1303 0
      vertex -14.4189 -4.13456 3
      vertex -14.4189 -4.13456 0
    endloop
  endfacet
  facet normal -0.951056 -0.309018 0
    outer loop
      vertex -14.4189 -4.13456 3
      vertex -14.0954 -5.1303 0
      vertex -14.0954 -5.1303 3
    endloop
  endfacet
  facet normal 0 0 -1
    outer loop
      vertex 14.9635 -1.04635 0
      vertex 9.97564 -0.697564 0
      vertex 10 -1.80688e-09 0
    endloop
  endfacet
  facet normal 0 0 -1
    outer loop
      vertex 10.7901 -10.4199 0
      vertex 9.90268 -1.39173 0
      vertex 9.97564 -0.697564 0
    endloop
  endfacet
  facet normal 0 0 -1
    outer loop
      vertex 10.7901 -10.4199 0
      vertex 9.78148 -2.07912 0
      vertex 9.90268 -1.39173 0
    endloop
  endfacet
  facet normal 0 0 -1
    outer loop
      vertex 10.7901 -10.4199 0
      vertex 9.61262 -2.75637 0
      vertex 9.78148 -2.07912 0
    endloop
  endfacet
  facet normal 0 0 -1
    outer loop
      vertex 10.7901 -10.4199 0
      vertex 9.39693 -3.4202 0
      vertex 9.61262 -2.75637 0
    endloop
  endfacet
  facet normal 0 0 -1
    outer loop
      vertex 6.69131 -7.43145 0
      vertex 10.037 -11.1472 0
      vertex 9.23492 -11.8202 0
    endloop
  endfacet
  facet normal 0 0 -1
    outer loop
      vertex 10.7901 -10.4199 0
      vertex 9.13545 -4.06737 0
      vertex 9.39693 -3.4202 0
    endloop
  endfacet
  facet normal 0 0 -1
    outer loop
      vertex 10.7901 -10.4199 0
      vertex 8.82948 -4.69472 0
      vertex 9.13545 -4.06737 0
    endloop
  endfacet
  facet normal 0 0 -1
    outer loop
      vertex 10.7901 -10.4199 0
      vertex 8.48048 -5.29919 0
      vertex 8.82948 -4.69472 0
    endloop
  endfacet
  facet normal 0 0 -1
    outer loop
      vertex 6.15661 -7.88011 0
      vertex 9.23492 -11.8202 0
      vertex 8.38789 -12.4356 0
    endloop
  endfacet
  facet normal 0 0 -1
    outer loop
      vertex 10.7901 -10.4199 0
      vertex 8.09017 -5.87785 0
      vertex 8.48048 -5.29919 0
    endloop
  endfacet
  facet normal 0 0 -1
    outer loop
      vertex 10.7901 -10.4199 0
      vertex 7.66044 -6.42788 0
      vertex 8.09017 -5.87785 0
    endloop
  endfacet
  facet normal 0 0 -1
    outer loop
      vertex 5.59193 -8.29038 0
      vertex 8.38789 -12.4356 0
      vertex 7.5 -12.9904 0
    endloop
  endfacet
  facet normal 0 0 -1
    outer loop
      vertex 10.7901 -10.4199 0
      vertex 7.1934 -6.94658 0
      vertex 7.66044 -6.42788 0
    endloop
  endfacet
  facet normal 0 0 -1
    outer loop
      vertex 10.037 -11.1472 0
      vertex 6.69131 -7.43145 0
      vertex 7.1934 -6.94658 0
    endloop
  endfacet
  facet normal 0 0 -1
    outer loop
      vertex 5 -8.66025 0
      vertex 7.5 -12.9904 0
      vertex 6.57557 -13.4819 0
    endloop
  endfacet
  facet normal 0 0 -1
    outer loop
      vertex 9.23492 -11.8202 0
      vertex 6.15661 -7.88011 0
      vertex 6.69131 -7.43145 0
    endloop
  endfacet
  facet normal 0 0 -1
    outer loop
      vertex 4.38371 -8.98794 0
      vertex 6.57557 -13.4819 0
      vertex 5.6191 -13.9078 0
    endloop
  endfacet
  facet normal 0 0 -1
    outer loop
      vertex 8.38789 -12.4356 0
      vertex 5.59193 -8.29038 0
      vertex 6.15661 -7.88011 0
    endloop
  endfacet
  facet normal 0 0 -1
    outer loop
      vertex 7.5 -12.9904 0
      vertex 5 -8.66025 0
      vertex 5.59193 -8.29038 0
    endloop
  endfacet
  facet normal 0 0 -1
    outer loop
      vertex 3.74607 -9.27184 0
      vertex 5.6191 -13.9078 0
      vertex 4.63525 -14.2658 0
    endloop
  endfacet
  facet normal 0 0 -1
    outer loop
      vertex 6.57557 -13.4819 0
      vertex 4.38371 -8.98794 0
      vertex 5 -8.66025 0
    endloop
  endfacet
  facet normal 0 0 -1
    outer loop
      vertex 5.6191 -13.9078 0
      vertex 3.74607 -9.27184 0
      vertex 4.38371 -8.98794 0
    endloop
  endfacet
  facet normal 0 0 -1
    outer loop
      vertex 3.09017 -9.51056 0
      vertex 4.63525 -14.2658 0
      vertex 3.62883 -14.5544 0
    endloop
  endfacet
  facet normal 0 0 -1
    outer loop
      vertex 4.63525 -14.2658 0
      vertex 3.09017 -9.51056 0
      vertex 3.74607 -9.27184 0
    endloop
  endfacet
  facet normal 0 0 -1
    outer loop
      vertex 2.41922 -9.70296 0
      vertex 3.62883 -14.5544 0
      vertex 2.60472 -14.7721 0
    endloop
  endfacet
  facet normal 0 0 -1
    outer loop
      vertex 3.62883 -14.5544 0
      vertex 2.41922 -9.70296 0
      vertex 3.09017 -9.51056 0
    endloop
  endfacet
  facet normal 0 0 -1
    outer loop
      vertex 2.60472 -14.7721 0
      vertex 1.73648 -9.84808 0
      vertex 2.41922 -9.70296 0
    endloop
  endfacet
  facet normal 0 0 -1
    outer loop
      vertex 1.56793 -14.9178 0
      vertex 1.73648 -9.84808 0
      vertex 2.60472 -14.7721 0
    endloop
  endfacet
  facet normal 0 0 -1
    outer loop
      vertex 1.56793 -14.9178 0
      vertex 1.04528 -9.94522 0
      vertex 1.73648 -9.84808 0
    endloop
  endfacet
  facet normal 0 0 -1
    outer loop
      vertex 0.523492 -14.9909 0
      vertex 1.04528 -9.94522 0
      vertex 1.56793 -14.9178 0
    endloop
  endfacet
  facet normal 0 0 -1
    outer loop
      vertex 0.523492 -14.9909 0
      vertex 0.348994 -9.99391 0
      vertex 1.04528 -9.94522 0
    endloop
  endfacet
  facet normal 0 0 -1
    outer loop
      vertex 0.523492 -14.9909 0
      vertex -0.348994 -9.99391 0
      vertex 0.348994 -9.99391 0
    endloop
  endfacet
  facet normal 0 0 -1
    outer loop
      vertex -0.523492 -14.9909 0
      vertex -0.348994 -9.99391 0
      vertex 0.523492 -14.9909 0
    endloop
  endfacet
  facet normal 0 0 -1
    outer loop
      vertex -0.523492 -14.9909 0
      vertex -1.04528 -9.94522 0
      vertex -0.348994 -9.99391 0
    endloop
  endfacet
  facet normal 0 0 -1
    outer loop
      vertex -1.56793 -14.9178 0
      vertex -1.04528 -9.94522 0
      vertex -0.523492 -14.9909 0
    endloop
  endfacet
  facet normal 0 0 -1
    outer loop
      vertex -1.56793 -14.9178 0
      vertex -1.73648 -9.84808 0
      vertex -1.04528 -9.94522 0
    endloop
  endfacet
  facet normal 0 0 -1
    outer loop
      vertex -2.60472 -14.7721 0
      vertex -1.73648 -9.84808 0
      vertex -1.56793 -14.9178 0
    endloop
  endfacet
  facet normal -0 0 -1
    outer loop
      vertex -1.73648 -9.84808 0
      vertex -2.60472 -14.7721 0
      vertex -2.41922 -9.70296 0
    endloop
  endfacet
  facet normal 0 0 -1
    outer loop
      vertex -3.62883 -14.5544 0
      vertex -2.41922 -9.70296 0
      vertex -2.60472 -14.7721 0
    endloop
  endfacet
  facet normal -0 0 -1
    outer loop
      vertex -2.41922 -9.70296 0
      vertex -3.62883 -14.5544 0
      vertex -3.09017 -9.51056 0
    endloop
  endfacet
  facet normal 0 0 -1
    outer loop
      vertex -4.63525 -14.2658 0
      vertex -3.09017 -9.51056 0
      vertex -3.62883 -14.5544 0
    endloop
  endfacet
  facet normal -0 0 -1
    outer loop
      vertex -3.09017 -9.51056 0
      vertex -4.63525 -14.2658 0
      vertex -3.74607 -9.27184 0
    endloop
  endfacet
  facet normal 0 0 -1
    outer loop
      vertex -5.6191 -13.9078 0
      vertex -3.74607 -9.27184 0
      vertex -4.63525 -14.2658 0
    endloop
  endfacet
  facet normal -0 0 -1
    outer loop
      vertex -3.74607 -9.27184 0
      vertex -5.6191 -13.9078 0
      vertex -4.38371 -8.98794 0
    endloop
  endfacet
  facet normal 0 0 -1
    outer loop
      vertex -6.57557 -13.4819 0
      vertex -4.38371 -8.98794 0
      vertex -5.6191 -13.9078 0
    endloop
  endfacet
  facet normal -0 0 -1
    outer loop
      vertex -4.38371 -8.98794 0
      vertex -6.57557 -13.4819 0
      vertex -5 -8.66025 0
    endloop
  endfacet
  facet normal 0 0 -1
    outer loop
      vertex -7.5 -12.9904 0
      vertex -5 -8.66025 0
      vertex -6.57557 -13.4819 0
    endloop
  endfacet
  facet normal -0 0 -1
    outer loop
      vertex -5 -8.66025 0
      vertex -7.5 -12.9904 0
      vertex -5.59193 -8.29038 0
    endloop
  endfacet
  facet normal 0 0 -1
    outer loop
      vertex -8.38789 -12.4356 0
      vertex -5.59193 -8.29038 0
      vertex -7.5 -12.9904 0
    endloop
  endfacet
  facet normal -0 0 -1
    outer loop
      vertex -5.59193 -8.29038 0
      vertex -8.38789 -12.4356 0
      vertex -6.15661 -7.88011 0
    endloop
  endfacet
  facet normal 0 0 -1
    outer loop
      vertex -9.23492 -11.8202 0
      vertex -6.15661 -7.88011 0
      vertex -8.38789 -12.4356 0
    endloop
  endfacet
  facet normal -0 0 -1
    outer loop
      vertex -6.15661 -7.88011 0
      vertex -9.23492 -11.8202 0
      vertex -6.69131 -7.43145 0
    endloop
  endfacet
  facet normal 0 0 -1
    outer loop
      vertex -10.037 -11.1472 0
      vertex -6.69131 -7.43145 0
      vertex -9.23492 -11.8202 0
    endloop
  endfacet
  facet normal -0 0 -1
    outer loop
      vertex -6.69131 -7.43145 0
      vertex -10.037 -11.1472 0
      vertex -7.1934 -6.94658 0
    endloop
  endfacet
  facet normal 0 0 -1
    outer loop
      vertex -10.7901 -10.4199 0
      vertex -7.1934 -6.94658 0
      vertex -10.037 -11.1472 0
    endloop
  endfacet
  facet normal -0 0 -1
    outer loop
      vertex -7.1934 -6.94658 0
      vertex -10.7901 -10.4199 0
      vertex -7.66044 -6.42788 0
    endloop
  endfacet
  facet normal 0 0 -1
    outer loop
      vertex -11.4907 -9.64181 0
      vertex -7.66044 -6.42788 0
      vertex -10.7901 -10.4199 0
    endloop
  endfacet
  facet normal -0 0 -1
    outer loop
      vertex -7.66044 -6.42788 0
      vertex -11.4907 -9.64181 0
      vertex -8.09017 -5.87785 0
    endloop
  endfacet
  facet normal 0 0 -1
    outer loop
      vertex -12.1353 -8.81678 0
      vertex -8.09017 -5.87785 0
      vertex -11.4907 -9.64181 0
    endloop
  endfacet
  facet normal -0 0 -1
    outer loop
      vertex -8.09017 -5.87785 0
      vertex -12.1353 -8.81678 0
      vertex -8.48048 -5.29919 0
    endloop
  endfacet
  facet normal 0 0 -1
    outer loop
      vertex -12.7207 -7.94879 0
      vertex -8.48048 -5.29919 0
      vertex -12.1353 -8.81678 0
    endloop
  endfacet
  facet normal -0 0 -1
    outer loop
      vertex -8.48048 -5.29919 0
      vertex -12.7207 -7.94879 0
      vertex -8.82948 -4.69472 0
    endloop
  endfacet
  facet normal 0 0 -1
    outer loop
      vertex -13.2442 -7.04207 0
      vertex -8.82948 -4.69472 0
      vertex -12.7207 -7.94879 0
    endloop
  endfacet
  facet normal 0 0 -1
    outer loop
      vertex -13.7032 -6.10105 0
      vertex -9.13545 -4.06737 0
      vertex -13.2442 -7.04207 0
    endloop
  endfacet
  facet normal -0 0 -1
    outer loop
      vertex -8.82948 -4.69472 0
      vertex -13.2442 -7.04207 0
      vertex -9.13545 -4.06737 0
    endloop
  endfacet
  facet normal 0 0 -1
    outer loop
      vertex 9.97564 -0.697564 0
      vertex 14.9635 -1.04635 0
      vertex 14.854 -2.0876 0
    endloop
  endfacet
  facet normal 0 0 -1
    outer loop
      vertex 9.97564 -0.697564 0
      vertex 14.854 -2.0876 0
      vertex 14.6722 -3.11868 0
    endloop
  endfacet
  facet normal 0 0 -1
    outer loop
      vertex 9.97564 -0.697564 0
      vertex 14.6722 -3.11868 0
      vertex 14.4189 -4.13456 0
    endloop
  endfacet
  facet normal 0 0 -1
    outer loop
      vertex 9.97564 -0.697564 0
      vertex 14.4189 -4.13456 0
      vertex 14.0954 -5.1303 0
    endloop
  endfacet
  facet normal 0 0 -1
    outer loop
      vertex 9.97564 -0.697564 0
      vertex 14.0954 -5.1303 0
      vertex 13.7032 -6.10105 0
    endloop
  endfacet
  facet normal 0 0 -1
    outer loop
      vertex 9.97564 -0.697564 0
      vertex 13.7032 -6.10105 0
      vertex 13.2442 -7.04207 0
    endloop
  endfacet
  facet normal 0 0 -1
    outer loop
      vertex 9.97564 -0.697564 0
      vertex 13.2442 -7.04207 0
      vertex 12.7207 -7.94879 0
    endloop
  endfacet
  facet normal 0 0 -1
    outer loop
      vertex 15 -1.80688e-09 0
      vertex 12.5 7.07107 0
      vertex 19.5711 -1.80688e-09 0
    endloop
  endfacet
  facet normal 0 0 -1
    outer loop
      vertex 14.9635 -1.04635 0
      vertex 10 -1.80688e-09 0
      vertex 15 -1.80688e-09 0
    endloop
  endfacet
  facet normal 0 0 -1
    outer loop
      vertex 9.97564 -0.697564 0
      vertex 12.7207 -7.94879 0
      vertex 12.1353 -8.81678 0
    endloop
  endfacet
  facet normal 0 0 -1
    outer loop
      vertex 9.97564 -0.697564 0
      vertex 12.1353 -8.81678 0
      vertex 11.4907 -9.64181 0
    endloop
  endfacet
  facet normal 0 0 -1
    outer loop
      vertex 9.97564 -0.697564 0
      vertex 11.4907 -9.64181 0
      vertex 10.7901 -10.4199 0
    endloop
  endfacet
  facet normal 0 0 -1
    outer loop
      vertex 7.1934 -6.94658 0
      vertex 10.7901 -10.4199 0
      vertex 10.037 -11.1472 0
    endloop
  endfacet
  facet normal 0 0 -1
    outer loop
      vertex 15 -1.80688e-09 0
      vertex 10 -1.80688e-09 0
      vertex 12.5 7.07107 0
    endloop
  endfacet
  facet normal 0 0 -1
    outer loop
      vertex 12.5 7.07107 0
      vertex 10 -1.80688e-09 0
      vertex 5.42893 -1.80688e-09 0
    endloop
  endfacet
  facet normal 0 0 -1
    outer loop
      vertex -0.348994 9.99391 0
      vertex 0 14.9909 0
      vertex 0 9.99391 0
    endloop
  endfacet
  facet normal 0 0 -1
    outer loop
      vertex -0.348994 9.99391 0
      vertex -0.523492 14.9909 0
      vertex 0 14.9909 0
    endloop
  endfacet
  facet normal 0 0 -1
    outer loop
      vertex -1.04528 9.94522 0
      vertex -0.523492 14.9909 0
      vertex -0.348994 9.99391 0
    endloop
  endfacet
  facet normal 0 0 -1
    outer loop
      vertex -1.04528 9.94522 0
      vertex -1.56793 14.9178 0
      vertex -0.523492 14.9909 0
    endloop
  endfacet
  facet normal 0 0 -1
    outer loop
      vertex -1.73648 9.84808 0
      vertex -1.56793 14.9178 0
      vertex -1.04528 9.94522 0
    endloop
  endfacet
  facet normal 0 0 -1
    outer loop
      vertex -2.60472 14.7721 0
      vertex -1.73648 9.84808 0
      vertex -2.41922 9.70296 0
    endloop
  endfacet
  facet normal 0 0 -1
    outer loop
      vertex -1.73648 9.84808 0
      vertex -2.60472 14.7721 0
      vertex -1.56793 14.9178 0
    endloop
  endfacet
  facet normal 0 0 -1
    outer loop
      vertex -3.62883 14.5544 0
      vertex -2.41922 9.70296 0
      vertex -3.09017 9.51056 0
    endloop
  endfacet
  facet normal 0 0 -1
    outer loop
      vertex -2.41922 9.70296 0
      vertex -3.62883 14.5544 0
      vertex -2.60472 14.7721 0
    endloop
  endfacet
  facet normal 0 0 -1
    outer loop
      vertex -4.63525 14.2658 0
      vertex -3.09017 9.51056 0
      vertex -3.74607 9.27184 0
    endloop
  endfacet
  facet normal 0 0 -1
    outer loop
      vertex -5.6191 13.9078 0
      vertex -3.74607 9.27184 0
      vertex -4.38371 8.98794 0
    endloop
  endfacet
  facet normal 0 0 -1
    outer loop
      vertex -3.09017 9.51056 0
      vertex -4.63525 14.2658 0
      vertex -3.62883 14.5544 0
    endloop
  endfacet
  facet normal 0 0 -1
    outer loop
      vertex -6.57557 13.4819 0
      vertex -4.38371 8.98794 0
      vertex -5 8.66025 0
    endloop
  endfacet
  facet normal 0 0 -1
    outer loop
      vertex -7.5 12.9904 0
      vertex -5 8.66025 0
      vertex -5.59193 8.29038 0
    endloop
  endfacet
  facet normal 0 0 -1
    outer loop
      vertex -3.74607 9.27184 0
      vertex -5.6191 13.9078 0
      vertex -4.63525 14.2658 0
    endloop
  endfacet
  facet normal 0 0 -1
    outer loop
      vertex -8.38789 12.4356 0
      vertex -5.59193 8.29038 0
      vertex -6.15661 7.88011 0
    endloop
  endfacet
  facet normal 0 0 -1
    outer loop
      vertex -4.38371 8.98794 0
      vertex -6.57557 13.4819 0
      vertex -5.6191 13.9078 0
    endloop
  endfacet
  facet normal 0 0 -1
    outer loop
      vertex -9.23492 11.8202 0
      vertex -6.15661 7.88011 0
      vertex -6.69131 7.43145 0
    endloop
  endfacet
  facet normal 0 0 -1
    outer loop
      vertex -10.037 11.1472 0
      vertex -6.69131 7.43145 0
      vertex -7.1934 6.94658 0
    endloop
  endfacet
  facet normal 0 0 -1
    outer loop
      vertex -5 8.66025 0
      vertex -7.5 12.9904 0
      vertex -6.57557 13.4819 0
    endloop
  endfacet
  facet normal 0 0 -1
    outer loop
      vertex -10.7901 10.4199 0
      vertex -7.1934 6.94658 0
      vertex -7.66044 6.42788 0
    endloop
  endfacet
  facet normal 0 0 -1
    outer loop
      vertex -11.4907 9.64181 0
      vertex -7.66044 6.42788 0
      vertex -8.09017 5.87785 0
    endloop
  endfacet
  facet normal 0 0 -1
    outer loop
      vertex -5.59193 8.29038 0
      vertex -8.38789 12.4356 0
      vertex -7.5 12.9904 0
    endloop
  endfacet
  facet normal 0 0 -1
    outer loop
      vertex -12.1353 8.81678 0
      vertex -8.09017 5.87785 0
      vertex -8.48048 5.29919 0
    endloop
  endfacet
  facet normal 0 0 -1
    outer loop
      vertex -12.7207 7.94879 0
      vertex -8.48048 5.29919 0
      vertex -8.82948 4.69472 0
    endloop
  endfacet
  facet normal 0 0 -1
    outer loop
      vertex -13.2442 7.04207 0
      vertex -8.82948 4.69472 0
      vertex -9.13545 4.06737 0
    endloop
  endfacet
  facet normal 0 0 -1
    outer loop
      vertex -6.15661 7.88011 0
      vertex -9.23492 11.8202 0
      vertex -8.38789 12.4356 0
    endloop
  endfacet
  facet normal 0 0 -1
    outer loop
      vertex -13.7032 6.10105 0
      vertex -9.13545 4.06737 0
      vertex -9.39693 3.4202 0
    endloop
  endfacet
  facet normal 0 0 -1
    outer loop
      vertex -14.0954 5.1303 0
      vertex -9.39693 3.4202 0
      vertex -9.61262 2.75637 0
    endloop
  endfacet
  facet normal 0 0 -1
    outer loop
      vertex -14.4189 4.13456 0
      vertex -9.61262 2.75637 0
      vertex -9.78148 2.07912 0
    endloop
  endfacet
  facet normal 0 0 -1
    outer loop
      vertex -14.6722 3.11868 0
      vertex -9.78148 2.07912 0
      vertex -9.90268 1.39173 0
    endloop
  endfacet
  facet normal 0 0 -1
    outer loop
      vertex -14.854 2.0876 0
      vertex -9.90268 1.39173 0
      vertex -9.97564 0.697564 0
    endloop
  endfacet
  facet normal 0 0 -1
    outer loop
      vertex -6.69131 7.43145 0
      vertex -10.037 11.1472 0
      vertex -9.23492 11.8202 0
    endloop
  endfacet
  facet normal 0 0 -1
    outer loop
      vertex -14.9635 1.04635 0
      vertex -9.97564 0.697564 0
      vertex -10 0 0
    endloop
  endfacet
  facet normal -0 0 -1
    outer loop
      vertex -9.13545 -4.06737 0
      vertex -13.7032 -6.10105 0
      vertex -9.39693 -3.4202 0
    endloop
  endfacet
  facet normal 0 0 -1
    outer loop
      vertex -14.0954 -5.1303 0
      vertex -9.39693 -3.4202 0
      vertex -13.7032 -6.10105 0
    endloop
  endfacet
  facet normal 0 0 -1
    outer loop
      vertex -7.1934 6.94658 0
      vertex -10.7901 10.4199 0
      vertex -10.037 11.1472 0
    endloop
  endfacet
  facet normal -0 0 -1
    outer loop
      vertex -9.39693 -3.4202 0
      vertex -14.0954 -5.1303 0
      vertex -9.61262 -2.75637 0
    endloop
  endfacet
  facet normal 0 0 -1
    outer loop
      vertex -7.66044 6.42788 0
      vertex -11.4907 9.64181 0
      vertex -10.7901 10.4199 0
    endloop
  endfacet
  facet normal 0 0 -1
    outer loop
      vertex -14.4189 -4.13456 0
      vertex -9.61262 -2.75637 0
      vertex -14.0954 -5.1303 0
    endloop
  endfacet
  facet normal 0 0 -1
    outer loop
      vertex -8.09017 5.87785 0
      vertex -12.1353 8.81678 0
      vertex -11.4907 9.64181 0
    endloop
  endfacet
  facet normal -0 0 -1
    outer loop
      vertex -9.61262 -2.75637 0
      vertex -14.4189 -4.13456 0
      vertex -9.78148 -2.07912 0
    endloop
  endfacet
  facet normal 0 0 -1
    outer loop
      vertex -8.48048 5.29919 0
      vertex -12.7207 7.94879 0
      vertex -12.1353 8.81678 0
    endloop
  endfacet
  facet normal 0 0 -1
    outer loop
      vertex -14.6722 -3.11868 0
      vertex -9.78148 -2.07912 0
      vertex -14.4189 -4.13456 0
    endloop
  endfacet
  facet normal 0 0 -1
    outer loop
      vertex -8.82948 4.69472 0
      vertex -13.2442 7.04207 0
      vertex -12.7207 7.94879 0
    endloop
  endfacet
  facet normal -0 0 -1
    outer loop
      vertex -9.78148 -2.07912 0
      vertex -14.6722 -3.11868 0
      vertex -9.90268 -1.39173 0
    endloop
  endfacet
  facet normal 0 0 -1
    outer loop
      vertex -9.13545 4.06737 0
      vertex -13.7032 6.10105 0
      vertex -13.2442 7.04207 0
    endloop
  endfacet
  facet normal 0 0 -1
    outer loop
      vertex -14.854 -2.0876 0
      vertex -9.90268 -1.39173 0
      vertex -14.6722 -3.11868 0
    endloop
  endfacet
  facet normal 0 0 -1
    outer loop
      vertex -9.39693 3.4202 0
      vertex -14.0954 5.1303 0
      vertex -13.7032 6.10105 0
    endloop
  endfacet
  facet normal -0 0 -1
    outer loop
      vertex -9.90268 -1.39173 0
      vertex -14.854 -2.0876 0
      vertex -9.97564 -0.697564 0
    endloop
  endfacet
  facet normal 0 0 -1
    outer loop
      vertex -9.61262 2.75637 0
      vertex -14.4189 4.13456 0
      vertex -14.0954 5.1303 0
    endloop
  endfacet
  facet normal 0 0 -1
    outer loop
      vertex -14.9635 -1.04635 0
      vertex -9.97564 -0.697564 0
      vertex -14.854 -2.0876 0
    endloop
  endfacet
  facet normal 0 0 -1
    outer loop
      vertex -9.78148 2.07912 0
      vertex -14.6722 3.11868 0
      vertex -14.4189 4.13456 0
    endloop
  endfacet
  facet normal -0 0 -1
    outer loop
      vertex -9.97564 -0.697564 0
      vertex -14.9635 -1.04635 0
      vertex -10 0 0
    endloop
  endfacet
  facet normal 0 0 -1
    outer loop
      vertex -9.90268 1.39173 0
      vertex -14.854 2.0876 0
      vertex -14.6722 3.11868 0
    endloop
  endfacet
  facet normal 0 0 -1
    outer loop
      vertex -15 0 0
      vertex -10 0 0
      vertex -14.9635 -1.04635 0
    endloop
  endfacet
  facet normal 0 0 -1
    outer loop
      vertex -9.97564 0.697564 0
      vertex -14.9635 1.04635 0
      vertex -14.854 2.0876 0
    endloop
  endfacet
  facet normal 0 0 -1
    outer loop
      vertex -10 0 0
      vertex -15 0 0
      vertex -14.9635 1.04635 0
    endloop
  endfacet
  facet normal 0.34202 -0.939693 0
    outer loop
      vertex 4.63525 -14.2658 0
      vertex 5.6191 -13.9078 3
      vertex 4.63525 -14.2658 3
    endloop
  endfacet
  facet normal 0.34202 -0.939693 0
    outer loop
      vertex 5.6191 -13.9078 3
      vertex 4.63525 -14.2658 0
      vertex 5.6191 -13.9078 0
    endloop
  endfacet
  facet normal 0.743145 -0.669131 0
    outer loop
      vertex 10.7901 -10.4199 3
      vertex 11.4907 -9.64181 0
      vertex 11.4907 -9.64181 3
    endloop
  endfacet
  facet normal 0.743145 -0.669131 0
    outer loop
      vertex 11.4907 -9.64181 0
      vertex 10.7901 -10.4199 3
      vertex 10.7901 -10.4199 0
    endloop
  endfacet
  facet normal 0.529919 -0.848048 0
    outer loop
      vertex 7.5 -12.9904 0
      vertex 8.38789 -12.4356 3
      vertex 7.5 -12.9904 3
    endloop
  endfacet
  facet normal 0.529919 -0.848048 0
    outer loop
      vertex 8.38789 -12.4356 3
      vertex 7.5 -12.9904 0
      vertex 8.38789 -12.4356 0
    endloop
  endfacet
  facet normal 0.469471 -0.882948 0
    outer loop
      vertex 6.57557 -13.4819 0
      vertex 7.5 -12.9904 3
      vertex 6.57557 -13.4819 3
    endloop
  endfacet
  facet normal 0.469471 -0.882948 0
    outer loop
      vertex 7.5 -12.9904 3
      vertex 6.57557 -13.4819 0
      vertex 7.5 -12.9904 0
    endloop
  endfacet
  facet normal 0.829038 -0.559193 0
    outer loop
      vertex 12.1353 -8.81678 3
      vertex 12.7207 -7.94879 0
      vertex 12.7207 -7.94879 3
    endloop
  endfacet
  facet normal 0.829038 -0.559193 0
    outer loop
      vertex 12.7207 -7.94879 0
      vertex 12.1353 -8.81678 3
      vertex 12.1353 -8.81678 0
    endloop
  endfacet
  facet normal -0.469471 -0.882948 0
    outer loop
      vertex -7.5 -12.9904 0
      vertex -6.57557 -13.4819 3
      vertex -7.5 -12.9904 3
    endloop
  endfacet
  facet normal -0.469471 -0.882948 -0
    outer loop
      vertex -6.57557 -13.4819 3
      vertex -7.5 -12.9904 0
      vertex -6.57557 -13.4819 0
    endloop
  endfacet
  facet normal -0.529919 -0.848048 0
    outer loop
      vertex -8.38789 -12.4356 0
      vertex -7.5 -12.9904 3
      vertex -8.38789 -12.4356 3
    endloop
  endfacet
  facet normal -0.529919 -0.848048 -0
    outer loop
      vertex -7.5 -12.9904 3
      vertex -8.38789 -12.4356 0
      vertex -7.5 -12.9904 0
    endloop
  endfacet
  facet normal -0.406738 -0.913545 0
    outer loop
      vertex -6.57557 -13.4819 0
      vertex -5.6191 -13.9078 3
      vertex -6.57557 -13.4819 3
    endloop
  endfacet
  facet normal -0.406738 -0.913545 -0
    outer loop
      vertex -5.6191 -13.9078 3
      vertex -6.57557 -13.4819 0
      vertex -5.6191 -13.9078 0
    endloop
  endfacet
  facet normal -0.275638 -0.961262 0
    outer loop
      vertex -4.63525 -14.2658 0
      vertex -3.62883 -14.5544 3
      vertex -4.63525 -14.2658 3
    endloop
  endfacet
  facet normal -0.275638 -0.961262 -0
    outer loop
      vertex -3.62883 -14.5544 3
      vertex -4.63525 -14.2658 0
      vertex -3.62883 -14.5544 0
    endloop
  endfacet
  facet normal -0.207911 -0.978148 0
    outer loop
      vertex -3.62883 -14.5544 0
      vertex -2.60472 -14.7721 3
      vertex -3.62883 -14.5544 3
    endloop
  endfacet
  facet normal -0.207911 -0.978148 -0
    outer loop
      vertex -2.60472 -14.7721 3
      vertex -3.62883 -14.5544 0
      vertex -2.60472 -14.7721 0
    endloop
  endfacet
  facet normal -0.829038 -0.559193 0
    outer loop
      vertex -12.1353 -8.81678 0
      vertex -12.7207 -7.94879 3
      vertex -12.7207 -7.94879 0
    endloop
  endfacet
  facet normal -0.829038 -0.559193 0
    outer loop
      vertex -12.7207 -7.94879 3
      vertex -12.1353 -8.81678 0
      vertex -12.1353 -8.81678 3
    endloop
  endfacet
  facet normal -0.994522 -0.104529 0
    outer loop
      vertex -14.854 -2.0876 0
      vertex -14.9635 -1.04635 3
      vertex -14.9635 -1.04635 0
    endloop
  endfacet
  facet normal -0.994522 -0.104529 0
    outer loop
      vertex -14.9635 -1.04635 3
      vertex -14.854 -2.0876 0
      vertex -14.854 -2.0876 3
    endloop
  endfacet
  facet normal -0.999391 -0.0349003 0
    outer loop
      vertex -14.9635 -1.04635 0
      vertex -15 0 3
      vertex -15 0 0
    endloop
  endfacet
  facet normal -0.999391 -0.0349003 0
    outer loop
      vertex -15 0 3
      vertex -14.9635 -1.04635 0
      vertex -14.9635 -1.04635 3
    endloop
  endfacet
  facet normal 0.207911 -0.978148 0
    outer loop
      vertex 2.60472 -14.7721 0
      vertex 3.62883 -14.5544 3
      vertex 2.60472 -14.7721 3
    endloop
  endfacet
  facet normal 0.207911 -0.978148 0
    outer loop
      vertex 3.62883 -14.5544 3
      vertex 2.60472 -14.7721 0
      vertex 3.62883 -14.5544 0
    endloop
  endfacet
  facet normal 0.139173 -0.990268 0
    outer loop
      vertex 1.56793 -14.9178 0
      vertex 2.60472 -14.7721 3
      vertex 1.56793 -14.9178 3
    endloop
  endfacet
  facet normal 0.139173 -0.990268 0
    outer loop
      vertex 2.60472 -14.7721 3
      vertex 1.56793 -14.9178 0
      vertex 2.60472 -14.7721 0
    endloop
  endfacet
  facet normal -0.587785 -0.809017 0
    outer loop
      vertex -9.23492 -11.8202 0
      vertex -8.38789 -12.4356 3
      vertex -9.23492 -11.8202 3
    endloop
  endfacet
  facet normal -0.587785 -0.809017 -0
    outer loop
      vertex -8.38789 -12.4356 3
      vertex -9.23492 -11.8202 0
      vertex -8.38789 -12.4356 0
    endloop
  endfacet
  facet normal -0.642787 -0.766045 0
    outer loop
      vertex -10.037 -11.1472 0
      vertex -9.23492 -11.8202 3
      vertex -10.037 -11.1472 3
    endloop
  endfacet
  facet normal -0.642787 -0.766045 -0
    outer loop
      vertex -9.23492 -11.8202 3
      vertex -10.037 -11.1472 0
      vertex -9.23492 -11.8202 0
    endloop
  endfacet
  facet normal -0.0697568 -0.997564 0
    outer loop
      vertex -1.56793 -14.9178 0
      vertex -0.523492 -14.9909 3
      vertex -1.56793 -14.9178 3
    endloop
  endfacet
  facet normal -0.0697568 -0.997564 -0
    outer loop
      vertex -0.523492 -14.9909 3
      vertex -1.56793 -14.9178 0
      vertex -0.523492 -14.9909 0
    endloop
  endfacet
  facet normal -0.743145 -0.669131 0
    outer loop
      vertex -10.7901 -10.4199 0
      vertex -11.4907 -9.64181 3
      vertex -11.4907 -9.64181 0
    endloop
  endfacet
  facet normal -0.743145 -0.669131 0
    outer loop
      vertex -11.4907 -9.64181 3
      vertex -10.7901 -10.4199 0
      vertex -10.7901 -10.4199 3
    endloop
  endfacet
  facet normal -0.866026 -0.5 0
    outer loop
      vertex -12.7207 -7.94879 0
      vertex -13.2442 -7.04207 3
      vertex -13.2442 -7.04207 0
    endloop
  endfacet
  facet normal -0.866026 -0.5 0
    outer loop
      vertex -13.2442 -7.04207 3
      vertex -12.7207 -7.94879 0
      vertex -12.7207 -7.94879 3
    endloop
  endfacet
  facet normal 0.34202 -0.939692 0
    outer loop
      vertex -3.74607 9.27184 0
      vertex -3.09017 9.51056 3
      vertex -3.74607 9.27184 3
    endloop
  endfacet
  facet normal 0.34202 -0.939692 0
    outer loop
      vertex -3.09017 9.51056 3
      vertex -3.74607 9.27184 0
      vertex -3.09017 9.51056 0
    endloop
  endfacet
  facet normal 0.927184 -0.374607 0
    outer loop
      vertex -9.39693 3.4202 3
      vertex -9.13545 4.06737 0
      vertex -9.13545 4.06737 3
    endloop
  endfacet
  facet normal 0.927184 -0.374607 0
    outer loop
      vertex -9.13545 4.06737 0
      vertex -9.39693 3.4202 3
      vertex -9.39693 3.4202 0
    endloop
  endfacet
  facet normal -0.999391 0.0348998 0
    outer loop
      vertex 9.97564 -0.697564 0
      vertex 10 -1.80688e-09 3
      vertex 10 -1.80688e-09 0
    endloop
  endfacet
  facet normal -0.999391 0.0348998 0
    outer loop
      vertex 10 -1.80688e-09 3
      vertex 9.97564 -0.697564 0
      vertex 9.97564 -0.697564 3
    endloop
  endfacet
  facet normal 0.743144 -0.669131 0
    outer loop
      vertex -7.66044 6.42788 3
      vertex -7.1934 6.94658 0
      vertex -7.1934 6.94658 3
    endloop
  endfacet
  facet normal 0.743144 -0.669131 0
    outer loop
      vertex -7.1934 6.94658 0
      vertex -7.66044 6.42788 3
      vertex -7.66044 6.42788 0
    endloop
  endfacet
  facet normal 0.207911 -0.978148 0
    outer loop
      vertex -2.41922 9.70296 0
      vertex -1.73648 9.84808 3
      vertex -2.41922 9.70296 3
    endloop
  endfacet
  facet normal 0.207911 -0.978148 0
    outer loop
      vertex -1.73648 9.84808 3
      vertex -2.41922 9.70296 0
      vertex -1.73648 9.84808 0
    endloop
  endfacet
  facet normal 0.951057 0.309017 0
    outer loop
      vertex -9.39693 -3.4202 3
      vertex -9.61262 -2.75637 0
      vertex -9.61262 -2.75637 3
    endloop
  endfacet
  facet normal 0.951057 0.309017 0
    outer loop
      vertex -9.61262 -2.75637 0
      vertex -9.39693 -3.4202 3
      vertex -9.39693 -3.4202 0
    endloop
  endfacet
  facet normal 0 -1 0
    outer loop
      vertex -0.348994 9.99391 0
      vertex 0 9.99391 3
      vertex -0.348994 9.99391 3
    endloop
  endfacet
  facet normal 0 -1 -0
    outer loop
      vertex 0 9.99391 3
      vertex -0.348994 9.99391 0
      vertex 0 9.99391 0
    endloop
  endfacet
  facet normal 0.999391 -0.0348998 0
    outer loop
      vertex -10 0 3
      vertex -9.97564 0.697564 0
      vertex -9.97564 0.697564 3
    endloop
  endfacet
  facet normal 0.999391 -0.0348998 0
    outer loop
      vertex -9.97564 0.697564 0
      vertex -10 0 3
      vertex -10 0 0
    endloop
  endfacet
  facet normal 0.951057 -0.309017 0
    outer loop
      vertex -9.61262 2.75637 3
      vertex -9.39693 3.4202 0
      vertex -9.39693 3.4202 3
    endloop
  endfacet
  facet normal 0.951057 -0.309017 0
    outer loop
      vertex -9.39693 3.4202 0
      vertex -9.61262 2.75637 3
      vertex -9.61262 2.75637 0
    endloop
  endfacet
  facet normal 0.984808 -0.173649 0
    outer loop
      vertex -9.90268 1.39173 3
      vertex -9.78148 2.07912 0
      vertex -9.78148 2.07912 3
    endloop
  endfacet
  facet normal 0.984808 -0.173649 0
    outer loop
      vertex -9.78148 2.07912 0
      vertex -9.90268 1.39173 3
      vertex -9.90268 1.39173 0
    endloop
  endfacet
  facet normal 0.866025 -0.5 0
    outer loop
      vertex -8.82948 4.69472 3
      vertex -8.48048 5.29919 0
      vertex -8.48048 5.29919 3
    endloop
  endfacet
  facet normal 0.866025 -0.5 0
    outer loop
      vertex -8.48048 5.29919 0
      vertex -8.82948 4.69472 3
      vertex -8.82948 4.69472 0
    endloop
  endfacet
  facet normal 0.829038 -0.559192 0
    outer loop
      vertex -8.48048 5.29919 3
      vertex -8.09017 5.87785 0
      vertex -8.09017 5.87785 3
    endloop
  endfacet
  facet normal 0.829038 -0.559192 0
    outer loop
      vertex -8.09017 5.87785 0
      vertex -8.48048 5.29919 3
      vertex -8.48048 5.29919 0
    endloop
  endfacet
  facet normal 0.275637 -0.961262 0
    outer loop
      vertex -3.09017 9.51056 0
      vertex -2.41922 9.70296 3
      vertex -3.09017 9.51056 3
    endloop
  endfacet
  facet normal 0.275637 -0.961262 0
    outer loop
      vertex -2.41922 9.70296 3
      vertex -3.09017 9.51056 0
      vertex -2.41922 9.70296 0
    endloop
  endfacet
  facet normal 0.529918 -0.848049 0
    outer loop
      vertex -5.59193 8.29038 0
      vertex -5 8.66025 3
      vertex -5.59193 8.29038 3
    endloop
  endfacet
  facet normal 0.529918 -0.848049 0
    outer loop
      vertex -5 8.66025 3
      vertex -5.59193 8.29038 0
      vertex -5 8.66025 0
    endloop
  endfacet
  facet normal 0.406737 -0.913545 0
    outer loop
      vertex -4.38371 8.98794 0
      vertex -3.74607 9.27184 3
      vertex -4.38371 8.98794 3
    endloop
  endfacet
  facet normal 0.406737 -0.913545 0
    outer loop
      vertex -3.74607 9.27184 3
      vertex -4.38371 8.98794 0
      vertex -3.74607 9.27184 0
    endloop
  endfacet
  facet normal 0.694659 -0.71934 0
    outer loop
      vertex -7.1934 6.94658 0
      vertex -6.69131 7.43145 3
      vertex -7.1934 6.94658 3
    endloop
  endfacet
  facet normal 0.694659 -0.71934 0
    outer loop
      vertex -6.69131 7.43145 3
      vertex -7.1934 6.94658 0
      vertex -6.69131 7.43145 0
    endloop
  endfacet
  facet normal -0.970296 0.241921 0
    outer loop
      vertex 9.61262 -2.75637 0
      vertex 9.78148 -2.07912 3
      vertex 9.78148 -2.07912 0
    endloop
  endfacet
  facet normal -0.970296 0.241921 0
    outer loop
      vertex 9.78148 -2.07912 3
      vertex 9.61262 -2.75637 0
      vertex 9.61262 -2.75637 3
    endloop
  endfacet
  facet normal -0.275637 0.961262 0
    outer loop
      vertex 3.09017 -9.51056 0
      vertex 2.41922 -9.70296 3
      vertex 3.09017 -9.51056 3
    endloop
  endfacet
  facet normal -0.275637 0.961262 0
    outer loop
      vertex 2.41922 -9.70296 3
      vertex 3.09017 -9.51056 0
      vertex 2.41922 -9.70296 0
    endloop
  endfacet
  facet normal -0.34202 0.939692 0
    outer loop
      vertex 3.74607 -9.27184 0
      vertex 3.09017 -9.51056 3
      vertex 3.74607 -9.27184 3
    endloop
  endfacet
  facet normal -0.34202 0.939692 0
    outer loop
      vertex 3.09017 -9.51056 3
      vertex 3.74607 -9.27184 0
      vertex 3.09017 -9.51056 0
    endloop
  endfacet
  facet normal 0.994522 -0.104529 0
    outer loop
      vertex -9.97564 0.697564 3
      vertex -9.90268 1.39173 0
      vertex -9.90268 1.39173 3
    endloop
  endfacet
  facet normal 0.994522 -0.104529 0
    outer loop
      vertex -9.90268 1.39173 0
      vertex -9.97564 0.697564 3
      vertex -9.97564 0.697564 0
    endloop
  endfacet
  facet normal 0.970296 -0.241921 0
    outer loop
      vertex -9.78148 2.07912 3
      vertex -9.61262 2.75637 0
      vertex -9.61262 2.75637 3
    endloop
  endfacet
  facet normal 0.970296 -0.241921 0
    outer loop
      vertex -9.61262 2.75637 0
      vertex -9.78148 2.07912 3
      vertex -9.78148 2.07912 0
    endloop
  endfacet
  facet normal 0.898794 -0.438371 0
    outer loop
      vertex -9.13545 4.06737 3
      vertex -8.82948 4.69472 0
      vertex -8.82948 4.69472 3
    endloop
  endfacet
  facet normal 0.898794 -0.438371 0
    outer loop
      vertex -8.82948 4.69472 0
      vertex -9.13545 4.06737 3
      vertex -9.13545 4.06737 0
    endloop
  endfacet
  facet normal 0.78801 -0.615662 0
    outer loop
      vertex -8.09017 5.87785 3
      vertex -7.66044 6.42788 0
      vertex -7.66044 6.42788 3
    endloop
  endfacet
  facet normal 0.78801 -0.615662 0
    outer loop
      vertex -7.66044 6.42788 0
      vertex -8.09017 5.87785 3
      vertex -8.09017 5.87785 0
    endloop
  endfacet
  facet normal 0.0697572 -0.997564 0
    outer loop
      vertex -1.04528 9.94522 0
      vertex -0.348994 9.99391 3
      vertex -1.04528 9.94522 3
    endloop
  endfacet
  facet normal 0.0697572 -0.997564 0
    outer loop
      vertex -0.348994 9.99391 3
      vertex -1.04528 9.94522 0
      vertex -0.348994 9.99391 0
    endloop
  endfacet
  facet normal 0.139173 -0.990268 0
    outer loop
      vertex -1.73648 9.84808 0
      vertex -1.04528 9.94522 3
      vertex -1.73648 9.84808 3
    endloop
  endfacet
  facet normal 0.139173 -0.990268 0
    outer loop
      vertex -1.04528 9.94522 3
      vertex -1.73648 9.84808 0
      vertex -1.04528 9.94522 0
    endloop
  endfacet
  facet normal 0.587786 -0.809017 0
    outer loop
      vertex -6.15661 7.88011 0
      vertex -5.59193 8.29038 3
      vertex -6.15661 7.88011 3
    endloop
  endfacet
  facet normal 0.587786 -0.809017 0
    outer loop
      vertex -5.59193 8.29038 3
      vertex -6.15661 7.88011 0
      vertex -5.59193 8.29038 0
    endloop
  endfacet
  facet normal 0.642788 -0.766044 0
    outer loop
      vertex -6.69131 7.43145 0
      vertex -6.15661 7.88011 3
      vertex -6.69131 7.43145 3
    endloop
  endfacet
  facet normal 0.642788 -0.766044 0
    outer loop
      vertex -6.15661 7.88011 3
      vertex -6.69131 7.43145 0
      vertex -6.15661 7.88011 0
    endloop
  endfacet
  facet normal -0.994522 0.104529 0
    outer loop
      vertex 9.90268 -1.39173 0
      vertex 9.97564 -0.697564 3
      vertex 9.97564 -0.697564 0
    endloop
  endfacet
  facet normal -0.994522 0.104529 0
    outer loop
      vertex 9.97564 -0.697564 3
      vertex 9.90268 -1.39173 0
      vertex 9.90268 -1.39173 3
    endloop
  endfacet
  facet normal -0.898794 0.438371 0
    outer loop
      vertex 8.82948 -4.69472 0
      vertex 9.13545 -4.06737 3
      vertex 9.13545 -4.06737 0
    endloop
  endfacet
  facet normal -0.898794 0.438371 0
    outer loop
      vertex 9.13545 -4.06737 3
      vertex 8.82948 -4.69472 0
      vertex 8.82948 -4.69472 3
    endloop
  endfacet
  facet normal -0.951057 0.309017 0
    outer loop
      vertex 9.39693 -3.4202 0
      vertex 9.61262 -2.75637 3
      vertex 9.61262 -2.75637 0
    endloop
  endfacet
  facet normal -0.951057 0.309017 0
    outer loop
      vertex 9.61262 -2.75637 3
      vertex 9.39693 -3.4202 0
      vertex 9.39693 -3.4202 3
    endloop
  endfacet
  facet normal -0.927184 0.374607 0
    outer loop
      vertex 9.13545 -4.06737 0
      vertex 9.39693 -3.4202 3
      vertex 9.39693 -3.4202 0
    endloop
  endfacet
  facet normal -0.927184 0.374607 0
    outer loop
      vertex 9.39693 -3.4202 3
      vertex 9.13545 -4.06737 0
      vertex 9.13545 -4.06737 3
    endloop
  endfacet
  facet normal 0.207911 0.978148 -0
    outer loop
      vertex -1.73648 -9.84808 0
      vertex -2.41922 -9.70296 3
      vertex -1.73648 -9.84808 3
    endloop
  endfacet
  facet normal 0.207911 0.978148 0
    outer loop
      vertex -2.41922 -9.70296 3
      vertex -1.73648 -9.84808 0
      vertex -2.41922 -9.70296 0
    endloop
  endfacet
  facet normal 0.999391 0.0348998 0
    outer loop
      vertex -9.97564 -0.697564 3
      vertex -10 0 0
      vertex -10 0 3
    endloop
  endfacet
  facet normal 0.999391 0.0348998 0
    outer loop
      vertex -10 0 0
      vertex -9.97564 -0.697564 3
      vertex -9.97564 -0.697564 0
    endloop
  endfacet
  facet normal -0.0697572 0.997564 0
    outer loop
      vertex 1.04528 -9.94522 0
      vertex 0.348994 -9.99391 3
      vertex 1.04528 -9.94522 3
    endloop
  endfacet
  facet normal -0.0697572 0.997564 0
    outer loop
      vertex 0.348994 -9.99391 3
      vertex 1.04528 -9.94522 0
      vertex 0.348994 -9.99391 0
    endloop
  endfacet
  facet normal 0.469472 -0.882948 0
    outer loop
      vertex -5 8.66025 0
      vertex -4.38371 8.98794 3
      vertex -5 8.66025 3
    endloop
  endfacet
  facet normal 0.469472 -0.882948 0
    outer loop
      vertex -4.38371 8.98794 3
      vertex -5 8.66025 0
      vertex -4.38371 8.98794 0
    endloop
  endfacet
  facet normal -0.984808 0.173649 0
    outer loop
      vertex 9.78148 -2.07912 0
      vertex 9.90268 -1.39173 3
      vertex 9.90268 -1.39173 0
    endloop
  endfacet
  facet normal -0.984808 0.173649 0
    outer loop
      vertex 9.90268 -1.39173 3
      vertex 9.78148 -2.07912 0
      vertex 9.78148 -2.07912 3
    endloop
  endfacet
  facet normal -0.469471 0.882948 0
    outer loop
      vertex 5 -8.66025 0
      vertex 4.38371 -8.98794 3
      vertex 5 -8.66025 3
    endloop
  endfacet
  facet normal -0.469471 0.882948 0
    outer loop
      vertex 4.38371 -8.98794 3
      vertex 5 -8.66025 0
      vertex 4.38371 -8.98794 0
    endloop
  endfacet
  facet normal -0.529919 0.848048 0
    outer loop
      vertex 5.59193 -8.29038 0
      vertex 5 -8.66025 3
      vertex 5.59193 -8.29038 3
    endloop
  endfacet
  facet normal -0.529919 0.848048 0
    outer loop
      vertex 5 -8.66025 3
      vertex 5.59193 -8.29038 0
      vertex 5 -8.66025 0
    endloop
  endfacet
  facet normal -0.78801 0.615662 0
    outer loop
      vertex 7.66044 -6.42788 0
      vertex 8.09017 -5.87785 3
      vertex 8.09017 -5.87785 0
    endloop
  endfacet
  facet normal -0.78801 0.615662 0
    outer loop
      vertex 8.09017 -5.87785 3
      vertex 7.66044 -6.42788 0
      vertex 7.66044 -6.42788 3
    endloop
  endfacet
  facet normal 0.469471 0.882948 -0
    outer loop
      vertex -4.38371 -8.98794 0
      vertex -5 -8.66025 3
      vertex -4.38371 -8.98794 3
    endloop
  endfacet
  facet normal 0.469471 0.882948 0
    outer loop
      vertex -5 -8.66025 3
      vertex -4.38371 -8.98794 0
      vertex -5 -8.66025 0
    endloop
  endfacet
  facet normal 0.0697572 0.997564 -0
    outer loop
      vertex -0.348994 -9.99391 0
      vertex -1.04528 -9.94522 3
      vertex -0.348994 -9.99391 3
    endloop
  endfacet
  facet normal 0.0697572 0.997564 0
    outer loop
      vertex -1.04528 -9.94522 3
      vertex -0.348994 -9.99391 0
      vertex -1.04528 -9.94522 0
    endloop
  endfacet
  facet normal 0 1 -0
    outer loop
      vertex 0.348994 -9.99391 0
      vertex -0.348994 -9.99391 3
      vertex 0.348994 -9.99391 3
    endloop
  endfacet
  facet normal 0 1 0
    outer loop
      vertex -0.348994 -9.99391 3
      vertex 0.348994 -9.99391 0
      vertex -0.348994 -9.99391 0
    endloop
  endfacet
  facet normal 0.994522 0.104529 0
    outer loop
      vertex -9.90268 -1.39173 3
      vertex -9.97564 -0.697564 0
      vertex -9.97564 -0.697564 3
    endloop
  endfacet
  facet normal 0.994522 0.104529 0
    outer loop
      vertex -9.97564 -0.697564 0
      vertex -9.90268 -1.39173 3
      vertex -9.90268 -1.39173 0
    endloop
  endfacet
  facet normal 0.927184 0.374607 0
    outer loop
      vertex -9.13545 -4.06737 3
      vertex -9.39693 -3.4202 0
      vertex -9.39693 -3.4202 3
    endloop
  endfacet
  facet normal 0.927184 0.374607 0
    outer loop
      vertex -9.39693 -3.4202 0
      vertex -9.13545 -4.06737 3
      vertex -9.13545 -4.06737 0
    endloop
  endfacet
  facet normal -0.406737 0.913545 0
    outer loop
      vertex 4.38371 -8.98794 0
      vertex 3.74607 -9.27184 3
      vertex 4.38371 -8.98794 3
    endloop
  endfacet
  facet normal -0.406737 0.913545 0
    outer loop
      vertex 3.74607 -9.27184 3
      vertex 4.38371 -8.98794 0
      vertex 3.74607 -9.27184 0
    endloop
  endfacet
  facet normal -0.642788 0.766044 0
    outer loop
      vertex 6.69131 -7.43145 0
      vertex 6.15661 -7.88011 3
      vertex 6.69131 -7.43145 3
    endloop
  endfacet
  facet normal -0.642788 0.766044 0
    outer loop
      vertex 6.15661 -7.88011 3
      vertex 6.69131 -7.43145 0
      vertex 6.15661 -7.88011 0
    endloop
  endfacet
  facet normal -0.866025 0.5 0
    outer loop
      vertex 8.48048 -5.29919 0
      vertex 8.82948 -4.69472 3
      vertex 8.82948 -4.69472 0
    endloop
  endfacet
  facet normal -0.866025 0.5 0
    outer loop
      vertex 8.82948 -4.69472 3
      vertex 8.48048 -5.29919 0
      vertex 8.48048 -5.29919 3
    endloop
  endfacet
  facet normal -0.829038 0.559192 0
    outer loop
      vertex 8.09017 -5.87785 0
      vertex 8.48048 -5.29919 3
      vertex 8.48048 -5.29919 0
    endloop
  endfacet
  facet normal -0.829038 0.559192 0
    outer loop
      vertex 8.48048 -5.29919 3
      vertex 8.09017 -5.87785 0
      vertex 8.09017 -5.87785 3
    endloop
  endfacet
  facet normal 0.642788 0.766044 -0
    outer loop
      vertex -6.15661 -7.88011 0
      vertex -6.69131 -7.43145 3
      vertex -6.15661 -7.88011 3
    endloop
  endfacet
  facet normal 0.642788 0.766044 0
    outer loop
      vertex -6.69131 -7.43145 3
      vertex -6.15661 -7.88011 0
      vertex -6.69131 -7.43145 0
    endloop
  endfacet
  facet normal 0.139173 0.990268 -0
    outer loop
      vertex -1.04528 -9.94522 0
      vertex -1.73648 -9.84808 3
      vertex -1.04528 -9.94522 3
    endloop
  endfacet
  facet normal 0.139173 0.990268 0
    outer loop
      vertex -1.73648 -9.84808 3
      vertex -1.04528 -9.94522 0
      vertex -1.73648 -9.84808 0
    endloop
  endfacet
  facet normal 0.898794 0.438371 0
    outer loop
      vertex -8.82948 -4.69472 3
      vertex -9.13545 -4.06737 0
      vertex -9.13545 -4.06737 3
    endloop
  endfacet
  facet normal 0.898794 0.438371 0
    outer loop
      vertex -9.13545 -4.06737 0
      vertex -8.82948 -4.69472 3
      vertex -8.82948 -4.69472 0
    endloop
  endfacet
  facet normal 0.829038 0.559192 0
    outer loop
      vertex -8.09017 -5.87785 3
      vertex -8.48048 -5.29919 0
      vertex -8.48048 -5.29919 3
    endloop
  endfacet
  facet normal 0.829038 0.559192 0
    outer loop
      vertex -8.48048 -5.29919 0
      vertex -8.09017 -5.87785 3
      vertex -8.09017 -5.87785 0
    endloop
  endfacet
  facet normal 0.743144 0.669131 0
    outer loop
      vertex -7.1934 -6.94658 3
      vertex -7.66044 -6.42788 0
      vertex -7.66044 -6.42788 3
    endloop
  endfacet
  facet normal 0.743144 0.669131 0
    outer loop
      vertex -7.66044 -6.42788 0
      vertex -7.1934 -6.94658 3
      vertex -7.1934 -6.94658 0
    endloop
  endfacet
  facet normal 0.78801 0.615662 0
    outer loop
      vertex -7.66044 -6.42788 3
      vertex -8.09017 -5.87785 0
      vertex -8.09017 -5.87785 3
    endloop
  endfacet
  facet normal 0.78801 0.615662 0
    outer loop
      vertex -8.09017 -5.87785 0
      vertex -7.66044 -6.42788 3
      vertex -7.66044 -6.42788 0
    endloop
  endfacet
  facet normal 0.984808 0.173649 0
    outer loop
      vertex -9.78148 -2.07912 3
      vertex -9.90268 -1.39173 0
      vertex -9.90268 -1.39173 3
    endloop
  endfacet
  facet normal 0.984808 0.173649 0
    outer loop
      vertex -9.90268 -1.39173 0
      vertex -9.78148 -2.07912 3
      vertex -9.78148 -2.07912 0
    endloop
  endfacet
  facet normal 0.970296 0.241921 0
    outer loop
      vertex -9.61262 -2.75637 3
      vertex -9.78148 -2.07912 0
      vertex -9.78148 -2.07912 3
    endloop
  endfacet
  facet normal 0.970296 0.241921 0
    outer loop
      vertex -9.78148 -2.07912 0
      vertex -9.61262 -2.75637 3
      vertex -9.61262 -2.75637 0
    endloop
  endfacet
  facet normal -0.207911 0.978148 0
    outer loop
      vertex 2.41922 -9.70296 0
      vertex 1.73648 -9.84808 3
      vertex 2.41922 -9.70296 3
    endloop
  endfacet
  facet normal -0.207911 0.978148 0
    outer loop
      vertex 1.73648 -9.84808 3
      vertex 2.41922 -9.70296 0
      vertex 1.73648 -9.84808 0
    endloop
  endfacet
  facet normal -0.139173 0.990268 0
    outer loop
      vertex 1.73648 -9.84808 0
      vertex 1.04528 -9.94522 3
      vertex 1.73648 -9.84808 3
    endloop
  endfacet
  facet normal -0.139173 0.990268 0
    outer loop
      vertex 1.04528 -9.94522 3
      vertex 1.73648 -9.84808 0
      vertex 1.04528 -9.94522 0
    endloop
  endfacet
  facet normal -0.587786 0.809017 0
    outer loop
      vertex 6.15661 -7.88011 0
      vertex 5.59193 -8.29038 3
      vertex 6.15661 -7.88011 3
    endloop
  endfacet
  facet normal -0.587786 0.809017 0
    outer loop
      vertex 5.59193 -8.29038 3
      vertex 6.15661 -7.88011 0
      vertex 5.59193 -8.29038 0
    endloop
  endfacet
  facet normal -0.743144 0.669131 0
    outer loop
      vertex 7.1934 -6.94658 0
      vertex 7.66044 -6.42788 3
      vertex 7.66044 -6.42788 0
    endloop
  endfacet
  facet normal -0.743144 0.669131 0
    outer loop
      vertex 7.66044 -6.42788 3
      vertex 7.1934 -6.94658 0
      vertex 7.1934 -6.94658 3
    endloop
  endfacet
  facet normal -0.694659 0.71934 0
    outer loop
      vertex 7.1934 -6.94658 0
      vertex 6.69131 -7.43145 3
      vertex 7.1934 -6.94658 3
    endloop
  endfacet
  facet normal -0.694659 0.71934 0
    outer loop
      vertex 6.69131 -7.43145 3
      vertex 7.1934 -6.94658 0
      vertex 6.69131 -7.43145 0
    endloop
  endfacet
  facet normal 0.529919 0.848048 -0
    outer loop
      vertex -5 -8.66025 0
      vertex -5.59193 -8.29038 3
      vertex -5 -8.66025 3
    endloop
  endfacet
  facet normal 0.529919 0.848048 0
    outer loop
      vertex -5.59193 -8.29038 3
      vertex -5 -8.66025 0
      vertex -5.59193 -8.29038 0
    endloop
  endfacet
  facet normal 0.587786 0.809017 -0
    outer loop
      vertex -5.59193 -8.29038 0
      vertex -6.15661 -7.88011 3
      vertex -5.59193 -8.29038 3
    endloop
  endfacet
  facet normal 0.587786 0.809017 0
    outer loop
      vertex -6.15661 -7.88011 3
      vertex -5.59193 -8.29038 0
      vertex -6.15661 -7.88011 0
    endloop
  endfacet
  facet normal 0.34202 0.939692 -0
    outer loop
      vertex -3.09017 -9.51056 0
      vertex -3.74607 -9.27184 3
      vertex -3.09017 -9.51056 3
    endloop
  endfacet
  facet normal 0.34202 0.939692 0
    outer loop
      vertex -3.74607 -9.27184 3
      vertex -3.09017 -9.51056 0
      vertex -3.74607 -9.27184 0
    endloop
  endfacet
  facet normal 0.866025 0.5 0
    outer loop
      vertex -8.48048 -5.29919 3
      vertex -8.82948 -4.69472 0
      vertex -8.82948 -4.69472 3
    endloop
  endfacet
  facet normal 0.866025 0.5 0
    outer loop
      vertex -8.82948 -4.69472 0
      vertex -8.48048 -5.29919 3
      vertex -8.48048 -5.29919 0
    endloop
  endfacet
  facet normal 0.694659 0.71934 -0
    outer loop
      vertex -6.69131 -7.43145 0
      vertex -7.1934 -6.94658 3
      vertex -6.69131 -7.43145 3
    endloop
  endfacet
  facet normal 0.694659 0.71934 0
    outer loop
      vertex -7.1934 -6.94658 3
      vertex -6.69131 -7.43145 0
      vertex -7.1934 -6.94658 0
    endloop
  endfacet
  facet normal 0.406737 0.913545 -0
    outer loop
      vertex -3.74607 -9.27184 0
      vertex -4.38371 -8.98794 3
      vertex -3.74607 -9.27184 3
    endloop
  endfacet
  facet normal 0.406737 0.913545 0
    outer loop
      vertex -4.38371 -8.98794 3
      vertex -3.74607 -9.27184 0
      vertex -4.38371 -8.98794 0
    endloop
  endfacet
  facet normal 0.275637 0.961262 -0
    outer loop
      vertex -2.41922 -9.70296 0
      vertex -3.09017 -9.51056 3
      vertex -2.41922 -9.70296 3
    endloop
  endfacet
  facet normal 0.275637 0.961262 0
    outer loop
      vertex -3.09017 -9.51056 3
      vertex -2.41922 -9.70296 0
      vertex -3.09017 -9.51056 0
    endloop
  endfacet
  facet normal 1 -0 0
    outer loop
      vertex 0 9.99391 3
      vertex 0 14.9909 0
      vertex 0 14.9909 3
    endloop
  endfacet
  facet normal 1 0 0
    outer loop
      vertex 0 14.9909 0
      vertex 0 9.99391 3
      vertex 0 9.99391 0
    endloop
  endfacet
  facet normal 0.707107 0.707107 0
    outer loop
      vertex 19.5711 -1.80688e-09 3
      vertex 12.5 7.07107 0
      vertex 12.5 7.07107 3
    endloop
  endfacet
  facet normal 0.707107 0.707107 0
    outer loop
      vertex 12.5 7.07107 0
      vertex 19.5711 -1.80688e-09 3
      vertex 19.5711 -1.80688e-09 0
    endloop
  endfacet
  facet normal -0.707107 0.707107 0
    outer loop
      vertex 5.42893 -1.80688e-09 0
      vertex 12.5 7.07107 3
      vertex 12.5 7.07107 0
    endloop
  endfacet
  facet normal -0.707107 0.707107 0
    outer loop
      vertex 12.5 7.07107 3
      vertex 5.42893 -1.80688e-09 0
      vertex 5.42893 -1.80688e-09 3
    endloop
  endfacet
  facet normal 0 -1 0
    outer loop
      vertex 15 -1.80688e-09 0
      vertex 19.5711 -1.80688e-09 3
      vertex 15 -1.80688e-09 3
    endloop
  endfacet
  facet normal 0 -1 -0
    outer loop
      vertex 19.5711 -1.80688e-09 3
      vertex 15 -1.80688e-09 0
      vertex 19.5711 -1.80688e-09 0
    endloop
  endfacet
  facet normal 0 -1 0
    outer loop
      vertex 5.42893 -1.80688e-09 0
      vertex 10 -1.80688e-09 3
      vertex 5.42893 -1.80688e-09 3
    endloop
  endfacet
  facet normal 0 -1 -0
    outer loop
      vertex 10 -1.80688e-09 3
      vertex 5.42893 -1.80688e-09 0
      vertex 10 -1.80688e-09 0
    endloop
  endfacet
endsolid OpenSCAD_Model
