solid OpenSCAD_Model
  facet normal -1 0 0
    outer loop
      vertex -0.45 -0.45 -0.6
      vertex -0.45 11.1 48
      vertex -0.45 11.1 -0.6
    endloop
  endfacet
  facet normal -1 -0 0
    outer loop
      vertex -0.45 11.1 48
      vertex -0.45 -0.45 -0.6
      vertex -0.45 -0.45 48
    endloop
  endfacet
  facet normal 0 0 1
    outer loop
      vertex 45.4 11.1 48
      vertex 44.95 10.65 48
      vertex 45.4 -0.45 48
    endloop
  endfacet
  facet normal 0 0 1
    outer loop
      vertex 45.4 11.1 48
      vertex -1.90735e-07 10.65 48
      vertex 44.95 10.65 48
    endloop
  endfacet
  facet normal 0 0 1
    outer loop
      vertex -1.90735e-07 10.65 48
      vertex -0.45 11.1 48
      vertex -1.90735e-07 -1.90735e-07 48
    endloop
  endfacet
  facet normal -0 0 1
    outer loop
      vertex -0.45 11.1 48
      vertex -1.90735e-07 10.65 48
      vertex 45.4 11.1 48
    endloop
  endfacet
  facet normal -0 0 1
    outer loop
      vertex 44.95 -1.90735e-07 48
      vertex 45.4 -0.45 48
      vertex 44.95 10.65 48
    endloop
  endfacet
  facet normal -0 0 1
    outer loop
      vertex -1.90735e-07 -1.90735e-07 48
      vertex 45.4 -0.45 48
      vertex 44.95 -1.90735e-07 48
    endloop
  endfacet
  facet normal 0 0 1
    outer loop
      vertex -1.90735e-07 -1.90735e-07 48
      vertex -0.45 -0.45 48
      vertex 45.4 -0.45 48
    endloop
  endfacet
  facet normal 0 0 1
    outer loop
      vertex -0.45 -0.45 48
      vertex -1.90735e-07 -1.90735e-07 48
      vertex -0.45 11.1 48
    endloop
  endfacet
  facet normal 1 -0 0
    outer loop
      vertex 45.4 -0.45 48
      vertex 45.4 11.1 -0.6
      vertex 45.4 11.1 48
    endloop
  endfacet
  facet normal 1 0 0
    outer loop
      vertex 45.4 11.1 -0.6
      vertex 45.4 -0.45 48
      vertex 45.4 -0.45 -0.6
    endloop
  endfacet
  facet normal 0 0 -1
    outer loop
      vertex -0.45 -0.45 -0.6
      vertex 45.4 11.1 -0.6
      vertex 45.4 -0.45 -0.6
    endloop
  endfacet
  facet normal -0 0 -1
    outer loop
      vertex 45.4 11.1 -0.6
      vertex -0.45 -0.45 -0.6
      vertex -0.45 11.1 -0.6
    endloop
  endfacet
  facet normal 0 -1 0
    outer loop
      vertex -0.45 -0.45 -0.6
      vertex 45.4 -0.45 48
      vertex -0.45 -0.45 48
    endloop
  endfacet
  facet normal 0 -1 -0
    outer loop
      vertex 45.4 -0.45 48
      vertex -0.45 -0.45 -0.6
      vertex 45.4 -0.45 -0.6
    endloop
  endfacet
  facet normal 0 1 -0
    outer loop
      vertex 45.4 11.1 -0.6
      vertex -0.45 11.1 48
      vertex 45.4 11.1 48
    endloop
  endfacet
  facet normal 0 1 0
    outer loop
      vertex -0.45 11.1 48
      vertex 45.4 11.1 -0.6
      vertex -0.45 11.1 -0.6
    endloop
  endfacet
  facet normal 1 -0 0
    outer loop
      vertex -1.90735e-07 -1.90735e-07 48
      vertex -1.90735e-07 10.65 -5.72205e-07
      vertex -1.90735e-07 10.65 48
    endloop
  endfacet
  facet normal 1 0 0
    outer loop
      vertex -1.90735e-07 10.65 -5.72205e-07
      vertex -1.90735e-07 -1.90735e-07 48
      vertex -1.90735e-07 -1.90735e-07 -5.72205e-07
    endloop
  endfacet
  facet normal -1 0 0
    outer loop
      vertex 44.95 -1.90735e-07 -5.72205e-07
      vertex 44.95 10.65 48
      vertex 44.95 10.65 -5.72205e-07
    endloop
  endfacet
  facet normal -1 -0 0
    outer loop
      vertex 44.95 10.65 48
      vertex 44.95 -1.90735e-07 -5.72205e-07
      vertex 44.95 -1.90735e-07 48
    endloop
  endfacet
  facet normal 0 -1 0
    outer loop
      vertex -1.90735e-07 10.65 -5.72205e-07
      vertex 44.95 10.65 48
      vertex -1.90735e-07 10.65 48
    endloop
  endfacet
  facet normal 0 -1 -0
    outer loop
      vertex 44.95 10.65 48
      vertex -1.90735e-07 10.65 -5.72205e-07
      vertex 44.95 10.65 -5.72205e-07
    endloop
  endfacet
  facet normal -0 0 1
    outer loop
      vertex -1.90735e-07 10.65 -5.72205e-07
      vertex 44.95 -1.90735e-07 -5.72205e-07
      vertex 44.95 10.65 -5.72205e-07
    endloop
  endfacet
  facet normal 0 0 1
    outer loop
      vertex 44.95 -1.90735e-07 -5.72205e-07
      vertex -1.90735e-07 10.65 -5.72205e-07
      vertex -1.90735e-07 -1.90735e-07 -5.72205e-07
    endloop
  endfacet
  facet normal 0 1 -0
    outer loop
      vertex 44.95 -1.90735e-07 -5.72205e-07
      vertex -1.90735e-07 -1.90735e-07 48
      vertex 44.95 -1.90735e-07 48
    endloop
  endfacet
  facet normal 0 1 0
    outer loop
      vertex -1.90735e-07 -1.90735e-07 48
      vertex 44.95 -1.90735e-07 -5.72205e-07
      vertex -1.90735e-07 -1.90735e-07 -5.72205e-07
    endloop
  endfacet
endsolid OpenSCAD_Model
