solid OpenSCAD_Model
  facet normal -1 0 0
    outer loop
      vertex -0.45 -0.45 -0.6
      vertex -0.45 8.15 66
      vertex -0.45 8.15 -0.6
    endloop
  endfacet
  facet normal -1 -0 0
    outer loop
      vertex -0.45 8.15 66
      vertex -0.45 -0.45 -0.6
      vertex -0.45 -0.45 66
    endloop
  endfacet
  facet normal 0 0 1
    outer loop
      vertex 57.2 8.15 66
      vertex 56.75 7.7 66
      vertex 57.2 -0.45 66
    endloop
  endfacet
  facet normal 0 0 1
    outer loop
      vertex 57.2 8.15 66
      vertex -1.90735e-07 7.7 66
      vertex 56.75 7.7 66
    endloop
  endfacet
  facet normal 0 0 1
    outer loop
      vertex -1.90735e-07 7.7 66
      vertex -0.45 8.15 66
      vertex -1.90735e-07 -1.90735e-07 66
    endloop
  endfacet
  facet normal -0 0 1
    outer loop
      vertex -0.45 8.15 66
      vertex -1.90735e-07 7.7 66
      vertex 57.2 8.15 66
    endloop
  endfacet
  facet normal -0 0 1
    outer loop
      vertex 56.75 -1.90735e-07 66
      vertex 57.2 -0.45 66
      vertex 56.75 7.7 66
    endloop
  endfacet
  facet normal -0 0 1
    outer loop
      vertex -1.90735e-07 -1.90735e-07 66
      vertex 57.2 -0.45 66
      vertex 56.75 -1.90735e-07 66
    endloop
  endfacet
  facet normal 0 0 1
    outer loop
      vertex -1.90735e-07 -1.90735e-07 66
      vertex -0.45 -0.45 66
      vertex 57.2 -0.45 66
    endloop
  endfacet
  facet normal 0 0 1
    outer loop
      vertex -0.45 -0.45 66
      vertex -1.90735e-07 -1.90735e-07 66
      vertex -0.45 8.15 66
    endloop
  endfacet
  facet normal 1 -0 0
    outer loop
      vertex 57.2 -0.45 66
      vertex 57.2 8.15 -0.6
      vertex 57.2 8.15 66
    endloop
  endfacet
  facet normal 1 0 0
    outer loop
      vertex 57.2 8.15 -0.6
      vertex 57.2 -0.45 66
      vertex 57.2 -0.45 -0.6
    endloop
  endfacet
  facet normal 0 1 -0
    outer loop
      vertex 57.2 8.15 -0.6
      vertex -0.45 8.15 66
      vertex 57.2 8.15 66
    endloop
  endfacet
  facet normal 0 1 0
    outer loop
      vertex -0.45 8.15 66
      vertex 57.2 8.15 -0.6
      vertex -0.45 8.15 -0.6
    endloop
  endfacet
  facet normal 0 0 -1
    outer loop
      vertex -0.45 -0.45 -0.6
      vertex 57.2 8.15 -0.6
      vertex 57.2 -0.45 -0.6
    endloop
  endfacet
  facet normal -0 0 -1
    outer loop
      vertex 57.2 8.15 -0.6
      vertex -0.45 -0.45 -0.6
      vertex -0.45 8.15 -0.6
    endloop
  endfacet
  facet normal 0 -1 0
    outer loop
      vertex -0.45 -0.45 -0.6
      vertex 57.2 -0.45 66
      vertex -0.45 -0.45 66
    endloop
  endfacet
  facet normal 0 -1 -0
    outer loop
      vertex 57.2 -0.45 66
      vertex -0.45 -0.45 -0.6
      vertex 57.2 -0.45 -0.6
    endloop
  endfacet
  facet normal 1 -0 0
    outer loop
      vertex -1.90735e-07 -1.90735e-07 66
      vertex -1.90735e-07 7.7 -5.72205e-07
      vertex -1.90735e-07 7.7 66
    endloop
  endfacet
  facet normal 1 0 0
    outer loop
      vertex -1.90735e-07 7.7 -5.72205e-07
      vertex -1.90735e-07 -1.90735e-07 66
      vertex -1.90735e-07 -1.90735e-07 -5.72205e-07
    endloop
  endfacet
  facet normal -1 0 0
    outer loop
      vertex 56.75 -1.90735e-07 -5.72205e-07
      vertex 56.75 7.7 66
      vertex 56.75 7.7 -5.72205e-07
    endloop
  endfacet
  facet normal -1 -0 0
    outer loop
      vertex 56.75 7.7 66
      vertex 56.75 -1.90735e-07 -5.72205e-07
      vertex 56.75 -1.90735e-07 66
    endloop
  endfacet
  facet normal 0 -1 0
    outer loop
      vertex -1.90735e-07 7.7 -5.72205e-07
      vertex 56.75 7.7 66
      vertex -1.90735e-07 7.7 66
    endloop
  endfacet
  facet normal 0 -1 -0
    outer loop
      vertex 56.75 7.7 66
      vertex -1.90735e-07 7.7 -5.72205e-07
      vertex 56.75 7.7 -5.72205e-07
    endloop
  endfacet
  facet normal -0 0 1
    outer loop
      vertex -1.90735e-07 7.7 -5.72205e-07
      vertex 56.75 -1.90735e-07 -5.72205e-07
      vertex 56.75 7.7 -5.72205e-07
    endloop
  endfacet
  facet normal 0 0 1
    outer loop
      vertex 56.75 -1.90735e-07 -5.72205e-07
      vertex -1.90735e-07 7.7 -5.72205e-07
      vertex -1.90735e-07 -1.90735e-07 -5.72205e-07
    endloop
  endfacet
  facet normal 0 1 -0
    outer loop
      vertex 56.75 -1.90735e-07 -5.72205e-07
      vertex -1.90735e-07 -1.90735e-07 66
      vertex 56.75 -1.90735e-07 66
    endloop
  endfacet
  facet normal 0 1 0
    outer loop
      vertex -1.90735e-07 -1.90735e-07 66
      vertex 56.75 -1.90735e-07 -5.72205e-07
      vertex -1.90735e-07 -1.90735e-07 -5.72205e-07
    endloop
  endfacet
endsolid OpenSCAD_Model
