<?xml version="1.0" standalone="no"?>
<!DOCTYPE svg PUBLIC "-//W3C//DTD SVG 1.1//EN" "http://www.w3.org/Graphics/SVG/1.1/DTD/svg11.dtd">
<svg width="216" height="280" viewBox="0 -280 216 280" xmlns="http://www.w3.org/2000/svg" version="1.1">
<title>OpenSCAD Model</title>
<path d="
M 215.9,-279.4 L 0,-279.4 L 0,-0 L 215.9,-0 z
M 19.97,-140 L 19.97,-239.96 L 59.95,-239.96 L 59.95,-230.98 L 78.5966,-230.98 L 78.5966,-140
 z
M 78.6167,-140 L 78.6167,-230.98 L 97.2633,-230.98 L 97.2633,-239.96 L 137.243,-239.96 L 137.243,-140
 z
M 137.263,-140 L 137.263,-239.96 L 177.243,-239.96 L 177.243,-230.98 L 195.89,-230.98 L 195.89,-140
 z
M 19.97,-40.02 L 19.97,-131 L 38.6167,-131 L 38.6167,-139.98 L 78.5966,-139.98 L 78.5966,-40.02
 z
M 78.6167,-40.02 L 78.6167,-139.98 L 118.597,-139.98 L 118.597,-131 L 137.243,-131 L 137.243,-40.02
 z
M 137.263,-40.02 L 137.263,-131 L 155.91,-131 L 155.91,-139.98 L 195.89,-139.98 L 195.89,-40.02
 z
" stroke="black" fill="lightgray" stroke-width="0.5"/></svg>
