  0
SECTION
  2
BLOCKS
  0
ENDSEC
  0
SECTION
  2
ENTITIES
  0
LINE
  8
0
 10
215.9
 20
279.4
 11
0
 21
279.4
  0
LINE
  8
0
 10
0
 20
279.4
 11
0
 21
0
  0
LINE
  8
0
 10
0
 20
0
 11
215.9
 21
0
  0
LINE
  8
0
 10
215.9
 20
0
 11
215.9
 21
279.4
  0
LINE
  8
0
 10
19.96
 20
140
 11
19.96
 21
239.98
  0
LINE
  8
0
 10
19.96
 20
239.98
 11
59.95
 21
239.98
  0
LINE
  8
0
 10
59.95
 20
239.98
 11
59.95
 21
230.99
  0
LINE
  8
0
 10
59.95
 20
230.99
 11
78.6067
 21
230.99
  0
LINE
  8
0
 10
78.6067
 20
230.99
 11
78.6067
 21
140
  0
LINE
  8
0
 10
78.6067
 20
140
 11
19.96
 21
140
  0
LINE
  8
0
 10
78.6167
 20
140
 11
78.6167
 21
230.99
  0
LINE
  8
0
 10
78.6167
 20
230.99
 11
97.2733
 21
230.99
  0
LINE
  8
0
 10
97.2733
 20
230.99
 11
97.2733
 21
239.98
  0
LINE
  8
0
 10
97.2733
 20
239.98
 11
137.263
 21
239.98
  0
LINE
  8
0
 10
137.263
 20
239.98
 11
137.263
 21
140
  0
LINE
  8
0
 10
137.263
 20
140
 11
78.6167
 21
140
  0
LINE
  8
0
 10
137.273
 20
140
 11
137.273
 21
239.98
  0
LINE
  8
0
 10
137.273
 20
239.98
 11
177.263
 21
239.98
  0
LINE
  8
0
 10
177.263
 20
239.98
 11
177.263
 21
230.99
  0
LINE
  8
0
 10
177.263
 20
230.99
 11
195.92
 21
230.99
  0
LINE
  8
0
 10
195.92
 20
230.99
 11
195.92
 21
140
  0
LINE
  8
0
 10
195.92
 20
140
 11
137.273
 21
140
  0
LINE
  8
0
 10
19.96
 20
40.01
 11
19.96
 21
131
  0
LINE
  8
0
 10
19.96
 20
131
 11
38.6167
 21
131
  0
LINE
  8
0
 10
38.6167
 20
131
 11
38.6167
 21
139.99
  0
LINE
  8
0
 10
38.6167
 20
139.99
 11
78.6067
 21
139.99
  0
LINE
  8
0
 10
78.6067
 20
139.99
 11
78.6067
 21
40.01
  0
LINE
  8
0
 10
78.6067
 20
40.01
 11
19.96
 21
40.01
  0
LINE
  8
0
 10
78.6167
 20
40.01
 11
78.6167
 21
139.99
  0
LINE
  8
0
 10
78.6167
 20
139.99
 11
118.607
 21
139.99
  0
LINE
  8
0
 10
118.607
 20
139.99
 11
118.607
 21
131
  0
LINE
  8
0
 10
118.607
 20
131
 11
137.263
 21
131
  0
LINE
  8
0
 10
137.263
 20
131
 11
137.263
 21
40.01
  0
LINE
  8
0
 10
137.263
 20
40.01
 11
78.6167
 21
40.01
  0
LINE
  8
0
 10
137.273
 20
40.01
 11
137.273
 21
131
  0
LINE
  8
0
 10
137.273
 20
131
 11
155.93
 21
131
  0
LINE
  8
0
 10
155.93
 20
131
 11
155.93
 21
139.99
  0
LINE
  8
0
 10
155.93
 20
139.99
 11
195.92
 21
139.99
  0
LINE
  8
0
 10
195.92
 20
139.99
 11
195.92
 21
40.01
  0
LINE
  8
0
 10
195.92
 20
40.01
 11
137.273
 21
40.01
  0
ENDSEC
  0
SECTION
  2
OBJECTS
  0
DICTIONARY
  0
ENDSEC
  0
EOF
