  0
SECTION
  2
BLOCKS
  0
ENDSEC
  0
SECTION
  2
ENTITIES
  0
LINE
  8
0
 10
215.9
 20
279.4
 11
0
 21
279.4
  0
LINE
  8
0
 10
0
 20
279.4
 11
0
 21
0
  0
LINE
  8
0
 10
0
 20
0
 11
215.9
 21
0
  0
LINE
  8
0
 10
215.9
 20
0
 11
215.9
 21
279.4
  0
LINE
  8
0
 10
19.97
 20
140
 11
19.97
 21
239.96
  0
LINE
  8
0
 10
19.97
 20
239.96
 11
59.95
 21
239.96
  0
LINE
  8
0
 10
59.95
 20
239.96
 11
59.95
 21
230.98
  0
LINE
  8
0
 10
59.95
 20
230.98
 11
78.5966
 21
230.98
  0
LINE
  8
0
 10
78.5966
 20
230.98
 11
78.5966
 21
140
  0
LINE
  8
0
 10
78.5966
 20
140
 11
19.97
 21
140
  0
LINE
  8
0
 10
78.6167
 20
140
 11
78.6167
 21
230.98
  0
LINE
  8
0
 10
78.6167
 20
230.98
 11
97.2633
 21
230.98
  0
LINE
  8
0
 10
97.2633
 20
230.98
 11
97.2633
 21
239.96
  0
LINE
  8
0
 10
97.2633
 20
239.96
 11
137.243
 21
239.96
  0
LINE
  8
0
 10
137.243
 20
239.96
 11
137.243
 21
140
  0
LINE
  8
0
 10
137.243
 20
140
 11
78.6167
 21
140
  0
LINE
  8
0
 10
137.263
 20
140
 11
137.263
 21
239.96
  0
LINE
  8
0
 10
137.263
 20
239.96
 11
177.243
 21
239.96
  0
LINE
  8
0
 10
177.243
 20
239.96
 11
177.243
 21
230.98
  0
LINE
  8
0
 10
177.243
 20
230.98
 11
195.89
 21
230.98
  0
LINE
  8
0
 10
195.89
 20
230.98
 11
195.89
 21
140
  0
LINE
  8
0
 10
195.89
 20
140
 11
137.263
 21
140
  0
LINE
  8
0
 10
19.97
 20
40.02
 11
19.97
 21
131
  0
LINE
  8
0
 10
19.97
 20
131
 11
38.6167
 21
131
  0
LINE
  8
0
 10
38.6167
 20
131
 11
38.6167
 21
139.98
  0
LINE
  8
0
 10
38.6167
 20
139.98
 11
78.5966
 21
139.98
  0
LINE
  8
0
 10
78.5966
 20
139.98
 11
78.5966
 21
40.02
  0
LINE
  8
0
 10
78.5966
 20
40.02
 11
19.97
 21
40.02
  0
LINE
  8
0
 10
78.6167
 20
40.02
 11
78.6167
 21
139.98
  0
LINE
  8
0
 10
78.6167
 20
139.98
 11
118.597
 21
139.98
  0
LINE
  8
0
 10
118.597
 20
139.98
 11
118.597
 21
131
  0
LINE
  8
0
 10
118.597
 20
131
 11
137.243
 21
131
  0
LINE
  8
0
 10
137.243
 20
131
 11
137.243
 21
40.02
  0
LINE
  8
0
 10
137.243
 20
40.02
 11
78.6167
 21
40.02
  0
LINE
  8
0
 10
137.263
 20
40.02
 11
137.263
 21
131
  0
LINE
  8
0
 10
137.263
 20
131
 11
155.91
 21
131
  0
LINE
  8
0
 10
155.91
 20
131
 11
155.91
 21
139.98
  0
LINE
  8
0
 10
155.91
 20
139.98
 11
195.89
 21
139.98
  0
LINE
  8
0
 10
195.89
 20
139.98
 11
195.89
 21
40.02
  0
LINE
  8
0
 10
195.89
 20
40.02
 11
137.263
 21
40.02
  0
ENDSEC
  0
SECTION
  2
OBJECTS
  0
DICTIONARY
  0
ENDSEC
  0
EOF
