<?xml version="1.0" encoding="UTF-8" standalone="no"?>
<svg
   xmlns:dc="http://purl.org/dc/elements/1.1/"
   xmlns:cc="http://creativecommons.org/ns#"
   xmlns:rdf="http://www.w3.org/1999/02/22-rdf-syntax-ns#"
   xmlns:svg="http://www.w3.org/2000/svg"
   xmlns="http://www.w3.org/2000/svg"
   version="1.1"
   id="svg2"
   height="11in"
   width="8.5in">
  <metadata
     id="metadata102">
    <rdf:RDF>
      <cc:Work
         rdf:about="">
        <dc:format>image/svg+xml</dc:format>
        <dc:type
           rdf:resource="http://purl.org/dc/dcmitype/StillImage" />
        <dc:title></dc:title>
      </cc:Work>
    </rdf:RDF>
  </metadata>
  <desc
     id="desc4">/home/ct7/parts/game-parts/dominion/dominion-tabs.dxf - scale = 1.000000, origin = (0.000000, 0.000000), auto = False</desc>
  <defs
     id="defs6">
    <marker
       style="overflow:visible"
       refY="0"
       refX="0"
       orient="auto"
       id="DistanceX">
      <path
         id="path9"
         style="stroke:#000000;stroke-width:0.5"
         d="M 3,-3 -3,3 M 0,-5 0,5" />
    </marker>
    <pattern
       y="0"
       x="0"
       width="8"
       patternUnits="userSpaceOnUse"
       id="Hatch"
       height="8">
      <path
         id="path12"
         stroke-width="0.25"
         stroke="#000000"
         linecap="square"
         d="M8 4 l-4,4" />
      <path
         id="path14"
         stroke-width="0.25"
         stroke="#000000"
         linecap="square"
         d="M6 2 l-4,4" />
      <path
         id="path16"
         stroke-width="0.25"
         stroke="#000000"
         linecap="square"
         d="M4 0 l-4,4" />
    </pattern>
  </defs>
  <g
     transform="translate(0,-62.362183)"
     id="g18">
    <path
       id="path20"
       style="fill:none;stroke:#000000"
       d="m 765,62.362205 -765,0" />
    <path
       id="path22"
       style="fill:none;stroke:#000000"
       d="M 0,62.362205 0,1052.3622" />
    <path
       id="path24"
       style="fill:none;stroke:#000000"
       d="m 0,1052.3622 765,0" />
    <path
       id="path26"
       style="fill:none;stroke:#000000"
       d="M 765,1052.3622 765,62.362205" />
    <path
       id="path28"
       style="fill:none;stroke:#000000"
       d="m 70.724409,556.29921 0,-354.25984" />
    <path
       id="path30"
       style="fill:none;stroke:#000000"
       d="m 70.724409,202.03937 141.696851,0" />
    <path
       id="path32"
       style="fill:none;stroke:#000000"
       d="m 212.42126,202.03937 0,31.85433" />
    <path
       id="path34"
       style="fill:none;stroke:#000000"
       d="m 212.42126,233.8937 66.10642,0" />
    <path
       id="path36"
       style="fill:none;stroke:#000000"
       d="m 278.52768,233.8937 0,322.40551" />
    <path
       id="path38"
       style="fill:none;stroke:#000000"
       d="m 278.52768,556.29921 -207.803271,0" />
    <path
       id="path40"
       style="fill:none;stroke:#000000"
       d="m 278.56311,556.29921 0,-322.40551" />
    <path
       id="path42"
       style="fill:none;stroke:#000000"
       d="m 278.56311,233.8937 66.10606,0" />
    <path
       id="path44"
       style="fill:none;stroke:#000000"
       d="m 344.66917,233.8937 0,-31.85433" />
    <path
       id="path46"
       style="fill:none;stroke:#000000"
       d="m 344.66917,202.03937 141.69579,0" />
    <path
       id="path48"
       style="fill:none;stroke:#000000"
       d="m 486.36496,202.03937 0,354.25984" />
    <path
       id="path50"
       style="fill:none;stroke:#000000"
       d="m 486.36496,556.29921 -207.80185,0" />
    <path
       id="path52"
       style="fill:none;stroke:#000000"
       d="m 486.40039,556.29921 0,-354.25984" />
    <path
       id="path54"
       style="fill:none;stroke:#000000"
       d="m 486.40039,202.03937 141.69685,0" />
    <path
       id="path56"
       style="fill:none;stroke:#000000"
       d="m 628.09724,202.03937 0,31.85433" />
    <path
       id="path58"
       style="fill:none;stroke:#000000"
       d="m 628.09724,233.8937 66.10748,0" />
    <path
       id="path60"
       style="fill:none;stroke:#000000"
       d="m 694.20472,233.8937 0,322.40551" />
    <path
       id="path62"
       style="fill:none;stroke:#000000"
       d="m 694.20472,556.29921 -207.80433,0" />
    <path
       id="path64"
       style="fill:none;stroke:#000000"
       d="m 70.724409,910.59449 0,-322.40551" />
    <path
       id="path66"
       style="fill:none;stroke:#000000"
       d="m 70.724409,588.18898 66.106421,0" />
    <path
       id="path68"
       style="fill:none;stroke:#000000"
       d="m 136.83083,588.18898 0,-31.85433" />
    <path
       id="path70"
       style="fill:none;stroke:#000000"
       d="m 136.83083,556.33465 141.69685,0" />
    <path
       id="path72"
       style="fill:none;stroke:#000000"
       d="m 278.52768,556.33465 0,354.25984" />
    <path
       id="path74"
       style="fill:none;stroke:#000000"
       d="m 278.52768,910.59449 -207.803271,0" />
    <path
       id="path76"
       style="fill:none;stroke:#000000"
       d="m 278.56311,910.59449 0,-354.25984" />
    <path
       id="path78"
       style="fill:none;stroke:#000000"
       d="m 278.56311,556.33465 141.69791,0" />
    <path
       id="path80"
       style="fill:none;stroke:#000000"
       d="m 420.26102,556.33465 0,31.85433" />
    <path
       id="path82"
       style="fill:none;stroke:#000000"
       d="m 420.26102,588.18898 66.10394,0" />
    <path
       id="path84"
       style="fill:none;stroke:#000000"
       d="m 486.36496,588.18898 0,322.40551" />
    <path
       id="path86"
       style="fill:none;stroke:#000000"
       d="m 486.36496,910.59449 -207.80185,0" />
    <path
       id="path88"
       style="fill:none;stroke:#000000"
       d="m 486.40039,910.59449 0,-322.40551" />
    <path
       id="path90"
       style="fill:none;stroke:#000000"
       d="m 486.40039,588.18898 66.10748,0" />
    <path
       id="path92"
       style="fill:none;stroke:#000000"
       d="m 552.50787,588.18898 0,-31.85433" />
    <path
       id="path94"
       style="fill:none;stroke:#000000"
       d="m 552.50787,556.33465 141.69685,0" />
    <path
       id="path96"
       style="fill:none;stroke:#000000"
       d="m 694.20472,556.33465 0,354.25984" />
    <path
       id="path98"
       style="fill:none;stroke:#000000"
       d="m 694.20472,910.59449 -207.80433,0" />
  </g>
</svg>
