  0
SECTION
  2
BLOCKS
  0
ENDSEC
  0
SECTION
  2
ENTITIES
  0
LINE
  8
0
 10
217
 20
280.5
 11
0
 21
280.5
  0
LINE
  8
0
 10
0
 20
280.5
 11
0
 21
0
  0
LINE
  8
0
 10
0
 20
0
 11
217
 21
0
  0
LINE
  8
0
 10
217
 20
0
 11
217
 21
280.5
  0
LINE
  8
0
 10
20.52
 20
140
 11
20.52
 21
239.96
  0
LINE
  8
0
 10
20.52
 20
239.96
 11
60.5
 21
239.96
  0
LINE
  8
0
 10
60.5
 20
239.96
 11
60.5
 21
230.98
  0
LINE
  8
0
 10
60.5
 20
230.98
 11
79.1467
 21
230.98
  0
LINE
  8
0
 10
79.1467
 20
230.98
 11
79.1467
 21
140
  0
LINE
  8
0
 10
79.1467
 20
140
 11
20.52
 21
140
  0
LINE
  8
0
 10
79.1666
 20
140
 11
79.1666
 21
230.98
  0
LINE
  8
0
 10
79.1666
 20
230.98
 11
97.8133
 21
230.98
  0
LINE
  8
0
 10
97.8133
 20
230.98
 11
97.8133
 21
239.96
  0
LINE
  8
0
 10
97.8133
 20
239.96
 11
137.793
 21
239.96
  0
LINE
  8
0
 10
137.793
 20
239.96
 11
137.793
 21
140
  0
LINE
  8
0
 10
137.793
 20
140
 11
79.1666
 21
140
  0
LINE
  8
0
 10
137.813
 20
140
 11
137.813
 21
239.96
  0
LINE
  8
0
 10
137.813
 20
239.96
 11
177.793
 21
239.96
  0
LINE
  8
0
 10
177.793
 20
239.96
 11
177.793
 21
230.98
  0
LINE
  8
0
 10
177.793
 20
230.98
 11
196.44
 21
230.98
  0
LINE
  8
0
 10
196.44
 20
230.98
 11
196.44
 21
140
  0
LINE
  8
0
 10
196.44
 20
140
 11
137.813
 21
140
  0
LINE
  8
0
 10
20.52
 20
40.02
 11
20.52
 21
131
  0
LINE
  8
0
 10
20.52
 20
131
 11
39.1667
 21
131
  0
LINE
  8
0
 10
39.1667
 20
131
 11
39.1667
 21
139.98
  0
LINE
  8
0
 10
39.1667
 20
139.98
 11
79.1467
 21
139.98
  0
LINE
  8
0
 10
79.1467
 20
139.98
 11
79.1467
 21
40.02
  0
LINE
  8
0
 10
79.1467
 20
40.02
 11
20.52
 21
40.02
  0
LINE
  8
0
 10
79.1666
 20
40.02
 11
79.1666
 21
139.98
  0
LINE
  8
0
 10
79.1666
 20
139.98
 11
119.147
 21
139.98
  0
LINE
  8
0
 10
119.147
 20
139.98
 11
119.147
 21
131
  0
LINE
  8
0
 10
119.147
 20
131
 11
137.793
 21
131
  0
LINE
  8
0
 10
137.793
 20
131
 11
137.793
 21
40.02
  0
LINE
  8
0
 10
137.793
 20
40.02
 11
79.1666
 21
40.02
  0
LINE
  8
0
 10
137.813
 20
40.02
 11
137.813
 21
131
  0
LINE
  8
0
 10
137.813
 20
131
 11
156.46
 21
131
  0
LINE
  8
0
 10
156.46
 20
131
 11
156.46
 21
139.98
  0
LINE
  8
0
 10
156.46
 20
139.98
 11
196.44
 21
139.98
  0
LINE
  8
0
 10
196.44
 20
139.98
 11
196.44
 21
40.02
  0
LINE
  8
0
 10
196.44
 20
40.02
 11
137.813
 21
40.02
  0
ENDSEC
  0
SECTION
  2
OBJECTS
  0
DICTIONARY
  0
ENDSEC
  0
EOF
