solid OpenSCAD_Model
  facet normal -1 0 0
    outer loop
      vertex 0 0 0
      vertex 0 99.6 20
      vertex 0 99.6 0
    endloop
  endfacet
  facet normal -1 -0 0
    outer loop
      vertex 0 99.6 20
      vertex 0 0 0
      vertex 0 0 20
    endloop
  endfacet
  facet normal -0 0 1
    outer loop
      vertex 2 40.8 20
      vertex 70.8 38.8 20
      vertex 70.8 40.8 20
    endloop
  endfacet
  facet normal 0 0 1
    outer loop
      vertex 70.8 38.8 20
      vertex 2 40.8 20
      vertex 2 38.8 20
    endloop
  endfacet
  facet normal -0 0 1
    outer loop
      vertex 72.8 40.8 20
      vertex 141.6 38.8 20
      vertex 141.6 40.8 20
    endloop
  endfacet
  facet normal 0 0 1
    outer loop
      vertex 141.6 38.8 20
      vertex 72.8 40.8 20
      vertex 72.8 38.8 20
    endloop
  endfacet
  facet normal 0 0 1
    outer loop
      vertex 141.6 40.8 20
      vertex 143.6 99.6 20
      vertex 141.6 97.6 20
    endloop
  endfacet
  facet normal 0 0 1
    outer loop
      vertex 143.6 99.6 20
      vertex 72.8 97.6 20
      vertex 141.6 97.6 20
    endloop
  endfacet
  facet normal 0 0 1
    outer loop
      vertex 70.8 40.8 20
      vertex 72.8 40.8 20
      vertex 72.8 97.6 20
    endloop
  endfacet
  facet normal 0 0 1
    outer loop
      vertex 72.8 40.8 20
      vertex 70.8 40.8 20
      vertex 72.8 38.8 20
    endloop
  endfacet
  facet normal 0 0 1
    outer loop
      vertex 70.8 40.8 20
      vertex 72.8 97.6 20
      vertex 70.8 97.6 20
    endloop
  endfacet
  facet normal 0 0 1
    outer loop
      vertex 143.6 99.6 20
      vertex 70.8 97.6 20
      vertex 72.8 97.6 20
    endloop
  endfacet
  facet normal -0 0 1
    outer loop
      vertex 0 99.6 20
      vertex 70.8 97.6 20
      vertex 143.6 99.6 20
    endloop
  endfacet
  facet normal 0 0 1
    outer loop
      vertex 0 99.6 20
      vertex 2 40.8 20
      vertex 2 97.6 20
    endloop
  endfacet
  facet normal 0 0 1
    outer loop
      vertex 0 0 20
      vertex 2 40.8 20
      vertex 0 99.6 20
    endloop
  endfacet
  facet normal 0 0 1
    outer loop
      vertex 2 40.8 20
      vertex 0 0 20
      vertex 2 38.8 20
    endloop
  endfacet
  facet normal 0 0 1
    outer loop
      vertex 70.8 97.6 20
      vertex 0 99.6 20
      vertex 2 97.6 20
    endloop
  endfacet
  facet normal 0 0 1
    outer loop
      vertex 143.6 99.6 20
      vertex 141.6 40.8 20
      vertex 143.6 0 20
    endloop
  endfacet
  facet normal -0 0 1
    outer loop
      vertex 141.6 38.8 20
      vertex 143.6 0 20
      vertex 141.6 40.8 20
    endloop
  endfacet
  facet normal -0 0 1
    outer loop
      vertex 141.6 2 20
      vertex 143.6 0 20
      vertex 141.6 38.8 20
    endloop
  endfacet
  facet normal -0 0 1
    outer loop
      vertex 72.8 2 20
      vertex 143.6 0 20
      vertex 141.6 2 20
    endloop
  endfacet
  facet normal 0 0 1
    outer loop
      vertex 70.8 38.8 20
      vertex 72.8 38.8 20
      vertex 70.8 40.8 20
    endloop
  endfacet
  facet normal 0 0 1
    outer loop
      vertex 72.8 38.8 20
      vertex 70.8 38.8 20
      vertex 72.8 2 20
    endloop
  endfacet
  facet normal 0 0 1
    outer loop
      vertex 70.8 2 20
      vertex 72.8 2 20
      vertex 70.8 38.8 20
    endloop
  endfacet
  facet normal -0 0 1
    outer loop
      vertex 70.8 2 20
      vertex 143.6 0 20
      vertex 72.8 2 20
    endloop
  endfacet
  facet normal 0 0 1
    outer loop
      vertex 0 0 20
      vertex 70.8 2 20
      vertex 2 2 20
    endloop
  endfacet
  facet normal 0 0 1
    outer loop
      vertex 70.8 2 20
      vertex 0 0 20
      vertex 143.6 0 20
    endloop
  endfacet
  facet normal 0 0 1
    outer loop
      vertex 2 38.8 20
      vertex 0 0 20
      vertex 2 2 20
    endloop
  endfacet
  facet normal 1 -0 0
    outer loop
      vertex 143.6 0 20
      vertex 143.6 99.6 0
      vertex 143.6 99.6 20
    endloop
  endfacet
  facet normal 1 0 0
    outer loop
      vertex 143.6 99.6 0
      vertex 143.6 0 20
      vertex 143.6 0 0
    endloop
  endfacet
  facet normal 0 1 -0
    outer loop
      vertex 143.6 99.6 0
      vertex 0 99.6 20
      vertex 143.6 99.6 20
    endloop
  endfacet
  facet normal 0 1 0
    outer loop
      vertex 0 99.6 20
      vertex 143.6 99.6 0
      vertex 0 99.6 0
    endloop
  endfacet
  facet normal 0 0 -1
    outer loop
      vertex 0 0 0
      vertex 143.6 99.6 0
      vertex 143.6 0 0
    endloop
  endfacet
  facet normal -0 0 -1
    outer loop
      vertex 143.6 99.6 0
      vertex 0 0 0
      vertex 0 99.6 0
    endloop
  endfacet
  facet normal 0 -1 0
    outer loop
      vertex 0 0 0
      vertex 143.6 0 20
      vertex 0 0 20
    endloop
  endfacet
  facet normal 0 -1 -0
    outer loop
      vertex 143.6 0 20
      vertex 0 0 0
      vertex 143.6 0 0
    endloop
  endfacet
  facet normal 1 -0 0
    outer loop
      vertex 2 2 20
      vertex 2 38.8 2
      vertex 2 38.8 20
    endloop
  endfacet
  facet normal 1 0 0
    outer loop
      vertex 2 38.8 2
      vertex 2 2 20
      vertex 2 2 2
    endloop
  endfacet
  facet normal -1 0 0
    outer loop
      vertex 70.8 2 2
      vertex 70.8 38.8 20
      vertex 70.8 38.8 2
    endloop
  endfacet
  facet normal -1 -0 0
    outer loop
      vertex 70.8 38.8 20
      vertex 70.8 2 2
      vertex 70.8 2 20
    endloop
  endfacet
  facet normal 0 -1 0
    outer loop
      vertex 2 38.8 2
      vertex 70.8 38.8 20
      vertex 2 38.8 20
    endloop
  endfacet
  facet normal 0 -1 -0
    outer loop
      vertex 70.8 38.8 20
      vertex 2 38.8 2
      vertex 70.8 38.8 2
    endloop
  endfacet
  facet normal -0 0 1
    outer loop
      vertex 2 38.8 2
      vertex 70.8 2 2
      vertex 70.8 38.8 2
    endloop
  endfacet
  facet normal 0 0 1
    outer loop
      vertex 70.8 2 2
      vertex 2 38.8 2
      vertex 2 2 2
    endloop
  endfacet
  facet normal 0 1 -0
    outer loop
      vertex 70.8 2 2
      vertex 2 2 20
      vertex 70.8 2 20
    endloop
  endfacet
  facet normal 0 1 0
    outer loop
      vertex 2 2 20
      vertex 70.8 2 2
      vertex 2 2 2
    endloop
  endfacet
  facet normal 1 -0 0
    outer loop
      vertex 72.8 2 20
      vertex 72.8 38.8 2
      vertex 72.8 38.8 20
    endloop
  endfacet
  facet normal 1 0 0
    outer loop
      vertex 72.8 38.8 2
      vertex 72.8 2 20
      vertex 72.8 2 2
    endloop
  endfacet
  facet normal -1 0 0
    outer loop
      vertex 141.6 2 2
      vertex 141.6 38.8 20
      vertex 141.6 38.8 2
    endloop
  endfacet
  facet normal -1 -0 0
    outer loop
      vertex 141.6 38.8 20
      vertex 141.6 2 2
      vertex 141.6 2 20
    endloop
  endfacet
  facet normal 0 -1 0
    outer loop
      vertex 72.8 38.8 2
      vertex 141.6 38.8 20
      vertex 72.8 38.8 20
    endloop
  endfacet
  facet normal 0 -1 -0
    outer loop
      vertex 141.6 38.8 20
      vertex 72.8 38.8 2
      vertex 141.6 38.8 2
    endloop
  endfacet
  facet normal -0 0 1
    outer loop
      vertex 72.8 38.8 2
      vertex 141.6 2 2
      vertex 141.6 38.8 2
    endloop
  endfacet
  facet normal 0 0 1
    outer loop
      vertex 141.6 2 2
      vertex 72.8 38.8 2
      vertex 72.8 2 2
    endloop
  endfacet
  facet normal 0 1 -0
    outer loop
      vertex 141.6 2 2
      vertex 72.8 2 20
      vertex 141.6 2 20
    endloop
  endfacet
  facet normal 0 1 0
    outer loop
      vertex 72.8 2 20
      vertex 141.6 2 2
      vertex 72.8 2 2
    endloop
  endfacet
  facet normal 1 -0 0
    outer loop
      vertex 2 40.8 20
      vertex 2 97.6 2
      vertex 2 97.6 20
    endloop
  endfacet
  facet normal 1 0 0
    outer loop
      vertex 2 97.6 2
      vertex 2 40.8 20
      vertex 2 40.8 2
    endloop
  endfacet
  facet normal -1 0 0
    outer loop
      vertex 70.8 40.8 2
      vertex 70.8 97.6 20
      vertex 70.8 97.6 2
    endloop
  endfacet
  facet normal -1 -0 0
    outer loop
      vertex 70.8 97.6 20
      vertex 70.8 40.8 2
      vertex 70.8 40.8 20
    endloop
  endfacet
  facet normal -0 0 1
    outer loop
      vertex 2 97.6 2
      vertex 70.8 40.8 2
      vertex 70.8 97.6 2
    endloop
  endfacet
  facet normal 0 0 1
    outer loop
      vertex 70.8 40.8 2
      vertex 2 97.6 2
      vertex 2 40.8 2
    endloop
  endfacet
  facet normal 0 1 -0
    outer loop
      vertex 70.8 40.8 2
      vertex 2 40.8 20
      vertex 70.8 40.8 20
    endloop
  endfacet
  facet normal 0 1 0
    outer loop
      vertex 2 40.8 20
      vertex 70.8 40.8 2
      vertex 2 40.8 2
    endloop
  endfacet
  facet normal 0 -1 0
    outer loop
      vertex 2 97.6 2
      vertex 70.8 97.6 20
      vertex 2 97.6 20
    endloop
  endfacet
  facet normal 0 -1 -0
    outer loop
      vertex 70.8 97.6 20
      vertex 2 97.6 2
      vertex 70.8 97.6 2
    endloop
  endfacet
  facet normal 1 -0 0
    outer loop
      vertex 72.8 40.8 20
      vertex 72.8 97.6 2
      vertex 72.8 97.6 20
    endloop
  endfacet
  facet normal 1 0 0
    outer loop
      vertex 72.8 97.6 2
      vertex 72.8 40.8 20
      vertex 72.8 40.8 2
    endloop
  endfacet
  facet normal -1 0 0
    outer loop
      vertex 141.6 40.8 2
      vertex 141.6 97.6 20
      vertex 141.6 97.6 2
    endloop
  endfacet
  facet normal -1 -0 0
    outer loop
      vertex 141.6 97.6 20
      vertex 141.6 40.8 2
      vertex 141.6 40.8 20
    endloop
  endfacet
  facet normal 0 -1 0
    outer loop
      vertex 72.8 97.6 2
      vertex 141.6 97.6 20
      vertex 72.8 97.6 20
    endloop
  endfacet
  facet normal 0 -1 -0
    outer loop
      vertex 141.6 97.6 20
      vertex 72.8 97.6 2
      vertex 141.6 97.6 2
    endloop
  endfacet
  facet normal -0 0 1
    outer loop
      vertex 72.8 97.6 2
      vertex 141.6 40.8 2
      vertex 141.6 97.6 2
    endloop
  endfacet
  facet normal 0 0 1
    outer loop
      vertex 141.6 40.8 2
      vertex 72.8 97.6 2
      vertex 72.8 40.8 2
    endloop
  endfacet
  facet normal 0 1 -0
    outer loop
      vertex 141.6 40.8 2
      vertex 72.8 40.8 20
      vertex 141.6 40.8 20
    endloop
  endfacet
  facet normal 0 1 0
    outer loop
      vertex 72.8 40.8 20
      vertex 141.6 40.8 2
      vertex 72.8 40.8 2
    endloop
  endfacet
endsolid OpenSCAD_Model
