solid OpenSCAD_Model
  facet normal 1 -0 0
    outer loop
      vertex 141.44 0 12
      vertex 141.44 97.72 0
      vertex 141.44 97.72 12
    endloop
  endfacet
  facet normal 1 0 0
    outer loop
      vertex 141.44 97.72 0
      vertex 141.44 0 12
      vertex 141.44 0 0
    endloop
  endfacet
  facet normal 0.999385 -0.0350795 0
    outer loop
      vertex 141.438 -0.0599899 12
      vertex 141.44 0 0
      vertex 141.44 0 12
    endloop
  endfacet
  facet normal 0.999385 -0.0350795 0
    outer loop
      vertex 141.44 0 0
      vertex 141.438 -0.0599899 12
      vertex 141.438 -0.0599899 0
    endloop
  endfacet
  facet normal -0.529978 0.848012 0
    outer loop
      vertex -0.429999 98.4648 0
      vertex -0.480906 98.433 12
      vertex -0.429999 98.4648 12
    endloop
  endfacet
  facet normal -0.529978 0.848012 0
    outer loop
      vertex -0.480906 98.433 12
      vertex -0.429999 98.4648 0
      vertex -0.480906 98.433 0
    endloop
  endfacet
  facet normal -1 0 0
    outer loop
      vertex -0.86 0 0
      vertex -0.86 97.72 12
      vertex -0.86 97.72 0
    endloop
  endfacet
  facet normal -1 -0 0
    outer loop
      vertex -0.86 97.72 12
      vertex -0.86 0 0
      vertex -0.86 0 12
    endloop
  endfacet
  facet normal 0.0697678 -0.997563 0
    outer loop
      vertex 140.61 -0.859476 0
      vertex 140.67 -0.855289 12
      vertex 140.61 -0.859476 12
    endloop
  endfacet
  facet normal 0.0697678 -0.997563 0
    outer loop
      vertex 140.67 -0.855289 12
      vertex 140.61 -0.859476 0
      vertex 140.67 -0.855289 0
    endloop
  endfacet
  facet normal 0 0 1
    outer loop
      vertex 140.58 97.72 12
      vertex 141.44 97.72 12
      vertex 141.438 97.78 12
    endloop
  endfacet
  facet normal 0 0 1
    outer loop
      vertex 141.44 97.72 12
      vertex 140.58 97.72 12
      vertex 141.44 0 12
    endloop
  endfacet
  facet normal 0 0 1
    outer loop
      vertex 140.58 97.72 12
      vertex 141.438 97.78 12
      vertex 141.432 97.8397 12
    endloop
  endfacet
  facet normal 0 0 1
    outer loop
      vertex 140.58 0 12
      vertex 141.44 0 12
      vertex 140.58 97.72 12
    endloop
  endfacet
  facet normal 0 0 1
    outer loop
      vertex 140.58 97.72 12
      vertex 141.432 97.8397 12
      vertex 141.421 97.8988 12
    endloop
  endfacet
  facet normal 0 0 1
    outer loop
      vertex 141.44 0 12
      vertex 140.58 0 12
      vertex 141.438 -0.0599899 12
    endloop
  endfacet
  facet normal 0 0 1
    outer loop
      vertex 140.58 97.72 12
      vertex 141.421 97.8988 12
      vertex 141.407 97.957 12
    endloop
  endfacet
  facet normal 0 0 1
    outer loop
      vertex 141.438 -0.0599899 12
      vertex 140.58 0 12
      vertex 141.432 -0.119688 12
    endloop
  endfacet
  facet normal 0 0 1
    outer loop
      vertex 140.58 97.72 12
      vertex 141.407 97.957 12
      vertex 141.388 98.0141 12
    endloop
  endfacet
  facet normal 0 0 1
    outer loop
      vertex 141.432 -0.119688 12
      vertex 140.58 0 12
      vertex 141.421 -0.178803 12
    endloop
  endfacet
  facet normal 0 0 1
    outer loop
      vertex 140.58 97.72 12
      vertex 141.388 98.0141 12
      vertex 141.366 98.0698 12
    endloop
  endfacet
  facet normal 0 0 1
    outer loop
      vertex 141.421 -0.178803 12
      vertex 140.58 0 12
      vertex 141.407 -0.237047 12
    endloop
  endfacet
  facet normal 0 0 1
    outer loop
      vertex 140.58 97.72 12
      vertex 141.366 98.0698 12
      vertex 141.339 98.1237 12
    endloop
  endfacet
  facet normal 0 0 1
    outer loop
      vertex 141.407 -0.237047 12
      vertex 140.58 0 12
      vertex 141.388 -0.294137 12
    endloop
  endfacet
  facet normal 0 0 1
    outer loop
      vertex 140.58 97.72 12
      vertex 141.339 98.1237 12
      vertex 141.309 98.1757 12
    endloop
  endfacet
  facet normal 0 0 1
    outer loop
      vertex 141.388 -0.294137 12
      vertex 140.58 0 12
      vertex 141.366 -0.349793 12
    endloop
  endfacet
  facet normal 0 0 1
    outer loop
      vertex 140.58 97.72 12
      vertex 141.309 98.1757 12
      vertex 141.276 98.2255 12
    endloop
  endfacet
  facet normal 0 0 1
    outer loop
      vertex 141.366 -0.349793 12
      vertex 140.58 0 12
      vertex 141.339 -0.403745 12
    endloop
  endfacet
  facet normal 0 0 1
    outer loop
      vertex 140.58 97.72 12
      vertex 141.276 98.2255 12
      vertex 141.239 98.2728 12
    endloop
  endfacet
  facet normal 0 0 1
    outer loop
      vertex 141.339 -0.403745 12
      vertex 140.58 0 12
      vertex 141.309 -0.45573 12
    endloop
  endfacet
  facet normal 0 0 1
    outer loop
      vertex 140.58 97.72 12
      vertex 141.239 98.2728 12
      vertex 141.199 98.3174 12
    endloop
  endfacet
  facet normal 0 0 1
    outer loop
      vertex 141.309 -0.45573 12
      vertex 140.58 0 12
      vertex 141.276 -0.505495 12
    endloop
  endfacet
  facet normal 0 0 1
    outer loop
      vertex 140.58 97.72 12
      vertex 141.199 98.3174 12
      vertex 141.155 98.3591 12
    endloop
  endfacet
  facet normal 0 0 1
    outer loop
      vertex 141.276 -0.505495 12
      vertex 140.58 0 12
      vertex 141.239 -0.552797 12
    endloop
  endfacet
  facet normal 0 0 1
    outer loop
      vertex 140.58 97.72 12
      vertex 141.155 98.3591 12
      vertex 141.109 98.3977 12
    endloop
  endfacet
  facet normal 0 0 1
    outer loop
      vertex 141.239 -0.552797 12
      vertex 140.58 0 12
      vertex 141.199 -0.597405 12
    endloop
  endfacet
  facet normal 0 0 1
    outer loop
      vertex 140.58 97.72 12
      vertex 141.109 98.3977 12
      vertex 141.061 98.433 12
    endloop
  endfacet
  facet normal 0 0 1
    outer loop
      vertex 141.199 -0.597405 12
      vertex 140.58 0 12
      vertex 141.155 -0.639104 12
    endloop
  endfacet
  facet normal 0 0 1
    outer loop
      vertex 140.58 97.72 12
      vertex 141.061 98.433 12
      vertex 141.01 98.4648 12
    endloop
  endfacet
  facet normal 0 0 1
    outer loop
      vertex 141.155 -0.639104 12
      vertex 140.58 0 12
      vertex 141.109 -0.677689 12
    endloop
  endfacet
  facet normal 0 0 1
    outer loop
      vertex 140.58 97.72 12
      vertex 141.01 98.4648 12
      vertex 140.957 98.493 12
    endloop
  endfacet
  facet normal 0 0 1
    outer loop
      vertex 141.109 -0.677689 12
      vertex 140.58 0 12
      vertex 141.061 -0.712972 12
    endloop
  endfacet
  facet normal 0 0 1
    outer loop
      vertex 140.58 97.72 12
      vertex 140.957 98.493 12
      vertex 140.902 98.5174 12
    endloop
  endfacet
  facet normal 0 0 1
    outer loop
      vertex 141.061 -0.712972 12
      vertex 140.58 0 12
      vertex 141.01 -0.744781 12
    endloop
  endfacet
  facet normal 0 0 1
    outer loop
      vertex 140.58 97.72 12
      vertex 140.902 98.5174 12
      vertex 140.846 98.5379 12
    endloop
  endfacet
  facet normal 0 0 1
    outer loop
      vertex 141.01 -0.744781 12
      vertex 140.58 0 12
      vertex 140.957 -0.772963 12
    endloop
  endfacet
  facet normal 0 0 1
    outer loop
      vertex 140.58 97.72 12
      vertex 140.846 98.5379 12
      vertex 140.788 98.5545 12
    endloop
  endfacet
  facet normal 0 0 1
    outer loop
      vertex 140.957 -0.772963 12
      vertex 140.58 0 12
      vertex 140.902 -0.797378 12
    endloop
  endfacet
  facet normal 0 0 1
    outer loop
      vertex 140.58 97.72 12
      vertex 140.788 98.5545 12
      vertex 140.729 98.5669 12
    endloop
  endfacet
  facet normal 0 0 1
    outer loop
      vertex 140.902 -0.797378 12
      vertex 140.58 0 12
      vertex 140.846 -0.817908 12
    endloop
  endfacet
  facet normal 0 0 1
    outer loop
      vertex 140.58 97.72 12
      vertex 140.729 98.5669 12
      vertex 140.67 98.5753 12
    endloop
  endfacet
  facet normal 0 0 1
    outer loop
      vertex 140.846 -0.817908 12
      vertex 140.58 0 12
      vertex 140.788 -0.834454 12
    endloop
  endfacet
  facet normal 0 0 1
    outer loop
      vertex 140.58 97.72 12
      vertex 140.67 98.5753 12
      vertex 140.61 98.5795 12
    endloop
  endfacet
  facet normal 0 0 1
    outer loop
      vertex 140.788 -0.834454 12
      vertex 140.58 0 12
      vertex 140.729 -0.846934 12
    endloop
  endfacet
  facet normal 0 0 1
    outer loop
      vertex 140.729 -0.846934 12
      vertex 140.58 0 12
      vertex 140.67 -0.855289 12
    endloop
  endfacet
  facet normal 0 0 1
    outer loop
      vertex 140.61 98.5795 12
      vertex 0 97.72 12
      vertex 140.58 97.72 12
    endloop
  endfacet
  facet normal -0 0 1
    outer loop
      vertex -0.0898943 98.5753 12
      vertex 0 97.72 12
      vertex -0.0300131 98.5795 12
    endloop
  endfacet
  facet normal -0 0 1
    outer loop
      vertex -0.0300131 98.5795 12
      vertex 0 97.72 12
      vertex 140.61 98.5795 12
    endloop
  endfacet
  facet normal 0 0 1
    outer loop
      vertex 140.67 -0.855289 12
      vertex 140.58 0 12
      vertex 140.61 -0.859476 12
    endloop
  endfacet
  facet normal -0 0 1
    outer loop
      vertex 0 0 12
      vertex 140.61 -0.859476 12
      vertex 140.58 0 12
    endloop
  endfacet
  facet normal 0 0 1
    outer loop
      vertex 0 0 12
      vertex -0.0300131 -0.859476 12
      vertex 140.61 -0.859476 12
    endloop
  endfacet
  facet normal 0 0 1
    outer loop
      vertex 0 97.72 12
      vertex -0.86 97.72 12
      vertex 0 0 12
    endloop
  endfacet
  facet normal -0 0 1
    outer loop
      vertex -0.149337 98.5669 12
      vertex 0 97.72 12
      vertex -0.0898943 98.5753 12
    endloop
  endfacet
  facet normal 0 0 1
    outer loop
      vertex -0.86 0 12
      vertex 0 0 12
      vertex -0.86 97.72 12
    endloop
  endfacet
  facet normal -0 0 1
    outer loop
      vertex -0.208053 98.5545 12
      vertex 0 97.72 12
      vertex -0.149337 98.5669 12
    endloop
  endfacet
  facet normal 0 -0 1
    outer loop
      vertex -0.857904 -0.0599899 12
      vertex 0 0 12
      vertex -0.86 0 12
    endloop
  endfacet
  facet normal -0 0 1
    outer loop
      vertex -0.265754 98.5379 12
      vertex 0 97.72 12
      vertex -0.208053 98.5545 12
    endloop
  endfacet
  facet normal 0 0 1
    outer loop
      vertex 0 0 12
      vertex -0.0898943 -0.855289 12
      vertex -0.0300131 -0.859476 12
    endloop
  endfacet
  facet normal -0 0 1
    outer loop
      vertex -0.322161 98.5174 12
      vertex 0 97.72 12
      vertex -0.265754 98.5379 12
    endloop
  endfacet
  facet normal 0 0 1
    outer loop
      vertex 0 0 12
      vertex -0.149337 -0.846934 12
      vertex -0.0898943 -0.855289 12
    endloop
  endfacet
  facet normal -0 0 1
    outer loop
      vertex -0.376999 98.493 12
      vertex 0 97.72 12
      vertex -0.322161 98.5174 12
    endloop
  endfacet
  facet normal 0 0 1
    outer loop
      vertex 0 0 12
      vertex -0.208053 -0.834454 12
      vertex -0.149337 -0.846934 12
    endloop
  endfacet
  facet normal -0 0 1
    outer loop
      vertex -0.429999 98.4648 12
      vertex 0 97.72 12
      vertex -0.376999 98.493 12
    endloop
  endfacet
  facet normal 0 0 1
    outer loop
      vertex 0 0 12
      vertex -0.265754 -0.817908 12
      vertex -0.208053 -0.834454 12
    endloop
  endfacet
  facet normal -0 0 1
    outer loop
      vertex -0.480906 98.433 12
      vertex 0 97.72 12
      vertex -0.429999 98.4648 12
    endloop
  endfacet
  facet normal 0 0 1
    outer loop
      vertex 0 0 12
      vertex -0.322161 -0.797378 12
      vertex -0.265754 -0.817908 12
    endloop
  endfacet
  facet normal -0 0 1
    outer loop
      vertex -0.529469 98.3977 12
      vertex 0 97.72 12
      vertex -0.480906 98.433 12
    endloop
  endfacet
  facet normal 0 0 1
    outer loop
      vertex 0 0 12
      vertex -0.376999 -0.772963 12
      vertex -0.322161 -0.797378 12
    endloop
  endfacet
  facet normal -0 0 1
    outer loop
      vertex -0.575452 98.3591 12
      vertex 0 97.72 12
      vertex -0.529469 98.3977 12
    endloop
  endfacet
  facet normal 0 0 1
    outer loop
      vertex 0 0 12
      vertex -0.429999 -0.744781 12
      vertex -0.376999 -0.772963 12
    endloop
  endfacet
  facet normal -0 0 1
    outer loop
      vertex -0.618631 98.3174 12
      vertex 0 97.72 12
      vertex -0.575452 98.3591 12
    endloop
  endfacet
  facet normal 0 0 1
    outer loop
      vertex 0 0 12
      vertex -0.480906 -0.712972 12
      vertex -0.429999 -0.744781 12
    endloop
  endfacet
  facet normal -0 0 1
    outer loop
      vertex -0.658798 98.2728 12
      vertex 0 97.72 12
      vertex -0.618631 98.3174 12
    endloop
  endfacet
  facet normal 0 0 1
    outer loop
      vertex 0 0 12
      vertex -0.529469 -0.677689 12
      vertex -0.480906 -0.712972 12
    endloop
  endfacet
  facet normal -0 0 1
    outer loop
      vertex -0.695754 98.2255 12
      vertex 0 97.72 12
      vertex -0.658798 98.2728 12
    endloop
  endfacet
  facet normal 0 0 1
    outer loop
      vertex 0 0 12
      vertex -0.575452 -0.639104 12
      vertex -0.529469 -0.677689 12
    endloop
  endfacet
  facet normal -0 0 1
    outer loop
      vertex -0.729321 98.1757 12
      vertex 0 97.72 12
      vertex -0.695754 98.2255 12
    endloop
  endfacet
  facet normal 0 0 1
    outer loop
      vertex 0 0 12
      vertex -0.618631 -0.597405 12
      vertex -0.575452 -0.639104 12
    endloop
  endfacet
  facet normal -0 0 1
    outer loop
      vertex -0.759335 98.1237 12
      vertex 0 97.72 12
      vertex -0.729321 98.1757 12
    endloop
  endfacet
  facet normal 0 0 1
    outer loop
      vertex 0 0 12
      vertex -0.658798 -0.552797 12
      vertex -0.618631 -0.597405 12
    endloop
  endfacet
  facet normal -0 0 1
    outer loop
      vertex -0.785648 98.0698 12
      vertex 0 97.72 12
      vertex -0.759335 98.1237 12
    endloop
  endfacet
  facet normal 0 0 1
    outer loop
      vertex 0 0 12
      vertex -0.695754 -0.505495 12
      vertex -0.658798 -0.552797 12
    endloop
  endfacet
  facet normal -0 0 1
    outer loop
      vertex -0.808135 98.0141 12
      vertex 0 97.72 12
      vertex -0.785648 98.0698 12
    endloop
  endfacet
  facet normal 0 0 1
    outer loop
      vertex 0 0 12
      vertex -0.729321 -0.45573 12
      vertex -0.695754 -0.505495 12
    endloop
  endfacet
  facet normal -0 0 1
    outer loop
      vertex -0.826685 97.957 12
      vertex 0 97.72 12
      vertex -0.808135 98.0141 12
    endloop
  endfacet
  facet normal 0 0 1
    outer loop
      vertex 0 0 12
      vertex -0.759335 -0.403745 12
      vertex -0.729321 -0.45573 12
    endloop
  endfacet
  facet normal -0 0 1
    outer loop
      vertex -0.841207 97.8988 12
      vertex 0 97.72 12
      vertex -0.826685 97.957 12
    endloop
  endfacet
  facet normal 0 0 1
    outer loop
      vertex 0 0 12
      vertex -0.785648 -0.349793 12
      vertex -0.759335 -0.403745 12
    endloop
  endfacet
  facet normal -0 0 1
    outer loop
      vertex -0.85163 97.8397 12
      vertex 0 97.72 12
      vertex -0.841207 97.8988 12
    endloop
  endfacet
  facet normal 0 0 1
    outer loop
      vertex 0 0 12
      vertex -0.808135 -0.294137 12
      vertex -0.785648 -0.349793 12
    endloop
  endfacet
  facet normal -0 0 1
    outer loop
      vertex -0.857904 97.78 12
      vertex 0 97.72 12
      vertex -0.85163 97.8397 12
    endloop
  endfacet
  facet normal 0 0 1
    outer loop
      vertex 0 0 12
      vertex -0.826685 -0.237047 12
      vertex -0.808135 -0.294137 12
    endloop
  endfacet
  facet normal 0 0 1
    outer loop
      vertex 0 97.72 12
      vertex -0.857904 97.78 12
      vertex -0.86 97.72 12
    endloop
  endfacet
  facet normal 0 0 1
    outer loop
      vertex 0 0 12
      vertex -0.841207 -0.178803 12
      vertex -0.826685 -0.237047 12
    endloop
  endfacet
  facet normal 0 0 1
    outer loop
      vertex 0 0 12
      vertex -0.85163 -0.119688 12
      vertex -0.841207 -0.178803 12
    endloop
  endfacet
  facet normal 0 0 1
    outer loop
      vertex 0 0 12
      vertex -0.857904 -0.0599899 12
      vertex -0.85163 -0.119688 12
    endloop
  endfacet
  facet normal 0 -1 0
    outer loop
      vertex -0.0300131 -0.859476 0
      vertex 140.61 -0.859476 12
      vertex -0.0300131 -0.859476 12
    endloop
  endfacet
  facet normal 0 -1 -0
    outer loop
      vertex 140.61 -0.859476 12
      vertex -0.0300131 -0.859476 0
      vertex 140.61 -0.859476 0
    endloop
  endfacet
  facet normal 0.74318 -0.669092 0
    outer loop
      vertex 141.199 -0.597405 12
      vertex 141.239 -0.552797 0
      vertex 141.239 -0.552797 12
    endloop
  endfacet
  facet normal 0.74318 -0.669092 0
    outer loop
      vertex 141.239 -0.552797 0
      vertex 141.199 -0.597405 12
      vertex 141.199 -0.597405 0
    endloop
  endfacet
  facet normal 0 1 -0
    outer loop
      vertex 140.61 98.5795 0
      vertex -0.0300131 98.5795 12
      vertex 140.61 98.5795 12
    endloop
  endfacet
  facet normal 0 1 0
    outer loop
      vertex -0.0300131 98.5795 12
      vertex 140.61 98.5795 0
      vertex -0.0300131 98.5795 0
    endloop
  endfacet
  facet normal 0.469546 0.882908 -0
    outer loop
      vertex 141.01 98.4648 0
      vertex 140.957 98.493 12
      vertex 141.01 98.4648 12
    endloop
  endfacet
  facet normal 0.469546 0.882908 0
    outer loop
      vertex 140.957 98.493 12
      vertex 141.01 98.4648 0
      vertex 140.957 98.493 0
    endloop
  endfacet
  facet normal 0.469521 -0.882921 0
    outer loop
      vertex 140.957 -0.772963 0
      vertex 141.01 -0.744781 12
      vertex 140.957 -0.772963 12
    endloop
  endfacet
  facet normal 0.469521 -0.882921 0
    outer loop
      vertex 141.01 -0.744781 12
      vertex 140.957 -0.772963 0
      vertex 141.01 -0.744781 0
    endloop
  endfacet
  facet normal 0.642734 -0.766089 0
    outer loop
      vertex 141.109 -0.677689 0
      vertex 141.155 -0.639104 12
      vertex 141.109 -0.677689 12
    endloop
  endfacet
  facet normal 0.642734 -0.766089 0
    outer loop
      vertex 141.155 -0.639104 12
      vertex 141.109 -0.677689 0
      vertex 141.155 -0.639104 0
    endloop
  endfacet
  facet normal -0.694663 -0.719336 0
    outer loop
      vertex -0.618631 -0.597405 0
      vertex -0.575452 -0.639104 12
      vertex -0.618631 -0.597405 12
    endloop
  endfacet
  facet normal -0.694663 -0.719336 -0
    outer loop
      vertex -0.575452 -0.639104 12
      vertex -0.618631 -0.597405 0
      vertex -0.575452 -0.639104 0
    endloop
  endfacet
  facet normal -0.207917 -0.978147 0
    outer loop
      vertex -0.208053 -0.834454 0
      vertex -0.149337 -0.846934 12
      vertex -0.208053 -0.834454 12
    endloop
  endfacet
  facet normal -0.207917 -0.978147 -0
    outer loop
      vertex -0.149337 -0.846934 12
      vertex -0.208053 -0.834454 0
      vertex -0.149337 -0.846934 0
    endloop
  endfacet
  facet normal 0.984813 -0.173618 0
    outer loop
      vertex 141.421 -0.178803 12
      vertex 141.432 -0.119688 0
      vertex 141.432 -0.119688 12
    endloop
  endfacet
  facet normal 0.984813 -0.173618 0
    outer loop
      vertex 141.432 -0.119688 0
      vertex 141.421 -0.178803 12
      vertex 141.421 -0.178803 0
    endloop
  endfacet
  facet normal -0.866029 0.499994 0
    outer loop
      vertex -0.759335 98.1237 0
      vertex -0.729321 98.1757 12
      vertex -0.729321 98.1757 0
    endloop
  endfacet
  facet normal -0.866029 0.499994 0
    outer loop
      vertex -0.729321 98.1757 12
      vertex -0.759335 98.1237 0
      vertex -0.759335 98.1237 12
    endloop
  endfacet
  facet normal -0.27556 0.961284 0
    outer loop
      vertex -0.208053 98.5545 0
      vertex -0.265754 98.5379 12
      vertex -0.208053 98.5545 12
    endloop
  endfacet
  facet normal -0.27556 0.961284 0
    outer loop
      vertex -0.265754 98.5379 12
      vertex -0.208053 98.5545 0
      vertex -0.265754 98.5379 0
    endloop
  endfacet
  facet normal 0.0697836 0.997562 -0
    outer loop
      vertex 140.67 98.5753 0
      vertex 140.61 98.5795 12
      vertex 140.67 98.5753 12
    endloop
  endfacet
  facet normal 0.0697836 0.997562 0
    outer loop
      vertex 140.61 98.5795 12
      vertex 140.67 98.5753 0
      vertex 140.61 98.5795 0
    endloop
  endfacet
  facet normal 0.829017 -0.559223 0
    outer loop
      vertex 141.276 -0.505495 12
      vertex 141.309 -0.45573 0
      vertex 141.309 -0.45573 12
    endloop
  endfacet
  facet normal 0.829017 -0.559223 0
    outer loop
      vertex 141.309 -0.45573 0
      vertex 141.276 -0.505495 12
      vertex 141.276 -0.505495 0
    endloop
  endfacet
  facet normal 0.275667 -0.961253 0
    outer loop
      vertex 140.788 -0.834454 0
      vertex 140.846 -0.817908 12
      vertex 140.788 -0.834454 12
    endloop
  endfacet
  facet normal 0.275667 -0.961253 0
    outer loop
      vertex 140.846 -0.817908 12
      vertex 140.788 -0.834454 0
      vertex 140.846 -0.817908 0
    endloop
  endfacet
  facet normal 0.341998 -0.939701 0
    outer loop
      vertex 140.846 -0.817908 0
      vertex 140.902 -0.797378 12
      vertex 140.846 -0.817908 12
    endloop
  endfacet
  facet normal 0.341998 -0.939701 0
    outer loop
      vertex 140.902 -0.797378 12
      vertex 140.846 -0.817908 0
      vertex 140.902 -0.797378 0
    endloop
  endfacet
  facet normal 0.694639 -0.719359 0
    outer loop
      vertex 141.155 -0.639104 0
      vertex 141.199 -0.597405 12
      vertex 141.155 -0.639104 12
    endloop
  endfacet
  facet normal 0.694639 -0.719359 0
    outer loop
      vertex 141.199 -0.597405 12
      vertex 141.155 -0.639104 0
      vertex 141.199 -0.597405 0
    endloop
  endfacet
  facet normal -0.788017 -0.615654 0
    outer loop
      vertex -0.658798 -0.552797 0
      vertex -0.695754 -0.505495 12
      vertex -0.695754 -0.505495 0
    endloop
  endfacet
  facet normal -0.788017 -0.615654 0
    outer loop
      vertex -0.695754 -0.505495 12
      vertex -0.658798 -0.552797 0
      vertex -0.658798 -0.552797 12
    endloop
  endfacet
  facet normal 0.994527 -0.104476 0
    outer loop
      vertex 141.432 -0.119688 12
      vertex 141.438 -0.0599899 0
      vertex 141.438 -0.0599899 12
    endloop
  endfacet
  facet normal 0.994527 -0.104476 0
    outer loop
      vertex 141.438 -0.0599899 0
      vertex 141.432 -0.119688 12
      vertex 141.432 -0.119688 0
    endloop
  endfacet
  facet normal -0.587733 0.809055 0
    outer loop
      vertex -0.480906 98.433 0
      vertex -0.529469 98.3977 12
      vertex -0.480906 98.433 12
    endloop
  endfacet
  facet normal -0.587733 0.809055 0
    outer loop
      vertex -0.529469 98.3977 12
      vertex -0.480906 98.433 0
      vertex -0.529469 98.3977 0
    endloop
  endfacet
  facet normal -0.406716 0.913555 0
    outer loop
      vertex -0.322161 98.5174 0
      vertex -0.376999 98.493 12
      vertex -0.322161 98.5174 12
    endloop
  endfacet
  facet normal -0.406716 0.913555 0
    outer loop
      vertex -0.376999 98.493 12
      vertex -0.322161 98.5174 0
      vertex -0.376999 98.493 0
    endloop
  endfacet
  facet normal 0.898832 0.438293 0
    outer loop
      vertex 141.366 98.0698 12
      vertex 141.339 98.1237 0
      vertex 141.339 98.1237 12
    endloop
  endfacet
  facet normal 0.898832 0.438293 0
    outer loop
      vertex 141.339 98.1237 0
      vertex 141.366 98.0698 12
      vertex 141.366 98.0698 0
    endloop
  endfacet
  facet normal 0.999385 0.0350795 0
    outer loop
      vertex 141.44 97.72 12
      vertex 141.438 97.78 0
      vertex 141.438 97.78 12
    endloop
  endfacet
  facet normal 0.999385 0.0350795 0
    outer loop
      vertex 141.438 97.78 0
      vertex 141.44 97.72 12
      vertex 141.44 97.72 0
    endloop
  endfacet
  facet normal 0.406704 0.91356 -0
    outer loop
      vertex 140.957 98.493 0
      vertex 140.902 98.5174 12
      vertex 140.957 98.493 12
    endloop
  endfacet
  facet normal 0.406704 0.91356 0
    outer loop
      vertex 140.902 98.5174 12
      vertex 140.957 98.493 0
      vertex 140.902 98.5174 0
    endloop
  endfacet
  facet normal -0.139174 0.990268 0
    outer loop
      vertex -0.0898943 98.5753 0
      vertex -0.149337 98.5669 12
      vertex -0.0898943 98.5753 12
    endloop
  endfacet
  facet normal -0.139174 0.990268 0
    outer loop
      vertex -0.149337 98.5669 12
      vertex -0.0898943 98.5753 0
      vertex -0.149337 98.5669 0
    endloop
  endfacet
  facet normal -0.069777 0.997563 0
    outer loop
      vertex -0.0300131 98.5795 0
      vertex -0.0898943 98.5753 12
      vertex -0.0300131 98.5795 12
    endloop
  endfacet
  facet normal -0.069777 0.997563 0
    outer loop
      vertex -0.0898943 98.5753 12
      vertex -0.0300131 98.5795 0
      vertex -0.0898943 98.5753 0
    endloop
  endfacet
  facet normal -0.207932 0.978143 0
    outer loop
      vertex -0.149337 98.5669 0
      vertex -0.208053 98.5545 12
      vertex -0.149337 98.5669 12
    endloop
  endfacet
  facet normal -0.207932 0.978143 0
    outer loop
      vertex -0.208053 98.5545 12
      vertex -0.149337 98.5669 0
      vertex -0.208053 98.5545 0
    endloop
  endfacet
  facet normal -0.342024 0.939691 0
    outer loop
      vertex -0.265754 98.5379 0
      vertex -0.322161 98.5174 12
      vertex -0.265754 98.5379 12
    endloop
  endfacet
  facet normal -0.342024 0.939691 0
    outer loop
      vertex -0.322161 98.5174 12
      vertex -0.265754 98.5379 0
      vertex -0.322161 98.5174 0
    endloop
  endfacet
  facet normal -0.469499 0.882933 0
    outer loop
      vertex -0.376999 98.493 0
      vertex -0.429999 98.4648 12
      vertex -0.376999 98.493 12
    endloop
  endfacet
  facet normal -0.469499 0.882933 0
    outer loop
      vertex -0.429999 98.4648 12
      vertex -0.376999 98.493 0
      vertex -0.429999 98.4648 0
    endloop
  endfacet
  facet normal 0.970278 -0.241994 0
    outer loop
      vertex 141.407 -0.237047 12
      vertex 141.421 -0.178803 0
      vertex 141.421 -0.178803 12
    endloop
  endfacet
  facet normal 0.970278 -0.241994 0
    outer loop
      vertex 141.421 -0.178803 0
      vertex 141.407 -0.237047 12
      vertex 141.407 -0.237047 0
    endloop
  endfacet
  facet normal 0.788009 -0.615664 0
    outer loop
      vertex 141.239 -0.552797 12
      vertex 141.276 -0.505495 0
      vertex 141.276 -0.505495 12
    endloop
  endfacet
  facet normal 0.788009 -0.615664 0
    outer loop
      vertex 141.276 -0.505495 0
      vertex 141.239 -0.552797 12
      vertex 141.239 -0.552797 0
    endloop
  endfacet
  facet normal 0.898844 -0.438268 0
    outer loop
      vertex 141.339 -0.403745 12
      vertex 141.366 -0.349793 0
      vertex 141.366 -0.349793 12
    endloop
  endfacet
  facet normal 0.898844 -0.438268 0
    outer loop
      vertex 141.366 -0.349793 0
      vertex 141.339 -0.403745 12
      vertex 141.339 -0.403745 0
    endloop
  endfacet
  facet normal 0.207917 -0.978147 0
    outer loop
      vertex 140.729 -0.846934 0
      vertex 140.788 -0.834454 12
      vertex 140.729 -0.846934 12
    endloop
  endfacet
  facet normal 0.207917 -0.978147 0
    outer loop
      vertex 140.788 -0.834454 12
      vertex 140.729 -0.846934 0
      vertex 140.788 -0.834454 0
    endloop
  endfacet
  facet normal 0.587861 -0.808962 0
    outer loop
      vertex 141.061 -0.712972 0
      vertex 141.109 -0.677689 12
      vertex 141.061 -0.712972 12
    endloop
  endfacet
  facet normal 0.587861 -0.808962 0
    outer loop
      vertex 141.109 -0.677689 12
      vertex 141.061 -0.712972 0
      vertex 141.109 -0.677689 0
    endloop
  endfacet
  facet normal -0.898794 -0.438371 0
    outer loop
      vertex -0.759335 -0.403745 0
      vertex -0.785648 -0.349793 12
      vertex -0.785648 -0.349793 0
    endloop
  endfacet
  facet normal -0.898794 -0.438371 0
    outer loop
      vertex -0.785648 -0.349793 12
      vertex -0.759335 -0.403745 0
      vertex -0.759335 -0.403745 12
    endloop
  endfacet
  facet normal -0.829039 -0.559191 0
    outer loop
      vertex -0.695754 -0.505495 0
      vertex -0.729321 -0.45573 12
      vertex -0.729321 -0.45573 0
    endloop
  endfacet
  facet normal -0.829039 -0.559191 0
    outer loop
      vertex -0.729321 -0.45573 12
      vertex -0.695754 -0.505495 0
      vertex -0.695754 -0.505495 12
    endloop
  endfacet
  facet normal -0.970297 -0.241919 0
    outer loop
      vertex -0.826685 -0.237047 0
      vertex -0.841207 -0.178803 12
      vertex -0.841207 -0.178803 0
    endloop
  endfacet
  facet normal -0.970297 -0.241919 0
    outer loop
      vertex -0.841207 -0.178803 12
      vertex -0.826685 -0.237047 0
      vertex -0.826685 -0.237047 12
    endloop
  endfacet
  facet normal -0.275634 -0.961263 0
    outer loop
      vertex -0.265754 -0.817908 0
      vertex -0.208053 -0.834454 12
      vertex -0.265754 -0.817908 12
    endloop
  endfacet
  facet normal -0.275634 -0.961263 -0
    outer loop
      vertex -0.208053 -0.834454 12
      vertex -0.265754 -0.817908 0
      vertex -0.208053 -0.834454 0
    endloop
  endfacet
  facet normal -0.587785 -0.809017 0
    outer loop
      vertex -0.529469 -0.677689 0
      vertex -0.480906 -0.712972 12
      vertex -0.529469 -0.677689 12
    endloop
  endfacet
  facet normal -0.587785 -0.809017 -0
    outer loop
      vertex -0.480906 -0.712972 12
      vertex -0.529469 -0.677689 0
      vertex -0.480906 -0.712972 0
    endloop
  endfacet
  facet normal -0.994523 0.10452 0
    outer loop
      vertex -0.857904 97.78 0
      vertex -0.85163 97.8397 12
      vertex -0.85163 97.8397 0
    endloop
  endfacet
  facet normal -0.994523 0.10452 0
    outer loop
      vertex -0.85163 97.8397 12
      vertex -0.857904 97.78 0
      vertex -0.857904 97.78 12
    endloop
  endfacet
  facet normal -0.984806 0.173657 0
    outer loop
      vertex -0.85163 97.8397 0
      vertex -0.841207 97.8988 12
      vertex -0.841207 97.8988 0
    endloop
  endfacet
  facet normal -0.984806 0.173657 0
    outer loop
      vertex -0.841207 97.8988 12
      vertex -0.85163 97.8397 0
      vertex -0.85163 97.8397 12
    endloop
  endfacet
  facet normal -0.898782 0.438396 0
    outer loop
      vertex -0.785648 98.0698 0
      vertex -0.759335 98.1237 12
      vertex -0.759335 98.1237 0
    endloop
  endfacet
  facet normal -0.898782 0.438396 0
    outer loop
      vertex -0.759335 98.1237 12
      vertex -0.785648 98.0698 0
      vertex -0.785648 98.0698 12
    endloop
  endfacet
  facet normal 0.984812 0.173626 0
    outer loop
      vertex 141.432 97.8397 12
      vertex 141.421 97.8988 0
      vertex 141.421 97.8988 12
    endloop
  endfacet
  facet normal 0.984812 0.173626 0
    outer loop
      vertex 141.421 97.8988 0
      vertex 141.432 97.8397 12
      vertex 141.432 97.8397 0
    endloop
  endfacet
  facet normal 0.927156 0.374675 0
    outer loop
      vertex 141.388 98.0141 12
      vertex 141.366 98.0698 0
      vertex 141.366 98.0698 12
    endloop
  endfacet
  facet normal 0.927156 0.374675 0
    outer loop
      vertex 141.366 98.0698 0
      vertex 141.388 98.0141 12
      vertex 141.388 98.0141 0
    endloop
  endfacet
  facet normal 0.994528 0.104473 0
    outer loop
      vertex 141.438 97.78 12
      vertex 141.432 97.8397 0
      vertex 141.432 97.8397 12
    endloop
  endfacet
  facet normal 0.994528 0.104473 0
    outer loop
      vertex 141.432 97.8397 0
      vertex 141.438 97.78 12
      vertex 141.438 97.78 0
    endloop
  endfacet
  facet normal 0.642781 0.76605 -0
    outer loop
      vertex 141.155 98.3591 0
      vertex 141.109 98.3977 12
      vertex 141.155 98.3591 12
    endloop
  endfacet
  facet normal 0.642781 0.76605 0
    outer loop
      vertex 141.109 98.3977 12
      vertex 141.155 98.3591 0
      vertex 141.109 98.3977 0
    endloop
  endfacet
  facet normal 0.694606 0.719391 -0
    outer loop
      vertex 141.199 98.3174 0
      vertex 141.155 98.3591 12
      vertex 141.199 98.3174 12
    endloop
  endfacet
  facet normal 0.694606 0.719391 0
    outer loop
      vertex 141.155 98.3591 12
      vertex 141.199 98.3174 0
      vertex 141.155 98.3591 0
    endloop
  endfacet
  facet normal 0.866029 0.499994 0
    outer loop
      vertex 141.339 98.1237 12
      vertex 141.309 98.1757 0
      vertex 141.309 98.1757 12
    endloop
  endfacet
  facet normal 0.866029 0.499994 0
    outer loop
      vertex 141.309 98.1757 0
      vertex 141.339 98.1237 12
      vertex 141.339 98.1237 0
    endloop
  endfacet
  facet normal 0.788009 0.615664 0
    outer loop
      vertex 141.276 98.2255 12
      vertex 141.239 98.2728 0
      vertex 141.239 98.2728 12
    endloop
  endfacet
  facet normal 0.788009 0.615664 0
    outer loop
      vertex 141.239 98.2728 0
      vertex 141.276 98.2255 12
      vertex 141.276 98.2255 0
    endloop
  endfacet
  facet normal 0.829027 0.559209 0
    outer loop
      vertex 141.309 98.1757 12
      vertex 141.276 98.2255 0
      vertex 141.276 98.2255 12
    endloop
  endfacet
  facet normal 0.829027 0.559209 0
    outer loop
      vertex 141.276 98.2255 0
      vertex 141.309 98.1757 12
      vertex 141.309 98.1757 0
    endloop
  endfacet
  facet normal 0.529885 0.84807 -0
    outer loop
      vertex 141.061 98.433 0
      vertex 141.01 98.4648 12
      vertex 141.061 98.433 12
    endloop
  endfacet
  facet normal 0.529885 0.84807 0
    outer loop
      vertex 141.01 98.4648 12
      vertex 141.061 98.433 0
      vertex 141.01 98.4648 0
    endloop
  endfacet
  facet normal 0.341998 0.939701 -0
    outer loop
      vertex 140.902 98.5174 0
      vertex 140.846 98.5379 12
      vertex 140.902 98.5174 12
    endloop
  endfacet
  facet normal 0.341998 0.939701 0
    outer loop
      vertex 140.846 98.5379 12
      vertex 140.902 98.5174 0
      vertex 140.846 98.5379 0
    endloop
  endfacet
  facet normal 0.275594 0.961274 -0
    outer loop
      vertex 140.846 98.5379 0
      vertex 140.788 98.5545 12
      vertex 140.846 98.5379 12
    endloop
  endfacet
  facet normal 0.275594 0.961274 0
    outer loop
      vertex 140.788 98.5545 12
      vertex 140.846 98.5379 0
      vertex 140.788 98.5545 0
    endloop
  endfacet
  facet normal 0.207932 0.978143 -0
    outer loop
      vertex 140.788 98.5545 0
      vertex 140.729 98.5669 12
      vertex 140.788 98.5545 12
    endloop
  endfacet
  facet normal 0.207932 0.978143 0
    outer loop
      vertex 140.729 98.5669 12
      vertex 140.788 98.5545 0
      vertex 140.729 98.5669 0
    endloop
  endfacet
  facet normal 0.951106 -0.308864 0
    outer loop
      vertex 141.388 -0.294137 12
      vertex 141.407 -0.237047 0
      vertex 141.407 -0.237047 12
    endloop
  endfacet
  facet normal 0.951106 -0.308864 0
    outer loop
      vertex 141.407 -0.237047 0
      vertex 141.388 -0.294137 12
      vertex 141.388 -0.294137 0
    endloop
  endfacet
  facet normal 0.927156 -0.374675 0
    outer loop
      vertex 141.366 -0.349793 12
      vertex 141.388 -0.294137 0
      vertex 141.388 -0.294137 12
    endloop
  endfacet
  facet normal 0.927156 -0.374675 0
    outer loop
      vertex 141.388 -0.294137 0
      vertex 141.366 -0.349793 12
      vertex 141.366 -0.349793 0
    endloop
  endfacet
  facet normal 0.866025 -0.500001 0
    outer loop
      vertex 141.309 -0.45573 12
      vertex 141.339 -0.403745 0
      vertex 141.339 -0.403745 12
    endloop
  endfacet
  facet normal 0.866025 -0.500001 0
    outer loop
      vertex 141.339 -0.403745 0
      vertex 141.309 -0.45573 12
      vertex 141.309 -0.45573 0
    endloop
  endfacet
  facet normal 0.406718 -0.913554 0
    outer loop
      vertex 140.902 -0.797378 0
      vertex 140.957 -0.772963 12
      vertex 140.902 -0.797378 12
    endloop
  endfacet
  facet normal 0.406718 -0.913554 0
    outer loop
      vertex 140.957 -0.772963 12
      vertex 140.902 -0.797378 0
      vertex 140.957 -0.772963 0
    endloop
  endfacet
  facet normal 0.139161 -0.99027 0
    outer loop
      vertex 140.67 -0.855289 0
      vertex 140.729 -0.846934 12
      vertex 140.67 -0.855289 12
    endloop
  endfacet
  facet normal 0.139161 -0.99027 0
    outer loop
      vertex 140.729 -0.846934 12
      vertex 140.67 -0.855289 0
      vertex 140.729 -0.846934 0
    endloop
  endfacet
  facet normal 0.529828 -0.848105 0
    outer loop
      vertex 141.01 -0.744781 0
      vertex 141.061 -0.712972 12
      vertex 141.01 -0.744781 12
    endloop
  endfacet
  facet normal 0.529828 -0.848105 0
    outer loop
      vertex 141.061 -0.712972 12
      vertex 141.01 -0.744781 0
      vertex 141.061 -0.712972 0
    endloop
  endfacet
  facet normal -0.999391 -0.034905 0
    outer loop
      vertex -0.857904 -0.0599899 0
      vertex -0.86 0 12
      vertex -0.86 0 0
    endloop
  endfacet
  facet normal -0.999391 -0.034905 0
    outer loop
      vertex -0.86 0 12
      vertex -0.857904 -0.0599899 0
      vertex -0.857904 -0.0599899 12
    endloop
  endfacet
  facet normal -0.743132 -0.669145 0
    outer loop
      vertex -0.618631 -0.597405 0
      vertex -0.658798 -0.552797 12
      vertex -0.658798 -0.552797 0
    endloop
  endfacet
  facet normal -0.743132 -0.669145 0
    outer loop
      vertex -0.658798 -0.552797 12
      vertex -0.618631 -0.597405 0
      vertex -0.618631 -0.597405 12
    endloop
  endfacet
  facet normal -0.866025 -0.500001 0
    outer loop
      vertex -0.729321 -0.45573 0
      vertex -0.759335 -0.403745 12
      vertex -0.759335 -0.403745 0
    endloop
  endfacet
  facet normal -0.866025 -0.500001 0
    outer loop
      vertex -0.759335 -0.403745 12
      vertex -0.729321 -0.45573 0
      vertex -0.729321 -0.45573 12
    endloop
  endfacet
  facet normal -0.984808 -0.173648 0
    outer loop
      vertex -0.841207 -0.178803 0
      vertex -0.85163 -0.119688 12
      vertex -0.85163 -0.119688 0
    endloop
  endfacet
  facet normal -0.984808 -0.173648 0
    outer loop
      vertex -0.85163 -0.119688 12
      vertex -0.841207 -0.178803 0
      vertex -0.841207 -0.178803 12
    endloop
  endfacet
  facet normal -0.951055 -0.309022 0
    outer loop
      vertex -0.808135 -0.294137 0
      vertex -0.826685 -0.237047 12
      vertex -0.826685 -0.237047 0
    endloop
  endfacet
  facet normal -0.951055 -0.309022 0
    outer loop
      vertex -0.826685 -0.237047 12
      vertex -0.808135 -0.294137 0
      vertex -0.808135 -0.294137 12
    endloop
  endfacet
  facet normal -0.0697611 -0.997564 0
    outer loop
      vertex -0.0898943 -0.855289 0
      vertex -0.0300131 -0.859476 12
      vertex -0.0898943 -0.855289 12
    endloop
  endfacet
  facet normal -0.0697611 -0.997564 -0
    outer loop
      vertex -0.0300131 -0.859476 12
      vertex -0.0898943 -0.855289 0
      vertex -0.0300131 -0.859476 0
    endloop
  endfacet
  facet normal -0.139174 -0.990268 0
    outer loop
      vertex -0.149337 -0.846934 0
      vertex -0.0898943 -0.855289 12
      vertex -0.149337 -0.846934 12
    endloop
  endfacet
  facet normal -0.139174 -0.990268 -0
    outer loop
      vertex -0.0898943 -0.855289 12
      vertex -0.149337 -0.846934 0
      vertex -0.0898943 -0.855289 0
    endloop
  endfacet
  facet normal -0.406729 -0.913549 0
    outer loop
      vertex -0.376999 -0.772963 0
      vertex -0.322161 -0.797378 12
      vertex -0.376999 -0.772963 12
    endloop
  endfacet
  facet normal -0.406729 -0.913549 -0
    outer loop
      vertex -0.322161 -0.797378 12
      vertex -0.376999 -0.772963 0
      vertex -0.322161 -0.797378 0
    endloop
  endfacet
  facet normal -0.642789 -0.766043 0
    outer loop
      vertex -0.575452 -0.639104 0
      vertex -0.529469 -0.677689 12
      vertex -0.575452 -0.639104 12
    endloop
  endfacet
  facet normal -0.642789 -0.766043 -0
    outer loop
      vertex -0.529469 -0.677689 12
      vertex -0.575452 -0.639104 0
      vertex -0.529469 -0.677689 0
    endloop
  endfacet
  facet normal -0.469475 -0.882946 0
    outer loop
      vertex -0.429999 -0.744781 0
      vertex -0.376999 -0.772963 12
      vertex -0.429999 -0.744781 12
    endloop
  endfacet
  facet normal -0.469475 -0.882946 -0
    outer loop
      vertex -0.376999 -0.772963 12
      vertex -0.429999 -0.744781 0
      vertex -0.376999 -0.772963 0
    endloop
  endfacet
  facet normal -0.52992 -0.848047 0
    outer loop
      vertex -0.480906 -0.712972 0
      vertex -0.429999 -0.744781 12
      vertex -0.480906 -0.712972 12
    endloop
  endfacet
  facet normal -0.52992 -0.848047 -0
    outer loop
      vertex -0.429999 -0.744781 12
      vertex -0.480906 -0.712972 0
      vertex -0.429999 -0.744781 0
    endloop
  endfacet
  facet normal -0.743139 0.669137 0
    outer loop
      vertex -0.658798 98.2728 0
      vertex -0.618631 98.3174 12
      vertex -0.618631 98.3174 0
    endloop
  endfacet
  facet normal -0.743139 0.669137 0
    outer loop
      vertex -0.618631 98.3174 12
      vertex -0.658798 98.2728 0
      vertex -0.658798 98.2728 12
    endloop
  endfacet
  facet normal -0.999391 0.034905 0
    outer loop
      vertex -0.86 97.72 0
      vertex -0.857904 97.78 12
      vertex -0.857904 97.78 0
    endloop
  endfacet
  facet normal -0.999391 0.034905 0
    outer loop
      vertex -0.857904 97.78 12
      vertex -0.86 97.72 0
      vertex -0.86 97.72 12
    endloop
  endfacet
  facet normal -0.970296 0.241922 0
    outer loop
      vertex -0.841207 97.8988 0
      vertex -0.826685 97.957 12
      vertex -0.826685 97.957 0
    endloop
  endfacet
  facet normal -0.970296 0.241922 0
    outer loop
      vertex -0.826685 97.957 12
      vertex -0.841207 97.8988 0
      vertex -0.841207 97.8988 12
    endloop
  endfacet
  facet normal -0.951056 0.309017 0
    outer loop
      vertex -0.826685 97.957 0
      vertex -0.808135 98.0141 12
      vertex -0.808135 98.0141 0
    endloop
  endfacet
  facet normal -0.951056 0.309017 0
    outer loop
      vertex -0.808135 98.0141 12
      vertex -0.826685 97.957 0
      vertex -0.826685 97.957 12
    endloop
  endfacet
  facet normal -0.927184 0.374607 0
    outer loop
      vertex -0.808135 98.0141 0
      vertex -0.785648 98.0698 12
      vertex -0.785648 98.0698 0
    endloop
  endfacet
  facet normal -0.927184 0.374607 0
    outer loop
      vertex -0.785648 98.0698 12
      vertex -0.808135 98.0141 0
      vertex -0.808135 98.0141 12
    endloop
  endfacet
  facet normal 0.951108 0.308859 0
    outer loop
      vertex 141.407 97.957 12
      vertex 141.388 98.0141 0
      vertex 141.388 98.0141 12
    endloop
  endfacet
  facet normal 0.951108 0.308859 0
    outer loop
      vertex 141.388 98.0141 0
      vertex 141.407 97.957 12
      vertex 141.407 97.957 0
    endloop
  endfacet
  facet normal 0.970277 0.241997 0
    outer loop
      vertex 141.421 97.8988 12
      vertex 141.407 97.957 0
      vertex 141.407 97.957 12
    endloop
  endfacet
  facet normal 0.970277 0.241997 0
    outer loop
      vertex 141.407 97.957 0
      vertex 141.421 97.8988 12
      vertex 141.421 97.8988 0
    endloop
  endfacet
  facet normal 0.587809 0.809 -0
    outer loop
      vertex 141.109 98.3977 0
      vertex 141.061 98.433 12
      vertex 141.109 98.3977 12
    endloop
  endfacet
  facet normal 0.587809 0.809 0
    outer loop
      vertex 141.061 98.433 12
      vertex 141.109 98.3977 0
      vertex 141.061 98.433 0
    endloop
  endfacet
  facet normal 0.743187 0.669084 0
    outer loop
      vertex 141.239 98.2728 12
      vertex 141.199 98.3174 0
      vertex 141.199 98.3174 12
    endloop
  endfacet
  facet normal 0.743187 0.669084 0
    outer loop
      vertex 141.199 98.3174 0
      vertex 141.239 98.2728 12
      vertex 141.239 98.2728 0
    endloop
  endfacet
  facet normal 0.139161 0.99027 -0
    outer loop
      vertex 140.729 98.5669 0
      vertex 140.67 98.5753 12
      vertex 140.729 98.5669 12
    endloop
  endfacet
  facet normal 0.139161 0.99027 0
    outer loop
      vertex 140.67 98.5753 12
      vertex 140.729 98.5669 0
      vertex 140.67 98.5753 0
    endloop
  endfacet
  facet normal 0 0 -1
    outer loop
      vertex 140.61 -0.859476 0
      vertex 141.44 0 0
      vertex 141.438 -0.0599899 0
    endloop
  endfacet
  facet normal -0 0 -1
    outer loop
      vertex 141.44 0 0
      vertex 140.61 -0.859476 0
      vertex 141.44 97.72 0
    endloop
  endfacet
  facet normal 0 0 -1
    outer loop
      vertex 140.61 -0.859476 0
      vertex 141.438 -0.0599899 0
      vertex 141.432 -0.119688 0
    endloop
  endfacet
  facet normal 0 0 -1
    outer loop
      vertex 140.61 98.5795 0
      vertex 141.44 97.72 0
      vertex 140.61 -0.859476 0
    endloop
  endfacet
  facet normal 0 0 -1
    outer loop
      vertex 140.61 -0.859476 0
      vertex 141.432 -0.119688 0
      vertex 141.421 -0.178803 0
    endloop
  endfacet
  facet normal 0 0 -1
    outer loop
      vertex 141.44 97.72 0
      vertex 140.61 98.5795 0
      vertex 141.438 97.78 0
    endloop
  endfacet
  facet normal 0 0 -1
    outer loop
      vertex 140.61 -0.859476 0
      vertex 141.421 -0.178803 0
      vertex 141.407 -0.237047 0
    endloop
  endfacet
  facet normal 0 0 -1
    outer loop
      vertex 141.438 97.78 0
      vertex 140.61 98.5795 0
      vertex 141.432 97.8397 0
    endloop
  endfacet
  facet normal 0 0 -1
    outer loop
      vertex 140.61 -0.859476 0
      vertex 141.407 -0.237047 0
      vertex 141.388 -0.294137 0
    endloop
  endfacet
  facet normal 0 0 -1
    outer loop
      vertex 141.432 97.8397 0
      vertex 140.61 98.5795 0
      vertex 141.421 97.8988 0
    endloop
  endfacet
  facet normal 0 0 -1
    outer loop
      vertex 140.61 -0.859476 0
      vertex 141.388 -0.294137 0
      vertex 141.366 -0.349793 0
    endloop
  endfacet
  facet normal 0 0 -1
    outer loop
      vertex 141.421 97.8988 0
      vertex 140.61 98.5795 0
      vertex 141.407 97.957 0
    endloop
  endfacet
  facet normal 0 0 -1
    outer loop
      vertex 140.61 -0.859476 0
      vertex 141.366 -0.349793 0
      vertex 141.339 -0.403745 0
    endloop
  endfacet
  facet normal 0 0 -1
    outer loop
      vertex 141.407 97.957 0
      vertex 140.61 98.5795 0
      vertex 141.388 98.0141 0
    endloop
  endfacet
  facet normal 0 0 -1
    outer loop
      vertex 140.61 -0.859476 0
      vertex 141.339 -0.403745 0
      vertex 141.309 -0.45573 0
    endloop
  endfacet
  facet normal 0 0 -1
    outer loop
      vertex 141.388 98.0141 0
      vertex 140.61 98.5795 0
      vertex 141.366 98.0698 0
    endloop
  endfacet
  facet normal 0 0 -1
    outer loop
      vertex 140.61 -0.859476 0
      vertex 141.309 -0.45573 0
      vertex 141.276 -0.505495 0
    endloop
  endfacet
  facet normal 0 0 -1
    outer loop
      vertex 141.366 98.0698 0
      vertex 140.61 98.5795 0
      vertex 141.339 98.1237 0
    endloop
  endfacet
  facet normal 0 0 -1
    outer loop
      vertex 140.61 -0.859476 0
      vertex 141.276 -0.505495 0
      vertex 141.239 -0.552797 0
    endloop
  endfacet
  facet normal 0 0 -1
    outer loop
      vertex 141.339 98.1237 0
      vertex 140.61 98.5795 0
      vertex 141.309 98.1757 0
    endloop
  endfacet
  facet normal 0 0 -1
    outer loop
      vertex 140.61 -0.859476 0
      vertex 141.239 -0.552797 0
      vertex 141.199 -0.597405 0
    endloop
  endfacet
  facet normal 0 0 -1
    outer loop
      vertex 141.309 98.1757 0
      vertex 140.61 98.5795 0
      vertex 141.276 98.2255 0
    endloop
  endfacet
  facet normal 0 0 -1
    outer loop
      vertex 140.61 -0.859476 0
      vertex 141.199 -0.597405 0
      vertex 141.155 -0.639104 0
    endloop
  endfacet
  facet normal 0 0 -1
    outer loop
      vertex 141.276 98.2255 0
      vertex 140.61 98.5795 0
      vertex 141.239 98.2728 0
    endloop
  endfacet
  facet normal 0 0 -1
    outer loop
      vertex 140.61 -0.859476 0
      vertex 141.155 -0.639104 0
      vertex 141.109 -0.677689 0
    endloop
  endfacet
  facet normal 0 0 -1
    outer loop
      vertex 141.239 98.2728 0
      vertex 140.61 98.5795 0
      vertex 141.199 98.3174 0
    endloop
  endfacet
  facet normal 0 0 -1
    outer loop
      vertex 140.61 -0.859476 0
      vertex 141.109 -0.677689 0
      vertex 141.061 -0.712972 0
    endloop
  endfacet
  facet normal 0 0 -1
    outer loop
      vertex 141.199 98.3174 0
      vertex 140.61 98.5795 0
      vertex 141.155 98.3591 0
    endloop
  endfacet
  facet normal 0 0 -1
    outer loop
      vertex 140.61 -0.859476 0
      vertex 141.061 -0.712972 0
      vertex 141.01 -0.744781 0
    endloop
  endfacet
  facet normal 0 0 -1
    outer loop
      vertex 141.155 98.3591 0
      vertex 140.61 98.5795 0
      vertex 141.109 98.3977 0
    endloop
  endfacet
  facet normal 0 0 -1
    outer loop
      vertex 140.61 -0.859476 0
      vertex 141.01 -0.744781 0
      vertex 140.957 -0.772963 0
    endloop
  endfacet
  facet normal 0 0 -1
    outer loop
      vertex 141.109 98.3977 0
      vertex 140.61 98.5795 0
      vertex 141.061 98.433 0
    endloop
  endfacet
  facet normal 0 0 -1
    outer loop
      vertex 140.61 -0.859476 0
      vertex 140.957 -0.772963 0
      vertex 140.902 -0.797378 0
    endloop
  endfacet
  facet normal 0 0 -1
    outer loop
      vertex 141.061 98.433 0
      vertex 140.61 98.5795 0
      vertex 141.01 98.4648 0
    endloop
  endfacet
  facet normal 0 0 -1
    outer loop
      vertex 140.61 -0.859476 0
      vertex 140.902 -0.797378 0
      vertex 140.846 -0.817908 0
    endloop
  endfacet
  facet normal 0 0 -1
    outer loop
      vertex 141.01 98.4648 0
      vertex 140.61 98.5795 0
      vertex 140.957 98.493 0
    endloop
  endfacet
  facet normal 0 0 -1
    outer loop
      vertex 140.61 -0.859476 0
      vertex 140.846 -0.817908 0
      vertex 140.788 -0.834454 0
    endloop
  endfacet
  facet normal 0 0 -1
    outer loop
      vertex 140.957 98.493 0
      vertex 140.61 98.5795 0
      vertex 140.902 98.5174 0
    endloop
  endfacet
  facet normal 0 0 -1
    outer loop
      vertex 140.61 -0.859476 0
      vertex 140.788 -0.834454 0
      vertex 140.729 -0.846934 0
    endloop
  endfacet
  facet normal 0 0 -1
    outer loop
      vertex 140.902 98.5174 0
      vertex 140.61 98.5795 0
      vertex 140.846 98.5379 0
    endloop
  endfacet
  facet normal 0 0 -1
    outer loop
      vertex 140.61 -0.859476 0
      vertex 140.729 -0.846934 0
      vertex 140.67 -0.855289 0
    endloop
  endfacet
  facet normal 0 0 -1
    outer loop
      vertex 140.846 98.5379 0
      vertex 140.61 98.5795 0
      vertex 140.788 98.5545 0
    endloop
  endfacet
  facet normal 0 0 -1
    outer loop
      vertex 140.788 98.5545 0
      vertex 140.61 98.5795 0
      vertex 140.729 98.5669 0
    endloop
  endfacet
  facet normal 0 0 -1
    outer loop
      vertex 140.729 98.5669 0
      vertex 140.61 98.5795 0
      vertex 140.67 98.5753 0
    endloop
  endfacet
  facet normal 0 0 -1
    outer loop
      vertex -0.0300131 -0.859476 0
      vertex 140.61 98.5795 0
      vertex 140.61 -0.859476 0
    endloop
  endfacet
  facet normal 0 0 -1
    outer loop
      vertex -0.0300131 -0.859476 0
      vertex -0.0300131 98.5795 0
      vertex 140.61 98.5795 0
    endloop
  endfacet
  facet normal 0 0 -1
    outer loop
      vertex -0.86 0 0
      vertex -0.0300131 -0.859476 0
      vertex -0.0898943 -0.855289 0
    endloop
  endfacet
  facet normal 0 0 -1
    outer loop
      vertex -0.0300131 -0.859476 0
      vertex -0.86 0 0
      vertex -0.0300131 98.5795 0
    endloop
  endfacet
  facet normal 0 0 -1
    outer loop
      vertex -0.86 0 0
      vertex -0.0898943 -0.855289 0
      vertex -0.149337 -0.846934 0
    endloop
  endfacet
  facet normal 0 0 -1
    outer loop
      vertex -0.86 97.72 0
      vertex -0.0300131 98.5795 0
      vertex -0.86 0 0
    endloop
  endfacet
  facet normal 0 0 -1
    outer loop
      vertex -0.86 0 0
      vertex -0.149337 -0.846934 0
      vertex -0.208053 -0.834454 0
    endloop
  endfacet
  facet normal 0 0 -1
    outer loop
      vertex -0.0300131 98.5795 0
      vertex -0.86 97.72 0
      vertex -0.0898943 98.5753 0
    endloop
  endfacet
  facet normal 0 0 -1
    outer loop
      vertex -0.86 0 0
      vertex -0.208053 -0.834454 0
      vertex -0.265754 -0.817908 0
    endloop
  endfacet
  facet normal 0 0 -1
    outer loop
      vertex -0.0898943 98.5753 0
      vertex -0.86 97.72 0
      vertex -0.149337 98.5669 0
    endloop
  endfacet
  facet normal 0 0 -1
    outer loop
      vertex -0.86 0 0
      vertex -0.265754 -0.817908 0
      vertex -0.322161 -0.797378 0
    endloop
  endfacet
  facet normal 0 0 -1
    outer loop
      vertex -0.149337 98.5669 0
      vertex -0.86 97.72 0
      vertex -0.208053 98.5545 0
    endloop
  endfacet
  facet normal 0 0 -1
    outer loop
      vertex -0.86 0 0
      vertex -0.322161 -0.797378 0
      vertex -0.376999 -0.772963 0
    endloop
  endfacet
  facet normal 0 0 -1
    outer loop
      vertex -0.208053 98.5545 0
      vertex -0.86 97.72 0
      vertex -0.265754 98.5379 0
    endloop
  endfacet
  facet normal 0 0 -1
    outer loop
      vertex -0.86 0 0
      vertex -0.376999 -0.772963 0
      vertex -0.429999 -0.744781 0
    endloop
  endfacet
  facet normal 0 0 -1
    outer loop
      vertex -0.265754 98.5379 0
      vertex -0.86 97.72 0
      vertex -0.322161 98.5174 0
    endloop
  endfacet
  facet normal 0 0 -1
    outer loop
      vertex -0.86 0 0
      vertex -0.429999 -0.744781 0
      vertex -0.480906 -0.712972 0
    endloop
  endfacet
  facet normal 0 0 -1
    outer loop
      vertex -0.322161 98.5174 0
      vertex -0.86 97.72 0
      vertex -0.376999 98.493 0
    endloop
  endfacet
  facet normal 0 0 -1
    outer loop
      vertex -0.86 0 0
      vertex -0.480906 -0.712972 0
      vertex -0.529469 -0.677689 0
    endloop
  endfacet
  facet normal 0 0 -1
    outer loop
      vertex -0.376999 98.493 0
      vertex -0.86 97.72 0
      vertex -0.429999 98.4648 0
    endloop
  endfacet
  facet normal 0 0 -1
    outer loop
      vertex -0.86 0 0
      vertex -0.529469 -0.677689 0
      vertex -0.575452 -0.639104 0
    endloop
  endfacet
  facet normal 0 0 -1
    outer loop
      vertex -0.429999 98.4648 0
      vertex -0.86 97.72 0
      vertex -0.480906 98.433 0
    endloop
  endfacet
  facet normal 0 0 -1
    outer loop
      vertex -0.86 0 0
      vertex -0.575452 -0.639104 0
      vertex -0.618631 -0.597405 0
    endloop
  endfacet
  facet normal 0 0 -1
    outer loop
      vertex -0.480906 98.433 0
      vertex -0.86 97.72 0
      vertex -0.529469 98.3977 0
    endloop
  endfacet
  facet normal 0 0 -1
    outer loop
      vertex -0.86 0 0
      vertex -0.618631 -0.597405 0
      vertex -0.658798 -0.552797 0
    endloop
  endfacet
  facet normal 0 0 -1
    outer loop
      vertex -0.529469 98.3977 0
      vertex -0.86 97.72 0
      vertex -0.575452 98.3591 0
    endloop
  endfacet
  facet normal 0 0 -1
    outer loop
      vertex -0.86 0 0
      vertex -0.658798 -0.552797 0
      vertex -0.695754 -0.505495 0
    endloop
  endfacet
  facet normal 0 0 -1
    outer loop
      vertex -0.575452 98.3591 0
      vertex -0.86 97.72 0
      vertex -0.618631 98.3174 0
    endloop
  endfacet
  facet normal 0 0 -1
    outer loop
      vertex -0.86 0 0
      vertex -0.695754 -0.505495 0
      vertex -0.729321 -0.45573 0
    endloop
  endfacet
  facet normal 0 0 -1
    outer loop
      vertex -0.618631 98.3174 0
      vertex -0.86 97.72 0
      vertex -0.658798 98.2728 0
    endloop
  endfacet
  facet normal 0 0 -1
    outer loop
      vertex -0.86 0 0
      vertex -0.729321 -0.45573 0
      vertex -0.759335 -0.403745 0
    endloop
  endfacet
  facet normal 0 0 -1
    outer loop
      vertex -0.658798 98.2728 0
      vertex -0.86 97.72 0
      vertex -0.695754 98.2255 0
    endloop
  endfacet
  facet normal 0 0 -1
    outer loop
      vertex -0.86 0 0
      vertex -0.759335 -0.403745 0
      vertex -0.785648 -0.349793 0
    endloop
  endfacet
  facet normal 0 0 -1
    outer loop
      vertex -0.695754 98.2255 0
      vertex -0.86 97.72 0
      vertex -0.729321 98.1757 0
    endloop
  endfacet
  facet normal 0 0 -1
    outer loop
      vertex -0.86 0 0
      vertex -0.785648 -0.349793 0
      vertex -0.808135 -0.294137 0
    endloop
  endfacet
  facet normal 0 0 -1
    outer loop
      vertex -0.729321 98.1757 0
      vertex -0.86 97.72 0
      vertex -0.759335 98.1237 0
    endloop
  endfacet
  facet normal 0 0 -1
    outer loop
      vertex -0.86 0 0
      vertex -0.808135 -0.294137 0
      vertex -0.826685 -0.237047 0
    endloop
  endfacet
  facet normal 0 0 -1
    outer loop
      vertex -0.759335 98.1237 0
      vertex -0.86 97.72 0
      vertex -0.785648 98.0698 0
    endloop
  endfacet
  facet normal 0 0 -1
    outer loop
      vertex -0.86 0 0
      vertex -0.826685 -0.237047 0
      vertex -0.841207 -0.178803 0
    endloop
  endfacet
  facet normal 0 0 -1
    outer loop
      vertex -0.785648 98.0698 0
      vertex -0.86 97.72 0
      vertex -0.808135 98.0141 0
    endloop
  endfacet
  facet normal 0 0 -1
    outer loop
      vertex -0.86 0 0
      vertex -0.841207 -0.178803 0
      vertex -0.85163 -0.119688 0
    endloop
  endfacet
  facet normal 0 0 -1
    outer loop
      vertex -0.808135 98.0141 0
      vertex -0.86 97.72 0
      vertex -0.826685 97.957 0
    endloop
  endfacet
  facet normal 0 0 -1
    outer loop
      vertex -0.86 0 0
      vertex -0.85163 -0.119688 0
      vertex -0.857904 -0.0599899 0
    endloop
  endfacet
  facet normal 0 0 -1
    outer loop
      vertex -0.826685 97.957 0
      vertex -0.86 97.72 0
      vertex -0.841207 97.8988 0
    endloop
  endfacet
  facet normal 0 0 -1
    outer loop
      vertex -0.841207 97.8988 0
      vertex -0.86 97.72 0
      vertex -0.85163 97.8397 0
    endloop
  endfacet
  facet normal 0 0 -1
    outer loop
      vertex -0.85163 97.8397 0
      vertex -0.86 97.72 0
      vertex -0.857904 97.78 0
    endloop
  endfacet
  facet normal -0.994522 -0.104524 0
    outer loop
      vertex -0.85163 -0.119688 0
      vertex -0.857904 -0.0599899 12
      vertex -0.857904 -0.0599899 0
    endloop
  endfacet
  facet normal -0.994522 -0.104524 0
    outer loop
      vertex -0.857904 -0.0599899 12
      vertex -0.85163 -0.119688 0
      vertex -0.85163 -0.119688 12
    endloop
  endfacet
  facet normal -0.927184 -0.374607 0
    outer loop
      vertex -0.785648 -0.349793 0
      vertex -0.808135 -0.294137 12
      vertex -0.808135 -0.294137 0
    endloop
  endfacet
  facet normal -0.927184 -0.374607 0
    outer loop
      vertex -0.808135 -0.294137 12
      vertex -0.785648 -0.349793 0
      vertex -0.785648 -0.349793 12
    endloop
  endfacet
  facet normal -0.342024 -0.939691 0
    outer loop
      vertex -0.322161 -0.797378 0
      vertex -0.265754 -0.817908 12
      vertex -0.322161 -0.797378 12
    endloop
  endfacet
  facet normal -0.342024 -0.939691 -0
    outer loop
      vertex -0.265754 -0.817908 12
      vertex -0.322161 -0.797378 0
      vertex -0.265754 -0.817908 0
    endloop
  endfacet
  facet normal -0.69463 0.719368 0
    outer loop
      vertex -0.575452 98.3591 0
      vertex -0.618631 98.3174 12
      vertex -0.575452 98.3591 12
    endloop
  endfacet
  facet normal -0.69463 0.719368 0
    outer loop
      vertex -0.618631 98.3174 12
      vertex -0.575452 98.3591 0
      vertex -0.618631 98.3174 0
    endloop
  endfacet
  facet normal -0.829049 0.559176 0
    outer loop
      vertex -0.729321 98.1757 0
      vertex -0.695754 98.2255 12
      vertex -0.695754 98.2255 0
    endloop
  endfacet
  facet normal -0.829049 0.559176 0
    outer loop
      vertex -0.695754 98.2255 12
      vertex -0.729321 98.1757 0
      vertex -0.729321 98.1757 12
    endloop
  endfacet
  facet normal -0.642835 0.766004 0
    outer loop
      vertex -0.529469 98.3977 0
      vertex -0.575452 98.3591 12
      vertex -0.529469 98.3977 12
    endloop
  endfacet
  facet normal -0.642835 0.766004 0
    outer loop
      vertex -0.575452 98.3591 12
      vertex -0.529469 98.3977 0
      vertex -0.575452 98.3591 0
    endloop
  endfacet
  facet normal -0.788017 0.615654 0
    outer loop
      vertex -0.695754 98.2255 0
      vertex -0.658798 98.2728 12
      vertex -0.658798 98.2728 0
    endloop
  endfacet
  facet normal -0.788017 0.615654 0
    outer loop
      vertex -0.658798 98.2728 12
      vertex -0.695754 98.2255 0
      vertex -0.695754 98.2255 12
    endloop
  endfacet
  facet normal 1 -0 0
    outer loop
      vertex 0 0 12
      vertex 0 97.72 1
      vertex 0 97.72 12
    endloop
  endfacet
  facet normal 1 0 0
    outer loop
      vertex 0 97.72 1
      vertex 0 0 12
      vertex 0 0 1
    endloop
  endfacet
  facet normal -1 0 0
    outer loop
      vertex 140.58 0 1
      vertex 140.58 97.72 12
      vertex 140.58 97.72 1
    endloop
  endfacet
  facet normal -1 -0 0
    outer loop
      vertex 140.58 97.72 12
      vertex 140.58 0 1
      vertex 140.58 0 12
    endloop
  endfacet
  facet normal -0 0 1
    outer loop
      vertex 0 97.72 1
      vertex 140.58 0 1
      vertex 140.58 97.72 1
    endloop
  endfacet
  facet normal 0 0 1
    outer loop
      vertex 140.58 0 1
      vertex 0 97.72 1
      vertex 0 0 1
    endloop
  endfacet
  facet normal 0 1 -0
    outer loop
      vertex 140.58 0 1
      vertex 0 0 12
      vertex 140.58 0 12
    endloop
  endfacet
  facet normal 0 1 0
    outer loop
      vertex 0 0 12
      vertex 140.58 0 1
      vertex 0 0 1
    endloop
  endfacet
  facet normal 0 -1 0
    outer loop
      vertex 0 97.72 1
      vertex 140.58 97.72 12
      vertex 0 97.72 12
    endloop
  endfacet
  facet normal 0 -1 -0
    outer loop
      vertex 140.58 97.72 12
      vertex 0 97.72 1
      vertex 140.58 97.72 1
    endloop
  endfacet
endsolid OpenSCAD_Model
