solid OpenSCAD_Model
  facet normal -1 0 0
    outer loop
      vertex 0 0 0
      vertex 0 97.29 20
      vertex 0 97.29 0
    endloop
  endfacet
  facet normal -1 -0 0
    outer loop
      vertex 0 97.29 20
      vertex 0 0 0
      vertex 0 0 20
    endloop
  endfacet
  facet normal -0 0 1
    outer loop
      vertex 0.86 38.505 20
      vertex 69.645 37.645 20
      vertex 69.645 38.505 20
    endloop
  endfacet
  facet normal 0 0 1
    outer loop
      vertex 69.645 37.645 20
      vertex 0.86 38.505 20
      vertex 0.86 37.645 20
    endloop
  endfacet
  facet normal -0 0 1
    outer loop
      vertex 70.505 38.505 20
      vertex 139.29 37.645 20
      vertex 139.29 38.505 20
    endloop
  endfacet
  facet normal 0 0 1
    outer loop
      vertex 139.29 37.645 20
      vertex 70.505 38.505 20
      vertex 70.505 37.645 20
    endloop
  endfacet
  facet normal 0 0 1
    outer loop
      vertex 139.29 38.505 20
      vertex 140.15 97.29 20
      vertex 139.29 96.43 20
    endloop
  endfacet
  facet normal 0 0 1
    outer loop
      vertex 140.15 97.29 20
      vertex 70.505 96.43 20
      vertex 139.29 96.43 20
    endloop
  endfacet
  facet normal 0 0 1
    outer loop
      vertex 69.645 38.505 20
      vertex 70.505 38.505 20
      vertex 70.505 96.43 20
    endloop
  endfacet
  facet normal 0 0 1
    outer loop
      vertex 70.505 38.505 20
      vertex 69.645 38.505 20
      vertex 70.505 37.645 20
    endloop
  endfacet
  facet normal 0 0 1
    outer loop
      vertex 69.645 38.505 20
      vertex 70.505 96.43 20
      vertex 69.645 96.43 20
    endloop
  endfacet
  facet normal 0 0 1
    outer loop
      vertex 140.15 97.29 20
      vertex 69.645 96.43 20
      vertex 70.505 96.43 20
    endloop
  endfacet
  facet normal -0 0 1
    outer loop
      vertex 0 97.29 20
      vertex 69.645 96.43 20
      vertex 140.15 97.29 20
    endloop
  endfacet
  facet normal 0 0 1
    outer loop
      vertex 0 97.29 20
      vertex 0.86 38.505 20
      vertex 0.86 96.43 20
    endloop
  endfacet
  facet normal 0 0 1
    outer loop
      vertex 0.86 38.505 20
      vertex 0 97.29 20
      vertex 0.86 37.645 20
    endloop
  endfacet
  facet normal 0 0 1
    outer loop
      vertex 0 0 20
      vertex 0.86 37.645 20
      vertex 0 97.29 20
    endloop
  endfacet
  facet normal 0 0 1
    outer loop
      vertex 69.645 96.43 20
      vertex 0 97.29 20
      vertex 0.86 96.43 20
    endloop
  endfacet
  facet normal 0 0 1
    outer loop
      vertex 140.15 97.29 20
      vertex 139.29 38.505 20
      vertex 140.15 0 20
    endloop
  endfacet
  facet normal -0 0 1
    outer loop
      vertex 139.29 37.645 20
      vertex 140.15 0 20
      vertex 139.29 38.505 20
    endloop
  endfacet
  facet normal -0 0 1
    outer loop
      vertex 139.29 0.86 20
      vertex 140.15 0 20
      vertex 139.29 37.645 20
    endloop
  endfacet
  facet normal -0 0 1
    outer loop
      vertex 70.505 0.86 20
      vertex 140.15 0 20
      vertex 139.29 0.86 20
    endloop
  endfacet
  facet normal 0 0 1
    outer loop
      vertex 69.645 37.645 20
      vertex 70.505 37.645 20
      vertex 69.645 38.505 20
    endloop
  endfacet
  facet normal 0 0 1
    outer loop
      vertex 70.505 37.645 20
      vertex 69.645 37.645 20
      vertex 70.505 0.86 20
    endloop
  endfacet
  facet normal 0 0 1
    outer loop
      vertex 69.645 0.86 20
      vertex 70.505 0.86 20
      vertex 69.645 37.645 20
    endloop
  endfacet
  facet normal -0 0 1
    outer loop
      vertex 69.645 0.86 20
      vertex 140.15 0 20
      vertex 70.505 0.86 20
    endloop
  endfacet
  facet normal 0 0 1
    outer loop
      vertex 0 0 20
      vertex 69.645 0.86 20
      vertex 0.86 0.86 20
    endloop
  endfacet
  facet normal 0 0 1
    outer loop
      vertex 69.645 0.86 20
      vertex 0 0 20
      vertex 140.15 0 20
    endloop
  endfacet
  facet normal 0 0 1
    outer loop
      vertex 0.86 37.645 20
      vertex 0 0 20
      vertex 0.86 0.86 20
    endloop
  endfacet
  facet normal 1 -0 0
    outer loop
      vertex 140.15 0 20
      vertex 140.15 97.29 0
      vertex 140.15 97.29 20
    endloop
  endfacet
  facet normal 1 0 0
    outer loop
      vertex 140.15 97.29 0
      vertex 140.15 0 20
      vertex 140.15 0 0
    endloop
  endfacet
  facet normal 0 1 -0
    outer loop
      vertex 140.15 97.29 0
      vertex 0 97.29 20
      vertex 140.15 97.29 20
    endloop
  endfacet
  facet normal 0 1 0
    outer loop
      vertex 0 97.29 20
      vertex 140.15 97.29 0
      vertex 0 97.29 0
    endloop
  endfacet
  facet normal 0 0 -1
    outer loop
      vertex 0 0 0
      vertex 140.15 97.29 0
      vertex 140.15 0 0
    endloop
  endfacet
  facet normal -0 0 -1
    outer loop
      vertex 140.15 97.29 0
      vertex 0 0 0
      vertex 0 97.29 0
    endloop
  endfacet
  facet normal 0 -1 0
    outer loop
      vertex 0 0 0
      vertex 140.15 0 20
      vertex 0 0 20
    endloop
  endfacet
  facet normal 0 -1 -0
    outer loop
      vertex 140.15 0 20
      vertex 0 0 0
      vertex 140.15 0 0
    endloop
  endfacet
  facet normal 1 -0 0
    outer loop
      vertex 0.86 0.86 20
      vertex 0.86 37.645 1
      vertex 0.86 37.645 20
    endloop
  endfacet
  facet normal 1 0 0
    outer loop
      vertex 0.86 37.645 1
      vertex 0.86 0.86 20
      vertex 0.86 0.86 1
    endloop
  endfacet
  facet normal -1 0 0
    outer loop
      vertex 69.645 0.86 1
      vertex 69.645 37.645 20
      vertex 69.645 37.645 1
    endloop
  endfacet
  facet normal -1 -0 0
    outer loop
      vertex 69.645 37.645 20
      vertex 69.645 0.86 1
      vertex 69.645 0.86 20
    endloop
  endfacet
  facet normal 0 -1 0
    outer loop
      vertex 0.86 37.645 1
      vertex 69.645 37.645 20
      vertex 0.86 37.645 20
    endloop
  endfacet
  facet normal 0 -1 -0
    outer loop
      vertex 69.645 37.645 20
      vertex 0.86 37.645 1
      vertex 69.645 37.645 1
    endloop
  endfacet
  facet normal -0 0 1
    outer loop
      vertex 0.86 37.645 1
      vertex 69.645 0.86 1
      vertex 69.645 37.645 1
    endloop
  endfacet
  facet normal 0 0 1
    outer loop
      vertex 69.645 0.86 1
      vertex 0.86 37.645 1
      vertex 0.86 0.86 1
    endloop
  endfacet
  facet normal 0 1 -0
    outer loop
      vertex 69.645 0.86 1
      vertex 0.86 0.86 20
      vertex 69.645 0.86 20
    endloop
  endfacet
  facet normal 0 1 0
    outer loop
      vertex 0.86 0.86 20
      vertex 69.645 0.86 1
      vertex 0.86 0.86 1
    endloop
  endfacet
  facet normal 1 -0 0
    outer loop
      vertex 70.505 0.86 20
      vertex 70.505 37.645 1
      vertex 70.505 37.645 20
    endloop
  endfacet
  facet normal 1 0 0
    outer loop
      vertex 70.505 37.645 1
      vertex 70.505 0.86 20
      vertex 70.505 0.86 1
    endloop
  endfacet
  facet normal -1 0 0
    outer loop
      vertex 139.29 0.86 1
      vertex 139.29 37.645 20
      vertex 139.29 37.645 1
    endloop
  endfacet
  facet normal -1 -0 0
    outer loop
      vertex 139.29 37.645 20
      vertex 139.29 0.86 1
      vertex 139.29 0.86 20
    endloop
  endfacet
  facet normal -0 0 1
    outer loop
      vertex 70.505 37.645 1
      vertex 139.29 0.86 1
      vertex 139.29 37.645 1
    endloop
  endfacet
  facet normal 0 0 1
    outer loop
      vertex 139.29 0.86 1
      vertex 70.505 37.645 1
      vertex 70.505 0.86 1
    endloop
  endfacet
  facet normal 0 1 -0
    outer loop
      vertex 139.29 0.86 1
      vertex 70.505 0.86 20
      vertex 139.29 0.86 20
    endloop
  endfacet
  facet normal 0 1 0
    outer loop
      vertex 70.505 0.86 20
      vertex 139.29 0.86 1
      vertex 70.505 0.86 1
    endloop
  endfacet
  facet normal 0 -1 0
    outer loop
      vertex 70.505 37.645 1
      vertex 139.29 37.645 20
      vertex 70.505 37.645 20
    endloop
  endfacet
  facet normal 0 -1 -0
    outer loop
      vertex 139.29 37.645 20
      vertex 70.505 37.645 1
      vertex 139.29 37.645 1
    endloop
  endfacet
  facet normal 1 -0 0
    outer loop
      vertex 0.86 38.505 20
      vertex 0.86 96.43 1
      vertex 0.86 96.43 20
    endloop
  endfacet
  facet normal 1 0 0
    outer loop
      vertex 0.86 96.43 1
      vertex 0.86 38.505 20
      vertex 0.86 38.505 1
    endloop
  endfacet
  facet normal -1 0 0
    outer loop
      vertex 69.645 38.505 1
      vertex 69.645 96.43 20
      vertex 69.645 96.43 1
    endloop
  endfacet
  facet normal -1 -0 0
    outer loop
      vertex 69.645 96.43 20
      vertex 69.645 38.505 1
      vertex 69.645 38.505 20
    endloop
  endfacet
  facet normal 0 -1 0
    outer loop
      vertex 0.86 96.43 1
      vertex 69.645 96.43 20
      vertex 0.86 96.43 20
    endloop
  endfacet
  facet normal 0 -1 -0
    outer loop
      vertex 69.645 96.43 20
      vertex 0.86 96.43 1
      vertex 69.645 96.43 1
    endloop
  endfacet
  facet normal -0 0 1
    outer loop
      vertex 0.86 96.43 1
      vertex 69.645 38.505 1
      vertex 69.645 96.43 1
    endloop
  endfacet
  facet normal 0 0 1
    outer loop
      vertex 69.645 38.505 1
      vertex 0.86 96.43 1
      vertex 0.86 38.505 1
    endloop
  endfacet
  facet normal 0 1 -0
    outer loop
      vertex 69.645 38.505 1
      vertex 0.86 38.505 20
      vertex 69.645 38.505 20
    endloop
  endfacet
  facet normal 0 1 0
    outer loop
      vertex 0.86 38.505 20
      vertex 69.645 38.505 1
      vertex 0.86 38.505 1
    endloop
  endfacet
  facet normal 1 -0 0
    outer loop
      vertex 70.505 38.505 20
      vertex 70.505 96.43 1
      vertex 70.505 96.43 20
    endloop
  endfacet
  facet normal 1 0 0
    outer loop
      vertex 70.505 96.43 1
      vertex 70.505 38.505 20
      vertex 70.505 38.505 1
    endloop
  endfacet
  facet normal -1 0 0
    outer loop
      vertex 139.29 38.505 1
      vertex 139.29 96.43 20
      vertex 139.29 96.43 1
    endloop
  endfacet
  facet normal -1 -0 0
    outer loop
      vertex 139.29 96.43 20
      vertex 139.29 38.505 1
      vertex 139.29 38.505 20
    endloop
  endfacet
  facet normal -0 0 1
    outer loop
      vertex 70.505 96.43 1
      vertex 139.29 38.505 1
      vertex 139.29 96.43 1
    endloop
  endfacet
  facet normal 0 0 1
    outer loop
      vertex 139.29 38.505 1
      vertex 70.505 96.43 1
      vertex 70.505 38.505 1
    endloop
  endfacet
  facet normal 0 1 -0
    outer loop
      vertex 139.29 38.505 1
      vertex 70.505 38.505 20
      vertex 139.29 38.505 20
    endloop
  endfacet
  facet normal 0 1 0
    outer loop
      vertex 70.505 38.505 20
      vertex 139.29 38.505 1
      vertex 70.505 38.505 1
    endloop
  endfacet
  facet normal 0 -1 0
    outer loop
      vertex 70.505 96.43 1
      vertex 139.29 96.43 20
      vertex 70.505 96.43 20
    endloop
  endfacet
  facet normal 0 -1 -0
    outer loop
      vertex 139.29 96.43 20
      vertex 70.505 96.43 1
      vertex 139.29 96.43 1
    endloop
  endfacet
endsolid OpenSCAD_Model
