  0
SECTION
  2
BLOCKS
  0
ENDSEC
  0
SECTION
  2
ENTITIES
  0
LINE
  8
0
 10
0
 11
0
 20
0
 21
92.25
  0
LINE
  8
0
 10
0
 11
2.975
 20
92.25
 21
92.25
  0
LINE
  8
0
 10
2.975
 11
2.975
 20
92.25
 21
46.1
  0
LINE
  8
0
 10
2.975
 11
5.275
 20
46.1
 21
46.1
  0
LINE
  8
0
 10
5.275
 11
5.275
 20
46.1
 21
92.25
  0
LINE
  8
0
 10
5.275
 11
55.225
 20
92.25
 21
92.25
  0
LINE
  8
0
 10
55.225
 11
55.225
 20
92.25
 21
46.1
  0
LINE
  8
0
 10
55.225
 11
57.525
 20
46.1
 21
46.1
  0
LINE
  8
0
 10
57.525
 11
57.525
 20
46.1
 21
92.25
  0
LINE
  8
0
 10
57.525
 11
107.475
 20
92.25
 21
92.25
  0
LINE
  8
0
 10
107.475
 11
107.475
 20
92.25
 21
46.1
  0
LINE
  8
0
 10
107.475
 11
109.775
 20
46.1
 21
46.1
  0
LINE
  8
0
 10
109.775
 11
109.775
 20
46.1
 21
92.25
  0
LINE
  8
0
 10
109.775
 11
159.725
 20
92.25
 21
92.25
  0
LINE
  8
0
 10
159.725
 11
159.725
 20
92.25
 21
46.1
  0
LINE
  8
0
 10
159.725
 11
162.025
 20
46.1
 21
46.1
  0
LINE
  8
0
 10
162.025
 11
162.025
 20
46.1
 21
92.25
  0
LINE
  8
0
 10
162.025
 11
211.975
 20
92.25
 21
92.25
  0
LINE
  8
0
 10
211.975
 11
211.975
 20
92.25
 21
46.1
  0
LINE
  8
0
 10
211.975
 11
214.275
 20
46.1
 21
46.1
  0
LINE
  8
0
 10
214.275
 11
214.275
 20
46.1
 21
92.25
  0
LINE
  8
0
 10
214.275
 11
217.25
 20
92.25
 21
92.25
  0
LINE
  8
0
 10
217.25
 11
217.25
 20
92.25
 21
0
  0
LINE
  8
0
 10
217.25
 11
0
 20
0
 21
0
  0
LINE
  8
0
 10
0
 11
0
 20
99.5
 21
124.5
  0
LINE
  8
0
 10
0
 11
217.25
 20
124.5
 21
124.5
  0
LINE
  8
0
 10
217.25
 11
217.25
 20
124.5
 21
99.5
  0
LINE
  8
0
 10
217.25
 11
214.275
 20
99.5
 21
99.5
  0
LINE
  8
0
 10
214.275
 11
214.275
 20
99.5
 21
112.025
  0
LINE
  8
0
 10
214.275
 11
211.975
 20
112.025
 21
112.025
  0
LINE
  8
0
 10
211.975
 11
211.975
 20
112.025
 21
99.5
  0
LINE
  8
0
 10
211.975
 11
199.5
 20
99.5
 21
99.5
  0
LINE
  8
0
 10
199.5
 11
199.5
 20
99.5
 21
94.25
  0
LINE
  8
0
 10
199.5
 11
174.5
 20
94.25
 21
94.25
  0
LINE
  8
0
 10
174.5
 11
174.5
 20
94.25
 21
99.5
  0
LINE
  8
0
 10
174.5
 11
162.025
 20
99.5
 21
99.5
  0
LINE
  8
0
 10
162.025
 11
162.025
 20
99.5
 21
112.025
  0
LINE
  8
0
 10
162.025
 11
159.725
 20
112.025
 21
112.025
  0
LINE
  8
0
 10
159.725
 11
159.725
 20
112.025
 21
99.5
  0
LINE
  8
0
 10
159.725
 11
147.25
 20
99.5
 21
99.5
  0
LINE
  8
0
 10
147.25
 11
147.25
 20
99.5
 21
94.25
  0
LINE
  8
0
 10
147.25
 11
122.25
 20
94.25
 21
94.25
  0
LINE
  8
0
 10
122.25
 11
122.25
 20
94.25
 21
99.5
  0
LINE
  8
0
 10
122.25
 11
109.775
 20
99.5
 21
99.5
  0
LINE
  8
0
 10
109.775
 11
109.775
 20
99.5
 21
112.025
  0
LINE
  8
0
 10
109.775
 11
107.475
 20
112.025
 21
112.025
  0
LINE
  8
0
 10
107.475
 11
107.475
 20
112.025
 21
99.5
  0
LINE
  8
0
 10
107.475
 11
95
 20
99.5
 21
99.5
  0
LINE
  8
0
 10
95
 11
95
 20
99.5
 21
94.25
  0
LINE
  8
0
 10
95
 11
70
 20
94.25
 21
94.25
  0
LINE
  8
0
 10
70
 11
70
 20
94.25
 21
99.5
  0
LINE
  8
0
 10
70
 11
57.525
 20
99.5
 21
99.5
  0
LINE
  8
0
 10
57.525
 11
57.525
 20
99.5
 21
112.025
  0
LINE
  8
0
 10
57.525
 11
55.225
 20
112.025
 21
112.025
  0
LINE
  8
0
 10
55.225
 11
55.225
 20
112.025
 21
99.5
  0
LINE
  8
0
 10
55.225
 11
42.75
 20
99.5
 21
99.5
  0
LINE
  8
0
 10
42.75
 11
42.75
 20
99.5
 21
94.25
  0
LINE
  8
0
 10
42.75
 11
17.75
 20
94.25
 21
94.25
  0
LINE
  8
0
 10
17.75
 11
17.75
 20
94.25
 21
99.5
  0
LINE
  8
0
 10
17.75
 11
5.275
 20
99.5
 21
99.5
  0
LINE
  8
0
 10
5.275
 11
5.275
 20
99.5
 21
112.025
  0
LINE
  8
0
 10
5.275
 11
2.975
 20
112.025
 21
112.025
  0
LINE
  8
0
 10
2.975
 11
2.975
 20
112.025
 21
99.5
  0
LINE
  8
0
 10
2.975
 11
0
 20
99.5
 21
99.5
  0
LINE
  8
0
 10
0
 11
0
 20
126.5
 21
218.75
  0
LINE
  8
0
 10
0
 11
30.25
 20
218.75
 21
218.75
  0
LINE
  8
0
 10
30.25
 11
30.25
 20
218.75
 21
215.775
  0
LINE
  8
0
 10
30.25
 11
17.725
 20
215.775
 21
215.775
  0
LINE
  8
0
 10
17.725
 11
17.725
 20
215.775
 21
213.475
  0
LINE
  8
0
 10
17.725
 11
30.25
 20
213.475
 21
213.475
  0
LINE
  8
0
 10
30.25
 11
30.25
 20
213.475
 21
126.5
  0
LINE
  8
0
 10
30.25
 11
5.275
 20
126.5
 21
126.5
  0
LINE
  8
0
 10
5.275
 11
5.275
 20
126.5
 21
172.65
  0
LINE
  8
0
 10
5.275
 11
2.975
 20
172.65
 21
172.65
  0
LINE
  8
0
 10
2.975
 11
2.975
 20
172.65
 21
126.5
  0
LINE
  8
0
 10
2.975
 11
0
 20
126.5
 21
126.5
  0
LINE
  8
0
 10
17.725
 11
17.725
 20
86.975
 21
89.275
  0
LINE
  8
0
 10
17.725
 11
42.775
 20
89.275
 21
89.275
  0
LINE
  8
0
 10
42.775
 11
42.775
 20
89.275
 21
86.975
  0
LINE
  8
0
 10
42.775
 11
17.725
 20
86.975
 21
86.975
  0
LINE
  8
0
 10
32.25
 11
32.25
 20
126.5
 21
218.75
  0
LINE
  8
0
 10
32.25
 11
62.5
 20
218.75
 21
218.75
  0
LINE
  8
0
 10
62.5
 11
62.5
 20
218.75
 21
215.775
  0
LINE
  8
0
 10
62.5
 11
49.975
 20
215.775
 21
215.775
  0
LINE
  8
0
 10
49.975
 11
49.975
 20
215.775
 21
213.475
  0
LINE
  8
0
 10
49.975
 11
62.5
 20
213.475
 21
213.475
  0
LINE
  8
0
 10
62.5
 11
62.5
 20
213.475
 21
126.5
  0
LINE
  8
0
 10
62.5
 11
37.525
 20
126.5
 21
126.5
  0
LINE
  8
0
 10
37.525
 11
37.525
 20
126.5
 21
172.65
  0
LINE
  8
0
 10
37.525
 11
35.225
 20
172.65
 21
172.65
  0
LINE
  8
0
 10
35.225
 11
35.225
 20
172.65
 21
126.5
  0
LINE
  8
0
 10
35.225
 11
32.25
 20
126.5
 21
126.5
  0
LINE
  8
0
 10
64.5
 11
64.5
 20
126.5
 21
218.75
  0
LINE
  8
0
 10
64.5
 11
94.75
 20
218.75
 21
218.75
  0
LINE
  8
0
 10
94.75
 11
94.75
 20
218.75
 21
215.775
  0
LINE
  8
0
 10
94.75
 11
82.225
 20
215.775
 21
215.775
  0
LINE
  8
0
 10
82.225
 11
82.225
 20
215.775
 21
213.475
  0
LINE
  8
0
 10
82.225
 11
94.75
 20
213.475
 21
213.475
  0
LINE
  8
0
 10
94.75
 11
94.75
 20
213.475
 21
126.5
  0
LINE
  8
0
 10
94.75
 11
69.775
 20
126.5
 21
126.5
  0
LINE
  8
0
 10
69.775
 11
69.775
 20
126.5
 21
172.65
  0
LINE
  8
0
 10
69.775
 11
67.475
 20
172.65
 21
172.65
  0
LINE
  8
0
 10
67.475
 11
67.475
 20
172.65
 21
126.5
  0
LINE
  8
0
 10
67.475
 11
64.5
 20
126.5
 21
126.5
  0
LINE
  8
0
 10
69.975
 11
69.975
 20
86.975
 21
89.275
  0
LINE
  8
0
 10
69.975
 11
95.025
 20
89.275
 21
89.275
  0
LINE
  8
0
 10
95.025
 11
95.025
 20
89.275
 21
86.975
  0
LINE
  8
0
 10
95.025
 11
69.975
 20
86.975
 21
86.975
  0
LINE
  8
0
 10
96.75
 11
96.75
 20
126.5
 21
218.75
  0
LINE
  8
0
 10
96.75
 11
127
 20
218.75
 21
218.75
  0
LINE
  8
0
 10
127
 11
127
 20
218.75
 21
215.775
  0
LINE
  8
0
 10
127
 11
114.475
 20
215.775
 21
215.775
  0
LINE
  8
0
 10
114.475
 11
114.475
 20
215.775
 21
213.475
  0
LINE
  8
0
 10
114.475
 11
127
 20
213.475
 21
213.475
  0
LINE
  8
0
 10
127
 11
127
 20
213.475
 21
126.5
  0
LINE
  8
0
 10
127
 11
102.025
 20
126.5
 21
126.5
  0
LINE
  8
0
 10
102.025
 11
102.025
 20
126.5
 21
172.65
  0
LINE
  8
0
 10
102.025
 11
99.725
 20
172.65
 21
172.65
  0
LINE
  8
0
 10
99.725
 11
99.725
 20
172.65
 21
126.5
  0
LINE
  8
0
 10
99.725
 11
96.75
 20
126.5
 21
126.5
  0
LINE
  8
0
 10
122.225
 11
122.225
 20
86.975
 21
89.275
  0
LINE
  8
0
 10
122.225
 11
147.275
 20
89.275
 21
89.275
  0
LINE
  8
0
 10
147.275
 11
147.275
 20
89.275
 21
86.975
  0
LINE
  8
0
 10
147.275
 11
122.225
 20
86.975
 21
86.975
  0
LINE
  8
0
 10
129
 11
129
 20
126.5
 21
218.75
  0
LINE
  8
0
 10
129
 11
159.25
 20
218.75
 21
218.75
  0
LINE
  8
0
 10
159.25
 11
159.25
 20
218.75
 21
215.775
  0
LINE
  8
0
 10
159.25
 11
146.725
 20
215.775
 21
215.775
  0
LINE
  8
0
 10
146.725
 11
146.725
 20
215.775
 21
213.475
  0
LINE
  8
0
 10
146.725
 11
159.25
 20
213.475
 21
213.475
  0
LINE
  8
0
 10
159.25
 11
159.25
 20
213.475
 21
126.5
  0
LINE
  8
0
 10
159.25
 11
134.275
 20
126.5
 21
126.5
  0
LINE
  8
0
 10
134.275
 11
134.275
 20
126.5
 21
172.65
  0
LINE
  8
0
 10
134.275
 11
131.975
 20
172.65
 21
172.65
  0
LINE
  8
0
 10
131.975
 11
131.975
 20
172.65
 21
126.5
  0
LINE
  8
0
 10
131.975
 11
129
 20
126.5
 21
126.5
  0
LINE
  8
0
 10
174.475
 11
174.475
 20
86.975
 21
89.275
  0
LINE
  8
0
 10
174.475
 11
199.525
 20
89.275
 21
89.275
  0
LINE
  8
0
 10
199.525
 11
199.525
 20
89.275
 21
86.975
  0
LINE
  8
0
 10
199.525
 11
174.475
 20
86.975
 21
86.975
  0
ENDSEC
  0
SECTION
  2
OBJECTS
  0
DICTIONARY
  0
ENDSEC
  0
EOF
