solid OpenSCAD_Model
  facet normal -1 0 0
    outer loop
      vertex -1.92 69.73 -0.6
      vertex -1.92 45.7403 12.4
      vertex -1.92 69.73 12.4
    endloop
  endfacet
  facet normal -1 0 0
    outer loop
      vertex -1.92 69.73 -0.6
      vertex -1.92 44.5114 10.7087
      vertex -1.92 45.7403 12.4
    endloop
  endfacet
  facet normal -1 0 0
    outer loop
      vertex -1.92 69.73 -0.6
      vertex -1.92 42.9579 9.30983
      vertex -1.92 44.5114 10.7087
    endloop
  endfacet
  facet normal -1 0 0
    outer loop
      vertex -1.92 69.73 -0.6
      vertex -1.92 41.1474 8.26454
      vertex -1.92 42.9579 9.30983
    endloop
  endfacet
  facet normal -1 0 0
    outer loop
      vertex -1.92 69.73 -0.6
      vertex -1.92 39.1591 7.61852
      vertex -1.92 41.1474 8.26454
    endloop
  endfacet
  facet normal -1 0 0
    outer loop
      vertex -1.92 69.73 -0.6
      vertex -1.92 37.08 7.4
      vertex -1.92 39.1591 7.61852
    endloop
  endfacet
  facet normal -1 0 0
    outer loop
      vertex -1.92 4.43 -0.6
      vertex -1.92 37.08 7.4
      vertex -1.92 69.73 -0.6
    endloop
  endfacet
  facet normal -1 -0 0
    outer loop
      vertex -1.92 37.08 7.4
      vertex -1.92 4.43 -0.6
      vertex -1.92 35.0009 7.61852
    endloop
  endfacet
  facet normal -1 0 0
    outer loop
      vertex -1.92 4.43 -0.6
      vertex -1.92 33.0126 8.26454
      vertex -1.92 35.0009 7.61852
    endloop
  endfacet
  facet normal -1 0 0
    outer loop
      vertex -1.92 4.43 -0.6
      vertex -1.92 31.2021 9.30983
      vertex -1.92 33.0126 8.26454
    endloop
  endfacet
  facet normal -1 0 0
    outer loop
      vertex -1.92 4.43 -0.6
      vertex -1.92 29.6486 10.7087
      vertex -1.92 31.2021 9.30983
    endloop
  endfacet
  facet normal -1 0 0
    outer loop
      vertex -1.92 4.43 -0.6
      vertex -1.92 28.4197 12.4
      vertex -1.92 29.6486 10.7087
    endloop
  endfacet
  facet normal -1 -0 0
    outer loop
      vertex -1.92 28.4197 12.4
      vertex -1.92 4.43 -0.6
      vertex -1.92 4.43 12.4
    endloop
  endfacet
  facet normal 0 0 1
    outer loop
      vertex -1.06 28.4197 12.4
      vertex -1.92 28.4197 12.4
      vertex -1.06 5.18071 12.4
    endloop
  endfacet
  facet normal 0 0 1
    outer loop
      vertex 104.84 5.19673 12.4
      vertex 105.7 28.4197 12.4
      vertex 104.84 28.4197 12.4
    endloop
  endfacet
  facet normal 0 0 1
    outer loop
      vertex 105.7 28.4197 12.4
      vertex 104.84 5.19673 12.4
      vertex 105.7 4.43 12.4
    endloop
  endfacet
  facet normal 0 0 1
    outer loop
      vertex 104.84 5.19673 12.4
      vertex 103.738 4.11921 12.4
      vertex 105.7 4.43 12.4
    endloop
  endfacet
  facet normal -0 0 1
    outer loop
      vertex 103.286 4.8737 12.4
      vertex 103.738 4.11921 12.4
      vertex 104.84 5.19673 12.4
    endloop
  endfacet
  facet normal 0 0 1
    outer loop
      vertex 103.286 4.8737 12.4
      vertex 101.968 3.21726 12.4
      vertex 103.738 4.11921 12.4
    endloop
  endfacet
  facet normal -0 0 1
    outer loop
      vertex 101.542 3.97035 12.4
      vertex 101.968 3.21726 12.4
      vertex 103.286 4.8737 12.4
    endloop
  endfacet
  facet normal 0 0 1
    outer loop
      vertex 100.107 2.63014 12.4
      vertex 101.968 3.21726 12.4
      vertex 101.542 3.97035 12.4
    endloop
  endfacet
  facet normal 0 0 1
    outer loop
      vertex 101.968 3.21726 12.4
      vertex 100.107 2.63014 12.4
      vertex 100.563 1.81244 12.4
    endloop
  endfacet
  facet normal 0 0 1
    outer loop
      vertex 99.0869 0.952472 12.4
      vertex 100.563 1.81244 12.4
      vertex 100.107 2.63014 12.4
    endloop
  endfacet
  facet normal 0 0 1
    outer loop
      vertex 100.563 1.81244 12.4
      vertex 99.0869 0.952472 12.4
      vertex 99.6608 0.0422574 12.4
    endloop
  endfacet
  facet normal 0 0 1
    outer loop
      vertex 98.5572 -0.938239 12.4
      vertex 99.6608 0.0422574 12.4
      vertex 99.0869 0.952472 12.4
    endloop
  endfacet
  facet normal 0 0 1
    outer loop
      vertex 99.6608 0.0422574 12.4
      vertex 98.5572 -0.938239 12.4
      vertex 99.35 -1.92 12.4
    endloop
  endfacet
  facet normal -0 0 1
    outer loop
      vertex 98.5572 -1.06 12.4
      vertex 99.35 -1.92 12.4
      vertex 98.5572 -0.938239 12.4
    endloop
  endfacet
  facet normal 0 0 1
    outer loop
      vertex 4.43 -1.92 12.4
      vertex 98.5572 -1.06 12.4
      vertex 5.1718 -1.06 12.4
    endloop
  endfacet
  facet normal 0 0 1
    outer loop
      vertex 98.5572 -1.06 12.4
      vertex 4.43 -1.92 12.4
      vertex 99.35 -1.92 12.4
    endloop
  endfacet
  facet normal 0 0 1
    outer loop
      vertex 4.11921 0.0422574 12.4
      vertex 5.1718 -1.06 12.4
      vertex 5.02263 0.0252343 12.4
    endloop
  endfacet
  facet normal -0 0 1
    outer loop
      vertex 4.11921 0.0422574 12.4
      vertex 5.02263 0.0252343 12.4
      vertex 4.24036 1.8262 12.4
    endloop
  endfacet
  facet normal 0 0 1
    outer loop
      vertex 5.1718 -1.06 12.4
      vertex 4.11921 0.0422574 12.4
      vertex 4.43 -1.92 12.4
    endloop
  endfacet
  facet normal 0 0 1
    outer loop
      vertex 4.24036 1.8262 12.4
      vertex 3.21726 1.81244 12.4
      vertex 4.11921 0.0422574 12.4
    endloop
  endfacet
  facet normal 0 0 1
    outer loop
      vertex 3.00121 3.34933 12.4
      vertex 3.21726 1.81244 12.4
      vertex 4.24036 1.8262 12.4
    endloop
  endfacet
  facet normal 0 0 1
    outer loop
      vertex 3.00121 3.34933 12.4
      vertex 1.81244 3.21726 12.4
      vertex 3.21726 1.81244 12.4
    endloop
  endfacet
  facet normal 0 0 1
    outer loop
      vertex 1.39707 4.48165 12.4
      vertex 1.81244 3.21726 12.4
      vertex 3.00121 3.34933 12.4
    endloop
  endfacet
  facet normal 0 0 1
    outer loop
      vertex 1.39707 4.48165 12.4
      vertex 0.0422574 4.11921 12.4
      vertex 1.81244 3.21726 12.4
    endloop
  endfacet
  facet normal 0 0 1
    outer loop
      vertex -0.453083 5.1392 12.4
      vertex 0.0422574 4.11921 12.4
      vertex 1.39707 4.48165 12.4
    endloop
  endfacet
  facet normal 0 0 1
    outer loop
      vertex -1.06 5.18071 12.4
      vertex 0.0422574 4.11921 12.4
      vertex -0.453083 5.1392 12.4
    endloop
  endfacet
  facet normal 0 0 1
    outer loop
      vertex -1.06 5.18071 12.4
      vertex -1.92 4.43 12.4
      vertex 0.0422574 4.11921 12.4
    endloop
  endfacet
  facet normal 0 0 1
    outer loop
      vertex -1.92 4.43 12.4
      vertex -1.06 5.18071 12.4
      vertex -1.92 28.4197 12.4
    endloop
  endfacet
  facet normal 0 0 1
    outer loop
      vertex 105.7 69.73 12.4
      vertex 104.84 68.9633 12.4
      vertex 105.7 45.7403 12.4
    endloop
  endfacet
  facet normal 0 0 1
    outer loop
      vertex 103.738 70.0408 12.4
      vertex 104.84 68.9633 12.4
      vertex 105.7 69.73 12.4
    endloop
  endfacet
  facet normal 0 0 1
    outer loop
      vertex 103.738 70.0408 12.4
      vertex 103.286 69.2863 12.4
      vertex 104.84 68.9633 12.4
    endloop
  endfacet
  facet normal 0 0 1
    outer loop
      vertex 101.968 70.9427 12.4
      vertex 103.286 69.2863 12.4
      vertex 103.738 70.0408 12.4
    endloop
  endfacet
  facet normal 0 0 1
    outer loop
      vertex 101.968 70.9427 12.4
      vertex 101.542 70.1896 12.4
      vertex 103.286 69.2863 12.4
    endloop
  endfacet
  facet normal -0 0 1
    outer loop
      vertex 100.107 71.5299 12.4
      vertex 101.968 70.9427 12.4
      vertex 100.563 72.3476 12.4
    endloop
  endfacet
  facet normal 0 0 1
    outer loop
      vertex 101.968 70.9427 12.4
      vertex 100.107 71.5299 12.4
      vertex 101.542 70.1896 12.4
    endloop
  endfacet
  facet normal -0 0 1
    outer loop
      vertex 99.0869 73.2075 12.4
      vertex 100.563 72.3476 12.4
      vertex 99.6608 74.1177 12.4
    endloop
  endfacet
  facet normal 0 0 1
    outer loop
      vertex 100.563 72.3476 12.4
      vertex 99.0869 73.2075 12.4
      vertex 100.107 71.5299 12.4
    endloop
  endfacet
  facet normal -0 0 1
    outer loop
      vertex 98.5572 75.0982 12.4
      vertex 99.6608 74.1177 12.4
      vertex 99.35 76.08 12.4
    endloop
  endfacet
  facet normal 0 0 1
    outer loop
      vertex 98.5572 75.0982 12.4
      vertex 99.35 76.08 12.4
      vertex 98.5572 75.22 12.4
    endloop
  endfacet
  facet normal -0 0 1
    outer loop
      vertex 4.43 76.08 12.4
      vertex 98.5572 75.22 12.4
      vertex 99.35 76.08 12.4
    endloop
  endfacet
  facet normal 0 0 1
    outer loop
      vertex 98.5572 75.22 12.4
      vertex 4.43 76.08 12.4
      vertex 5.1718 75.22 12.4
    endloop
  endfacet
  facet normal 0 0 1
    outer loop
      vertex 4.11921 74.1177 12.4
      vertex 5.1718 75.22 12.4
      vertex 4.43 76.08 12.4
    endloop
  endfacet
  facet normal 0 0 1
    outer loop
      vertex 5.1718 75.22 12.4
      vertex 4.11921 74.1177 12.4
      vertex 5.02263 74.1348 12.4
    endloop
  endfacet
  facet normal 0 0 1
    outer loop
      vertex 5.02263 74.1348 12.4
      vertex 4.11921 74.1177 12.4
      vertex 4.24036 72.3338 12.4
    endloop
  endfacet
  facet normal -0 0 1
    outer loop
      vertex 3.21726 72.3476 12.4
      vertex 4.24036 72.3338 12.4
      vertex 4.11921 74.1177 12.4
    endloop
  endfacet
  facet normal 0 0 1
    outer loop
      vertex 3.21726 72.3476 12.4
      vertex 3.00121 70.8107 12.4
      vertex 4.24036 72.3338 12.4
    endloop
  endfacet
  facet normal -0 0 1
    outer loop
      vertex 1.81244 70.9427 12.4
      vertex 3.00121 70.8107 12.4
      vertex 3.21726 72.3476 12.4
    endloop
  endfacet
  facet normal 0 0 1
    outer loop
      vertex 1.81244 70.9427 12.4
      vertex 1.39707 69.6783 12.4
      vertex 3.00121 70.8107 12.4
    endloop
  endfacet
  facet normal -0 0 1
    outer loop
      vertex 0.0422574 70.0408 12.4
      vertex 1.39707 69.6783 12.4
      vertex 1.81244 70.9427 12.4
    endloop
  endfacet
  facet normal 0 0 1
    outer loop
      vertex 0.0422574 70.0408 12.4
      vertex -0.453083 69.0208 12.4
      vertex 1.39707 69.6783 12.4
    endloop
  endfacet
  facet normal 0 0 1
    outer loop
      vertex 0.0422574 70.0408 12.4
      vertex -1.06 68.9793 12.4
      vertex -0.453083 69.0208 12.4
    endloop
  endfacet
  facet normal -0 0 1
    outer loop
      vertex -1.92 69.73 12.4
      vertex -1.06 68.9793 12.4
      vertex 0.0422574 70.0408 12.4
    endloop
  endfacet
  facet normal 0 0 1
    outer loop
      vertex -1.92 45.7403 12.4
      vertex -1.06 68.9793 12.4
      vertex -1.92 69.73 12.4
    endloop
  endfacet
  facet normal 0 0 1
    outer loop
      vertex -1.06 68.9793 12.4
      vertex -1.92 45.7403 12.4
      vertex -1.06 45.7403 12.4
    endloop
  endfacet
  facet normal 0 0 1
    outer loop
      vertex 105.7 45.7403 12.4
      vertex 104.84 68.9633 12.4
      vertex 104.84 45.7403 12.4
    endloop
  endfacet
  facet normal 0 0 1
    outer loop
      vertex 99.6608 74.1177 12.4
      vertex 98.5572 75.0982 12.4
      vertex 99.0869 73.2075 12.4
    endloop
  endfacet
  facet normal 1 -0 0
    outer loop
      vertex 105.7 45.7403 12.4
      vertex 105.7 69.73 -0.6
      vertex 105.7 69.73 12.4
    endloop
  endfacet
  facet normal 1 -0 0
    outer loop
      vertex 105.7 44.5114 10.7087
      vertex 105.7 69.73 -0.6
      vertex 105.7 45.7403 12.4
    endloop
  endfacet
  facet normal 1 -0 0
    outer loop
      vertex 105.7 42.9579 9.30983
      vertex 105.7 69.73 -0.6
      vertex 105.7 44.5114 10.7087
    endloop
  endfacet
  facet normal 1 -0 0
    outer loop
      vertex 105.7 41.1474 8.26454
      vertex 105.7 69.73 -0.6
      vertex 105.7 42.9579 9.30983
    endloop
  endfacet
  facet normal 1 -0 0
    outer loop
      vertex 105.7 39.1591 7.61852
      vertex 105.7 69.73 -0.6
      vertex 105.7 41.1474 8.26454
    endloop
  endfacet
  facet normal 1 -0 0
    outer loop
      vertex 105.7 37.08 7.4
      vertex 105.7 69.73 -0.6
      vertex 105.7 39.1591 7.61852
    endloop
  endfacet
  facet normal 1 0 0
    outer loop
      vertex 105.7 4.43 -0.6
      vertex 105.7 37.08 7.4
      vertex 105.7 35.0009 7.61852
    endloop
  endfacet
  facet normal 1 0 0
    outer loop
      vertex 105.7 4.43 -0.6
      vertex 105.7 28.4197 12.4
      vertex 105.7 4.43 12.4
    endloop
  endfacet
  facet normal 1 0 0
    outer loop
      vertex 105.7 28.4197 12.4
      vertex 105.7 4.43 -0.6
      vertex 105.7 29.6486 10.7087
    endloop
  endfacet
  facet normal 1 0 0
    outer loop
      vertex 105.7 29.6486 10.7087
      vertex 105.7 4.43 -0.6
      vertex 105.7 31.2021 9.30983
    endloop
  endfacet
  facet normal 1 0 0
    outer loop
      vertex 105.7 31.2021 9.30983
      vertex 105.7 4.43 -0.6
      vertex 105.7 33.0126 8.26454
    endloop
  endfacet
  facet normal 1 0 0
    outer loop
      vertex 105.7 33.0126 8.26454
      vertex 105.7 4.43 -0.6
      vertex 105.7 35.0009 7.61852
    endloop
  endfacet
  facet normal 1 0 0
    outer loop
      vertex 105.7 37.08 7.4
      vertex 105.7 4.43 -0.6
      vertex 105.7 69.73 -0.6
    endloop
  endfacet
  facet normal 0 1 -0
    outer loop
      vertex 99.35 76.08 -0.6
      vertex 4.43 76.08 12.4
      vertex 99.35 76.08 12.4
    endloop
  endfacet
  facet normal 0 1 0
    outer loop
      vertex 4.43 76.08 12.4
      vertex 99.35 76.08 -0.6
      vertex 4.43 76.08 -0.6
    endloop
  endfacet
  facet normal 0 0 -1
    outer loop
      vertex 70.89 37.28 -0.6
      vertex 105.7 4.43 -0.6
      vertex 103.738 4.11921 -0.6
    endloop
  endfacet
  facet normal 0 0 -1
    outer loop
      vertex 105.7 4.43 -0.6
      vertex 70.89 37.28 -0.6
      vertex 105.7 69.73 -0.6
    endloop
  endfacet
  facet normal 0 0 -1
    outer loop
      vertex 70.4748 33.3297 -0.6
      vertex 103.738 4.11921 -0.6
      vertex 101.968 3.21726 -0.6
    endloop
  endfacet
  facet normal -0 0 -1
    outer loop
      vertex 105.7 69.73 -0.6
      vertex 70.89 37.28 -0.6
      vertex 103.738 70.0408 -0.6
    endloop
  endfacet
  facet normal 0 0 -1
    outer loop
      vertex 69.2474 29.552 -0.6
      vertex 101.968 3.21726 -0.6
      vertex 100.563 1.81244 -0.6
    endloop
  endfacet
  facet normal 0 0 -1
    outer loop
      vertex 70.4748 41.2303 -0.6
      vertex 103.738 70.0408 -0.6
      vertex 70.89 37.28 -0.6
    endloop
  endfacet
  facet normal 0 0 -1
    outer loop
      vertex 67.2613 26.1121 -0.6
      vertex 100.563 1.81244 -0.6
      vertex 99.6608 0.0422574 -0.6
    endloop
  endfacet
  facet normal -0 0 -1
    outer loop
      vertex 103.738 70.0408 -0.6
      vertex 70.4748 41.2303 -0.6
      vertex 101.968 70.9427 -0.6
    endloop
  endfacet
  facet normal 0 0 -1
    outer loop
      vertex 61.39 20.8255 -0.6
      vertex 99.6608 0.0422574 -0.6
      vertex 99.35 -1.92 -0.6
    endloop
  endfacet
  facet normal 0 0 -1
    outer loop
      vertex 69.2474 45.008 -0.6
      vertex 101.968 70.9427 -0.6
      vertex 70.4748 41.2303 -0.6
    endloop
  endfacet
  facet normal -0 0 -1
    outer loop
      vertex 101.968 70.9427 -0.6
      vertex 69.2474 45.008 -0.6
      vertex 100.563 72.3476 -0.6
    endloop
  endfacet
  facet normal 0 0 -1
    outer loop
      vertex 103.738 4.11921 -0.6
      vertex 70.4748 33.3297 -0.6
      vertex 70.89 37.28 -0.6
    endloop
  endfacet
  facet normal 0 0 -1
    outer loop
      vertex 101.968 3.21726 -0.6
      vertex 69.2474 29.552 -0.6
      vertex 70.4748 33.3297 -0.6
    endloop
  endfacet
  facet normal 0 0 -1
    outer loop
      vertex 100.563 1.81244 -0.6
      vertex 67.2613 26.1121 -0.6
      vertex 69.2474 29.552 -0.6
    endloop
  endfacet
  facet normal 0 0 -1
    outer loop
      vertex 99.6608 0.0422574 -0.6
      vertex 64.6035 23.1602 -0.6
      vertex 67.2613 26.1121 -0.6
    endloop
  endfacet
  facet normal 0 0 -1
    outer loop
      vertex 99.6608 0.0422574 -0.6
      vertex 61.39 20.8255 -0.6
      vertex 64.6035 23.1602 -0.6
    endloop
  endfacet
  facet normal 0 0 -1
    outer loop
      vertex 99.35 -1.92 -0.6
      vertex 57.7613 19.2099 -0.6
      vertex 61.39 20.8255 -0.6
    endloop
  endfacet
  facet normal 0 0 -1
    outer loop
      vertex 99.35 -1.92 -0.6
      vertex 53.876 18.3841 -0.6
      vertex 57.7613 19.2099 -0.6
    endloop
  endfacet
  facet normal 0 0 -1
    outer loop
      vertex 99.35 -1.92 -0.6
      vertex 49.904 18.3841 -0.6
      vertex 53.876 18.3841 -0.6
    endloop
  endfacet
  facet normal 0 0 -1
    outer loop
      vertex 4.43 -1.92 -0.6
      vertex 49.904 18.3841 -0.6
      vertex 99.35 -1.92 -0.6
    endloop
  endfacet
  facet normal -0 0 -1
    outer loop
      vertex 36.5187 26.1121 -0.6
      vertex 3.21726 1.81244 -0.6
      vertex 34.5326 29.552 -0.6
    endloop
  endfacet
  facet normal 0 0 -1
    outer loop
      vertex 3.21726 1.81244 -0.6
      vertex 36.5187 26.1121 -0.6
      vertex 4.11921 0.0422574 -0.6
    endloop
  endfacet
  facet normal -0 0 -1
    outer loop
      vertex 39.1765 23.1602 -0.6
      vertex 4.11921 0.0422574 -0.6
      vertex 36.5187 26.1121 -0.6
    endloop
  endfacet
  facet normal -0 0 -1
    outer loop
      vertex 42.39 20.8255 -0.6
      vertex 4.11921 0.0422574 -0.6
      vertex 39.1765 23.1602 -0.6
    endloop
  endfacet
  facet normal 0 0 -1
    outer loop
      vertex 4.11921 0.0422574 -0.6
      vertex 42.39 20.8255 -0.6
      vertex 4.43 -1.92 -0.6
    endloop
  endfacet
  facet normal -0 0 -1
    outer loop
      vertex 46.0187 19.2099 -0.6
      vertex 4.43 -1.92 -0.6
      vertex 42.39 20.8255 -0.6
    endloop
  endfacet
  facet normal -0 0 -1
    outer loop
      vertex 49.904 18.3841 -0.6
      vertex 4.43 -1.92 -0.6
      vertex 46.0187 19.2099 -0.6
    endloop
  endfacet
  facet normal 0 0 -1
    outer loop
      vertex 67.2613 48.4479 -0.6
      vertex 100.563 72.3476 -0.6
      vertex 69.2474 45.008 -0.6
    endloop
  endfacet
  facet normal -0 0 -1
    outer loop
      vertex 100.563 72.3476 -0.6
      vertex 67.2613 48.4479 -0.6
      vertex 99.6608 74.1177 -0.6
    endloop
  endfacet
  facet normal 0 0 -1
    outer loop
      vertex 64.6035 51.3997 -0.6
      vertex 99.6608 74.1177 -0.6
      vertex 67.2613 48.4479 -0.6
    endloop
  endfacet
  facet normal -0 0 -1
    outer loop
      vertex 99.6608 74.1177 -0.6
      vertex 64.6035 51.3997 -0.6
      vertex 99.35 76.08 -0.6
    endloop
  endfacet
  facet normal 0 0 -1
    outer loop
      vertex 61.39 53.7345 -0.6
      vertex 99.35 76.08 -0.6
      vertex 64.6035 51.3997 -0.6
    endloop
  endfacet
  facet normal 0 0 -1
    outer loop
      vertex 57.7613 55.3501 -0.6
      vertex 99.35 76.08 -0.6
      vertex 61.39 53.7345 -0.6
    endloop
  endfacet
  facet normal 0 0 -1
    outer loop
      vertex 53.876 56.1759 -0.6
      vertex 99.35 76.08 -0.6
      vertex 57.7613 55.3501 -0.6
    endloop
  endfacet
  facet normal 0 0 -1
    outer loop
      vertex 49.904 56.1759 -0.6
      vertex 99.35 76.08 -0.6
      vertex 53.876 56.1759 -0.6
    endloop
  endfacet
  facet normal 0 0 -1
    outer loop
      vertex 4.43 76.08 -0.6
      vertex 49.904 56.1759 -0.6
      vertex 46.0187 55.3501 -0.6
    endloop
  endfacet
  facet normal 0 0 -1
    outer loop
      vertex 1.81244 3.21726 -0.6
      vertex 34.5326 29.552 -0.6
      vertex 3.21726 1.81244 -0.6
    endloop
  endfacet
  facet normal -0 0 -1
    outer loop
      vertex 34.5326 29.552 -0.6
      vertex 1.81244 3.21726 -0.6
      vertex 33.3052 33.3297 -0.6
    endloop
  endfacet
  facet normal 0 0 -1
    outer loop
      vertex 0.0422574 4.11921 -0.6
      vertex 33.3052 33.3297 -0.6
      vertex 1.81244 3.21726 -0.6
    endloop
  endfacet
  facet normal 0 0 -1
    outer loop
      vertex 49.904 56.1759 -0.6
      vertex 4.43 76.08 -0.6
      vertex 99.35 76.08 -0.6
    endloop
  endfacet
  facet normal 0 0 -1
    outer loop
      vertex 42.39 53.7345 -0.6
      vertex 4.43 76.08 -0.6
      vertex 46.0187 55.3501 -0.6
    endloop
  endfacet
  facet normal 0 0 -1
    outer loop
      vertex 39.1765 51.3997 -0.6
      vertex 4.43 76.08 -0.6
      vertex 42.39 53.7345 -0.6
    endloop
  endfacet
  facet normal 0 0 -1
    outer loop
      vertex 4.11921 74.1177 -0.6
      vertex 39.1765 51.3997 -0.6
      vertex 36.5187 48.4479 -0.6
    endloop
  endfacet
  facet normal -0 0 -1
    outer loop
      vertex 33.3052 33.3297 -0.6
      vertex 0.0422574 4.11921 -0.6
      vertex 32.89 37.28 -0.6
    endloop
  endfacet
  facet normal 0 0 -1
    outer loop
      vertex -1.92 4.43 -0.6
      vertex 32.89 37.28 -0.6
      vertex 0.0422574 4.11921 -0.6
    endloop
  endfacet
  facet normal 0 0 -1
    outer loop
      vertex 39.1765 51.3997 -0.6
      vertex 4.11921 74.1177 -0.6
      vertex 4.43 76.08 -0.6
    endloop
  endfacet
  facet normal 0 0 -1
    outer loop
      vertex -1.92 69.73 -0.6
      vertex 32.89 37.28 -0.6
      vertex -1.92 4.43 -0.6
    endloop
  endfacet
  facet normal 0 0 -1
    outer loop
      vertex 36.5187 48.4479 -0.6
      vertex 3.21726 72.3476 -0.6
      vertex 4.11921 74.1177 -0.6
    endloop
  endfacet
  facet normal 0 -0 -1
    outer loop
      vertex 0.0422574 70.0408 -0.6
      vertex 32.89 37.28 -0.6
      vertex -1.92 69.73 -0.6
    endloop
  endfacet
  facet normal 0 0 -1
    outer loop
      vertex 34.5326 45.008 -0.6
      vertex 3.21726 72.3476 -0.6
      vertex 36.5187 48.4479 -0.6
    endloop
  endfacet
  facet normal 0 0 -1
    outer loop
      vertex 33.3052 41.2303 -0.6
      vertex 1.81244 70.9427 -0.6
      vertex 34.5326 45.008 -0.6
    endloop
  endfacet
  facet normal 0 -0 -1
    outer loop
      vertex 3.21726 72.3476 -0.6
      vertex 34.5326 45.008 -0.6
      vertex 1.81244 70.9427 -0.6
    endloop
  endfacet
  facet normal 0 0 -1
    outer loop
      vertex 32.89 37.28 -0.6
      vertex 0.0422574 70.0408 -0.6
      vertex 33.3052 41.2303 -0.6
    endloop
  endfacet
  facet normal 0 -0 -1
    outer loop
      vertex 1.81244 70.9427 -0.6
      vertex 33.3052 41.2303 -0.6
      vertex 0.0422574 70.0408 -0.6
    endloop
  endfacet
  facet normal 0 -1 0
    outer loop
      vertex 4.43 -1.92 -0.6
      vertex 99.35 -1.92 12.4
      vertex 4.43 -1.92 12.4
    endloop
  endfacet
  facet normal 0 -1 -0
    outer loop
      vertex 99.35 -1.92 12.4
      vertex 4.43 -1.92 -0.6
      vertex 99.35 -1.92 -0.6
    endloop
  endfacet
  facet normal -0.45399 -0.891007 0
    outer loop
      vertex 0.0422574 4.11921 -0.6
      vertex 1.81244 3.21726 12.4
      vertex 0.0422574 4.11921 12.4
    endloop
  endfacet
  facet normal -0.45399 -0.891007 -0
    outer loop
      vertex 1.81244 3.21726 12.4
      vertex 0.0422574 4.11921 -0.6
      vertex 1.81244 3.21726 -0.6
    endloop
  endfacet
  facet normal -0.707107 -0.707107 0
    outer loop
      vertex 3.21726 1.81244 -0.6
      vertex 1.81244 3.21726 12.4
      vertex 1.81244 3.21726 -0.6
    endloop
  endfacet
  facet normal -0.707107 -0.707107 0
    outer loop
      vertex 1.81244 3.21726 12.4
      vertex 3.21726 1.81244 -0.6
      vertex 3.21726 1.81244 12.4
    endloop
  endfacet
  facet normal -0.891007 -0.45399 0
    outer loop
      vertex 4.11921 0.0422574 -0.6
      vertex 3.21726 1.81244 12.4
      vertex 3.21726 1.81244 -0.6
    endloop
  endfacet
  facet normal -0.891007 -0.45399 0
    outer loop
      vertex 3.21726 1.81244 12.4
      vertex 4.11921 0.0422574 -0.6
      vertex 4.11921 0.0422574 12.4
    endloop
  endfacet
  facet normal -0.156434 -0.987688 0
    outer loop
      vertex -1.92 4.43 -0.6
      vertex 0.0422574 4.11921 12.4
      vertex -1.92 4.43 12.4
    endloop
  endfacet
  facet normal -0.156434 -0.987688 -0
    outer loop
      vertex 0.0422574 4.11921 12.4
      vertex -1.92 4.43 -0.6
      vertex 0.0422574 4.11921 -0.6
    endloop
  endfacet
  facet normal -0.987688 -0.156434 0
    outer loop
      vertex 4.43 -1.92 -0.6
      vertex 4.11921 0.0422574 12.4
      vertex 4.11921 0.0422574 -0.6
    endloop
  endfacet
  facet normal -0.987688 -0.156434 0
    outer loop
      vertex 4.11921 0.0422574 12.4
      vertex 4.43 -1.92 -0.6
      vertex 4.43 -1.92 12.4
    endloop
  endfacet
  facet normal 0.987688 -0.156434 0
    outer loop
      vertex 99.35 -1.92 12.4
      vertex 99.6608 0.0422574 -0.6
      vertex 99.6608 0.0422574 12.4
    endloop
  endfacet
  facet normal 0.987688 -0.156434 0
    outer loop
      vertex 99.6608 0.0422574 -0.6
      vertex 99.35 -1.92 12.4
      vertex 99.35 -1.92 -0.6
    endloop
  endfacet
  facet normal 0.156434 -0.987688 0
    outer loop
      vertex 103.738 4.11921 -0.6
      vertex 105.7 4.43 12.4
      vertex 103.738 4.11921 12.4
    endloop
  endfacet
  facet normal 0.156434 -0.987688 0
    outer loop
      vertex 105.7 4.43 12.4
      vertex 103.738 4.11921 -0.6
      vertex 105.7 4.43 -0.6
    endloop
  endfacet
  facet normal 0.45399 -0.891007 0
    outer loop
      vertex 101.968 3.21726 -0.6
      vertex 103.738 4.11921 12.4
      vertex 101.968 3.21726 12.4
    endloop
  endfacet
  facet normal 0.45399 -0.891007 0
    outer loop
      vertex 103.738 4.11921 12.4
      vertex 101.968 3.21726 -0.6
      vertex 103.738 4.11921 -0.6
    endloop
  endfacet
  facet normal 0.707108 -0.707105 0
    outer loop
      vertex 100.563 1.81244 12.4
      vertex 101.968 3.21726 -0.6
      vertex 101.968 3.21726 12.4
    endloop
  endfacet
  facet normal 0.707108 -0.707105 0
    outer loop
      vertex 101.968 3.21726 -0.6
      vertex 100.563 1.81244 12.4
      vertex 100.563 1.81244 -0.6
    endloop
  endfacet
  facet normal 0.891006 -0.453992 0
    outer loop
      vertex 99.6608 0.0422574 12.4
      vertex 100.563 1.81244 -0.6
      vertex 100.563 1.81244 12.4
    endloop
  endfacet
  facet normal 0.891006 -0.453992 0
    outer loop
      vertex 100.563 1.81244 -0.6
      vertex 99.6608 0.0422574 12.4
      vertex 99.6608 0.0422574 -0.6
    endloop
  endfacet
  facet normal -0.987688 0.156434 0
    outer loop
      vertex 4.11921 74.1177 -0.6
      vertex 4.43 76.08 12.4
      vertex 4.43 76.08 -0.6
    endloop
  endfacet
  facet normal -0.987688 0.156434 0
    outer loop
      vertex 4.43 76.08 12.4
      vertex 4.11921 74.1177 -0.6
      vertex 4.11921 74.1177 12.4
    endloop
  endfacet
  facet normal -0.707107 0.707106 0
    outer loop
      vertex 1.81244 70.9427 -0.6
      vertex 3.21726 72.3476 12.4
      vertex 3.21726 72.3476 -0.6
    endloop
  endfacet
  facet normal -0.707107 0.707106 0
    outer loop
      vertex 3.21726 72.3476 12.4
      vertex 1.81244 70.9427 -0.6
      vertex 1.81244 70.9427 12.4
    endloop
  endfacet
  facet normal -0.453989 0.891007 0
    outer loop
      vertex 1.81244 70.9427 -0.6
      vertex 0.0422574 70.0408 12.4
      vertex 1.81244 70.9427 12.4
    endloop
  endfacet
  facet normal -0.453989 0.891007 0
    outer loop
      vertex 0.0422574 70.0408 12.4
      vertex 1.81244 70.9427 -0.6
      vertex 0.0422574 70.0408 -0.6
    endloop
  endfacet
  facet normal -0.891007 0.45399 0
    outer loop
      vertex 3.21726 72.3476 -0.6
      vertex 4.11921 74.1177 12.4
      vertex 4.11921 74.1177 -0.6
    endloop
  endfacet
  facet normal -0.891007 0.45399 0
    outer loop
      vertex 4.11921 74.1177 12.4
      vertex 3.21726 72.3476 -0.6
      vertex 3.21726 72.3476 12.4
    endloop
  endfacet
  facet normal -0.156434 0.987688 0
    outer loop
      vertex 0.0422574 70.0408 -0.6
      vertex -1.92 69.73 12.4
      vertex 0.0422574 70.0408 12.4
    endloop
  endfacet
  facet normal -0.156434 0.987688 0
    outer loop
      vertex -1.92 69.73 12.4
      vertex 0.0422574 70.0408 -0.6
      vertex -1.92 69.73 -0.6
    endloop
  endfacet
  facet normal 0.453989 0.891007 -0
    outer loop
      vertex 103.738 70.0408 -0.6
      vertex 101.968 70.9427 12.4
      vertex 103.738 70.0408 12.4
    endloop
  endfacet
  facet normal 0.453989 0.891007 0
    outer loop
      vertex 101.968 70.9427 12.4
      vertex 103.738 70.0408 -0.6
      vertex 101.968 70.9427 -0.6
    endloop
  endfacet
  facet normal 0.891006 0.453992 0
    outer loop
      vertex 100.563 72.3476 12.4
      vertex 99.6608 74.1177 -0.6
      vertex 99.6608 74.1177 12.4
    endloop
  endfacet
  facet normal 0.891006 0.453992 0
    outer loop
      vertex 99.6608 74.1177 -0.6
      vertex 100.563 72.3476 12.4
      vertex 100.563 72.3476 -0.6
    endloop
  endfacet
  facet normal 0.987688 0.156434 0
    outer loop
      vertex 99.6608 74.1177 12.4
      vertex 99.35 76.08 -0.6
      vertex 99.35 76.08 12.4
    endloop
  endfacet
  facet normal 0.987688 0.156434 0
    outer loop
      vertex 99.35 76.08 -0.6
      vertex 99.6608 74.1177 12.4
      vertex 99.6608 74.1177 -0.6
    endloop
  endfacet
  facet normal 0.156434 0.987688 -0
    outer loop
      vertex 105.7 69.73 -0.6
      vertex 103.738 70.0408 12.4
      vertex 105.7 69.73 12.4
    endloop
  endfacet
  facet normal 0.156434 0.987688 0
    outer loop
      vertex 103.738 70.0408 12.4
      vertex 105.7 69.73 -0.6
      vertex 103.738 70.0408 -0.6
    endloop
  endfacet
  facet normal 0.707109 0.707105 0
    outer loop
      vertex 101.968 70.9427 12.4
      vertex 100.563 72.3476 -0.6
      vertex 100.563 72.3476 12.4
    endloop
  endfacet
  facet normal 0.707109 0.707105 0
    outer loop
      vertex 100.563 72.3476 -0.6
      vertex 101.968 70.9427 12.4
      vertex 101.968 70.9427 -0.6
    endloop
  endfacet
  facet normal 1 -0 0
    outer loop
      vertex -1.06 45.7403 12.4
      vertex -1.06 68.9793 -5.72205e-07
      vertex -1.06 68.9793 12.4
    endloop
  endfacet
  facet normal 1 -0 0
    outer loop
      vertex -1.06 44.5114 10.7087
      vertex -1.06 68.9793 -5.72205e-07
      vertex -1.06 45.7403 12.4
    endloop
  endfacet
  facet normal 1 -0 0
    outer loop
      vertex -1.06 42.9579 9.30983
      vertex -1.06 68.9793 -5.72205e-07
      vertex -1.06 44.5114 10.7087
    endloop
  endfacet
  facet normal 1 -0 0
    outer loop
      vertex -1.06 41.1474 8.26454
      vertex -1.06 68.9793 -5.72205e-07
      vertex -1.06 42.9579 9.30983
    endloop
  endfacet
  facet normal 1 -0 0
    outer loop
      vertex -1.06 39.1591 7.61852
      vertex -1.06 68.9793 -5.72205e-07
      vertex -1.06 41.1474 8.26454
    endloop
  endfacet
  facet normal 1 -0 0
    outer loop
      vertex -1.06 37.08 7.4
      vertex -1.06 68.9793 -5.72205e-07
      vertex -1.06 39.1591 7.61852
    endloop
  endfacet
  facet normal 1 0 0
    outer loop
      vertex -1.06 5.18071 -5.72205e-07
      vertex -1.06 37.08 7.4
      vertex -1.06 35.0009 7.61852
    endloop
  endfacet
  facet normal 1 0 0
    outer loop
      vertex -1.06 5.18071 -5.72205e-07
      vertex -1.06 28.4197 12.4
      vertex -1.06 5.18071 12.4
    endloop
  endfacet
  facet normal 1 0 0
    outer loop
      vertex -1.06 28.4197 12.4
      vertex -1.06 5.18071 -5.72205e-07
      vertex -1.06 29.6486 10.7087
    endloop
  endfacet
  facet normal 1 0 0
    outer loop
      vertex -1.06 29.6486 10.7087
      vertex -1.06 5.18071 -5.72205e-07
      vertex -1.06 31.2021 9.30983
    endloop
  endfacet
  facet normal 1 0 0
    outer loop
      vertex -1.06 31.2021 9.30983
      vertex -1.06 5.18071 -5.72205e-07
      vertex -1.06 33.0126 8.26454
    endloop
  endfacet
  facet normal 1 0 0
    outer loop
      vertex -1.06 33.0126 8.26454
      vertex -1.06 5.18071 -5.72205e-07
      vertex -1.06 35.0009 7.61852
    endloop
  endfacet
  facet normal 1 0 0
    outer loop
      vertex -1.06 37.08 7.4
      vertex -1.06 5.18071 -5.72205e-07
      vertex -1.06 68.9793 -5.72205e-07
    endloop
  endfacet
  facet normal -1 0 0
    outer loop
      vertex 104.84 68.9633 -5.72205e-07
      vertex 104.84 45.7403 12.4
      vertex 104.84 68.9633 12.4
    endloop
  endfacet
  facet normal -1 0 0
    outer loop
      vertex 104.84 68.9633 -5.72205e-07
      vertex 104.84 44.5114 10.7087
      vertex 104.84 45.7403 12.4
    endloop
  endfacet
  facet normal -1 0 0
    outer loop
      vertex 104.84 68.9633 -5.72205e-07
      vertex 104.84 42.9579 9.30983
      vertex 104.84 44.5114 10.7087
    endloop
  endfacet
  facet normal -1 0 0
    outer loop
      vertex 104.84 68.9633 -5.72205e-07
      vertex 104.84 41.1474 8.26454
      vertex 104.84 42.9579 9.30983
    endloop
  endfacet
  facet normal -1 0 0
    outer loop
      vertex 104.84 68.9633 -5.72205e-07
      vertex 104.84 39.1591 7.61852
      vertex 104.84 41.1474 8.26454
    endloop
  endfacet
  facet normal -1 0 0
    outer loop
      vertex 104.84 68.9633 -5.72205e-07
      vertex 104.84 37.08 7.4
      vertex 104.84 39.1591 7.61852
    endloop
  endfacet
  facet normal -1 0 0
    outer loop
      vertex 104.84 5.19673 -5.72205e-07
      vertex 104.84 37.08 7.4
      vertex 104.84 68.9633 -5.72205e-07
    endloop
  endfacet
  facet normal -1 -0 0
    outer loop
      vertex 104.84 37.08 7.4
      vertex 104.84 5.19673 -5.72205e-07
      vertex 104.84 35.0009 7.61852
    endloop
  endfacet
  facet normal -1 0 0
    outer loop
      vertex 104.84 5.19673 -5.72205e-07
      vertex 104.84 33.0126 8.26454
      vertex 104.84 35.0009 7.61852
    endloop
  endfacet
  facet normal -1 0 0
    outer loop
      vertex 104.84 5.19673 -5.72205e-07
      vertex 104.84 31.2021 9.30983
      vertex 104.84 33.0126 8.26454
    endloop
  endfacet
  facet normal -1 0 0
    outer loop
      vertex 104.84 5.19673 -5.72205e-07
      vertex 104.84 29.6486 10.7087
      vertex 104.84 31.2021 9.30983
    endloop
  endfacet
  facet normal -1 0 0
    outer loop
      vertex 104.84 5.19673 -5.72205e-07
      vertex 104.84 28.4197 12.4
      vertex 104.84 29.6486 10.7087
    endloop
  endfacet
  facet normal -1 -0 0
    outer loop
      vertex 104.84 28.4197 12.4
      vertex 104.84 5.19673 -5.72205e-07
      vertex 104.84 5.19673 12.4
    endloop
  endfacet
  facet normal 0 -1 0
    outer loop
      vertex 5.1718 75.22 -5.72205e-07
      vertex 98.5572 75.22 12.4
      vertex 5.1718 75.22 12.4
    endloop
  endfacet
  facet normal 0 -1 -0
    outer loop
      vertex 98.5572 75.22 12.4
      vertex 5.1718 75.22 -5.72205e-07
      vertex 98.5572 75.22 -5.72205e-07
    endloop
  endfacet
  facet normal 0 0 1
    outer loop
      vertex 61.39 53.7345 -5.72205e-07
      vertex 98.5572 75.0982 -5.72205e-07
      vertex 98.5572 75.22 -5.72205e-07
    endloop
  endfacet
  facet normal 0 0 1
    outer loop
      vertex 98.5572 75.0982 -5.72205e-07
      vertex 70.89 37.28 -5.72205e-07
      vertex 98.5572 -0.938239 -5.72205e-07
    endloop
  endfacet
  facet normal -0 0 1
    outer loop
      vertex 70.4748 33.3297 -5.72205e-07
      vertex 98.5572 -0.938239 -5.72205e-07
      vertex 70.89 37.28 -5.72205e-07
    endloop
  endfacet
  facet normal 0 0 1
    outer loop
      vertex 98.5572 75.0982 -5.72205e-07
      vertex 70.4748 41.2303 -5.72205e-07
      vertex 70.89 37.28 -5.72205e-07
    endloop
  endfacet
  facet normal 0 0 1
    outer loop
      vertex 98.5572 75.0982 -5.72205e-07
      vertex 69.2474 45.008 -5.72205e-07
      vertex 70.4748 41.2303 -5.72205e-07
    endloop
  endfacet
  facet normal 0 0 1
    outer loop
      vertex 98.5572 75.0982 -5.72205e-07
      vertex 67.2613 48.4479 -5.72205e-07
      vertex 69.2474 45.008 -5.72205e-07
    endloop
  endfacet
  facet normal 0 0 1
    outer loop
      vertex 98.5572 75.0982 -5.72205e-07
      vertex 64.6035 51.3997 -5.72205e-07
      vertex 67.2613 48.4479 -5.72205e-07
    endloop
  endfacet
  facet normal 0 0 1
    outer loop
      vertex 98.5572 75.0982 -5.72205e-07
      vertex 61.39 53.7345 -5.72205e-07
      vertex 64.6035 51.3997 -5.72205e-07
    endloop
  endfacet
  facet normal 0 0 1
    outer loop
      vertex 98.5572 75.22 -5.72205e-07
      vertex 57.7613 55.3501 -5.72205e-07
      vertex 61.39 53.7345 -5.72205e-07
    endloop
  endfacet
  facet normal 0 0 1
    outer loop
      vertex 98.5572 75.22 -5.72205e-07
      vertex 53.876 56.1759 -5.72205e-07
      vertex 57.7613 55.3501 -5.72205e-07
    endloop
  endfacet
  facet normal 0 0 1
    outer loop
      vertex 98.5572 75.22 -5.72205e-07
      vertex 49.904 56.1759 -5.72205e-07
      vertex 53.876 56.1759 -5.72205e-07
    endloop
  endfacet
  facet normal -0 0 1
    outer loop
      vertex 5.1718 75.22 -5.72205e-07
      vertex 49.904 56.1759 -5.72205e-07
      vertex 98.5572 75.22 -5.72205e-07
    endloop
  endfacet
  facet normal -0 0 1
    outer loop
      vertex 3.00121 70.8107 -5.72205e-07
      vertex 36.5187 48.4479 -5.72205e-07
      vertex 4.24036 72.3338 -5.72205e-07
    endloop
  endfacet
  facet normal 0 0 1
    outer loop
      vertex 39.1765 51.3997 -5.72205e-07
      vertex 4.24036 72.3338 -5.72205e-07
      vertex 36.5187 48.4479 -5.72205e-07
    endloop
  endfacet
  facet normal -0 0 1
    outer loop
      vertex 4.24036 72.3338 -5.72205e-07
      vertex 39.1765 51.3997 -5.72205e-07
      vertex 5.02263 74.1348 -5.72205e-07
    endloop
  endfacet
  facet normal 0 0 1
    outer loop
      vertex 42.39 53.7345 -5.72205e-07
      vertex 5.02263 74.1348 -5.72205e-07
      vertex 39.1765 51.3997 -5.72205e-07
    endloop
  endfacet
  facet normal -0 0 1
    outer loop
      vertex 5.02263 74.1348 -5.72205e-07
      vertex 42.39 53.7345 -5.72205e-07
      vertex 5.1718 75.22 -5.72205e-07
    endloop
  endfacet
  facet normal 0 0 1
    outer loop
      vertex 46.0187 55.3501 -5.72205e-07
      vertex 5.1718 75.22 -5.72205e-07
      vertex 42.39 53.7345 -5.72205e-07
    endloop
  endfacet
  facet normal 0 0 1
    outer loop
      vertex 49.904 56.1759 -5.72205e-07
      vertex 5.1718 75.22 -5.72205e-07
      vertex 46.0187 55.3501 -5.72205e-07
    endloop
  endfacet
  facet normal 0 0 1
    outer loop
      vertex 103.286 69.2863 -5.72205e-07
      vertex 104.84 5.19673 -5.72205e-07
      vertex 104.84 68.9633 -5.72205e-07
    endloop
  endfacet
  facet normal 0 0 1
    outer loop
      vertex 103.286 69.2863 -5.72205e-07
      vertex 103.286 4.8737 -5.72205e-07
      vertex 104.84 5.19673 -5.72205e-07
    endloop
  endfacet
  facet normal 0 0 1
    outer loop
      vertex 101.542 70.1896 -5.72205e-07
      vertex 103.286 4.8737 -5.72205e-07
      vertex 103.286 69.2863 -5.72205e-07
    endloop
  endfacet
  facet normal 0 0 1
    outer loop
      vertex 101.542 70.1896 -5.72205e-07
      vertex 101.542 3.97035 -5.72205e-07
      vertex 103.286 4.8737 -5.72205e-07
    endloop
  endfacet
  facet normal 0 0 1
    outer loop
      vertex 100.107 71.5299 -5.72205e-07
      vertex 101.542 3.97035 -5.72205e-07
      vertex 101.542 70.1896 -5.72205e-07
    endloop
  endfacet
  facet normal 0 0 1
    outer loop
      vertex 100.107 71.5299 -5.72205e-07
      vertex 100.107 2.63014 -5.72205e-07
      vertex 101.542 3.97035 -5.72205e-07
    endloop
  endfacet
  facet normal 0 0 1
    outer loop
      vertex 99.0869 73.2075 -5.72205e-07
      vertex 100.107 2.63014 -5.72205e-07
      vertex 100.107 71.5299 -5.72205e-07
    endloop
  endfacet
  facet normal 0 0 1
    outer loop
      vertex 99.0869 73.2075 -5.72205e-07
      vertex 99.0869 0.952472 -5.72205e-07
      vertex 100.107 2.63014 -5.72205e-07
    endloop
  endfacet
  facet normal 0 0 1
    outer loop
      vertex 98.5572 75.0982 -5.72205e-07
      vertex 99.0869 0.952472 -5.72205e-07
      vertex 99.0869 73.2075 -5.72205e-07
    endloop
  endfacet
  facet normal 0 0 1
    outer loop
      vertex 99.0869 0.952472 -5.72205e-07
      vertex 98.5572 75.0982 -5.72205e-07
      vertex 98.5572 -0.938239 -5.72205e-07
    endloop
  endfacet
  facet normal -0 0 1
    outer loop
      vertex 69.2474 29.552 -5.72205e-07
      vertex 98.5572 -0.938239 -5.72205e-07
      vertex 70.4748 33.3297 -5.72205e-07
    endloop
  endfacet
  facet normal -0 0 1
    outer loop
      vertex 67.2613 26.1121 -5.72205e-07
      vertex 98.5572 -0.938239 -5.72205e-07
      vertex 69.2474 29.552 -5.72205e-07
    endloop
  endfacet
  facet normal -0 0 1
    outer loop
      vertex 64.6035 23.1602 -5.72205e-07
      vertex 98.5572 -0.938239 -5.72205e-07
      vertex 67.2613 26.1121 -5.72205e-07
    endloop
  endfacet
  facet normal -0 0 1
    outer loop
      vertex 61.39 20.8255 -5.72205e-07
      vertex 98.5572 -0.938239 -5.72205e-07
      vertex 64.6035 23.1602 -5.72205e-07
    endloop
  endfacet
  facet normal 0 0 1
    outer loop
      vertex 98.5572 -0.938239 -5.72205e-07
      vertex 61.39 20.8255 -5.72205e-07
      vertex 98.5572 -1.06 -5.72205e-07
    endloop
  endfacet
  facet normal -0 0 1
    outer loop
      vertex 57.7613 19.2099 -5.72205e-07
      vertex 98.5572 -1.06 -5.72205e-07
      vertex 61.39 20.8255 -5.72205e-07
    endloop
  endfacet
  facet normal -0 0 1
    outer loop
      vertex 53.876 18.3841 -5.72205e-07
      vertex 98.5572 -1.06 -5.72205e-07
      vertex 57.7613 19.2099 -5.72205e-07
    endloop
  endfacet
  facet normal -0 0 1
    outer loop
      vertex 49.904 18.3841 -5.72205e-07
      vertex 98.5572 -1.06 -5.72205e-07
      vertex 53.876 18.3841 -5.72205e-07
    endloop
  endfacet
  facet normal 0 0 1
    outer loop
      vertex 5.1718 -1.06 -5.72205e-07
      vertex 49.904 18.3841 -5.72205e-07
      vertex 46.0187 19.2099 -5.72205e-07
    endloop
  endfacet
  facet normal 0 0 1
    outer loop
      vertex 36.5187 48.4479 -5.72205e-07
      vertex 3.00121 70.8107 -5.72205e-07
      vertex 34.5326 45.008 -5.72205e-07
    endloop
  endfacet
  facet normal -0 0 1
    outer loop
      vertex 1.39707 69.6783 -5.72205e-07
      vertex 34.5326 45.008 -5.72205e-07
      vertex 3.00121 70.8107 -5.72205e-07
    endloop
  endfacet
  facet normal 0 0 1
    outer loop
      vertex 34.5326 45.008 -5.72205e-07
      vertex 1.39707 69.6783 -5.72205e-07
      vertex 33.3052 41.2303 -5.72205e-07
    endloop
  endfacet
  facet normal 0 0 1
    outer loop
      vertex 49.904 18.3841 -5.72205e-07
      vertex 5.1718 -1.06 -5.72205e-07
      vertex 98.5572 -1.06 -5.72205e-07
    endloop
  endfacet
  facet normal 0 0 1
    outer loop
      vertex 42.39 20.8255 -5.72205e-07
      vertex 5.1718 -1.06 -5.72205e-07
      vertex 46.0187 19.2099 -5.72205e-07
    endloop
  endfacet
  facet normal 0 0 1
    outer loop
      vertex 5.02263 0.0252343 -5.72205e-07
      vertex 42.39 20.8255 -5.72205e-07
      vertex 39.1765 23.1602 -5.72205e-07
    endloop
  endfacet
  facet normal 0 0 1
    outer loop
      vertex 4.24036 1.8262 -5.72205e-07
      vertex 39.1765 23.1602 -5.72205e-07
      vertex 36.5187 26.1121 -5.72205e-07
    endloop
  endfacet
  facet normal -0 0 1
    outer loop
      vertex -0.453083 69.0208 -5.72205e-07
      vertex 33.3052 41.2303 -5.72205e-07
      vertex 1.39707 69.6783 -5.72205e-07
    endloop
  endfacet
  facet normal 0 0 1
    outer loop
      vertex 33.3052 41.2303 -5.72205e-07
      vertex -0.453083 69.0208 -5.72205e-07
      vertex 32.89 37.28 -5.72205e-07
    endloop
  endfacet
  facet normal 0 0 1
    outer loop
      vertex 42.39 20.8255 -5.72205e-07
      vertex 5.02263 0.0252343 -5.72205e-07
      vertex 5.1718 -1.06 -5.72205e-07
    endloop
  endfacet
  facet normal -0 0 1
    outer loop
      vertex -1.06 68.9793 -5.72205e-07
      vertex 32.89 37.28 -5.72205e-07
      vertex -0.453083 69.0208 -5.72205e-07
    endloop
  endfacet
  facet normal 0 0 1
    outer loop
      vertex 39.1765 23.1602 -5.72205e-07
      vertex 4.24036 1.8262 -5.72205e-07
      vertex 5.02263 0.0252343 -5.72205e-07
    endloop
  endfacet
  facet normal 0 0 1
    outer loop
      vertex 32.89 37.28 -5.72205e-07
      vertex -0.453083 5.1392 -5.72205e-07
      vertex 33.3052 33.3297 -5.72205e-07
    endloop
  endfacet
  facet normal 0 0 1
    outer loop
      vertex 36.5187 26.1121 -5.72205e-07
      vertex 3.00121 3.34933 -5.72205e-07
      vertex 4.24036 1.8262 -5.72205e-07
    endloop
  endfacet
  facet normal 0 -0 1
    outer loop
      vertex 1.39707 4.48165 -5.72205e-07
      vertex 33.3052 33.3297 -5.72205e-07
      vertex -0.453083 5.1392 -5.72205e-07
    endloop
  endfacet
  facet normal 0 0 1
    outer loop
      vertex 34.5326 29.552 -5.72205e-07
      vertex 3.00121 3.34933 -5.72205e-07
      vertex 36.5187 26.1121 -5.72205e-07
    endloop
  endfacet
  facet normal 0 0 1
    outer loop
      vertex 33.3052 33.3297 -5.72205e-07
      vertex 1.39707 4.48165 -5.72205e-07
      vertex 34.5326 29.552 -5.72205e-07
    endloop
  endfacet
  facet normal 0 -0 1
    outer loop
      vertex 3.00121 3.34933 -5.72205e-07
      vertex 34.5326 29.552 -5.72205e-07
      vertex 1.39707 4.48165 -5.72205e-07
    endloop
  endfacet
  facet normal 0 0 1
    outer loop
      vertex -1.06 5.18071 -5.72205e-07
      vertex 32.89 37.28 -5.72205e-07
      vertex -1.06 68.9793 -5.72205e-07
    endloop
  endfacet
  facet normal 0 0 1
    outer loop
      vertex 32.89 37.28 -5.72205e-07
      vertex -1.06 5.18071 -5.72205e-07
      vertex -0.453083 5.1392 -5.72205e-07
    endloop
  endfacet
  facet normal 0 1 -0
    outer loop
      vertex 98.5572 -1.06 -5.72205e-07
      vertex 5.1718 -1.06 12.4
      vertex 98.5572 -1.06 12.4
    endloop
  endfacet
  facet normal 0 1 0
    outer loop
      vertex 5.1718 -1.06 12.4
      vertex 98.5572 -1.06 -5.72205e-07
      vertex 5.1718 -1.06 -5.72205e-07
    endloop
  endfacet
  facet normal 0.775711 0.631088 0
    outer loop
      vertex 4.24036 1.8262 12.4
      vertex 3.00121 3.34933 -5.72205e-07
      vertex 3.00121 3.34933 12.4
    endloop
  endfacet
  facet normal 0.775711 0.631088 0
    outer loop
      vertex 3.00121 3.34933 -5.72205e-07
      vertex 4.24036 1.8262 12.4
      vertex 4.24036 1.8262 -5.72205e-07
    endloop
  endfacet
  facet normal 0.57668 0.81697 -0
    outer loop
      vertex 3.00121 3.34933 -5.72205e-07
      vertex 1.39707 4.48165 12.4
      vertex 3.00121 3.34933 12.4
    endloop
  endfacet
  facet normal 0.57668 0.81697 0
    outer loop
      vertex 1.39707 4.48165 12.4
      vertex 3.00121 3.34933 -5.72205e-07
      vertex 1.39707 4.48165 -5.72205e-07
    endloop
  endfacet
  facet normal 0.0682426 0.997669 -0
    outer loop
      vertex -0.453083 5.1392 -5.72205e-07
      vertex -1.06 5.18071 12.4
      vertex -0.453083 5.1392 12.4
    endloop
  endfacet
  facet normal 0.0682426 0.997669 0
    outer loop
      vertex -1.06 5.18071 12.4
      vertex -0.453083 5.1392 -5.72205e-07
      vertex -1.06 5.18071 -5.72205e-07
    endloop
  endfacet
  facet normal 0.334879 0.942261 -0
    outer loop
      vertex 1.39707 4.48165 -5.72205e-07
      vertex -0.453083 5.1392 12.4
      vertex 1.39707 4.48165 12.4
    endloop
  endfacet
  facet normal 0.334879 0.942261 0
    outer loop
      vertex -0.453083 5.1392 12.4
      vertex 1.39707 4.48165 -5.72205e-07
      vertex -0.453083 5.1392 -5.72205e-07
    endloop
  endfacet
  facet normal 0.990686 0.136166 0
    outer loop
      vertex 5.1718 -1.06 12.4
      vertex 5.02263 0.0252343 -5.72205e-07
      vertex 5.02263 0.0252343 12.4
    endloop
  endfacet
  facet normal 0.990686 0.136166 0
    outer loop
      vertex 5.02263 0.0252343 -5.72205e-07
      vertex 5.1718 -1.06 12.4
      vertex 5.1718 -1.06 -5.72205e-07
    endloop
  endfacet
  facet normal 0.917211 0.398401 0
    outer loop
      vertex 5.02263 0.0252343 12.4
      vertex 4.24036 1.8262 -5.72205e-07
      vertex 4.24036 1.8262 12.4
    endloop
  endfacet
  facet normal 0.917211 0.398401 0
    outer loop
      vertex 4.24036 1.8262 -5.72205e-07
      vertex 5.02263 0.0252343 12.4
      vertex 5.02263 0.0252343 -5.72205e-07
    endloop
  endfacet
  facet normal -1 0 0
    outer loop
      vertex 98.5572 -1.06 -5.72205e-07
      vertex 98.5572 -0.938239 12.4
      vertex 98.5572 -0.938239 -5.72205e-07
    endloop
  endfacet
  facet normal -1 -0 0
    outer loop
      vertex 98.5572 -0.938239 12.4
      vertex 98.5572 -1.06 -5.72205e-07
      vertex 98.5572 -1.06 12.4
    endloop
  endfacet
  facet normal -0.203456 0.979084 0
    outer loop
      vertex 104.84 5.19673 -5.72205e-07
      vertex 103.286 4.8737 12.4
      vertex 104.84 5.19673 12.4
    endloop
  endfacet
  facet normal -0.203456 0.979084 0
    outer loop
      vertex 103.286 4.8737 12.4
      vertex 104.84 5.19673 -5.72205e-07
      vertex 103.286 4.8737 -5.72205e-07
    endloop
  endfacet
  facet normal -0.854419 0.519585 0
    outer loop
      vertex 99.0869 0.952472 -5.72205e-07
      vertex 100.107 2.63014 12.4
      vertex 100.107 2.63014 -5.72205e-07
    endloop
  endfacet
  facet normal -0.854419 0.519585 0
    outer loop
      vertex 100.107 2.63014 12.4
      vertex 99.0869 0.952472 -5.72205e-07
      vertex 99.0869 0.952472 12.4
    endloop
  endfacet
  facet normal -0.962917 0.269798 0
    outer loop
      vertex 98.5572 -0.938239 -5.72205e-07
      vertex 99.0869 0.952472 12.4
      vertex 99.0869 0.952472 -5.72205e-07
    endloop
  endfacet
  facet normal -0.962917 0.269798 0
    outer loop
      vertex 99.0869 0.952472 12.4
      vertex 98.5572 -0.938239 -5.72205e-07
      vertex 98.5572 -0.938239 12.4
    endloop
  endfacet
  facet normal -0.460066 0.887885 0
    outer loop
      vertex 103.286 4.8737 -5.72205e-07
      vertex 101.542 3.97035 12.4
      vertex 103.286 4.8737 12.4
    endloop
  endfacet
  facet normal -0.460066 0.887885 0
    outer loop
      vertex 101.542 3.97035 12.4
      vertex 103.286 4.8737 -5.72205e-07
      vertex 101.542 3.97035 -5.72205e-07
    endloop
  endfacet
  facet normal -0.682553 0.730836 0
    outer loop
      vertex 101.542 3.97035 -5.72205e-07
      vertex 100.107 2.63014 12.4
      vertex 101.542 3.97035 12.4
    endloop
  endfacet
  facet normal -0.682553 0.730836 0
    outer loop
      vertex 100.107 2.63014 12.4
      vertex 101.542 3.97035 -5.72205e-07
      vertex 100.107 2.63014 -5.72205e-07
    endloop
  endfacet
  facet normal 0.0682504 -0.997668 0
    outer loop
      vertex -1.06 68.9793 -5.72205e-07
      vertex -0.453083 69.0208 12.4
      vertex -1.06 68.9793 12.4
    endloop
  endfacet
  facet normal 0.0682504 -0.997668 0
    outer loop
      vertex -0.453083 69.0208 12.4
      vertex -1.06 68.9793 -5.72205e-07
      vertex -0.453083 69.0208 -5.72205e-07
    endloop
  endfacet
  facet normal 0.334878 -0.942262 0
    outer loop
      vertex -0.453083 69.0208 -5.72205e-07
      vertex 1.39707 69.6783 12.4
      vertex -0.453083 69.0208 12.4
    endloop
  endfacet
  facet normal 0.334878 -0.942262 0
    outer loop
      vertex 1.39707 69.6783 12.4
      vertex -0.453083 69.0208 -5.72205e-07
      vertex 1.39707 69.6783 -5.72205e-07
    endloop
  endfacet
  facet normal 0.917211 -0.398402 0
    outer loop
      vertex 4.24036 72.3338 12.4
      vertex 5.02263 74.1348 -5.72205e-07
      vertex 5.02263 74.1348 12.4
    endloop
  endfacet
  facet normal 0.917211 -0.398402 0
    outer loop
      vertex 5.02263 74.1348 -5.72205e-07
      vertex 4.24036 72.3338 12.4
      vertex 4.24036 72.3338 -5.72205e-07
    endloop
  endfacet
  facet normal 0.990686 -0.136166 0
    outer loop
      vertex 5.02263 74.1348 12.4
      vertex 5.1718 75.22 -5.72205e-07
      vertex 5.1718 75.22 12.4
    endloop
  endfacet
  facet normal 0.990686 -0.136166 0
    outer loop
      vertex 5.1718 75.22 -5.72205e-07
      vertex 5.02263 74.1348 12.4
      vertex 5.02263 74.1348 -5.72205e-07
    endloop
  endfacet
  facet normal 0.57668 -0.81697 0
    outer loop
      vertex 1.39707 69.6783 -5.72205e-07
      vertex 3.00121 70.8107 12.4
      vertex 1.39707 69.6783 12.4
    endloop
  endfacet
  facet normal 0.57668 -0.81697 0
    outer loop
      vertex 3.00121 70.8107 12.4
      vertex 1.39707 69.6783 -5.72205e-07
      vertex 3.00121 70.8107 -5.72205e-07
    endloop
  endfacet
  facet normal 0.775712 -0.631087 0
    outer loop
      vertex 3.00121 70.8107 12.4
      vertex 4.24036 72.3338 -5.72205e-07
      vertex 4.24036 72.3338 12.4
    endloop
  endfacet
  facet normal 0.775712 -0.631087 0
    outer loop
      vertex 4.24036 72.3338 -5.72205e-07
      vertex 3.00121 70.8107 12.4
      vertex 3.00121 70.8107 -5.72205e-07
    endloop
  endfacet
  facet normal -1 0 0
    outer loop
      vertex 98.5572 75.0982 -5.72205e-07
      vertex 98.5572 75.22 12.4
      vertex 98.5572 75.22 -5.72205e-07
    endloop
  endfacet
  facet normal -1 -0 0
    outer loop
      vertex 98.5572 75.22 12.4
      vertex 98.5572 75.0982 -5.72205e-07
      vertex 98.5572 75.0982 12.4
    endloop
  endfacet
  facet normal -0.962917 -0.269798 0
    outer loop
      vertex 99.0869 73.2075 -5.72205e-07
      vertex 98.5572 75.0982 12.4
      vertex 98.5572 75.0982 -5.72205e-07
    endloop
  endfacet
  facet normal -0.962917 -0.269798 0
    outer loop
      vertex 98.5572 75.0982 12.4
      vertex 99.0869 73.2075 -5.72205e-07
      vertex 99.0869 73.2075 12.4
    endloop
  endfacet
  facet normal -0.460064 -0.887886 0
    outer loop
      vertex 101.542 70.1896 -5.72205e-07
      vertex 103.286 69.2863 12.4
      vertex 101.542 70.1896 12.4
    endloop
  endfacet
  facet normal -0.460064 -0.887886 -0
    outer loop
      vertex 103.286 69.2863 12.4
      vertex 101.542 70.1896 -5.72205e-07
      vertex 103.286 69.2863 -5.72205e-07
    endloop
  endfacet
  facet normal -0.854419 -0.519585 0
    outer loop
      vertex 100.107 71.5299 -5.72205e-07
      vertex 99.0869 73.2075 12.4
      vertex 99.0869 73.2075 -5.72205e-07
    endloop
  endfacet
  facet normal -0.854419 -0.519585 0
    outer loop
      vertex 99.0869 73.2075 12.4
      vertex 100.107 71.5299 -5.72205e-07
      vertex 100.107 71.5299 12.4
    endloop
  endfacet
  facet normal -0.682554 -0.730836 0
    outer loop
      vertex 100.107 71.5299 -5.72205e-07
      vertex 101.542 70.1896 12.4
      vertex 100.107 71.5299 12.4
    endloop
  endfacet
  facet normal -0.682554 -0.730836 -0
    outer loop
      vertex 101.542 70.1896 12.4
      vertex 100.107 71.5299 -5.72205e-07
      vertex 101.542 70.1896 -5.72205e-07
    endloop
  endfacet
  facet normal -0.203458 -0.979084 0
    outer loop
      vertex 103.286 69.2863 -5.72205e-07
      vertex 104.84 68.9633 12.4
      vertex 103.286 69.2863 12.4
    endloop
  endfacet
  facet normal -0.203458 -0.979084 -0
    outer loop
      vertex 104.84 68.9633 12.4
      vertex 103.286 69.2863 -5.72205e-07
      vertex 104.84 68.9633 -5.72205e-07
    endloop
  endfacet
  facet normal 0 -0.104528 0.994522
    outer loop
      vertex -1.92 39.1591 7.61852
      vertex -1.06 37.08 7.4
      vertex -1.06 39.1591 7.61852
    endloop
  endfacet
  facet normal 0 -0.104528 0.994522
    outer loop
      vertex -1.06 37.08 7.4
      vertex -1.92 39.1591 7.61852
      vertex -1.92 37.08 7.4
    endloop
  endfacet
  facet normal 0 -0.104528 0.994522
    outer loop
      vertex 104.84 39.1591 7.61852
      vertex 105.7 37.08 7.4
      vertex 105.7 39.1591 7.61852
    endloop
  endfacet
  facet normal 0 -0.104528 0.994522
    outer loop
      vertex 105.7 37.08 7.4
      vertex 104.84 39.1591 7.61852
      vertex 104.84 37.08 7.4
    endloop
  endfacet
  facet normal -0 0.5 0.866026
    outer loop
      vertex -1.92 33.0126 8.26454
      vertex -1.06 31.2021 9.30983
      vertex -1.06 33.0126 8.26454
    endloop
  endfacet
  facet normal 0 0.5 0.866026
    outer loop
      vertex -1.06 31.2021 9.30983
      vertex -1.92 33.0126 8.26454
      vertex -1.92 31.2021 9.30983
    endloop
  endfacet
  facet normal -0 0.5 0.866026
    outer loop
      vertex 104.84 33.0126 8.26454
      vertex 105.7 31.2021 9.30983
      vertex 105.7 33.0126 8.26454
    endloop
  endfacet
  facet normal 0 0.5 0.866026
    outer loop
      vertex 105.7 31.2021 9.30983
      vertex 104.84 33.0126 8.26454
      vertex 104.84 31.2021 9.30983
    endloop
  endfacet
  facet normal 0 -0.309017 0.951057
    outer loop
      vertex -1.92 41.1474 8.26454
      vertex -1.06 39.1591 7.61852
      vertex -1.06 41.1474 8.26454
    endloop
  endfacet
  facet normal 0 -0.309017 0.951057
    outer loop
      vertex -1.06 39.1591 7.61852
      vertex -1.92 41.1474 8.26454
      vertex -1.92 39.1591 7.61852
    endloop
  endfacet
  facet normal 0 -0.309017 0.951057
    outer loop
      vertex 104.84 41.1474 8.26454
      vertex 105.7 39.1591 7.61852
      vertex 105.7 41.1474 8.26454
    endloop
  endfacet
  facet normal 0 -0.309017 0.951057
    outer loop
      vertex 105.7 39.1591 7.61852
      vertex 104.84 41.1474 8.26454
      vertex 104.84 39.1591 7.61852
    endloop
  endfacet
  facet normal 0 -0.669131 0.743145
    outer loop
      vertex -1.92 44.5114 10.7087
      vertex -1.06 42.9579 9.30983
      vertex -1.06 44.5114 10.7087
    endloop
  endfacet
  facet normal 0 -0.669131 0.743145
    outer loop
      vertex -1.06 42.9579 9.30983
      vertex -1.92 44.5114 10.7087
      vertex -1.92 42.9579 9.30983
    endloop
  endfacet
  facet normal 0 -0.669131 0.743145
    outer loop
      vertex 104.84 44.5114 10.7087
      vertex 105.7 42.9579 9.30983
      vertex 105.7 44.5114 10.7087
    endloop
  endfacet
  facet normal 0 -0.669131 0.743145
    outer loop
      vertex 105.7 42.9579 9.30983
      vertex 104.84 44.5114 10.7087
      vertex 104.84 42.9579 9.30983
    endloop
  endfacet
  facet normal 0 -0.809017 0.587785
    outer loop
      vertex -1.92 44.5114 10.7087
      vertex -1.06 45.7403 12.4
      vertex -1.92 45.7403 12.4
    endloop
  endfacet
  facet normal 0 -0.809017 0.587785
    outer loop
      vertex -1.06 45.7403 12.4
      vertex -1.92 44.5114 10.7087
      vertex -1.06 44.5114 10.7087
    endloop
  endfacet
  facet normal 0 -0.809017 0.587785
    outer loop
      vertex 104.84 44.5114 10.7087
      vertex 105.7 45.7403 12.4
      vertex 104.84 45.7403 12.4
    endloop
  endfacet
  facet normal 0 -0.809017 0.587785
    outer loop
      vertex 105.7 45.7403 12.4
      vertex 104.84 44.5114 10.7087
      vertex 105.7 44.5114 10.7087
    endloop
  endfacet
  facet normal -0 0.104528 0.994522
    outer loop
      vertex -1.92 37.08 7.4
      vertex -1.06 35.0009 7.61852
      vertex -1.06 37.08 7.4
    endloop
  endfacet
  facet normal 0 0.104528 0.994522
    outer loop
      vertex -1.06 35.0009 7.61852
      vertex -1.92 37.08 7.4
      vertex -1.92 35.0009 7.61852
    endloop
  endfacet
  facet normal -0 0.104528 0.994522
    outer loop
      vertex 104.84 37.08 7.4
      vertex 105.7 35.0009 7.61852
      vertex 105.7 37.08 7.4
    endloop
  endfacet
  facet normal 0 0.104528 0.994522
    outer loop
      vertex 105.7 35.0009 7.61852
      vertex 104.84 37.08 7.4
      vertex 104.84 35.0009 7.61852
    endloop
  endfacet
  facet normal 0 -0.5 0.866025
    outer loop
      vertex -1.92 42.9579 9.30983
      vertex -1.06 41.1474 8.26454
      vertex -1.06 42.9579 9.30983
    endloop
  endfacet
  facet normal 0 -0.5 0.866025
    outer loop
      vertex -1.06 41.1474 8.26454
      vertex -1.92 42.9579 9.30983
      vertex -1.92 41.1474 8.26454
    endloop
  endfacet
  facet normal 0 -0.5 0.866025
    outer loop
      vertex 104.84 42.9579 9.30983
      vertex 105.7 41.1474 8.26454
      vertex 105.7 42.9579 9.30983
    endloop
  endfacet
  facet normal 0 -0.5 0.866025
    outer loop
      vertex 105.7 41.1474 8.26454
      vertex 104.84 42.9579 9.30983
      vertex 104.84 41.1474 8.26454
    endloop
  endfacet
  facet normal -0 0.309017 0.951057
    outer loop
      vertex -1.92 35.0009 7.61852
      vertex -1.06 33.0126 8.26454
      vertex -1.06 35.0009 7.61852
    endloop
  endfacet
  facet normal 0 0.309017 0.951057
    outer loop
      vertex -1.06 33.0126 8.26454
      vertex -1.92 35.0009 7.61852
      vertex -1.92 33.0126 8.26454
    endloop
  endfacet
  facet normal -0 0.309017 0.951057
    outer loop
      vertex 104.84 35.0009 7.61852
      vertex 105.7 33.0126 8.26454
      vertex 105.7 35.0009 7.61852
    endloop
  endfacet
  facet normal 0 0.309017 0.951057
    outer loop
      vertex 105.7 33.0126 8.26454
      vertex 104.84 35.0009 7.61852
      vertex 104.84 33.0126 8.26454
    endloop
  endfacet
  facet normal 0 0.809017 0.587785
    outer loop
      vertex -1.06 29.6486 10.7087
      vertex -1.92 28.4197 12.4
      vertex -1.06 28.4197 12.4
    endloop
  endfacet
  facet normal 0 0.809017 0.587785
    outer loop
      vertex -1.92 28.4197 12.4
      vertex -1.06 29.6486 10.7087
      vertex -1.92 29.6486 10.7087
    endloop
  endfacet
  facet normal 0 0.809017 0.587785
    outer loop
      vertex 105.7 29.6486 10.7087
      vertex 104.84 28.4197 12.4
      vertex 105.7 28.4197 12.4
    endloop
  endfacet
  facet normal 0 0.809017 0.587785
    outer loop
      vertex 104.84 28.4197 12.4
      vertex 105.7 29.6486 10.7087
      vertex 104.84 29.6486 10.7087
    endloop
  endfacet
  facet normal -0 0.669131 0.743144
    outer loop
      vertex -1.92 31.2021 9.30983
      vertex -1.06 29.6486 10.7087
      vertex -1.06 31.2021 9.30983
    endloop
  endfacet
  facet normal 0 0.669131 0.743144
    outer loop
      vertex -1.06 29.6486 10.7087
      vertex -1.92 31.2021 9.30983
      vertex -1.92 29.6486 10.7087
    endloop
  endfacet
  facet normal -0 0.669131 0.743144
    outer loop
      vertex 104.84 31.2021 9.30983
      vertex 105.7 29.6486 10.7087
      vertex 105.7 31.2021 9.30983
    endloop
  endfacet
  facet normal 0 0.669131 0.743144
    outer loop
      vertex 105.7 29.6486 10.7087
      vertex 104.84 31.2021 9.30983
      vertex 104.84 29.6486 10.7087
    endloop
  endfacet
  facet normal -0.994522 -0.104527 0
    outer loop
      vertex 70.89 37.28 -0.6
      vertex 70.4748 41.2303 -5.72205e-07
      vertex 70.4748 41.2303 -0.6
    endloop
  endfacet
  facet normal -0.994522 -0.104527 0
    outer loop
      vertex 70.4748 41.2303 -5.72205e-07
      vertex 70.89 37.28 -0.6
      vertex 70.89 37.28 -5.72205e-07
    endloop
  endfacet
  facet normal 0.994522 -0.104528 0
    outer loop
      vertex 32.89 37.28 -5.72205e-07
      vertex 33.3052 41.2303 -0.6
      vertex 33.3052 41.2303 -5.72205e-07
    endloop
  endfacet
  facet normal 0.994522 -0.104528 0
    outer loop
      vertex 33.3052 41.2303 -0.6
      vertex 32.89 37.28 -5.72205e-07
      vertex 32.89 37.28 -0.6
    endloop
  endfacet
  facet normal 0 -1 0
    outer loop
      vertex 49.904 56.1759 -0.6
      vertex 53.876 56.1759 -5.72205e-07
      vertex 49.904 56.1759 -5.72205e-07
    endloop
  endfacet
  facet normal 0 -1 -0
    outer loop
      vertex 53.876 56.1759 -5.72205e-07
      vertex 49.904 56.1759 -0.6
      vertex 53.876 56.1759 -0.6
    endloop
  endfacet
  facet normal 0 1 -0
    outer loop
      vertex 53.876 18.3841 -0.6
      vertex 49.904 18.3841 -5.72205e-07
      vertex 53.876 18.3841 -5.72205e-07
    endloop
  endfacet
  facet normal 0 1 0
    outer loop
      vertex 49.904 18.3841 -5.72205e-07
      vertex 53.876 18.3841 -0.6
      vertex 49.904 18.3841 -0.6
    endloop
  endfacet
  facet normal -0.743145 -0.66913 0
    outer loop
      vertex 67.2613 48.4479 -0.6
      vertex 64.6035 51.3997 -5.72205e-07
      vertex 64.6035 51.3997 -0.6
    endloop
  endfacet
  facet normal -0.743145 -0.66913 0
    outer loop
      vertex 64.6035 51.3997 -5.72205e-07
      vertex 67.2613 48.4479 -0.6
      vertex 67.2613 48.4479 -5.72205e-07
    endloop
  endfacet
  facet normal -0.951056 -0.309019 0
    outer loop
      vertex 70.4748 41.2303 -0.6
      vertex 69.2474 45.008 -5.72205e-07
      vertex 69.2474 45.008 -0.6
    endloop
  endfacet
  facet normal -0.951056 -0.309019 0
    outer loop
      vertex 69.2474 45.008 -5.72205e-07
      vertex 70.4748 41.2303 -0.6
      vertex 70.4748 41.2303 -5.72205e-07
    endloop
  endfacet
  facet normal 0.587785 -0.809017 0
    outer loop
      vertex 39.1765 51.3997 -0.6
      vertex 42.39 53.7345 -5.72205e-07
      vertex 39.1765 51.3997 -5.72205e-07
    endloop
  endfacet
  facet normal 0.587785 -0.809017 0
    outer loop
      vertex 42.39 53.7345 -5.72205e-07
      vertex 39.1765 51.3997 -0.6
      vertex 42.39 53.7345 -0.6
    endloop
  endfacet
  facet normal 0.406737 -0.913545 0
    outer loop
      vertex 42.39 53.7345 -0.6
      vertex 46.0187 55.3501 -5.72205e-07
      vertex 42.39 53.7345 -5.72205e-07
    endloop
  endfacet
  facet normal 0.406737 -0.913545 0
    outer loop
      vertex 46.0187 55.3501 -5.72205e-07
      vertex 42.39 53.7345 -0.6
      vertex 46.0187 55.3501 -0.6
    endloop
  endfacet
  facet normal -0.866026 0.5 0
    outer loop
      vertex 67.2613 26.1121 -0.6
      vertex 69.2474 29.552 -5.72205e-07
      vertex 69.2474 29.552 -0.6
    endloop
  endfacet
  facet normal -0.866026 0.5 0
    outer loop
      vertex 69.2474 29.552 -5.72205e-07
      vertex 67.2613 26.1121 -0.6
      vertex 67.2613 26.1121 -5.72205e-07
    endloop
  endfacet
  facet normal -0.866026 -0.5 0
    outer loop
      vertex 69.2474 45.008 -0.6
      vertex 67.2613 48.4479 -5.72205e-07
      vertex 67.2613 48.4479 -0.6
    endloop
  endfacet
  facet normal -0.866026 -0.5 0
    outer loop
      vertex 67.2613 48.4479 -5.72205e-07
      vertex 69.2474 45.008 -0.6
      vertex 69.2474 45.008 -5.72205e-07
    endloop
  endfacet
  facet normal -0.406737 -0.913545 0
    outer loop
      vertex 57.7613 55.3501 -0.6
      vertex 61.39 53.7345 -5.72205e-07
      vertex 57.7613 55.3501 -5.72205e-07
    endloop
  endfacet
  facet normal -0.406737 -0.913545 -0
    outer loop
      vertex 61.39 53.7345 -5.72205e-07
      vertex 57.7613 55.3501 -0.6
      vertex 61.39 53.7345 -0.6
    endloop
  endfacet
  facet normal -0.207911 -0.978148 0
    outer loop
      vertex 53.876 56.1759 -0.6
      vertex 57.7613 55.3501 -5.72205e-07
      vertex 53.876 56.1759 -5.72205e-07
    endloop
  endfacet
  facet normal -0.207911 -0.978148 -0
    outer loop
      vertex 57.7613 55.3501 -5.72205e-07
      vertex 53.876 56.1759 -0.6
      vertex 57.7613 55.3501 -0.6
    endloop
  endfacet
  facet normal -0.587785 -0.809017 0
    outer loop
      vertex 61.39 53.7345 -0.6
      vertex 64.6035 51.3997 -5.72205e-07
      vertex 61.39 53.7345 -5.72205e-07
    endloop
  endfacet
  facet normal -0.587785 -0.809017 -0
    outer loop
      vertex 64.6035 51.3997 -5.72205e-07
      vertex 61.39 53.7345 -0.6
      vertex 64.6035 51.3997 -0.6
    endloop
  endfacet
  facet normal 0.866025 -0.5 0
    outer loop
      vertex 34.5326 45.008 -5.72205e-07
      vertex 36.5187 48.4479 -0.6
      vertex 36.5187 48.4479 -5.72205e-07
    endloop
  endfacet
  facet normal 0.866025 -0.5 0
    outer loop
      vertex 36.5187 48.4479 -0.6
      vertex 34.5326 45.008 -5.72205e-07
      vertex 34.5326 45.008 -0.6
    endloop
  endfacet
  facet normal 0.743145 -0.669131 0
    outer loop
      vertex 36.5187 48.4479 -5.72205e-07
      vertex 39.1765 51.3997 -0.6
      vertex 39.1765 51.3997 -5.72205e-07
    endloop
  endfacet
  facet normal 0.743145 -0.669131 0
    outer loop
      vertex 39.1765 51.3997 -0.6
      vertex 36.5187 48.4479 -5.72205e-07
      vertex 36.5187 48.4479 -0.6
    endloop
  endfacet
  facet normal 0.951057 -0.309017 0
    outer loop
      vertex 33.3052 41.2303 -5.72205e-07
      vertex 34.5326 45.008 -0.6
      vertex 34.5326 45.008 -5.72205e-07
    endloop
  endfacet
  facet normal 0.951057 -0.309017 0
    outer loop
      vertex 34.5326 45.008 -0.6
      vertex 33.3052 41.2303 -5.72205e-07
      vertex 33.3052 41.2303 -0.6
    endloop
  endfacet
  facet normal 0.207911 -0.978148 0
    outer loop
      vertex 46.0187 55.3501 -0.6
      vertex 49.904 56.1759 -5.72205e-07
      vertex 46.0187 55.3501 -5.72205e-07
    endloop
  endfacet
  facet normal 0.207911 -0.978148 0
    outer loop
      vertex 49.904 56.1759 -5.72205e-07
      vertex 46.0187 55.3501 -0.6
      vertex 49.904 56.1759 -0.6
    endloop
  endfacet
  facet normal -0.994522 0.104528 0
    outer loop
      vertex 70.4748 33.3297 -0.6
      vertex 70.89 37.28 -5.72205e-07
      vertex 70.89 37.28 -0.6
    endloop
  endfacet
  facet normal -0.994522 0.104528 0
    outer loop
      vertex 70.89 37.28 -5.72205e-07
      vertex 70.4748 33.3297 -0.6
      vertex 70.4748 33.3297 -5.72205e-07
    endloop
  endfacet
  facet normal -0.207912 0.978148 0
    outer loop
      vertex 57.7613 19.2099 -0.6
      vertex 53.876 18.3841 -5.72205e-07
      vertex 57.7613 19.2099 -5.72205e-07
    endloop
  endfacet
  facet normal -0.207912 0.978148 0
    outer loop
      vertex 53.876 18.3841 -5.72205e-07
      vertex 57.7613 19.2099 -0.6
      vertex 53.876 18.3841 -0.6
    endloop
  endfacet
  facet normal -0.587785 0.809017 0
    outer loop
      vertex 64.6035 23.1602 -0.6
      vertex 61.39 20.8255 -5.72205e-07
      vertex 64.6035 23.1602 -5.72205e-07
    endloop
  endfacet
  facet normal -0.587785 0.809017 0
    outer loop
      vertex 61.39 20.8255 -5.72205e-07
      vertex 64.6035 23.1602 -0.6
      vertex 61.39 20.8255 -0.6
    endloop
  endfacet
  facet normal -0.743145 0.66913 0
    outer loop
      vertex 64.6035 23.1602 -0.6
      vertex 67.2613 26.1121 -5.72205e-07
      vertex 67.2613 26.1121 -0.6
    endloop
  endfacet
  facet normal -0.743145 0.66913 0
    outer loop
      vertex 67.2613 26.1121 -5.72205e-07
      vertex 64.6035 23.1602 -0.6
      vertex 64.6035 23.1602 -5.72205e-07
    endloop
  endfacet
  facet normal -0.951056 0.309018 0
    outer loop
      vertex 69.2474 29.552 -0.6
      vertex 70.4748 33.3297 -5.72205e-07
      vertex 70.4748 33.3297 -0.6
    endloop
  endfacet
  facet normal -0.951056 0.309018 0
    outer loop
      vertex 70.4748 33.3297 -5.72205e-07
      vertex 69.2474 29.552 -0.6
      vertex 69.2474 29.552 -5.72205e-07
    endloop
  endfacet
  facet normal 0.866025 0.5 0
    outer loop
      vertex 36.5187 26.1121 -5.72205e-07
      vertex 34.5326 29.552 -0.6
      vertex 34.5326 29.552 -5.72205e-07
    endloop
  endfacet
  facet normal 0.866025 0.5 0
    outer loop
      vertex 34.5326 29.552 -0.6
      vertex 36.5187 26.1121 -5.72205e-07
      vertex 36.5187 26.1121 -0.6
    endloop
  endfacet
  facet normal -0.406736 0.913546 0
    outer loop
      vertex 61.39 20.8255 -0.6
      vertex 57.7613 19.2099 -5.72205e-07
      vertex 61.39 20.8255 -5.72205e-07
    endloop
  endfacet
  facet normal -0.406736 0.913546 0
    outer loop
      vertex 57.7613 19.2099 -5.72205e-07
      vertex 61.39 20.8255 -0.6
      vertex 57.7613 19.2099 -0.6
    endloop
  endfacet
  facet normal 0.207912 0.978148 -0
    outer loop
      vertex 49.904 18.3841 -0.6
      vertex 46.0187 19.2099 -5.72205e-07
      vertex 49.904 18.3841 -5.72205e-07
    endloop
  endfacet
  facet normal 0.207912 0.978148 0
    outer loop
      vertex 46.0187 19.2099 -5.72205e-07
      vertex 49.904 18.3841 -0.6
      vertex 46.0187 19.2099 -0.6
    endloop
  endfacet
  facet normal 0.743145 0.669131 0
    outer loop
      vertex 39.1765 23.1602 -5.72205e-07
      vertex 36.5187 26.1121 -0.6
      vertex 36.5187 26.1121 -5.72205e-07
    endloop
  endfacet
  facet normal 0.743145 0.669131 0
    outer loop
      vertex 36.5187 26.1121 -0.6
      vertex 39.1765 23.1602 -5.72205e-07
      vertex 39.1765 23.1602 -0.6
    endloop
  endfacet
  facet normal 0.951057 0.309017 0
    outer loop
      vertex 34.5326 29.552 -5.72205e-07
      vertex 33.3052 33.3297 -0.6
      vertex 33.3052 33.3297 -5.72205e-07
    endloop
  endfacet
  facet normal 0.951057 0.309017 0
    outer loop
      vertex 33.3052 33.3297 -0.6
      vertex 34.5326 29.552 -5.72205e-07
      vertex 34.5326 29.552 -0.6
    endloop
  endfacet
  facet normal 0.994522 0.104528 0
    outer loop
      vertex 33.3052 33.3297 -5.72205e-07
      vertex 32.89 37.28 -0.6
      vertex 32.89 37.28 -5.72205e-07
    endloop
  endfacet
  facet normal 0.994522 0.104528 0
    outer loop
      vertex 32.89 37.28 -0.6
      vertex 33.3052 33.3297 -5.72205e-07
      vertex 33.3052 33.3297 -0.6
    endloop
  endfacet
  facet normal 0.406736 0.913546 -0
    outer loop
      vertex 46.0187 19.2099 -0.6
      vertex 42.39 20.8255 -5.72205e-07
      vertex 46.0187 19.2099 -5.72205e-07
    endloop
  endfacet
  facet normal 0.406736 0.913546 0
    outer loop
      vertex 42.39 20.8255 -5.72205e-07
      vertex 46.0187 19.2099 -0.6
      vertex 42.39 20.8255 -0.6
    endloop
  endfacet
  facet normal 0.587785 0.809017 -0
    outer loop
      vertex 42.39 20.8255 -0.6
      vertex 39.1765 23.1602 -5.72205e-07
      vertex 42.39 20.8255 -5.72205e-07
    endloop
  endfacet
  facet normal 0.587785 0.809017 0
    outer loop
      vertex 39.1765 23.1602 -5.72205e-07
      vertex 42.39 20.8255 -0.6
      vertex 39.1765 23.1602 -0.6
    endloop
  endfacet
endsolid OpenSCAD_Model
