solid OpenSCAD_Model
  facet normal 1 -0 0
    outer loop
      vertex 111.12 35.9247 7.5
      vertex 111.12 61.92 -0.6
      vertex 111.12 61.92 7.5
    endloop
  endfacet
  facet normal 1 -0 0
    outer loop
      vertex 111.12 35.4792 7.19952
      vertex 111.12 61.92 -0.6
      vertex 111.12 35.9247 7.5
    endloop
  endfacet
  facet normal 1 -0 0
    outer loop
      vertex 111.12 34.8747 6.85052
      vertex 111.12 61.92 -0.6
      vertex 111.12 35.4792 7.19952
    endloop
  endfacet
  facet normal 1 -0 0
    outer loop
      vertex 111.12 34.2474 6.54454
      vertex 111.12 61.92 -0.6
      vertex 111.12 34.8747 6.85052
    endloop
  endfacet
  facet normal 1 -0 0
    outer loop
      vertex 111.12 33.6002 6.28307
      vertex 111.12 61.92 -0.6
      vertex 111.12 34.2474 6.54454
    endloop
  endfacet
  facet normal 1 -0 0
    outer loop
      vertex 111.12 32.9364 6.06738
      vertex 111.12 61.92 -0.6
      vertex 111.12 33.6002 6.28307
    endloop
  endfacet
  facet normal 1 -0 0
    outer loop
      vertex 111.12 32.2591 5.89852
      vertex 111.12 61.92 -0.6
      vertex 111.12 32.9364 6.06738
    endloop
  endfacet
  facet normal 1 -0 0
    outer loop
      vertex 111.12 31.5717 5.77732
      vertex 111.12 61.92 -0.6
      vertex 111.12 32.2591 5.89852
    endloop
  endfacet
  facet normal 1 -0 0
    outer loop
      vertex 111.12 30.8776 5.70436
      vertex 111.12 61.92 -0.6
      vertex 111.12 31.5717 5.77732
    endloop
  endfacet
  facet normal 1 -0 0
    outer loop
      vertex 111.12 30.18 5.68
      vertex 111.12 61.92 -0.6
      vertex 111.12 30.8776 5.70436
    endloop
  endfacet
  facet normal 1 0 0
    outer loop
      vertex 111.12 -1.92 -0.6
      vertex 111.12 30.18 5.68
      vertex 111.12 29.4824 5.70436
    endloop
  endfacet
  facet normal 1 0 0
    outer loop
      vertex 111.12 -1.92 -0.6
      vertex 111.12 29.4824 5.70436
      vertex 111.12 28.7883 5.77732
    endloop
  endfacet
  facet normal 1 0 0
    outer loop
      vertex 111.12 -1.92 -0.6
      vertex 111.12 28.7883 5.77732
      vertex 111.12 28.1009 5.89852
    endloop
  endfacet
  facet normal 1 0 0
    outer loop
      vertex 111.12 -1.92 -0.6
      vertex 111.12 24.4353 7.5
      vertex 111.12 -1.92 7.5
    endloop
  endfacet
  facet normal 1 0 0
    outer loop
      vertex 111.12 24.4353 7.5
      vertex 111.12 -1.92 -0.6
      vertex 111.12 24.8808 7.19952
    endloop
  endfacet
  facet normal 1 0 0
    outer loop
      vertex 111.12 24.8808 7.19952
      vertex 111.12 -1.92 -0.6
      vertex 111.12 25.4853 6.85052
    endloop
  endfacet
  facet normal 1 0 0
    outer loop
      vertex 111.12 25.4853 6.85052
      vertex 111.12 -1.92 -0.6
      vertex 111.12 26.1126 6.54454
    endloop
  endfacet
  facet normal 1 0 0
    outer loop
      vertex 111.12 26.1126 6.54454
      vertex 111.12 -1.92 -0.6
      vertex 111.12 26.7598 6.28307
    endloop
  endfacet
  facet normal 1 0 0
    outer loop
      vertex 111.12 26.7598 6.28307
      vertex 111.12 -1.92 -0.6
      vertex 111.12 27.4236 6.06738
    endloop
  endfacet
  facet normal 1 0 0
    outer loop
      vertex 111.12 27.4236 6.06738
      vertex 111.12 -1.92 -0.6
      vertex 111.12 28.1009 5.89852
    endloop
  endfacet
  facet normal 1 0 0
    outer loop
      vertex 111.12 30.18 5.68
      vertex 111.12 -1.92 -0.6
      vertex 111.12 61.92 -0.6
    endloop
  endfacet
  facet normal 0.999389 -0.0349526 0
    outer loop
      vertex 111.118 -1.97999 7.5
      vertex 111.12 -1.92 -0.6
      vertex 111.12 -1.92 7.5
    endloop
  endfacet
  facet normal 0.999389 -0.0349526 0
    outer loop
      vertex 111.12 -1.92 -0.6
      vertex 111.118 -1.97999 7.5
      vertex 111.118 -1.97999 -0.6
    endloop
  endfacet
  facet normal -1 0 0
    outer loop
      vertex -2.78 61.92 -0.6
      vertex -2.78 35.9247 7.5
      vertex -2.78 61.92 7.5
    endloop
  endfacet
  facet normal -1 0 0
    outer loop
      vertex -2.78 61.92 -0.6
      vertex -2.78 35.4792 7.19952
      vertex -2.78 35.9247 7.5
    endloop
  endfacet
  facet normal -1 0 0
    outer loop
      vertex -2.78 61.92 -0.6
      vertex -2.78 34.8747 6.85052
      vertex -2.78 35.4792 7.19952
    endloop
  endfacet
  facet normal -1 0 0
    outer loop
      vertex -2.78 61.92 -0.6
      vertex -2.78 34.2474 6.54454
      vertex -2.78 34.8747 6.85052
    endloop
  endfacet
  facet normal -1 0 0
    outer loop
      vertex -2.78 61.92 -0.6
      vertex -2.78 33.6002 6.28307
      vertex -2.78 34.2474 6.54454
    endloop
  endfacet
  facet normal -1 0 0
    outer loop
      vertex -2.78 61.92 -0.6
      vertex -2.78 32.9364 6.06738
      vertex -2.78 33.6002 6.28307
    endloop
  endfacet
  facet normal -1 0 0
    outer loop
      vertex -2.78 61.92 -0.6
      vertex -2.78 32.2591 5.89852
      vertex -2.78 32.9364 6.06738
    endloop
  endfacet
  facet normal -1 0 0
    outer loop
      vertex -2.78 61.92 -0.6
      vertex -2.78 31.5717 5.77732
      vertex -2.78 32.2591 5.89852
    endloop
  endfacet
  facet normal -1 0 0
    outer loop
      vertex -2.78 61.92 -0.6
      vertex -2.78 30.8776 5.70436
      vertex -2.78 31.5717 5.77732
    endloop
  endfacet
  facet normal -1 0 0
    outer loop
      vertex -2.78 61.92 -0.6
      vertex -2.78 30.18 5.68
      vertex -2.78 30.8776 5.70436
    endloop
  endfacet
  facet normal -1 0 0
    outer loop
      vertex -2.78 -1.92 -0.6
      vertex -2.78 30.18 5.68
      vertex -2.78 61.92 -0.6
    endloop
  endfacet
  facet normal -1 -0 0
    outer loop
      vertex -2.78 30.18 5.68
      vertex -2.78 -1.92 -0.6
      vertex -2.78 29.4824 5.70436
    endloop
  endfacet
  facet normal -1 -0 0
    outer loop
      vertex -2.78 29.4824 5.70436
      vertex -2.78 -1.92 -0.6
      vertex -2.78 28.7883 5.77732
    endloop
  endfacet
  facet normal -1 -0 0
    outer loop
      vertex -2.78 28.7883 5.77732
      vertex -2.78 -1.92 -0.6
      vertex -2.78 28.1009 5.89852
    endloop
  endfacet
  facet normal -1 0 0
    outer loop
      vertex -2.78 -1.92 -0.6
      vertex -2.78 27.4236 6.06738
      vertex -2.78 28.1009 5.89852
    endloop
  endfacet
  facet normal -1 0 0
    outer loop
      vertex -2.78 -1.92 -0.6
      vertex -2.78 26.7598 6.28307
      vertex -2.78 27.4236 6.06738
    endloop
  endfacet
  facet normal -1 0 0
    outer loop
      vertex -2.78 -1.92 -0.6
      vertex -2.78 26.1126 6.54454
      vertex -2.78 26.7598 6.28307
    endloop
  endfacet
  facet normal -1 0 0
    outer loop
      vertex -2.78 -1.92 -0.6
      vertex -2.78 25.4853 6.85052
      vertex -2.78 26.1126 6.54454
    endloop
  endfacet
  facet normal -1 0 0
    outer loop
      vertex -2.78 -1.92 -0.6
      vertex -2.78 24.8808 7.19952
      vertex -2.78 25.4853 6.85052
    endloop
  endfacet
  facet normal -1 0 0
    outer loop
      vertex -2.78 -1.92 -0.6
      vertex -2.78 24.4353 7.5
      vertex -2.78 24.8808 7.19952
    endloop
  endfacet
  facet normal -1 -0 0
    outer loop
      vertex -2.78 24.4353 7.5
      vertex -2.78 -1.92 -0.6
      vertex -2.78 -1.92 7.5
    endloop
  endfacet
  facet normal 0 0 1
    outer loop
      vertex -2.78 -1.92 7.5
      vertex -1.92 -1.92 7.5
      vertex -1.92 24.4353 7.5
    endloop
  endfacet
  facet normal 0 -0 1
    outer loop
      vertex -2.7779 -1.97999 7.5
      vertex -1.92 -1.92 7.5
      vertex -2.78 -1.92 7.5
    endloop
  endfacet
  facet normal 0 0 1
    outer loop
      vertex -1.92 -1.92 7.5
      vertex -2.00989 -2.77529 7.5
      vertex -1.95001 -2.77948 7.5
    endloop
  endfacet
  facet normal 0 0 1
    outer loop
      vertex -1.92 -1.92 7.5
      vertex -2.06934 -2.76693 7.5
      vertex -2.00989 -2.77529 7.5
    endloop
  endfacet
  facet normal 0 0 1
    outer loop
      vertex -1.92 -1.92 7.5
      vertex -2.12805 -2.75445 7.5
      vertex -2.06934 -2.76693 7.5
    endloop
  endfacet
  facet normal 0 0 1
    outer loop
      vertex -1.92 -1.92 7.5
      vertex -2.18575 -2.73791 7.5
      vertex -2.12805 -2.75445 7.5
    endloop
  endfacet
  facet normal 0 0 1
    outer loop
      vertex -1.92 -1.92 7.5
      vertex -2.24216 -2.71738 7.5
      vertex -2.18575 -2.73791 7.5
    endloop
  endfacet
  facet normal 0 0 1
    outer loop
      vertex -1.92 -1.92 7.5
      vertex -2.297 -2.69296 7.5
      vertex -2.24216 -2.71738 7.5
    endloop
  endfacet
  facet normal 0 0 1
    outer loop
      vertex -1.92 -1.92 7.5
      vertex -2.35 -2.66478 7.5
      vertex -2.297 -2.69296 7.5
    endloop
  endfacet
  facet normal 0 0 1
    outer loop
      vertex -1.92 -1.92 7.5
      vertex -2.40091 -2.63297 7.5
      vertex -2.35 -2.66478 7.5
    endloop
  endfacet
  facet normal 0 0 1
    outer loop
      vertex -1.92 -1.92 7.5
      vertex -2.44947 -2.59769 7.5
      vertex -2.40091 -2.63297 7.5
    endloop
  endfacet
  facet normal 0 0 1
    outer loop
      vertex -1.92 -1.92 7.5
      vertex -2.49545 -2.5591 7.5
      vertex -2.44947 -2.59769 7.5
    endloop
  endfacet
  facet normal 0 0 1
    outer loop
      vertex -1.92 -1.92 7.5
      vertex -2.53863 -2.51741 7.5
      vertex -2.49545 -2.5591 7.5
    endloop
  endfacet
  facet normal 0 0 1
    outer loop
      vertex -1.92 -1.92 7.5
      vertex -2.5788 -2.4728 7.5
      vertex -2.53863 -2.51741 7.5
    endloop
  endfacet
  facet normal 0 0 1
    outer loop
      vertex -1.92 -1.92 7.5
      vertex -2.61575 -2.4255 7.5
      vertex -2.5788 -2.4728 7.5
    endloop
  endfacet
  facet normal 0 0 1
    outer loop
      vertex -1.92 -1.92 7.5
      vertex -2.64932 -2.37573 7.5
      vertex -2.61575 -2.4255 7.5
    endloop
  endfacet
  facet normal 0 0 1
    outer loop
      vertex -1.92 -1.92 7.5
      vertex -2.67933 -2.32374 7.5
      vertex -2.64932 -2.37573 7.5
    endloop
  endfacet
  facet normal 0 0 1
    outer loop
      vertex -1.92 -1.92 7.5
      vertex -2.70565 -2.26979 7.5
      vertex -2.67933 -2.32374 7.5
    endloop
  endfacet
  facet normal 0 0 1
    outer loop
      vertex -1.92 -1.92 7.5
      vertex -2.72814 -2.21414 7.5
      vertex -2.70565 -2.26979 7.5
    endloop
  endfacet
  facet normal 0 0 1
    outer loop
      vertex -1.92 -1.92 7.5
      vertex -2.74669 -2.15705 7.5
      vertex -2.72814 -2.21414 7.5
    endloop
  endfacet
  facet normal 0 0 1
    outer loop
      vertex -1.92 -1.92 7.5
      vertex -2.76121 -2.0988 7.5
      vertex -2.74669 -2.15705 7.5
    endloop
  endfacet
  facet normal 0 0 1
    outer loop
      vertex -1.92 -1.92 7.5
      vertex -2.77163 -2.03969 7.5
      vertex -2.76121 -2.0988 7.5
    endloop
  endfacet
  facet normal 0 0 1
    outer loop
      vertex -2.78 -1.92 7.5
      vertex -1.92 24.4353 7.5
      vertex -2.78 24.4353 7.5
    endloop
  endfacet
  facet normal 0 0 1
    outer loop
      vertex -1.92 -1.92 7.5
      vertex -2.7779 -1.97999 7.5
      vertex -2.77163 -2.03969 7.5
    endloop
  endfacet
  facet normal 0 0 1
    outer loop
      vertex 110.26 -1.92 7.5
      vertex 111.12 -1.92 7.5
      vertex 111.12 24.4353 7.5
    endloop
  endfacet
  facet normal 0 0 1
    outer loop
      vertex 111.12 -1.92 7.5
      vertex 110.26 -1.92 7.5
      vertex 111.118 -1.97999 7.5
    endloop
  endfacet
  facet normal 0 0 1
    outer loop
      vertex 111.118 -1.97999 7.5
      vertex 110.26 -1.92 7.5
      vertex 111.112 -2.03969 7.5
    endloop
  endfacet
  facet normal 0 0 1
    outer loop
      vertex 111.112 -2.03969 7.5
      vertex 110.26 -1.92 7.5
      vertex 111.101 -2.0988 7.5
    endloop
  endfacet
  facet normal 0 0 1
    outer loop
      vertex 111.101 -2.0988 7.5
      vertex 110.26 -1.92 7.5
      vertex 111.087 -2.15705 7.5
    endloop
  endfacet
  facet normal 0 0 1
    outer loop
      vertex 111.087 -2.15705 7.5
      vertex 110.26 -1.92 7.5
      vertex 111.068 -2.21414 7.5
    endloop
  endfacet
  facet normal 0 0 1
    outer loop
      vertex 111.068 -2.21414 7.5
      vertex 110.26 -1.92 7.5
      vertex 111.046 -2.26979 7.5
    endloop
  endfacet
  facet normal 0 0 1
    outer loop
      vertex 111.046 -2.26979 7.5
      vertex 110.26 -1.92 7.5
      vertex 111.019 -2.32374 7.5
    endloop
  endfacet
  facet normal 0 0 1
    outer loop
      vertex 111.019 -2.32374 7.5
      vertex 110.26 -1.92 7.5
      vertex 110.989 -2.37573 7.5
    endloop
  endfacet
  facet normal 0 0 1
    outer loop
      vertex 110.989 -2.37573 7.5
      vertex 110.26 -1.92 7.5
      vertex 110.956 -2.4255 7.5
    endloop
  endfacet
  facet normal 0 0 1
    outer loop
      vertex 110.956 -2.4255 7.5
      vertex 110.26 -1.92 7.5
      vertex 110.919 -2.4728 7.5
    endloop
  endfacet
  facet normal 0 0 1
    outer loop
      vertex 110.919 -2.4728 7.5
      vertex 110.26 -1.92 7.5
      vertex 110.879 -2.51741 7.5
    endloop
  endfacet
  facet normal 0 0 1
    outer loop
      vertex 110.879 -2.51741 7.5
      vertex 110.26 -1.92 7.5
      vertex 110.835 -2.5591 7.5
    endloop
  endfacet
  facet normal 0 0 1
    outer loop
      vertex 110.835 -2.5591 7.5
      vertex 110.26 -1.92 7.5
      vertex 110.789 -2.59769 7.5
    endloop
  endfacet
  facet normal 0 0 1
    outer loop
      vertex 110.789 -2.59769 7.5
      vertex 110.26 -1.92 7.5
      vertex 110.741 -2.63297 7.5
    endloop
  endfacet
  facet normal 0 0 1
    outer loop
      vertex 110.741 -2.63297 7.5
      vertex 110.26 -1.92 7.5
      vertex 110.69 -2.66478 7.5
    endloop
  endfacet
  facet normal 0 0 1
    outer loop
      vertex 110.69 -2.66478 7.5
      vertex 110.26 -1.92 7.5
      vertex 110.637 -2.69296 7.5
    endloop
  endfacet
  facet normal 0 0 1
    outer loop
      vertex 110.637 -2.69296 7.5
      vertex 110.26 -1.92 7.5
      vertex 110.582 -2.71738 7.5
    endloop
  endfacet
  facet normal 0 0 1
    outer loop
      vertex 110.582 -2.71738 7.5
      vertex 110.26 -1.92 7.5
      vertex 110.526 -2.73791 7.5
    endloop
  endfacet
  facet normal 0 0 1
    outer loop
      vertex 110.526 -2.73791 7.5
      vertex 110.26 -1.92 7.5
      vertex 110.468 -2.75445 7.5
    endloop
  endfacet
  facet normal 0 0 1
    outer loop
      vertex 110.468 -2.75445 7.5
      vertex 110.26 -1.92 7.5
      vertex 110.409 -2.76693 7.5
    endloop
  endfacet
  facet normal 0 0 1
    outer loop
      vertex 110.409 -2.76693 7.5
      vertex 110.26 -1.92 7.5
      vertex 110.35 -2.77529 7.5
    endloop
  endfacet
  facet normal 0 0 1
    outer loop
      vertex 110.26 -1.92 7.5
      vertex 111.12 24.4353 7.5
      vertex 110.26 24.4353 7.5
    endloop
  endfacet
  facet normal 0 0 1
    outer loop
      vertex 110.35 -2.77529 7.5
      vertex 110.26 -1.92 7.5
      vertex 110.29 -2.77948 7.5
    endloop
  endfacet
  facet normal -0 0 1
    outer loop
      vertex -1.92 -1.92 7.5
      vertex 110.29 -2.77948 7.5
      vertex 110.26 -1.92 7.5
    endloop
  endfacet
  facet normal 0 0 1
    outer loop
      vertex 110.29 -2.77948 7.5
      vertex -1.92 -1.92 7.5
      vertex -1.95001 -2.77948 7.5
    endloop
  endfacet
  facet normal 0 0 1
    outer loop
      vertex 110.29 62.7795 7.5
      vertex -1.92 61.92 7.5
      vertex 110.26 61.92 7.5
    endloop
  endfacet
  facet normal -0 0 1
    outer loop
      vertex -1.95001 62.7795 7.5
      vertex -1.92 61.92 7.5
      vertex 110.29 62.7795 7.5
    endloop
  endfacet
  facet normal -0 0 1
    outer loop
      vertex -2.00989 62.7753 7.5
      vertex -1.92 61.92 7.5
      vertex -1.95001 62.7795 7.5
    endloop
  endfacet
  facet normal -0 0 1
    outer loop
      vertex -2.06934 62.7669 7.5
      vertex -1.92 61.92 7.5
      vertex -2.00989 62.7753 7.5
    endloop
  endfacet
  facet normal -0 0 1
    outer loop
      vertex -2.12805 62.7545 7.5
      vertex -1.92 61.92 7.5
      vertex -2.06934 62.7669 7.5
    endloop
  endfacet
  facet normal -0 0 1
    outer loop
      vertex -2.18575 62.7379 7.5
      vertex -1.92 61.92 7.5
      vertex -2.12805 62.7545 7.5
    endloop
  endfacet
  facet normal -0 0 1
    outer loop
      vertex -2.24216 62.7174 7.5
      vertex -1.92 61.92 7.5
      vertex -2.18575 62.7379 7.5
    endloop
  endfacet
  facet normal -0 0 1
    outer loop
      vertex -2.297 62.693 7.5
      vertex -1.92 61.92 7.5
      vertex -2.24216 62.7174 7.5
    endloop
  endfacet
  facet normal -0 0 1
    outer loop
      vertex -2.35 62.6648 7.5
      vertex -1.92 61.92 7.5
      vertex -2.297 62.693 7.5
    endloop
  endfacet
  facet normal -0 0 1
    outer loop
      vertex -2.40091 62.633 7.5
      vertex -1.92 61.92 7.5
      vertex -2.35 62.6648 7.5
    endloop
  endfacet
  facet normal -0 0 1
    outer loop
      vertex -2.44947 62.5977 7.5
      vertex -1.92 61.92 7.5
      vertex -2.40091 62.633 7.5
    endloop
  endfacet
  facet normal -0 0 1
    outer loop
      vertex -2.49545 62.5591 7.5
      vertex -1.92 61.92 7.5
      vertex -2.44947 62.5977 7.5
    endloop
  endfacet
  facet normal -0 0 1
    outer loop
      vertex -2.53863 62.5174 7.5
      vertex -1.92 61.92 7.5
      vertex -2.49545 62.5591 7.5
    endloop
  endfacet
  facet normal -0 0 1
    outer loop
      vertex -2.5788 62.4728 7.5
      vertex -1.92 61.92 7.5
      vertex -2.53863 62.5174 7.5
    endloop
  endfacet
  facet normal -0 0 1
    outer loop
      vertex -2.61575 62.4255 7.5
      vertex -1.92 61.92 7.5
      vertex -2.5788 62.4728 7.5
    endloop
  endfacet
  facet normal -0 0 1
    outer loop
      vertex -2.64932 62.3757 7.5
      vertex -1.92 61.92 7.5
      vertex -2.61575 62.4255 7.5
    endloop
  endfacet
  facet normal -0 0 1
    outer loop
      vertex -2.67933 62.3237 7.5
      vertex -1.92 61.92 7.5
      vertex -2.64932 62.3757 7.5
    endloop
  endfacet
  facet normal -0 0 1
    outer loop
      vertex -2.70565 62.2698 7.5
      vertex -1.92 61.92 7.5
      vertex -2.67933 62.3237 7.5
    endloop
  endfacet
  facet normal -0 0 1
    outer loop
      vertex -2.72814 62.2141 7.5
      vertex -1.92 61.92 7.5
      vertex -2.70565 62.2698 7.5
    endloop
  endfacet
  facet normal -0 0 1
    outer loop
      vertex -2.74669 62.157 7.5
      vertex -1.92 61.92 7.5
      vertex -2.72814 62.2141 7.5
    endloop
  endfacet
  facet normal -0 0 1
    outer loop
      vertex -2.76121 62.0988 7.5
      vertex -1.92 61.92 7.5
      vertex -2.74669 62.157 7.5
    endloop
  endfacet
  facet normal -0 0 1
    outer loop
      vertex -2.77163 62.0397 7.5
      vertex -1.92 61.92 7.5
      vertex -2.76121 62.0988 7.5
    endloop
  endfacet
  facet normal -0 0 1
    outer loop
      vertex -2.7779 61.98 7.5
      vertex -1.92 61.92 7.5
      vertex -2.77163 62.0397 7.5
    endloop
  endfacet
  facet normal 0 0 1
    outer loop
      vertex -1.92 61.92 7.5
      vertex -2.7779 61.98 7.5
      vertex -2.78 61.92 7.5
    endloop
  endfacet
  facet normal 0 0 1
    outer loop
      vertex -1.92 61.92 7.5
      vertex -2.78 61.92 7.5
      vertex -1.92 35.9247 7.5
    endloop
  endfacet
  facet normal 0 0 1
    outer loop
      vertex -1.92 35.9247 7.5
      vertex -2.78 61.92 7.5
      vertex -2.78 35.9247 7.5
    endloop
  endfacet
  facet normal 0 0 1
    outer loop
      vertex 110.26 61.92 7.5
      vertex 111.12 61.92 7.5
      vertex 111.118 61.98 7.5
    endloop
  endfacet
  facet normal 0 0 1
    outer loop
      vertex 110.26 61.92 7.5
      vertex 111.118 61.98 7.5
      vertex 111.112 62.0397 7.5
    endloop
  endfacet
  facet normal 0 0 1
    outer loop
      vertex 110.26 61.92 7.5
      vertex 111.112 62.0397 7.5
      vertex 111.101 62.0988 7.5
    endloop
  endfacet
  facet normal 0 0 1
    outer loop
      vertex 110.26 61.92 7.5
      vertex 111.101 62.0988 7.5
      vertex 111.087 62.157 7.5
    endloop
  endfacet
  facet normal 0 0 1
    outer loop
      vertex 110.26 61.92 7.5
      vertex 111.087 62.157 7.5
      vertex 111.068 62.2141 7.5
    endloop
  endfacet
  facet normal 0 0 1
    outer loop
      vertex 110.26 61.92 7.5
      vertex 111.068 62.2141 7.5
      vertex 111.046 62.2698 7.5
    endloop
  endfacet
  facet normal 0 0 1
    outer loop
      vertex 110.26 61.92 7.5
      vertex 111.046 62.2698 7.5
      vertex 111.019 62.3237 7.5
    endloop
  endfacet
  facet normal 0 0 1
    outer loop
      vertex 110.26 61.92 7.5
      vertex 111.019 62.3237 7.5
      vertex 110.989 62.3757 7.5
    endloop
  endfacet
  facet normal 0 0 1
    outer loop
      vertex 110.26 61.92 7.5
      vertex 110.989 62.3757 7.5
      vertex 110.956 62.4255 7.5
    endloop
  endfacet
  facet normal 0 0 1
    outer loop
      vertex 110.26 61.92 7.5
      vertex 110.956 62.4255 7.5
      vertex 110.919 62.4728 7.5
    endloop
  endfacet
  facet normal 0 0 1
    outer loop
      vertex 110.26 61.92 7.5
      vertex 110.919 62.4728 7.5
      vertex 110.879 62.5174 7.5
    endloop
  endfacet
  facet normal 0 0 1
    outer loop
      vertex 110.26 61.92 7.5
      vertex 110.879 62.5174 7.5
      vertex 110.835 62.5591 7.5
    endloop
  endfacet
  facet normal 0 0 1
    outer loop
      vertex 110.26 61.92 7.5
      vertex 110.835 62.5591 7.5
      vertex 110.789 62.5977 7.5
    endloop
  endfacet
  facet normal 0 0 1
    outer loop
      vertex 110.26 61.92 7.5
      vertex 110.789 62.5977 7.5
      vertex 110.741 62.633 7.5
    endloop
  endfacet
  facet normal 0 0 1
    outer loop
      vertex 110.26 61.92 7.5
      vertex 110.741 62.633 7.5
      vertex 110.69 62.6648 7.5
    endloop
  endfacet
  facet normal 0 0 1
    outer loop
      vertex 110.26 61.92 7.5
      vertex 110.69 62.6648 7.5
      vertex 110.637 62.693 7.5
    endloop
  endfacet
  facet normal 0 0 1
    outer loop
      vertex 110.26 61.92 7.5
      vertex 110.637 62.693 7.5
      vertex 110.582 62.7174 7.5
    endloop
  endfacet
  facet normal 0 0 1
    outer loop
      vertex 110.26 61.92 7.5
      vertex 110.582 62.7174 7.5
      vertex 110.526 62.7379 7.5
    endloop
  endfacet
  facet normal 0 0 1
    outer loop
      vertex 110.26 61.92 7.5
      vertex 110.526 62.7379 7.5
      vertex 110.468 62.7545 7.5
    endloop
  endfacet
  facet normal 0 0 1
    outer loop
      vertex 110.26 61.92 7.5
      vertex 110.468 62.7545 7.5
      vertex 110.409 62.7669 7.5
    endloop
  endfacet
  facet normal 0 0 1
    outer loop
      vertex 110.26 61.92 7.5
      vertex 110.409 62.7669 7.5
      vertex 110.35 62.7753 7.5
    endloop
  endfacet
  facet normal 0 0 1
    outer loop
      vertex 110.26 61.92 7.5
      vertex 110.35 62.7753 7.5
      vertex 110.29 62.7795 7.5
    endloop
  endfacet
  facet normal 0 0 1
    outer loop
      vertex 111.12 61.92 7.5
      vertex 110.26 61.92 7.5
      vertex 111.12 35.9247 7.5
    endloop
  endfacet
  facet normal 0 0 1
    outer loop
      vertex 111.12 35.9247 7.5
      vertex 110.26 61.92 7.5
      vertex 110.26 35.9247 7.5
    endloop
  endfacet
  facet normal -0.469475 -0.882946 0
    outer loop
      vertex -2.35 -2.66478 -0.6
      vertex -2.297 -2.69296 7.5
      vertex -2.35 -2.66478 7.5
    endloop
  endfacet
  facet normal -0.469475 -0.882946 -0
    outer loop
      vertex -2.297 -2.69296 7.5
      vertex -2.35 -2.66478 -0.6
      vertex -2.297 -2.69296 -0.6
    endloop
  endfacet
  facet normal -0.999391 -0.034905 0
    outer loop
      vertex -2.7779 -1.97999 -0.6
      vertex -2.78 -1.92 7.5
      vertex -2.78 -1.92 -0.6
    endloop
  endfacet
  facet normal -0.999391 -0.034905 0
    outer loop
      vertex -2.78 -1.92 7.5
      vertex -2.7779 -1.97999 -0.6
      vertex -2.7779 -1.97999 7.5
    endloop
  endfacet
  facet normal -0.469499 0.882933 0
    outer loop
      vertex -2.297 62.693 -0.6
      vertex -2.35 62.6648 7.5
      vertex -2.297 62.693 7.5
    endloop
  endfacet
  facet normal -0.469499 0.882933 0
    outer loop
      vertex -2.35 62.6648 7.5
      vertex -2.297 62.693 -0.6
      vertex -2.35 62.6648 -0.6
    endloop
  endfacet
  facet normal 0.999389 0.0349526 0
    outer loop
      vertex 111.12 61.92 7.5
      vertex 111.118 61.98 -0.6
      vertex 111.118 61.98 7.5
    endloop
  endfacet
  facet normal 0.999389 0.0349526 0
    outer loop
      vertex 111.118 61.98 -0.6
      vertex 111.12 61.92 7.5
      vertex 111.12 61.92 -0.6
    endloop
  endfacet
  facet normal 0.743116 -0.669162 0
    outer loop
      vertex 110.879 -2.51741 7.5
      vertex 110.919 -2.4728 -0.6
      vertex 110.919 -2.4728 7.5
    endloop
  endfacet
  facet normal 0.743116 -0.669162 0
    outer loop
      vertex 110.919 -2.4728 -0.6
      vertex 110.879 -2.51741 7.5
      vertex 110.879 -2.51741 -0.6
    endloop
  endfacet
  facet normal 0 -1 0
    outer loop
      vertex -1.95001 -2.77948 -0.6
      vertex 110.29 -2.77948 7.5
      vertex -1.95001 -2.77948 7.5
    endloop
  endfacet
  facet normal 0 -1 -0
    outer loop
      vertex 110.29 -2.77948 7.5
      vertex -1.95001 -2.77948 -0.6
      vertex 110.29 -2.77948 -0.6
    endloop
  endfacet
  facet normal -0.52992 -0.848047 0
    outer loop
      vertex -2.40091 -2.63297 -0.6
      vertex -2.35 -2.66478 7.5
      vertex -2.40091 -2.63297 7.5
    endloop
  endfacet
  facet normal -0.52992 -0.848047 -0
    outer loop
      vertex -2.35 -2.66478 7.5
      vertex -2.40091 -2.63297 -0.6
      vertex -2.35 -2.66478 -0.6
    endloop
  endfacet
  facet normal 0.898794 0.438371 0
    outer loop
      vertex 111.046 62.2698 7.5
      vertex 111.019 62.3237 -0.6
      vertex 111.019 62.3237 7.5
    endloop
  endfacet
  facet normal 0.898794 0.438371 0
    outer loop
      vertex 111.019 62.3237 -0.6
      vertex 111.046 62.2698 7.5
      vertex 111.046 62.2698 -0.6
    endloop
  endfacet
  facet normal 0.529908 0.848055 -0
    outer loop
      vertex 110.741 62.633 -0.6
      vertex 110.69 62.6648 7.5
      vertex 110.741 62.633 7.5
    endloop
  endfacet
  facet normal 0.529908 0.848055 0
    outer loop
      vertex 110.69 62.6648 7.5
      vertex 110.741 62.633 -0.6
      vertex 110.69 62.6648 -0.6
    endloop
  endfacet
  facet normal 0.469468 -0.882949 0
    outer loop
      vertex 110.637 -2.69296 -0.6
      vertex 110.69 -2.66478 7.5
      vertex 110.637 -2.69296 7.5
    endloop
  endfacet
  facet normal 0.469468 -0.882949 0
    outer loop
      vertex 110.69 -2.66478 7.5
      vertex 110.637 -2.69296 -0.6
      vertex 110.69 -2.66478 -0.6
    endloop
  endfacet
  facet normal 0.642797 -0.766037 0
    outer loop
      vertex 110.789 -2.59769 -0.6
      vertex 110.835 -2.5591 7.5
      vertex 110.789 -2.59769 7.5
    endloop
  endfacet
  facet normal 0.642797 -0.766037 0
    outer loop
      vertex 110.835 -2.5591 7.5
      vertex 110.789 -2.59769 -0.6
      vertex 110.835 -2.5591 -0.6
    endloop
  endfacet
  facet normal -0.694663 -0.719336 0
    outer loop
      vertex -2.53863 -2.51741 -0.6
      vertex -2.49545 -2.5591 7.5
      vertex -2.53863 -2.51741 7.5
    endloop
  endfacet
  facet normal -0.694663 -0.719336 -0
    outer loop
      vertex -2.49545 -2.5591 7.5
      vertex -2.53863 -2.51741 -0.6
      vertex -2.49545 -2.5591 -0.6
    endloop
  endfacet
  facet normal -0.406729 -0.913549 0
    outer loop
      vertex -2.297 -2.69296 -0.6
      vertex -2.24216 -2.71738 7.5
      vertex -2.297 -2.69296 7.5
    endloop
  endfacet
  facet normal -0.406729 -0.913549 -0
    outer loop
      vertex -2.24216 -2.71738 7.5
      vertex -2.297 -2.69296 -0.6
      vertex -2.24216 -2.71738 -0.6
    endloop
  endfacet
  facet normal 0 1 -0
    outer loop
      vertex 110.29 62.7795 -0.6
      vertex -1.95001 62.7795 7.5
      vertex 110.29 62.7795 7.5
    endloop
  endfacet
  facet normal 0 1 0
    outer loop
      vertex -1.95001 62.7795 7.5
      vertex 110.29 62.7795 -0.6
      vertex -1.95001 62.7795 -0.6
    endloop
  endfacet
  facet normal 0.984792 0.173738 0
    outer loop
      vertex 111.112 62.0397 7.5
      vertex 111.101 62.0988 -0.6
      vertex 111.101 62.0988 7.5
    endloop
  endfacet
  facet normal 0.984792 0.173738 0
    outer loop
      vertex 111.101 62.0988 -0.6
      vertex 111.112 62.0397 7.5
      vertex 111.112 62.0397 -0.6
    endloop
  endfacet
  facet normal 0.469493 0.882936 -0
    outer loop
      vertex 110.69 62.6648 -0.6
      vertex 110.637 62.693 7.5
      vertex 110.69 62.6648 7.5
    endloop
  endfacet
  facet normal 0.469493 0.882936 0
    outer loop
      vertex 110.637 62.693 7.5
      vertex 110.69 62.6648 -0.6
      vertex 110.637 62.693 -0.6
    endloop
  endfacet
  facet normal 0.984791 -0.173741 0
    outer loop
      vertex 111.101 -2.0988 7.5
      vertex 111.112 -2.03969 -0.6
      vertex 111.112 -2.03969 7.5
    endloop
  endfacet
  facet normal 0.984791 -0.173741 0
    outer loop
      vertex 111.112 -2.03969 -0.6
      vertex 111.101 -2.0988 7.5
      vertex 111.101 -2.0988 -0.6
    endloop
  endfacet
  facet normal 0.898794 -0.438371 0
    outer loop
      vertex 111.019 -2.32374 7.5
      vertex 111.046 -2.26979 -0.6
      vertex 111.046 -2.26979 7.5
    endloop
  endfacet
  facet normal 0.898794 -0.438371 0
    outer loop
      vertex 111.046 -2.26979 -0.6
      vertex 111.019 -2.32374 7.5
      vertex 111.019 -2.32374 -0.6
    endloop
  endfacet
  facet normal 0.275634 -0.961263 0
    outer loop
      vertex 110.468 -2.75445 -0.6
      vertex 110.526 -2.73791 7.5
      vertex 110.468 -2.75445 7.5
    endloop
  endfacet
  facet normal 0.275634 -0.961263 0
    outer loop
      vertex 110.526 -2.73791 7.5
      vertex 110.468 -2.75445 -0.6
      vertex 110.526 -2.73791 -0.6
    endloop
  endfacet
  facet normal 0.342039 -0.939686 0
    outer loop
      vertex 110.526 -2.73791 -0.6
      vertex 110.582 -2.71738 7.5
      vertex 110.526 -2.73791 7.5
    endloop
  endfacet
  facet normal 0.342039 -0.939686 0
    outer loop
      vertex 110.582 -2.71738 7.5
      vertex 110.526 -2.73791 -0.6
      vertex 110.582 -2.71738 -0.6
    endloop
  endfacet
  facet normal 0.694639 -0.719359 0
    outer loop
      vertex 110.835 -2.5591 -0.6
      vertex 110.879 -2.51741 7.5
      vertex 110.835 -2.5591 7.5
    endloop
  endfacet
  facet normal 0.694639 -0.719359 0
    outer loop
      vertex 110.879 -2.51741 7.5
      vertex 110.835 -2.5591 -0.6
      vertex 110.879 -2.51741 -0.6
    endloop
  endfacet
  facet normal -0.587785 -0.809017 0
    outer loop
      vertex -2.44947 -2.59769 -0.6
      vertex -2.40091 -2.63297 7.5
      vertex -2.44947 -2.59769 7.5
    endloop
  endfacet
  facet normal -0.587785 -0.809017 -0
    outer loop
      vertex -2.40091 -2.63297 7.5
      vertex -2.44947 -2.59769 -0.6
      vertex -2.40091 -2.63297 -0.6
    endloop
  endfacet
  facet normal -0.207917 -0.978147 0
    outer loop
      vertex -2.12805 -2.75445 -0.6
      vertex -2.06934 -2.76693 7.5
      vertex -2.12805 -2.75445 7.5
    endloop
  endfacet
  facet normal -0.207917 -0.978147 -0
    outer loop
      vertex -2.06934 -2.76693 7.5
      vertex -2.12805 -2.75445 -0.6
      vertex -2.06934 -2.76693 -0.6
    endloop
  endfacet
  facet normal -0.984808 -0.173648 0
    outer loop
      vertex -2.76121 -2.0988 -0.6
      vertex -2.77163 -2.03969 7.5
      vertex -2.77163 -2.03969 -0.6
    endloop
  endfacet
  facet normal -0.984808 -0.173648 0
    outer loop
      vertex -2.77163 -2.03969 7.5
      vertex -2.76121 -2.0988 -0.6
      vertex -2.76121 -2.0988 7.5
    endloop
  endfacet
  facet normal -0.642761 0.766067 0
    outer loop
      vertex -2.44947 62.5977 -0.6
      vertex -2.49545 62.5591 7.5
      vertex -2.44947 62.5977 7.5
    endloop
  endfacet
  facet normal -0.642761 0.766067 0
    outer loop
      vertex -2.49545 62.5591 7.5
      vertex -2.44947 62.5977 -0.6
      vertex -2.49545 62.5591 -0.6
    endloop
  endfacet
  facet normal 0.275619 0.961267 -0
    outer loop
      vertex 110.526 62.7379 -0.6
      vertex 110.468 62.7545 7.5
      vertex 110.526 62.7379 7.5
    endloop
  endfacet
  facet normal 0.275619 0.961267 0
    outer loop
      vertex 110.468 62.7545 7.5
      vertex 110.526 62.7379 -0.6
      vertex 110.468 62.7545 -0.6
    endloop
  endfacet
  facet normal -0.207932 0.978143 0
    outer loop
      vertex -2.06934 62.7669 -0.6
      vertex -2.12805 62.7545 7.5
      vertex -2.06934 62.7669 7.5
    endloop
  endfacet
  facet normal -0.207932 0.978143 0
    outer loop
      vertex -2.12805 62.7545 7.5
      vertex -2.06934 62.7669 -0.6
      vertex -2.12805 62.7545 -0.6
    endloop
  endfacet
  facet normal 0.207932 0.978143 -0
    outer loop
      vertex 110.468 62.7545 -0.6
      vertex 110.409 62.7669 7.5
      vertex 110.468 62.7545 7.5
    endloop
  endfacet
  facet normal 0.207932 0.978143 0
    outer loop
      vertex 110.409 62.7669 7.5
      vertex 110.468 62.7545 -0.6
      vertex 110.409 62.7669 -0.6
    endloop
  endfacet
  facet normal 0.139161 0.99027 -0
    outer loop
      vertex 110.409 62.7669 -0.6
      vertex 110.35 62.7753 7.5
      vertex 110.409 62.7669 7.5
    endloop
  endfacet
  facet normal 0.139161 0.99027 0
    outer loop
      vertex 110.35 62.7753 7.5
      vertex 110.409 62.7669 -0.6
      vertex 110.35 62.7753 -0.6
    endloop
  endfacet
  facet normal -0.139174 0.990268 0
    outer loop
      vertex -2.00989 62.7753 -0.6
      vertex -2.06934 62.7669 7.5
      vertex -2.00989 62.7753 7.5
    endloop
  endfacet
  facet normal -0.139174 0.990268 0
    outer loop
      vertex -2.06934 62.7669 7.5
      vertex -2.00989 62.7753 -0.6
      vertex -2.06934 62.7669 -0.6
    endloop
  endfacet
  facet normal 0.994528 0.104473 0
    outer loop
      vertex 111.118 61.98 7.5
      vertex 111.112 62.0397 -0.6
      vertex 111.112 62.0397 7.5
    endloop
  endfacet
  facet normal 0.994528 0.104473 0
    outer loop
      vertex 111.112 62.0397 -0.6
      vertex 111.118 61.98 7.5
      vertex 111.118 61.98 -0.6
    endloop
  endfacet
  facet normal 0.829086 0.559121 0
    outer loop
      vertex 110.989 62.3757 7.5
      vertex 110.956 62.4255 -0.6
      vertex 110.956 62.4255 7.5
    endloop
  endfacet
  facet normal 0.829086 0.559121 0
    outer loop
      vertex 110.956 62.4255 -0.6
      vertex 110.989 62.3757 7.5
      vertex 110.989 62.3757 -0.6
    endloop
  endfacet
  facet normal 0.994527 -0.104476 0
    outer loop
      vertex 111.112 -2.03969 7.5
      vertex 111.118 -1.97999 -0.6
      vertex 111.118 -1.97999 7.5
    endloop
  endfacet
  facet normal 0.994527 -0.104476 0
    outer loop
      vertex 111.118 -1.97999 -0.6
      vertex 111.112 -2.03969 7.5
      vertex 111.112 -2.03969 -0.6
    endloop
  endfacet
  facet normal 0.970308 -0.241874 0
    outer loop
      vertex 111.087 -2.15705 7.5
      vertex 111.101 -2.0988 -0.6
      vertex 111.101 -2.0988 7.5
    endloop
  endfacet
  facet normal 0.970308 -0.241874 0
    outer loop
      vertex 111.101 -2.0988 -0.6
      vertex 111.087 -2.15705 7.5
      vertex 111.087 -2.15705 -0.6
    endloop
  endfacet
  facet normal 0.788009 -0.615664 0
    outer loop
      vertex 110.919 -2.4728 7.5
      vertex 110.956 -2.4255 -0.6
      vertex 110.956 -2.4255 7.5
    endloop
  endfacet
  facet normal 0.788009 -0.615664 0
    outer loop
      vertex 110.956 -2.4255 -0.6
      vertex 110.919 -2.4728 7.5
      vertex 110.919 -2.4728 -0.6
    endloop
  endfacet
  facet normal 0.207917 -0.978147 0
    outer loop
      vertex 110.409 -2.76693 -0.6
      vertex 110.468 -2.75445 7.5
      vertex 110.409 -2.76693 7.5
    endloop
  endfacet
  facet normal 0.207917 -0.978147 0
    outer loop
      vertex 110.468 -2.75445 7.5
      vertex 110.409 -2.76693 -0.6
      vertex 110.468 -2.75445 -0.6
    endloop
  endfacet
  facet normal 0.5878 -0.809006 0
    outer loop
      vertex 110.741 -2.63297 -0.6
      vertex 110.789 -2.59769 7.5
      vertex 110.741 -2.63297 7.5
    endloop
  endfacet
  facet normal 0.5878 -0.809006 0
    outer loop
      vertex 110.789 -2.59769 7.5
      vertex 110.741 -2.63297 -0.6
      vertex 110.789 -2.59769 -0.6
    endloop
  endfacet
  facet normal -0.275634 -0.961263 0
    outer loop
      vertex -2.18575 -2.73791 -0.6
      vertex -2.12805 -2.75445 7.5
      vertex -2.18575 -2.73791 7.5
    endloop
  endfacet
  facet normal -0.275634 -0.961263 -0
    outer loop
      vertex -2.12805 -2.75445 7.5
      vertex -2.18575 -2.73791 -0.6
      vertex -2.12805 -2.75445 -0.6
    endloop
  endfacet
  facet normal 0 0 -1
    outer loop
      vertex 110.29 -2.77948 -0.6
      vertex 111.12 -1.92 -0.6
      vertex 111.118 -1.97999 -0.6
    endloop
  endfacet
  facet normal -0 0 -1
    outer loop
      vertex 111.12 -1.92 -0.6
      vertex 110.29 -2.77948 -0.6
      vertex 111.12 61.92 -0.6
    endloop
  endfacet
  facet normal 0 0 -1
    outer loop
      vertex 110.29 -2.77948 -0.6
      vertex 111.118 -1.97999 -0.6
      vertex 111.112 -2.03969 -0.6
    endloop
  endfacet
  facet normal 0 0 -1
    outer loop
      vertex 110.29 62.7795 -0.6
      vertex 111.12 61.92 -0.6
      vertex 110.29 -2.77948 -0.6
    endloop
  endfacet
  facet normal 0 0 -1
    outer loop
      vertex 110.29 -2.77948 -0.6
      vertex 111.112 -2.03969 -0.6
      vertex 111.101 -2.0988 -0.6
    endloop
  endfacet
  facet normal 0 0 -1
    outer loop
      vertex 111.12 61.92 -0.6
      vertex 110.29 62.7795 -0.6
      vertex 111.118 61.98 -0.6
    endloop
  endfacet
  facet normal 0 0 -1
    outer loop
      vertex 110.29 -2.77948 -0.6
      vertex 111.101 -2.0988 -0.6
      vertex 111.087 -2.15705 -0.6
    endloop
  endfacet
  facet normal 0 0 -1
    outer loop
      vertex 111.118 61.98 -0.6
      vertex 110.29 62.7795 -0.6
      vertex 111.112 62.0397 -0.6
    endloop
  endfacet
  facet normal 0 0 -1
    outer loop
      vertex 110.29 -2.77948 -0.6
      vertex 111.087 -2.15705 -0.6
      vertex 111.068 -2.21414 -0.6
    endloop
  endfacet
  facet normal 0 0 -1
    outer loop
      vertex 111.112 62.0397 -0.6
      vertex 110.29 62.7795 -0.6
      vertex 111.101 62.0988 -0.6
    endloop
  endfacet
  facet normal 0 0 -1
    outer loop
      vertex 110.29 -2.77948 -0.6
      vertex 111.068 -2.21414 -0.6
      vertex 111.046 -2.26979 -0.6
    endloop
  endfacet
  facet normal 0 0 -1
    outer loop
      vertex 111.101 62.0988 -0.6
      vertex 110.29 62.7795 -0.6
      vertex 111.087 62.157 -0.6
    endloop
  endfacet
  facet normal 0 0 -1
    outer loop
      vertex 110.29 -2.77948 -0.6
      vertex 111.046 -2.26979 -0.6
      vertex 111.019 -2.32374 -0.6
    endloop
  endfacet
  facet normal 0 0 -1
    outer loop
      vertex 111.087 62.157 -0.6
      vertex 110.29 62.7795 -0.6
      vertex 111.068 62.2141 -0.6
    endloop
  endfacet
  facet normal 0 0 -1
    outer loop
      vertex 110.29 -2.77948 -0.6
      vertex 111.019 -2.32374 -0.6
      vertex 110.989 -2.37573 -0.6
    endloop
  endfacet
  facet normal 0 0 -1
    outer loop
      vertex 111.068 62.2141 -0.6
      vertex 110.29 62.7795 -0.6
      vertex 111.046 62.2698 -0.6
    endloop
  endfacet
  facet normal 0 0 -1
    outer loop
      vertex 110.29 -2.77948 -0.6
      vertex 110.989 -2.37573 -0.6
      vertex 110.956 -2.4255 -0.6
    endloop
  endfacet
  facet normal 0 0 -1
    outer loop
      vertex 111.046 62.2698 -0.6
      vertex 110.29 62.7795 -0.6
      vertex 111.019 62.3237 -0.6
    endloop
  endfacet
  facet normal 0 0 -1
    outer loop
      vertex 110.29 -2.77948 -0.6
      vertex 110.956 -2.4255 -0.6
      vertex 110.919 -2.4728 -0.6
    endloop
  endfacet
  facet normal 0 0 -1
    outer loop
      vertex 111.019 62.3237 -0.6
      vertex 110.29 62.7795 -0.6
      vertex 110.989 62.3757 -0.6
    endloop
  endfacet
  facet normal 0 0 -1
    outer loop
      vertex 110.29 -2.77948 -0.6
      vertex 110.919 -2.4728 -0.6
      vertex 110.879 -2.51741 -0.6
    endloop
  endfacet
  facet normal 0 0 -1
    outer loop
      vertex 110.989 62.3757 -0.6
      vertex 110.29 62.7795 -0.6
      vertex 110.956 62.4255 -0.6
    endloop
  endfacet
  facet normal 0 0 -1
    outer loop
      vertex 110.29 -2.77948 -0.6
      vertex 110.879 -2.51741 -0.6
      vertex 110.835 -2.5591 -0.6
    endloop
  endfacet
  facet normal 0 0 -1
    outer loop
      vertex 110.956 62.4255 -0.6
      vertex 110.29 62.7795 -0.6
      vertex 110.919 62.4728 -0.6
    endloop
  endfacet
  facet normal 0 0 -1
    outer loop
      vertex 110.29 -2.77948 -0.6
      vertex 110.835 -2.5591 -0.6
      vertex 110.789 -2.59769 -0.6
    endloop
  endfacet
  facet normal 0 0 -1
    outer loop
      vertex 110.919 62.4728 -0.6
      vertex 110.29 62.7795 -0.6
      vertex 110.879 62.5174 -0.6
    endloop
  endfacet
  facet normal 0 0 -1
    outer loop
      vertex 110.29 -2.77948 -0.6
      vertex 110.789 -2.59769 -0.6
      vertex 110.741 -2.63297 -0.6
    endloop
  endfacet
  facet normal 0 0 -1
    outer loop
      vertex 110.879 62.5174 -0.6
      vertex 110.29 62.7795 -0.6
      vertex 110.835 62.5591 -0.6
    endloop
  endfacet
  facet normal 0 0 -1
    outer loop
      vertex 110.29 -2.77948 -0.6
      vertex 110.741 -2.63297 -0.6
      vertex 110.69 -2.66478 -0.6
    endloop
  endfacet
  facet normal 0 0 -1
    outer loop
      vertex 110.835 62.5591 -0.6
      vertex 110.29 62.7795 -0.6
      vertex 110.789 62.5977 -0.6
    endloop
  endfacet
  facet normal 0 0 -1
    outer loop
      vertex 110.29 -2.77948 -0.6
      vertex 110.69 -2.66478 -0.6
      vertex 110.637 -2.69296 -0.6
    endloop
  endfacet
  facet normal 0 0 -1
    outer loop
      vertex 110.789 62.5977 -0.6
      vertex 110.29 62.7795 -0.6
      vertex 110.741 62.633 -0.6
    endloop
  endfacet
  facet normal 0 0 -1
    outer loop
      vertex 110.29 -2.77948 -0.6
      vertex 110.637 -2.69296 -0.6
      vertex 110.582 -2.71738 -0.6
    endloop
  endfacet
  facet normal 0 0 -1
    outer loop
      vertex 110.741 62.633 -0.6
      vertex 110.29 62.7795 -0.6
      vertex 110.69 62.6648 -0.6
    endloop
  endfacet
  facet normal 0 0 -1
    outer loop
      vertex 110.29 -2.77948 -0.6
      vertex 110.582 -2.71738 -0.6
      vertex 110.526 -2.73791 -0.6
    endloop
  endfacet
  facet normal 0 0 -1
    outer loop
      vertex 110.69 62.6648 -0.6
      vertex 110.29 62.7795 -0.6
      vertex 110.637 62.693 -0.6
    endloop
  endfacet
  facet normal 0 0 -1
    outer loop
      vertex 110.29 -2.77948 -0.6
      vertex 110.526 -2.73791 -0.6
      vertex 110.468 -2.75445 -0.6
    endloop
  endfacet
  facet normal 0 0 -1
    outer loop
      vertex 110.637 62.693 -0.6
      vertex 110.29 62.7795 -0.6
      vertex 110.582 62.7174 -0.6
    endloop
  endfacet
  facet normal 0 0 -1
    outer loop
      vertex 110.29 -2.77948 -0.6
      vertex 110.468 -2.75445 -0.6
      vertex 110.409 -2.76693 -0.6
    endloop
  endfacet
  facet normal 0 0 -1
    outer loop
      vertex 110.582 62.7174 -0.6
      vertex 110.29 62.7795 -0.6
      vertex 110.526 62.7379 -0.6
    endloop
  endfacet
  facet normal 0 0 -1
    outer loop
      vertex 110.29 -2.77948 -0.6
      vertex 110.409 -2.76693 -0.6
      vertex 110.35 -2.77529 -0.6
    endloop
  endfacet
  facet normal 0 0 -1
    outer loop
      vertex 110.526 62.7379 -0.6
      vertex 110.29 62.7795 -0.6
      vertex 110.468 62.7545 -0.6
    endloop
  endfacet
  facet normal 0 0 -1
    outer loop
      vertex 110.468 62.7545 -0.6
      vertex 110.29 62.7795 -0.6
      vertex 110.409 62.7669 -0.6
    endloop
  endfacet
  facet normal 0 0 -1
    outer loop
      vertex 110.409 62.7669 -0.6
      vertex 110.29 62.7795 -0.6
      vertex 110.35 62.7753 -0.6
    endloop
  endfacet
  facet normal 0 0 -1
    outer loop
      vertex -1.95001 -2.77948 -0.6
      vertex 110.29 62.7795 -0.6
      vertex 110.29 -2.77948 -0.6
    endloop
  endfacet
  facet normal 0 0 -1
    outer loop
      vertex -1.95001 -2.77948 -0.6
      vertex -1.95001 62.7795 -0.6
      vertex 110.29 62.7795 -0.6
    endloop
  endfacet
  facet normal 0 0 -1
    outer loop
      vertex -2.78 -1.92 -0.6
      vertex -1.95001 -2.77948 -0.6
      vertex -2.00989 -2.77529 -0.6
    endloop
  endfacet
  facet normal 0 0 -1
    outer loop
      vertex -1.95001 -2.77948 -0.6
      vertex -2.78 -1.92 -0.6
      vertex -1.95001 62.7795 -0.6
    endloop
  endfacet
  facet normal 0 0 -1
    outer loop
      vertex -2.78 -1.92 -0.6
      vertex -2.00989 -2.77529 -0.6
      vertex -2.06934 -2.76693 -0.6
    endloop
  endfacet
  facet normal 0 0 -1
    outer loop
      vertex -2.78 61.92 -0.6
      vertex -1.95001 62.7795 -0.6
      vertex -2.78 -1.92 -0.6
    endloop
  endfacet
  facet normal 0 0 -1
    outer loop
      vertex -2.78 -1.92 -0.6
      vertex -2.06934 -2.76693 -0.6
      vertex -2.12805 -2.75445 -0.6
    endloop
  endfacet
  facet normal 0 0 -1
    outer loop
      vertex -1.95001 62.7795 -0.6
      vertex -2.78 61.92 -0.6
      vertex -2.00989 62.7753 -0.6
    endloop
  endfacet
  facet normal 0 0 -1
    outer loop
      vertex -2.78 -1.92 -0.6
      vertex -2.12805 -2.75445 -0.6
      vertex -2.18575 -2.73791 -0.6
    endloop
  endfacet
  facet normal 0 0 -1
    outer loop
      vertex -2.00989 62.7753 -0.6
      vertex -2.78 61.92 -0.6
      vertex -2.06934 62.7669 -0.6
    endloop
  endfacet
  facet normal 0 0 -1
    outer loop
      vertex -2.78 -1.92 -0.6
      vertex -2.18575 -2.73791 -0.6
      vertex -2.24216 -2.71738 -0.6
    endloop
  endfacet
  facet normal 0 0 -1
    outer loop
      vertex -2.06934 62.7669 -0.6
      vertex -2.78 61.92 -0.6
      vertex -2.12805 62.7545 -0.6
    endloop
  endfacet
  facet normal 0 0 -1
    outer loop
      vertex -2.78 -1.92 -0.6
      vertex -2.24216 -2.71738 -0.6
      vertex -2.297 -2.69296 -0.6
    endloop
  endfacet
  facet normal 0 0 -1
    outer loop
      vertex -2.12805 62.7545 -0.6
      vertex -2.78 61.92 -0.6
      vertex -2.18575 62.7379 -0.6
    endloop
  endfacet
  facet normal 0 0 -1
    outer loop
      vertex -2.78 -1.92 -0.6
      vertex -2.297 -2.69296 -0.6
      vertex -2.35 -2.66478 -0.6
    endloop
  endfacet
  facet normal 0 0 -1
    outer loop
      vertex -2.18575 62.7379 -0.6
      vertex -2.78 61.92 -0.6
      vertex -2.24216 62.7174 -0.6
    endloop
  endfacet
  facet normal 0 0 -1
    outer loop
      vertex -2.78 -1.92 -0.6
      vertex -2.35 -2.66478 -0.6
      vertex -2.40091 -2.63297 -0.6
    endloop
  endfacet
  facet normal 0 0 -1
    outer loop
      vertex -2.24216 62.7174 -0.6
      vertex -2.78 61.92 -0.6
      vertex -2.297 62.693 -0.6
    endloop
  endfacet
  facet normal 0 0 -1
    outer loop
      vertex -2.78 -1.92 -0.6
      vertex -2.40091 -2.63297 -0.6
      vertex -2.44947 -2.59769 -0.6
    endloop
  endfacet
  facet normal 0 0 -1
    outer loop
      vertex -2.297 62.693 -0.6
      vertex -2.78 61.92 -0.6
      vertex -2.35 62.6648 -0.6
    endloop
  endfacet
  facet normal 0 0 -1
    outer loop
      vertex -2.78 -1.92 -0.6
      vertex -2.44947 -2.59769 -0.6
      vertex -2.49545 -2.5591 -0.6
    endloop
  endfacet
  facet normal 0 0 -1
    outer loop
      vertex -2.35 62.6648 -0.6
      vertex -2.78 61.92 -0.6
      vertex -2.40091 62.633 -0.6
    endloop
  endfacet
  facet normal 0 0 -1
    outer loop
      vertex -2.78 -1.92 -0.6
      vertex -2.49545 -2.5591 -0.6
      vertex -2.53863 -2.51741 -0.6
    endloop
  endfacet
  facet normal 0 0 -1
    outer loop
      vertex -2.40091 62.633 -0.6
      vertex -2.78 61.92 -0.6
      vertex -2.44947 62.5977 -0.6
    endloop
  endfacet
  facet normal 0 0 -1
    outer loop
      vertex -2.78 -1.92 -0.6
      vertex -2.53863 -2.51741 -0.6
      vertex -2.5788 -2.4728 -0.6
    endloop
  endfacet
  facet normal 0 0 -1
    outer loop
      vertex -2.44947 62.5977 -0.6
      vertex -2.78 61.92 -0.6
      vertex -2.49545 62.5591 -0.6
    endloop
  endfacet
  facet normal 0 0 -1
    outer loop
      vertex -2.78 -1.92 -0.6
      vertex -2.5788 -2.4728 -0.6
      vertex -2.61575 -2.4255 -0.6
    endloop
  endfacet
  facet normal 0 0 -1
    outer loop
      vertex -2.49545 62.5591 -0.6
      vertex -2.78 61.92 -0.6
      vertex -2.53863 62.5174 -0.6
    endloop
  endfacet
  facet normal 0 0 -1
    outer loop
      vertex -2.78 -1.92 -0.6
      vertex -2.61575 -2.4255 -0.6
      vertex -2.64932 -2.37573 -0.6
    endloop
  endfacet
  facet normal 0 0 -1
    outer loop
      vertex -2.53863 62.5174 -0.6
      vertex -2.78 61.92 -0.6
      vertex -2.5788 62.4728 -0.6
    endloop
  endfacet
  facet normal 0 0 -1
    outer loop
      vertex -2.78 -1.92 -0.6
      vertex -2.64932 -2.37573 -0.6
      vertex -2.67933 -2.32374 -0.6
    endloop
  endfacet
  facet normal 0 0 -1
    outer loop
      vertex -2.5788 62.4728 -0.6
      vertex -2.78 61.92 -0.6
      vertex -2.61575 62.4255 -0.6
    endloop
  endfacet
  facet normal 0 0 -1
    outer loop
      vertex -2.78 -1.92 -0.6
      vertex -2.67933 -2.32374 -0.6
      vertex -2.70565 -2.26979 -0.6
    endloop
  endfacet
  facet normal 0 0 -1
    outer loop
      vertex -2.61575 62.4255 -0.6
      vertex -2.78 61.92 -0.6
      vertex -2.64932 62.3757 -0.6
    endloop
  endfacet
  facet normal 0 0 -1
    outer loop
      vertex -2.78 -1.92 -0.6
      vertex -2.70565 -2.26979 -0.6
      vertex -2.72814 -2.21414 -0.6
    endloop
  endfacet
  facet normal 0 0 -1
    outer loop
      vertex -2.64932 62.3757 -0.6
      vertex -2.78 61.92 -0.6
      vertex -2.67933 62.3237 -0.6
    endloop
  endfacet
  facet normal 0 0 -1
    outer loop
      vertex -2.78 -1.92 -0.6
      vertex -2.72814 -2.21414 -0.6
      vertex -2.74669 -2.15705 -0.6
    endloop
  endfacet
  facet normal 0 0 -1
    outer loop
      vertex -2.67933 62.3237 -0.6
      vertex -2.78 61.92 -0.6
      vertex -2.70565 62.2698 -0.6
    endloop
  endfacet
  facet normal 0 0 -1
    outer loop
      vertex -2.78 -1.92 -0.6
      vertex -2.74669 -2.15705 -0.6
      vertex -2.76121 -2.0988 -0.6
    endloop
  endfacet
  facet normal 0 0 -1
    outer loop
      vertex -2.70565 62.2698 -0.6
      vertex -2.78 61.92 -0.6
      vertex -2.72814 62.2141 -0.6
    endloop
  endfacet
  facet normal 0 0 -1
    outer loop
      vertex -2.78 -1.92 -0.6
      vertex -2.76121 -2.0988 -0.6
      vertex -2.77163 -2.03969 -0.6
    endloop
  endfacet
  facet normal 0 0 -1
    outer loop
      vertex -2.72814 62.2141 -0.6
      vertex -2.78 61.92 -0.6
      vertex -2.74669 62.157 -0.6
    endloop
  endfacet
  facet normal 0 0 -1
    outer loop
      vertex -2.78 -1.92 -0.6
      vertex -2.77163 -2.03969 -0.6
      vertex -2.7779 -1.97999 -0.6
    endloop
  endfacet
  facet normal 0 0 -1
    outer loop
      vertex -2.74669 62.157 -0.6
      vertex -2.78 61.92 -0.6
      vertex -2.76121 62.0988 -0.6
    endloop
  endfacet
  facet normal 0 0 -1
    outer loop
      vertex -2.76121 62.0988 -0.6
      vertex -2.78 61.92 -0.6
      vertex -2.77163 62.0397 -0.6
    endloop
  endfacet
  facet normal 0 0 -1
    outer loop
      vertex -2.77163 62.0397 -0.6
      vertex -2.78 61.92 -0.6
      vertex -2.7779 61.98 -0.6
    endloop
  endfacet
  facet normal -0.642789 -0.766043 0
    outer loop
      vertex -2.49545 -2.5591 -0.6
      vertex -2.44947 -2.59769 7.5
      vertex -2.49545 -2.5591 7.5
    endloop
  endfacet
  facet normal -0.642789 -0.766043 -0
    outer loop
      vertex -2.44947 -2.59769 7.5
      vertex -2.49545 -2.5591 -0.6
      vertex -2.44947 -2.59769 -0.6
    endloop
  endfacet
  facet normal -0.866025 -0.500001 0
    outer loop
      vertex -2.64932 -2.37573 -0.6
      vertex -2.67933 -2.32374 7.5
      vertex -2.67933 -2.32374 -0.6
    endloop
  endfacet
  facet normal -0.866025 -0.500001 0
    outer loop
      vertex -2.67933 -2.32374 7.5
      vertex -2.64932 -2.37573 -0.6
      vertex -2.64932 -2.37573 7.5
    endloop
  endfacet
  facet normal -0.788017 -0.615654 0
    outer loop
      vertex -2.5788 -2.4728 -0.6
      vertex -2.61575 -2.4255 7.5
      vertex -2.61575 -2.4255 -0.6
    endloop
  endfacet
  facet normal -0.788017 -0.615654 0
    outer loop
      vertex -2.61575 -2.4255 7.5
      vertex -2.5788 -2.4728 -0.6
      vertex -2.5788 -2.4728 7.5
    endloop
  endfacet
  facet normal -0.743132 -0.669145 0
    outer loop
      vertex -2.53863 -2.51741 -0.6
      vertex -2.5788 -2.4728 7.5
      vertex -2.5788 -2.4728 -0.6
    endloop
  endfacet
  facet normal -0.743132 -0.669145 0
    outer loop
      vertex -2.5788 -2.4728 7.5
      vertex -2.53863 -2.51741 -0.6
      vertex -2.53863 -2.51741 7.5
    endloop
  endfacet
  facet normal -0.951055 -0.309022 0
    outer loop
      vertex -2.72814 -2.21414 -0.6
      vertex -2.74669 -2.15705 7.5
      vertex -2.74669 -2.15705 -0.6
    endloop
  endfacet
  facet normal -0.951055 -0.309022 0
    outer loop
      vertex -2.74669 -2.15705 7.5
      vertex -2.72814 -2.21414 -0.6
      vertex -2.72814 -2.21414 7.5
    endloop
  endfacet
  facet normal -0.898794 -0.438371 0
    outer loop
      vertex -2.67933 -2.32374 -0.6
      vertex -2.70565 -2.26979 7.5
      vertex -2.70565 -2.26979 -0.6
    endloop
  endfacet
  facet normal -0.898794 -0.438371 0
    outer loop
      vertex -2.70565 -2.26979 7.5
      vertex -2.67933 -2.32374 -0.6
      vertex -2.67933 -2.32374 7.5
    endloop
  endfacet
  facet normal -0.927184 -0.374607 0
    outer loop
      vertex -2.70565 -2.26979 -0.6
      vertex -2.72814 -2.21414 7.5
      vertex -2.72814 -2.21414 -0.6
    endloop
  endfacet
  facet normal -0.927184 -0.374607 0
    outer loop
      vertex -2.72814 -2.21414 7.5
      vertex -2.70565 -2.26979 -0.6
      vertex -2.70565 -2.26979 7.5
    endloop
  endfacet
  facet normal -0.994523 0.10452 0
    outer loop
      vertex -2.7779 61.98 -0.6
      vertex -2.77163 62.0397 7.5
      vertex -2.77163 62.0397 -0.6
    endloop
  endfacet
  facet normal -0.994523 0.10452 0
    outer loop
      vertex -2.77163 62.0397 7.5
      vertex -2.7779 61.98 -0.6
      vertex -2.7779 61.98 7.5
    endloop
  endfacet
  facet normal -0.984808 0.173646 0
    outer loop
      vertex -2.77163 62.0397 -0.6
      vertex -2.76121 62.0988 7.5
      vertex -2.76121 62.0988 -0.6
    endloop
  endfacet
  facet normal -0.984808 0.173646 0
    outer loop
      vertex -2.76121 62.0988 7.5
      vertex -2.77163 62.0397 -0.6
      vertex -2.77163 62.0397 7.5
    endloop
  endfacet
  facet normal -0.898794 0.438371 0
    outer loop
      vertex -2.70565 62.2698 -0.6
      vertex -2.67933 62.3237 7.5
      vertex -2.67933 62.3237 -0.6
    endloop
  endfacet
  facet normal -0.898794 0.438371 0
    outer loop
      vertex -2.67933 62.3237 7.5
      vertex -2.70565 62.2698 -0.6
      vertex -2.70565 62.2698 7.5
    endloop
  endfacet
  facet normal -0.866013 0.500021 0
    outer loop
      vertex -2.67933 62.3237 -0.6
      vertex -2.64932 62.3757 7.5
      vertex -2.64932 62.3757 -0.6
    endloop
  endfacet
  facet normal -0.866013 0.500021 0
    outer loop
      vertex -2.64932 62.3757 7.5
      vertex -2.67933 62.3237 -0.6
      vertex -2.67933 62.3237 7.5
    endloop
  endfacet
  facet normal 0.342039 0.939686 -0
    outer loop
      vertex 110.582 62.7174 -0.6
      vertex 110.526 62.7379 7.5
      vertex 110.582 62.7174 7.5
    endloop
  endfacet
  facet normal 0.342039 0.939686 0
    outer loop
      vertex 110.526 62.7379 7.5
      vertex 110.582 62.7174 -0.6
      vertex 110.526 62.7379 -0.6
    endloop
  endfacet
  facet normal 0.0697836 0.997562 -0
    outer loop
      vertex 110.35 62.7753 -0.6
      vertex 110.29 62.7795 7.5
      vertex 110.35 62.7753 7.5
    endloop
  endfacet
  facet normal 0.0697836 0.997562 0
    outer loop
      vertex 110.29 62.7795 7.5
      vertex 110.35 62.7753 -0.6
      vertex 110.29 62.7795 -0.6
    endloop
  endfacet
  facet normal -0.0697768 0.997563 0
    outer loop
      vertex -1.95001 62.7795 -0.6
      vertex -2.00989 62.7753 7.5
      vertex -1.95001 62.7795 7.5
    endloop
  endfacet
  facet normal -0.0697768 0.997563 0
    outer loop
      vertex -2.00989 62.7753 7.5
      vertex -1.95001 62.7795 -0.6
      vertex -2.00989 62.7753 -0.6
    endloop
  endfacet
  facet normal -0.275619 0.961267 0
    outer loop
      vertex -2.12805 62.7545 -0.6
      vertex -2.18575 62.7379 7.5
      vertex -2.12805 62.7545 7.5
    endloop
  endfacet
  facet normal -0.275619 0.961267 0
    outer loop
      vertex -2.18575 62.7379 7.5
      vertex -2.12805 62.7545 -0.6
      vertex -2.18575 62.7379 -0.6
    endloop
  endfacet
  facet normal -0.342024 0.939691 0
    outer loop
      vertex -2.18575 62.7379 -0.6
      vertex -2.24216 62.7174 7.5
      vertex -2.18575 62.7379 7.5
    endloop
  endfacet
  facet normal -0.342024 0.939691 0
    outer loop
      vertex -2.24216 62.7174 7.5
      vertex -2.18575 62.7379 -0.6
      vertex -2.24216 62.7174 -0.6
    endloop
  endfacet
  facet normal -0.406716 0.913555 0
    outer loop
      vertex -2.24216 62.7174 -0.6
      vertex -2.297 62.693 7.5
      vertex -2.24216 62.7174 7.5
    endloop
  endfacet
  facet normal -0.406716 0.913555 0
    outer loop
      vertex -2.297 62.693 7.5
      vertex -2.24216 62.7174 -0.6
      vertex -2.297 62.693 -0.6
    endloop
  endfacet
  facet normal 0.95107 0.308974 0
    outer loop
      vertex 111.087 62.157 7.5
      vertex 111.068 62.2141 -0.6
      vertex 111.068 62.2141 7.5
    endloop
  endfacet
  facet normal 0.95107 0.308974 0
    outer loop
      vertex 111.068 62.2141 -0.6
      vertex 111.087 62.157 7.5
      vertex 111.087 62.157 -0.6
    endloop
  endfacet
  facet normal 0.406704 0.91356 -0
    outer loop
      vertex 110.637 62.693 -0.6
      vertex 110.582 62.7174 7.5
      vertex 110.637 62.693 7.5
    endloop
  endfacet
  facet normal 0.406704 0.91356 0
    outer loop
      vertex 110.582 62.7174 7.5
      vertex 110.637 62.693 -0.6
      vertex 110.582 62.7174 -0.6
    endloop
  endfacet
  facet normal 0.951069 -0.308979 0
    outer loop
      vertex 111.068 -2.21414 7.5
      vertex 111.087 -2.15705 -0.6
      vertex 111.087 -2.15705 7.5
    endloop
  endfacet
  facet normal 0.951069 -0.308979 0
    outer loop
      vertex 111.087 -2.15705 -0.6
      vertex 111.068 -2.21414 7.5
      vertex 111.068 -2.21414 -0.6
    endloop
  endfacet
  facet normal 0.927156 -0.374675 0
    outer loop
      vertex 111.046 -2.26979 7.5
      vertex 111.068 -2.21414 -0.6
      vertex 111.068 -2.21414 7.5
    endloop
  endfacet
  facet normal 0.927156 -0.374675 0
    outer loop
      vertex 111.068 -2.21414 -0.6
      vertex 111.046 -2.26979 7.5
      vertex 111.046 -2.26979 -0.6
    endloop
  endfacet
  facet normal 0.866025 -0.500001 0
    outer loop
      vertex 110.989 -2.37573 7.5
      vertex 111.019 -2.32374 -0.6
      vertex 111.019 -2.32374 7.5
    endloop
  endfacet
  facet normal 0.866025 -0.500001 0
    outer loop
      vertex 111.019 -2.32374 -0.6
      vertex 110.989 -2.37573 7.5
      vertex 110.989 -2.37573 -0.6
    endloop
  endfacet
  facet normal 0.829076 -0.559136 0
    outer loop
      vertex 110.956 -2.4255 7.5
      vertex 110.989 -2.37573 -0.6
      vertex 110.989 -2.37573 7.5
    endloop
  endfacet
  facet normal 0.829076 -0.559136 0
    outer loop
      vertex 110.989 -2.37573 -0.6
      vertex 110.956 -2.4255 7.5
      vertex 110.956 -2.4255 -0.6
    endloop
  endfacet
  facet normal 0.406718 -0.913554 0
    outer loop
      vertex 110.582 -2.71738 -0.6
      vertex 110.637 -2.69296 7.5
      vertex 110.582 -2.71738 7.5
    endloop
  endfacet
  facet normal 0.406718 -0.913554 0
    outer loop
      vertex 110.637 -2.69296 7.5
      vertex 110.582 -2.71738 -0.6
      vertex 110.637 -2.69296 -0.6
    endloop
  endfacet
  facet normal 0.139161 -0.99027 0
    outer loop
      vertex 110.35 -2.77529 -0.6
      vertex 110.409 -2.76693 7.5
      vertex 110.35 -2.77529 7.5
    endloop
  endfacet
  facet normal 0.139161 -0.99027 0
    outer loop
      vertex 110.409 -2.76693 7.5
      vertex 110.35 -2.77529 -0.6
      vertex 110.409 -2.76693 -0.6
    endloop
  endfacet
  facet normal 0.0697678 -0.997563 0
    outer loop
      vertex 110.29 -2.77948 -0.6
      vertex 110.35 -2.77529 7.5
      vertex 110.29 -2.77948 7.5
    endloop
  endfacet
  facet normal 0.0697678 -0.997563 0
    outer loop
      vertex 110.35 -2.77529 7.5
      vertex 110.29 -2.77948 -0.6
      vertex 110.35 -2.77529 -0.6
    endloop
  endfacet
  facet normal 0.529942 -0.848034 0
    outer loop
      vertex 110.69 -2.66478 -0.6
      vertex 110.741 -2.63297 7.5
      vertex 110.69 -2.66478 7.5
    endloop
  endfacet
  facet normal 0.529942 -0.848034 0
    outer loop
      vertex 110.741 -2.63297 7.5
      vertex 110.69 -2.66478 -0.6
      vertex 110.741 -2.63297 -0.6
    endloop
  endfacet
  facet normal -0.139174 -0.990268 0
    outer loop
      vertex -2.06934 -2.76693 -0.6
      vertex -2.00989 -2.77529 7.5
      vertex -2.06934 -2.76693 7.5
    endloop
  endfacet
  facet normal -0.139174 -0.990268 -0
    outer loop
      vertex -2.00989 -2.77529 7.5
      vertex -2.06934 -2.76693 -0.6
      vertex -2.00989 -2.77529 -0.6
    endloop
  endfacet
  facet normal -0.069761 -0.997564 0
    outer loop
      vertex -2.00989 -2.77529 -0.6
      vertex -1.95001 -2.77948 7.5
      vertex -2.00989 -2.77529 7.5
    endloop
  endfacet
  facet normal -0.069761 -0.997564 -0
    outer loop
      vertex -1.95001 -2.77948 7.5
      vertex -2.00989 -2.77529 -0.6
      vertex -1.95001 -2.77948 -0.6
    endloop
  endfacet
  facet normal -0.342024 -0.939691 0
    outer loop
      vertex -2.24216 -2.71738 -0.6
      vertex -2.18575 -2.73791 7.5
      vertex -2.24216 -2.71738 7.5
    endloop
  endfacet
  facet normal -0.342024 -0.939691 -0
    outer loop
      vertex -2.18575 -2.73791 7.5
      vertex -2.24216 -2.71738 -0.6
      vertex -2.18575 -2.73791 -0.6
    endloop
  endfacet
  facet normal -0.829039 -0.559191 0
    outer loop
      vertex -2.61575 -2.4255 -0.6
      vertex -2.64932 -2.37573 7.5
      vertex -2.64932 -2.37573 -0.6
    endloop
  endfacet
  facet normal -0.829039 -0.559191 0
    outer loop
      vertex -2.64932 -2.37573 7.5
      vertex -2.61575 -2.4255 -0.6
      vertex -2.61575 -2.4255 7.5
    endloop
  endfacet
  facet normal -0.994522 -0.104523 0
    outer loop
      vertex -2.77163 -2.03969 -0.6
      vertex -2.7779 -1.97999 7.5
      vertex -2.7779 -1.97999 -0.6
    endloop
  endfacet
  facet normal -0.994522 -0.104523 0
    outer loop
      vertex -2.7779 -1.97999 7.5
      vertex -2.77163 -2.03969 -0.6
      vertex -2.77163 -2.03969 7.5
    endloop
  endfacet
  facet normal -0.970297 -0.241919 0
    outer loop
      vertex -2.74669 -2.15705 -0.6
      vertex -2.76121 -2.0988 7.5
      vertex -2.76121 -2.0988 -0.6
    endloop
  endfacet
  facet normal -0.970297 -0.241919 0
    outer loop
      vertex -2.76121 -2.0988 7.5
      vertex -2.74669 -2.15705 -0.6
      vertex -2.74669 -2.15705 7.5
    endloop
  endfacet
  facet normal -0.999391 0.034905 0
    outer loop
      vertex -2.78 61.92 -0.6
      vertex -2.7779 61.98 7.5
      vertex -2.7779 61.98 -0.6
    endloop
  endfacet
  facet normal -0.999391 0.034905 0
    outer loop
      vertex -2.7779 61.98 7.5
      vertex -2.78 61.92 -0.6
      vertex -2.78 61.92 7.5
    endloop
  endfacet
  facet normal -0.970296 0.241922 0
    outer loop
      vertex -2.76121 62.0988 -0.6
      vertex -2.74669 62.157 7.5
      vertex -2.74669 62.157 -0.6
    endloop
  endfacet
  facet normal -0.970296 0.241922 0
    outer loop
      vertex -2.74669 62.157 7.5
      vertex -2.76121 62.0988 -0.6
      vertex -2.76121 62.0988 7.5
    endloop
  endfacet
  facet normal -0.951056 0.309017 0
    outer loop
      vertex -2.74669 62.157 -0.6
      vertex -2.72814 62.2141 7.5
      vertex -2.72814 62.2141 -0.6
    endloop
  endfacet
  facet normal -0.951056 0.309017 0
    outer loop
      vertex -2.72814 62.2141 7.5
      vertex -2.74669 62.157 -0.6
      vertex -2.74669 62.157 7.5
    endloop
  endfacet
  facet normal -0.927184 0.374607 0
    outer loop
      vertex -2.72814 62.2141 -0.6
      vertex -2.70565 62.2698 7.5
      vertex -2.70565 62.2698 -0.6
    endloop
  endfacet
  facet normal -0.927184 0.374607 0
    outer loop
      vertex -2.70565 62.2698 7.5
      vertex -2.72814 62.2141 -0.6
      vertex -2.72814 62.2141 7.5
    endloop
  endfacet
  facet normal -0.829049 0.559176 0
    outer loop
      vertex -2.64932 62.3757 -0.6
      vertex -2.61575 62.4255 7.5
      vertex -2.61575 62.4255 -0.6
    endloop
  endfacet
  facet normal -0.829049 0.559176 0
    outer loop
      vertex -2.61575 62.4255 7.5
      vertex -2.64932 62.3757 -0.6
      vertex -2.64932 62.3757 7.5
    endloop
  endfacet
  facet normal -0.743139 0.669137 0
    outer loop
      vertex -2.5788 62.4728 -0.6
      vertex -2.53863 62.5174 7.5
      vertex -2.53863 62.5174 -0.6
    endloop
  endfacet
  facet normal -0.743139 0.669137 0
    outer loop
      vertex -2.53863 62.5174 7.5
      vertex -2.5788 62.4728 -0.6
      vertex -2.5788 62.4728 7.5
    endloop
  endfacet
  facet normal -0.587816 0.808994 0
    outer loop
      vertex -2.40091 62.633 -0.6
      vertex -2.44947 62.5977 7.5
      vertex -2.40091 62.633 7.5
    endloop
  endfacet
  facet normal -0.587816 0.808994 0
    outer loop
      vertex -2.44947 62.5977 7.5
      vertex -2.40091 62.633 -0.6
      vertex -2.44947 62.5977 -0.6
    endloop
  endfacet
  facet normal 0.970307 0.241878 0
    outer loop
      vertex 111.101 62.0988 7.5
      vertex 111.087 62.157 -0.6
      vertex 111.087 62.157 7.5
    endloop
  endfacet
  facet normal 0.970307 0.241878 0
    outer loop
      vertex 111.087 62.157 -0.6
      vertex 111.101 62.0988 7.5
      vertex 111.101 62.0988 -0.6
    endloop
  endfacet
  facet normal 0.927156 0.374675 0
    outer loop
      vertex 111.068 62.2141 7.5
      vertex 111.046 62.2698 -0.6
      vertex 111.046 62.2698 7.5
    endloop
  endfacet
  facet normal 0.927156 0.374675 0
    outer loop
      vertex 111.046 62.2698 -0.6
      vertex 111.068 62.2141 7.5
      vertex 111.068 62.2141 -0.6
    endloop
  endfacet
  facet normal 0.694639 0.719359 -0
    outer loop
      vertex 110.879 62.5174 -0.6
      vertex 110.835 62.5591 7.5
      vertex 110.879 62.5174 7.5
    endloop
  endfacet
  facet normal 0.694639 0.719359 0
    outer loop
      vertex 110.835 62.5591 7.5
      vertex 110.879 62.5174 -0.6
      vertex 110.835 62.5591 -0.6
    endloop
  endfacet
  facet normal 0.642769 0.76606 -0
    outer loop
      vertex 110.835 62.5591 -0.6
      vertex 110.789 62.5977 7.5
      vertex 110.835 62.5591 7.5
    endloop
  endfacet
  facet normal 0.642769 0.76606 0
    outer loop
      vertex 110.789 62.5977 7.5
      vertex 110.835 62.5591 -0.6
      vertex 110.789 62.5977 -0.6
    endloop
  endfacet
  facet normal -0.788017 0.615654 0
    outer loop
      vertex -2.61575 62.4255 -0.6
      vertex -2.5788 62.4728 7.5
      vertex -2.5788 62.4728 -0.6
    endloop
  endfacet
  facet normal -0.788017 0.615654 0
    outer loop
      vertex -2.5788 62.4728 7.5
      vertex -2.61575 62.4255 -0.6
      vertex -2.61575 62.4255 7.5
    endloop
  endfacet
  facet normal -0.529886 0.848069 0
    outer loop
      vertex -2.35 62.6648 -0.6
      vertex -2.40091 62.633 7.5
      vertex -2.35 62.6648 7.5
    endloop
  endfacet
  facet normal -0.529886 0.848069 0
    outer loop
      vertex -2.40091 62.633 7.5
      vertex -2.35 62.6648 -0.6
      vertex -2.40091 62.633 -0.6
    endloop
  endfacet
  facet normal 0.866013 0.500021 0
    outer loop
      vertex 111.019 62.3237 7.5
      vertex 110.989 62.3757 -0.6
      vertex 110.989 62.3757 7.5
    endloop
  endfacet
  facet normal 0.866013 0.500021 0
    outer loop
      vertex 110.989 62.3757 -0.6
      vertex 111.019 62.3237 7.5
      vertex 111.019 62.3237 -0.6
    endloop
  endfacet
  facet normal 0.743123 0.669154 0
    outer loop
      vertex 110.919 62.4728 7.5
      vertex 110.879 62.5174 -0.6
      vertex 110.879 62.5174 7.5
    endloop
  endfacet
  facet normal 0.743123 0.669154 0
    outer loop
      vertex 110.879 62.5174 -0.6
      vertex 110.919 62.4728 7.5
      vertex 110.919 62.4728 -0.6
    endloop
  endfacet
  facet normal 0.788009 0.615664 0
    outer loop
      vertex 110.956 62.4255 7.5
      vertex 110.919 62.4728 -0.6
      vertex 110.919 62.4728 7.5
    endloop
  endfacet
  facet normal 0.788009 0.615664 0
    outer loop
      vertex 110.919 62.4728 -0.6
      vertex 110.956 62.4255 7.5
      vertex 110.956 62.4255 -0.6
    endloop
  endfacet
  facet normal 0.587832 0.808983 -0
    outer loop
      vertex 110.789 62.5977 -0.6
      vertex 110.741 62.633 7.5
      vertex 110.789 62.5977 7.5
    endloop
  endfacet
  facet normal 0.587832 0.808983 0
    outer loop
      vertex 110.741 62.633 7.5
      vertex 110.789 62.5977 -0.6
      vertex 110.741 62.633 -0.6
    endloop
  endfacet
  facet normal -0.694663 0.719336 0
    outer loop
      vertex -2.49545 62.5591 -0.6
      vertex -2.53863 62.5174 7.5
      vertex -2.49545 62.5591 7.5
    endloop
  endfacet
  facet normal -0.694663 0.719336 0
    outer loop
      vertex -2.53863 62.5174 7.5
      vertex -2.49545 62.5591 -0.6
      vertex -2.53863 62.5174 -0.6
    endloop
  endfacet
  facet normal 1 -0 0
    outer loop
      vertex -1.92 35.9247 7.5
      vertex -1.92 61.92 -5.72205e-07
      vertex -1.92 61.92 7.5
    endloop
  endfacet
  facet normal 1 -0 0
    outer loop
      vertex -1.92 35.4792 7.19952
      vertex -1.92 61.92 -5.72205e-07
      vertex -1.92 35.9247 7.5
    endloop
  endfacet
  facet normal 1 -0 0
    outer loop
      vertex -1.92 34.8747 6.85052
      vertex -1.92 61.92 -5.72205e-07
      vertex -1.92 35.4792 7.19952
    endloop
  endfacet
  facet normal 1 -0 0
    outer loop
      vertex -1.92 34.2474 6.54454
      vertex -1.92 61.92 -5.72205e-07
      vertex -1.92 34.8747 6.85052
    endloop
  endfacet
  facet normal 1 -0 0
    outer loop
      vertex -1.92 33.6002 6.28307
      vertex -1.92 61.92 -5.72205e-07
      vertex -1.92 34.2474 6.54454
    endloop
  endfacet
  facet normal 1 -0 0
    outer loop
      vertex -1.92 32.9364 6.06738
      vertex -1.92 61.92 -5.72205e-07
      vertex -1.92 33.6002 6.28307
    endloop
  endfacet
  facet normal 1 -0 0
    outer loop
      vertex -1.92 32.2591 5.89852
      vertex -1.92 61.92 -5.72205e-07
      vertex -1.92 32.9364 6.06738
    endloop
  endfacet
  facet normal 1 -0 0
    outer loop
      vertex -1.92 31.5717 5.77732
      vertex -1.92 61.92 -5.72205e-07
      vertex -1.92 32.2591 5.89852
    endloop
  endfacet
  facet normal 1 -0 0
    outer loop
      vertex -1.92 30.8776 5.70436
      vertex -1.92 61.92 -5.72205e-07
      vertex -1.92 31.5717 5.77732
    endloop
  endfacet
  facet normal 1 -0 0
    outer loop
      vertex -1.92 30.18 5.68
      vertex -1.92 61.92 -5.72205e-07
      vertex -1.92 30.8776 5.70436
    endloop
  endfacet
  facet normal 1 0 0
    outer loop
      vertex -1.92 -1.92 -5.72205e-07
      vertex -1.92 30.18 5.68
      vertex -1.92 29.4824 5.70436
    endloop
  endfacet
  facet normal 1 0 0
    outer loop
      vertex -1.92 -1.92 -5.72205e-07
      vertex -1.92 29.4824 5.70436
      vertex -1.92 28.7883 5.77732
    endloop
  endfacet
  facet normal 1 0 0
    outer loop
      vertex -1.92 -1.92 -5.72205e-07
      vertex -1.92 24.4353 7.5
      vertex -1.92 -1.92 7.5
    endloop
  endfacet
  facet normal 1 0 0
    outer loop
      vertex -1.92 24.4353 7.5
      vertex -1.92 -1.92 -5.72205e-07
      vertex -1.92 24.8808 7.19952
    endloop
  endfacet
  facet normal 1 0 0
    outer loop
      vertex -1.92 24.8808 7.19952
      vertex -1.92 -1.92 -5.72205e-07
      vertex -1.92 25.4853 6.85052
    endloop
  endfacet
  facet normal 1 0 0
    outer loop
      vertex -1.92 25.4853 6.85052
      vertex -1.92 -1.92 -5.72205e-07
      vertex -1.92 26.1126 6.54454
    endloop
  endfacet
  facet normal 1 0 0
    outer loop
      vertex -1.92 26.1126 6.54454
      vertex -1.92 -1.92 -5.72205e-07
      vertex -1.92 26.7598 6.28307
    endloop
  endfacet
  facet normal 1 0 0
    outer loop
      vertex -1.92 26.7598 6.28307
      vertex -1.92 -1.92 -5.72205e-07
      vertex -1.92 27.4236 6.06738
    endloop
  endfacet
  facet normal 1 0 0
    outer loop
      vertex -1.92 27.4236 6.06738
      vertex -1.92 -1.92 -5.72205e-07
      vertex -1.92 28.1009 5.89852
    endloop
  endfacet
  facet normal 1 0 0
    outer loop
      vertex -1.92 28.1009 5.89852
      vertex -1.92 -1.92 -5.72205e-07
      vertex -1.92 28.7883 5.77732
    endloop
  endfacet
  facet normal 1 0 0
    outer loop
      vertex -1.92 30.18 5.68
      vertex -1.92 -1.92 -5.72205e-07
      vertex -1.92 61.92 -5.72205e-07
    endloop
  endfacet
  facet normal -1 0 0
    outer loop
      vertex 110.26 61.92 -5.72205e-07
      vertex 110.26 35.9247 7.5
      vertex 110.26 61.92 7.5
    endloop
  endfacet
  facet normal -1 0 0
    outer loop
      vertex 110.26 61.92 -5.72205e-07
      vertex 110.26 35.4792 7.19952
      vertex 110.26 35.9247 7.5
    endloop
  endfacet
  facet normal -1 0 0
    outer loop
      vertex 110.26 61.92 -5.72205e-07
      vertex 110.26 34.8747 6.85052
      vertex 110.26 35.4792 7.19952
    endloop
  endfacet
  facet normal -1 0 0
    outer loop
      vertex 110.26 61.92 -5.72205e-07
      vertex 110.26 34.2474 6.54454
      vertex 110.26 34.8747 6.85052
    endloop
  endfacet
  facet normal -1 0 0
    outer loop
      vertex 110.26 61.92 -5.72205e-07
      vertex 110.26 33.6002 6.28307
      vertex 110.26 34.2474 6.54454
    endloop
  endfacet
  facet normal -1 0 0
    outer loop
      vertex 110.26 61.92 -5.72205e-07
      vertex 110.26 32.9364 6.06738
      vertex 110.26 33.6002 6.28307
    endloop
  endfacet
  facet normal -1 0 0
    outer loop
      vertex 110.26 61.92 -5.72205e-07
      vertex 110.26 32.2591 5.89852
      vertex 110.26 32.9364 6.06738
    endloop
  endfacet
  facet normal -1 0 0
    outer loop
      vertex 110.26 61.92 -5.72205e-07
      vertex 110.26 31.5717 5.77732
      vertex 110.26 32.2591 5.89852
    endloop
  endfacet
  facet normal -1 0 0
    outer loop
      vertex 110.26 61.92 -5.72205e-07
      vertex 110.26 30.8776 5.70436
      vertex 110.26 31.5717 5.77732
    endloop
  endfacet
  facet normal -1 0 0
    outer loop
      vertex 110.26 61.92 -5.72205e-07
      vertex 110.26 30.18 5.68
      vertex 110.26 30.8776 5.70436
    endloop
  endfacet
  facet normal -1 0 0
    outer loop
      vertex 110.26 -1.92 -5.72205e-07
      vertex 110.26 30.18 5.68
      vertex 110.26 61.92 -5.72205e-07
    endloop
  endfacet
  facet normal -1 -0 0
    outer loop
      vertex 110.26 30.18 5.68
      vertex 110.26 -1.92 -5.72205e-07
      vertex 110.26 29.4824 5.70436
    endloop
  endfacet
  facet normal -1 -0 0
    outer loop
      vertex 110.26 29.4824 5.70436
      vertex 110.26 -1.92 -5.72205e-07
      vertex 110.26 28.7883 5.77732
    endloop
  endfacet
  facet normal -1 0 0
    outer loop
      vertex 110.26 -1.92 -5.72205e-07
      vertex 110.26 28.1009 5.89852
      vertex 110.26 28.7883 5.77732
    endloop
  endfacet
  facet normal -1 0 0
    outer loop
      vertex 110.26 -1.92 -5.72205e-07
      vertex 110.26 27.4236 6.06738
      vertex 110.26 28.1009 5.89852
    endloop
  endfacet
  facet normal -1 0 0
    outer loop
      vertex 110.26 -1.92 -5.72205e-07
      vertex 110.26 26.7598 6.28307
      vertex 110.26 27.4236 6.06738
    endloop
  endfacet
  facet normal -1 0 0
    outer loop
      vertex 110.26 -1.92 -5.72205e-07
      vertex 110.26 26.1126 6.54454
      vertex 110.26 26.7598 6.28307
    endloop
  endfacet
  facet normal -1 0 0
    outer loop
      vertex 110.26 -1.92 -5.72205e-07
      vertex 110.26 25.4853 6.85052
      vertex 110.26 26.1126 6.54454
    endloop
  endfacet
  facet normal -1 0 0
    outer loop
      vertex 110.26 -1.92 -5.72205e-07
      vertex 110.26 24.8808 7.19952
      vertex 110.26 25.4853 6.85052
    endloop
  endfacet
  facet normal -1 0 0
    outer loop
      vertex 110.26 -1.92 -5.72205e-07
      vertex 110.26 24.4353 7.5
      vertex 110.26 24.8808 7.19952
    endloop
  endfacet
  facet normal -1 -0 0
    outer loop
      vertex 110.26 24.4353 7.5
      vertex 110.26 -1.92 -5.72205e-07
      vertex 110.26 -1.92 7.5
    endloop
  endfacet
  facet normal 0 -1 0
    outer loop
      vertex -1.92 61.92 -5.72205e-07
      vertex 110.26 61.92 7.5
      vertex -1.92 61.92 7.5
    endloop
  endfacet
  facet normal 0 -1 -0
    outer loop
      vertex 110.26 61.92 7.5
      vertex -1.92 61.92 -5.72205e-07
      vertex 110.26 61.92 -5.72205e-07
    endloop
  endfacet
  facet normal -0 0 1
    outer loop
      vertex -1.92 61.92 -5.72205e-07
      vertex 110.26 -1.92 -5.72205e-07
      vertex 110.26 61.92 -5.72205e-07
    endloop
  endfacet
  facet normal 0 0 1
    outer loop
      vertex 110.26 -1.92 -5.72205e-07
      vertex -1.92 61.92 -5.72205e-07
      vertex -1.92 -1.92 -5.72205e-07
    endloop
  endfacet
  facet normal 0 1 -0
    outer loop
      vertex 110.26 -1.92 -5.72205e-07
      vertex -1.92 -1.92 7.5
      vertex 110.26 -1.92 7.5
    endloop
  endfacet
  facet normal 0 1 0
    outer loop
      vertex -1.92 -1.92 7.5
      vertex 110.26 -1.92 -5.72205e-07
      vertex -1.92 -1.92 -5.72205e-07
    endloop
  endfacet
  facet normal -0 0.0348998 0.999391
    outer loop
      vertex -2.78 30.18 5.68
      vertex -1.92 29.4824 5.70436
      vertex -1.92 30.18 5.68
    endloop
  endfacet
  facet normal 0 0.0348998 0.999391
    outer loop
      vertex -1.92 29.4824 5.70436
      vertex -2.78 30.18 5.68
      vertex -2.78 29.4824 5.70436
    endloop
  endfacet
  facet normal -0 0.0348998 0.999391
    outer loop
      vertex 110.26 30.18 5.68
      vertex 111.12 29.4824 5.70436
      vertex 111.12 30.18 5.68
    endloop
  endfacet
  facet normal 0 0.0348998 0.999391
    outer loop
      vertex 111.12 29.4824 5.70436
      vertex 110.26 30.18 5.68
      vertex 110.26 29.4824 5.70436
    endloop
  endfacet
  facet normal 0 -0.438373 0.898793
    outer loop
      vertex -2.78 34.8747 6.85052
      vertex -1.92 34.2474 6.54454
      vertex -1.92 34.8747 6.85052
    endloop
  endfacet
  facet normal 0 -0.438373 0.898793
    outer loop
      vertex -1.92 34.2474 6.54454
      vertex -2.78 34.8747 6.85052
      vertex -2.78 34.2474 6.54454
    endloop
  endfacet
  facet normal 0 -0.438373 0.898793
    outer loop
      vertex 110.26 34.8747 6.85052
      vertex 111.12 34.2474 6.54454
      vertex 111.12 34.8747 6.85052
    endloop
  endfacet
  facet normal 0 -0.438373 0.898793
    outer loop
      vertex 111.12 34.2474 6.54454
      vertex 110.26 34.8747 6.85052
      vertex 110.26 34.2474 6.54454
    endloop
  endfacet
  facet normal 0 -0.104527 0.994522
    outer loop
      vertex -2.78 31.5717 5.77732
      vertex -1.92 30.8776 5.70436
      vertex -1.92 31.5717 5.77732
    endloop
  endfacet
  facet normal 0 -0.104527 0.994522
    outer loop
      vertex -1.92 30.8776 5.70436
      vertex -2.78 31.5717 5.77732
      vertex -2.78 30.8776 5.70436
    endloop
  endfacet
  facet normal 0 -0.104527 0.994522
    outer loop
      vertex 110.26 31.5717 5.77732
      vertex 111.12 30.8776 5.70436
      vertex 111.12 31.5717 5.77732
    endloop
  endfacet
  facet normal 0 -0.104527 0.994522
    outer loop
      vertex 111.12 30.8776 5.70436
      vertex 110.26 31.5717 5.77732
      vertex 110.26 30.8776 5.70436
    endloop
  endfacet
  facet normal 0 -0.5 0.866025
    outer loop
      vertex -2.78 35.4792 7.19952
      vertex -1.92 34.8747 6.85052
      vertex -1.92 35.4792 7.19952
    endloop
  endfacet
  facet normal 0 -0.5 0.866025
    outer loop
      vertex -1.92 34.8747 6.85052
      vertex -2.78 35.4792 7.19952
      vertex -2.78 34.8747 6.85052
    endloop
  endfacet
  facet normal 0 -0.5 0.866025
    outer loop
      vertex 110.26 35.4792 7.19952
      vertex 111.12 34.8747 6.85052
      vertex 111.12 35.4792 7.19952
    endloop
  endfacet
  facet normal 0 -0.5 0.866025
    outer loop
      vertex 111.12 34.8747 6.85052
      vertex 110.26 35.4792 7.19952
      vertex 110.26 34.8747 6.85052
    endloop
  endfacet
  facet normal 0 -0.0348998 0.999391
    outer loop
      vertex -2.78 30.8776 5.70436
      vertex -1.92 30.18 5.68
      vertex -1.92 30.8776 5.70436
    endloop
  endfacet
  facet normal 0 -0.0348998 0.999391
    outer loop
      vertex -1.92 30.18 5.68
      vertex -2.78 30.8776 5.70436
      vertex -2.78 30.18 5.68
    endloop
  endfacet
  facet normal 0 -0.0348998 0.999391
    outer loop
      vertex 110.26 30.8776 5.70436
      vertex 111.12 30.18 5.68
      vertex 111.12 30.8776 5.70436
    endloop
  endfacet
  facet normal 0 -0.0348998 0.999391
    outer loop
      vertex 111.12 30.18 5.68
      vertex 110.26 30.8776 5.70436
      vertex 110.26 30.18 5.68
    endloop
  endfacet
  facet normal -0 0.241921 0.970296
    outer loop
      vertex -2.78 28.1009 5.89852
      vertex -1.92 27.4236 6.06738
      vertex -1.92 28.1009 5.89852
    endloop
  endfacet
  facet normal 0 0.241921 0.970296
    outer loop
      vertex -1.92 27.4236 6.06738
      vertex -2.78 28.1009 5.89852
      vertex -2.78 27.4236 6.06738
    endloop
  endfacet
  facet normal -0 0.241921 0.970296
    outer loop
      vertex 110.26 28.1009 5.89852
      vertex 111.12 27.4236 6.06738
      vertex 111.12 28.1009 5.89852
    endloop
  endfacet
  facet normal 0 0.241921 0.970296
    outer loop
      vertex 111.12 27.4236 6.06738
      vertex 110.26 28.1009 5.89852
      vertex 110.26 27.4236 6.06738
    endloop
  endfacet
  facet normal 0 -0.374606 0.927184
    outer loop
      vertex -2.78 34.2474 6.54454
      vertex -1.92 33.6002 6.28307
      vertex -1.92 34.2474 6.54454
    endloop
  endfacet
  facet normal 0 -0.374606 0.927184
    outer loop
      vertex -1.92 33.6002 6.28307
      vertex -2.78 34.2474 6.54454
      vertex -2.78 33.6002 6.28307
    endloop
  endfacet
  facet normal 0 -0.374606 0.927184
    outer loop
      vertex 110.26 34.2474 6.54454
      vertex 111.12 33.6002 6.28307
      vertex 111.12 34.2474 6.54454
    endloop
  endfacet
  facet normal 0 -0.374606 0.927184
    outer loop
      vertex 111.12 33.6002 6.28307
      vertex 110.26 34.2474 6.54454
      vertex 110.26 33.6002 6.28307
    endloop
  endfacet
  facet normal -0 0.104527 0.994522
    outer loop
      vertex -2.78 29.4824 5.70436
      vertex -1.92 28.7883 5.77732
      vertex -1.92 29.4824 5.70436
    endloop
  endfacet
  facet normal 0 0.104527 0.994522
    outer loop
      vertex -1.92 28.7883 5.77732
      vertex -2.78 29.4824 5.70436
      vertex -2.78 28.7883 5.77732
    endloop
  endfacet
  facet normal -0 0.104527 0.994522
    outer loop
      vertex 110.26 29.4824 5.70436
      vertex 111.12 28.7883 5.77732
      vertex 111.12 29.4824 5.70436
    endloop
  endfacet
  facet normal 0 0.104527 0.994522
    outer loop
      vertex 111.12 28.7883 5.77732
      vertex 110.26 29.4824 5.70436
      vertex 110.26 28.7883 5.77732
    endloop
  endfacet
  facet normal -0 0.438372 0.898794
    outer loop
      vertex -2.78 26.1126 6.54454
      vertex -1.92 25.4853 6.85052
      vertex -1.92 26.1126 6.54454
    endloop
  endfacet
  facet normal 0 0.438372 0.898794
    outer loop
      vertex -1.92 25.4853 6.85052
      vertex -2.78 26.1126 6.54454
      vertex -2.78 25.4853 6.85052
    endloop
  endfacet
  facet normal -0 0.438372 0.898794
    outer loop
      vertex 110.26 26.1126 6.54454
      vertex 111.12 25.4853 6.85052
      vertex 111.12 26.1126 6.54454
    endloop
  endfacet
  facet normal 0 0.438372 0.898794
    outer loop
      vertex 111.12 25.4853 6.85052
      vertex 110.26 26.1126 6.54454
      vertex 110.26 25.4853 6.85052
    endloop
  endfacet
  facet normal -0 0.309017 0.951057
    outer loop
      vertex -2.78 27.4236 6.06738
      vertex -1.92 26.7598 6.28307
      vertex -1.92 27.4236 6.06738
    endloop
  endfacet
  facet normal 0 0.309017 0.951057
    outer loop
      vertex -1.92 26.7598 6.28307
      vertex -2.78 27.4236 6.06738
      vertex -2.78 26.7598 6.28307
    endloop
  endfacet
  facet normal -0 0.309017 0.951057
    outer loop
      vertex 110.26 27.4236 6.06738
      vertex 111.12 26.7598 6.28307
      vertex 111.12 27.4236 6.06738
    endloop
  endfacet
  facet normal 0 0.309017 0.951057
    outer loop
      vertex 111.12 26.7598 6.28307
      vertex 110.26 27.4236 6.06738
      vertex 110.26 26.7598 6.28307
    endloop
  endfacet
  facet normal -0 0.374607 0.927184
    outer loop
      vertex -2.78 26.7598 6.28307
      vertex -1.92 26.1126 6.54454
      vertex -1.92 26.7598 6.28307
    endloop
  endfacet
  facet normal 0 0.374607 0.927184
    outer loop
      vertex -1.92 26.1126 6.54454
      vertex -2.78 26.7598 6.28307
      vertex -2.78 26.1126 6.54454
    endloop
  endfacet
  facet normal -0 0.374607 0.927184
    outer loop
      vertex 110.26 26.7598 6.28307
      vertex 111.12 26.1126 6.54454
      vertex 111.12 26.7598 6.28307
    endloop
  endfacet
  facet normal 0 0.374607 0.927184
    outer loop
      vertex 111.12 26.1126 6.54454
      vertex 110.26 26.7598 6.28307
      vertex 110.26 26.1126 6.54454
    endloop
  endfacet
  facet normal 0 -0.309018 0.951056
    outer loop
      vertex -2.78 33.6002 6.28307
      vertex -1.92 32.9364 6.06738
      vertex -1.92 33.6002 6.28307
    endloop
  endfacet
  facet normal 0 -0.309018 0.951056
    outer loop
      vertex -1.92 32.9364 6.06738
      vertex -2.78 33.6002 6.28307
      vertex -2.78 32.9364 6.06738
    endloop
  endfacet
  facet normal 0 -0.309018 0.951056
    outer loop
      vertex 110.26 33.6002 6.28307
      vertex 111.12 32.9364 6.06738
      vertex 111.12 33.6002 6.28307
    endloop
  endfacet
  facet normal 0 -0.309018 0.951056
    outer loop
      vertex 111.12 32.9364 6.06738
      vertex 110.26 33.6002 6.28307
      vertex 110.26 32.9364 6.06738
    endloop
  endfacet
  facet normal 0 -0.173649 0.984808
    outer loop
      vertex -2.78 32.2591 5.89852
      vertex -1.92 31.5717 5.77732
      vertex -1.92 32.2591 5.89852
    endloop
  endfacet
  facet normal 0 -0.173649 0.984808
    outer loop
      vertex -1.92 31.5717 5.77732
      vertex -2.78 32.2591 5.89852
      vertex -2.78 31.5717 5.77732
    endloop
  endfacet
  facet normal 0 -0.173649 0.984808
    outer loop
      vertex 110.26 32.2591 5.89852
      vertex 111.12 31.5717 5.77732
      vertex 111.12 32.2591 5.89852
    endloop
  endfacet
  facet normal 0 -0.173649 0.984808
    outer loop
      vertex 111.12 31.5717 5.77732
      vertex 110.26 32.2591 5.89852
      vertex 110.26 31.5717 5.77732
    endloop
  endfacet
  facet normal 0 -0.241921 0.970296
    outer loop
      vertex -2.78 32.9364 6.06738
      vertex -1.92 32.2591 5.89852
      vertex -1.92 32.9364 6.06738
    endloop
  endfacet
  facet normal 0 -0.241921 0.970296
    outer loop
      vertex -1.92 32.2591 5.89852
      vertex -2.78 32.9364 6.06738
      vertex -2.78 32.2591 5.89852
    endloop
  endfacet
  facet normal 0 -0.241921 0.970296
    outer loop
      vertex 110.26 32.9364 6.06738
      vertex 111.12 32.2591 5.89852
      vertex 111.12 32.9364 6.06738
    endloop
  endfacet
  facet normal 0 -0.241921 0.970296
    outer loop
      vertex 111.12 32.2591 5.89852
      vertex 110.26 32.9364 6.06738
      vertex 110.26 32.2591 5.89852
    endloop
  endfacet
  facet normal 0 -0.559194 0.829037
    outer loop
      vertex -2.78 35.9247 7.5
      vertex -1.92 35.4792 7.19952
      vertex -1.92 35.9247 7.5
    endloop
  endfacet
  facet normal 0 -0.559194 0.829037
    outer loop
      vertex -1.92 35.4792 7.19952
      vertex -2.78 35.9247 7.5
      vertex -2.78 35.4792 7.19952
    endloop
  endfacet
  facet normal 0 -0.559194 0.829037
    outer loop
      vertex 110.26 35.9247 7.5
      vertex 111.12 35.4792 7.19952
      vertex 111.12 35.9247 7.5
    endloop
  endfacet
  facet normal 0 -0.559194 0.829037
    outer loop
      vertex 111.12 35.4792 7.19952
      vertex 110.26 35.9247 7.5
      vertex 110.26 35.4792 7.19952
    endloop
  endfacet
  facet normal -0 0.173649 0.984808
    outer loop
      vertex -2.78 28.7883 5.77732
      vertex -1.92 28.1009 5.89852
      vertex -1.92 28.7883 5.77732
    endloop
  endfacet
  facet normal 0 0.173649 0.984808
    outer loop
      vertex -1.92 28.1009 5.89852
      vertex -2.78 28.7883 5.77732
      vertex -2.78 28.1009 5.89852
    endloop
  endfacet
  facet normal -0 0.173649 0.984808
    outer loop
      vertex 110.26 28.7883 5.77732
      vertex 111.12 28.1009 5.89852
      vertex 111.12 28.7883 5.77732
    endloop
  endfacet
  facet normal 0 0.173649 0.984808
    outer loop
      vertex 111.12 28.1009 5.89852
      vertex 110.26 28.7883 5.77732
      vertex 110.26 28.1009 5.89852
    endloop
  endfacet
  facet normal -0 0.5 0.866025
    outer loop
      vertex -2.78 25.4853 6.85052
      vertex -1.92 24.8808 7.19952
      vertex -1.92 25.4853 6.85052
    endloop
  endfacet
  facet normal 0 0.5 0.866025
    outer loop
      vertex -1.92 24.8808 7.19952
      vertex -2.78 25.4853 6.85052
      vertex -2.78 24.8808 7.19952
    endloop
  endfacet
  facet normal -0 0.5 0.866025
    outer loop
      vertex 110.26 25.4853 6.85052
      vertex 111.12 24.8808 7.19952
      vertex 111.12 25.4853 6.85052
    endloop
  endfacet
  facet normal 0 0.5 0.866025
    outer loop
      vertex 111.12 24.8808 7.19952
      vertex 110.26 25.4853 6.85052
      vertex 110.26 24.8808 7.19952
    endloop
  endfacet
  facet normal -0 0.559192 0.829038
    outer loop
      vertex -2.78 24.8808 7.19952
      vertex -1.92 24.4353 7.5
      vertex -1.92 24.8808 7.19952
    endloop
  endfacet
  facet normal 0 0.559192 0.829038
    outer loop
      vertex -1.92 24.4353 7.5
      vertex -2.78 24.8808 7.19952
      vertex -2.78 24.4353 7.5
    endloop
  endfacet
  facet normal -0 0.559192 0.829038
    outer loop
      vertex 110.26 24.8808 7.19952
      vertex 111.12 24.4353 7.5
      vertex 111.12 24.8808 7.19952
    endloop
  endfacet
  facet normal 0 0.559192 0.829038
    outer loop
      vertex 111.12 24.4353 7.5
      vertex 110.26 24.8808 7.19952
      vertex 110.26 24.4353 7.5
    endloop
  endfacet
endsolid OpenSCAD_Model
