solid OpenSCAD_Model
  facet normal -1 0 0
    outer loop
      vertex -1.92 69.73 -0.6
      vertex -1.92 45.7403 12.4
      vertex -1.92 69.73 12.4
    endloop
  endfacet
  facet normal -1 0 0
    outer loop
      vertex -1.92 69.73 -0.6
      vertex -1.92 44.5114 10.7087
      vertex -1.92 45.7403 12.4
    endloop
  endfacet
  facet normal -1 0 0
    outer loop
      vertex -1.92 69.73 -0.6
      vertex -1.92 42.9579 9.30983
      vertex -1.92 44.5114 10.7087
    endloop
  endfacet
  facet normal -1 0 0
    outer loop
      vertex -1.92 69.73 -0.6
      vertex -1.92 41.1474 8.26454
      vertex -1.92 42.9579 9.30983
    endloop
  endfacet
  facet normal -1 0 0
    outer loop
      vertex -1.92 69.73 -0.6
      vertex -1.92 39.1591 7.61852
      vertex -1.92 41.1474 8.26454
    endloop
  endfacet
  facet normal -1 0 0
    outer loop
      vertex -1.92 69.73 -0.6
      vertex -1.92 37.08 7.4
      vertex -1.92 39.1591 7.61852
    endloop
  endfacet
  facet normal -1 0 0
    outer loop
      vertex -1.92 4.43 -0.6
      vertex -1.92 37.08 7.4
      vertex -1.92 69.73 -0.6
    endloop
  endfacet
  facet normal -1 -0 0
    outer loop
      vertex -1.92 37.08 7.4
      vertex -1.92 4.43 -0.6
      vertex -1.92 35.0009 7.61852
    endloop
  endfacet
  facet normal -1 0 0
    outer loop
      vertex -1.92 4.43 -0.6
      vertex -1.92 33.0126 8.26454
      vertex -1.92 35.0009 7.61852
    endloop
  endfacet
  facet normal -1 0 0
    outer loop
      vertex -1.92 4.43 -0.6
      vertex -1.92 31.2021 9.30983
      vertex -1.92 33.0126 8.26454
    endloop
  endfacet
  facet normal -1 0 0
    outer loop
      vertex -1.92 4.43 -0.6
      vertex -1.92 29.6486 10.7087
      vertex -1.92 31.2021 9.30983
    endloop
  endfacet
  facet normal -1 0 0
    outer loop
      vertex -1.92 4.43 -0.6
      vertex -1.92 28.4197 12.4
      vertex -1.92 29.6486 10.7087
    endloop
  endfacet
  facet normal -1 -0 0
    outer loop
      vertex -1.92 28.4197 12.4
      vertex -1.92 4.43 -0.6
      vertex -1.92 4.43 12.4
    endloop
  endfacet
  facet normal 0 0 1
    outer loop
      vertex -1.06 28.4197 12.4
      vertex -1.92 28.4197 12.4
      vertex -1.06 5.18071 12.4
    endloop
  endfacet
  facet normal 0 0 1
    outer loop
      vertex 62.22 5.19673 12.4
      vertex 63.08 28.4197 12.4
      vertex 62.22 28.4197 12.4
    endloop
  endfacet
  facet normal 0 0 1
    outer loop
      vertex 63.08 28.4197 12.4
      vertex 62.22 5.19673 12.4
      vertex 63.08 4.43 12.4
    endloop
  endfacet
  facet normal 0 0 1
    outer loop
      vertex 62.22 5.19673 12.4
      vertex 61.1177 4.11921 12.4
      vertex 63.08 4.43 12.4
    endloop
  endfacet
  facet normal -0 0 1
    outer loop
      vertex 60.6655 4.8737 12.4
      vertex 61.1177 4.11921 12.4
      vertex 62.22 5.19673 12.4
    endloop
  endfacet
  facet normal 0 0 1
    outer loop
      vertex 60.6655 4.8737 12.4
      vertex 59.3476 3.21726 12.4
      vertex 61.1177 4.11921 12.4
    endloop
  endfacet
  facet normal -0 0 1
    outer loop
      vertex 58.9221 3.97035 12.4
      vertex 59.3476 3.21726 12.4
      vertex 60.6655 4.8737 12.4
    endloop
  endfacet
  facet normal 0 0 1
    outer loop
      vertex 57.4871 2.63014 12.4
      vertex 59.3476 3.21726 12.4
      vertex 58.9221 3.97035 12.4
    endloop
  endfacet
  facet normal 0 0 1
    outer loop
      vertex 59.3476 3.21726 12.4
      vertex 57.4871 2.63014 12.4
      vertex 57.9427 1.81244 12.4
    endloop
  endfacet
  facet normal 0 0 1
    outer loop
      vertex 56.4669 0.952472 12.4
      vertex 57.9427 1.81244 12.4
      vertex 57.4871 2.63014 12.4
    endloop
  endfacet
  facet normal 0 0 1
    outer loop
      vertex 57.9427 1.81244 12.4
      vertex 56.4669 0.952472 12.4
      vertex 57.0408 0.0422574 12.4
    endloop
  endfacet
  facet normal 0 0 1
    outer loop
      vertex 55.9372 -0.938239 12.4
      vertex 57.0408 0.0422574 12.4
      vertex 56.4669 0.952472 12.4
    endloop
  endfacet
  facet normal 0 0 1
    outer loop
      vertex 57.0408 0.0422574 12.4
      vertex 55.9372 -0.938239 12.4
      vertex 56.73 -1.92 12.4
    endloop
  endfacet
  facet normal -0 0 1
    outer loop
      vertex 55.9372 -1.06 12.4
      vertex 56.73 -1.92 12.4
      vertex 55.9372 -0.938239 12.4
    endloop
  endfacet
  facet normal 0 0 1
    outer loop
      vertex 4.43 -1.92 12.4
      vertex 55.9372 -1.06 12.4
      vertex 5.1718 -1.06 12.4
    endloop
  endfacet
  facet normal 0 0 1
    outer loop
      vertex 55.9372 -1.06 12.4
      vertex 4.43 -1.92 12.4
      vertex 56.73 -1.92 12.4
    endloop
  endfacet
  facet normal 0 0 1
    outer loop
      vertex 4.11921 0.0422574 12.4
      vertex 5.1718 -1.06 12.4
      vertex 5.02263 0.0252343 12.4
    endloop
  endfacet
  facet normal -0 0 1
    outer loop
      vertex 4.11921 0.0422574 12.4
      vertex 5.02263 0.0252343 12.4
      vertex 4.24036 1.8262 12.4
    endloop
  endfacet
  facet normal 0 0 1
    outer loop
      vertex 5.1718 -1.06 12.4
      vertex 4.11921 0.0422574 12.4
      vertex 4.43 -1.92 12.4
    endloop
  endfacet
  facet normal 0 0 1
    outer loop
      vertex 4.24036 1.8262 12.4
      vertex 3.21726 1.81244 12.4
      vertex 4.11921 0.0422574 12.4
    endloop
  endfacet
  facet normal 0 0 1
    outer loop
      vertex 3.00121 3.34933 12.4
      vertex 3.21726 1.81244 12.4
      vertex 4.24036 1.8262 12.4
    endloop
  endfacet
  facet normal 0 0 1
    outer loop
      vertex 3.00121 3.34933 12.4
      vertex 1.81244 3.21726 12.4
      vertex 3.21726 1.81244 12.4
    endloop
  endfacet
  facet normal 0 0 1
    outer loop
      vertex 1.39707 4.48165 12.4
      vertex 1.81244 3.21726 12.4
      vertex 3.00121 3.34933 12.4
    endloop
  endfacet
  facet normal 0 0 1
    outer loop
      vertex 1.39707 4.48165 12.4
      vertex 0.0422574 4.11921 12.4
      vertex 1.81244 3.21726 12.4
    endloop
  endfacet
  facet normal 0 0 1
    outer loop
      vertex -0.453083 5.1392 12.4
      vertex 0.0422574 4.11921 12.4
      vertex 1.39707 4.48165 12.4
    endloop
  endfacet
  facet normal 0 0 1
    outer loop
      vertex -1.06 5.18071 12.4
      vertex 0.0422574 4.11921 12.4
      vertex -0.453083 5.1392 12.4
    endloop
  endfacet
  facet normal 0 0 1
    outer loop
      vertex -1.06 5.18071 12.4
      vertex -1.92 4.43 12.4
      vertex 0.0422574 4.11921 12.4
    endloop
  endfacet
  facet normal 0 0 1
    outer loop
      vertex -1.92 4.43 12.4
      vertex -1.06 5.18071 12.4
      vertex -1.92 28.4197 12.4
    endloop
  endfacet
  facet normal 0 0 1
    outer loop
      vertex 63.08 69.73 12.4
      vertex 62.22 68.9633 12.4
      vertex 63.08 45.7403 12.4
    endloop
  endfacet
  facet normal 0 0 1
    outer loop
      vertex 61.1177 70.0408 12.4
      vertex 62.22 68.9633 12.4
      vertex 63.08 69.73 12.4
    endloop
  endfacet
  facet normal 0 0 1
    outer loop
      vertex 61.1177 70.0408 12.4
      vertex 60.6655 69.2863 12.4
      vertex 62.22 68.9633 12.4
    endloop
  endfacet
  facet normal 0 0 1
    outer loop
      vertex 59.3476 70.9427 12.4
      vertex 60.6655 69.2863 12.4
      vertex 61.1177 70.0408 12.4
    endloop
  endfacet
  facet normal 0 0 1
    outer loop
      vertex 59.3476 70.9427 12.4
      vertex 58.9221 70.1896 12.4
      vertex 60.6655 69.2863 12.4
    endloop
  endfacet
  facet normal -0 0 1
    outer loop
      vertex 57.4871 71.5299 12.4
      vertex 59.3476 70.9427 12.4
      vertex 57.9427 72.3476 12.4
    endloop
  endfacet
  facet normal 0 0 1
    outer loop
      vertex 59.3476 70.9427 12.4
      vertex 57.4871 71.5299 12.4
      vertex 58.9221 70.1896 12.4
    endloop
  endfacet
  facet normal -0 0 1
    outer loop
      vertex 56.4669 73.2075 12.4
      vertex 57.9427 72.3476 12.4
      vertex 57.0408 74.1177 12.4
    endloop
  endfacet
  facet normal 0 0 1
    outer loop
      vertex 57.9427 72.3476 12.4
      vertex 56.4669 73.2075 12.4
      vertex 57.4871 71.5299 12.4
    endloop
  endfacet
  facet normal -0 0 1
    outer loop
      vertex 55.9372 75.0982 12.4
      vertex 57.0408 74.1177 12.4
      vertex 56.73 76.08 12.4
    endloop
  endfacet
  facet normal 0 0 1
    outer loop
      vertex 55.9372 75.0982 12.4
      vertex 56.73 76.08 12.4
      vertex 55.9372 75.22 12.4
    endloop
  endfacet
  facet normal -0 0 1
    outer loop
      vertex 4.43 76.08 12.4
      vertex 55.9372 75.22 12.4
      vertex 56.73 76.08 12.4
    endloop
  endfacet
  facet normal 0 0 1
    outer loop
      vertex 55.9372 75.22 12.4
      vertex 4.43 76.08 12.4
      vertex 5.1718 75.22 12.4
    endloop
  endfacet
  facet normal 0 0 1
    outer loop
      vertex 4.11921 74.1177 12.4
      vertex 5.1718 75.22 12.4
      vertex 4.43 76.08 12.4
    endloop
  endfacet
  facet normal 0 0 1
    outer loop
      vertex 5.1718 75.22 12.4
      vertex 4.11921 74.1177 12.4
      vertex 5.02263 74.1348 12.4
    endloop
  endfacet
  facet normal 0 0 1
    outer loop
      vertex 5.02263 74.1348 12.4
      vertex 4.11921 74.1177 12.4
      vertex 4.24036 72.3338 12.4
    endloop
  endfacet
  facet normal -0 0 1
    outer loop
      vertex 3.21726 72.3476 12.4
      vertex 4.24036 72.3338 12.4
      vertex 4.11921 74.1177 12.4
    endloop
  endfacet
  facet normal 0 0 1
    outer loop
      vertex 3.21726 72.3476 12.4
      vertex 3.00121 70.8107 12.4
      vertex 4.24036 72.3338 12.4
    endloop
  endfacet
  facet normal -0 0 1
    outer loop
      vertex 1.81244 70.9427 12.4
      vertex 3.00121 70.8107 12.4
      vertex 3.21726 72.3476 12.4
    endloop
  endfacet
  facet normal 0 0 1
    outer loop
      vertex 1.81244 70.9427 12.4
      vertex 1.39707 69.6783 12.4
      vertex 3.00121 70.8107 12.4
    endloop
  endfacet
  facet normal -0 0 1
    outer loop
      vertex 0.0422574 70.0408 12.4
      vertex 1.39707 69.6783 12.4
      vertex 1.81244 70.9427 12.4
    endloop
  endfacet
  facet normal 0 0 1
    outer loop
      vertex 0.0422574 70.0408 12.4
      vertex -0.453083 69.0208 12.4
      vertex 1.39707 69.6783 12.4
    endloop
  endfacet
  facet normal 0 0 1
    outer loop
      vertex 0.0422574 70.0408 12.4
      vertex -1.06 68.9793 12.4
      vertex -0.453083 69.0208 12.4
    endloop
  endfacet
  facet normal -0 0 1
    outer loop
      vertex -1.92 69.73 12.4
      vertex -1.06 68.9793 12.4
      vertex 0.0422574 70.0408 12.4
    endloop
  endfacet
  facet normal 0 0 1
    outer loop
      vertex -1.92 45.7403 12.4
      vertex -1.06 68.9793 12.4
      vertex -1.92 69.73 12.4
    endloop
  endfacet
  facet normal 0 0 1
    outer loop
      vertex -1.06 68.9793 12.4
      vertex -1.92 45.7403 12.4
      vertex -1.06 45.7403 12.4
    endloop
  endfacet
  facet normal 0 0 1
    outer loop
      vertex 63.08 45.7403 12.4
      vertex 62.22 68.9633 12.4
      vertex 62.22 45.7403 12.4
    endloop
  endfacet
  facet normal 0 0 1
    outer loop
      vertex 57.0408 74.1177 12.4
      vertex 55.9372 75.0982 12.4
      vertex 56.4669 73.2075 12.4
    endloop
  endfacet
  facet normal 1 -0 0
    outer loop
      vertex 63.08 45.7403 12.4
      vertex 63.08 69.73 -0.6
      vertex 63.08 69.73 12.4
    endloop
  endfacet
  facet normal 1 -0 0
    outer loop
      vertex 63.08 44.5114 10.7087
      vertex 63.08 69.73 -0.6
      vertex 63.08 45.7403 12.4
    endloop
  endfacet
  facet normal 1 -0 0
    outer loop
      vertex 63.08 42.9579 9.30983
      vertex 63.08 69.73 -0.6
      vertex 63.08 44.5114 10.7087
    endloop
  endfacet
  facet normal 1 -0 0
    outer loop
      vertex 63.08 41.1474 8.26454
      vertex 63.08 69.73 -0.6
      vertex 63.08 42.9579 9.30983
    endloop
  endfacet
  facet normal 1 -0 0
    outer loop
      vertex 63.08 39.1591 7.61852
      vertex 63.08 69.73 -0.6
      vertex 63.08 41.1474 8.26454
    endloop
  endfacet
  facet normal 1 -0 0
    outer loop
      vertex 63.08 37.08 7.4
      vertex 63.08 69.73 -0.6
      vertex 63.08 39.1591 7.61852
    endloop
  endfacet
  facet normal 1 0 0
    outer loop
      vertex 63.08 4.43 -0.6
      vertex 63.08 37.08 7.4
      vertex 63.08 35.0009 7.61852
    endloop
  endfacet
  facet normal 1 0 0
    outer loop
      vertex 63.08 4.43 -0.6
      vertex 63.08 28.4197 12.4
      vertex 63.08 4.43 12.4
    endloop
  endfacet
  facet normal 1 0 0
    outer loop
      vertex 63.08 28.4197 12.4
      vertex 63.08 4.43 -0.6
      vertex 63.08 29.6486 10.7087
    endloop
  endfacet
  facet normal 1 0 0
    outer loop
      vertex 63.08 29.6486 10.7087
      vertex 63.08 4.43 -0.6
      vertex 63.08 31.2021 9.30983
    endloop
  endfacet
  facet normal 1 0 0
    outer loop
      vertex 63.08 31.2021 9.30983
      vertex 63.08 4.43 -0.6
      vertex 63.08 33.0126 8.26454
    endloop
  endfacet
  facet normal 1 0 0
    outer loop
      vertex 63.08 33.0126 8.26454
      vertex 63.08 4.43 -0.6
      vertex 63.08 35.0009 7.61852
    endloop
  endfacet
  facet normal 1 0 0
    outer loop
      vertex 63.08 37.08 7.4
      vertex 63.08 4.43 -0.6
      vertex 63.08 69.73 -0.6
    endloop
  endfacet
  facet normal 0 1 -0
    outer loop
      vertex 56.73 76.08 -0.6
      vertex 4.43 76.08 12.4
      vertex 56.73 76.08 12.4
    endloop
  endfacet
  facet normal 0 1 0
    outer loop
      vertex 4.43 76.08 12.4
      vertex 56.73 76.08 -0.6
      vertex 4.43 76.08 -0.6
    endloop
  endfacet
  facet normal 0 0 -1
    outer loop
      vertex 61.1177 4.11921 -0.6
      vertex 63.08 69.73 -0.6
      vertex 63.08 4.43 -0.6
    endloop
  endfacet
  facet normal 0 0 -1
    outer loop
      vertex 61.1177 4.11921 -0.6
      vertex 61.1177 70.0408 -0.6
      vertex 63.08 69.73 -0.6
    endloop
  endfacet
  facet normal 0 0 -1
    outer loop
      vertex 59.3476 3.21726 -0.6
      vertex 61.1177 70.0408 -0.6
      vertex 61.1177 4.11921 -0.6
    endloop
  endfacet
  facet normal 0 0 -1
    outer loop
      vertex 59.3476 3.21726 -0.6
      vertex 59.3476 70.9427 -0.6
      vertex 61.1177 70.0408 -0.6
    endloop
  endfacet
  facet normal 0 0 -1
    outer loop
      vertex 1.81244 3.21726 -0.6
      vertex 59.3476 3.21726 -0.6
      vertex 57.9427 1.81244 -0.6
    endloop
  endfacet
  facet normal 0 0 -1
    outer loop
      vertex 59.3476 3.21726 -0.6
      vertex 1.81244 3.21726 -0.6
      vertex 59.3476 70.9427 -0.6
    endloop
  endfacet
  facet normal 0 0 -1
    outer loop
      vertex 3.21726 1.81244 -0.6
      vertex 57.9427 1.81244 -0.6
      vertex 57.0408 0.0422574 -0.6
    endloop
  endfacet
  facet normal 0 0 -1
    outer loop
      vertex 1.81244 70.9427 -0.6
      vertex 59.3476 70.9427 -0.6
      vertex 1.81244 3.21726 -0.6
    endloop
  endfacet
  facet normal 0 0 -1
    outer loop
      vertex 4.11921 0.0422574 -0.6
      vertex 57.0408 0.0422574 -0.6
      vertex 56.73 -1.92 -0.6
    endloop
  endfacet
  facet normal 0 0 -1
    outer loop
      vertex 59.3476 70.9427 -0.6
      vertex 1.81244 70.9427 -0.6
      vertex 57.9427 72.3476 -0.6
    endloop
  endfacet
  facet normal 0 0 -1
    outer loop
      vertex 4.11921 0.0422574 -0.6
      vertex 56.73 -1.92 -0.6
      vertex 4.43 -1.92 -0.6
    endloop
  endfacet
  facet normal 0 0 -1
    outer loop
      vertex 57.0408 0.0422574 -0.6
      vertex 4.11921 0.0422574 -0.6
      vertex 3.21726 1.81244 -0.6
    endloop
  endfacet
  facet normal 0 0 -1
    outer loop
      vertex 57.9427 1.81244 -0.6
      vertex 3.21726 1.81244 -0.6
      vertex 1.81244 3.21726 -0.6
    endloop
  endfacet
  facet normal -0 0 -1
    outer loop
      vertex 56.73 76.08 -0.6
      vertex 4.11921 74.1177 -0.6
      vertex 4.43 76.08 -0.6
    endloop
  endfacet
  facet normal 0 -0 -1
    outer loop
      vertex 3.21726 72.3476 -0.6
      vertex 57.9427 72.3476 -0.6
      vertex 1.81244 70.9427 -0.6
    endloop
  endfacet
  facet normal 0 0 -1
    outer loop
      vertex 57.0408 74.1177 -0.6
      vertex 4.11921 74.1177 -0.6
      vertex 56.73 76.08 -0.6
    endloop
  endfacet
  facet normal 0 0 -1
    outer loop
      vertex 57.9427 72.3476 -0.6
      vertex 3.21726 72.3476 -0.6
      vertex 57.0408 74.1177 -0.6
    endloop
  endfacet
  facet normal 0 -0 -1
    outer loop
      vertex 4.11921 74.1177 -0.6
      vertex 57.0408 74.1177 -0.6
      vertex 3.21726 72.3476 -0.6
    endloop
  endfacet
  facet normal 0 0 -1
    outer loop
      vertex 0.0422574 4.11921 -0.6
      vertex 1.81244 70.9427 -0.6
      vertex 1.81244 3.21726 -0.6
    endloop
  endfacet
  facet normal 0 0 -1
    outer loop
      vertex 0.0422574 4.11921 -0.6
      vertex 0.0422574 70.0408 -0.6
      vertex 1.81244 70.9427 -0.6
    endloop
  endfacet
  facet normal 0 0 -1
    outer loop
      vertex -1.92 4.43 -0.6
      vertex 0.0422574 70.0408 -0.6
      vertex 0.0422574 4.11921 -0.6
    endloop
  endfacet
  facet normal 0 0 -1
    outer loop
      vertex 0.0422574 70.0408 -0.6
      vertex -1.92 4.43 -0.6
      vertex -1.92 69.73 -0.6
    endloop
  endfacet
  facet normal 0 -1 0
    outer loop
      vertex 4.43 -1.92 -0.6
      vertex 56.73 -1.92 12.4
      vertex 4.43 -1.92 12.4
    endloop
  endfacet
  facet normal 0 -1 -0
    outer loop
      vertex 56.73 -1.92 12.4
      vertex 4.43 -1.92 -0.6
      vertex 56.73 -1.92 -0.6
    endloop
  endfacet
  facet normal -0.987688 -0.156434 0
    outer loop
      vertex 4.43 -1.92 -0.6
      vertex 4.11921 0.0422574 12.4
      vertex 4.11921 0.0422574 -0.6
    endloop
  endfacet
  facet normal -0.987688 -0.156434 0
    outer loop
      vertex 4.11921 0.0422574 12.4
      vertex 4.43 -1.92 -0.6
      vertex 4.43 -1.92 12.4
    endloop
  endfacet
  facet normal -0.156434 -0.987688 0
    outer loop
      vertex -1.92 4.43 -0.6
      vertex 0.0422574 4.11921 12.4
      vertex -1.92 4.43 12.4
    endloop
  endfacet
  facet normal -0.156434 -0.987688 -0
    outer loop
      vertex 0.0422574 4.11921 12.4
      vertex -1.92 4.43 -0.6
      vertex 0.0422574 4.11921 -0.6
    endloop
  endfacet
  facet normal -0.707107 -0.707107 0
    outer loop
      vertex 3.21726 1.81244 -0.6
      vertex 1.81244 3.21726 12.4
      vertex 1.81244 3.21726 -0.6
    endloop
  endfacet
  facet normal -0.707107 -0.707107 0
    outer loop
      vertex 1.81244 3.21726 12.4
      vertex 3.21726 1.81244 -0.6
      vertex 3.21726 1.81244 12.4
    endloop
  endfacet
  facet normal -0.891007 -0.45399 0
    outer loop
      vertex 4.11921 0.0422574 -0.6
      vertex 3.21726 1.81244 12.4
      vertex 3.21726 1.81244 -0.6
    endloop
  endfacet
  facet normal -0.891007 -0.45399 0
    outer loop
      vertex 3.21726 1.81244 12.4
      vertex 4.11921 0.0422574 -0.6
      vertex 4.11921 0.0422574 12.4
    endloop
  endfacet
  facet normal -0.45399 -0.891007 0
    outer loop
      vertex 0.0422574 4.11921 -0.6
      vertex 1.81244 3.21726 12.4
      vertex 0.0422574 4.11921 12.4
    endloop
  endfacet
  facet normal -0.45399 -0.891007 -0
    outer loop
      vertex 1.81244 3.21726 12.4
      vertex 0.0422574 4.11921 -0.6
      vertex 1.81244 3.21726 -0.6
    endloop
  endfacet
  facet normal 0.987688 -0.156434 0
    outer loop
      vertex 56.73 -1.92 12.4
      vertex 57.0408 0.0422574 -0.6
      vertex 57.0408 0.0422574 12.4
    endloop
  endfacet
  facet normal 0.987688 -0.156434 0
    outer loop
      vertex 57.0408 0.0422574 -0.6
      vertex 56.73 -1.92 12.4
      vertex 56.73 -1.92 -0.6
    endloop
  endfacet
  facet normal 0.156434 -0.987688 0
    outer loop
      vertex 61.1177 4.11921 -0.6
      vertex 63.08 4.43 12.4
      vertex 61.1177 4.11921 12.4
    endloop
  endfacet
  facet normal 0.156434 -0.987688 0
    outer loop
      vertex 63.08 4.43 12.4
      vertex 61.1177 4.11921 -0.6
      vertex 63.08 4.43 -0.6
    endloop
  endfacet
  facet normal 0.453991 -0.891006 0
    outer loop
      vertex 59.3476 3.21726 -0.6
      vertex 61.1177 4.11921 12.4
      vertex 59.3476 3.21726 12.4
    endloop
  endfacet
  facet normal 0.453991 -0.891006 0
    outer loop
      vertex 61.1177 4.11921 12.4
      vertex 59.3476 3.21726 -0.6
      vertex 61.1177 4.11921 -0.6
    endloop
  endfacet
  facet normal 0.707106 -0.707107 0
    outer loop
      vertex 57.9427 1.81244 -0.6
      vertex 59.3476 3.21726 12.4
      vertex 57.9427 1.81244 12.4
    endloop
  endfacet
  facet normal 0.707106 -0.707107 0
    outer loop
      vertex 59.3476 3.21726 12.4
      vertex 57.9427 1.81244 -0.6
      vertex 59.3476 3.21726 -0.6
    endloop
  endfacet
  facet normal 0.891007 -0.45399 0
    outer loop
      vertex 57.0408 0.0422574 12.4
      vertex 57.9427 1.81244 -0.6
      vertex 57.9427 1.81244 12.4
    endloop
  endfacet
  facet normal 0.891007 -0.45399 0
    outer loop
      vertex 57.9427 1.81244 -0.6
      vertex 57.0408 0.0422574 12.4
      vertex 57.0408 0.0422574 -0.6
    endloop
  endfacet
  facet normal -0.453989 0.891007 0
    outer loop
      vertex 1.81244 70.9427 -0.6
      vertex 0.0422574 70.0408 12.4
      vertex 1.81244 70.9427 12.4
    endloop
  endfacet
  facet normal -0.453989 0.891007 0
    outer loop
      vertex 0.0422574 70.0408 12.4
      vertex 1.81244 70.9427 -0.6
      vertex 0.0422574 70.0408 -0.6
    endloop
  endfacet
  facet normal -0.891007 0.45399 0
    outer loop
      vertex 3.21726 72.3476 -0.6
      vertex 4.11921 74.1177 12.4
      vertex 4.11921 74.1177 -0.6
    endloop
  endfacet
  facet normal -0.891007 0.45399 0
    outer loop
      vertex 4.11921 74.1177 12.4
      vertex 3.21726 72.3476 -0.6
      vertex 3.21726 72.3476 12.4
    endloop
  endfacet
  facet normal -0.707107 0.707106 0
    outer loop
      vertex 1.81244 70.9427 -0.6
      vertex 3.21726 72.3476 12.4
      vertex 3.21726 72.3476 -0.6
    endloop
  endfacet
  facet normal -0.707107 0.707106 0
    outer loop
      vertex 3.21726 72.3476 12.4
      vertex 1.81244 70.9427 -0.6
      vertex 1.81244 70.9427 12.4
    endloop
  endfacet
  facet normal -0.987688 0.156434 0
    outer loop
      vertex 4.11921 74.1177 -0.6
      vertex 4.43 76.08 12.4
      vertex 4.43 76.08 -0.6
    endloop
  endfacet
  facet normal -0.987688 0.156434 0
    outer loop
      vertex 4.43 76.08 12.4
      vertex 4.11921 74.1177 -0.6
      vertex 4.11921 74.1177 12.4
    endloop
  endfacet
  facet normal -0.156434 0.987688 0
    outer loop
      vertex 0.0422574 70.0408 -0.6
      vertex -1.92 69.73 12.4
      vertex 0.0422574 70.0408 12.4
    endloop
  endfacet
  facet normal -0.156434 0.987688 0
    outer loop
      vertex -1.92 69.73 12.4
      vertex 0.0422574 70.0408 -0.6
      vertex -1.92 69.73 -0.6
    endloop
  endfacet
  facet normal 0.987688 0.156434 0
    outer loop
      vertex 57.0408 74.1177 12.4
      vertex 56.73 76.08 -0.6
      vertex 56.73 76.08 12.4
    endloop
  endfacet
  facet normal 0.987688 0.156434 0
    outer loop
      vertex 56.73 76.08 -0.6
      vertex 57.0408 74.1177 12.4
      vertex 57.0408 74.1177 -0.6
    endloop
  endfacet
  facet normal 0.156434 0.987688 -0
    outer loop
      vertex 63.08 69.73 -0.6
      vertex 61.1177 70.0408 12.4
      vertex 63.08 69.73 12.4
    endloop
  endfacet
  facet normal 0.156434 0.987688 0
    outer loop
      vertex 61.1177 70.0408 12.4
      vertex 63.08 69.73 -0.6
      vertex 61.1177 70.0408 -0.6
    endloop
  endfacet
  facet normal 0.891007 0.45399 0
    outer loop
      vertex 57.9427 72.3476 12.4
      vertex 57.0408 74.1177 -0.6
      vertex 57.0408 74.1177 12.4
    endloop
  endfacet
  facet normal 0.891007 0.45399 0
    outer loop
      vertex 57.0408 74.1177 -0.6
      vertex 57.9427 72.3476 12.4
      vertex 57.9427 72.3476 -0.6
    endloop
  endfacet
  facet normal 0.453989 0.891007 -0
    outer loop
      vertex 61.1177 70.0408 -0.6
      vertex 59.3476 70.9427 12.4
      vertex 61.1177 70.0408 12.4
    endloop
  endfacet
  facet normal 0.453989 0.891007 0
    outer loop
      vertex 59.3476 70.9427 12.4
      vertex 61.1177 70.0408 -0.6
      vertex 59.3476 70.9427 -0.6
    endloop
  endfacet
  facet normal 0.707107 0.707107 0
    outer loop
      vertex 59.3476 70.9427 12.4
      vertex 57.9427 72.3476 -0.6
      vertex 57.9427 72.3476 12.4
    endloop
  endfacet
  facet normal 0.707107 0.707107 0
    outer loop
      vertex 57.9427 72.3476 -0.6
      vertex 59.3476 70.9427 12.4
      vertex 59.3476 70.9427 -0.6
    endloop
  endfacet
  facet normal 1 -0 0
    outer loop
      vertex -1.06 45.7403 12.4
      vertex -1.06 68.9793 -5.72205e-07
      vertex -1.06 68.9793 12.4
    endloop
  endfacet
  facet normal 1 -0 0
    outer loop
      vertex -1.06 44.5114 10.7087
      vertex -1.06 68.9793 -5.72205e-07
      vertex -1.06 45.7403 12.4
    endloop
  endfacet
  facet normal 1 -0 0
    outer loop
      vertex -1.06 42.9579 9.30983
      vertex -1.06 68.9793 -5.72205e-07
      vertex -1.06 44.5114 10.7087
    endloop
  endfacet
  facet normal 1 -0 0
    outer loop
      vertex -1.06 41.1474 8.26454
      vertex -1.06 68.9793 -5.72205e-07
      vertex -1.06 42.9579 9.30983
    endloop
  endfacet
  facet normal 1 -0 0
    outer loop
      vertex -1.06 39.1591 7.61852
      vertex -1.06 68.9793 -5.72205e-07
      vertex -1.06 41.1474 8.26454
    endloop
  endfacet
  facet normal 1 -0 0
    outer loop
      vertex -1.06 37.08 7.4
      vertex -1.06 68.9793 -5.72205e-07
      vertex -1.06 39.1591 7.61852
    endloop
  endfacet
  facet normal 1 0 0
    outer loop
      vertex -1.06 5.18071 -5.72205e-07
      vertex -1.06 37.08 7.4
      vertex -1.06 35.0009 7.61852
    endloop
  endfacet
  facet normal 1 0 0
    outer loop
      vertex -1.06 5.18071 -5.72205e-07
      vertex -1.06 28.4197 12.4
      vertex -1.06 5.18071 12.4
    endloop
  endfacet
  facet normal 1 0 0
    outer loop
      vertex -1.06 28.4197 12.4
      vertex -1.06 5.18071 -5.72205e-07
      vertex -1.06 29.6486 10.7087
    endloop
  endfacet
  facet normal 1 0 0
    outer loop
      vertex -1.06 29.6486 10.7087
      vertex -1.06 5.18071 -5.72205e-07
      vertex -1.06 31.2021 9.30983
    endloop
  endfacet
  facet normal 1 0 0
    outer loop
      vertex -1.06 31.2021 9.30983
      vertex -1.06 5.18071 -5.72205e-07
      vertex -1.06 33.0126 8.26454
    endloop
  endfacet
  facet normal 1 0 0
    outer loop
      vertex -1.06 33.0126 8.26454
      vertex -1.06 5.18071 -5.72205e-07
      vertex -1.06 35.0009 7.61852
    endloop
  endfacet
  facet normal 1 0 0
    outer loop
      vertex -1.06 37.08 7.4
      vertex -1.06 5.18071 -5.72205e-07
      vertex -1.06 68.9793 -5.72205e-07
    endloop
  endfacet
  facet normal -1 0 0
    outer loop
      vertex 62.22 68.9633 -5.72205e-07
      vertex 62.22 45.7403 12.4
      vertex 62.22 68.9633 12.4
    endloop
  endfacet
  facet normal -1 0 0
    outer loop
      vertex 62.22 68.9633 -5.72205e-07
      vertex 62.22 44.5114 10.7087
      vertex 62.22 45.7403 12.4
    endloop
  endfacet
  facet normal -1 0 0
    outer loop
      vertex 62.22 68.9633 -5.72205e-07
      vertex 62.22 42.9579 9.30983
      vertex 62.22 44.5114 10.7087
    endloop
  endfacet
  facet normal -1 0 0
    outer loop
      vertex 62.22 68.9633 -5.72205e-07
      vertex 62.22 41.1474 8.26454
      vertex 62.22 42.9579 9.30983
    endloop
  endfacet
  facet normal -1 0 0
    outer loop
      vertex 62.22 68.9633 -5.72205e-07
      vertex 62.22 39.1591 7.61852
      vertex 62.22 41.1474 8.26454
    endloop
  endfacet
  facet normal -1 0 0
    outer loop
      vertex 62.22 68.9633 -5.72205e-07
      vertex 62.22 37.08 7.4
      vertex 62.22 39.1591 7.61852
    endloop
  endfacet
  facet normal -1 0 0
    outer loop
      vertex 62.22 5.19673 -5.72205e-07
      vertex 62.22 37.08 7.4
      vertex 62.22 68.9633 -5.72205e-07
    endloop
  endfacet
  facet normal -1 -0 0
    outer loop
      vertex 62.22 37.08 7.4
      vertex 62.22 5.19673 -5.72205e-07
      vertex 62.22 35.0009 7.61852
    endloop
  endfacet
  facet normal -1 0 0
    outer loop
      vertex 62.22 5.19673 -5.72205e-07
      vertex 62.22 33.0126 8.26454
      vertex 62.22 35.0009 7.61852
    endloop
  endfacet
  facet normal -1 0 0
    outer loop
      vertex 62.22 5.19673 -5.72205e-07
      vertex 62.22 31.2021 9.30983
      vertex 62.22 33.0126 8.26454
    endloop
  endfacet
  facet normal -1 0 0
    outer loop
      vertex 62.22 5.19673 -5.72205e-07
      vertex 62.22 29.6486 10.7087
      vertex 62.22 31.2021 9.30983
    endloop
  endfacet
  facet normal -1 0 0
    outer loop
      vertex 62.22 5.19673 -5.72205e-07
      vertex 62.22 28.4197 12.4
      vertex 62.22 29.6486 10.7087
    endloop
  endfacet
  facet normal -1 -0 0
    outer loop
      vertex 62.22 28.4197 12.4
      vertex 62.22 5.19673 -5.72205e-07
      vertex 62.22 5.19673 12.4
    endloop
  endfacet
  facet normal -0 0 1
    outer loop
      vertex 5.1718 75.22 -5.72205e-07
      vertex 55.9372 75.0982 -5.72205e-07
      vertex 55.9372 75.22 -5.72205e-07
    endloop
  endfacet
  facet normal 0 0 1
    outer loop
      vertex 55.9372 75.0982 -5.72205e-07
      vertex 3.00121 70.8107 -5.72205e-07
      vertex 55.9372 -0.938239 -5.72205e-07
    endloop
  endfacet
  facet normal 0 0 1
    outer loop
      vertex 55.9372 75.0982 -5.72205e-07
      vertex 5.1718 75.22 -5.72205e-07
      vertex 5.02263 74.1348 -5.72205e-07
    endloop
  endfacet
  facet normal 0 0 1
    outer loop
      vertex 55.9372 75.0982 -5.72205e-07
      vertex 5.02263 74.1348 -5.72205e-07
      vertex 4.24036 72.3338 -5.72205e-07
    endloop
  endfacet
  facet normal 0 0 1
    outer loop
      vertex 55.9372 75.0982 -5.72205e-07
      vertex 4.24036 72.3338 -5.72205e-07
      vertex 3.00121 70.8107 -5.72205e-07
    endloop
  endfacet
  facet normal 0 0 1
    outer loop
      vertex 55.9372 -0.938239 -5.72205e-07
      vertex 5.1718 -1.06 -5.72205e-07
      vertex 55.9372 -1.06 -5.72205e-07
    endloop
  endfacet
  facet normal -0 0 1
    outer loop
      vertex 3.00121 3.34933 -5.72205e-07
      vertex 55.9372 -0.938239 -5.72205e-07
      vertex 3.00121 70.8107 -5.72205e-07
    endloop
  endfacet
  facet normal 0 -0 1
    outer loop
      vertex 5.1718 -1.06 -5.72205e-07
      vertex 55.9372 -0.938239 -5.72205e-07
      vertex 5.02263 0.0252343 -5.72205e-07
    endloop
  endfacet
  facet normal -0 -0 1
    outer loop
      vertex 4.24036 1.8262 -5.72205e-07
      vertex 55.9372 -0.938239 -5.72205e-07
      vertex 3.00121 3.34933 -5.72205e-07
    endloop
  endfacet
  facet normal -0 -0 1
    outer loop
      vertex 5.02263 0.0252343 -5.72205e-07
      vertex 55.9372 -0.938239 -5.72205e-07
      vertex 4.24036 1.8262 -5.72205e-07
    endloop
  endfacet
  facet normal -0 0 1
    outer loop
      vertex 1.39707 69.6783 -5.72205e-07
      vertex 3.00121 3.34933 -5.72205e-07
      vertex 3.00121 70.8107 -5.72205e-07
    endloop
  endfacet
  facet normal 0 0 1
    outer loop
      vertex 1.39707 69.6783 -5.72205e-07
      vertex 1.39707 4.48165 -5.72205e-07
      vertex 3.00121 3.34933 -5.72205e-07
    endloop
  endfacet
  facet normal -0 0 1
    outer loop
      vertex -0.453083 69.0208 -5.72205e-07
      vertex 1.39707 4.48165 -5.72205e-07
      vertex 1.39707 69.6783 -5.72205e-07
    endloop
  endfacet
  facet normal 0 0 1
    outer loop
      vertex -0.453083 69.0208 -5.72205e-07
      vertex -0.453083 5.1392 -5.72205e-07
      vertex 1.39707 4.48165 -5.72205e-07
    endloop
  endfacet
  facet normal -0 0 1
    outer loop
      vertex -1.06 68.9793 -5.72205e-07
      vertex -0.453083 5.1392 -5.72205e-07
      vertex -0.453083 69.0208 -5.72205e-07
    endloop
  endfacet
  facet normal 0 0 1
    outer loop
      vertex -0.453083 5.1392 -5.72205e-07
      vertex -1.06 68.9793 -5.72205e-07
      vertex -1.06 5.18071 -5.72205e-07
    endloop
  endfacet
  facet normal 0 0 1
    outer loop
      vertex 60.6655 69.2863 -5.72205e-07
      vertex 62.22 5.19673 -5.72205e-07
      vertex 62.22 68.9633 -5.72205e-07
    endloop
  endfacet
  facet normal 0 0 1
    outer loop
      vertex 60.6655 69.2863 -5.72205e-07
      vertex 60.6655 4.8737 -5.72205e-07
      vertex 62.22 5.19673 -5.72205e-07
    endloop
  endfacet
  facet normal 0 0 1
    outer loop
      vertex 58.9221 70.1896 -5.72205e-07
      vertex 60.6655 4.8737 -5.72205e-07
      vertex 60.6655 69.2863 -5.72205e-07
    endloop
  endfacet
  facet normal 0 0 1
    outer loop
      vertex 58.9221 70.1896 -5.72205e-07
      vertex 58.9221 3.97035 -5.72205e-07
      vertex 60.6655 4.8737 -5.72205e-07
    endloop
  endfacet
  facet normal 0 0 1
    outer loop
      vertex 57.4871 71.5299 -5.72205e-07
      vertex 58.9221 3.97035 -5.72205e-07
      vertex 58.9221 70.1896 -5.72205e-07
    endloop
  endfacet
  facet normal 0 0 1
    outer loop
      vertex 57.4871 71.5299 -5.72205e-07
      vertex 57.4871 2.63014 -5.72205e-07
      vertex 58.9221 3.97035 -5.72205e-07
    endloop
  endfacet
  facet normal 0 0 1
    outer loop
      vertex 56.4669 73.2075 -5.72205e-07
      vertex 57.4871 2.63014 -5.72205e-07
      vertex 57.4871 71.5299 -5.72205e-07
    endloop
  endfacet
  facet normal 0 0 1
    outer loop
      vertex 56.4669 73.2075 -5.72205e-07
      vertex 56.4669 0.952472 -5.72205e-07
      vertex 57.4871 2.63014 -5.72205e-07
    endloop
  endfacet
  facet normal 0 0 1
    outer loop
      vertex 55.9372 75.0982 -5.72205e-07
      vertex 56.4669 0.952472 -5.72205e-07
      vertex 56.4669 73.2075 -5.72205e-07
    endloop
  endfacet
  facet normal 0 0 1
    outer loop
      vertex 56.4669 0.952472 -5.72205e-07
      vertex 55.9372 75.0982 -5.72205e-07
      vertex 55.9372 -0.938239 -5.72205e-07
    endloop
  endfacet
  facet normal 0 1 -0
    outer loop
      vertex 55.9372 -1.06 -5.72205e-07
      vertex 5.1718 -1.06 12.4
      vertex 55.9372 -1.06 12.4
    endloop
  endfacet
  facet normal 0 1 0
    outer loop
      vertex 5.1718 -1.06 12.4
      vertex 55.9372 -1.06 -5.72205e-07
      vertex 5.1718 -1.06 -5.72205e-07
    endloop
  endfacet
  facet normal 0 -1 0
    outer loop
      vertex 5.1718 75.22 -5.72205e-07
      vertex 55.9372 75.22 12.4
      vertex 5.1718 75.22 12.4
    endloop
  endfacet
  facet normal 0 -1 -0
    outer loop
      vertex 55.9372 75.22 12.4
      vertex 5.1718 75.22 -5.72205e-07
      vertex 55.9372 75.22 -5.72205e-07
    endloop
  endfacet
  facet normal 0.990686 0.136166 0
    outer loop
      vertex 5.1718 -1.06 12.4
      vertex 5.02263 0.0252343 -5.72205e-07
      vertex 5.02263 0.0252343 12.4
    endloop
  endfacet
  facet normal 0.990686 0.136166 0
    outer loop
      vertex 5.02263 0.0252343 -5.72205e-07
      vertex 5.1718 -1.06 12.4
      vertex 5.1718 -1.06 -5.72205e-07
    endloop
  endfacet
  facet normal 0.57668 0.81697 -0
    outer loop
      vertex 3.00121 3.34933 -5.72205e-07
      vertex 1.39707 4.48165 12.4
      vertex 3.00121 3.34933 12.4
    endloop
  endfacet
  facet normal 0.57668 0.81697 0
    outer loop
      vertex 1.39707 4.48165 12.4
      vertex 3.00121 3.34933 -5.72205e-07
      vertex 1.39707 4.48165 -5.72205e-07
    endloop
  endfacet
  facet normal 0.775711 0.631088 0
    outer loop
      vertex 4.24036 1.8262 12.4
      vertex 3.00121 3.34933 -5.72205e-07
      vertex 3.00121 3.34933 12.4
    endloop
  endfacet
  facet normal 0.775711 0.631088 0
    outer loop
      vertex 3.00121 3.34933 -5.72205e-07
      vertex 4.24036 1.8262 12.4
      vertex 4.24036 1.8262 -5.72205e-07
    endloop
  endfacet
  facet normal 0.917211 0.398401 0
    outer loop
      vertex 5.02263 0.0252343 12.4
      vertex 4.24036 1.8262 -5.72205e-07
      vertex 4.24036 1.8262 12.4
    endloop
  endfacet
  facet normal 0.917211 0.398401 0
    outer loop
      vertex 4.24036 1.8262 -5.72205e-07
      vertex 5.02263 0.0252343 12.4
      vertex 5.02263 0.0252343 -5.72205e-07
    endloop
  endfacet
  facet normal 0.0682426 0.997669 -0
    outer loop
      vertex -0.453083 5.1392 -5.72205e-07
      vertex -1.06 5.18071 12.4
      vertex -0.453083 5.1392 12.4
    endloop
  endfacet
  facet normal 0.0682426 0.997669 0
    outer loop
      vertex -1.06 5.18071 12.4
      vertex -0.453083 5.1392 -5.72205e-07
      vertex -1.06 5.18071 -5.72205e-07
    endloop
  endfacet
  facet normal 0.334879 0.942261 -0
    outer loop
      vertex 1.39707 4.48165 -5.72205e-07
      vertex -0.453083 5.1392 12.4
      vertex 1.39707 4.48165 12.4
    endloop
  endfacet
  facet normal 0.334879 0.942261 0
    outer loop
      vertex -0.453083 5.1392 12.4
      vertex 1.39707 4.48165 -5.72205e-07
      vertex -0.453083 5.1392 -5.72205e-07
    endloop
  endfacet
  facet normal -1 0 0
    outer loop
      vertex 55.9372 -1.06 -5.72205e-07
      vertex 55.9372 -0.938239 12.4
      vertex 55.9372 -0.938239 -5.72205e-07
    endloop
  endfacet
  facet normal -1 -0 0
    outer loop
      vertex 55.9372 -0.938239 12.4
      vertex 55.9372 -1.06 -5.72205e-07
      vertex 55.9372 -1.06 12.4
    endloop
  endfacet
  facet normal -0.203456 0.979084 0
    outer loop
      vertex 62.22 5.19673 -5.72205e-07
      vertex 60.6655 4.8737 12.4
      vertex 62.22 5.19673 12.4
    endloop
  endfacet
  facet normal -0.203456 0.979084 0
    outer loop
      vertex 60.6655 4.8737 12.4
      vertex 62.22 5.19673 -5.72205e-07
      vertex 60.6655 4.8737 -5.72205e-07
    endloop
  endfacet
  facet normal -0.682553 0.730836 0
    outer loop
      vertex 58.9221 3.97035 -5.72205e-07
      vertex 57.4871 2.63014 12.4
      vertex 58.9221 3.97035 12.4
    endloop
  endfacet
  facet normal -0.682553 0.730836 0
    outer loop
      vertex 57.4871 2.63014 12.4
      vertex 58.9221 3.97035 -5.72205e-07
      vertex 57.4871 2.63014 -5.72205e-07
    endloop
  endfacet
  facet normal -0.85442 0.519584 0
    outer loop
      vertex 56.4669 0.952472 -5.72205e-07
      vertex 57.4871 2.63014 12.4
      vertex 57.4871 2.63014 -5.72205e-07
    endloop
  endfacet
  facet normal -0.85442 0.519584 0
    outer loop
      vertex 57.4871 2.63014 12.4
      vertex 56.4669 0.952472 -5.72205e-07
      vertex 56.4669 0.952472 12.4
    endloop
  endfacet
  facet normal -0.962917 0.269798 0
    outer loop
      vertex 55.9372 -0.938239 -5.72205e-07
      vertex 56.4669 0.952472 12.4
      vertex 56.4669 0.952472 -5.72205e-07
    endloop
  endfacet
  facet normal -0.962917 0.269798 0
    outer loop
      vertex 56.4669 0.952472 12.4
      vertex 55.9372 -0.938239 -5.72205e-07
      vertex 55.9372 -0.938239 12.4
    endloop
  endfacet
  facet normal -0.460065 0.887885 0
    outer loop
      vertex 60.6655 4.8737 -5.72205e-07
      vertex 58.9221 3.97035 12.4
      vertex 60.6655 4.8737 12.4
    endloop
  endfacet
  facet normal -0.460065 0.887885 0
    outer loop
      vertex 58.9221 3.97035 12.4
      vertex 60.6655 4.8737 -5.72205e-07
      vertex 58.9221 3.97035 -5.72205e-07
    endloop
  endfacet
  facet normal 0.990686 -0.136166 0
    outer loop
      vertex 5.02263 74.1348 12.4
      vertex 5.1718 75.22 -5.72205e-07
      vertex 5.1718 75.22 12.4
    endloop
  endfacet
  facet normal 0.990686 -0.136166 0
    outer loop
      vertex 5.1718 75.22 -5.72205e-07
      vertex 5.02263 74.1348 12.4
      vertex 5.02263 74.1348 -5.72205e-07
    endloop
  endfacet
  facet normal 0.57668 -0.81697 0
    outer loop
      vertex 1.39707 69.6783 -5.72205e-07
      vertex 3.00121 70.8107 12.4
      vertex 1.39707 69.6783 12.4
    endloop
  endfacet
  facet normal 0.57668 -0.81697 0
    outer loop
      vertex 3.00121 70.8107 12.4
      vertex 1.39707 69.6783 -5.72205e-07
      vertex 3.00121 70.8107 -5.72205e-07
    endloop
  endfacet
  facet normal 0.334878 -0.942262 0
    outer loop
      vertex -0.453083 69.0208 -5.72205e-07
      vertex 1.39707 69.6783 12.4
      vertex -0.453083 69.0208 12.4
    endloop
  endfacet
  facet normal 0.334878 -0.942262 0
    outer loop
      vertex 1.39707 69.6783 12.4
      vertex -0.453083 69.0208 -5.72205e-07
      vertex 1.39707 69.6783 -5.72205e-07
    endloop
  endfacet
  facet normal 0.775712 -0.631087 0
    outer loop
      vertex 3.00121 70.8107 12.4
      vertex 4.24036 72.3338 -5.72205e-07
      vertex 4.24036 72.3338 12.4
    endloop
  endfacet
  facet normal 0.775712 -0.631087 0
    outer loop
      vertex 4.24036 72.3338 -5.72205e-07
      vertex 3.00121 70.8107 12.4
      vertex 3.00121 70.8107 -5.72205e-07
    endloop
  endfacet
  facet normal 0.917211 -0.398402 0
    outer loop
      vertex 4.24036 72.3338 12.4
      vertex 5.02263 74.1348 -5.72205e-07
      vertex 5.02263 74.1348 12.4
    endloop
  endfacet
  facet normal 0.917211 -0.398402 0
    outer loop
      vertex 5.02263 74.1348 -5.72205e-07
      vertex 4.24036 72.3338 12.4
      vertex 4.24036 72.3338 -5.72205e-07
    endloop
  endfacet
  facet normal 0.0682504 -0.997668 0
    outer loop
      vertex -1.06 68.9793 -5.72205e-07
      vertex -0.453083 69.0208 12.4
      vertex -1.06 68.9793 12.4
    endloop
  endfacet
  facet normal 0.0682504 -0.997668 0
    outer loop
      vertex -0.453083 69.0208 12.4
      vertex -1.06 68.9793 -5.72205e-07
      vertex -0.453083 69.0208 -5.72205e-07
    endloop
  endfacet
  facet normal -1 0 0
    outer loop
      vertex 55.9372 75.0982 -5.72205e-07
      vertex 55.9372 75.22 12.4
      vertex 55.9372 75.22 -5.72205e-07
    endloop
  endfacet
  facet normal -1 -0 0
    outer loop
      vertex 55.9372 75.22 12.4
      vertex 55.9372 75.0982 -5.72205e-07
      vertex 55.9372 75.0982 12.4
    endloop
  endfacet
  facet normal -0.962917 -0.269798 0
    outer loop
      vertex 56.4669 73.2075 -5.72205e-07
      vertex 55.9372 75.0982 12.4
      vertex 55.9372 75.0982 -5.72205e-07
    endloop
  endfacet
  facet normal -0.962917 -0.269798 0
    outer loop
      vertex 55.9372 75.0982 12.4
      vertex 56.4669 73.2075 -5.72205e-07
      vertex 56.4669 73.2075 12.4
    endloop
  endfacet
  facet normal -0.85442 -0.519583 0
    outer loop
      vertex 57.4871 71.5299 -5.72205e-07
      vertex 56.4669 73.2075 12.4
      vertex 56.4669 73.2075 -5.72205e-07
    endloop
  endfacet
  facet normal -0.85442 -0.519583 0
    outer loop
      vertex 56.4669 73.2075 12.4
      vertex 57.4871 71.5299 -5.72205e-07
      vertex 57.4871 71.5299 12.4
    endloop
  endfacet
  facet normal -0.203458 -0.979084 0
    outer loop
      vertex 60.6655 69.2863 -5.72205e-07
      vertex 62.22 68.9633 12.4
      vertex 60.6655 69.2863 12.4
    endloop
  endfacet
  facet normal -0.203458 -0.979084 -0
    outer loop
      vertex 62.22 68.9633 12.4
      vertex 60.6655 69.2863 -5.72205e-07
      vertex 62.22 68.9633 -5.72205e-07
    endloop
  endfacet
  facet normal -0.682554 -0.730836 0
    outer loop
      vertex 57.4871 71.5299 -5.72205e-07
      vertex 58.9221 70.1896 12.4
      vertex 57.4871 71.5299 12.4
    endloop
  endfacet
  facet normal -0.682554 -0.730836 -0
    outer loop
      vertex 58.9221 70.1896 12.4
      vertex 57.4871 71.5299 -5.72205e-07
      vertex 58.9221 70.1896 -5.72205e-07
    endloop
  endfacet
  facet normal -0.460063 -0.887887 0
    outer loop
      vertex 58.9221 70.1896 -5.72205e-07
      vertex 60.6655 69.2863 12.4
      vertex 58.9221 70.1896 12.4
    endloop
  endfacet
  facet normal -0.460063 -0.887887 -0
    outer loop
      vertex 60.6655 69.2863 12.4
      vertex 58.9221 70.1896 -5.72205e-07
      vertex 60.6655 69.2863 -5.72205e-07
    endloop
  endfacet
  facet normal 0 -0.104528 0.994522
    outer loop
      vertex -1.92 39.1591 7.61852
      vertex -1.06 37.08 7.4
      vertex -1.06 39.1591 7.61852
    endloop
  endfacet
  facet normal 0 -0.104528 0.994522
    outer loop
      vertex -1.06 37.08 7.4
      vertex -1.92 39.1591 7.61852
      vertex -1.92 37.08 7.4
    endloop
  endfacet
  facet normal 0 -0.104528 0.994522
    outer loop
      vertex 62.22 39.1591 7.61852
      vertex 63.08 37.08 7.4
      vertex 63.08 39.1591 7.61852
    endloop
  endfacet
  facet normal 0 -0.104528 0.994522
    outer loop
      vertex 63.08 37.08 7.4
      vertex 62.22 39.1591 7.61852
      vertex 62.22 37.08 7.4
    endloop
  endfacet
  facet normal -0 0.5 0.866026
    outer loop
      vertex -1.92 33.0126 8.26454
      vertex -1.06 31.2021 9.30983
      vertex -1.06 33.0126 8.26454
    endloop
  endfacet
  facet normal 0 0.5 0.866026
    outer loop
      vertex -1.06 31.2021 9.30983
      vertex -1.92 33.0126 8.26454
      vertex -1.92 31.2021 9.30983
    endloop
  endfacet
  facet normal -0 0.5 0.866026
    outer loop
      vertex 62.22 33.0126 8.26454
      vertex 63.08 31.2021 9.30983
      vertex 63.08 33.0126 8.26454
    endloop
  endfacet
  facet normal 0 0.5 0.866026
    outer loop
      vertex 63.08 31.2021 9.30983
      vertex 62.22 33.0126 8.26454
      vertex 62.22 31.2021 9.30983
    endloop
  endfacet
  facet normal 0 -0.309017 0.951057
    outer loop
      vertex -1.92 41.1474 8.26454
      vertex -1.06 39.1591 7.61852
      vertex -1.06 41.1474 8.26454
    endloop
  endfacet
  facet normal 0 -0.309017 0.951057
    outer loop
      vertex -1.06 39.1591 7.61852
      vertex -1.92 41.1474 8.26454
      vertex -1.92 39.1591 7.61852
    endloop
  endfacet
  facet normal 0 -0.309017 0.951057
    outer loop
      vertex 62.22 41.1474 8.26454
      vertex 63.08 39.1591 7.61852
      vertex 63.08 41.1474 8.26454
    endloop
  endfacet
  facet normal 0 -0.309017 0.951057
    outer loop
      vertex 63.08 39.1591 7.61852
      vertex 62.22 41.1474 8.26454
      vertex 62.22 39.1591 7.61852
    endloop
  endfacet
  facet normal 0 -0.669131 0.743145
    outer loop
      vertex -1.92 44.5114 10.7087
      vertex -1.06 42.9579 9.30983
      vertex -1.06 44.5114 10.7087
    endloop
  endfacet
  facet normal 0 -0.669131 0.743145
    outer loop
      vertex -1.06 42.9579 9.30983
      vertex -1.92 44.5114 10.7087
      vertex -1.92 42.9579 9.30983
    endloop
  endfacet
  facet normal 0 -0.669131 0.743145
    outer loop
      vertex 62.22 44.5114 10.7087
      vertex 63.08 42.9579 9.30983
      vertex 63.08 44.5114 10.7087
    endloop
  endfacet
  facet normal 0 -0.669131 0.743145
    outer loop
      vertex 63.08 42.9579 9.30983
      vertex 62.22 44.5114 10.7087
      vertex 62.22 42.9579 9.30983
    endloop
  endfacet
  facet normal 0 -0.809017 0.587785
    outer loop
      vertex -1.92 44.5114 10.7087
      vertex -1.06 45.7403 12.4
      vertex -1.92 45.7403 12.4
    endloop
  endfacet
  facet normal 0 -0.809017 0.587785
    outer loop
      vertex -1.06 45.7403 12.4
      vertex -1.92 44.5114 10.7087
      vertex -1.06 44.5114 10.7087
    endloop
  endfacet
  facet normal 0 -0.809017 0.587785
    outer loop
      vertex 62.22 44.5114 10.7087
      vertex 63.08 45.7403 12.4
      vertex 62.22 45.7403 12.4
    endloop
  endfacet
  facet normal 0 -0.809017 0.587785
    outer loop
      vertex 63.08 45.7403 12.4
      vertex 62.22 44.5114 10.7087
      vertex 63.08 44.5114 10.7087
    endloop
  endfacet
  facet normal 0 -0.5 0.866025
    outer loop
      vertex -1.92 42.9579 9.30983
      vertex -1.06 41.1474 8.26454
      vertex -1.06 42.9579 9.30983
    endloop
  endfacet
  facet normal 0 -0.5 0.866025
    outer loop
      vertex -1.06 41.1474 8.26454
      vertex -1.92 42.9579 9.30983
      vertex -1.92 41.1474 8.26454
    endloop
  endfacet
  facet normal 0 -0.5 0.866025
    outer loop
      vertex 62.22 42.9579 9.30983
      vertex 63.08 41.1474 8.26454
      vertex 63.08 42.9579 9.30983
    endloop
  endfacet
  facet normal 0 -0.5 0.866025
    outer loop
      vertex 63.08 41.1474 8.26454
      vertex 62.22 42.9579 9.30983
      vertex 62.22 41.1474 8.26454
    endloop
  endfacet
  facet normal -0 0.309017 0.951057
    outer loop
      vertex -1.92 35.0009 7.61852
      vertex -1.06 33.0126 8.26454
      vertex -1.06 35.0009 7.61852
    endloop
  endfacet
  facet normal 0 0.309017 0.951057
    outer loop
      vertex -1.06 33.0126 8.26454
      vertex -1.92 35.0009 7.61852
      vertex -1.92 33.0126 8.26454
    endloop
  endfacet
  facet normal -0 0.309017 0.951057
    outer loop
      vertex 62.22 35.0009 7.61852
      vertex 63.08 33.0126 8.26454
      vertex 63.08 35.0009 7.61852
    endloop
  endfacet
  facet normal 0 0.309017 0.951057
    outer loop
      vertex 63.08 33.0126 8.26454
      vertex 62.22 35.0009 7.61852
      vertex 62.22 33.0126 8.26454
    endloop
  endfacet
  facet normal -0 0.104528 0.994522
    outer loop
      vertex -1.92 37.08 7.4
      vertex -1.06 35.0009 7.61852
      vertex -1.06 37.08 7.4
    endloop
  endfacet
  facet normal 0 0.104528 0.994522
    outer loop
      vertex -1.06 35.0009 7.61852
      vertex -1.92 37.08 7.4
      vertex -1.92 35.0009 7.61852
    endloop
  endfacet
  facet normal -0 0.104528 0.994522
    outer loop
      vertex 62.22 37.08 7.4
      vertex 63.08 35.0009 7.61852
      vertex 63.08 37.08 7.4
    endloop
  endfacet
  facet normal 0 0.104528 0.994522
    outer loop
      vertex 63.08 35.0009 7.61852
      vertex 62.22 37.08 7.4
      vertex 62.22 35.0009 7.61852
    endloop
  endfacet
  facet normal 0 0.809017 0.587785
    outer loop
      vertex -1.06 29.6486 10.7087
      vertex -1.92 28.4197 12.4
      vertex -1.06 28.4197 12.4
    endloop
  endfacet
  facet normal 0 0.809017 0.587785
    outer loop
      vertex -1.92 28.4197 12.4
      vertex -1.06 29.6486 10.7087
      vertex -1.92 29.6486 10.7087
    endloop
  endfacet
  facet normal 0 0.809017 0.587785
    outer loop
      vertex 63.08 29.6486 10.7087
      vertex 62.22 28.4197 12.4
      vertex 63.08 28.4197 12.4
    endloop
  endfacet
  facet normal 0 0.809017 0.587785
    outer loop
      vertex 62.22 28.4197 12.4
      vertex 63.08 29.6486 10.7087
      vertex 62.22 29.6486 10.7087
    endloop
  endfacet
  facet normal -0 0.669131 0.743144
    outer loop
      vertex -1.92 31.2021 9.30983
      vertex -1.06 29.6486 10.7087
      vertex -1.06 31.2021 9.30983
    endloop
  endfacet
  facet normal 0 0.669131 0.743144
    outer loop
      vertex -1.06 29.6486 10.7087
      vertex -1.92 31.2021 9.30983
      vertex -1.92 29.6486 10.7087
    endloop
  endfacet
  facet normal -0 0.669131 0.743144
    outer loop
      vertex 62.22 31.2021 9.30983
      vertex 63.08 29.6486 10.7087
      vertex 63.08 31.2021 9.30983
    endloop
  endfacet
  facet normal 0 0.669131 0.743144
    outer loop
      vertex 63.08 29.6486 10.7087
      vertex 62.22 31.2021 9.30983
      vertex 62.22 29.6486 10.7087
    endloop
  endfacet
endsolid OpenSCAD_Model
