solid OpenSCAD_Model
  facet normal -1 0 0
    outer loop
      vertex -0.86 -0.86 -0.6
      vertex -0.86 45.61 76
      vertex -0.86 45.61 -0.6
    endloop
  endfacet
  facet normal -1 -0 0
    outer loop
      vertex -0.86 45.61 76
      vertex -0.86 -0.86 -0.6
      vertex -0.86 -0.86 76
    endloop
  endfacet
  facet normal 0 0 1
    outer loop
      vertex 68.86 45.61 76
      vertex 68 44.75 76
      vertex 68.86 -0.86 76
    endloop
  endfacet
  facet normal 0 0 1
    outer loop
      vertex 68.86 45.61 76
      vertex -3.43323e-07 44.75 76
      vertex 68 44.75 76
    endloop
  endfacet
  facet normal 0 0 1
    outer loop
      vertex -3.43323e-07 44.75 76
      vertex -0.86 45.61 76
      vertex -3.43323e-07 -3.43323e-07 76
    endloop
  endfacet
  facet normal -0 0 1
    outer loop
      vertex -0.86 45.61 76
      vertex -3.43323e-07 44.75 76
      vertex 68.86 45.61 76
    endloop
  endfacet
  facet normal -0 0 1
    outer loop
      vertex 68 -3.43323e-07 76
      vertex 68.86 -0.86 76
      vertex 68 44.75 76
    endloop
  endfacet
  facet normal -0 0 1
    outer loop
      vertex -3.43323e-07 -3.43323e-07 76
      vertex 68.86 -0.86 76
      vertex 68 -3.43323e-07 76
    endloop
  endfacet
  facet normal 0 0 1
    outer loop
      vertex -3.43323e-07 -3.43323e-07 76
      vertex -0.86 -0.86 76
      vertex 68.86 -0.86 76
    endloop
  endfacet
  facet normal 0 0 1
    outer loop
      vertex -0.86 -0.86 76
      vertex -3.43323e-07 -3.43323e-07 76
      vertex -0.86 45.61 76
    endloop
  endfacet
  facet normal 1 -0 0
    outer loop
      vertex 68.86 -0.86 76
      vertex 68.86 45.61 -0.6
      vertex 68.86 45.61 76
    endloop
  endfacet
  facet normal 1 0 0
    outer loop
      vertex 68.86 45.61 -0.6
      vertex 68.86 -0.86 76
      vertex 68.86 -0.86 -0.6
    endloop
  endfacet
  facet normal 0 1 -0
    outer loop
      vertex 68.86 45.61 -0.6
      vertex -0.86 45.61 76
      vertex 68.86 45.61 76
    endloop
  endfacet
  facet normal 0 1 0
    outer loop
      vertex -0.86 45.61 76
      vertex 68.86 45.61 -0.6
      vertex -0.86 45.61 -0.6
    endloop
  endfacet
  facet normal 0 0 -1
    outer loop
      vertex -0.86 -0.86 -0.6
      vertex 68.86 45.61 -0.6
      vertex 68.86 -0.86 -0.6
    endloop
  endfacet
  facet normal -0 0 -1
    outer loop
      vertex 68.86 45.61 -0.6
      vertex -0.86 -0.86 -0.6
      vertex -0.86 45.61 -0.6
    endloop
  endfacet
  facet normal 0 -1 0
    outer loop
      vertex -0.86 -0.86 -0.6
      vertex 68.86 -0.86 76
      vertex -0.86 -0.86 76
    endloop
  endfacet
  facet normal 0 -1 -0
    outer loop
      vertex 68.86 -0.86 76
      vertex -0.86 -0.86 -0.6
      vertex 68.86 -0.86 -0.6
    endloop
  endfacet
  facet normal 1 -0 0
    outer loop
      vertex -3.43323e-07 -3.43323e-07 76
      vertex -3.43323e-07 44.75 -5.72205e-07
      vertex -3.43323e-07 44.75 76
    endloop
  endfacet
  facet normal 1 0 0
    outer loop
      vertex -3.43323e-07 44.75 -5.72205e-07
      vertex -3.43323e-07 -3.43323e-07 76
      vertex -3.43323e-07 -3.43323e-07 -5.72205e-07
    endloop
  endfacet
  facet normal -1 0 0
    outer loop
      vertex 68 -3.43323e-07 -5.72205e-07
      vertex 68 44.75 76
      vertex 68 44.75 -5.72205e-07
    endloop
  endfacet
  facet normal -1 -0 0
    outer loop
      vertex 68 44.75 76
      vertex 68 -3.43323e-07 -5.72205e-07
      vertex 68 -3.43323e-07 76
    endloop
  endfacet
  facet normal 0 -1 0
    outer loop
      vertex -3.43323e-07 44.75 -5.72205e-07
      vertex 68 44.75 76
      vertex -3.43323e-07 44.75 76
    endloop
  endfacet
  facet normal 0 -1 -0
    outer loop
      vertex 68 44.75 76
      vertex -3.43323e-07 44.75 -5.72205e-07
      vertex 68 44.75 -5.72205e-07
    endloop
  endfacet
  facet normal -0 0 1
    outer loop
      vertex -3.43323e-07 44.75 -5.72205e-07
      vertex 68 -3.43323e-07 -5.72205e-07
      vertex 68 44.75 -5.72205e-07
    endloop
  endfacet
  facet normal 0 0 1
    outer loop
      vertex 68 -3.43323e-07 -5.72205e-07
      vertex -3.43323e-07 44.75 -5.72205e-07
      vertex -3.43323e-07 -3.43323e-07 -5.72205e-07
    endloop
  endfacet
  facet normal 0 1 -0
    outer loop
      vertex 68 -3.43323e-07 -5.72205e-07
      vertex -3.43323e-07 -3.43323e-07 76
      vertex 68 -3.43323e-07 76
    endloop
  endfacet
  facet normal 0 1 0
    outer loop
      vertex -3.43323e-07 -3.43323e-07 76
      vertex 68 -3.43323e-07 -5.72205e-07
      vertex -3.43323e-07 -3.43323e-07 -5.72205e-07
    endloop
  endfacet
endsolid OpenSCAD_Model
