  0
SECTION
  2
BLOCKS
  0
ENDSEC
  0
SECTION
  2
ENTITIES
  0
LINE
  8
0
 10
0
 11
0
 20
0
 21
69.282
  0
LINE
  8
0
 10
0
 11
2
 20
69.282
 21
69.282
  0
LINE
  8
0
 10
2
 11
22
 20
69.282
 21
34.641
  0
LINE
  8
0
 10
22
 11
23.992
 20
34.641
 21
35.791
  0
LINE
  8
0
 10
23.992
 11
4.656
 20
35.791
 21
69.282
  0
LINE
  8
0
 10
4.656
 11
31.713
 20
69.282
 21
69.282
  0
LINE
  8
0
 10
31.713
 11
51.713
 20
69.282
 21
34.641
  0
LINE
  8
0
 10
51.713
 11
53.705
 20
34.641
 21
35.791
  0
LINE
  8
0
 10
53.705
 11
34.369
 20
35.791
 21
69.282
  0
LINE
  8
0
 10
34.369
 11
61.426
 20
69.282
 21
69.282
  0
LINE
  8
0
 10
61.426
 11
81.426
 20
69.282
 21
34.641
  0
LINE
  8
0
 10
81.426
 11
83.418
 20
34.641
 21
35.791
  0
LINE
  8
0
 10
83.418
 11
64.082
 20
35.791
 21
69.282
  0
LINE
  8
0
 10
64.082
 11
91.138
 20
69.282
 21
69.282
  0
LINE
  8
0
 10
91.138
 11
111.138
 20
69.282
 21
34.641
  0
LINE
  8
0
 10
111.138
 11
113.13
 20
34.641
 21
35.791
  0
LINE
  8
0
 10
113.13
 11
93.794
 20
35.791
 21
69.282
  0
LINE
  8
0
 10
93.794
 11
134.708
 20
69.282
 21
69.282
  0
LINE
  8
0
 10
134.708
 11
154.708
 20
69.282
 21
34.641
  0
LINE
  8
0
 10
154.708
 11
156.7
 20
34.641
 21
35.791
  0
LINE
  8
0
 10
156.7
 11
137.364
 20
35.791
 21
69.282
  0
LINE
  8
0
 10
137.364
 11
178.277
 20
69.282
 21
69.282
  0
LINE
  8
0
 10
178.277
 11
198.277
 20
69.282
 21
34.641
  0
LINE
  8
0
 10
198.277
 11
200.269
 20
34.641
 21
35.791
  0
LINE
  8
0
 10
200.269
 11
180.933
 20
35.791
 21
69.282
  0
LINE
  8
0
 10
180.933
 11
221.846
 20
69.282
 21
69.282
  0
LINE
  8
0
 10
221.846
 11
241.846
 20
69.282
 21
34.641
  0
LINE
  8
0
 10
241.846
 11
243.838
 20
34.641
 21
35.791
  0
LINE
  8
0
 10
243.838
 11
224.502
 20
35.791
 21
69.282
  0
LINE
  8
0
 10
224.502
 11
265
 20
69.282
 21
69.282
  0
LINE
  8
0
 10
265
 11
265
 20
69.282
 21
0
  0
LINE
  8
0
 10
265
 11
0
 20
0
 21
0
  0
LINE
  8
0
 10
0
 11
0
 20
71.282
 21
140.564
  0
LINE
  8
0
 10
0
 11
2
 20
140.564
 21
140.564
  0
LINE
  8
0
 10
2
 11
22
 20
140.564
 21
105.923
  0
LINE
  8
0
 10
22
 11
23.992
 20
105.923
 21
107.073
  0
LINE
  8
0
 10
23.992
 11
4.656
 20
107.073
 21
140.564
  0
LINE
  8
0
 10
4.656
 11
31.713
 20
140.564
 21
140.564
  0
LINE
  8
0
 10
31.713
 11
51.713
 20
140.564
 21
105.923
  0
LINE
  8
0
 10
51.713
 11
53.705
 20
105.923
 21
107.073
  0
LINE
  8
0
 10
53.705
 11
34.369
 20
107.073
 21
140.564
  0
LINE
  8
0
 10
34.369
 11
61.426
 20
140.564
 21
140.564
  0
LINE
  8
0
 10
61.426
 11
81.426
 20
140.564
 21
105.923
  0
LINE
  8
0
 10
81.426
 11
83.418
 20
105.923
 21
107.073
  0
LINE
  8
0
 10
83.418
 11
64.082
 20
107.073
 21
140.564
  0
LINE
  8
0
 10
64.082
 11
91.138
 20
140.564
 21
140.564
  0
LINE
  8
0
 10
91.138
 11
111.138
 20
140.564
 21
105.923
  0
LINE
  8
0
 10
111.138
 11
113.13
 20
105.923
 21
107.073
  0
LINE
  8
0
 10
113.13
 11
93.794
 20
107.073
 21
140.564
  0
LINE
  8
0
 10
93.794
 11
134.708
 20
140.564
 21
140.564
  0
LINE
  8
0
 10
134.708
 11
154.708
 20
140.564
 21
105.923
  0
LINE
  8
0
 10
154.708
 11
156.7
 20
105.923
 21
107.073
  0
LINE
  8
0
 10
156.7
 11
137.364
 20
107.073
 21
140.564
  0
LINE
  8
0
 10
137.364
 11
178.277
 20
140.564
 21
140.564
  0
LINE
  8
0
 10
178.277
 11
198.277
 20
140.564
 21
105.923
  0
LINE
  8
0
 10
198.277
 11
200.269
 20
105.923
 21
107.073
  0
LINE
  8
0
 10
200.269
 11
180.933
 20
107.073
 21
140.564
  0
LINE
  8
0
 10
180.933
 11
221.846
 20
140.564
 21
140.564
  0
LINE
  8
0
 10
221.846
 11
241.846
 20
140.564
 21
105.923
  0
LINE
  8
0
 10
241.846
 11
243.838
 20
105.923
 21
107.073
  0
LINE
  8
0
 10
243.838
 11
224.502
 20
107.073
 21
140.564
  0
LINE
  8
0
 10
224.502
 11
265
 20
140.564
 21
140.564
  0
LINE
  8
0
 10
265
 11
265
 20
140.564
 21
71.282
  0
LINE
  8
0
 10
265
 11
0
 20
71.282
 21
71.282
  0
LINE
  8
0
 10
0
 11
0
 20
142.564
 21
222.564
  0
LINE
  8
0
 10
0
 11
117.6
 20
222.564
 21
222.564
  0
LINE
  8
0
 10
117.6
 11
117.6
 20
222.564
 21
142.564
  0
LINE
  8
0
 10
117.6
 11
0
 20
142.564
 21
142.564
  0
LINE
  8
0
 10
0
 11
0
 20
224.564
 21
304.564
  0
LINE
  8
0
 10
0
 11
117.6
 20
304.564
 21
304.564
  0
LINE
  8
0
 10
117.6
 11
117.6
 20
304.564
 21
224.564
  0
LINE
  8
0
 10
117.6
 11
0
 20
224.564
 21
224.564
  0
LINE
  8
0
 10
119.6
 11
119.6
 20
142.564
 21
222.564
  0
LINE
  8
0
 10
119.6
 11
237.2
 20
222.564
 21
222.564
  0
LINE
  8
0
 10
237.2
 11
237.2
 20
222.564
 21
142.564
  0
LINE
  8
0
 10
237.2
 11
119.6
 20
142.564
 21
142.564
  0
LINE
  8
0
 10
119.6
 11
119.6
 20
224.564
 21
304.564
  0
LINE
  8
0
 10
119.6
 11
237.2
 20
304.564
 21
304.564
  0
LINE
  8
0
 10
237.2
 11
237.2
 20
304.564
 21
224.564
  0
LINE
  8
0
 10
237.2
 11
119.6
 20
224.564
 21
224.564
  0
LINE
  8
0
 10
239.2
 11
239.2
 20
142.564
 21
222.564
  0
LINE
  8
0
 10
239.2
 11
356.8
 20
222.564
 21
222.564
  0
LINE
  8
0
 10
356.8
 11
356.8
 20
222.564
 21
142.564
  0
LINE
  8
0
 10
356.8
 11
239.2
 20
142.564
 21
142.564
  0
LINE
  8
0
 10
239.2
 11
239.2
 20
224.564
 21
304.564
  0
LINE
  8
0
 10
239.2
 11
356.8
 20
304.564
 21
304.564
  0
LINE
  8
0
 10
356.8
 11
356.8
 20
304.564
 21
224.564
  0
LINE
  8
0
 10
356.8
 11
239.2
 20
224.564
 21
224.564
  0
LINE
  8
0
 10
267
 11
267
 20
22.964
 21
140.564
  0
LINE
  8
0
 10
267
 11
347
 20
140.564
 21
140.564
  0
LINE
  8
0
 10
347
 11
347
 20
140.564
 21
22.964
  0
LINE
  8
0
 10
347
 11
267
 20
22.964
 21
22.964
  0
ENDSEC
  0
SECTION
  2
OBJECTS
  0
DICTIONARY
  0
ENDSEC
  0
EOF
