  0
SECTION
  2
BLOCKS
  0
ENDSEC
  0
SECTION
  2
ENTITIES
  0
LINE
  8
0
 10
0
 11
0
 20
0
 21
39
  0
LINE
  8
0
 10
0
 11
132.9
 20
39
 21
39
  0
LINE
  8
0
 10
132.9
 11
132.9
 20
39
 21
0
  0
LINE
  8
0
 10
132.9
 11
0
 20
0
 21
0
  0
LINE
  8
0
 10
0
 11
0
 20
41
 21
80
  0
LINE
  8
0
 10
0
 11
132.9
 20
80
 21
80
  0
LINE
  8
0
 10
132.9
 11
132.9
 20
80
 21
41
  0
LINE
  8
0
 10
132.9
 11
0
 20
41
 21
41
  0
LINE
  8
0
 10
0
 11
0
 20
82
 21
121
  0
LINE
  8
0
 10
0
 11
132.9
 20
121
 21
121
  0
LINE
  8
0
 10
132.9
 11
132.9
 20
121
 21
82
  0
LINE
  8
0
 10
132.9
 11
0
 20
82
 21
82
  0
LINE
  8
0
 10
2
 11
2
 20
4
 21
13
  0
LINE
  8
0
 10
2
 11
11
 20
13
 21
13
  0
LINE
  8
0
 10
11
 11
11
 20
13
 21
4
  0
LINE
  8
0
 10
11
 11
2
 20
4
 21
4
  0
LINE
  8
0
 10
2
 11
2
 20
16
 21
25
  0
LINE
  8
0
 10
2
 11
11
 20
25
 21
25
  0
LINE
  8
0
 10
11
 11
11
 20
25
 21
16
  0
LINE
  8
0
 10
11
 11
2
 20
16
 21
16
  0
LINE
  8
0
 10
2
 11
2
 20
28
 21
37
  0
LINE
  8
0
 10
2
 11
11
 20
37
 21
37
  0
LINE
  8
0
 10
11
 11
11
 20
37
 21
28
  0
LINE
  8
0
 10
11
 11
2
 20
28
 21
28
  0
LINE
  8
0
 10
2
 11
2
 20
45
 21
54
  0
LINE
  8
0
 10
2
 11
11
 20
54
 21
54
  0
LINE
  8
0
 10
11
 11
11
 20
54
 21
45
  0
LINE
  8
0
 10
11
 11
2
 20
45
 21
45
  0
LINE
  8
0
 10
2
 11
2
 20
57
 21
66
  0
LINE
  8
0
 10
2
 11
11
 20
66
 21
66
  0
LINE
  8
0
 10
11
 11
11
 20
66
 21
57
  0
LINE
  8
0
 10
11
 11
2
 20
57
 21
57
  0
LINE
  8
0
 10
2
 11
2
 20
69
 21
78
  0
LINE
  8
0
 10
2
 11
11
 20
78
 21
78
  0
LINE
  8
0
 10
11
 11
11
 20
78
 21
69
  0
LINE
  8
0
 10
11
 11
2
 20
69
 21
69
  0
LINE
  8
0
 10
2
 11
2
 20
86
 21
95
  0
LINE
  8
0
 10
2
 11
11
 20
95
 21
95
  0
LINE
  8
0
 10
11
 11
11
 20
95
 21
86
  0
LINE
  8
0
 10
11
 11
2
 20
86
 21
86
  0
LINE
  8
0
 10
2
 11
2
 20
98
 21
107
  0
LINE
  8
0
 10
2
 11
11
 20
107
 21
107
  0
LINE
  8
0
 10
11
 11
11
 20
107
 21
98
  0
LINE
  8
0
 10
11
 11
2
 20
98
 21
98
  0
LINE
  8
0
 10
2
 11
2
 20
110
 21
119
  0
LINE
  8
0
 10
2
 11
11
 20
119
 21
119
  0
LINE
  8
0
 10
11
 11
11
 20
119
 21
110
  0
LINE
  8
0
 10
11
 11
2
 20
110
 21
110
  0
LINE
  8
0
 10
12.9
 11
12.9
 20
4
 21
13
  0
LINE
  8
0
 10
12.9
 11
21.9
 20
13
 21
13
  0
LINE
  8
0
 10
21.9
 11
21.9
 20
13
 21
4
  0
LINE
  8
0
 10
21.9
 11
12.9
 20
4
 21
4
  0
LINE
  8
0
 10
12.9
 11
12.9
 20
16
 21
25
  0
LINE
  8
0
 10
12.9
 11
21.9
 20
25
 21
25
  0
LINE
  8
0
 10
21.9
 11
21.9
 20
25
 21
16
  0
LINE
  8
0
 10
21.9
 11
12.9
 20
16
 21
16
  0
LINE
  8
0
 10
12.9
 11
12.9
 20
28
 21
37
  0
LINE
  8
0
 10
12.9
 11
21.9
 20
37
 21
37
  0
LINE
  8
0
 10
21.9
 11
21.9
 20
37
 21
28
  0
LINE
  8
0
 10
21.9
 11
12.9
 20
28
 21
28
  0
LINE
  8
0
 10
12.9
 11
12.9
 20
45
 21
54
  0
LINE
  8
0
 10
12.9
 11
21.9
 20
54
 21
54
  0
LINE
  8
0
 10
21.9
 11
21.9
 20
54
 21
45
  0
LINE
  8
0
 10
21.9
 11
12.9
 20
45
 21
45
  0
LINE
  8
0
 10
12.9
 11
12.9
 20
57
 21
66
  0
LINE
  8
0
 10
12.9
 11
21.9
 20
66
 21
66
  0
LINE
  8
0
 10
21.9
 11
21.9
 20
66
 21
57
  0
LINE
  8
0
 10
21.9
 11
12.9
 20
57
 21
57
  0
LINE
  8
0
 10
12.9
 11
12.9
 20
69
 21
78
  0
LINE
  8
0
 10
12.9
 11
21.9
 20
78
 21
78
  0
LINE
  8
0
 10
21.9
 11
21.9
 20
78
 21
69
  0
LINE
  8
0
 10
21.9
 11
12.9
 20
69
 21
69
  0
LINE
  8
0
 10
12.9
 11
12.9
 20
86
 21
95
  0
LINE
  8
0
 10
12.9
 11
21.9
 20
95
 21
95
  0
LINE
  8
0
 10
21.9
 11
21.9
 20
95
 21
86
  0
LINE
  8
0
 10
21.9
 11
12.9
 20
86
 21
86
  0
LINE
  8
0
 10
12.9
 11
12.9
 20
98
 21
107
  0
LINE
  8
0
 10
12.9
 11
21.9
 20
107
 21
107
  0
LINE
  8
0
 10
21.9
 11
21.9
 20
107
 21
98
  0
LINE
  8
0
 10
21.9
 11
12.9
 20
98
 21
98
  0
LINE
  8
0
 10
12.9
 11
12.9
 20
110
 21
119
  0
LINE
  8
0
 10
12.9
 11
21.9
 20
119
 21
119
  0
LINE
  8
0
 10
21.9
 11
21.9
 20
119
 21
110
  0
LINE
  8
0
 10
21.9
 11
12.9
 20
110
 21
110
  0
LINE
  8
0
 10
23.8
 11
23.8
 20
4
 21
13
  0
LINE
  8
0
 10
23.8
 11
32.8
 20
13
 21
13
  0
LINE
  8
0
 10
32.8
 11
32.8
 20
13
 21
4
  0
LINE
  8
0
 10
32.8
 11
23.8
 20
4
 21
4
  0
LINE
  8
0
 10
23.8
 11
23.8
 20
16
 21
25
  0
LINE
  8
0
 10
23.8
 11
32.8
 20
25
 21
25
  0
LINE
  8
0
 10
32.8
 11
32.8
 20
25
 21
16
  0
LINE
  8
0
 10
32.8
 11
23.8
 20
16
 21
16
  0
LINE
  8
0
 10
23.8
 11
23.8
 20
28
 21
37
  0
LINE
  8
0
 10
23.8
 11
32.8
 20
37
 21
37
  0
LINE
  8
0
 10
32.8
 11
32.8
 20
37
 21
28
  0
LINE
  8
0
 10
32.8
 11
23.8
 20
28
 21
28
  0
LINE
  8
0
 10
23.8
 11
23.8
 20
45
 21
54
  0
LINE
  8
0
 10
23.8
 11
32.8
 20
54
 21
54
  0
LINE
  8
0
 10
32.8
 11
32.8
 20
54
 21
45
  0
LINE
  8
0
 10
32.8
 11
23.8
 20
45
 21
45
  0
LINE
  8
0
 10
23.8
 11
23.8
 20
57
 21
66
  0
LINE
  8
0
 10
23.8
 11
32.8
 20
66
 21
66
  0
LINE
  8
0
 10
32.8
 11
32.8
 20
66
 21
57
  0
LINE
  8
0
 10
32.8
 11
23.8
 20
57
 21
57
  0
LINE
  8
0
 10
23.8
 11
23.8
 20
69
 21
78
  0
LINE
  8
0
 10
23.8
 11
32.8
 20
78
 21
78
  0
LINE
  8
0
 10
32.8
 11
32.8
 20
78
 21
69
  0
LINE
  8
0
 10
32.8
 11
23.8
 20
69
 21
69
  0
LINE
  8
0
 10
23.8
 11
23.8
 20
86
 21
95
  0
LINE
  8
0
 10
23.8
 11
32.8
 20
95
 21
95
  0
LINE
  8
0
 10
32.8
 11
32.8
 20
95
 21
86
  0
LINE
  8
0
 10
32.8
 11
23.8
 20
86
 21
86
  0
LINE
  8
0
 10
23.8
 11
23.8
 20
98
 21
107
  0
LINE
  8
0
 10
23.8
 11
32.8
 20
107
 21
107
  0
LINE
  8
0
 10
32.8
 11
32.8
 20
107
 21
98
  0
LINE
  8
0
 10
32.8
 11
23.8
 20
98
 21
98
  0
LINE
  8
0
 10
23.8
 11
23.8
 20
110
 21
119
  0
LINE
  8
0
 10
23.8
 11
32.8
 20
119
 21
119
  0
LINE
  8
0
 10
32.8
 11
32.8
 20
119
 21
110
  0
LINE
  8
0
 10
32.8
 11
23.8
 20
110
 21
110
  0
LINE
  8
0
 10
34.7
 11
34.7
 20
4
 21
13
  0
LINE
  8
0
 10
34.7
 11
43.7
 20
13
 21
13
  0
LINE
  8
0
 10
43.7
 11
43.7
 20
13
 21
4
  0
LINE
  8
0
 10
43.7
 11
34.7
 20
4
 21
4
  0
LINE
  8
0
 10
34.7
 11
34.7
 20
16
 21
25
  0
LINE
  8
0
 10
34.7
 11
43.7
 20
25
 21
25
  0
LINE
  8
0
 10
43.7
 11
43.7
 20
25
 21
16
  0
LINE
  8
0
 10
43.7
 11
34.7
 20
16
 21
16
  0
LINE
  8
0
 10
34.7
 11
34.7
 20
28
 21
37
  0
LINE
  8
0
 10
34.7
 11
43.7
 20
37
 21
37
  0
LINE
  8
0
 10
43.7
 11
43.7
 20
37
 21
28
  0
LINE
  8
0
 10
43.7
 11
34.7
 20
28
 21
28
  0
LINE
  8
0
 10
34.7
 11
34.7
 20
45
 21
54
  0
LINE
  8
0
 10
34.7
 11
43.7
 20
54
 21
54
  0
LINE
  8
0
 10
43.7
 11
43.7
 20
54
 21
45
  0
LINE
  8
0
 10
43.7
 11
34.7
 20
45
 21
45
  0
LINE
  8
0
 10
34.7
 11
34.7
 20
57
 21
66
  0
LINE
  8
0
 10
34.7
 11
43.7
 20
66
 21
66
  0
LINE
  8
0
 10
43.7
 11
43.7
 20
66
 21
57
  0
LINE
  8
0
 10
43.7
 11
34.7
 20
57
 21
57
  0
LINE
  8
0
 10
34.7
 11
34.7
 20
69
 21
78
  0
LINE
  8
0
 10
34.7
 11
43.7
 20
78
 21
78
  0
LINE
  8
0
 10
43.7
 11
43.7
 20
78
 21
69
  0
LINE
  8
0
 10
43.7
 11
34.7
 20
69
 21
69
  0
LINE
  8
0
 10
34.7
 11
34.7
 20
86
 21
95
  0
LINE
  8
0
 10
34.7
 11
43.7
 20
95
 21
95
  0
LINE
  8
0
 10
43.7
 11
43.7
 20
95
 21
86
  0
LINE
  8
0
 10
43.7
 11
34.7
 20
86
 21
86
  0
LINE
  8
0
 10
34.7
 11
34.7
 20
98
 21
107
  0
LINE
  8
0
 10
34.7
 11
43.7
 20
107
 21
107
  0
LINE
  8
0
 10
43.7
 11
43.7
 20
107
 21
98
  0
LINE
  8
0
 10
43.7
 11
34.7
 20
98
 21
98
  0
LINE
  8
0
 10
34.7
 11
34.7
 20
110
 21
119
  0
LINE
  8
0
 10
34.7
 11
43.7
 20
119
 21
119
  0
LINE
  8
0
 10
43.7
 11
43.7
 20
119
 21
110
  0
LINE
  8
0
 10
43.7
 11
34.7
 20
110
 21
110
  0
LINE
  8
0
 10
45.6
 11
45.6
 20
4
 21
13
  0
LINE
  8
0
 10
45.6
 11
54.6
 20
13
 21
13
  0
LINE
  8
0
 10
54.6
 11
54.6
 20
13
 21
4
  0
LINE
  8
0
 10
54.6
 11
45.6
 20
4
 21
4
  0
LINE
  8
0
 10
45.6
 11
45.6
 20
16
 21
25
  0
LINE
  8
0
 10
45.6
 11
54.6
 20
25
 21
25
  0
LINE
  8
0
 10
54.6
 11
54.6
 20
25
 21
16
  0
LINE
  8
0
 10
54.6
 11
45.6
 20
16
 21
16
  0
LINE
  8
0
 10
45.6
 11
45.6
 20
28
 21
37
  0
LINE
  8
0
 10
45.6
 11
54.6
 20
37
 21
37
  0
LINE
  8
0
 10
54.6
 11
54.6
 20
37
 21
28
  0
LINE
  8
0
 10
54.6
 11
45.6
 20
28
 21
28
  0
LINE
  8
0
 10
45.6
 11
45.6
 20
45
 21
54
  0
LINE
  8
0
 10
45.6
 11
54.6
 20
54
 21
54
  0
LINE
  8
0
 10
54.6
 11
54.6
 20
54
 21
45
  0
LINE
  8
0
 10
54.6
 11
45.6
 20
45
 21
45
  0
LINE
  8
0
 10
45.6
 11
45.6
 20
57
 21
66
  0
LINE
  8
0
 10
45.6
 11
54.6
 20
66
 21
66
  0
LINE
  8
0
 10
54.6
 11
54.6
 20
66
 21
57
  0
LINE
  8
0
 10
54.6
 11
45.6
 20
57
 21
57
  0
LINE
  8
0
 10
45.6
 11
45.6
 20
69
 21
78
  0
LINE
  8
0
 10
45.6
 11
54.6
 20
78
 21
78
  0
LINE
  8
0
 10
54.6
 11
54.6
 20
78
 21
69
  0
LINE
  8
0
 10
54.6
 11
45.6
 20
69
 21
69
  0
LINE
  8
0
 10
45.6
 11
45.6
 20
86
 21
95
  0
LINE
  8
0
 10
45.6
 11
54.6
 20
95
 21
95
  0
LINE
  8
0
 10
54.6
 11
54.6
 20
95
 21
86
  0
LINE
  8
0
 10
54.6
 11
45.6
 20
86
 21
86
  0
LINE
  8
0
 10
45.6
 11
45.6
 20
98
 21
107
  0
LINE
  8
0
 10
45.6
 11
54.6
 20
107
 21
107
  0
LINE
  8
0
 10
54.6
 11
54.6
 20
107
 21
98
  0
LINE
  8
0
 10
54.6
 11
45.6
 20
98
 21
98
  0
LINE
  8
0
 10
45.6
 11
45.6
 20
110
 21
119
  0
LINE
  8
0
 10
45.6
 11
54.6
 20
119
 21
119
  0
LINE
  8
0
 10
54.6
 11
54.6
 20
119
 21
110
  0
LINE
  8
0
 10
54.6
 11
45.6
 20
110
 21
110
  0
LINE
  8
0
 10
56.5
 11
56.5
 20
4
 21
13
  0
LINE
  8
0
 10
56.5
 11
65.5
 20
13
 21
13
  0
LINE
  8
0
 10
65.5
 11
65.5
 20
13
 21
4
  0
LINE
  8
0
 10
65.5
 11
56.5
 20
4
 21
4
  0
LINE
  8
0
 10
56.5
 11
56.5
 20
16
 21
25
  0
LINE
  8
0
 10
56.5
 11
65.5
 20
25
 21
25
  0
LINE
  8
0
 10
65.5
 11
65.5
 20
25
 21
16
  0
LINE
  8
0
 10
65.5
 11
56.5
 20
16
 21
16
  0
LINE
  8
0
 10
56.5
 11
56.5
 20
28
 21
37
  0
LINE
  8
0
 10
56.5
 11
65.5
 20
37
 21
37
  0
LINE
  8
0
 10
65.5
 11
65.5
 20
37
 21
28
  0
LINE
  8
0
 10
65.5
 11
56.5
 20
28
 21
28
  0
LINE
  8
0
 10
56.5
 11
56.5
 20
45
 21
54
  0
LINE
  8
0
 10
56.5
 11
65.5
 20
54
 21
54
  0
LINE
  8
0
 10
65.5
 11
65.5
 20
54
 21
45
  0
LINE
  8
0
 10
65.5
 11
56.5
 20
45
 21
45
  0
LINE
  8
0
 10
56.5
 11
56.5
 20
57
 21
66
  0
LINE
  8
0
 10
56.5
 11
65.5
 20
66
 21
66
  0
LINE
  8
0
 10
65.5
 11
65.5
 20
66
 21
57
  0
LINE
  8
0
 10
65.5
 11
56.5
 20
57
 21
57
  0
LINE
  8
0
 10
56.5
 11
56.5
 20
69
 21
78
  0
LINE
  8
0
 10
56.5
 11
65.5
 20
78
 21
78
  0
LINE
  8
0
 10
65.5
 11
65.5
 20
78
 21
69
  0
LINE
  8
0
 10
65.5
 11
56.5
 20
69
 21
69
  0
LINE
  8
0
 10
56.5
 11
56.5
 20
86
 21
95
  0
LINE
  8
0
 10
56.5
 11
65.5
 20
95
 21
95
  0
LINE
  8
0
 10
65.5
 11
65.5
 20
95
 21
86
  0
LINE
  8
0
 10
65.5
 11
56.5
 20
86
 21
86
  0
LINE
  8
0
 10
56.5
 11
56.5
 20
98
 21
107
  0
LINE
  8
0
 10
56.5
 11
65.5
 20
107
 21
107
  0
LINE
  8
0
 10
65.5
 11
65.5
 20
107
 21
98
  0
LINE
  8
0
 10
65.5
 11
56.5
 20
98
 21
98
  0
LINE
  8
0
 10
56.5
 11
56.5
 20
110
 21
119
  0
LINE
  8
0
 10
56.5
 11
65.5
 20
119
 21
119
  0
LINE
  8
0
 10
65.5
 11
65.5
 20
119
 21
110
  0
LINE
  8
0
 10
65.5
 11
56.5
 20
110
 21
110
  0
LINE
  8
0
 10
67.4
 11
67.4
 20
4
 21
13
  0
LINE
  8
0
 10
67.4
 11
76.4
 20
13
 21
13
  0
LINE
  8
0
 10
76.4
 11
76.4
 20
13
 21
4
  0
LINE
  8
0
 10
76.4
 11
67.4
 20
4
 21
4
  0
LINE
  8
0
 10
67.4
 11
67.4
 20
16
 21
25
  0
LINE
  8
0
 10
67.4
 11
76.4
 20
25
 21
25
  0
LINE
  8
0
 10
76.4
 11
76.4
 20
25
 21
16
  0
LINE
  8
0
 10
76.4
 11
67.4
 20
16
 21
16
  0
LINE
  8
0
 10
67.4
 11
67.4
 20
28
 21
37
  0
LINE
  8
0
 10
67.4
 11
76.4
 20
37
 21
37
  0
LINE
  8
0
 10
76.4
 11
76.4
 20
37
 21
28
  0
LINE
  8
0
 10
76.4
 11
67.4
 20
28
 21
28
  0
LINE
  8
0
 10
67.4
 11
67.4
 20
45
 21
54
  0
LINE
  8
0
 10
67.4
 11
76.4
 20
54
 21
54
  0
LINE
  8
0
 10
76.4
 11
76.4
 20
54
 21
45
  0
LINE
  8
0
 10
76.4
 11
67.4
 20
45
 21
45
  0
LINE
  8
0
 10
67.4
 11
67.4
 20
57
 21
66
  0
LINE
  8
0
 10
67.4
 11
76.4
 20
66
 21
66
  0
LINE
  8
0
 10
76.4
 11
76.4
 20
66
 21
57
  0
LINE
  8
0
 10
76.4
 11
67.4
 20
57
 21
57
  0
LINE
  8
0
 10
67.4
 11
67.4
 20
69
 21
78
  0
LINE
  8
0
 10
67.4
 11
76.4
 20
78
 21
78
  0
LINE
  8
0
 10
76.4
 11
76.4
 20
78
 21
69
  0
LINE
  8
0
 10
76.4
 11
67.4
 20
69
 21
69
  0
LINE
  8
0
 10
67.4
 11
67.4
 20
86
 21
95
  0
LINE
  8
0
 10
67.4
 11
76.4
 20
95
 21
95
  0
LINE
  8
0
 10
76.4
 11
76.4
 20
95
 21
86
  0
LINE
  8
0
 10
76.4
 11
67.4
 20
86
 21
86
  0
LINE
  8
0
 10
67.4
 11
67.4
 20
98
 21
107
  0
LINE
  8
0
 10
67.4
 11
76.4
 20
107
 21
107
  0
LINE
  8
0
 10
76.4
 11
76.4
 20
107
 21
98
  0
LINE
  8
0
 10
76.4
 11
67.4
 20
98
 21
98
  0
LINE
  8
0
 10
67.4
 11
67.4
 20
110
 21
119
  0
LINE
  8
0
 10
67.4
 11
76.4
 20
119
 21
119
  0
LINE
  8
0
 10
76.4
 11
76.4
 20
119
 21
110
  0
LINE
  8
0
 10
76.4
 11
67.4
 20
110
 21
110
  0
LINE
  8
0
 10
78.3
 11
78.3
 20
4
 21
13
  0
LINE
  8
0
 10
78.3
 11
87.3
 20
13
 21
13
  0
LINE
  8
0
 10
87.3
 11
87.3
 20
13
 21
4
  0
LINE
  8
0
 10
87.3
 11
78.3
 20
4
 21
4
  0
LINE
  8
0
 10
78.3
 11
78.3
 20
16
 21
25
  0
LINE
  8
0
 10
78.3
 11
87.3
 20
25
 21
25
  0
LINE
  8
0
 10
87.3
 11
87.3
 20
25
 21
16
  0
LINE
  8
0
 10
87.3
 11
78.3
 20
16
 21
16
  0
LINE
  8
0
 10
78.3
 11
78.3
 20
28
 21
37
  0
LINE
  8
0
 10
78.3
 11
87.3
 20
37
 21
37
  0
LINE
  8
0
 10
87.3
 11
87.3
 20
37
 21
28
  0
LINE
  8
0
 10
87.3
 11
78.3
 20
28
 21
28
  0
LINE
  8
0
 10
78.3
 11
78.3
 20
45
 21
54
  0
LINE
  8
0
 10
78.3
 11
87.3
 20
54
 21
54
  0
LINE
  8
0
 10
87.3
 11
87.3
 20
54
 21
45
  0
LINE
  8
0
 10
87.3
 11
78.3
 20
45
 21
45
  0
LINE
  8
0
 10
78.3
 11
78.3
 20
57
 21
66
  0
LINE
  8
0
 10
78.3
 11
87.3
 20
66
 21
66
  0
LINE
  8
0
 10
87.3
 11
87.3
 20
66
 21
57
  0
LINE
  8
0
 10
87.3
 11
78.3
 20
57
 21
57
  0
LINE
  8
0
 10
78.3
 11
78.3
 20
69
 21
78
  0
LINE
  8
0
 10
78.3
 11
87.3
 20
78
 21
78
  0
LINE
  8
0
 10
87.3
 11
87.3
 20
78
 21
69
  0
LINE
  8
0
 10
87.3
 11
78.3
 20
69
 21
69
  0
LINE
  8
0
 10
78.3
 11
78.3
 20
86
 21
95
  0
LINE
  8
0
 10
78.3
 11
87.3
 20
95
 21
95
  0
LINE
  8
0
 10
87.3
 11
87.3
 20
95
 21
86
  0
LINE
  8
0
 10
87.3
 11
78.3
 20
86
 21
86
  0
LINE
  8
0
 10
78.3
 11
78.3
 20
98
 21
107
  0
LINE
  8
0
 10
78.3
 11
87.3
 20
107
 21
107
  0
LINE
  8
0
 10
87.3
 11
87.3
 20
107
 21
98
  0
LINE
  8
0
 10
87.3
 11
78.3
 20
98
 21
98
  0
LINE
  8
0
 10
78.3
 11
78.3
 20
110
 21
119
  0
LINE
  8
0
 10
78.3
 11
87.3
 20
119
 21
119
  0
LINE
  8
0
 10
87.3
 11
87.3
 20
119
 21
110
  0
LINE
  8
0
 10
87.3
 11
78.3
 20
110
 21
110
  0
LINE
  8
0
 10
89.2
 11
89.2
 20
4
 21
13
  0
LINE
  8
0
 10
89.2
 11
98.2
 20
13
 21
13
  0
LINE
  8
0
 10
98.2
 11
98.2
 20
13
 21
4
  0
LINE
  8
0
 10
98.2
 11
89.2
 20
4
 21
4
  0
LINE
  8
0
 10
89.2
 11
89.2
 20
16
 21
25
  0
LINE
  8
0
 10
89.2
 11
98.2
 20
25
 21
25
  0
LINE
  8
0
 10
98.2
 11
98.2
 20
25
 21
16
  0
LINE
  8
0
 10
98.2
 11
89.2
 20
16
 21
16
  0
LINE
  8
0
 10
89.2
 11
89.2
 20
28
 21
37
  0
LINE
  8
0
 10
89.2
 11
98.2
 20
37
 21
37
  0
LINE
  8
0
 10
98.2
 11
98.2
 20
37
 21
28
  0
LINE
  8
0
 10
98.2
 11
89.2
 20
28
 21
28
  0
LINE
  8
0
 10
89.2
 11
89.2
 20
45
 21
54
  0
LINE
  8
0
 10
89.2
 11
98.2
 20
54
 21
54
  0
LINE
  8
0
 10
98.2
 11
98.2
 20
54
 21
45
  0
LINE
  8
0
 10
98.2
 11
89.2
 20
45
 21
45
  0
LINE
  8
0
 10
89.2
 11
89.2
 20
57
 21
66
  0
LINE
  8
0
 10
89.2
 11
98.2
 20
66
 21
66
  0
LINE
  8
0
 10
98.2
 11
98.2
 20
66
 21
57
  0
LINE
  8
0
 10
98.2
 11
89.2
 20
57
 21
57
  0
LINE
  8
0
 10
89.2
 11
89.2
 20
69
 21
78
  0
LINE
  8
0
 10
89.2
 11
98.2
 20
78
 21
78
  0
LINE
  8
0
 10
98.2
 11
98.2
 20
78
 21
69
  0
LINE
  8
0
 10
98.2
 11
89.2
 20
69
 21
69
  0
LINE
  8
0
 10
89.2
 11
89.2
 20
86
 21
95
  0
LINE
  8
0
 10
89.2
 11
98.2
 20
95
 21
95
  0
LINE
  8
0
 10
98.2
 11
98.2
 20
95
 21
86
  0
LINE
  8
0
 10
98.2
 11
89.2
 20
86
 21
86
  0
LINE
  8
0
 10
89.2
 11
89.2
 20
98
 21
107
  0
LINE
  8
0
 10
89.2
 11
98.2
 20
107
 21
107
  0
LINE
  8
0
 10
98.2
 11
98.2
 20
107
 21
98
  0
LINE
  8
0
 10
98.2
 11
89.2
 20
98
 21
98
  0
LINE
  8
0
 10
89.2
 11
89.2
 20
110
 21
119
  0
LINE
  8
0
 10
89.2
 11
98.2
 20
119
 21
119
  0
LINE
  8
0
 10
98.2
 11
98.2
 20
119
 21
110
  0
LINE
  8
0
 10
98.2
 11
89.2
 20
110
 21
110
  0
LINE
  8
0
 10
100.1
 11
100.1
 20
4
 21
13
  0
LINE
  8
0
 10
100.1
 11
109.1
 20
13
 21
13
  0
LINE
  8
0
 10
109.1
 11
109.1
 20
13
 21
4
  0
LINE
  8
0
 10
109.1
 11
100.1
 20
4
 21
4
  0
LINE
  8
0
 10
100.1
 11
100.1
 20
16
 21
25
  0
LINE
  8
0
 10
100.1
 11
109.1
 20
25
 21
25
  0
LINE
  8
0
 10
109.1
 11
109.1
 20
25
 21
16
  0
LINE
  8
0
 10
109.1
 11
100.1
 20
16
 21
16
  0
LINE
  8
0
 10
100.1
 11
100.1
 20
28
 21
37
  0
LINE
  8
0
 10
100.1
 11
109.1
 20
37
 21
37
  0
LINE
  8
0
 10
109.1
 11
109.1
 20
37
 21
28
  0
LINE
  8
0
 10
109.1
 11
100.1
 20
28
 21
28
  0
LINE
  8
0
 10
100.1
 11
100.1
 20
45
 21
54
  0
LINE
  8
0
 10
100.1
 11
109.1
 20
54
 21
54
  0
LINE
  8
0
 10
109.1
 11
109.1
 20
54
 21
45
  0
LINE
  8
0
 10
109.1
 11
100.1
 20
45
 21
45
  0
LINE
  8
0
 10
100.1
 11
100.1
 20
57
 21
66
  0
LINE
  8
0
 10
100.1
 11
109.1
 20
66
 21
66
  0
LINE
  8
0
 10
109.1
 11
109.1
 20
66
 21
57
  0
LINE
  8
0
 10
109.1
 11
100.1
 20
57
 21
57
  0
LINE
  8
0
 10
100.1
 11
100.1
 20
69
 21
78
  0
LINE
  8
0
 10
100.1
 11
109.1
 20
78
 21
78
  0
LINE
  8
0
 10
109.1
 11
109.1
 20
78
 21
69
  0
LINE
  8
0
 10
109.1
 11
100.1
 20
69
 21
69
  0
LINE
  8
0
 10
100.1
 11
100.1
 20
86
 21
95
  0
LINE
  8
0
 10
100.1
 11
109.1
 20
95
 21
95
  0
LINE
  8
0
 10
109.1
 11
109.1
 20
95
 21
86
  0
LINE
  8
0
 10
109.1
 11
100.1
 20
86
 21
86
  0
LINE
  8
0
 10
100.1
 11
100.1
 20
98
 21
107
  0
LINE
  8
0
 10
100.1
 11
109.1
 20
107
 21
107
  0
LINE
  8
0
 10
109.1
 11
109.1
 20
107
 21
98
  0
LINE
  8
0
 10
109.1
 11
100.1
 20
98
 21
98
  0
LINE
  8
0
 10
100.1
 11
100.1
 20
110
 21
119
  0
LINE
  8
0
 10
100.1
 11
109.1
 20
119
 21
119
  0
LINE
  8
0
 10
109.1
 11
109.1
 20
119
 21
110
  0
LINE
  8
0
 10
109.1
 11
100.1
 20
110
 21
110
  0
LINE
  8
0
 10
111
 11
111
 20
4
 21
13
  0
LINE
  8
0
 10
111
 11
120
 20
13
 21
13
  0
LINE
  8
0
 10
120
 11
120
 20
13
 21
4
  0
LINE
  8
0
 10
120
 11
111
 20
4
 21
4
  0
LINE
  8
0
 10
111
 11
111
 20
16
 21
25
  0
LINE
  8
0
 10
111
 11
120
 20
25
 21
25
  0
LINE
  8
0
 10
120
 11
120
 20
25
 21
16
  0
LINE
  8
0
 10
120
 11
111
 20
16
 21
16
  0
LINE
  8
0
 10
111
 11
111
 20
28
 21
37
  0
LINE
  8
0
 10
111
 11
120
 20
37
 21
37
  0
LINE
  8
0
 10
120
 11
120
 20
37
 21
28
  0
LINE
  8
0
 10
120
 11
111
 20
28
 21
28
  0
LINE
  8
0
 10
111
 11
111
 20
45
 21
54
  0
LINE
  8
0
 10
111
 11
120
 20
54
 21
54
  0
LINE
  8
0
 10
120
 11
120
 20
54
 21
45
  0
LINE
  8
0
 10
120
 11
111
 20
45
 21
45
  0
LINE
  8
0
 10
111
 11
111
 20
57
 21
66
  0
LINE
  8
0
 10
111
 11
120
 20
66
 21
66
  0
LINE
  8
0
 10
120
 11
120
 20
66
 21
57
  0
LINE
  8
0
 10
120
 11
111
 20
57
 21
57
  0
LINE
  8
0
 10
111
 11
111
 20
69
 21
78
  0
LINE
  8
0
 10
111
 11
120
 20
78
 21
78
  0
LINE
  8
0
 10
120
 11
120
 20
78
 21
69
  0
LINE
  8
0
 10
120
 11
111
 20
69
 21
69
  0
LINE
  8
0
 10
111
 11
111
 20
86
 21
95
  0
LINE
  8
0
 10
111
 11
120
 20
95
 21
95
  0
LINE
  8
0
 10
120
 11
120
 20
95
 21
86
  0
LINE
  8
0
 10
120
 11
111
 20
86
 21
86
  0
LINE
  8
0
 10
111
 11
111
 20
98
 21
107
  0
LINE
  8
0
 10
111
 11
120
 20
107
 21
107
  0
LINE
  8
0
 10
120
 11
120
 20
107
 21
98
  0
LINE
  8
0
 10
120
 11
111
 20
98
 21
98
  0
LINE
  8
0
 10
111
 11
111
 20
110
 21
119
  0
LINE
  8
0
 10
111
 11
120
 20
119
 21
119
  0
LINE
  8
0
 10
120
 11
120
 20
119
 21
110
  0
LINE
  8
0
 10
120
 11
111
 20
110
 21
110
  0
LINE
  8
0
 10
121.9
 11
121.9
 20
4
 21
13
  0
LINE
  8
0
 10
121.9
 11
130.9
 20
13
 21
13
  0
LINE
  8
0
 10
130.9
 11
130.9
 20
13
 21
4
  0
LINE
  8
0
 10
130.9
 11
121.9
 20
4
 21
4
  0
LINE
  8
0
 10
121.9
 11
121.9
 20
16
 21
25
  0
LINE
  8
0
 10
121.9
 11
130.9
 20
25
 21
25
  0
LINE
  8
0
 10
130.9
 11
130.9
 20
25
 21
16
  0
LINE
  8
0
 10
130.9
 11
121.9
 20
16
 21
16
  0
LINE
  8
0
 10
121.9
 11
121.9
 20
28
 21
37
  0
LINE
  8
0
 10
121.9
 11
130.9
 20
37
 21
37
  0
LINE
  8
0
 10
130.9
 11
130.9
 20
37
 21
28
  0
LINE
  8
0
 10
130.9
 11
121.9
 20
28
 21
28
  0
LINE
  8
0
 10
121.9
 11
121.9
 20
45
 21
54
  0
LINE
  8
0
 10
121.9
 11
130.9
 20
54
 21
54
  0
LINE
  8
0
 10
130.9
 11
130.9
 20
54
 21
45
  0
LINE
  8
0
 10
130.9
 11
121.9
 20
45
 21
45
  0
LINE
  8
0
 10
121.9
 11
121.9
 20
57
 21
66
  0
LINE
  8
0
 10
121.9
 11
130.9
 20
66
 21
66
  0
LINE
  8
0
 10
130.9
 11
130.9
 20
66
 21
57
  0
LINE
  8
0
 10
130.9
 11
121.9
 20
57
 21
57
  0
LINE
  8
0
 10
121.9
 11
121.9
 20
69
 21
78
  0
LINE
  8
0
 10
121.9
 11
130.9
 20
78
 21
78
  0
LINE
  8
0
 10
130.9
 11
130.9
 20
78
 21
69
  0
LINE
  8
0
 10
130.9
 11
121.9
 20
69
 21
69
  0
LINE
  8
0
 10
121.9
 11
121.9
 20
86
 21
95
  0
LINE
  8
0
 10
121.9
 11
130.9
 20
95
 21
95
  0
LINE
  8
0
 10
130.9
 11
130.9
 20
95
 21
86
  0
LINE
  8
0
 10
130.9
 11
121.9
 20
86
 21
86
  0
LINE
  8
0
 10
121.9
 11
121.9
 20
98
 21
107
  0
LINE
  8
0
 10
121.9
 11
130.9
 20
107
 21
107
  0
LINE
  8
0
 10
130.9
 11
130.9
 20
107
 21
98
  0
LINE
  8
0
 10
130.9
 11
121.9
 20
98
 21
98
  0
LINE
  8
0
 10
121.9
 11
121.9
 20
110
 21
119
  0
LINE
  8
0
 10
121.9
 11
130.9
 20
119
 21
119
  0
LINE
  8
0
 10
130.9
 11
130.9
 20
119
 21
110
  0
LINE
  8
0
 10
130.9
 11
121.9
 20
110
 21
110
  0
ENDSEC
  0
SECTION
  2
OBJECTS
  0
DICTIONARY
  0
ENDSEC
  0
EOF
