solid OpenSCAD_Model
  facet normal 1 -0 0
    outer loop
      vertex 109.5 35.3504 4
      vertex 109.5 56.14 0
      vertex 109.5 56.14 4
    endloop
  endfacet
  facet normal 1 -0 0
    outer loop
      vertex 109.5 34.9279 3.61956
      vertex 109.5 56.14 0
      vertex 109.5 35.3504 4
    endloop
  endfacet
  facet normal 1 -0 0
    outer loop
      vertex 109.5 34.3779 3.18983
      vertex 109.5 56.14 0
      vertex 109.5 34.9279 3.61956
    endloop
  endfacet
  facet normal 1 -0 0
    outer loop
      vertex 109.5 33.7992 2.79952
      vertex 109.5 56.14 0
      vertex 109.5 34.3779 3.18983
    endloop
  endfacet
  facet normal 1 -0 0
    outer loop
      vertex 109.5 33.1947 2.45052
      vertex 109.5 56.14 0
      vertex 109.5 33.7992 2.79952
    endloop
  endfacet
  facet normal 1 -0 0
    outer loop
      vertex 109.5 32.5674 2.14454
      vertex 109.5 56.14 0
      vertex 109.5 33.1947 2.45052
    endloop
  endfacet
  facet normal 1 -0 0
    outer loop
      vertex 109.5 31.9202 1.88307
      vertex 109.5 56.14 0
      vertex 109.5 32.5674 2.14454
    endloop
  endfacet
  facet normal 1 -0 0
    outer loop
      vertex 109.5 31.2564 1.66738
      vertex 109.5 56.14 0
      vertex 109.5 31.9202 1.88307
    endloop
  endfacet
  facet normal 1 -0 0
    outer loop
      vertex 109.5 30.5791 1.49852
      vertex 109.5 56.14 0
      vertex 109.5 31.2564 1.66738
    endloop
  endfacet
  facet normal 1 -0 0
    outer loop
      vertex 109.5 29.8917 1.37732
      vertex 109.5 56.14 0
      vertex 109.5 30.5791 1.49852
    endloop
  endfacet
  facet normal 1 -0 0
    outer loop
      vertex 109.5 29.1976 1.30436
      vertex 109.5 56.14 0
      vertex 109.5 29.8917 1.37732
    endloop
  endfacet
  facet normal 1 -0 0
    outer loop
      vertex 109.5 28.5 1.28
      vertex 109.5 56.14 0
      vertex 109.5 29.1976 1.30436
    endloop
  endfacet
  facet normal 1 0 0
    outer loop
      vertex 109.5 0 0
      vertex 109.5 28.5 1.28
      vertex 109.5 27.8024 1.30436
    endloop
  endfacet
  facet normal 1 0 0
    outer loop
      vertex 109.5 0 0
      vertex 109.5 21.6496 4
      vertex 109.5 0 4
    endloop
  endfacet
  facet normal 1 0 0
    outer loop
      vertex 109.5 21.6496 4
      vertex 109.5 0 0
      vertex 109.5 22.0721 3.61956
    endloop
  endfacet
  facet normal 1 0 0
    outer loop
      vertex 109.5 22.0721 3.61956
      vertex 109.5 0 0
      vertex 109.5 22.6221 3.18983
    endloop
  endfacet
  facet normal 1 0 0
    outer loop
      vertex 109.5 22.6221 3.18983
      vertex 109.5 0 0
      vertex 109.5 23.2008 2.79952
    endloop
  endfacet
  facet normal 1 0 0
    outer loop
      vertex 109.5 23.2008 2.79952
      vertex 109.5 0 0
      vertex 109.5 23.8053 2.45052
    endloop
  endfacet
  facet normal 1 0 0
    outer loop
      vertex 109.5 23.8053 2.45052
      vertex 109.5 0 0
      vertex 109.5 24.4326 2.14454
    endloop
  endfacet
  facet normal 1 0 0
    outer loop
      vertex 109.5 24.4326 2.14454
      vertex 109.5 0 0
      vertex 109.5 25.0798 1.88307
    endloop
  endfacet
  facet normal 1 0 0
    outer loop
      vertex 109.5 25.0798 1.88307
      vertex 109.5 0 0
      vertex 109.5 25.7436 1.66738
    endloop
  endfacet
  facet normal 1 0 0
    outer loop
      vertex 109.5 25.7436 1.66738
      vertex 109.5 0 0
      vertex 109.5 26.4209 1.49852
    endloop
  endfacet
  facet normal 1 0 0
    outer loop
      vertex 109.5 26.4209 1.49852
      vertex 109.5 0 0
      vertex 109.5 27.1083 1.37732
    endloop
  endfacet
  facet normal 1 0 0
    outer loop
      vertex 109.5 28.5 1.28
      vertex 109.5 0 0
      vertex 109.5 56.14 0
    endloop
  endfacet
  facet normal 1 0 0
    outer loop
      vertex 109.5 27.1083 1.37732
      vertex 109.5 0 0
      vertex 109.5 27.8024 1.30436
    endloop
  endfacet
  facet normal 0.999389 -0.0349526 0
    outer loop
      vertex 109.498 -0.0599899 4
      vertex 109.5 0 0
      vertex 109.5 0 4
    endloop
  endfacet
  facet normal 0.999389 -0.0349526 0
    outer loop
      vertex 109.5 0 0
      vertex 109.498 -0.0599899 4
      vertex 109.498 -0.0599899 0
    endloop
  endfacet
  facet normal -1 0 0
    outer loop
      vertex -0.86 56.14 0
      vertex -0.86 35.3504 4
      vertex -0.86 56.14 4
    endloop
  endfacet
  facet normal -1 0 0
    outer loop
      vertex -0.86 56.14 0
      vertex -0.86 34.9279 3.61956
      vertex -0.86 35.3504 4
    endloop
  endfacet
  facet normal -1 0 0
    outer loop
      vertex -0.86 56.14 0
      vertex -0.86 34.3779 3.18983
      vertex -0.86 34.9279 3.61956
    endloop
  endfacet
  facet normal -1 0 0
    outer loop
      vertex -0.86 56.14 0
      vertex -0.86 33.7992 2.79952
      vertex -0.86 34.3779 3.18983
    endloop
  endfacet
  facet normal -1 0 0
    outer loop
      vertex -0.86 56.14 0
      vertex -0.86 33.1947 2.45052
      vertex -0.86 33.7992 2.79952
    endloop
  endfacet
  facet normal -1 0 0
    outer loop
      vertex -0.86 56.14 0
      vertex -0.86 32.5674 2.14454
      vertex -0.86 33.1947 2.45052
    endloop
  endfacet
  facet normal -1 0 0
    outer loop
      vertex -0.86 56.14 0
      vertex -0.86 31.9202 1.88307
      vertex -0.86 32.5674 2.14454
    endloop
  endfacet
  facet normal -1 0 0
    outer loop
      vertex -0.86 56.14 0
      vertex -0.86 31.2564 1.66738
      vertex -0.86 31.9202 1.88307
    endloop
  endfacet
  facet normal -1 0 0
    outer loop
      vertex -0.86 56.14 0
      vertex -0.86 30.5791 1.49852
      vertex -0.86 31.2564 1.66738
    endloop
  endfacet
  facet normal -1 0 0
    outer loop
      vertex -0.86 56.14 0
      vertex -0.86 29.8917 1.37732
      vertex -0.86 30.5791 1.49852
    endloop
  endfacet
  facet normal -1 0 0
    outer loop
      vertex -0.86 56.14 0
      vertex -0.86 29.1976 1.30436
      vertex -0.86 29.8917 1.37732
    endloop
  endfacet
  facet normal -1 0 0
    outer loop
      vertex -0.86 56.14 0
      vertex -0.86 28.5 1.28
      vertex -0.86 29.1976 1.30436
    endloop
  endfacet
  facet normal -1 0 0
    outer loop
      vertex -0.86 0 0
      vertex -0.86 28.5 1.28
      vertex -0.86 56.14 0
    endloop
  endfacet
  facet normal -1 -0 0
    outer loop
      vertex -0.86 28.5 1.28
      vertex -0.86 0 0
      vertex -0.86 27.8024 1.30436
    endloop
  endfacet
  facet normal -1 0 0
    outer loop
      vertex -0.86 0 0
      vertex -0.86 27.1083 1.37732
      vertex -0.86 27.8024 1.30436
    endloop
  endfacet
  facet normal -1 0 0
    outer loop
      vertex -0.86 0 0
      vertex -0.86 26.4209 1.49852
      vertex -0.86 27.1083 1.37732
    endloop
  endfacet
  facet normal -1 0 0
    outer loop
      vertex -0.86 0 0
      vertex -0.86 25.7436 1.66738
      vertex -0.86 26.4209 1.49852
    endloop
  endfacet
  facet normal -1 0 0
    outer loop
      vertex -0.86 0 0
      vertex -0.86 25.0798 1.88307
      vertex -0.86 25.7436 1.66738
    endloop
  endfacet
  facet normal -1 0 0
    outer loop
      vertex -0.86 0 0
      vertex -0.86 24.4326 2.14454
      vertex -0.86 25.0798 1.88307
    endloop
  endfacet
  facet normal -1 0 0
    outer loop
      vertex -0.86 0 0
      vertex -0.86 23.8053 2.45052
      vertex -0.86 24.4326 2.14454
    endloop
  endfacet
  facet normal -1 0 0
    outer loop
      vertex -0.86 0 0
      vertex -0.86 23.2008 2.79952
      vertex -0.86 23.8053 2.45052
    endloop
  endfacet
  facet normal -1 0 0
    outer loop
      vertex -0.86 0 0
      vertex -0.86 22.6221 3.18983
      vertex -0.86 23.2008 2.79952
    endloop
  endfacet
  facet normal -1 0 0
    outer loop
      vertex -0.86 0 0
      vertex -0.86 22.0721 3.61956
      vertex -0.86 22.6221 3.18983
    endloop
  endfacet
  facet normal -1 0 0
    outer loop
      vertex -0.86 0 0
      vertex -0.86 21.6496 4
      vertex -0.86 22.0721 3.61956
    endloop
  endfacet
  facet normal -1 -0 0
    outer loop
      vertex -0.86 21.6496 4
      vertex -0.86 0 0
      vertex -0.86 0 4
    endloop
  endfacet
  facet normal 0 0 1
    outer loop
      vertex -0.86 0 4
      vertex 0 0 4
      vertex 0 21.6496 4
    endloop
  endfacet
  facet normal 0 -0 1
    outer loop
      vertex -0.857904 -0.0599899 4
      vertex 0 0 4
      vertex -0.86 0 4
    endloop
  endfacet
  facet normal 0 0 1
    outer loop
      vertex 0 0 4
      vertex -0.0898943 -0.855289 4
      vertex -0.0300131 -0.859476 4
    endloop
  endfacet
  facet normal 0 0 1
    outer loop
      vertex 0 0 4
      vertex -0.149337 -0.846934 4
      vertex -0.0898943 -0.855289 4
    endloop
  endfacet
  facet normal 0 0 1
    outer loop
      vertex 0 0 4
      vertex -0.208053 -0.834454 4
      vertex -0.149337 -0.846934 4
    endloop
  endfacet
  facet normal 0 0 1
    outer loop
      vertex 0 0 4
      vertex -0.265754 -0.817908 4
      vertex -0.208053 -0.834454 4
    endloop
  endfacet
  facet normal 0 0 1
    outer loop
      vertex 0 0 4
      vertex -0.322161 -0.797378 4
      vertex -0.265754 -0.817908 4
    endloop
  endfacet
  facet normal 0 0 1
    outer loop
      vertex 0 0 4
      vertex -0.376999 -0.772963 4
      vertex -0.322161 -0.797378 4
    endloop
  endfacet
  facet normal 0 0 1
    outer loop
      vertex 0 0 4
      vertex -0.429999 -0.744781 4
      vertex -0.376999 -0.772963 4
    endloop
  endfacet
  facet normal 0 0 1
    outer loop
      vertex 0 0 4
      vertex -0.480906 -0.712972 4
      vertex -0.429999 -0.744781 4
    endloop
  endfacet
  facet normal 0 0 1
    outer loop
      vertex 0 0 4
      vertex -0.529469 -0.677689 4
      vertex -0.480906 -0.712972 4
    endloop
  endfacet
  facet normal 0 0 1
    outer loop
      vertex 0 0 4
      vertex -0.575452 -0.639104 4
      vertex -0.529469 -0.677689 4
    endloop
  endfacet
  facet normal 0 0 1
    outer loop
      vertex 0 0 4
      vertex -0.618631 -0.597405 4
      vertex -0.575452 -0.639104 4
    endloop
  endfacet
  facet normal 0 0 1
    outer loop
      vertex 0 0 4
      vertex -0.658798 -0.552797 4
      vertex -0.618631 -0.597405 4
    endloop
  endfacet
  facet normal 0 0 1
    outer loop
      vertex 0 0 4
      vertex -0.695754 -0.505495 4
      vertex -0.658798 -0.552797 4
    endloop
  endfacet
  facet normal 0 0 1
    outer loop
      vertex 0 0 4
      vertex -0.729321 -0.45573 4
      vertex -0.695754 -0.505495 4
    endloop
  endfacet
  facet normal 0 0 1
    outer loop
      vertex 0 0 4
      vertex -0.759335 -0.403745 4
      vertex -0.729321 -0.45573 4
    endloop
  endfacet
  facet normal 0 0 1
    outer loop
      vertex 0 0 4
      vertex -0.785648 -0.349793 4
      vertex -0.759335 -0.403745 4
    endloop
  endfacet
  facet normal 0 0 1
    outer loop
      vertex 0 0 4
      vertex -0.808135 -0.294137 4
      vertex -0.785648 -0.349793 4
    endloop
  endfacet
  facet normal 0 0 1
    outer loop
      vertex 0 0 4
      vertex -0.826685 -0.237047 4
      vertex -0.808135 -0.294137 4
    endloop
  endfacet
  facet normal 0 0 1
    outer loop
      vertex 0 0 4
      vertex -0.841207 -0.178803 4
      vertex -0.826685 -0.237047 4
    endloop
  endfacet
  facet normal 0 0 1
    outer loop
      vertex 0 0 4
      vertex -0.85163 -0.119688 4
      vertex -0.841207 -0.178803 4
    endloop
  endfacet
  facet normal 0 0 1
    outer loop
      vertex -0.86 0 4
      vertex 0 21.6496 4
      vertex -0.86 21.6496 4
    endloop
  endfacet
  facet normal 0 0 1
    outer loop
      vertex 0 0 4
      vertex -0.857904 -0.0599899 4
      vertex -0.85163 -0.119688 4
    endloop
  endfacet
  facet normal 0 0 1
    outer loop
      vertex 108.64 0 4
      vertex 109.5 0 4
      vertex 109.5 21.6496 4
    endloop
  endfacet
  facet normal 0 0 1
    outer loop
      vertex 109.5 0 4
      vertex 108.64 0 4
      vertex 109.498 -0.0599899 4
    endloop
  endfacet
  facet normal 0 0 1
    outer loop
      vertex 109.498 -0.0599899 4
      vertex 108.64 0 4
      vertex 109.492 -0.119688 4
    endloop
  endfacet
  facet normal 0 0 1
    outer loop
      vertex 109.492 -0.119688 4
      vertex 108.64 0 4
      vertex 109.481 -0.178803 4
    endloop
  endfacet
  facet normal 0 0 1
    outer loop
      vertex 109.481 -0.178803 4
      vertex 108.64 0 4
      vertex 109.467 -0.237047 4
    endloop
  endfacet
  facet normal 0 0 1
    outer loop
      vertex 109.467 -0.237047 4
      vertex 108.64 0 4
      vertex 109.448 -0.294137 4
    endloop
  endfacet
  facet normal 0 0 1
    outer loop
      vertex 109.448 -0.294137 4
      vertex 108.64 0 4
      vertex 109.426 -0.349793 4
    endloop
  endfacet
  facet normal 0 0 1
    outer loop
      vertex 109.426 -0.349793 4
      vertex 108.64 0 4
      vertex 109.399 -0.403745 4
    endloop
  endfacet
  facet normal 0 0 1
    outer loop
      vertex 109.399 -0.403745 4
      vertex 108.64 0 4
      vertex 109.369 -0.45573 4
    endloop
  endfacet
  facet normal 0 0 1
    outer loop
      vertex 109.369 -0.45573 4
      vertex 108.64 0 4
      vertex 109.336 -0.505495 4
    endloop
  endfacet
  facet normal 0 0 1
    outer loop
      vertex 109.336 -0.505495 4
      vertex 108.64 0 4
      vertex 109.299 -0.552797 4
    endloop
  endfacet
  facet normal 0 0 1
    outer loop
      vertex 109.299 -0.552797 4
      vertex 108.64 0 4
      vertex 109.259 -0.597405 4
    endloop
  endfacet
  facet normal 0 0 1
    outer loop
      vertex 109.259 -0.597405 4
      vertex 108.64 0 4
      vertex 109.215 -0.639104 4
    endloop
  endfacet
  facet normal 0 0 1
    outer loop
      vertex 109.215 -0.639104 4
      vertex 108.64 0 4
      vertex 109.169 -0.677689 4
    endloop
  endfacet
  facet normal 0 0 1
    outer loop
      vertex 109.169 -0.677689 4
      vertex 108.64 0 4
      vertex 109.121 -0.712972 4
    endloop
  endfacet
  facet normal 0 0 1
    outer loop
      vertex 109.121 -0.712972 4
      vertex 108.64 0 4
      vertex 109.07 -0.744781 4
    endloop
  endfacet
  facet normal 0 0 1
    outer loop
      vertex 109.07 -0.744781 4
      vertex 108.64 0 4
      vertex 109.017 -0.772963 4
    endloop
  endfacet
  facet normal 0 0 1
    outer loop
      vertex 109.017 -0.772963 4
      vertex 108.64 0 4
      vertex 108.962 -0.797378 4
    endloop
  endfacet
  facet normal 0 0 1
    outer loop
      vertex 108.962 -0.797378 4
      vertex 108.64 0 4
      vertex 108.906 -0.817908 4
    endloop
  endfacet
  facet normal 0 0 1
    outer loop
      vertex 108.906 -0.817908 4
      vertex 108.64 0 4
      vertex 108.848 -0.834454 4
    endloop
  endfacet
  facet normal 0 0 1
    outer loop
      vertex 108.848 -0.834454 4
      vertex 108.64 0 4
      vertex 108.789 -0.846934 4
    endloop
  endfacet
  facet normal 0 0 1
    outer loop
      vertex 108.789 -0.846934 4
      vertex 108.64 0 4
      vertex 108.73 -0.855289 4
    endloop
  endfacet
  facet normal 0 0 1
    outer loop
      vertex 108.64 0 4
      vertex 109.5 21.6496 4
      vertex 108.64 21.6496 4
    endloop
  endfacet
  facet normal 0 0 1
    outer loop
      vertex 108.73 -0.855289 4
      vertex 108.64 0 4
      vertex 108.67 -0.859476 4
    endloop
  endfacet
  facet normal -0 0 1
    outer loop
      vertex 0 0 4
      vertex 108.67 -0.859476 4
      vertex 108.64 0 4
    endloop
  endfacet
  facet normal 0 0 1
    outer loop
      vertex 108.67 -0.859476 4
      vertex 0 0 4
      vertex -0.0300131 -0.859476 4
    endloop
  endfacet
  facet normal 0 0 1
    outer loop
      vertex 108.67 56.9995 4
      vertex 0 56.14 4
      vertex 108.64 56.14 4
    endloop
  endfacet
  facet normal -0 0 1
    outer loop
      vertex -0.0300131 56.9995 4
      vertex 0 56.14 4
      vertex 108.67 56.9995 4
    endloop
  endfacet
  facet normal -0 0 1
    outer loop
      vertex -0.0898943 56.9953 4
      vertex 0 56.14 4
      vertex -0.0300131 56.9995 4
    endloop
  endfacet
  facet normal -0 0 1
    outer loop
      vertex -0.149337 56.9869 4
      vertex 0 56.14 4
      vertex -0.0898943 56.9953 4
    endloop
  endfacet
  facet normal -0 0 1
    outer loop
      vertex -0.208053 56.9745 4
      vertex 0 56.14 4
      vertex -0.149337 56.9869 4
    endloop
  endfacet
  facet normal -0 0 1
    outer loop
      vertex -0.265754 56.9579 4
      vertex 0 56.14 4
      vertex -0.208053 56.9745 4
    endloop
  endfacet
  facet normal -0 0 1
    outer loop
      vertex -0.322161 56.9374 4
      vertex 0 56.14 4
      vertex -0.265754 56.9579 4
    endloop
  endfacet
  facet normal -0 0 1
    outer loop
      vertex -0.376999 56.913 4
      vertex 0 56.14 4
      vertex -0.322161 56.9374 4
    endloop
  endfacet
  facet normal -0 0 1
    outer loop
      vertex -0.429999 56.8848 4
      vertex 0 56.14 4
      vertex -0.376999 56.913 4
    endloop
  endfacet
  facet normal -0 0 1
    outer loop
      vertex -0.480906 56.853 4
      vertex 0 56.14 4
      vertex -0.429999 56.8848 4
    endloop
  endfacet
  facet normal -0 0 1
    outer loop
      vertex -0.529469 56.8177 4
      vertex 0 56.14 4
      vertex -0.480906 56.853 4
    endloop
  endfacet
  facet normal -0 0 1
    outer loop
      vertex -0.575452 56.7791 4
      vertex 0 56.14 4
      vertex -0.529469 56.8177 4
    endloop
  endfacet
  facet normal -0 0 1
    outer loop
      vertex -0.618631 56.7374 4
      vertex 0 56.14 4
      vertex -0.575452 56.7791 4
    endloop
  endfacet
  facet normal -0 0 1
    outer loop
      vertex -0.658798 56.6928 4
      vertex 0 56.14 4
      vertex -0.618631 56.7374 4
    endloop
  endfacet
  facet normal -0 0 1
    outer loop
      vertex -0.695754 56.6455 4
      vertex 0 56.14 4
      vertex -0.658798 56.6928 4
    endloop
  endfacet
  facet normal -0 0 1
    outer loop
      vertex -0.729321 56.5957 4
      vertex 0 56.14 4
      vertex -0.695754 56.6455 4
    endloop
  endfacet
  facet normal -0 0 1
    outer loop
      vertex -0.759335 56.5437 4
      vertex 0 56.14 4
      vertex -0.729321 56.5957 4
    endloop
  endfacet
  facet normal -0 0 1
    outer loop
      vertex -0.785648 56.4898 4
      vertex 0 56.14 4
      vertex -0.759335 56.5437 4
    endloop
  endfacet
  facet normal -0 0 1
    outer loop
      vertex -0.808135 56.4341 4
      vertex 0 56.14 4
      vertex -0.785648 56.4898 4
    endloop
  endfacet
  facet normal -0 0 1
    outer loop
      vertex -0.826685 56.377 4
      vertex 0 56.14 4
      vertex -0.808135 56.4341 4
    endloop
  endfacet
  facet normal -0 0 1
    outer loop
      vertex -0.841207 56.3188 4
      vertex 0 56.14 4
      vertex -0.826685 56.377 4
    endloop
  endfacet
  facet normal -0 0 1
    outer loop
      vertex -0.85163 56.2597 4
      vertex 0 56.14 4
      vertex -0.841207 56.3188 4
    endloop
  endfacet
  facet normal -0 0 1
    outer loop
      vertex -0.857904 56.2 4
      vertex 0 56.14 4
      vertex -0.85163 56.2597 4
    endloop
  endfacet
  facet normal 0 0 1
    outer loop
      vertex 0 56.14 4
      vertex -0.857904 56.2 4
      vertex -0.86 56.14 4
    endloop
  endfacet
  facet normal 0 0 1
    outer loop
      vertex 0 56.14 4
      vertex -0.86 56.14 4
      vertex 0 35.3504 4
    endloop
  endfacet
  facet normal 0 0 1
    outer loop
      vertex 0 35.3504 4
      vertex -0.86 56.14 4
      vertex -0.86 35.3504 4
    endloop
  endfacet
  facet normal 0 0 1
    outer loop
      vertex 108.64 56.14 4
      vertex 109.5 56.14 4
      vertex 109.498 56.2 4
    endloop
  endfacet
  facet normal 0 0 1
    outer loop
      vertex 108.64 56.14 4
      vertex 109.498 56.2 4
      vertex 109.492 56.2597 4
    endloop
  endfacet
  facet normal 0 0 1
    outer loop
      vertex 108.64 56.14 4
      vertex 109.492 56.2597 4
      vertex 109.481 56.3188 4
    endloop
  endfacet
  facet normal 0 0 1
    outer loop
      vertex 108.64 56.14 4
      vertex 109.481 56.3188 4
      vertex 109.467 56.377 4
    endloop
  endfacet
  facet normal 0 0 1
    outer loop
      vertex 108.64 56.14 4
      vertex 109.467 56.377 4
      vertex 109.448 56.4341 4
    endloop
  endfacet
  facet normal 0 0 1
    outer loop
      vertex 108.64 56.14 4
      vertex 109.448 56.4341 4
      vertex 109.426 56.4898 4
    endloop
  endfacet
  facet normal 0 0 1
    outer loop
      vertex 108.64 56.14 4
      vertex 109.426 56.4898 4
      vertex 109.399 56.5437 4
    endloop
  endfacet
  facet normal 0 0 1
    outer loop
      vertex 108.64 56.14 4
      vertex 109.399 56.5437 4
      vertex 109.369 56.5957 4
    endloop
  endfacet
  facet normal 0 0 1
    outer loop
      vertex 108.64 56.14 4
      vertex 109.369 56.5957 4
      vertex 109.336 56.6455 4
    endloop
  endfacet
  facet normal 0 0 1
    outer loop
      vertex 108.64 56.14 4
      vertex 109.336 56.6455 4
      vertex 109.299 56.6928 4
    endloop
  endfacet
  facet normal 0 0 1
    outer loop
      vertex 108.64 56.14 4
      vertex 109.299 56.6928 4
      vertex 109.259 56.7374 4
    endloop
  endfacet
  facet normal 0 0 1
    outer loop
      vertex 108.64 56.14 4
      vertex 109.259 56.7374 4
      vertex 109.215 56.7791 4
    endloop
  endfacet
  facet normal 0 0 1
    outer loop
      vertex 108.64 56.14 4
      vertex 109.215 56.7791 4
      vertex 109.169 56.8177 4
    endloop
  endfacet
  facet normal 0 0 1
    outer loop
      vertex 108.64 56.14 4
      vertex 109.169 56.8177 4
      vertex 109.121 56.853 4
    endloop
  endfacet
  facet normal 0 0 1
    outer loop
      vertex 108.64 56.14 4
      vertex 109.121 56.853 4
      vertex 109.07 56.8848 4
    endloop
  endfacet
  facet normal 0 0 1
    outer loop
      vertex 108.64 56.14 4
      vertex 109.07 56.8848 4
      vertex 109.017 56.913 4
    endloop
  endfacet
  facet normal 0 0 1
    outer loop
      vertex 108.64 56.14 4
      vertex 109.017 56.913 4
      vertex 108.962 56.9374 4
    endloop
  endfacet
  facet normal 0 0 1
    outer loop
      vertex 108.64 56.14 4
      vertex 108.962 56.9374 4
      vertex 108.906 56.9579 4
    endloop
  endfacet
  facet normal 0 0 1
    outer loop
      vertex 108.64 56.14 4
      vertex 108.906 56.9579 4
      vertex 108.848 56.9745 4
    endloop
  endfacet
  facet normal 0 0 1
    outer loop
      vertex 108.64 56.14 4
      vertex 108.848 56.9745 4
      vertex 108.789 56.9869 4
    endloop
  endfacet
  facet normal 0 0 1
    outer loop
      vertex 108.64 56.14 4
      vertex 108.789 56.9869 4
      vertex 108.73 56.9953 4
    endloop
  endfacet
  facet normal 0 0 1
    outer loop
      vertex 108.64 56.14 4
      vertex 108.73 56.9953 4
      vertex 108.67 56.9995 4
    endloop
  endfacet
  facet normal 0 0 1
    outer loop
      vertex 109.5 56.14 4
      vertex 108.64 56.14 4
      vertex 109.5 35.3504 4
    endloop
  endfacet
  facet normal 0 0 1
    outer loop
      vertex 109.5 35.3504 4
      vertex 108.64 56.14 4
      vertex 108.64 35.3504 4
    endloop
  endfacet
  facet normal -0.999391 -0.034905 0
    outer loop
      vertex -0.857904 -0.0599899 0
      vertex -0.86 0 4
      vertex -0.86 0 0
    endloop
  endfacet
  facet normal -0.999391 -0.034905 0
    outer loop
      vertex -0.86 0 4
      vertex -0.857904 -0.0599899 0
      vertex -0.857904 -0.0599899 4
    endloop
  endfacet
  facet normal -0.406716 0.913555 0
    outer loop
      vertex -0.322161 56.9374 0
      vertex -0.376999 56.913 4
      vertex -0.322161 56.9374 4
    endloop
  endfacet
  facet normal -0.406716 0.913555 0
    outer loop
      vertex -0.376999 56.913 4
      vertex -0.322161 56.9374 0
      vertex -0.376999 56.913 0
    endloop
  endfacet
  facet normal 0.999389 0.0349526 0
    outer loop
      vertex 109.5 56.14 4
      vertex 109.498 56.2 0
      vertex 109.498 56.2 4
    endloop
  endfacet
  facet normal 0.999389 0.0349526 0
    outer loop
      vertex 109.498 56.2 0
      vertex 109.5 56.14 4
      vertex 109.5 56.14 0
    endloop
  endfacet
  facet normal 0.743116 -0.669162 0
    outer loop
      vertex 109.259 -0.597405 4
      vertex 109.299 -0.552797 0
      vertex 109.299 -0.552797 4
    endloop
  endfacet
  facet normal 0.743116 -0.669162 0
    outer loop
      vertex 109.299 -0.552797 0
      vertex 109.259 -0.597405 4
      vertex 109.259 -0.597405 0
    endloop
  endfacet
  facet normal 0 -1 0
    outer loop
      vertex -0.0300131 -0.859476 0
      vertex 108.67 -0.859476 4
      vertex -0.0300131 -0.859476 4
    endloop
  endfacet
  facet normal 0 -1 -0
    outer loop
      vertex 108.67 -0.859476 4
      vertex -0.0300131 -0.859476 0
      vertex 108.67 -0.859476 0
    endloop
  endfacet
  facet normal 0.984812 0.173626 0
    outer loop
      vertex 109.492 56.2597 4
      vertex 109.481 56.3188 0
      vertex 109.481 56.3188 4
    endloop
  endfacet
  facet normal 0.984812 0.173626 0
    outer loop
      vertex 109.481 56.3188 0
      vertex 109.492 56.2597 4
      vertex 109.492 56.2597 0
    endloop
  endfacet
  facet normal 0.469468 -0.882949 0
    outer loop
      vertex 109.017 -0.772963 0
      vertex 109.07 -0.744781 4
      vertex 109.017 -0.772963 4
    endloop
  endfacet
  facet normal 0.469468 -0.882949 0
    outer loop
      vertex 109.07 -0.744781 4
      vertex 109.017 -0.772963 0
      vertex 109.07 -0.744781 0
    endloop
  endfacet
  facet normal 0.642734 -0.766089 0
    outer loop
      vertex 109.169 -0.677689 0
      vertex 109.215 -0.639104 4
      vertex 109.169 -0.677689 4
    endloop
  endfacet
  facet normal 0.642734 -0.766089 0
    outer loop
      vertex 109.215 -0.639104 4
      vertex 109.169 -0.677689 0
      vertex 109.215 -0.639104 0
    endloop
  endfacet
  facet normal -0.469475 -0.882946 0
    outer loop
      vertex -0.429999 -0.744781 0
      vertex -0.376999 -0.772963 4
      vertex -0.429999 -0.744781 4
    endloop
  endfacet
  facet normal -0.469475 -0.882946 -0
    outer loop
      vertex -0.376999 -0.772963 4
      vertex -0.429999 -0.744781 0
      vertex -0.376999 -0.772963 0
    endloop
  endfacet
  facet normal -0.52992 -0.848047 0
    outer loop
      vertex -0.480906 -0.712972 0
      vertex -0.429999 -0.744781 4
      vertex -0.480906 -0.712972 4
    endloop
  endfacet
  facet normal -0.52992 -0.848047 -0
    outer loop
      vertex -0.429999 -0.744781 4
      vertex -0.480906 -0.712972 0
      vertex -0.429999 -0.744781 0
    endloop
  endfacet
  facet normal -0.984808 -0.173648 0
    outer loop
      vertex -0.841207 -0.178803 0
      vertex -0.85163 -0.119688 4
      vertex -0.85163 -0.119688 0
    endloop
  endfacet
  facet normal -0.984808 -0.173648 0
    outer loop
      vertex -0.85163 -0.119688 4
      vertex -0.841207 -0.178803 0
      vertex -0.841207 -0.178803 4
    endloop
  endfacet
  facet normal 0 1 -0
    outer loop
      vertex 108.67 56.9995 0
      vertex -0.0300131 56.9995 4
      vertex 108.67 56.9995 4
    endloop
  endfacet
  facet normal 0 1 0
    outer loop
      vertex -0.0300131 56.9995 4
      vertex 108.67 56.9995 0
      vertex -0.0300131 56.9995 0
    endloop
  endfacet
  facet normal 0.469493 0.882936 -0
    outer loop
      vertex 109.07 56.8848 0
      vertex 109.017 56.913 4
      vertex 109.07 56.8848 4
    endloop
  endfacet
  facet normal 0.469493 0.882936 0
    outer loop
      vertex 109.017 56.913 4
      vertex 109.07 56.8848 0
      vertex 109.017 56.913 0
    endloop
  endfacet
  facet normal 0.984813 -0.173618 0
    outer loop
      vertex 109.481 -0.178803 4
      vertex 109.492 -0.119688 0
      vertex 109.492 -0.119688 4
    endloop
  endfacet
  facet normal 0.984813 -0.173618 0
    outer loop
      vertex 109.492 -0.119688 0
      vertex 109.481 -0.178803 4
      vertex 109.481 -0.178803 0
    endloop
  endfacet
  facet normal 0.898844 -0.438268 0
    outer loop
      vertex 109.399 -0.403745 4
      vertex 109.426 -0.349793 0
      vertex 109.426 -0.349793 4
    endloop
  endfacet
  facet normal 0.898844 -0.438268 0
    outer loop
      vertex 109.426 -0.349793 0
      vertex 109.399 -0.403745 4
      vertex 109.399 -0.403745 0
    endloop
  endfacet
  facet normal 0.275634 -0.961263 0
    outer loop
      vertex 108.848 -0.834454 0
      vertex 108.906 -0.817908 4
      vertex 108.848 -0.834454 4
    endloop
  endfacet
  facet normal 0.275634 -0.961263 0
    outer loop
      vertex 108.906 -0.817908 4
      vertex 108.848 -0.834454 0
      vertex 108.906 -0.817908 0
    endloop
  endfacet
  facet normal 0.406718 -0.913554 0
    outer loop
      vertex 108.962 -0.797378 0
      vertex 109.017 -0.772963 4
      vertex 108.962 -0.797378 4
    endloop
  endfacet
  facet normal 0.406718 -0.913554 0
    outer loop
      vertex 109.017 -0.772963 4
      vertex 108.962 -0.797378 0
      vertex 109.017 -0.772963 0
    endloop
  endfacet
  facet normal 0.694702 -0.719297 0
    outer loop
      vertex 109.215 -0.639104 0
      vertex 109.259 -0.597405 4
      vertex 109.215 -0.639104 4
    endloop
  endfacet
  facet normal 0.694702 -0.719297 0
    outer loop
      vertex 109.259 -0.597405 4
      vertex 109.215 -0.639104 0
      vertex 109.259 -0.597405 0
    endloop
  endfacet
  facet normal -0.207917 -0.978147 0
    outer loop
      vertex -0.208053 -0.834454 0
      vertex -0.149337 -0.846934 4
      vertex -0.208053 -0.834454 4
    endloop
  endfacet
  facet normal -0.207917 -0.978147 -0
    outer loop
      vertex -0.149337 -0.846934 4
      vertex -0.208053 -0.834454 0
      vertex -0.149337 -0.846934 0
    endloop
  endfacet
  facet normal -0.342024 -0.939691 0
    outer loop
      vertex -0.322161 -0.797378 0
      vertex -0.265754 -0.817908 4
      vertex -0.322161 -0.797378 4
    endloop
  endfacet
  facet normal -0.342024 -0.939691 -0
    outer loop
      vertex -0.265754 -0.817908 4
      vertex -0.322161 -0.797378 0
      vertex -0.265754 -0.817908 0
    endloop
  endfacet
  facet normal -0.994522 -0.104524 0
    outer loop
      vertex -0.85163 -0.119688 0
      vertex -0.857904 -0.0599899 4
      vertex -0.857904 -0.0599899 0
    endloop
  endfacet
  facet normal -0.994522 -0.104524 0
    outer loop
      vertex -0.857904 -0.0599899 4
      vertex -0.85163 -0.119688 0
      vertex -0.85163 -0.119688 4
    endloop
  endfacet
  facet normal -0.587775 0.809025 0
    outer loop
      vertex -0.480906 56.853 0
      vertex -0.529469 56.8177 4
      vertex -0.480906 56.853 4
    endloop
  endfacet
  facet normal -0.587775 0.809025 0
    outer loop
      vertex -0.529469 56.8177 4
      vertex -0.480906 56.853 0
      vertex -0.529469 56.8177 0
    endloop
  endfacet
  facet normal -0.866029 0.499994 0
    outer loop
      vertex -0.759335 56.5437 0
      vertex -0.729321 56.5957 4
      vertex -0.729321 56.5957 0
    endloop
  endfacet
  facet normal -0.866029 0.499994 0
    outer loop
      vertex -0.729321 56.5957 4
      vertex -0.759335 56.5437 0
      vertex -0.759335 56.5437 4
    endloop
  endfacet
  facet normal 0.207932 0.978143 -0
    outer loop
      vertex 108.848 56.9745 0
      vertex 108.789 56.9869 4
      vertex 108.848 56.9745 4
    endloop
  endfacet
  facet normal 0.207932 0.978143 0
    outer loop
      vertex 108.789 56.9869 4
      vertex 108.848 56.9745 0
      vertex 108.789 56.9869 0
    endloop
  endfacet
  facet normal 0.275619 0.961267 -0
    outer loop
      vertex 108.906 56.9579 0
      vertex 108.848 56.9745 4
      vertex 108.906 56.9579 4
    endloop
  endfacet
  facet normal 0.275619 0.961267 0
    outer loop
      vertex 108.848 56.9745 4
      vertex 108.906 56.9579 0
      vertex 108.848 56.9745 0
    endloop
  endfacet
  facet normal -0.207932 0.978143 0
    outer loop
      vertex -0.149337 56.9869 0
      vertex -0.208053 56.9745 4
      vertex -0.149337 56.9869 4
    endloop
  endfacet
  facet normal -0.207932 0.978143 0
    outer loop
      vertex -0.208053 56.9745 4
      vertex -0.149337 56.9869 0
      vertex -0.208053 56.9745 0
    endloop
  endfacet
  facet normal 0.139179 0.990267 -0
    outer loop
      vertex 108.789 56.9869 0
      vertex 108.73 56.9953 4
      vertex 108.789 56.9869 4
    endloop
  endfacet
  facet normal 0.139179 0.990267 0
    outer loop
      vertex 108.73 56.9953 4
      vertex 108.789 56.9869 0
      vertex 108.73 56.9953 0
    endloop
  endfacet
  facet normal -0.139174 0.990268 0
    outer loop
      vertex -0.0898943 56.9953 0
      vertex -0.149337 56.9869 4
      vertex -0.0898943 56.9953 4
    endloop
  endfacet
  facet normal -0.139174 0.990268 0
    outer loop
      vertex -0.149337 56.9869 4
      vertex -0.0898943 56.9953 0
      vertex -0.149337 56.9869 0
    endloop
  endfacet
  facet normal -0.275619 0.961267 0
    outer loop
      vertex -0.208053 56.9745 0
      vertex -0.265754 56.9579 4
      vertex -0.208053 56.9745 4
    endloop
  endfacet
  facet normal -0.275619 0.961267 0
    outer loop
      vertex -0.265754 56.9579 4
      vertex -0.208053 56.9745 0
      vertex -0.265754 56.9579 0
    endloop
  endfacet
  facet normal 0.994528 0.104473 0
    outer loop
      vertex 109.498 56.2 4
      vertex 109.492 56.2597 0
      vertex 109.492 56.2597 4
    endloop
  endfacet
  facet normal 0.994528 0.104473 0
    outer loop
      vertex 109.492 56.2597 0
      vertex 109.498 56.2 4
      vertex 109.498 56.2 0
    endloop
  endfacet
  facet normal 0.994527 -0.104476 0
    outer loop
      vertex 109.492 -0.119688 4
      vertex 109.498 -0.0599899 0
      vertex 109.498 -0.0599899 4
    endloop
  endfacet
  facet normal 0.994527 -0.104476 0
    outer loop
      vertex 109.498 -0.0599899 0
      vertex 109.492 -0.119688 4
      vertex 109.492 -0.119688 0
    endloop
  endfacet
  facet normal 0.970278 -0.241994 0
    outer loop
      vertex 109.467 -0.237047 4
      vertex 109.481 -0.178803 0
      vertex 109.481 -0.178803 4
    endloop
  endfacet
  facet normal 0.970278 -0.241994 0
    outer loop
      vertex 109.481 -0.178803 0
      vertex 109.467 -0.237047 4
      vertex 109.467 -0.237047 0
    endloop
  endfacet
  facet normal 0.788009 -0.615664 0
    outer loop
      vertex 109.299 -0.552797 4
      vertex 109.336 -0.505495 0
      vertex 109.336 -0.505495 4
    endloop
  endfacet
  facet normal 0.788009 -0.615664 0
    outer loop
      vertex 109.336 -0.505495 0
      vertex 109.299 -0.552797 4
      vertex 109.299 -0.552797 0
    endloop
  endfacet
  facet normal 0.207917 -0.978147 0
    outer loop
      vertex 108.789 -0.846934 0
      vertex 108.848 -0.834454 4
      vertex 108.789 -0.846934 4
    endloop
  endfacet
  facet normal 0.207917 -0.978147 0
    outer loop
      vertex 108.848 -0.834454 4
      vertex 108.789 -0.846934 0
      vertex 108.848 -0.834454 0
    endloop
  endfacet
  facet normal 0.342039 -0.939686 0
    outer loop
      vertex 108.906 -0.817908 0
      vertex 108.962 -0.797378 4
      vertex 108.906 -0.817908 4
    endloop
  endfacet
  facet normal 0.342039 -0.939686 0
    outer loop
      vertex 108.962 -0.797378 4
      vertex 108.906 -0.817908 0
      vertex 108.962 -0.797378 0
    endloop
  endfacet
  facet normal 0.5878 -0.809006 0
    outer loop
      vertex 109.121 -0.712972 0
      vertex 109.169 -0.677689 4
      vertex 109.121 -0.712972 4
    endloop
  endfacet
  facet normal 0.5878 -0.809006 0
    outer loop
      vertex 109.169 -0.677689 4
      vertex 109.121 -0.712972 0
      vertex 109.169 -0.677689 0
    endloop
  endfacet
  facet normal -0.275634 -0.961263 0
    outer loop
      vertex -0.265754 -0.817908 0
      vertex -0.208053 -0.834454 4
      vertex -0.265754 -0.817908 4
    endloop
  endfacet
  facet normal -0.275634 -0.961263 -0
    outer loop
      vertex -0.208053 -0.834454 4
      vertex -0.265754 -0.817908 0
      vertex -0.208053 -0.834454 0
    endloop
  endfacet
  facet normal -0.406729 -0.913549 0
    outer loop
      vertex -0.376999 -0.772963 0
      vertex -0.322161 -0.797378 4
      vertex -0.376999 -0.772963 4
    endloop
  endfacet
  facet normal -0.406729 -0.913549 -0
    outer loop
      vertex -0.322161 -0.797378 4
      vertex -0.376999 -0.772963 0
      vertex -0.322161 -0.797378 0
    endloop
  endfacet
  facet normal -0.139174 -0.990268 0
    outer loop
      vertex -0.149337 -0.846934 0
      vertex -0.0898943 -0.855289 4
      vertex -0.149337 -0.846934 4
    endloop
  endfacet
  facet normal -0.139174 -0.990268 -0
    outer loop
      vertex -0.0898943 -0.855289 4
      vertex -0.149337 -0.846934 0
      vertex -0.0898943 -0.855289 0
    endloop
  endfacet
  facet normal -0.0697611 -0.997564 0
    outer loop
      vertex -0.0898943 -0.855289 0
      vertex -0.0300131 -0.859476 4
      vertex -0.0898943 -0.855289 4
    endloop
  endfacet
  facet normal -0.0697611 -0.997564 -0
    outer loop
      vertex -0.0300131 -0.859476 4
      vertex -0.0898943 -0.855289 0
      vertex -0.0300131 -0.859476 0
    endloop
  endfacet
  facet normal -0.587785 -0.809017 0
    outer loop
      vertex -0.529469 -0.677689 0
      vertex -0.480906 -0.712972 4
      vertex -0.529469 -0.677689 4
    endloop
  endfacet
  facet normal -0.587785 -0.809017 -0
    outer loop
      vertex -0.480906 -0.712972 4
      vertex -0.529469 -0.677689 0
      vertex -0.480906 -0.712972 0
    endloop
  endfacet
  facet normal -0.642789 -0.766043 0
    outer loop
      vertex -0.575452 -0.639104 0
      vertex -0.529469 -0.677689 4
      vertex -0.575452 -0.639104 4
    endloop
  endfacet
  facet normal -0.642789 -0.766043 -0
    outer loop
      vertex -0.529469 -0.677689 4
      vertex -0.575452 -0.639104 0
      vertex -0.529469 -0.677689 0
    endloop
  endfacet
  facet normal -0.743132 -0.669145 0
    outer loop
      vertex -0.618631 -0.597405 0
      vertex -0.658798 -0.552797 4
      vertex -0.658798 -0.552797 0
    endloop
  endfacet
  facet normal -0.743132 -0.669145 0
    outer loop
      vertex -0.658798 -0.552797 4
      vertex -0.618631 -0.597405 0
      vertex -0.618631 -0.597405 4
    endloop
  endfacet
  facet normal 0 0 -1
    outer loop
      vertex 108.67 -0.859476 0
      vertex 109.5 0 0
      vertex 109.498 -0.0599899 0
    endloop
  endfacet
  facet normal -0 0 -1
    outer loop
      vertex 109.5 0 0
      vertex 108.67 -0.859476 0
      vertex 109.5 56.14 0
    endloop
  endfacet
  facet normal 0 0 -1
    outer loop
      vertex 108.67 -0.859476 0
      vertex 109.498 -0.0599899 0
      vertex 109.492 -0.119688 0
    endloop
  endfacet
  facet normal 0 0 -1
    outer loop
      vertex 108.67 56.9995 0
      vertex 109.5 56.14 0
      vertex 108.67 -0.859476 0
    endloop
  endfacet
  facet normal 0 0 -1
    outer loop
      vertex 108.67 -0.859476 0
      vertex 109.492 -0.119688 0
      vertex 109.481 -0.178803 0
    endloop
  endfacet
  facet normal 0 0 -1
    outer loop
      vertex 109.5 56.14 0
      vertex 108.67 56.9995 0
      vertex 109.498 56.2 0
    endloop
  endfacet
  facet normal 0 0 -1
    outer loop
      vertex 108.67 -0.859476 0
      vertex 109.481 -0.178803 0
      vertex 109.467 -0.237047 0
    endloop
  endfacet
  facet normal 0 0 -1
    outer loop
      vertex 109.498 56.2 0
      vertex 108.67 56.9995 0
      vertex 109.492 56.2597 0
    endloop
  endfacet
  facet normal 0 0 -1
    outer loop
      vertex 108.67 -0.859476 0
      vertex 109.467 -0.237047 0
      vertex 109.448 -0.294137 0
    endloop
  endfacet
  facet normal 0 0 -1
    outer loop
      vertex 109.492 56.2597 0
      vertex 108.67 56.9995 0
      vertex 109.481 56.3188 0
    endloop
  endfacet
  facet normal 0 0 -1
    outer loop
      vertex 108.67 -0.859476 0
      vertex 109.448 -0.294137 0
      vertex 109.426 -0.349793 0
    endloop
  endfacet
  facet normal 0 0 -1
    outer loop
      vertex 109.481 56.3188 0
      vertex 108.67 56.9995 0
      vertex 109.467 56.377 0
    endloop
  endfacet
  facet normal 0 0 -1
    outer loop
      vertex 108.67 -0.859476 0
      vertex 109.426 -0.349793 0
      vertex 109.399 -0.403745 0
    endloop
  endfacet
  facet normal 0 0 -1
    outer loop
      vertex 109.467 56.377 0
      vertex 108.67 56.9995 0
      vertex 109.448 56.4341 0
    endloop
  endfacet
  facet normal 0 0 -1
    outer loop
      vertex 108.67 -0.859476 0
      vertex 109.399 -0.403745 0
      vertex 109.369 -0.45573 0
    endloop
  endfacet
  facet normal 0 0 -1
    outer loop
      vertex 109.448 56.4341 0
      vertex 108.67 56.9995 0
      vertex 109.426 56.4898 0
    endloop
  endfacet
  facet normal 0 0 -1
    outer loop
      vertex 108.67 -0.859476 0
      vertex 109.369 -0.45573 0
      vertex 109.336 -0.505495 0
    endloop
  endfacet
  facet normal 0 0 -1
    outer loop
      vertex 109.426 56.4898 0
      vertex 108.67 56.9995 0
      vertex 109.399 56.5437 0
    endloop
  endfacet
  facet normal 0 0 -1
    outer loop
      vertex 108.67 -0.859476 0
      vertex 109.336 -0.505495 0
      vertex 109.299 -0.552797 0
    endloop
  endfacet
  facet normal 0 0 -1
    outer loop
      vertex 109.399 56.5437 0
      vertex 108.67 56.9995 0
      vertex 109.369 56.5957 0
    endloop
  endfacet
  facet normal 0 0 -1
    outer loop
      vertex 108.67 -0.859476 0
      vertex 109.299 -0.552797 0
      vertex 109.259 -0.597405 0
    endloop
  endfacet
  facet normal 0 0 -1
    outer loop
      vertex 109.369 56.5957 0
      vertex 108.67 56.9995 0
      vertex 109.336 56.6455 0
    endloop
  endfacet
  facet normal 0 0 -1
    outer loop
      vertex 108.67 -0.859476 0
      vertex 109.259 -0.597405 0
      vertex 109.215 -0.639104 0
    endloop
  endfacet
  facet normal 0 0 -1
    outer loop
      vertex 109.336 56.6455 0
      vertex 108.67 56.9995 0
      vertex 109.299 56.6928 0
    endloop
  endfacet
  facet normal 0 0 -1
    outer loop
      vertex 108.67 -0.859476 0
      vertex 109.215 -0.639104 0
      vertex 109.169 -0.677689 0
    endloop
  endfacet
  facet normal 0 0 -1
    outer loop
      vertex 109.299 56.6928 0
      vertex 108.67 56.9995 0
      vertex 109.259 56.7374 0
    endloop
  endfacet
  facet normal 0 0 -1
    outer loop
      vertex 108.67 -0.859476 0
      vertex 109.169 -0.677689 0
      vertex 109.121 -0.712972 0
    endloop
  endfacet
  facet normal 0 0 -1
    outer loop
      vertex 109.259 56.7374 0
      vertex 108.67 56.9995 0
      vertex 109.215 56.7791 0
    endloop
  endfacet
  facet normal 0 0 -1
    outer loop
      vertex 108.67 -0.859476 0
      vertex 109.121 -0.712972 0
      vertex 109.07 -0.744781 0
    endloop
  endfacet
  facet normal 0 0 -1
    outer loop
      vertex 109.215 56.7791 0
      vertex 108.67 56.9995 0
      vertex 109.169 56.8177 0
    endloop
  endfacet
  facet normal 0 0 -1
    outer loop
      vertex 108.67 -0.859476 0
      vertex 109.07 -0.744781 0
      vertex 109.017 -0.772963 0
    endloop
  endfacet
  facet normal 0 0 -1
    outer loop
      vertex 109.169 56.8177 0
      vertex 108.67 56.9995 0
      vertex 109.121 56.853 0
    endloop
  endfacet
  facet normal 0 0 -1
    outer loop
      vertex 108.67 -0.859476 0
      vertex 109.017 -0.772963 0
      vertex 108.962 -0.797378 0
    endloop
  endfacet
  facet normal 0 0 -1
    outer loop
      vertex 109.121 56.853 0
      vertex 108.67 56.9995 0
      vertex 109.07 56.8848 0
    endloop
  endfacet
  facet normal 0 0 -1
    outer loop
      vertex 108.67 -0.859476 0
      vertex 108.962 -0.797378 0
      vertex 108.906 -0.817908 0
    endloop
  endfacet
  facet normal 0 0 -1
    outer loop
      vertex 109.07 56.8848 0
      vertex 108.67 56.9995 0
      vertex 109.017 56.913 0
    endloop
  endfacet
  facet normal 0 0 -1
    outer loop
      vertex 108.67 -0.859476 0
      vertex 108.906 -0.817908 0
      vertex 108.848 -0.834454 0
    endloop
  endfacet
  facet normal 0 0 -1
    outer loop
      vertex 109.017 56.913 0
      vertex 108.67 56.9995 0
      vertex 108.962 56.9374 0
    endloop
  endfacet
  facet normal 0 0 -1
    outer loop
      vertex 108.67 -0.859476 0
      vertex 108.848 -0.834454 0
      vertex 108.789 -0.846934 0
    endloop
  endfacet
  facet normal 0 0 -1
    outer loop
      vertex 108.962 56.9374 0
      vertex 108.67 56.9995 0
      vertex 108.906 56.9579 0
    endloop
  endfacet
  facet normal 0 0 -1
    outer loop
      vertex 108.67 -0.859476 0
      vertex 108.789 -0.846934 0
      vertex 108.73 -0.855289 0
    endloop
  endfacet
  facet normal 0 0 -1
    outer loop
      vertex 108.906 56.9579 0
      vertex 108.67 56.9995 0
      vertex 108.848 56.9745 0
    endloop
  endfacet
  facet normal 0 0 -1
    outer loop
      vertex 108.848 56.9745 0
      vertex 108.67 56.9995 0
      vertex 108.789 56.9869 0
    endloop
  endfacet
  facet normal 0 0 -1
    outer loop
      vertex 108.789 56.9869 0
      vertex 108.67 56.9995 0
      vertex 108.73 56.9953 0
    endloop
  endfacet
  facet normal 0 0 -1
    outer loop
      vertex -0.0300131 -0.859476 0
      vertex 108.67 56.9995 0
      vertex 108.67 -0.859476 0
    endloop
  endfacet
  facet normal 0 0 -1
    outer loop
      vertex -0.0300131 -0.859476 0
      vertex -0.0300131 56.9995 0
      vertex 108.67 56.9995 0
    endloop
  endfacet
  facet normal 0 0 -1
    outer loop
      vertex -0.86 0 0
      vertex -0.0300131 -0.859476 0
      vertex -0.0898943 -0.855289 0
    endloop
  endfacet
  facet normal 0 0 -1
    outer loop
      vertex -0.0300131 -0.859476 0
      vertex -0.86 0 0
      vertex -0.0300131 56.9995 0
    endloop
  endfacet
  facet normal 0 0 -1
    outer loop
      vertex -0.86 0 0
      vertex -0.0898943 -0.855289 0
      vertex -0.149337 -0.846934 0
    endloop
  endfacet
  facet normal 0 0 -1
    outer loop
      vertex -0.86 56.14 0
      vertex -0.0300131 56.9995 0
      vertex -0.86 0 0
    endloop
  endfacet
  facet normal 0 0 -1
    outer loop
      vertex -0.86 0 0
      vertex -0.149337 -0.846934 0
      vertex -0.208053 -0.834454 0
    endloop
  endfacet
  facet normal 0 0 -1
    outer loop
      vertex -0.0300131 56.9995 0
      vertex -0.86 56.14 0
      vertex -0.0898943 56.9953 0
    endloop
  endfacet
  facet normal 0 0 -1
    outer loop
      vertex -0.86 0 0
      vertex -0.208053 -0.834454 0
      vertex -0.265754 -0.817908 0
    endloop
  endfacet
  facet normal 0 0 -1
    outer loop
      vertex -0.0898943 56.9953 0
      vertex -0.86 56.14 0
      vertex -0.149337 56.9869 0
    endloop
  endfacet
  facet normal 0 0 -1
    outer loop
      vertex -0.86 0 0
      vertex -0.265754 -0.817908 0
      vertex -0.322161 -0.797378 0
    endloop
  endfacet
  facet normal 0 0 -1
    outer loop
      vertex -0.149337 56.9869 0
      vertex -0.86 56.14 0
      vertex -0.208053 56.9745 0
    endloop
  endfacet
  facet normal 0 0 -1
    outer loop
      vertex -0.86 0 0
      vertex -0.322161 -0.797378 0
      vertex -0.376999 -0.772963 0
    endloop
  endfacet
  facet normal 0 0 -1
    outer loop
      vertex -0.208053 56.9745 0
      vertex -0.86 56.14 0
      vertex -0.265754 56.9579 0
    endloop
  endfacet
  facet normal 0 0 -1
    outer loop
      vertex -0.86 0 0
      vertex -0.376999 -0.772963 0
      vertex -0.429999 -0.744781 0
    endloop
  endfacet
  facet normal 0 0 -1
    outer loop
      vertex -0.265754 56.9579 0
      vertex -0.86 56.14 0
      vertex -0.322161 56.9374 0
    endloop
  endfacet
  facet normal 0 0 -1
    outer loop
      vertex -0.86 0 0
      vertex -0.429999 -0.744781 0
      vertex -0.480906 -0.712972 0
    endloop
  endfacet
  facet normal 0 0 -1
    outer loop
      vertex -0.322161 56.9374 0
      vertex -0.86 56.14 0
      vertex -0.376999 56.913 0
    endloop
  endfacet
  facet normal 0 0 -1
    outer loop
      vertex -0.86 0 0
      vertex -0.480906 -0.712972 0
      vertex -0.529469 -0.677689 0
    endloop
  endfacet
  facet normal 0 0 -1
    outer loop
      vertex -0.376999 56.913 0
      vertex -0.86 56.14 0
      vertex -0.429999 56.8848 0
    endloop
  endfacet
  facet normal 0 0 -1
    outer loop
      vertex -0.86 0 0
      vertex -0.529469 -0.677689 0
      vertex -0.575452 -0.639104 0
    endloop
  endfacet
  facet normal 0 0 -1
    outer loop
      vertex -0.429999 56.8848 0
      vertex -0.86 56.14 0
      vertex -0.480906 56.853 0
    endloop
  endfacet
  facet normal 0 0 -1
    outer loop
      vertex -0.86 0 0
      vertex -0.575452 -0.639104 0
      vertex -0.618631 -0.597405 0
    endloop
  endfacet
  facet normal 0 0 -1
    outer loop
      vertex -0.480906 56.853 0
      vertex -0.86 56.14 0
      vertex -0.529469 56.8177 0
    endloop
  endfacet
  facet normal 0 0 -1
    outer loop
      vertex -0.86 0 0
      vertex -0.618631 -0.597405 0
      vertex -0.658798 -0.552797 0
    endloop
  endfacet
  facet normal 0 0 -1
    outer loop
      vertex -0.529469 56.8177 0
      vertex -0.86 56.14 0
      vertex -0.575452 56.7791 0
    endloop
  endfacet
  facet normal 0 0 -1
    outer loop
      vertex -0.86 0 0
      vertex -0.658798 -0.552797 0
      vertex -0.695754 -0.505495 0
    endloop
  endfacet
  facet normal 0 0 -1
    outer loop
      vertex -0.575452 56.7791 0
      vertex -0.86 56.14 0
      vertex -0.618631 56.7374 0
    endloop
  endfacet
  facet normal 0 0 -1
    outer loop
      vertex -0.86 0 0
      vertex -0.695754 -0.505495 0
      vertex -0.729321 -0.45573 0
    endloop
  endfacet
  facet normal 0 0 -1
    outer loop
      vertex -0.618631 56.7374 0
      vertex -0.86 56.14 0
      vertex -0.658798 56.6928 0
    endloop
  endfacet
  facet normal 0 0 -1
    outer loop
      vertex -0.86 0 0
      vertex -0.729321 -0.45573 0
      vertex -0.759335 -0.403745 0
    endloop
  endfacet
  facet normal 0 0 -1
    outer loop
      vertex -0.658798 56.6928 0
      vertex -0.86 56.14 0
      vertex -0.695754 56.6455 0
    endloop
  endfacet
  facet normal 0 0 -1
    outer loop
      vertex -0.86 0 0
      vertex -0.759335 -0.403745 0
      vertex -0.785648 -0.349793 0
    endloop
  endfacet
  facet normal 0 0 -1
    outer loop
      vertex -0.695754 56.6455 0
      vertex -0.86 56.14 0
      vertex -0.729321 56.5957 0
    endloop
  endfacet
  facet normal 0 0 -1
    outer loop
      vertex -0.86 0 0
      vertex -0.785648 -0.349793 0
      vertex -0.808135 -0.294137 0
    endloop
  endfacet
  facet normal 0 0 -1
    outer loop
      vertex -0.729321 56.5957 0
      vertex -0.86 56.14 0
      vertex -0.759335 56.5437 0
    endloop
  endfacet
  facet normal 0 0 -1
    outer loop
      vertex -0.86 0 0
      vertex -0.808135 -0.294137 0
      vertex -0.826685 -0.237047 0
    endloop
  endfacet
  facet normal 0 0 -1
    outer loop
      vertex -0.759335 56.5437 0
      vertex -0.86 56.14 0
      vertex -0.785648 56.4898 0
    endloop
  endfacet
  facet normal 0 0 -1
    outer loop
      vertex -0.86 0 0
      vertex -0.826685 -0.237047 0
      vertex -0.841207 -0.178803 0
    endloop
  endfacet
  facet normal 0 0 -1
    outer loop
      vertex -0.785648 56.4898 0
      vertex -0.86 56.14 0
      vertex -0.808135 56.4341 0
    endloop
  endfacet
  facet normal 0 0 -1
    outer loop
      vertex -0.86 0 0
      vertex -0.841207 -0.178803 0
      vertex -0.85163 -0.119688 0
    endloop
  endfacet
  facet normal 0 0 -1
    outer loop
      vertex -0.808135 56.4341 0
      vertex -0.86 56.14 0
      vertex -0.826685 56.377 0
    endloop
  endfacet
  facet normal 0 0 -1
    outer loop
      vertex -0.86 0 0
      vertex -0.85163 -0.119688 0
      vertex -0.857904 -0.0599899 0
    endloop
  endfacet
  facet normal 0 0 -1
    outer loop
      vertex -0.826685 56.377 0
      vertex -0.86 56.14 0
      vertex -0.841207 56.3188 0
    endloop
  endfacet
  facet normal 0 0 -1
    outer loop
      vertex -0.841207 56.3188 0
      vertex -0.86 56.14 0
      vertex -0.85163 56.2597 0
    endloop
  endfacet
  facet normal 0 0 -1
    outer loop
      vertex -0.85163 56.2597 0
      vertex -0.86 56.14 0
      vertex -0.857904 56.2 0
    endloop
  endfacet
  facet normal -0.788017 -0.615654 0
    outer loop
      vertex -0.658798 -0.552797 0
      vertex -0.695754 -0.505495 4
      vertex -0.695754 -0.505495 0
    endloop
  endfacet
  facet normal -0.788017 -0.615654 0
    outer loop
      vertex -0.695754 -0.505495 4
      vertex -0.658798 -0.552797 0
      vertex -0.658798 -0.552797 4
    endloop
  endfacet
  facet normal -0.994523 0.10452 0
    outer loop
      vertex -0.857904 56.2 0
      vertex -0.85163 56.2597 4
      vertex -0.85163 56.2597 0
    endloop
  endfacet
  facet normal -0.994523 0.10452 0
    outer loop
      vertex -0.85163 56.2597 4
      vertex -0.857904 56.2 0
      vertex -0.857904 56.2 4
    endloop
  endfacet
  facet normal -0.984806 0.173657 0
    outer loop
      vertex -0.85163 56.2597 0
      vertex -0.841207 56.3188 4
      vertex -0.841207 56.3188 0
    endloop
  endfacet
  facet normal -0.984806 0.173657 0
    outer loop
      vertex -0.841207 56.3188 4
      vertex -0.85163 56.2597 0
      vertex -0.85163 56.2597 4
    endloop
  endfacet
  facet normal -0.898794 0.438371 0
    outer loop
      vertex -0.785648 56.4898 0
      vertex -0.759335 56.5437 4
      vertex -0.759335 56.5437 0
    endloop
  endfacet
  facet normal -0.898794 0.438371 0
    outer loop
      vertex -0.759335 56.5437 4
      vertex -0.785648 56.4898 0
      vertex -0.785648 56.4898 4
    endloop
  endfacet
  facet normal -0.829029 0.559205 0
    outer loop
      vertex -0.729321 56.5957 0
      vertex -0.695754 56.6455 4
      vertex -0.695754 56.6455 0
    endloop
  endfacet
  facet normal -0.829029 0.559205 0
    outer loop
      vertex -0.695754 56.6455 4
      vertex -0.729321 56.5957 0
      vertex -0.729321 56.5957 4
    endloop
  endfacet
  facet normal 0.0697115 0.997567 -0
    outer loop
      vertex 108.73 56.9953 0
      vertex 108.67 56.9995 4
      vertex 108.73 56.9953 4
    endloop
  endfacet
  facet normal 0.0697115 0.997567 0
    outer loop
      vertex 108.67 56.9995 4
      vertex 108.73 56.9953 0
      vertex 108.67 56.9995 0
    endloop
  endfacet
  facet normal -0.0697137 0.997567 0
    outer loop
      vertex -0.0300131 56.9995 0
      vertex -0.0898943 56.9953 4
      vertex -0.0300131 56.9995 4
    endloop
  endfacet
  facet normal -0.0697137 0.997567 0
    outer loop
      vertex -0.0898943 56.9953 4
      vertex -0.0300131 56.9995 0
      vertex -0.0898943 56.9953 0
    endloop
  endfacet
  facet normal -0.342024 0.939691 0
    outer loop
      vertex -0.265754 56.9579 0
      vertex -0.322161 56.9374 4
      vertex -0.265754 56.9579 4
    endloop
  endfacet
  facet normal -0.342024 0.939691 0
    outer loop
      vertex -0.322161 56.9374 4
      vertex -0.265754 56.9579 0
      vertex -0.322161 56.9374 0
    endloop
  endfacet
  facet normal 0.95107 0.308974 0
    outer loop
      vertex 109.467 56.377 4
      vertex 109.448 56.4341 0
      vertex 109.448 56.4341 4
    endloop
  endfacet
  facet normal 0.95107 0.308974 0
    outer loop
      vertex 109.448 56.4341 0
      vertex 109.467 56.377 4
      vertex 109.467 56.377 0
    endloop
  endfacet
  facet normal 0.866029 0.499994 0
    outer loop
      vertex 109.399 56.5437 4
      vertex 109.369 56.5957 0
      vertex 109.369 56.5957 4
    endloop
  endfacet
  facet normal 0.866029 0.499994 0
    outer loop
      vertex 109.369 56.5957 0
      vertex 109.399 56.5437 4
      vertex 109.399 56.5437 0
    endloop
  endfacet
  facet normal 0.951069 -0.308979 0
    outer loop
      vertex 109.448 -0.294137 4
      vertex 109.467 -0.237047 0
      vertex 109.467 -0.237047 4
    endloop
  endfacet
  facet normal 0.951069 -0.308979 0
    outer loop
      vertex 109.467 -0.237047 0
      vertex 109.448 -0.294137 4
      vertex 109.448 -0.294137 0
    endloop
  endfacet
  facet normal 0.927156 -0.374675 0
    outer loop
      vertex 109.426 -0.349793 4
      vertex 109.448 -0.294137 0
      vertex 109.448 -0.294137 4
    endloop
  endfacet
  facet normal 0.927156 -0.374675 0
    outer loop
      vertex 109.448 -0.294137 0
      vertex 109.426 -0.349793 4
      vertex 109.426 -0.349793 0
    endloop
  endfacet
  facet normal 0.866025 -0.500001 0
    outer loop
      vertex 109.369 -0.45573 4
      vertex 109.399 -0.403745 0
      vertex 109.399 -0.403745 4
    endloop
  endfacet
  facet normal 0.866025 -0.500001 0
    outer loop
      vertex 109.399 -0.403745 0
      vertex 109.369 -0.45573 4
      vertex 109.369 -0.45573 0
    endloop
  endfacet
  facet normal 0.829017 -0.559223 0
    outer loop
      vertex 109.336 -0.505495 4
      vertex 109.369 -0.45573 0
      vertex 109.369 -0.45573 4
    endloop
  endfacet
  facet normal 0.829017 -0.559223 0
    outer loop
      vertex 109.369 -0.45573 0
      vertex 109.336 -0.505495 4
      vertex 109.336 -0.505495 0
    endloop
  endfacet
  facet normal 0.139179 -0.990267 0
    outer loop
      vertex 108.73 -0.855289 0
      vertex 108.789 -0.846934 4
      vertex 108.73 -0.855289 4
    endloop
  endfacet
  facet normal 0.139179 -0.990267 0
    outer loop
      vertex 108.789 -0.846934 4
      vertex 108.73 -0.855289 0
      vertex 108.789 -0.846934 0
    endloop
  endfacet
  facet normal 0.0697589 -0.997564 0
    outer loop
      vertex 108.67 -0.859476 0
      vertex 108.73 -0.855289 4
      vertex 108.67 -0.859476 4
    endloop
  endfacet
  facet normal 0.0697589 -0.997564 0
    outer loop
      vertex 108.73 -0.855289 4
      vertex 108.67 -0.859476 0
      vertex 108.73 -0.855289 0
    endloop
  endfacet
  facet normal 0.529942 -0.848034 0
    outer loop
      vertex 109.07 -0.744781 0
      vertex 109.121 -0.712972 4
      vertex 109.07 -0.744781 4
    endloop
  endfacet
  facet normal 0.529942 -0.848034 0
    outer loop
      vertex 109.121 -0.712972 4
      vertex 109.07 -0.744781 0
      vertex 109.121 -0.712972 0
    endloop
  endfacet
  facet normal -0.694663 -0.719336 0
    outer loop
      vertex -0.618631 -0.597405 0
      vertex -0.575452 -0.639104 4
      vertex -0.618631 -0.597405 4
    endloop
  endfacet
  facet normal -0.694663 -0.719336 -0
    outer loop
      vertex -0.575452 -0.639104 4
      vertex -0.618631 -0.597405 0
      vertex -0.575452 -0.639104 0
    endloop
  endfacet
  facet normal -0.970297 -0.241919 0
    outer loop
      vertex -0.826685 -0.237047 0
      vertex -0.841207 -0.178803 4
      vertex -0.841207 -0.178803 0
    endloop
  endfacet
  facet normal -0.970297 -0.241919 0
    outer loop
      vertex -0.841207 -0.178803 4
      vertex -0.826685 -0.237047 0
      vertex -0.826685 -0.237047 4
    endloop
  endfacet
  facet normal -0.898794 -0.438371 0
    outer loop
      vertex -0.759335 -0.403745 0
      vertex -0.785648 -0.349793 4
      vertex -0.785648 -0.349793 0
    endloop
  endfacet
  facet normal -0.898794 -0.438371 0
    outer loop
      vertex -0.785648 -0.349793 4
      vertex -0.759335 -0.403745 0
      vertex -0.759335 -0.403745 4
    endloop
  endfacet
  facet normal -0.951055 -0.309022 0
    outer loop
      vertex -0.808135 -0.294137 0
      vertex -0.826685 -0.237047 4
      vertex -0.826685 -0.237047 0
    endloop
  endfacet
  facet normal -0.951055 -0.309022 0
    outer loop
      vertex -0.826685 -0.237047 4
      vertex -0.808135 -0.294137 0
      vertex -0.808135 -0.294137 4
    endloop
  endfacet
  facet normal -0.999391 0.034905 0
    outer loop
      vertex -0.86 56.14 0
      vertex -0.857904 56.2 4
      vertex -0.857904 56.2 0
    endloop
  endfacet
  facet normal -0.999391 0.034905 0
    outer loop
      vertex -0.857904 56.2 4
      vertex -0.86 56.14 0
      vertex -0.86 56.14 4
    endloop
  endfacet
  facet normal -0.970296 0.241922 0
    outer loop
      vertex -0.841207 56.3188 0
      vertex -0.826685 56.377 4
      vertex -0.826685 56.377 0
    endloop
  endfacet
  facet normal -0.970296 0.241922 0
    outer loop
      vertex -0.826685 56.377 4
      vertex -0.841207 56.3188 0
      vertex -0.841207 56.3188 4
    endloop
  endfacet
  facet normal -0.951056 0.309017 0
    outer loop
      vertex -0.826685 56.377 0
      vertex -0.808135 56.4341 4
      vertex -0.808135 56.4341 0
    endloop
  endfacet
  facet normal -0.951056 0.309017 0
    outer loop
      vertex -0.808135 56.4341 4
      vertex -0.826685 56.377 0
      vertex -0.826685 56.377 4
    endloop
  endfacet
  facet normal -0.927184 0.374607 0
    outer loop
      vertex -0.808135 56.4341 0
      vertex -0.785648 56.4898 4
      vertex -0.785648 56.4898 0
    endloop
  endfacet
  facet normal -0.927184 0.374607 0
    outer loop
      vertex -0.785648 56.4898 4
      vertex -0.808135 56.4341 0
      vertex -0.808135 56.4341 4
    endloop
  endfacet
  facet normal -0.788017 0.615654 0
    outer loop
      vertex -0.695754 56.6455 0
      vertex -0.658798 56.6928 4
      vertex -0.658798 56.6928 0
    endloop
  endfacet
  facet normal -0.788017 0.615654 0
    outer loop
      vertex -0.658798 56.6928 4
      vertex -0.695754 56.6455 0
      vertex -0.695754 56.6455 4
    endloop
  endfacet
  facet normal -0.694663 0.719336 0
    outer loop
      vertex -0.575452 56.7791 0
      vertex -0.618631 56.7374 4
      vertex -0.575452 56.7791 4
    endloop
  endfacet
  facet normal -0.694663 0.719336 0
    outer loop
      vertex -0.618631 56.7374 4
      vertex -0.575452 56.7791 0
      vertex -0.618631 56.7374 0
    endloop
  endfacet
  facet normal -0.642798 0.766036 0
    outer loop
      vertex -0.529469 56.8177 0
      vertex -0.575452 56.7791 4
      vertex -0.529469 56.8177 4
    endloop
  endfacet
  facet normal -0.642798 0.766036 0
    outer loop
      vertex -0.575452 56.7791 4
      vertex -0.529469 56.8177 0
      vertex -0.575452 56.7791 0
    endloop
  endfacet
  facet normal -0.529932 0.84804 0
    outer loop
      vertex -0.429999 56.8848 0
      vertex -0.480906 56.853 4
      vertex -0.429999 56.8848 4
    endloop
  endfacet
  facet normal -0.529932 0.84804 0
    outer loop
      vertex -0.480906 56.853 4
      vertex -0.429999 56.8848 0
      vertex -0.480906 56.853 0
    endloop
  endfacet
  facet normal 0.970277 0.241997 0
    outer loop
      vertex 109.481 56.3188 4
      vertex 109.467 56.377 0
      vertex 109.467 56.377 4
    endloop
  endfacet
  facet normal 0.970277 0.241997 0
    outer loop
      vertex 109.467 56.377 0
      vertex 109.481 56.3188 4
      vertex 109.481 56.3188 0
    endloop
  endfacet
  facet normal 0.927156 0.374675 0
    outer loop
      vertex 109.448 56.4341 4
      vertex 109.426 56.4898 0
      vertex 109.426 56.4898 4
    endloop
  endfacet
  facet normal 0.927156 0.374675 0
    outer loop
      vertex 109.426 56.4898 0
      vertex 109.448 56.4341 4
      vertex 109.448 56.4341 0
    endloop
  endfacet
  facet normal 0.642743 0.766082 -0
    outer loop
      vertex 109.215 56.7791 0
      vertex 109.169 56.8177 4
      vertex 109.215 56.7791 4
    endloop
  endfacet
  facet normal 0.642743 0.766082 0
    outer loop
      vertex 109.169 56.8177 4
      vertex 109.215 56.7791 0
      vertex 109.169 56.8177 0
    endloop
  endfacet
  facet normal 0.58779 0.809014 -0
    outer loop
      vertex 109.169 56.8177 0
      vertex 109.121 56.853 4
      vertex 109.169 56.8177 4
    endloop
  endfacet
  facet normal 0.58779 0.809014 0
    outer loop
      vertex 109.121 56.853 4
      vertex 109.169 56.8177 0
      vertex 109.121 56.853 0
    endloop
  endfacet
  facet normal 0.342039 0.939686 -0
    outer loop
      vertex 108.962 56.9374 0
      vertex 108.906 56.9579 4
      vertex 108.962 56.9374 4
    endloop
  endfacet
  facet normal 0.342039 0.939686 0
    outer loop
      vertex 108.906 56.9579 4
      vertex 108.962 56.9374 0
      vertex 108.906 56.9579 0
    endloop
  endfacet
  facet normal 0.406704 0.91356 -0
    outer loop
      vertex 109.017 56.913 0
      vertex 108.962 56.9374 4
      vertex 109.017 56.913 4
    endloop
  endfacet
  facet normal 0.406704 0.91356 0
    outer loop
      vertex 108.962 56.9374 4
      vertex 109.017 56.913 0
      vertex 108.962 56.9374 0
    endloop
  endfacet
  facet normal -0.866025 -0.500001 0
    outer loop
      vertex -0.729321 -0.45573 0
      vertex -0.759335 -0.403745 4
      vertex -0.759335 -0.403745 0
    endloop
  endfacet
  facet normal -0.866025 -0.500001 0
    outer loop
      vertex -0.759335 -0.403745 4
      vertex -0.729321 -0.45573 0
      vertex -0.729321 -0.45573 4
    endloop
  endfacet
  facet normal -0.927184 -0.374607 0
    outer loop
      vertex -0.785648 -0.349793 0
      vertex -0.808135 -0.294137 4
      vertex -0.808135 -0.294137 0
    endloop
  endfacet
  facet normal -0.927184 -0.374607 0
    outer loop
      vertex -0.808135 -0.294137 4
      vertex -0.785648 -0.349793 0
      vertex -0.785648 -0.349793 4
    endloop
  endfacet
  facet normal -0.743139 0.669137 0
    outer loop
      vertex -0.658798 56.6928 0
      vertex -0.618631 56.7374 4
      vertex -0.618631 56.7374 0
    endloop
  endfacet
  facet normal -0.743139 0.669137 0
    outer loop
      vertex -0.618631 56.7374 4
      vertex -0.658798 56.6928 0
      vertex -0.658798 56.6928 4
    endloop
  endfacet
  facet normal -0.469499 0.882933 0
    outer loop
      vertex -0.376999 56.913 0
      vertex -0.429999 56.8848 4
      vertex -0.376999 56.913 4
    endloop
  endfacet
  facet normal -0.469499 0.882933 0
    outer loop
      vertex -0.429999 56.8848 4
      vertex -0.376999 56.913 0
      vertex -0.429999 56.8848 0
    endloop
  endfacet
  facet normal 0.829007 0.559238 0
    outer loop
      vertex 109.369 56.5957 4
      vertex 109.336 56.6455 0
      vertex 109.336 56.6455 4
    endloop
  endfacet
  facet normal 0.829007 0.559238 0
    outer loop
      vertex 109.336 56.6455 0
      vertex 109.369 56.5957 4
      vertex 109.369 56.5957 0
    endloop
  endfacet
  facet normal 0.694702 0.719297 -0
    outer loop
      vertex 109.259 56.7374 0
      vertex 109.215 56.7791 4
      vertex 109.259 56.7374 4
    endloop
  endfacet
  facet normal 0.694702 0.719297 0
    outer loop
      vertex 109.215 56.7791 4
      vertex 109.259 56.7374 0
      vertex 109.215 56.7791 0
    endloop
  endfacet
  facet normal 0.788009 0.615664 0
    outer loop
      vertex 109.336 56.6455 4
      vertex 109.299 56.6928 0
      vertex 109.299 56.6928 4
    endloop
  endfacet
  facet normal 0.788009 0.615664 0
    outer loop
      vertex 109.299 56.6928 0
      vertex 109.336 56.6455 4
      vertex 109.336 56.6455 0
    endloop
  endfacet
  facet normal 0.529953 0.848027 -0
    outer loop
      vertex 109.121 56.853 0
      vertex 109.07 56.8848 4
      vertex 109.121 56.853 4
    endloop
  endfacet
  facet normal 0.529953 0.848027 0
    outer loop
      vertex 109.07 56.8848 4
      vertex 109.121 56.853 0
      vertex 109.07 56.8848 0
    endloop
  endfacet
  facet normal -0.829039 -0.559191 0
    outer loop
      vertex -0.695754 -0.505495 0
      vertex -0.729321 -0.45573 4
      vertex -0.729321 -0.45573 0
    endloop
  endfacet
  facet normal -0.829039 -0.559191 0
    outer loop
      vertex -0.729321 -0.45573 4
      vertex -0.695754 -0.505495 0
      vertex -0.695754 -0.505495 4
    endloop
  endfacet
  facet normal 0.898844 0.438268 0
    outer loop
      vertex 109.426 56.4898 4
      vertex 109.399 56.5437 0
      vertex 109.399 56.5437 4
    endloop
  endfacet
  facet normal 0.898844 0.438268 0
    outer loop
      vertex 109.399 56.5437 0
      vertex 109.426 56.4898 4
      vertex 109.426 56.4898 0
    endloop
  endfacet
  facet normal 0.743123 0.669154 0
    outer loop
      vertex 109.299 56.6928 4
      vertex 109.259 56.7374 0
      vertex 109.259 56.7374 4
    endloop
  endfacet
  facet normal 0.743123 0.669154 0
    outer loop
      vertex 109.259 56.7374 0
      vertex 109.299 56.6928 4
      vertex 109.299 56.6928 0
    endloop
  endfacet
  facet normal 1 -0 0
    outer loop
      vertex 0 35.3504 4
      vertex 0 56.14 1
      vertex 0 56.14 4
    endloop
  endfacet
  facet normal 1 -0 0
    outer loop
      vertex 0 34.9279 3.61956
      vertex 0 56.14 1
      vertex 0 35.3504 4
    endloop
  endfacet
  facet normal 1 -0 0
    outer loop
      vertex 0 34.3779 3.18983
      vertex 0 56.14 1
      vertex 0 34.9279 3.61956
    endloop
  endfacet
  facet normal 1 -0 0
    outer loop
      vertex 0 33.7992 2.79952
      vertex 0 56.14 1
      vertex 0 34.3779 3.18983
    endloop
  endfacet
  facet normal 1 -0 0
    outer loop
      vertex 0 33.1947 2.45052
      vertex 0 56.14 1
      vertex 0 33.7992 2.79952
    endloop
  endfacet
  facet normal 1 -0 0
    outer loop
      vertex 0 32.5674 2.14454
      vertex 0 56.14 1
      vertex 0 33.1947 2.45052
    endloop
  endfacet
  facet normal 1 -0 0
    outer loop
      vertex 0 31.9202 1.88307
      vertex 0 56.14 1
      vertex 0 32.5674 2.14454
    endloop
  endfacet
  facet normal 1 -0 0
    outer loop
      vertex 0 31.2564 1.66738
      vertex 0 56.14 1
      vertex 0 31.9202 1.88307
    endloop
  endfacet
  facet normal 1 -0 0
    outer loop
      vertex 0 30.5791 1.49852
      vertex 0 56.14 1
      vertex 0 31.2564 1.66738
    endloop
  endfacet
  facet normal 1 -0 0
    outer loop
      vertex 0 29.8917 1.37732
      vertex 0 56.14 1
      vertex 0 30.5791 1.49852
    endloop
  endfacet
  facet normal 1 -0 0
    outer loop
      vertex 0 29.1976 1.30436
      vertex 0 56.14 1
      vertex 0 29.8917 1.37732
    endloop
  endfacet
  facet normal 1 -0 0
    outer loop
      vertex 0 28.5 1.28
      vertex 0 56.14 1
      vertex 0 29.1976 1.30436
    endloop
  endfacet
  facet normal 1 0 0
    outer loop
      vertex 0 0 1
      vertex 0 21.6496 4
      vertex 0 0 4
    endloop
  endfacet
  facet normal 1 0 0
    outer loop
      vertex 0 21.6496 4
      vertex 0 0 1
      vertex 0 22.0721 3.61956
    endloop
  endfacet
  facet normal 1 0 0
    outer loop
      vertex 0 22.0721 3.61956
      vertex 0 0 1
      vertex 0 22.6221 3.18983
    endloop
  endfacet
  facet normal 1 0 0
    outer loop
      vertex 0 22.6221 3.18983
      vertex 0 0 1
      vertex 0 23.2008 2.79952
    endloop
  endfacet
  facet normal 1 0 0
    outer loop
      vertex 0 23.2008 2.79952
      vertex 0 0 1
      vertex 0 23.8053 2.45052
    endloop
  endfacet
  facet normal 1 0 0
    outer loop
      vertex 0 23.8053 2.45052
      vertex 0 0 1
      vertex 0 24.4326 2.14454
    endloop
  endfacet
  facet normal 1 0 0
    outer loop
      vertex 0 24.4326 2.14454
      vertex 0 0 1
      vertex 0 25.0798 1.88307
    endloop
  endfacet
  facet normal 1 0 0
    outer loop
      vertex 0 25.0798 1.88307
      vertex 0 0 1
      vertex 0 25.7436 1.66738
    endloop
  endfacet
  facet normal 1 0 0
    outer loop
      vertex 0 25.7436 1.66738
      vertex 0 0 1
      vertex 0 26.4209 1.49852
    endloop
  endfacet
  facet normal 1 0 0
    outer loop
      vertex 0 26.4209 1.49852
      vertex 0 0 1
      vertex 0 27.1083 1.37732
    endloop
  endfacet
  facet normal 1 0 0
    outer loop
      vertex 0 28.5 1.28
      vertex 0 0 1
      vertex 0 56.14 1
    endloop
  endfacet
  facet normal 1 0 0
    outer loop
      vertex 0 27.8024 1.30436
      vertex 0 0 1
      vertex 0 28.5 1.28
    endloop
  endfacet
  facet normal 1 0 0
    outer loop
      vertex 0 27.1083 1.37732
      vertex 0 0 1
      vertex 0 27.8024 1.30436
    endloop
  endfacet
  facet normal -1 0 0
    outer loop
      vertex 108.64 56.14 1
      vertex 108.64 35.3504 4
      vertex 108.64 56.14 4
    endloop
  endfacet
  facet normal -1 0 0
    outer loop
      vertex 108.64 56.14 1
      vertex 108.64 34.9279 3.61956
      vertex 108.64 35.3504 4
    endloop
  endfacet
  facet normal -1 0 0
    outer loop
      vertex 108.64 56.14 1
      vertex 108.64 34.3779 3.18983
      vertex 108.64 34.9279 3.61956
    endloop
  endfacet
  facet normal -1 0 0
    outer loop
      vertex 108.64 56.14 1
      vertex 108.64 33.7992 2.79952
      vertex 108.64 34.3779 3.18983
    endloop
  endfacet
  facet normal -1 0 0
    outer loop
      vertex 108.64 56.14 1
      vertex 108.64 33.1947 2.45052
      vertex 108.64 33.7992 2.79952
    endloop
  endfacet
  facet normal -1 0 0
    outer loop
      vertex 108.64 56.14 1
      vertex 108.64 32.5674 2.14454
      vertex 108.64 33.1947 2.45052
    endloop
  endfacet
  facet normal -1 0 0
    outer loop
      vertex 108.64 56.14 1
      vertex 108.64 31.9202 1.88307
      vertex 108.64 32.5674 2.14454
    endloop
  endfacet
  facet normal -1 0 0
    outer loop
      vertex 108.64 56.14 1
      vertex 108.64 31.2564 1.66738
      vertex 108.64 31.9202 1.88307
    endloop
  endfacet
  facet normal -1 0 0
    outer loop
      vertex 108.64 56.14 1
      vertex 108.64 30.5791 1.49852
      vertex 108.64 31.2564 1.66738
    endloop
  endfacet
  facet normal -1 0 0
    outer loop
      vertex 108.64 56.14 1
      vertex 108.64 29.8917 1.37732
      vertex 108.64 30.5791 1.49852
    endloop
  endfacet
  facet normal -1 0 0
    outer loop
      vertex 108.64 56.14 1
      vertex 108.64 29.1976 1.30436
      vertex 108.64 29.8917 1.37732
    endloop
  endfacet
  facet normal -1 0 0
    outer loop
      vertex 108.64 56.14 1
      vertex 108.64 28.5 1.28
      vertex 108.64 29.1976 1.30436
    endloop
  endfacet
  facet normal -1 0 0
    outer loop
      vertex 108.64 0 1
      vertex 108.64 28.5 1.28
      vertex 108.64 56.14 1
    endloop
  endfacet
  facet normal -1 0 0
    outer loop
      vertex 108.64 0 1
      vertex 108.64 27.8024 1.30436
      vertex 108.64 28.5 1.28
    endloop
  endfacet
  facet normal -1 0 0
    outer loop
      vertex 108.64 0 1
      vertex 108.64 27.1083 1.37732
      vertex 108.64 27.8024 1.30436
    endloop
  endfacet
  facet normal -1 0 0
    outer loop
      vertex 108.64 0 1
      vertex 108.64 26.4209 1.49852
      vertex 108.64 27.1083 1.37732
    endloop
  endfacet
  facet normal -1 0 0
    outer loop
      vertex 108.64 0 1
      vertex 108.64 25.7436 1.66738
      vertex 108.64 26.4209 1.49852
    endloop
  endfacet
  facet normal -1 0 0
    outer loop
      vertex 108.64 0 1
      vertex 108.64 25.0798 1.88307
      vertex 108.64 25.7436 1.66738
    endloop
  endfacet
  facet normal -1 0 0
    outer loop
      vertex 108.64 0 1
      vertex 108.64 24.4326 2.14454
      vertex 108.64 25.0798 1.88307
    endloop
  endfacet
  facet normal -1 0 0
    outer loop
      vertex 108.64 0 1
      vertex 108.64 23.8053 2.45052
      vertex 108.64 24.4326 2.14454
    endloop
  endfacet
  facet normal -1 0 0
    outer loop
      vertex 108.64 0 1
      vertex 108.64 23.2008 2.79952
      vertex 108.64 23.8053 2.45052
    endloop
  endfacet
  facet normal -1 0 0
    outer loop
      vertex 108.64 0 1
      vertex 108.64 22.6221 3.18983
      vertex 108.64 23.2008 2.79952
    endloop
  endfacet
  facet normal -1 0 0
    outer loop
      vertex 108.64 0 1
      vertex 108.64 22.0721 3.61956
      vertex 108.64 22.6221 3.18983
    endloop
  endfacet
  facet normal -1 0 0
    outer loop
      vertex 108.64 0 1
      vertex 108.64 21.6496 4
      vertex 108.64 22.0721 3.61956
    endloop
  endfacet
  facet normal -1 -0 0
    outer loop
      vertex 108.64 21.6496 4
      vertex 108.64 0 1
      vertex 108.64 0 4
    endloop
  endfacet
  facet normal 0 -1 0
    outer loop
      vertex 0 56.14 1
      vertex 108.64 56.14 4
      vertex 0 56.14 4
    endloop
  endfacet
  facet normal 0 -1 -0
    outer loop
      vertex 108.64 56.14 4
      vertex 0 56.14 1
      vertex 108.64 56.14 1
    endloop
  endfacet
  facet normal -0 0 1
    outer loop
      vertex 0 56.14 1
      vertex 108.64 0 1
      vertex 108.64 56.14 1
    endloop
  endfacet
  facet normal 0 0 1
    outer loop
      vertex 108.64 0 1
      vertex 0 56.14 1
      vertex 0 0 1
    endloop
  endfacet
  facet normal 0 1 -0
    outer loop
      vertex 108.64 0 1
      vertex 0 0 4
      vertex 108.64 0 4
    endloop
  endfacet
  facet normal 0 1 0
    outer loop
      vertex 0 0 4
      vertex 108.64 0 1
      vertex 0 0 1
    endloop
  endfacet
  facet normal 0 -0.5 0.866025
    outer loop
      vertex -0.86 33.7992 2.79952
      vertex 0 33.1947 2.45052
      vertex 0 33.7992 2.79952
    endloop
  endfacet
  facet normal 0 -0.5 0.866025
    outer loop
      vertex 0 33.1947 2.45052
      vertex -0.86 33.7992 2.79952
      vertex -0.86 33.1947 2.45052
    endloop
  endfacet
  facet normal 0 -0.5 0.866025
    outer loop
      vertex 108.64 33.7992 2.79952
      vertex 109.5 33.1947 2.45052
      vertex 109.5 33.7992 2.79952
    endloop
  endfacet
  facet normal 0 -0.5 0.866025
    outer loop
      vertex 109.5 33.1947 2.45052
      vertex 108.64 33.7992 2.79952
      vertex 108.64 33.1947 2.45052
    endloop
  endfacet
  facet normal -0 0.66913 0.743146
    outer loop
      vertex -0.86 22.0721 3.61956
      vertex 0 21.6496 4
      vertex 0 22.0721 3.61956
    endloop
  endfacet
  facet normal 0 0.66913 0.743146
    outer loop
      vertex 0 21.6496 4
      vertex -0.86 22.0721 3.61956
      vertex -0.86 21.6496 4
    endloop
  endfacet
  facet normal -0 0.66913 0.743146
    outer loop
      vertex 108.64 22.0721 3.61956
      vertex 109.5 21.6496 4
      vertex 109.5 22.0721 3.61956
    endloop
  endfacet
  facet normal 0 0.66913 0.743146
    outer loop
      vertex 109.5 21.6496 4
      vertex 108.64 22.0721 3.61956
      vertex 108.64 21.6496 4
    endloop
  endfacet
  facet normal 0 -0.104527 0.994522
    outer loop
      vertex -0.86 29.8917 1.37732
      vertex 0 29.1976 1.30436
      vertex 0 29.8917 1.37732
    endloop
  endfacet
  facet normal 0 -0.104527 0.994522
    outer loop
      vertex 0 29.1976 1.30436
      vertex -0.86 29.8917 1.37732
      vertex -0.86 29.1976 1.30436
    endloop
  endfacet
  facet normal 0 -0.104527 0.994522
    outer loop
      vertex 108.64 29.8917 1.37732
      vertex 109.5 29.1976 1.30436
      vertex 109.5 29.8917 1.37732
    endloop
  endfacet
  facet normal 0 -0.104527 0.994522
    outer loop
      vertex 109.5 29.1976 1.30436
      vertex 108.64 29.8917 1.37732
      vertex 108.64 29.1976 1.30436
    endloop
  endfacet
  facet normal 0 -0.309018 0.951056
    outer loop
      vertex -0.86 31.9202 1.88307
      vertex 0 31.2564 1.66738
      vertex 0 31.9202 1.88307
    endloop
  endfacet
  facet normal 0 -0.309018 0.951056
    outer loop
      vertex 0 31.2564 1.66738
      vertex -0.86 31.9202 1.88307
      vertex -0.86 31.2564 1.66738
    endloop
  endfacet
  facet normal 0 -0.309018 0.951056
    outer loop
      vertex 108.64 31.9202 1.88307
      vertex 109.5 31.2564 1.66738
      vertex 109.5 31.9202 1.88307
    endloop
  endfacet
  facet normal 0 -0.309018 0.951056
    outer loop
      vertex 109.5 31.2564 1.66738
      vertex 108.64 31.9202 1.88307
      vertex 108.64 31.2564 1.66738
    endloop
  endfacet
  facet normal 0 -0.0348999 0.999391
    outer loop
      vertex -0.86 29.1976 1.30436
      vertex 0 28.5 1.28
      vertex 0 29.1976 1.30436
    endloop
  endfacet
  facet normal 0 -0.0348999 0.999391
    outer loop
      vertex 0 28.5 1.28
      vertex -0.86 29.1976 1.30436
      vertex -0.86 28.5 1.28
    endloop
  endfacet
  facet normal 0 -0.0348999 0.999391
    outer loop
      vertex 108.64 29.1976 1.30436
      vertex 109.5 28.5 1.28
      vertex 109.5 29.1976 1.30436
    endloop
  endfacet
  facet normal 0 -0.0348999 0.999391
    outer loop
      vertex 109.5 28.5 1.28
      vertex 108.64 29.1976 1.30436
      vertex 108.64 28.5 1.28
    endloop
  endfacet
  facet normal -0 0.309017 0.951057
    outer loop
      vertex -0.86 25.7436 1.66738
      vertex 0 25.0798 1.88307
      vertex 0 25.7436 1.66738
    endloop
  endfacet
  facet normal 0 0.309017 0.951057
    outer loop
      vertex 0 25.0798 1.88307
      vertex -0.86 25.7436 1.66738
      vertex -0.86 25.0798 1.88307
    endloop
  endfacet
  facet normal -0 0.309017 0.951057
    outer loop
      vertex 108.64 25.7436 1.66738
      vertex 109.5 25.0798 1.88307
      vertex 109.5 25.7436 1.66738
    endloop
  endfacet
  facet normal 0 0.309017 0.951057
    outer loop
      vertex 109.5 25.0798 1.88307
      vertex 108.64 25.7436 1.66738
      vertex 108.64 25.0798 1.88307
    endloop
  endfacet
  facet normal -0 0.5 0.866025
    outer loop
      vertex -0.86 23.8053 2.45052
      vertex 0 23.2008 2.79952
      vertex 0 23.8053 2.45052
    endloop
  endfacet
  facet normal 0 0.5 0.866025
    outer loop
      vertex 0 23.2008 2.79952
      vertex -0.86 23.8053 2.45052
      vertex -0.86 23.2008 2.79952
    endloop
  endfacet
  facet normal -0 0.5 0.866025
    outer loop
      vertex 108.64 23.8053 2.45052
      vertex 109.5 23.2008 2.79952
      vertex 109.5 23.8053 2.45052
    endloop
  endfacet
  facet normal 0 0.5 0.866025
    outer loop
      vertex 109.5 23.2008 2.79952
      vertex 108.64 23.8053 2.45052
      vertex 108.64 23.2008 2.79952
    endloop
  endfacet
  facet normal 0 -0.173649 0.984808
    outer loop
      vertex -0.86 30.5791 1.49852
      vertex 0 29.8917 1.37732
      vertex 0 30.5791 1.49852
    endloop
  endfacet
  facet normal 0 -0.173649 0.984808
    outer loop
      vertex 0 29.8917 1.37732
      vertex -0.86 30.5791 1.49852
      vertex -0.86 29.8917 1.37732
    endloop
  endfacet
  facet normal 0 -0.173649 0.984808
    outer loop
      vertex 108.64 30.5791 1.49852
      vertex 109.5 29.8917 1.37732
      vertex 109.5 30.5791 1.49852
    endloop
  endfacet
  facet normal 0 -0.173649 0.984808
    outer loop
      vertex 109.5 29.8917 1.37732
      vertex 108.64 30.5791 1.49852
      vertex 108.64 29.8917 1.37732
    endloop
  endfacet
  facet normal 0 -0.438371 0.898794
    outer loop
      vertex -0.86 33.1947 2.45052
      vertex 0 32.5674 2.14454
      vertex 0 33.1947 2.45052
    endloop
  endfacet
  facet normal 0 -0.438371 0.898794
    outer loop
      vertex 0 32.5674 2.14454
      vertex -0.86 33.1947 2.45052
      vertex -0.86 32.5674 2.14454
    endloop
  endfacet
  facet normal 0 -0.438371 0.898794
    outer loop
      vertex 108.64 33.1947 2.45052
      vertex 109.5 32.5674 2.14454
      vertex 109.5 33.1947 2.45052
    endloop
  endfacet
  facet normal 0 -0.438371 0.898794
    outer loop
      vertex 109.5 32.5674 2.14454
      vertex 108.64 33.1947 2.45052
      vertex 108.64 32.5674 2.14454
    endloop
  endfacet
  facet normal 0 -0.374606 0.927184
    outer loop
      vertex -0.86 32.5674 2.14454
      vertex 0 31.9202 1.88307
      vertex 0 32.5674 2.14454
    endloop
  endfacet
  facet normal 0 -0.374606 0.927184
    outer loop
      vertex 0 31.9202 1.88307
      vertex -0.86 32.5674 2.14454
      vertex -0.86 31.9202 1.88307
    endloop
  endfacet
  facet normal 0 -0.374606 0.927184
    outer loop
      vertex 108.64 32.5674 2.14454
      vertex 109.5 31.9202 1.88307
      vertex 109.5 32.5674 2.14454
    endloop
  endfacet
  facet normal 0 -0.374606 0.927184
    outer loop
      vertex 109.5 31.9202 1.88307
      vertex 108.64 32.5674 2.14454
      vertex 108.64 31.9202 1.88307
    endloop
  endfacet
  facet normal 0 -0.559194 0.829037
    outer loop
      vertex -0.86 34.3779 3.18983
      vertex 0 33.7992 2.79952
      vertex 0 34.3779 3.18983
    endloop
  endfacet
  facet normal 0 -0.559194 0.829037
    outer loop
      vertex 0 33.7992 2.79952
      vertex -0.86 34.3779 3.18983
      vertex -0.86 33.7992 2.79952
    endloop
  endfacet
  facet normal 0 -0.559194 0.829037
    outer loop
      vertex 108.64 34.3779 3.18983
      vertex 109.5 33.7992 2.79952
      vertex 109.5 34.3779 3.18983
    endloop
  endfacet
  facet normal 0 -0.559194 0.829037
    outer loop
      vertex 109.5 33.7992 2.79952
      vertex 108.64 34.3779 3.18983
      vertex 108.64 33.7992 2.79952
    endloop
  endfacet
  facet normal 0 -0.615663 0.78801
    outer loop
      vertex -0.86 34.9279 3.61956
      vertex 0 34.3779 3.18983
      vertex 0 34.9279 3.61956
    endloop
  endfacet
  facet normal 0 -0.615663 0.78801
    outer loop
      vertex 0 34.3779 3.18983
      vertex -0.86 34.9279 3.61956
      vertex -0.86 34.3779 3.18983
    endloop
  endfacet
  facet normal 0 -0.615663 0.78801
    outer loop
      vertex 108.64 34.9279 3.61956
      vertex 109.5 34.3779 3.18983
      vertex 109.5 34.9279 3.61956
    endloop
  endfacet
  facet normal 0 -0.615663 0.78801
    outer loop
      vertex 109.5 34.3779 3.18983
      vertex 108.64 34.9279 3.61956
      vertex 108.64 34.3779 3.18983
    endloop
  endfacet
  facet normal -0 0.0348998 0.999391
    outer loop
      vertex -0.86 28.5 1.28
      vertex 0 27.8024 1.30436
      vertex 0 28.5 1.28
    endloop
  endfacet
  facet normal 0 0.0348998 0.999391
    outer loop
      vertex 0 27.8024 1.30436
      vertex -0.86 28.5 1.28
      vertex -0.86 27.8024 1.30436
    endloop
  endfacet
  facet normal -0 0.0348998 0.999391
    outer loop
      vertex 108.64 28.5 1.28
      vertex 109.5 27.8024 1.30436
      vertex 109.5 28.5 1.28
    endloop
  endfacet
  facet normal 0 0.0348998 0.999391
    outer loop
      vertex 109.5 27.8024 1.30436
      vertex 108.64 28.5 1.28
      vertex 108.64 27.8024 1.30436
    endloop
  endfacet
  facet normal -0 0.104527 0.994522
    outer loop
      vertex -0.86 27.8024 1.30436
      vertex 0 27.1083 1.37732
      vertex 0 27.8024 1.30436
    endloop
  endfacet
  facet normal 0 0.104527 0.994522
    outer loop
      vertex 0 27.1083 1.37732
      vertex -0.86 27.8024 1.30436
      vertex -0.86 27.1083 1.37732
    endloop
  endfacet
  facet normal -0 0.104527 0.994522
    outer loop
      vertex 108.64 27.8024 1.30436
      vertex 109.5 27.1083 1.37732
      vertex 109.5 27.8024 1.30436
    endloop
  endfacet
  facet normal 0 0.104527 0.994522
    outer loop
      vertex 109.5 27.1083 1.37732
      vertex 108.64 27.8024 1.30436
      vertex 108.64 27.1083 1.37732
    endloop
  endfacet
  facet normal -0 0.241921 0.970296
    outer loop
      vertex -0.86 26.4209 1.49852
      vertex 0 25.7436 1.66738
      vertex 0 26.4209 1.49852
    endloop
  endfacet
  facet normal 0 0.241921 0.970296
    outer loop
      vertex 0 25.7436 1.66738
      vertex -0.86 26.4209 1.49852
      vertex -0.86 25.7436 1.66738
    endloop
  endfacet
  facet normal -0 0.241921 0.970296
    outer loop
      vertex 108.64 26.4209 1.49852
      vertex 109.5 25.7436 1.66738
      vertex 109.5 26.4209 1.49852
    endloop
  endfacet
  facet normal 0 0.241921 0.970296
    outer loop
      vertex 109.5 25.7436 1.66738
      vertex 108.64 26.4209 1.49852
      vertex 108.64 25.7436 1.66738
    endloop
  endfacet
  facet normal -0 0.438371 0.898794
    outer loop
      vertex -0.86 24.4326 2.14454
      vertex 0 23.8053 2.45052
      vertex 0 24.4326 2.14454
    endloop
  endfacet
  facet normal 0 0.438371 0.898794
    outer loop
      vertex 0 23.8053 2.45052
      vertex -0.86 24.4326 2.14454
      vertex -0.86 23.8053 2.45052
    endloop
  endfacet
  facet normal -0 0.438371 0.898794
    outer loop
      vertex 108.64 24.4326 2.14454
      vertex 109.5 23.8053 2.45052
      vertex 109.5 24.4326 2.14454
    endloop
  endfacet
  facet normal 0 0.438371 0.898794
    outer loop
      vertex 109.5 23.8053 2.45052
      vertex 108.64 24.4326 2.14454
      vertex 108.64 23.8053 2.45052
    endloop
  endfacet
  facet normal -0 0.559194 0.829037
    outer loop
      vertex -0.86 23.2008 2.79952
      vertex 0 22.6221 3.18983
      vertex 0 23.2008 2.79952
    endloop
  endfacet
  facet normal 0 0.559194 0.829037
    outer loop
      vertex 0 22.6221 3.18983
      vertex -0.86 23.2008 2.79952
      vertex -0.86 22.6221 3.18983
    endloop
  endfacet
  facet normal -0 0.559194 0.829037
    outer loop
      vertex 108.64 23.2008 2.79952
      vertex 109.5 22.6221 3.18983
      vertex 109.5 23.2008 2.79952
    endloop
  endfacet
  facet normal 0 0.559194 0.829037
    outer loop
      vertex 109.5 22.6221 3.18983
      vertex 108.64 23.2008 2.79952
      vertex 108.64 22.6221 3.18983
    endloop
  endfacet
  facet normal 0 -0.241921 0.970296
    outer loop
      vertex -0.86 31.2564 1.66738
      vertex 0 30.5791 1.49852
      vertex 0 31.2564 1.66738
    endloop
  endfacet
  facet normal 0 -0.241921 0.970296
    outer loop
      vertex 0 30.5791 1.49852
      vertex -0.86 31.2564 1.66738
      vertex -0.86 30.5791 1.49852
    endloop
  endfacet
  facet normal 0 -0.241921 0.970296
    outer loop
      vertex 108.64 31.2564 1.66738
      vertex 109.5 30.5791 1.49852
      vertex 109.5 31.2564 1.66738
    endloop
  endfacet
  facet normal 0 -0.241921 0.970296
    outer loop
      vertex 109.5 30.5791 1.49852
      vertex 108.64 31.2564 1.66738
      vertex 108.64 30.5791 1.49852
    endloop
  endfacet
  facet normal 0 -0.66913 0.743146
    outer loop
      vertex -0.86 35.3504 4
      vertex 0 34.9279 3.61956
      vertex 0 35.3504 4
    endloop
  endfacet
  facet normal 0 -0.66913 0.743146
    outer loop
      vertex 0 34.9279 3.61956
      vertex -0.86 35.3504 4
      vertex -0.86 34.9279 3.61956
    endloop
  endfacet
  facet normal 0 -0.66913 0.743146
    outer loop
      vertex 108.64 35.3504 4
      vertex 109.5 34.9279 3.61956
      vertex 109.5 35.3504 4
    endloop
  endfacet
  facet normal 0 -0.66913 0.743146
    outer loop
      vertex 109.5 34.9279 3.61956
      vertex 108.64 35.3504 4
      vertex 108.64 34.9279 3.61956
    endloop
  endfacet
  facet normal -0 0.173649 0.984808
    outer loop
      vertex -0.86 27.1083 1.37732
      vertex 0 26.4209 1.49852
      vertex 0 27.1083 1.37732
    endloop
  endfacet
  facet normal 0 0.173649 0.984808
    outer loop
      vertex 0 26.4209 1.49852
      vertex -0.86 27.1083 1.37732
      vertex -0.86 26.4209 1.49852
    endloop
  endfacet
  facet normal -0 0.173649 0.984808
    outer loop
      vertex 108.64 27.1083 1.37732
      vertex 109.5 26.4209 1.49852
      vertex 109.5 27.1083 1.37732
    endloop
  endfacet
  facet normal 0 0.173649 0.984808
    outer loop
      vertex 109.5 26.4209 1.49852
      vertex 108.64 27.1083 1.37732
      vertex 108.64 26.4209 1.49852
    endloop
  endfacet
  facet normal -0 0.374607 0.927184
    outer loop
      vertex -0.86 25.0798 1.88307
      vertex 0 24.4326 2.14454
      vertex 0 25.0798 1.88307
    endloop
  endfacet
  facet normal 0 0.374607 0.927184
    outer loop
      vertex 0 24.4326 2.14454
      vertex -0.86 25.0798 1.88307
      vertex -0.86 24.4326 2.14454
    endloop
  endfacet
  facet normal -0 0.374607 0.927184
    outer loop
      vertex 108.64 25.0798 1.88307
      vertex 109.5 24.4326 2.14454
      vertex 109.5 25.0798 1.88307
    endloop
  endfacet
  facet normal 0 0.374607 0.927184
    outer loop
      vertex 109.5 24.4326 2.14454
      vertex 108.64 25.0798 1.88307
      vertex 108.64 24.4326 2.14454
    endloop
  endfacet
  facet normal -0 0.615663 0.78801
    outer loop
      vertex -0.86 22.6221 3.18983
      vertex 0 22.0721 3.61956
      vertex 0 22.6221 3.18983
    endloop
  endfacet
  facet normal 0 0.615663 0.78801
    outer loop
      vertex 0 22.0721 3.61956
      vertex -0.86 22.6221 3.18983
      vertex -0.86 22.0721 3.61956
    endloop
  endfacet
  facet normal -0 0.615663 0.78801
    outer loop
      vertex 108.64 22.6221 3.18983
      vertex 109.5 22.0721 3.61956
      vertex 109.5 22.6221 3.18983
    endloop
  endfacet
  facet normal 0 0.615663 0.78801
    outer loop
      vertex 109.5 22.0721 3.61956
      vertex 108.64 22.6221 3.18983
      vertex 108.64 22.0721 3.61956
    endloop
  endfacet
endsolid OpenSCAD_Model
