solid OpenSCAD_Model
  facet normal 0 1 -0
    outer loop
      vertex 53 88 0
      vertex 0 88 15
      vertex 53 88 15
    endloop
  endfacet
  facet normal 0 1 0
    outer loop
      vertex 0 88 15
      vertex 53 88 0
      vertex 0 88 0
    endloop
  endfacet
  facet normal 0 0 1
    outer loop
      vertex 53 88 15
      vertex 51.33 86.33 15
      vertex 53 1.8 15
    endloop
  endfacet
  facet normal 0 0 1
    outer loop
      vertex 53 88 15
      vertex 1.67 86.33 15
      vertex 51.33 86.33 15
    endloop
  endfacet
  facet normal 0 0 1
    outer loop
      vertex 1.67 86.33 15
      vertex 1.91402e-14 1.8 15
      vertex 1.67 3.47 15
    endloop
  endfacet
  facet normal 0 0 1
    outer loop
      vertex 1.67 86.33 15
      vertex 0 88 15
      vertex 1.91402e-14 1.8 15
    endloop
  endfacet
  facet normal -0 0 1
    outer loop
      vertex 0 88 15
      vertex 1.67 86.33 15
      vertex 53 88 15
    endloop
  endfacet
  facet normal -0 0 1
    outer loop
      vertex 51.33 3.47 15
      vertex 53 1.8 15
      vertex 51.33 86.33 15
    endloop
  endfacet
  facet normal -0 0 1
    outer loop
      vertex 1.67 3.47 15
      vertex 53 1.8 15
      vertex 51.33 3.47 15
    endloop
  endfacet
  facet normal 0 0 1
    outer loop
      vertex 53 1.8 15
      vertex 1.67 3.47 15
      vertex 1.91402e-14 1.8 15
    endloop
  endfacet
  facet normal -0 0 1
    outer loop
      vertex 3.34 70.33 15
      vertex 49.66 69.47 15
      vertex 49.66 70.33 15
    endloop
  endfacet
  facet normal 0 0 1
    outer loop
      vertex 49.66 69.47 15
      vertex 3.34 70.33 15
      vertex 3.34 69.47 15
    endloop
  endfacet
  facet normal 0 -1 0
    outer loop
      vertex 1.91402e-14 1.8 0
      vertex 53 1.8 15
      vertex 1.91402e-14 1.8 15
    endloop
  endfacet
  facet normal 0 -1 -0
    outer loop
      vertex 53 1.8 15
      vertex 1.91402e-14 1.8 0
      vertex 53 1.8 0
    endloop
  endfacet
  facet normal 1 -0 0
    outer loop
      vertex 53 1.8 15
      vertex 53 88 0
      vertex 53 88 15
    endloop
  endfacet
  facet normal 1 0 0
    outer loop
      vertex 53 88 0
      vertex 53 1.8 15
      vertex 53 1.8 0
    endloop
  endfacet
  facet normal 0 0 -1
    outer loop
      vertex 41.33 59.47 0
      vertex 53 1.8 0
      vertex 41.33 13.47 0
    endloop
  endfacet
  facet normal 0 0 -1
    outer loop
      vertex 53 1.8 0
      vertex 11.67 13.47 0
      vertex 41.33 13.47 0
    endloop
  endfacet
  facet normal -0 0 -1
    outer loop
      vertex 11.67 13.47 0
      vertex 1.91402e-14 1.8 0
      vertex 11.67 59.47 0
    endloop
  endfacet
  facet normal 0 0 -1
    outer loop
      vertex 1.91402e-14 1.8 0
      vertex 11.67 13.47 0
      vertex 53 1.8 0
    endloop
  endfacet
  facet normal 0 0 -1
    outer loop
      vertex 53 1.8 0
      vertex 41.33 59.47 0
      vertex 53 88 0
    endloop
  endfacet
  facet normal 0 0 -1
    outer loop
      vertex 11.67 59.47 0
      vertex 53 88 0
      vertex 41.33 59.47 0
    endloop
  endfacet
  facet normal 0 0 -1
    outer loop
      vertex 11.67 59.47 0
      vertex 0 88 0
      vertex 53 88 0
    endloop
  endfacet
  facet normal 0 0 -1
    outer loop
      vertex 0 88 0
      vertex 11.67 59.47 0
      vertex 1.91402e-14 1.8 0
    endloop
  endfacet
  facet normal -1 -2.22045e-16 0
    outer loop
      vertex 1.91402e-14 1.8 0
      vertex 0 88 15
      vertex 0 88 0
    endloop
  endfacet
  facet normal -1 -2.22045e-16 0
    outer loop
      vertex 0 88 15
      vertex 1.91402e-14 1.8 0
      vertex 1.91402e-14 1.8 15
    endloop
  endfacet
  facet normal 0 0.999391 0.0348924
    outer loop
      vertex 49.66 70.3495 8.44195
      vertex 3.34 70.3304 8.99
      vertex 49.66 70.3304 8.99
    endloop
  endfacet
  facet normal 0 0.999391 0.0348924
    outer loop
      vertex 3.34 70.3304 8.99
      vertex 49.66 70.3495 8.44195
      vertex 3.34 70.3495 8.44195
    endloop
  endfacet
  facet normal -0 0 1
    outer loop
      vertex 3.34 78.6092 1.00487
      vertex 49.66 78.0508 1.00487
      vertex 49.66 78.6092 1.00487
    endloop
  endfacet
  facet normal 0 0 1
    outer loop
      vertex 49.66 78.0508 1.00487
      vertex 3.34 78.6092 1.00487
      vertex 3.34 78.0508 1.00487
    endloop
  endfacet
  facet normal -0 0.694653 0.719345
    outer loop
      vertex 3.34 72.977 3.05484
      vertex 49.66 72.5753 3.44273
      vertex 49.66 72.977 3.05484
    endloop
  endfacet
  facet normal 0 0.694653 0.719345
    outer loop
      vertex 49.66 72.5753 3.44273
      vertex 3.34 72.977 3.05484
      vertex 3.34 72.5753 3.44273
    endloop
  endfacet
  facet normal 0 0.898795 0.43837
    outer loop
      vertex 49.66 71.2664 5.24423
      vertex 3.34 71.0216 5.74611
      vertex 49.66 71.0216 5.74611
    endloop
  endfacet
  facet normal 0 0.898795 0.43837
    outer loop
      vertex 3.34 71.0216 5.74611
      vertex 49.66 71.2664 5.24423
      vertex 3.34 71.2664 5.24423
    endloop
  endfacet
  facet normal 0 -0.999391 0.0348924
    outer loop
      vertex 3.34 86.3105 8.44195
      vertex 4.16997 86.3297 8.99
      vertex 3.34 86.3297 8.99
    endloop
  endfacet
  facet normal 0 -0.999391 0.0348924
    outer loop
      vertex 4.16997 86.3297 8.99
      vertex 3.34 86.3105 8.44195
      vertex 49.66 86.3105 8.44195
    endloop
  endfacet
  facet normal -0 0.34202 0.939693
    outer loop
      vertex 3.34 75.8579 1.39155
      vertex 49.66 75.3331 1.58253
      vertex 49.66 75.8579 1.39155
    endloop
  endfacet
  facet normal 0 0.34202 0.939693
    outer loop
      vertex 49.66 75.3331 1.58253
      vertex 3.34 75.8579 1.39155
      vertex 3.34 75.3331 1.58253
    endloop
  endfacet
  facet normal 0 0.970296 0.24192
    outer loop
      vertex 49.66 70.6399 6.7949
      vertex 3.34 70.5048 7.33671
      vertex 49.66 70.5048 7.33671
    endloop
  endfacet
  facet normal 0 0.970296 0.24192
    outer loop
      vertex 3.34 70.5048 7.33671
      vertex 49.66 70.6399 6.7949
      vertex 3.34 70.6399 6.7949
    endloop
  endfacet
  facet normal 0 -0.406737 0.913545
    outer loop
      vertex 3.34 81.837 1.80965
      vertex 49.66 81.3269 1.58253
      vertex 49.66 81.837 1.80965
    endloop
  endfacet
  facet normal 0 -0.406737 0.913545
    outer loop
      vertex 49.66 81.3269 1.58253
      vertex 3.34 81.837 1.80965
      vertex 3.34 81.3269 1.58253
    endloop
  endfacet
  facet normal 0 -0.74314 0.669136
    outer loop
      vertex 3.34 84.0847 3.44273
      vertex 49.66 84.4584 3.8577
      vertex 3.34 84.4584 3.8577
    endloop
  endfacet
  facet normal 0 -0.74314 0.669136
    outer loop
      vertex 49.66 84.4584 3.8577
      vertex 3.34 84.0847 3.44273
      vertex 49.66 84.0847 3.44273
    endloop
  endfacet
  facet normal -0 0.139172 0.990268
    outer loop
      vertex 3.34 77.4938 1.04382
      vertex 49.66 76.9408 1.12154
      vertex 49.66 77.4938 1.04382
    endloop
  endfacet
  facet normal 0 0.139172 0.990268
    outer loop
      vertex 49.66 76.9408 1.12154
      vertex 3.34 77.4938 1.04382
      vertex 3.34 76.9408 1.12154
    endloop
  endfacet
  facet normal -0 0.52992 0.848047
    outer loop
      vertex 3.34 74.33 2.0718
      vertex 49.66 73.8565 2.3677
      vertex 49.66 74.33 2.0718
    endloop
  endfacet
  facet normal 0 0.52992 0.848047
    outer loop
      vertex 49.66 73.8565 2.3677
      vertex 3.34 74.33 2.0718
      vertex 3.34 73.8565 2.3677
    endloop
  endfacet
  facet normal -0 0.469474 0.882946
    outer loop
      vertex 3.34 74.823 1.80965
      vertex 49.66 74.33 2.0718
      vertex 49.66 74.823 1.80965
    endloop
  endfacet
  facet normal 0 0.469474 0.882946
    outer loop
      vertex 49.66 74.33 2.0718
      vertex 3.34 74.823 1.80965
      vertex 3.34 74.33 2.0718
    endloop
  endfacet
  facet normal -0 0.0697558 0.997564
    outer loop
      vertex 3.34 78.0508 1.00487
      vertex 49.66 77.4938 1.04382
      vertex 49.66 78.0508 1.00487
    endloop
  endfacet
  facet normal 0 0.0697558 0.997564
    outer loop
      vertex 49.66 77.4938 1.04382
      vertex 3.34 78.0508 1.00487
      vertex 3.34 77.4938 1.04382
    endloop
  endfacet
  facet normal 0 0.829039 0.559191
    outer loop
      vertex 49.66 71.8579 4.29772
      vertex 3.34 71.5456 4.76065
      vertex 49.66 71.5456 4.76065
    endloop
  endfacet
  facet normal 0 0.829039 0.559191
    outer loop
      vertex 3.34 71.5456 4.76065
      vertex 49.66 71.8579 4.29772
      vertex 3.34 71.8579 4.29772
    endloop
  endfacet
  facet normal 0 0.866024 0.500002
    outer loop
      vertex 49.66 71.5456 4.76065
      vertex 3.34 71.2664 5.24423
      vertex 49.66 71.2664 5.24423
    endloop
  endfacet
  facet normal 0 0.866024 0.500002
    outer loop
      vertex 3.34 71.2664 5.24423
      vertex 49.66 71.5456 4.76065
      vertex 3.34 71.5456 4.76065
    endloop
  endfacet
  facet normal 0 0.788011 0.615662
    outer loop
      vertex 49.66 72.2016 3.8577
      vertex 3.34 71.8579 4.29772
      vertex 49.66 71.8579 4.29772
    endloop
  endfacet
  facet normal 0 0.788011 0.615662
    outer loop
      vertex 3.34 71.8579 4.29772
      vertex 49.66 72.2016 3.8577
      vertex 3.34 72.2016 3.8577
    endloop
  endfacet
  facet normal 0 0.994522 0.104523
    outer loop
      vertex 49.66 70.4079 7.88661
      vertex 3.34 70.3495 8.44195
      vertex 49.66 70.3495 8.44195
    endloop
  endfacet
  facet normal 0 0.994522 0.104523
    outer loop
      vertex 3.34 70.3495 8.44195
      vertex 49.66 70.4079 7.88661
      vertex 3.34 70.4079 7.88661
    endloop
  endfacet
  facet normal 0 -0.207913 0.978147
    outer loop
      vertex 3.34 80.2654 1.23763
      vertex 49.66 79.7192 1.12154
      vertex 49.66 80.2654 1.23763
    endloop
  endfacet
  facet normal 0 -0.207913 0.978147
    outer loop
      vertex 49.66 79.7192 1.12154
      vertex 3.34 80.2654 1.23763
      vertex 3.34 79.7192 1.12154
    endloop
  endfacet
  facet normal -1 0 0
    outer loop
      vertex 49.66 86.2521 7.88661
      vertex 49.66 86.3297 8.99
      vertex 49.66 86.3105 8.44195
    endloop
  endfacet
  facet normal -1 0 0
    outer loop
      vertex 49.66 86.1552 7.33671
      vertex 49.66 86.3297 8.99
      vertex 49.66 86.2521 7.88661
    endloop
  endfacet
  facet normal -1 0 0
    outer loop
      vertex 49.66 86.0201 6.7949
      vertex 49.66 86.3297 8.99
      vertex 49.66 86.1552 7.33671
    endloop
  endfacet
  facet normal -1 0 0
    outer loop
      vertex 49.66 85.8475 6.26384
      vertex 49.66 86.3297 8.99
      vertex 49.66 86.0201 6.7949
    endloop
  endfacet
  facet normal -1 0 0
    outer loop
      vertex 49.66 85.6384 5.74611
      vertex 49.66 86.3297 8.99
      vertex 49.66 85.8475 6.26384
    endloop
  endfacet
  facet normal -1 0 0
    outer loop
      vertex 49.66 85.3936 5.24423
      vertex 49.66 86.3297 8.99
      vertex 49.66 85.6384 5.74611
    endloop
  endfacet
  facet normal -1 0 0
    outer loop
      vertex 49.66 85.1144 4.76065
      vertex 49.66 86.3297 8.99
      vertex 49.66 85.3936 5.24423
    endloop
  endfacet
  facet normal -1 0 0
    outer loop
      vertex 49.66 84.8021 4.29772
      vertex 49.66 86.3297 8.99
      vertex 49.66 85.1144 4.76065
    endloop
  endfacet
  facet normal -1 0 0
    outer loop
      vertex 49.66 84.4584 3.8577
      vertex 49.66 86.3297 8.99
      vertex 49.66 84.8021 4.29772
    endloop
  endfacet
  facet normal -1 0 0
    outer loop
      vertex 49.66 84.0847 3.44273
      vertex 49.66 86.3297 8.99
      vertex 49.66 84.4584 3.8577
    endloop
  endfacet
  facet normal -1 0 0
    outer loop
      vertex 49.66 83.683 3.05484
      vertex 49.66 86.3297 8.99
      vertex 49.66 84.0847 3.44273
    endloop
  endfacet
  facet normal -1 0 0
    outer loop
      vertex 49.66 83.2553 2.69591
      vertex 49.66 86.3297 8.99
      vertex 49.66 83.683 3.05484
    endloop
  endfacet
  facet normal -1 0 0
    outer loop
      vertex 49.66 82.8035 2.3677
      vertex 49.66 86.3297 8.99
      vertex 49.66 83.2553 2.69591
    endloop
  endfacet
  facet normal -1 0 0
    outer loop
      vertex 49.66 82.33 2.0718
      vertex 49.66 86.3297 8.99
      vertex 49.66 82.8035 2.3677
    endloop
  endfacet
  facet normal -1 0 0
    outer loop
      vertex 49.66 81.837 1.80965
      vertex 49.66 86.3297 8.99
      vertex 49.66 82.33 2.0718
    endloop
  endfacet
  facet normal -1 0 0
    outer loop
      vertex 49.66 81.3269 1.58253
      vertex 49.66 86.3297 8.99
      vertex 49.66 81.837 1.80965
    endloop
  endfacet
  facet normal -1 0 0
    outer loop
      vertex 49.66 80.8021 1.39155
      vertex 49.66 86.3297 8.99
      vertex 49.66 81.3269 1.58253
    endloop
  endfacet
  facet normal -1 0 0
    outer loop
      vertex 49.66 80.2654 1.23763
      vertex 49.66 86.3297 8.99
      vertex 49.66 80.8021 1.39155
    endloop
  endfacet
  facet normal -1 0 0
    outer loop
      vertex 49.66 79.7192 1.12154
      vertex 49.66 86.3297 8.99
      vertex 49.66 80.2654 1.23763
    endloop
  endfacet
  facet normal -1 0 0
    outer loop
      vertex 49.66 79.1662 1.04382
      vertex 49.66 86.3297 8.99
      vertex 49.66 79.7192 1.12154
    endloop
  endfacet
  facet normal -1 0 0
    outer loop
      vertex 49.66 78.6092 1.00487
      vertex 49.66 86.3297 8.99
      vertex 49.66 79.1662 1.04382
    endloop
  endfacet
  facet normal -1 0 0
    outer loop
      vertex 49.66 78.0508 1.00487
      vertex 49.66 86.3297 8.99
      vertex 49.66 78.6092 1.00487
    endloop
  endfacet
  facet normal -1 0 0
    outer loop
      vertex 49.66 77.4938 1.04382
      vertex 49.66 86.3297 8.99
      vertex 49.66 78.0508 1.00487
    endloop
  endfacet
  facet normal -1 0 0
    outer loop
      vertex 49.66 76.9408 1.12154
      vertex 49.66 86.3297 8.99
      vertex 49.66 77.4938 1.04382
    endloop
  endfacet
  facet normal -1 0 0
    outer loop
      vertex 49.66 76.3946 1.23763
      vertex 49.66 86.3297 8.99
      vertex 49.66 76.9408 1.12154
    endloop
  endfacet
  facet normal -1 0 0
    outer loop
      vertex 49.66 75.8579 1.39155
      vertex 49.66 86.3297 8.99
      vertex 49.66 76.3946 1.23763
    endloop
  endfacet
  facet normal -1 0 0
    outer loop
      vertex 49.66 75.3331 1.58253
      vertex 49.66 86.3297 8.99
      vertex 49.66 75.8579 1.39155
    endloop
  endfacet
  facet normal -1 0 0
    outer loop
      vertex 49.66 74.823 1.80965
      vertex 49.66 86.3297 8.99
      vertex 49.66 75.3331 1.58253
    endloop
  endfacet
  facet normal -1 0 0
    outer loop
      vertex 49.66 74.33 2.0718
      vertex 49.66 86.3297 8.99
      vertex 49.66 74.823 1.80965
    endloop
  endfacet
  facet normal -1 0 0
    outer loop
      vertex 49.66 73.8565 2.3677
      vertex 49.66 86.3297 8.99
      vertex 49.66 74.33 2.0718
    endloop
  endfacet
  facet normal -1 0 0
    outer loop
      vertex 49.66 73.4047 2.69591
      vertex 49.66 86.3297 8.99
      vertex 49.66 73.8565 2.3677
    endloop
  endfacet
  facet normal -1 0 0
    outer loop
      vertex 49.66 72.977 3.05484
      vertex 49.66 86.3297 8.99
      vertex 49.66 73.4047 2.69591
    endloop
  endfacet
  facet normal -1 0 0
    outer loop
      vertex 49.66 72.5753 3.44273
      vertex 49.66 86.3297 8.99
      vertex 49.66 72.977 3.05484
    endloop
  endfacet
  facet normal -1 0 0
    outer loop
      vertex 49.66 72.2016 3.8577
      vertex 49.66 86.3297 8.99
      vertex 49.66 72.5753 3.44273
    endloop
  endfacet
  facet normal -1 0 0
    outer loop
      vertex 49.66 71.8579 4.29772
      vertex 49.66 86.3297 8.99
      vertex 49.66 72.2016 3.8577
    endloop
  endfacet
  facet normal -1 0 0
    outer loop
      vertex 49.66 71.5456 4.76065
      vertex 49.66 86.3297 8.99
      vertex 49.66 71.8579 4.29772
    endloop
  endfacet
  facet normal -1 0 0
    outer loop
      vertex 49.66 71.2664 5.24423
      vertex 49.66 86.3297 8.99
      vertex 49.66 71.5456 4.76065
    endloop
  endfacet
  facet normal -1 0 0
    outer loop
      vertex 49.66 71.0216 5.74611
      vertex 49.66 86.3297 8.99
      vertex 49.66 71.2664 5.24423
    endloop
  endfacet
  facet normal -1 0 0
    outer loop
      vertex 49.66 70.8125 6.26384
      vertex 49.66 86.3297 8.99
      vertex 49.66 71.0216 5.74611
    endloop
  endfacet
  facet normal -1 0 0
    outer loop
      vertex 49.66 70.6399 6.7949
      vertex 49.66 86.3297 8.99
      vertex 49.66 70.8125 6.26384
    endloop
  endfacet
  facet normal -1 0 0
    outer loop
      vertex 49.66 70.5048 7.33671
      vertex 49.66 86.3297 8.99
      vertex 49.66 70.6399 6.7949
    endloop
  endfacet
  facet normal -1 0 0
    outer loop
      vertex 49.66 70.4079 7.88661
      vertex 49.66 86.3297 8.99
      vertex 49.66 70.5048 7.33671
    endloop
  endfacet
  facet normal -1 0 0
    outer loop
      vertex 49.66 70.3495 8.44195
      vertex 49.66 86.3297 8.99
      vertex 49.66 70.4079 7.88661
    endloop
  endfacet
  facet normal -1 -0 0
    outer loop
      vertex 49.66 86.3297 8.99
      vertex 49.66 70.3495 8.44195
      vertex 49.66 70.3304 8.99
    endloop
  endfacet
  facet normal -0 0.587783 0.809019
    outer loop
      vertex 3.34 73.8565 2.3677
      vertex 49.66 73.4047 2.69591
      vertex 49.66 73.8565 2.3677
    endloop
  endfacet
  facet normal 0 0.587783 0.809019
    outer loop
      vertex 49.66 73.4047 2.69591
      vertex 3.34 73.8565 2.3677
      vertex 3.34 73.4047 2.69591
    endloop
  endfacet
  facet normal -0 0.642791 0.766042
    outer loop
      vertex 3.34 73.4047 2.69591
      vertex 49.66 72.977 3.05484
      vertex 49.66 73.4047 2.69591
    endloop
  endfacet
  facet normal 0 0.642791 0.766042
    outer loop
      vertex 49.66 72.977 3.05484
      vertex 3.34 73.4047 2.69591
      vertex 3.34 72.977 3.05484
    endloop
  endfacet
  facet normal -0 0.406737 0.913545
    outer loop
      vertex 3.34 75.3331 1.58253
      vertex 49.66 74.823 1.80965
      vertex 49.66 75.3331 1.58253
    endloop
  endfacet
  facet normal 0 0.406737 0.913545
    outer loop
      vertex 49.66 74.823 1.80965
      vertex 3.34 75.3331 1.58253
      vertex 3.34 74.823 1.80965
    endloop
  endfacet
  facet normal -0 0.207913 0.978147
    outer loop
      vertex 3.34 76.9408 1.12154
      vertex 49.66 76.3946 1.23763
      vertex 49.66 76.9408 1.12154
    endloop
  endfacet
  facet normal 0 0.207913 0.978147
    outer loop
      vertex 49.66 76.3946 1.23763
      vertex 3.34 76.9408 1.12154
      vertex 3.34 76.3946 1.23763
    endloop
  endfacet
  facet normal -0 0.275638 0.961261
    outer loop
      vertex 3.34 76.3946 1.23763
      vertex 49.66 75.8579 1.39155
      vertex 49.66 76.3946 1.23763
    endloop
  endfacet
  facet normal 0 0.275638 0.961261
    outer loop
      vertex 49.66 75.8579 1.39155
      vertex 3.34 76.3946 1.23763
      vertex 3.34 75.8579 1.39155
    endloop
  endfacet
  facet normal 0 0.743147 0.669128
    outer loop
      vertex 49.66 72.5753 3.44273
      vertex 3.34 72.2016 3.8577
      vertex 49.66 72.2016 3.8577
    endloop
  endfacet
  facet normal 0 0.743147 0.669128
    outer loop
      vertex 3.34 72.2016 3.8577
      vertex 49.66 72.5753 3.44273
      vertex 3.34 72.5753 3.44273
    endloop
  endfacet
  facet normal 0 0.951056 0.309019
    outer loop
      vertex 49.66 70.8125 6.26384
      vertex 3.34 70.6399 6.7949
      vertex 49.66 70.6399 6.7949
    endloop
  endfacet
  facet normal 0 0.951056 0.309019
    outer loop
      vertex 3.34 70.6399 6.7949
      vertex 49.66 70.8125 6.26384
      vertex 3.34 70.8125 6.26384
    endloop
  endfacet
  facet normal 0 0.927185 0.374603
    outer loop
      vertex 49.66 71.0216 5.74611
      vertex 3.34 70.8125 6.26384
      vertex 49.66 70.8125 6.26384
    endloop
  endfacet
  facet normal 0 0.927185 0.374603
    outer loop
      vertex 3.34 70.8125 6.26384
      vertex 49.66 71.0216 5.74611
      vertex 3.34 71.0216 5.74611
    endloop
  endfacet
  facet normal 0 0.984806 0.173658
    outer loop
      vertex 49.66 70.5048 7.33671
      vertex 3.34 70.4079 7.88661
      vertex 49.66 70.4079 7.88661
    endloop
  endfacet
  facet normal 0 0.984806 0.173658
    outer loop
      vertex 3.34 70.4079 7.88661
      vertex 49.66 70.5048 7.33671
      vertex 3.34 70.5048 7.33671
    endloop
  endfacet
  facet normal 1 0 0
    outer loop
      vertex 3.34 86.3297 8.99
      vertex 3.34 86.2521 7.88661
      vertex 3.34 86.3105 8.44195
    endloop
  endfacet
  facet normal 1 0 0
    outer loop
      vertex 3.34 86.3297 8.99
      vertex 3.34 86.1552 7.33671
      vertex 3.34 86.2521 7.88661
    endloop
  endfacet
  facet normal 1 0 0
    outer loop
      vertex 3.34 86.3297 8.99
      vertex 3.34 86.0201 6.7949
      vertex 3.34 86.1552 7.33671
    endloop
  endfacet
  facet normal 1 0 0
    outer loop
      vertex 3.34 86.3297 8.99
      vertex 3.34 85.8475 6.26384
      vertex 3.34 86.0201 6.7949
    endloop
  endfacet
  facet normal 1 0 0
    outer loop
      vertex 3.34 86.3297 8.99
      vertex 3.34 85.6384 5.74611
      vertex 3.34 85.8475 6.26384
    endloop
  endfacet
  facet normal 1 0 0
    outer loop
      vertex 3.34 86.3297 8.99
      vertex 3.34 85.3936 5.24423
      vertex 3.34 85.6384 5.74611
    endloop
  endfacet
  facet normal 1 0 0
    outer loop
      vertex 3.34 86.3297 8.99
      vertex 3.34 85.1144 4.76065
      vertex 3.34 85.3936 5.24423
    endloop
  endfacet
  facet normal 1 0 0
    outer loop
      vertex 3.34 86.3297 8.99
      vertex 3.34 84.8021 4.29772
      vertex 3.34 85.1144 4.76065
    endloop
  endfacet
  facet normal 1 0 0
    outer loop
      vertex 3.34 86.3297 8.99
      vertex 3.34 84.4584 3.8577
      vertex 3.34 84.8021 4.29772
    endloop
  endfacet
  facet normal 1 0 0
    outer loop
      vertex 3.34 86.3297 8.99
      vertex 3.34 84.0847 3.44273
      vertex 3.34 84.4584 3.8577
    endloop
  endfacet
  facet normal 1 0 0
    outer loop
      vertex 3.34 86.3297 8.99
      vertex 3.34 83.683 3.05484
      vertex 3.34 84.0847 3.44273
    endloop
  endfacet
  facet normal 1 0 0
    outer loop
      vertex 3.34 86.3297 8.99
      vertex 3.34 83.2553 2.69591
      vertex 3.34 83.683 3.05484
    endloop
  endfacet
  facet normal 1 0 0
    outer loop
      vertex 3.34 86.3297 8.99
      vertex 3.34 82.8035 2.3677
      vertex 3.34 83.2553 2.69591
    endloop
  endfacet
  facet normal 1 0 0
    outer loop
      vertex 3.34 86.3297 8.99
      vertex 3.34 82.33 2.0718
      vertex 3.34 82.8035 2.3677
    endloop
  endfacet
  facet normal 1 0 0
    outer loop
      vertex 3.34 86.3297 8.99
      vertex 3.34 81.837 1.80965
      vertex 3.34 82.33 2.0718
    endloop
  endfacet
  facet normal 1 0 0
    outer loop
      vertex 3.34 86.3297 8.99
      vertex 3.34 81.3269 1.58253
      vertex 3.34 81.837 1.80965
    endloop
  endfacet
  facet normal 1 0 0
    outer loop
      vertex 3.34 86.3297 8.99
      vertex 3.34 80.8021 1.39155
      vertex 3.34 81.3269 1.58253
    endloop
  endfacet
  facet normal 1 0 0
    outer loop
      vertex 3.34 86.3297 8.99
      vertex 3.34 80.2654 1.23763
      vertex 3.34 80.8021 1.39155
    endloop
  endfacet
  facet normal 1 0 0
    outer loop
      vertex 3.34 86.3297 8.99
      vertex 3.34 79.7192 1.12154
      vertex 3.34 80.2654 1.23763
    endloop
  endfacet
  facet normal 1 0 0
    outer loop
      vertex 3.34 86.3297 8.99
      vertex 3.34 79.1662 1.04382
      vertex 3.34 79.7192 1.12154
    endloop
  endfacet
  facet normal 1 0 0
    outer loop
      vertex 3.34 86.3297 8.99
      vertex 3.34 78.6092 1.00487
      vertex 3.34 79.1662 1.04382
    endloop
  endfacet
  facet normal 1 0 0
    outer loop
      vertex 3.34 86.3297 8.99
      vertex 3.34 78.0508 1.00487
      vertex 3.34 78.6092 1.00487
    endloop
  endfacet
  facet normal 1 0 0
    outer loop
      vertex 3.34 86.3297 8.99
      vertex 3.34 77.4938 1.04382
      vertex 3.34 78.0508 1.00487
    endloop
  endfacet
  facet normal 1 0 0
    outer loop
      vertex 3.34 86.3297 8.99
      vertex 3.34 76.9408 1.12154
      vertex 3.34 77.4938 1.04382
    endloop
  endfacet
  facet normal 1 0 0
    outer loop
      vertex 3.34 86.3297 8.99
      vertex 3.34 76.3946 1.23763
      vertex 3.34 76.9408 1.12154
    endloop
  endfacet
  facet normal 1 0 0
    outer loop
      vertex 3.34 86.3297 8.99
      vertex 3.34 75.8579 1.39155
      vertex 3.34 76.3946 1.23763
    endloop
  endfacet
  facet normal 1 0 0
    outer loop
      vertex 3.34 86.3297 8.99
      vertex 3.34 75.3331 1.58253
      vertex 3.34 75.8579 1.39155
    endloop
  endfacet
  facet normal 1 0 0
    outer loop
      vertex 3.34 86.3297 8.99
      vertex 3.34 74.823 1.80965
      vertex 3.34 75.3331 1.58253
    endloop
  endfacet
  facet normal 1 0 0
    outer loop
      vertex 3.34 86.3297 8.99
      vertex 3.34 74.33 2.0718
      vertex 3.34 74.823 1.80965
    endloop
  endfacet
  facet normal 1 0 0
    outer loop
      vertex 3.34 86.3297 8.99
      vertex 3.34 73.8565 2.3677
      vertex 3.34 74.33 2.0718
    endloop
  endfacet
  facet normal 1 0 0
    outer loop
      vertex 3.34 86.3297 8.99
      vertex 3.34 73.4047 2.69591
      vertex 3.34 73.8565 2.3677
    endloop
  endfacet
  facet normal 1 0 0
    outer loop
      vertex 3.34 86.3297 8.99
      vertex 3.34 72.977 3.05484
      vertex 3.34 73.4047 2.69591
    endloop
  endfacet
  facet normal 1 0 0
    outer loop
      vertex 3.34 86.3297 8.99
      vertex 3.34 72.5753 3.44273
      vertex 3.34 72.977 3.05484
    endloop
  endfacet
  facet normal 1 0 0
    outer loop
      vertex 3.34 86.3297 8.99
      vertex 3.34 72.2016 3.8577
      vertex 3.34 72.5753 3.44273
    endloop
  endfacet
  facet normal 1 0 0
    outer loop
      vertex 3.34 86.3297 8.99
      vertex 3.34 71.8579 4.29772
      vertex 3.34 72.2016 3.8577
    endloop
  endfacet
  facet normal 1 0 0
    outer loop
      vertex 3.34 86.3297 8.99
      vertex 3.34 71.5456 4.76065
      vertex 3.34 71.8579 4.29772
    endloop
  endfacet
  facet normal 1 0 0
    outer loop
      vertex 3.34 86.3297 8.99
      vertex 3.34 71.2664 5.24423
      vertex 3.34 71.5456 4.76065
    endloop
  endfacet
  facet normal 1 0 0
    outer loop
      vertex 3.34 86.3297 8.99
      vertex 3.34 71.0216 5.74611
      vertex 3.34 71.2664 5.24423
    endloop
  endfacet
  facet normal 1 0 0
    outer loop
      vertex 3.34 86.3297 8.99
      vertex 3.34 70.8125 6.26384
      vertex 3.34 71.0216 5.74611
    endloop
  endfacet
  facet normal 1 0 0
    outer loop
      vertex 3.34 86.3297 8.99
      vertex 3.34 70.6399 6.7949
      vertex 3.34 70.8125 6.26384
    endloop
  endfacet
  facet normal 1 0 0
    outer loop
      vertex 3.34 86.3297 8.99
      vertex 3.34 70.5048 7.33671
      vertex 3.34 70.6399 6.7949
    endloop
  endfacet
  facet normal 1 0 0
    outer loop
      vertex 3.34 86.3297 8.99
      vertex 3.34 70.4079 7.88661
      vertex 3.34 70.5048 7.33671
    endloop
  endfacet
  facet normal 1 0 0
    outer loop
      vertex 3.34 86.3297 8.99
      vertex 3.34 70.3495 8.44195
      vertex 3.34 70.4079 7.88661
    endloop
  endfacet
  facet normal 1 0 -0
    outer loop
      vertex 3.34 70.3495 8.44195
      vertex 3.34 86.3297 8.99
      vertex 3.34 70.3304 8.99
    endloop
  endfacet
  facet normal 0 -0.275635 0.961262
    outer loop
      vertex 3.34 80.8021 1.39155
      vertex 49.66 80.2654 1.23763
      vertex 49.66 80.8021 1.39155
    endloop
  endfacet
  facet normal 0 -0.275635 0.961262
    outer loop
      vertex 49.66 80.2654 1.23763
      vertex 3.34 80.8021 1.39155
      vertex 3.34 80.2654 1.23763
    endloop
  endfacet
  facet normal 0 -0.0697558 0.997564
    outer loop
      vertex 3.34 79.1662 1.04382
      vertex 49.66 78.6092 1.00487
      vertex 49.66 79.1662 1.04382
    endloop
  endfacet
  facet normal 0 -0.0697558 0.997564
    outer loop
      vertex 49.66 78.6092 1.00487
      vertex 3.34 79.1662 1.04382
      vertex 3.34 78.6092 1.00487
    endloop
  endfacet
  facet normal 0 -0.999391 0.0348924
    outer loop
      vertex 49.66 86.3105 8.44195
      vertex 49.66 86.3297 8.99
      vertex 4.16997 86.3297 8.99
    endloop
  endfacet
  facet normal 0 -0.970296 0.24192
    outer loop
      vertex 3.34 86.0201 6.7949
      vertex 49.66 86.1552 7.33671
      vertex 3.34 86.1552 7.33671
    endloop
  endfacet
  facet normal 0 -0.970296 0.24192
    outer loop
      vertex 49.66 86.1552 7.33671
      vertex 3.34 86.0201 6.7949
      vertex 49.66 86.0201 6.7949
    endloop
  endfacet
  facet normal 0 -0.927185 0.374603
    outer loop
      vertex 3.34 85.6384 5.74611
      vertex 49.66 85.8475 6.26384
      vertex 3.34 85.8475 6.26384
    endloop
  endfacet
  facet normal 0 -0.927185 0.374603
    outer loop
      vertex 49.66 85.8475 6.26384
      vertex 3.34 85.6384 5.74611
      vertex 49.66 85.6384 5.74611
    endloop
  endfacet
  facet normal 0 -0.342024 0.939691
    outer loop
      vertex 3.34 81.3269 1.58253
      vertex 49.66 80.8021 1.39155
      vertex 49.66 81.3269 1.58253
    endloop
  endfacet
  facet normal 0 -0.342024 0.939691
    outer loop
      vertex 49.66 80.8021 1.39155
      vertex 3.34 81.3269 1.58253
      vertex 3.34 80.8021 1.39155
    endloop
  endfacet
  facet normal 0 -0.139173 0.990268
    outer loop
      vertex 3.34 79.7192 1.12154
      vertex 49.66 79.1662 1.04382
      vertex 49.66 79.7192 1.12154
    endloop
  endfacet
  facet normal 0 -0.139173 0.990268
    outer loop
      vertex 49.66 79.1662 1.04382
      vertex 3.34 79.7192 1.12154
      vertex 3.34 79.1662 1.04382
    endloop
  endfacet
  facet normal 0 -0.994521 0.104537
    outer loop
      vertex 3.34 86.2521 7.88661
      vertex 49.66 86.3105 8.44195
      vertex 3.34 86.3105 8.44195
    endloop
  endfacet
  facet normal 0 -0.994521 0.104537
    outer loop
      vertex 49.66 86.3105 8.44195
      vertex 3.34 86.2521 7.88661
      vertex 49.66 86.2521 7.88661
    endloop
  endfacet
  facet normal 0 -0.984808 0.173645
    outer loop
      vertex 3.34 86.1552 7.33671
      vertex 49.66 86.2521 7.88661
      vertex 3.34 86.2521 7.88661
    endloop
  endfacet
  facet normal 0 -0.984808 0.173645
    outer loop
      vertex 49.66 86.2521 7.88661
      vertex 3.34 86.1552 7.33671
      vertex 49.66 86.1552 7.33671
    endloop
  endfacet
  facet normal 0 -0.866024 0.500002
    outer loop
      vertex 3.34 85.1144 4.76065
      vertex 49.66 85.3936 5.24423
      vertex 3.34 85.3936 5.24423
    endloop
  endfacet
  facet normal 0 -0.866024 0.500002
    outer loop
      vertex 49.66 85.3936 5.24423
      vertex 3.34 85.1144 4.76065
      vertex 49.66 85.1144 4.76065
    endloop
  endfacet
  facet normal 0 -0.951056 0.309019
    outer loop
      vertex 3.34 85.8475 6.26384
      vertex 49.66 86.0201 6.7949
      vertex 3.34 86.0201 6.7949
    endloop
  endfacet
  facet normal 0 -0.951056 0.309019
    outer loop
      vertex 49.66 86.0201 6.7949
      vertex 3.34 85.8475 6.26384
      vertex 49.66 85.8475 6.26384
    endloop
  endfacet
  facet normal 0 -0.469469 0.882949
    outer loop
      vertex 3.34 82.33 2.0718
      vertex 49.66 81.837 1.80965
      vertex 49.66 82.33 2.0718
    endloop
  endfacet
  facet normal 0 -0.469469 0.882949
    outer loop
      vertex 49.66 81.837 1.80965
      vertex 3.34 82.33 2.0718
      vertex 3.34 81.837 1.80965
    endloop
  endfacet
  facet normal 0 -0.898795 0.43837
    outer loop
      vertex 3.34 85.3936 5.24423
      vertex 49.66 85.6384 5.74611
      vertex 3.34 85.6384 5.74611
    endloop
  endfacet
  facet normal 0 -0.898795 0.43837
    outer loop
      vertex 49.66 85.6384 5.74611
      vertex 3.34 85.3936 5.24423
      vertex 49.66 85.3936 5.24423
    endloop
  endfacet
  facet normal 0 -0.69466 0.719339
    outer loop
      vertex 3.34 84.0847 3.44273
      vertex 49.66 83.683 3.05484
      vertex 49.66 84.0847 3.44273
    endloop
  endfacet
  facet normal 0 -0.69466 0.719339
    outer loop
      vertex 49.66 83.683 3.05484
      vertex 3.34 84.0847 3.44273
      vertex 3.34 83.683 3.05484
    endloop
  endfacet
  facet normal 0 -0.829039 0.559191
    outer loop
      vertex 3.34 84.8021 4.29772
      vertex 49.66 85.1144 4.76065
      vertex 3.34 85.1144 4.76065
    endloop
  endfacet
  facet normal 0 -0.829039 0.559191
    outer loop
      vertex 49.66 85.1144 4.76065
      vertex 3.34 84.8021 4.29772
      vertex 49.66 84.8021 4.29772
    endloop
  endfacet
  facet normal 0 -0.788011 0.615662
    outer loop
      vertex 3.34 84.4584 3.8577
      vertex 49.66 84.8021 4.29772
      vertex 3.34 84.8021 4.29772
    endloop
  endfacet
  facet normal 0 -0.788011 0.615662
    outer loop
      vertex 49.66 84.8021 4.29772
      vertex 3.34 84.4584 3.8577
      vertex 49.66 84.4584 3.8577
    endloop
  endfacet
  facet normal 0 -0.52992 0.848047
    outer loop
      vertex 3.34 82.8035 2.3677
      vertex 49.66 82.33 2.0718
      vertex 49.66 82.8035 2.3677
    endloop
  endfacet
  facet normal 0 -0.52992 0.848047
    outer loop
      vertex 49.66 82.33 2.0718
      vertex 3.34 82.8035 2.3677
      vertex 3.34 82.33 2.0718
    endloop
  endfacet
  facet normal 0 -0.642791 0.766042
    outer loop
      vertex 3.34 83.683 3.05484
      vertex 49.66 83.2553 2.69591
      vertex 49.66 83.683 3.05484
    endloop
  endfacet
  facet normal 0 -0.642791 0.766042
    outer loop
      vertex 49.66 83.2553 2.69591
      vertex 3.34 83.683 3.05484
      vertex 3.34 83.2553 2.69591
    endloop
  endfacet
  facet normal 0 -0.587783 0.809019
    outer loop
      vertex 3.34 83.2553 2.69591
      vertex 49.66 82.8035 2.3677
      vertex 49.66 83.2553 2.69591
    endloop
  endfacet
  facet normal 0 -0.587783 0.809019
    outer loop
      vertex 49.66 82.8035 2.3677
      vertex 3.34 83.2553 2.69591
      vertex 3.34 82.8035 2.3677
    endloop
  endfacet
  facet normal 0 -1 0
    outer loop
      vertex 1.67 86.33 8.99
      vertex 51.33 86.33 15
      vertex 1.67 86.33 15
    endloop
  endfacet
  facet normal 0 -1 -0
    outer loop
      vertex 51.33 86.33 15
      vertex 1.67 86.33 8.99
      vertex 51.33 86.33 8.99
    endloop
  endfacet
  facet normal 0 1 -0
    outer loop
      vertex 51.33 70.33 8.99
      vertex 49.66 70.33 9
      vertex 51.33 70.33 9
    endloop
  endfacet
  facet normal 0 1 0
    outer loop
      vertex 49.66 70.33 9
      vertex 51.33 70.33 8.99
      vertex 3.34 70.33 9
    endloop
  endfacet
  facet normal 0 1 0
    outer loop
      vertex 1.67 70.33 8.99
      vertex 3.34 70.33 9
      vertex 51.33 70.33 8.99
    endloop
  endfacet
  facet normal 0 1 0
    outer loop
      vertex 3.34 70.33 9
      vertex 1.67 70.33 8.99
      vertex 1.67 70.33 9
    endloop
  endfacet
  facet normal 0 1 -0
    outer loop
      vertex 49.66 70.33 9
      vertex 3.34 70.33 15
      vertex 49.66 70.33 15
    endloop
  endfacet
  facet normal 0 1 0
    outer loop
      vertex 3.34 70.33 15
      vertex 49.66 70.33 9
      vertex 3.34 70.33 9
    endloop
  endfacet
  facet normal -1 0 0
    outer loop
      vertex 51.33 69.47 1
      vertex 51.33 3.47 1
      vertex 51.33 69.47 9
    endloop
  endfacet
  facet normal -1 0 0
    outer loop
      vertex 51.33 70.33 9
      vertex 51.33 86.33 8.99
      vertex 51.33 70.33 8.99
    endloop
  endfacet
  facet normal -1 0 0
    outer loop
      vertex 51.33 86.33 8.99
      vertex 51.33 70.33 9
      vertex 51.33 86.33 15
    endloop
  endfacet
  facet normal -1 0 0
    outer loop
      vertex 51.33 69.47 9
      vertex 51.33 86.33 15
      vertex 51.33 70.33 9
    endloop
  endfacet
  facet normal -1 0 0
    outer loop
      vertex 51.33 3.47 15
      vertex 51.33 69.47 9
      vertex 51.33 3.47 1
    endloop
  endfacet
  facet normal -1 0 0
    outer loop
      vertex 51.33 69.47 9
      vertex 51.33 3.47 15
      vertex 51.33 86.33 15
    endloop
  endfacet
  facet normal 0 0 1
    outer loop
      vertex 51.33 86.33 8.99
      vertex 49.66 86.3297 8.99
      vertex 51.33 70.33 8.99
    endloop
  endfacet
  facet normal 0 0 1
    outer loop
      vertex 51.33 86.33 8.99
      vertex 4.16997 86.3297 8.99
      vertex 49.66 86.3297 8.99
    endloop
  endfacet
  facet normal 0 0 1
    outer loop
      vertex 51.33 86.33 8.99
      vertex 3.34 86.3297 8.99
      vertex 4.16997 86.3297 8.99
    endloop
  endfacet
  facet normal 0 0 1
    outer loop
      vertex 3.34 86.3297 8.99
      vertex 1.67 86.33 8.99
      vertex 3.34 70.3304 8.99
    endloop
  endfacet
  facet normal -0 0 1
    outer loop
      vertex 1.67 86.33 8.99
      vertex 3.34 86.3297 8.99
      vertex 51.33 86.33 8.99
    endloop
  endfacet
  facet normal -0 0 1
    outer loop
      vertex 49.66 70.3304 8.99
      vertex 51.33 70.33 8.99
      vertex 49.66 86.3297 8.99
    endloop
  endfacet
  facet normal -0 0 1
    outer loop
      vertex 3.34 70.3304 8.99
      vertex 51.33 70.33 8.99
      vertex 49.66 70.3304 8.99
    endloop
  endfacet
  facet normal 0 0 1
    outer loop
      vertex 3.34 70.3304 8.99
      vertex 1.67 70.33 8.99
      vertex 51.33 70.33 8.99
    endloop
  endfacet
  facet normal 0 0 1
    outer loop
      vertex 1.67 70.33 8.99
      vertex 3.34 70.3304 8.99
      vertex 1.67 86.33 8.99
    endloop
  endfacet
  facet normal 1 0 0
    outer loop
      vertex 1.67 86.33 15
      vertex 1.67 70.33 9
      vertex 1.67 86.33 8.99
    endloop
  endfacet
  facet normal 1 0 0
    outer loop
      vertex 1.67 86.33 15
      vertex 1.67 69.47 9
      vertex 1.67 70.33 9
    endloop
  endfacet
  facet normal 1 -0 0
    outer loop
      vertex 1.67 3.47 15
      vertex 1.67 69.47 9
      vertex 1.67 86.33 15
    endloop
  endfacet
  facet normal 1 0 0
    outer loop
      vertex 1.67 3.47 1
      vertex 1.67 69.47 9
      vertex 1.67 3.47 15
    endloop
  endfacet
  facet normal 1 0 0
    outer loop
      vertex 1.67 69.47 9
      vertex 1.67 3.47 1
      vertex 1.67 69.47 1
    endloop
  endfacet
  facet normal 1 0 0
    outer loop
      vertex 1.67 86.33 8.99
      vertex 1.67 70.33 9
      vertex 1.67 70.33 8.99
    endloop
  endfacet
  facet normal 0 -1 0
    outer loop
      vertex 1.67 69.47 1
      vertex 3.34 69.47 9
      vertex 1.67 69.47 9
    endloop
  endfacet
  facet normal 0 -1 -0
    outer loop
      vertex 3.34 69.47 9
      vertex 1.67 69.47 1
      vertex 49.66 69.47 9
    endloop
  endfacet
  facet normal 0 -1 0
    outer loop
      vertex 51.33 69.47 1
      vertex 49.66 69.47 9
      vertex 1.67 69.47 1
    endloop
  endfacet
  facet normal 0 -1 0
    outer loop
      vertex 49.66 69.47 9
      vertex 51.33 69.47 1
      vertex 51.33 69.47 9
    endloop
  endfacet
  facet normal 0 -1 0
    outer loop
      vertex 3.34 69.47 9
      vertex 49.66 69.47 15
      vertex 3.34 69.47 15
    endloop
  endfacet
  facet normal 0 -1 -0
    outer loop
      vertex 49.66 69.47 15
      vertex 3.34 69.47 9
      vertex 49.66 69.47 9
    endloop
  endfacet
  facet normal 0 1 -0
    outer loop
      vertex 51.33 3.47 1
      vertex 1.67 3.47 15
      vertex 51.33 3.47 15
    endloop
  endfacet
  facet normal 0 1 0
    outer loop
      vertex 1.67 3.47 15
      vertex 51.33 3.47 1
      vertex 1.67 3.47 1
    endloop
  endfacet
  facet normal 0 0 1
    outer loop
      vertex 51.33 69.47 1
      vertex 41.33 59.47 1
      vertex 51.33 3.47 1
    endloop
  endfacet
  facet normal 0 0 1
    outer loop
      vertex 51.33 69.47 1
      vertex 11.67 59.47 1
      vertex 41.33 59.47 1
    endloop
  endfacet
  facet normal 0 0 1
    outer loop
      vertex 11.67 59.47 1
      vertex 1.67 69.47 1
      vertex 11.67 13.47 1
    endloop
  endfacet
  facet normal -0 0 1
    outer loop
      vertex 1.67 69.47 1
      vertex 11.67 59.47 1
      vertex 51.33 69.47 1
    endloop
  endfacet
  facet normal -0 0 1
    outer loop
      vertex 41.33 13.47 1
      vertex 51.33 3.47 1
      vertex 41.33 59.47 1
    endloop
  endfacet
  facet normal -0 0 1
    outer loop
      vertex 11.67 13.47 1
      vertex 51.33 3.47 1
      vertex 41.33 13.47 1
    endloop
  endfacet
  facet normal 0 0 1
    outer loop
      vertex 11.67 13.47 1
      vertex 1.67 3.47 1
      vertex 51.33 3.47 1
    endloop
  endfacet
  facet normal 0 0 1
    outer loop
      vertex 1.67 3.47 1
      vertex 11.67 13.47 1
      vertex 1.67 69.47 1
    endloop
  endfacet
  facet normal -1 0 0
    outer loop
      vertex 3.34 69.47 9
      vertex 3.34 70.33 15
      vertex 3.34 70.33 9
    endloop
  endfacet
  facet normal -1 -0 0
    outer loop
      vertex 3.34 70.33 15
      vertex 3.34 69.47 9
      vertex 3.34 69.47 15
    endloop
  endfacet
  facet normal -0 0 1
    outer loop
      vertex 1.67 70.33 9
      vertex 3.34 69.47 9
      vertex 3.34 70.33 9
    endloop
  endfacet
  facet normal 0 0 1
    outer loop
      vertex 3.34 69.47 9
      vertex 1.67 70.33 9
      vertex 1.67 69.47 9
    endloop
  endfacet
  facet normal -0 0 1
    outer loop
      vertex 49.66 70.33 9
      vertex 51.33 69.47 9
      vertex 51.33 70.33 9
    endloop
  endfacet
  facet normal 0 0 1
    outer loop
      vertex 51.33 69.47 9
      vertex 49.66 70.33 9
      vertex 49.66 69.47 9
    endloop
  endfacet
  facet normal 1 -0 0
    outer loop
      vertex 49.66 69.47 15
      vertex 49.66 70.33 9
      vertex 49.66 70.33 15
    endloop
  endfacet
  facet normal 1 0 0
    outer loop
      vertex 49.66 70.33 9
      vertex 49.66 69.47 15
      vertex 49.66 69.47 9
    endloop
  endfacet
  facet normal 0 -1 0
    outer loop
      vertex 11.67 59.47 0
      vertex 41.33 59.47 1
      vertex 11.67 59.47 1
    endloop
  endfacet
  facet normal 0 -1 -0
    outer loop
      vertex 41.33 59.47 1
      vertex 11.67 59.47 0
      vertex 41.33 59.47 0
    endloop
  endfacet
  facet normal 0 1 -0
    outer loop
      vertex 41.33 13.47 0
      vertex 11.67 13.47 1
      vertex 41.33 13.47 1
    endloop
  endfacet
  facet normal 0 1 0
    outer loop
      vertex 11.67 13.47 1
      vertex 41.33 13.47 0
      vertex 11.67 13.47 0
    endloop
  endfacet
  facet normal -1 0 0
    outer loop
      vertex 41.33 13.47 0
      vertex 41.33 59.47 1
      vertex 41.33 59.47 0
    endloop
  endfacet
  facet normal -1 -0 0
    outer loop
      vertex 41.33 59.47 1
      vertex 41.33 13.47 0
      vertex 41.33 13.47 1
    endloop
  endfacet
  facet normal 1 -0 0
    outer loop
      vertex 11.67 13.47 1
      vertex 11.67 59.47 0
      vertex 11.67 59.47 1
    endloop
  endfacet
  facet normal 1 0 0
    outer loop
      vertex 11.67 59.47 0
      vertex 11.67 13.47 1
      vertex 11.67 13.47 0
    endloop
  endfacet
  facet normal 0 1 -0
    outer loop
      vertex 111 88 0
      vertex 58 88 1
      vertex 111 88 1
    endloop
  endfacet
  facet normal 0 1 0
    outer loop
      vertex 58 88 1
      vertex 111 88 0
      vertex 58 88 0
    endloop
  endfacet
  facet normal 0 0 1
    outer loop
      vertex 111 88 1
      vertex 109.08 84.66 1
      vertex 111 1.8 1
    endloop
  endfacet
  facet normal 0 0 1
    outer loop
      vertex 111 88 1
      vertex 108.22 84.66 1
      vertex 109.08 84.66 1
    endloop
  endfacet
  facet normal 0 0 1
    outer loop
      vertex 108.22 84.66 1
      vertex 99.33 76.33 1
      vertex 108.22 5.14 1
    endloop
  endfacet
  facet normal 0 0 1
    outer loop
      vertex 60.78 84.66 1
      vertex 108.22 84.66 1
      vertex 111 88 1
    endloop
  endfacet
  facet normal 0 0 1
    outer loop
      vertex 108.22 84.66 1
      vertex 60.78 84.66 1
      vertex 99.33 76.33 1
    endloop
  endfacet
  facet normal 0 0 1
    outer loop
      vertex 69.67 76.33 1
      vertex 60.78 84.66 1
      vertex 69.67 13.47 1
    endloop
  endfacet
  facet normal 0 0 1
    outer loop
      vertex 99.33 76.33 1
      vertex 60.78 84.66 1
      vertex 69.67 76.33 1
    endloop
  endfacet
  facet normal -0 0 1
    outer loop
      vertex 58 88 1
      vertex 60.78 84.66 1
      vertex 111 88 1
    endloop
  endfacet
  facet normal 0 0 1
    outer loop
      vertex 59.92 84.66 1
      vertex 58 88 1
      vertex 59.92 5.14 1
    endloop
  endfacet
  facet normal 0 0 1
    outer loop
      vertex 60.78 84.66 1
      vertex 58 88 1
      vertex 59.92 84.66 1
    endloop
  endfacet
  facet normal -0 0 1
    outer loop
      vertex 109.08 5.14 1
      vertex 111 1.8 1
      vertex 109.08 84.66 1
    endloop
  endfacet
  facet normal -0 0 1
    outer loop
      vertex 108.22 5.14 1
      vertex 111 1.8 1
      vertex 109.08 5.14 1
    endloop
  endfacet
  facet normal -0 0 1
    outer loop
      vertex 99.33 13.47 1
      vertex 108.22 5.14 1
      vertex 99.33 76.33 1
    endloop
  endfacet
  facet normal 0 0 1
    outer loop
      vertex 60.78 5.14 1
      vertex 108.22 5.14 1
      vertex 99.33 13.47 1
    endloop
  endfacet
  facet normal 0 0 1
    outer loop
      vertex 60.78 5.14 1
      vertex 99.33 13.47 1
      vertex 69.67 13.47 1
    endloop
  endfacet
  facet normal 0 0 1
    outer loop
      vertex 60.78 5.14 1
      vertex 69.67 13.47 1
      vertex 60.78 84.66 1
    endloop
  endfacet
  facet normal 0 0 1
    outer loop
      vertex 108.22 5.14 1
      vertex 60.78 5.14 1
      vertex 111 1.8 1
    endloop
  endfacet
  facet normal 0 0 1
    outer loop
      vertex 58 1.8 1
      vertex 60.78 5.14 1
      vertex 59.92 5.14 1
    endloop
  endfacet
  facet normal 0 0 1
    outer loop
      vertex 60.78 5.14 1
      vertex 58 1.8 1
      vertex 111 1.8 1
    endloop
  endfacet
  facet normal 0 0 1
    outer loop
      vertex 58 1.8 1
      vertex 59.92 5.14 1
      vertex 58 88 1
    endloop
  endfacet
  facet normal 0 -1 0
    outer loop
      vertex 58 1.8 0
      vertex 111 1.8 1
      vertex 58 1.8 1
    endloop
  endfacet
  facet normal 0 -1 -0
    outer loop
      vertex 111 1.8 1
      vertex 58 1.8 0
      vertex 111 1.8 0
    endloop
  endfacet
  facet normal 0 0 -1
    outer loop
      vertex 111 1.8 0
      vertex 99.33 13.47 0
      vertex 111 88 0
    endloop
  endfacet
  facet normal 0 0 -1
    outer loop
      vertex 111 1.8 0
      vertex 69.67 13.47 0
      vertex 99.33 13.47 0
    endloop
  endfacet
  facet normal -0 0 -1
    outer loop
      vertex 69.67 13.47 0
      vertex 58 1.8 0
      vertex 69.67 76.33 0
    endloop
  endfacet
  facet normal 0 0 -1
    outer loop
      vertex 58 1.8 0
      vertex 69.67 13.47 0
      vertex 111 1.8 0
    endloop
  endfacet
  facet normal 0 0 -1
    outer loop
      vertex 99.33 76.33 0
      vertex 111 88 0
      vertex 99.33 13.47 0
    endloop
  endfacet
  facet normal 0 0 -1
    outer loop
      vertex 69.67 76.33 0
      vertex 111 88 0
      vertex 99.33 76.33 0
    endloop
  endfacet
  facet normal 0 0 -1
    outer loop
      vertex 69.67 76.33 0
      vertex 58 88 0
      vertex 111 88 0
    endloop
  endfacet
  facet normal 0 0 -1
    outer loop
      vertex 58 88 0
      vertex 69.67 76.33 0
      vertex 58 1.8 0
    endloop
  endfacet
  facet normal -1 0 0
    outer loop
      vertex 58 1.8 0
      vertex 58 88 1
      vertex 58 88 0
    endloop
  endfacet
  facet normal -1 -0 0
    outer loop
      vertex 58 88 1
      vertex 58 1.8 0
      vertex 58 1.8 1
    endloop
  endfacet
  facet normal 1 -0 0
    outer loop
      vertex 111 1.8 1
      vertex 111 88 0
      vertex 111 88 1
    endloop
  endfacet
  facet normal 1 0 0
    outer loop
      vertex 111 88 0
      vertex 111 1.8 1
      vertex 111 1.8 0
    endloop
  endfacet
  facet normal 0 1 -0
    outer loop
      vertex 60.78 84.66 1
      vertex 59.92 84.66 6
      vertex 60.78 84.66 6
    endloop
  endfacet
  facet normal 0 1 0
    outer loop
      vertex 59.92 84.66 6
      vertex 60.78 84.66 1
      vertex 59.92 84.66 1
    endloop
  endfacet
  facet normal -0 0 1
    outer loop
      vertex 59.92 84.66 6
      vertex 60.78 5.14 6
      vertex 60.78 84.66 6
    endloop
  endfacet
  facet normal 0 0 1
    outer loop
      vertex 60.78 5.14 6
      vertex 59.92 84.66 6
      vertex 59.92 5.14 6
    endloop
  endfacet
  facet normal 0 -1 0
    outer loop
      vertex 59.92 5.14 1
      vertex 60.78 5.14 6
      vertex 59.92 5.14 6
    endloop
  endfacet
  facet normal 0 -1 -0
    outer loop
      vertex 60.78 5.14 6
      vertex 59.92 5.14 1
      vertex 60.78 5.14 1
    endloop
  endfacet
  facet normal 1 -0 0
    outer loop
      vertex 60.78 5.14 6
      vertex 60.78 84.66 1
      vertex 60.78 84.66 6
    endloop
  endfacet
  facet normal 1 0 0
    outer loop
      vertex 60.78 84.66 1
      vertex 60.78 5.14 6
      vertex 60.78 5.14 1
    endloop
  endfacet
  facet normal -1 0 0
    outer loop
      vertex 59.92 5.14 1
      vertex 59.92 84.66 6
      vertex 59.92 84.66 1
    endloop
  endfacet
  facet normal -1 -0 0
    outer loop
      vertex 59.92 84.66 6
      vertex 59.92 5.14 1
      vertex 59.92 5.14 6
    endloop
  endfacet
  facet normal 0 1 -0
    outer loop
      vertex 109.08 84.66 1
      vertex 108.22 84.66 6
      vertex 109.08 84.66 6
    endloop
  endfacet
  facet normal 0 1 0
    outer loop
      vertex 108.22 84.66 6
      vertex 109.08 84.66 1
      vertex 108.22 84.66 1
    endloop
  endfacet
  facet normal -0 0 1
    outer loop
      vertex 108.22 84.66 6
      vertex 109.08 5.14 6
      vertex 109.08 84.66 6
    endloop
  endfacet
  facet normal 0 0 1
    outer loop
      vertex 109.08 5.14 6
      vertex 108.22 84.66 6
      vertex 108.22 5.14 6
    endloop
  endfacet
  facet normal 0 -1 0
    outer loop
      vertex 108.22 5.14 1
      vertex 109.08 5.14 6
      vertex 108.22 5.14 6
    endloop
  endfacet
  facet normal 0 -1 -0
    outer loop
      vertex 109.08 5.14 6
      vertex 108.22 5.14 1
      vertex 109.08 5.14 1
    endloop
  endfacet
  facet normal 1 -0 0
    outer loop
      vertex 109.08 5.14 6
      vertex 109.08 84.66 1
      vertex 109.08 84.66 6
    endloop
  endfacet
  facet normal 1 0 0
    outer loop
      vertex 109.08 84.66 1
      vertex 109.08 5.14 6
      vertex 109.08 5.14 1
    endloop
  endfacet
  facet normal -1 0 0
    outer loop
      vertex 108.22 5.14 1
      vertex 108.22 84.66 6
      vertex 108.22 84.66 1
    endloop
  endfacet
  facet normal -1 -0 0
    outer loop
      vertex 108.22 84.66 6
      vertex 108.22 5.14 1
      vertex 108.22 5.14 6
    endloop
  endfacet
  facet normal 0 -1 0
    outer loop
      vertex 69.67 76.33 0
      vertex 99.33 76.33 1
      vertex 69.67 76.33 1
    endloop
  endfacet
  facet normal 0 -1 -0
    outer loop
      vertex 99.33 76.33 1
      vertex 69.67 76.33 0
      vertex 99.33 76.33 0
    endloop
  endfacet
  facet normal 0 1 -0
    outer loop
      vertex 99.33 13.47 0
      vertex 69.67 13.47 1
      vertex 99.33 13.47 1
    endloop
  endfacet
  facet normal 0 1 0
    outer loop
      vertex 69.67 13.47 1
      vertex 99.33 13.47 0
      vertex 69.67 13.47 0
    endloop
  endfacet
  facet normal 1 -0 0
    outer loop
      vertex 69.67 13.47 1
      vertex 69.67 76.33 0
      vertex 69.67 76.33 1
    endloop
  endfacet
  facet normal 1 0 0
    outer loop
      vertex 69.67 76.33 0
      vertex 69.67 13.47 1
      vertex 69.67 13.47 0
    endloop
  endfacet
  facet normal -1 0 0
    outer loop
      vertex 99.33 13.47 0
      vertex 99.33 76.33 1
      vertex 99.33 76.33 0
    endloop
  endfacet
  facet normal -1 -0 0
    outer loop
      vertex 99.33 76.33 1
      vertex 99.33 13.47 0
      vertex 99.33 13.47 1
    endloop
  endfacet
endsolid OpenSCAD_Model
