solid OpenSCAD_Model
  facet normal -1 0 0
    outer loop
      vertex 0 -150 0
      vertex 0 0 1
      vertex 0 0 0
    endloop
  endfacet
  facet normal -1 -0 0
    outer loop
      vertex 0 0 1
      vertex 0 -150 0
      vertex 0 -150 1
    endloop
  endfacet
  facet normal 0 0 1
    outer loop
      vertex 215.9 0 1
      vertex 214.23 -1.67 1
      vertex 215.9 -150 1
    endloop
  endfacet
  facet normal 0 0 1
    outer loop
      vertex 215.9 0 1
      vertex 1.67 -1.67 1
      vertex 214.23 -1.67 1
    endloop
  endfacet
  facet normal 0 0 1
    outer loop
      vertex 1.67 -1.67 1
      vertex 0 0 1
      vertex 1.67 -148.33 1
    endloop
  endfacet
  facet normal -0 0 1
    outer loop
      vertex 0 0 1
      vertex 1.67 -1.67 1
      vertex 215.9 0 1
    endloop
  endfacet
  facet normal -0 0 1
    outer loop
      vertex 214.23 -148.33 1
      vertex 215.9 -150 1
      vertex 214.23 -1.67 1
    endloop
  endfacet
  facet normal -0 0 1
    outer loop
      vertex 1.67 -148.33 1
      vertex 215.9 -150 1
      vertex 214.23 -148.33 1
    endloop
  endfacet
  facet normal 0 0 1
    outer loop
      vertex 1.67 -148.33 1
      vertex 0 -150 1
      vertex 215.9 -150 1
    endloop
  endfacet
  facet normal 0 0 1
    outer loop
      vertex 0 -150 1
      vertex 1.67 -148.33 1
      vertex 0 0 1
    endloop
  endfacet
  facet normal 1 -0 0
    outer loop
      vertex 215.9 -150 1
      vertex 215.9 0 0
      vertex 215.9 0 1
    endloop
  endfacet
  facet normal 1 0 0
    outer loop
      vertex 215.9 0 0
      vertex 215.9 -150 1
      vertex 215.9 -150 0
    endloop
  endfacet
  facet normal 0 0 -1
    outer loop
      vertex 30.7915 -51.6225 0
      vertex 38.4385 -34.8675 0
      vertex 43.7818 -44.1225 0
    endloop
  endfacet
  facet normal 0 0 -1
    outer loop
      vertex 30.7915 -51.6225 0
      vertex 25.4481 -42.3675 0
      vertex 38.4385 -34.8675 0
    endloop
  endfacet
  facet normal 0 0 -1
    outer loop
      vertex 25.4481 -75.8775 0
      vertex 25.4481 -42.3675 0
      vertex 30.7915 -51.6225 0
    endloop
  endfacet
  facet normal 0 0 -1
    outer loop
      vertex 12.4577 -83.3775 0
      vertex 25.4481 -42.3675 0
      vertex 25.4481 -75.8775 0
    endloop
  endfacet
  facet normal -0 0 -1
    outer loop
      vertex 25.4481 -42.3675 0
      vertex 12.4577 -83.3775 0
      vertex 12.4577 -34.8675 0
    endloop
  endfacet
  facet normal 0 0 -1
    outer loop
      vertex 49.1252 -83.3775 0
      vertex 38.4385 -83.3775 0
      vertex 43.7818 -74.1225 0
    endloop
  endfacet
  facet normal 0 0 -1
    outer loop
      vertex 38.4385 -83.3775 0
      vertex 30.7915 -66.6225 0
      vertex 43.7818 -74.1225 0
    endloop
  endfacet
  facet normal -0 0 -1
    outer loop
      vertex 30.7915 -66.6225 0
      vertex 25.4481 -75.8775 0
      vertex 30.7915 -51.6225 0
    endloop
  endfacet
  facet normal 0 0 -1
    outer loop
      vertex 25.4481 -75.8775 0
      vertex 30.7915 -66.6225 0
      vertex 38.4385 -83.3775 0
    endloop
  endfacet
  facet normal 0 0 -1
    outer loop
      vertex 67.459 -115.132 0
      vertex 56.7722 -115.132 0
      vertex 62.1156 -105.878 0
    endloop
  endfacet
  facet normal 0 0 -1
    outer loop
      vertex 56.7722 -115.132 0
      vertex 49.1252 -98.3775 0
      vertex 62.1156 -105.878 0
    endloop
  endfacet
  facet normal 0 0 -1
    outer loop
      vertex 38.4385 -98.3775 0
      vertex 49.1252 -98.3775 0
      vertex 43.7818 -107.632 0
    endloop
  endfacet
  facet normal 0 0 -1
    outer loop
      vertex 43.7818 -107.632 0
      vertex 49.1252 -98.3775 0
      vertex 56.7722 -115.132 0
    endloop
  endfacet
  facet normal 0 0 -1
    outer loop
      vertex 67.459 -51.6225 0
      vertex 56.7722 -51.6225 0
      vertex 62.1156 -42.3675 0
    endloop
  endfacet
  facet normal 0 0 -1
    outer loop
      vertex 56.7722 -51.6225 0
      vertex 49.1252 -34.8675 0
      vertex 62.1156 -42.3675 0
    endloop
  endfacet
  facet normal 0 0 -1
    outer loop
      vertex 38.4385 -34.8675 0
      vertex 49.1252 -34.8675 0
      vertex 43.7818 -44.1225 0
    endloop
  endfacet
  facet normal 0 0 -1
    outer loop
      vertex 43.7818 -44.1225 0
      vertex 49.1252 -34.8675 0
      vertex 56.7722 -51.6225 0
    endloop
  endfacet
  facet normal 0 0 -1
    outer loop
      vertex 67.459 -51.6225 0
      vertex 75.106 -34.8675 0
      vertex 80.4494 -44.1225 0
    endloop
  endfacet
  facet normal 0 0 -1
    outer loop
      vertex 67.459 -51.6225 0
      vertex 62.1156 -42.3675 0
      vertex 75.106 -34.8675 0
    endloop
  endfacet
  facet normal 0 0 -1
    outer loop
      vertex 67.459 -66.6225 0
      vertex 56.7722 -66.6225 0
      vertex 67.459 -51.6225 0
    endloop
  endfacet
  facet normal 0 0 -1
    outer loop
      vertex 56.7722 -51.6225 0
      vertex 67.459 -51.6225 0
      vertex 56.7722 -66.6225 0
    endloop
  endfacet
  facet normal 0 0 -1
    outer loop
      vertex 49.1252 -83.3775 0
      vertex 56.7722 -66.6225 0
      vertex 62.1156 -75.8775 0
    endloop
  endfacet
  facet normal 0 0 -1
    outer loop
      vertex 49.1252 -83.3775 0
      vertex 43.7818 -74.1225 0
      vertex 56.7722 -66.6225 0
    endloop
  endfacet
  facet normal 0 0 -1
    outer loop
      vertex 49.1252 -98.3775 0
      vertex 38.4385 -98.3775 0
      vertex 49.1252 -83.3775 0
    endloop
  endfacet
  facet normal 0 0 -1
    outer loop
      vertex 38.4385 -83.3775 0
      vertex 49.1252 -83.3775 0
      vertex 38.4385 -98.3775 0
    endloop
  endfacet
  facet normal 0 0 -1
    outer loop
      vertex 30.7915 -115.132 0
      vertex 38.4385 -98.3775 0
      vertex 43.7818 -107.632 0
    endloop
  endfacet
  facet normal 0 0 -1
    outer loop
      vertex 38.4385 -98.3775 0
      vertex 30.7915 -115.132 0
      vertex 25.4481 -105.878 0
    endloop
  endfacet
  facet normal 0 0 -1
    outer loop
      vertex 85.7927 -83.3775 0
      vertex 75.106 -83.3775 0
      vertex 80.4494 -74.1225 0
    endloop
  endfacet
  facet normal 0 0 -1
    outer loop
      vertex 75.106 -83.3775 0
      vertex 67.459 -66.6225 0
      vertex 80.4494 -74.1225 0
    endloop
  endfacet
  facet normal 0 0 -1
    outer loop
      vertex 56.7722 -66.6225 0
      vertex 67.459 -66.6225 0
      vertex 62.1156 -75.8775 0
    endloop
  endfacet
  facet normal 0 0 -1
    outer loop
      vertex 62.1156 -75.8775 0
      vertex 67.459 -66.6225 0
      vertex 75.106 -83.3775 0
    endloop
  endfacet
  facet normal 0 0 -1
    outer loop
      vertex 104.126 -115.132 0
      vertex 93.4397 -115.132 0
      vertex 98.7831 -105.878 0
    endloop
  endfacet
  facet normal 0 0 -1
    outer loop
      vertex 93.4397 -115.132 0
      vertex 85.7927 -98.3775 0
      vertex 98.7831 -105.878 0
    endloop
  endfacet
  facet normal 0 0 -1
    outer loop
      vertex 75.106 -98.3775 0
      vertex 85.7927 -98.3775 0
      vertex 80.4494 -107.632 0
    endloop
  endfacet
  facet normal 0 0 -1
    outer loop
      vertex 80.4494 -107.632 0
      vertex 85.7927 -98.3775 0
      vertex 93.4397 -115.132 0
    endloop
  endfacet
  facet normal 0 0 -1
    outer loop
      vertex 104.126 -51.6225 0
      vertex 93.4397 -51.6225 0
      vertex 98.7831 -42.3675 0
    endloop
  endfacet
  facet normal 0 0 -1
    outer loop
      vertex 93.4397 -51.6225 0
      vertex 85.7927 -34.8675 0
      vertex 98.7831 -42.3675 0
    endloop
  endfacet
  facet normal 0 0 -1
    outer loop
      vertex 75.106 -34.8675 0
      vertex 85.7927 -34.8675 0
      vertex 80.4494 -44.1225 0
    endloop
  endfacet
  facet normal 0 0 -1
    outer loop
      vertex 80.4494 -44.1225 0
      vertex 85.7927 -34.8675 0
      vertex 93.4397 -51.6225 0
    endloop
  endfacet
  facet normal 0 0 -1
    outer loop
      vertex 104.126 -51.6225 0
      vertex 111.773 -34.8675 0
      vertex 117.117 -44.1225 0
    endloop
  endfacet
  facet normal 0 0 -1
    outer loop
      vertex 104.126 -51.6225 0
      vertex 98.7831 -42.3675 0
      vertex 111.773 -34.8675 0
    endloop
  endfacet
  facet normal 0 0 -1
    outer loop
      vertex 104.126 -66.6225 0
      vertex 93.4397 -66.6225 0
      vertex 104.126 -51.6225 0
    endloop
  endfacet
  facet normal 0 0 -1
    outer loop
      vertex 93.4397 -51.6225 0
      vertex 104.126 -51.6225 0
      vertex 93.4397 -66.6225 0
    endloop
  endfacet
  facet normal 0 0 -1
    outer loop
      vertex 85.7927 -83.3775 0
      vertex 93.4397 -66.6225 0
      vertex 98.7831 -75.8775 0
    endloop
  endfacet
  facet normal 0 0 -1
    outer loop
      vertex 85.7927 -83.3775 0
      vertex 80.4494 -74.1225 0
      vertex 93.4397 -66.6225 0
    endloop
  endfacet
  facet normal 0 0 -1
    outer loop
      vertex 85.7927 -98.3775 0
      vertex 75.106 -98.3775 0
      vertex 85.7927 -83.3775 0
    endloop
  endfacet
  facet normal 0 0 -1
    outer loop
      vertex 75.106 -83.3775 0
      vertex 85.7927 -83.3775 0
      vertex 75.106 -98.3775 0
    endloop
  endfacet
  facet normal 0 0 -1
    outer loop
      vertex 67.459 -115.132 0
      vertex 75.106 -98.3775 0
      vertex 80.4494 -107.632 0
    endloop
  endfacet
  facet normal 0 0 -1
    outer loop
      vertex 75.106 -98.3775 0
      vertex 67.459 -115.132 0
      vertex 62.1156 -105.878 0
    endloop
  endfacet
  facet normal 0 0 -1
    outer loop
      vertex 122.46 -83.3775 0
      vertex 111.773 -83.3775 0
      vertex 117.117 -74.1225 0
    endloop
  endfacet
  facet normal 0 0 -1
    outer loop
      vertex 111.773 -83.3775 0
      vertex 104.126 -66.6225 0
      vertex 117.117 -74.1225 0
    endloop
  endfacet
  facet normal 0 0 -1
    outer loop
      vertex 93.4397 -66.6225 0
      vertex 104.126 -66.6225 0
      vertex 98.7831 -75.8775 0
    endloop
  endfacet
  facet normal 0 0 -1
    outer loop
      vertex 98.7831 -75.8775 0
      vertex 104.126 -66.6225 0
      vertex 111.773 -83.3775 0
    endloop
  endfacet
  facet normal 0 0 -1
    outer loop
      vertex 140.794 -115.132 0
      vertex 130.107 -115.132 0
      vertex 135.451 -105.878 0
    endloop
  endfacet
  facet normal 0 0 -1
    outer loop
      vertex 130.107 -115.132 0
      vertex 122.46 -98.3775 0
      vertex 135.451 -105.878 0
    endloop
  endfacet
  facet normal 0 0 -1
    outer loop
      vertex 111.773 -98.3775 0
      vertex 122.46 -98.3775 0
      vertex 117.117 -107.632 0
    endloop
  endfacet
  facet normal 0 0 -1
    outer loop
      vertex 117.117 -107.632 0
      vertex 122.46 -98.3775 0
      vertex 130.107 -115.132 0
    endloop
  endfacet
  facet normal 0 0 -1
    outer loop
      vertex 140.794 -51.6225 0
      vertex 130.107 -51.6225 0
      vertex 135.451 -42.3675 0
    endloop
  endfacet
  facet normal 0 0 -1
    outer loop
      vertex 130.107 -51.6225 0
      vertex 122.46 -34.8675 0
      vertex 135.451 -42.3675 0
    endloop
  endfacet
  facet normal 0 0 -1
    outer loop
      vertex 111.773 -34.8675 0
      vertex 122.46 -34.8675 0
      vertex 117.117 -44.1225 0
    endloop
  endfacet
  facet normal 0 0 -1
    outer loop
      vertex 117.117 -44.1225 0
      vertex 122.46 -34.8675 0
      vertex 130.107 -51.6225 0
    endloop
  endfacet
  facet normal 0 0 -1
    outer loop
      vertex 140.794 -51.6225 0
      vertex 148.441 -34.8675 0
      vertex 153.784 -44.1225 0
    endloop
  endfacet
  facet normal 0 0 -1
    outer loop
      vertex 140.794 -51.6225 0
      vertex 135.451 -42.3675 0
      vertex 148.441 -34.8675 0
    endloop
  endfacet
  facet normal 0 0 -1
    outer loop
      vertex 140.794 -66.6225 0
      vertex 130.107 -66.6225 0
      vertex 140.794 -51.6225 0
    endloop
  endfacet
  facet normal 0 0 -1
    outer loop
      vertex 130.107 -51.6225 0
      vertex 140.794 -51.6225 0
      vertex 130.107 -66.6225 0
    endloop
  endfacet
  facet normal 0 0 -1
    outer loop
      vertex 122.46 -83.3775 0
      vertex 130.107 -66.6225 0
      vertex 135.451 -75.8775 0
    endloop
  endfacet
  facet normal 0 0 -1
    outer loop
      vertex 122.46 -83.3775 0
      vertex 117.117 -74.1225 0
      vertex 130.107 -66.6225 0
    endloop
  endfacet
  facet normal 0 0 -1
    outer loop
      vertex 122.46 -98.3775 0
      vertex 111.773 -98.3775 0
      vertex 122.46 -83.3775 0
    endloop
  endfacet
  facet normal 0 0 -1
    outer loop
      vertex 111.773 -83.3775 0
      vertex 122.46 -83.3775 0
      vertex 111.773 -98.3775 0
    endloop
  endfacet
  facet normal 0 0 -1
    outer loop
      vertex 104.126 -115.132 0
      vertex 111.773 -98.3775 0
      vertex 117.117 -107.632 0
    endloop
  endfacet
  facet normal 0 0 -1
    outer loop
      vertex 111.773 -98.3775 0
      vertex 104.126 -115.132 0
      vertex 98.7831 -105.878 0
    endloop
  endfacet
  facet normal 0 0 -1
    outer loop
      vertex 159.128 -83.3775 0
      vertex 148.441 -83.3775 0
      vertex 153.784 -74.1225 0
    endloop
  endfacet
  facet normal 0 0 -1
    outer loop
      vertex 148.441 -83.3775 0
      vertex 140.794 -66.6225 0
      vertex 153.784 -74.1225 0
    endloop
  endfacet
  facet normal 0 0 -1
    outer loop
      vertex 130.107 -66.6225 0
      vertex 140.794 -66.6225 0
      vertex 135.451 -75.8775 0
    endloop
  endfacet
  facet normal 0 0 -1
    outer loop
      vertex 135.451 -75.8775 0
      vertex 140.794 -66.6225 0
      vertex 148.441 -83.3775 0
    endloop
  endfacet
  facet normal 0 0 -1
    outer loop
      vertex 177.462 -115.132 0
      vertex 166.775 -115.132 0
      vertex 172.118 -105.878 0
    endloop
  endfacet
  facet normal 0 0 -1
    outer loop
      vertex 166.775 -115.132 0
      vertex 159.128 -98.3775 0
      vertex 172.118 -105.878 0
    endloop
  endfacet
  facet normal 0 0 -1
    outer loop
      vertex 148.441 -98.3775 0
      vertex 159.128 -98.3775 0
      vertex 153.784 -107.632 0
    endloop
  endfacet
  facet normal 0 0 -1
    outer loop
      vertex 153.784 -107.632 0
      vertex 159.128 -98.3775 0
      vertex 166.775 -115.132 0
    endloop
  endfacet
  facet normal 0 0 -1
    outer loop
      vertex 177.462 -51.6225 0
      vertex 166.775 -51.6225 0
      vertex 172.118 -42.3675 0
    endloop
  endfacet
  facet normal 0 0 -1
    outer loop
      vertex 166.775 -51.6225 0
      vertex 159.128 -34.8675 0
      vertex 172.118 -42.3675 0
    endloop
  endfacet
  facet normal 0 0 -1
    outer loop
      vertex 148.441 -34.8675 0
      vertex 159.128 -34.8675 0
      vertex 153.784 -44.1225 0
    endloop
  endfacet
  facet normal 0 0 -1
    outer loop
      vertex 153.784 -44.1225 0
      vertex 159.128 -34.8675 0
      vertex 166.775 -51.6225 0
    endloop
  endfacet
  facet normal 0 0 -1
    outer loop
      vertex 177.462 -51.6225 0
      vertex 185.109 -34.8675 0
      vertex 190.452 -44.1225 0
    endloop
  endfacet
  facet normal 0 0 -1
    outer loop
      vertex 177.462 -51.6225 0
      vertex 172.118 -42.3675 0
      vertex 185.109 -34.8675 0
    endloop
  endfacet
  facet normal 0 0 -1
    outer loop
      vertex 177.462 -66.6225 0
      vertex 166.775 -66.6225 0
      vertex 177.462 -51.6225 0
    endloop
  endfacet
  facet normal 0 0 -1
    outer loop
      vertex 166.775 -51.6225 0
      vertex 177.462 -51.6225 0
      vertex 166.775 -66.6225 0
    endloop
  endfacet
  facet normal 0 0 -1
    outer loop
      vertex 159.128 -83.3775 0
      vertex 166.775 -66.6225 0
      vertex 172.118 -75.8775 0
    endloop
  endfacet
  facet normal 0 0 -1
    outer loop
      vertex 159.128 -83.3775 0
      vertex 153.784 -74.1225 0
      vertex 166.775 -66.6225 0
    endloop
  endfacet
  facet normal 0 0 -1
    outer loop
      vertex 159.128 -98.3775 0
      vertex 148.441 -98.3775 0
      vertex 159.128 -83.3775 0
    endloop
  endfacet
  facet normal 0 0 -1
    outer loop
      vertex 148.441 -83.3775 0
      vertex 159.128 -83.3775 0
      vertex 148.441 -98.3775 0
    endloop
  endfacet
  facet normal 0 0 -1
    outer loop
      vertex 140.794 -115.132 0
      vertex 148.441 -98.3775 0
      vertex 153.784 -107.632 0
    endloop
  endfacet
  facet normal 0 0 -1
    outer loop
      vertex 148.441 -98.3775 0
      vertex 140.794 -115.132 0
      vertex 135.451 -105.878 0
    endloop
  endfacet
  facet normal 0 0 -1
    outer loop
      vertex 190.452 -107.632 0
      vertex 203.442 -66.6225 0
      vertex 203.442 -115.132 0
    endloop
  endfacet
  facet normal 0 0 -1
    outer loop
      vertex 190.452 -107.632 0
      vertex 190.452 -74.1225 0
      vertex 203.442 -66.6225 0
    endloop
  endfacet
  facet normal 0 0 -1
    outer loop
      vertex 190.452 -107.632 0
      vertex 185.109 -98.3775 0
      vertex 190.452 -74.1225 0
    endloop
  endfacet
  facet normal 0 0 -1
    outer loop
      vertex 177.462 -115.132 0
      vertex 185.109 -98.3775 0
      vertex 190.452 -107.632 0
    endloop
  endfacet
  facet normal 0 0 -1
    outer loop
      vertex 185.109 -98.3775 0
      vertex 177.462 -115.132 0
      vertex 172.118 -105.878 0
    endloop
  endfacet
  facet normal 0 0 -1
    outer loop
      vertex 203.442 -115.132 0
      vertex 215.9 -150 0
      vertex 203.442 -130.133 0
    endloop
  endfacet
  facet normal 0 0 -1
    outer loop
      vertex 215.9 -150 0
      vertex 190.452 -137.633 0
      vertex 203.442 -130.133 0
    endloop
  endfacet
  facet normal 0 0 -1
    outer loop
      vertex 166.775 -130.133 0
      vertex 177.462 -115.132 0
      vertex 177.462 -130.133 0
    endloop
  endfacet
  facet normal 0 0 -1
    outer loop
      vertex 166.775 -115.132 0
      vertex 177.462 -115.132 0
      vertex 166.775 -130.133 0
    endloop
  endfacet
  facet normal 0 0 -1
    outer loop
      vertex 190.452 -137.633 0
      vertex 166.775 -130.133 0
      vertex 177.462 -130.133 0
    endloop
  endfacet
  facet normal 0 0 -1
    outer loop
      vertex 153.784 -137.633 0
      vertex 190.452 -137.633 0
      vertex 215.9 -150 0
    endloop
  endfacet
  facet normal 0 0 -1
    outer loop
      vertex 190.452 -137.633 0
      vertex 153.784 -137.633 0
      vertex 166.775 -130.133 0
    endloop
  endfacet
  facet normal 0 0 -1
    outer loop
      vertex 130.107 -130.133 0
      vertex 140.794 -115.132 0
      vertex 140.794 -130.133 0
    endloop
  endfacet
  facet normal 0 0 -1
    outer loop
      vertex 130.107 -115.132 0
      vertex 140.794 -115.132 0
      vertex 130.107 -130.133 0
    endloop
  endfacet
  facet normal 0 0 -1
    outer loop
      vertex 153.784 -137.633 0
      vertex 130.107 -130.133 0
      vertex 140.794 -130.133 0
    endloop
  endfacet
  facet normal 0 0 -1
    outer loop
      vertex 153.784 -137.633 0
      vertex 117.117 -137.633 0
      vertex 130.107 -130.133 0
    endloop
  endfacet
  facet normal 0 0 -1
    outer loop
      vertex 215.9 -150 0
      vertex 117.117 -137.633 0
      vertex 153.784 -137.633 0
    endloop
  endfacet
  facet normal 0 0 -1
    outer loop
      vertex 93.4397 -130.133 0
      vertex 104.126 -115.132 0
      vertex 104.126 -130.133 0
    endloop
  endfacet
  facet normal 0 0 -1
    outer loop
      vertex 93.4397 -115.132 0
      vertex 104.126 -115.132 0
      vertex 93.4397 -130.133 0
    endloop
  endfacet
  facet normal 0 0 -1
    outer loop
      vertex 117.117 -137.633 0
      vertex 93.4397 -130.133 0
      vertex 104.126 -130.133 0
    endloop
  endfacet
  facet normal 0 0 -1
    outer loop
      vertex 117.117 -137.633 0
      vertex 80.4494 -137.633 0
      vertex 93.4397 -130.133 0
    endloop
  endfacet
  facet normal 0 0 -1
    outer loop
      vertex 0 -150 0
      vertex 117.117 -137.633 0
      vertex 215.9 -150 0
    endloop
  endfacet
  facet normal 0 0 -1
    outer loop
      vertex 56.7722 -130.133 0
      vertex 67.459 -115.132 0
      vertex 67.459 -130.133 0
    endloop
  endfacet
  facet normal 0 0 -1
    outer loop
      vertex 56.7722 -115.132 0
      vertex 67.459 -115.132 0
      vertex 56.7722 -130.133 0
    endloop
  endfacet
  facet normal 0 0 -1
    outer loop
      vertex 80.4494 -137.633 0
      vertex 56.7722 -130.133 0
      vertex 67.459 -130.133 0
    endloop
  endfacet
  facet normal 0 0 -1
    outer loop
      vertex 80.4494 -137.633 0
      vertex 43.7818 -137.633 0
      vertex 56.7722 -130.133 0
    endloop
  endfacet
  facet normal -0 0 -1
    outer loop
      vertex 117.117 -137.633 0
      vertex 0 -150 0
      vertex 80.4494 -137.633 0
    endloop
  endfacet
  facet normal 0 0 -1
    outer loop
      vertex 30.7915 -130.133 0
      vertex 25.4481 -105.878 0
      vertex 30.7915 -115.132 0
    endloop
  endfacet
  facet normal 0 0 -1
    outer loop
      vertex 30.7915 -130.133 0
      vertex 12.4577 -98.3775 0
      vertex 25.4481 -105.878 0
    endloop
  endfacet
  facet normal 0 0 -1
    outer loop
      vertex 0 -150 0
      vertex 12.4577 -83.3775 0
      vertex 12.4577 -98.3775 0
    endloop
  endfacet
  facet normal 0 0 -1
    outer loop
      vertex 12.4577 -83.3775 0
      vertex 0 0 0
      vertex 12.4577 -34.8675 0
    endloop
  endfacet
  facet normal -0 0 -1
    outer loop
      vertex 12.4577 -83.3775 0
      vertex 0 -150 0
      vertex 0 0 0
    endloop
  endfacet
  facet normal -0 0 -1
    outer loop
      vertex 30.7915 -130.133 0
      vertex 0 -150 0
      vertex 12.4577 -98.3775 0
    endloop
  endfacet
  facet normal -0 0 -1
    outer loop
      vertex 43.7818 -137.633 0
      vertex 0 -150 0
      vertex 30.7915 -130.133 0
    endloop
  endfacet
  facet normal -0 0 -1
    outer loop
      vertex 80.4494 -137.633 0
      vertex 0 -150 0
      vertex 43.7818 -137.633 0
    endloop
  endfacet
  facet normal 0 0 -1
    outer loop
      vertex 203.442 -66.6225 0
      vertex 215.9 -150 0
      vertex 203.442 -115.132 0
    endloop
  endfacet
  facet normal 0 0 -1
    outer loop
      vertex 215.9 -150 0
      vertex 203.442 -66.6225 0
      vertex 215.9 0 0
    endloop
  endfacet
  facet normal 0 0 -1
    outer loop
      vertex 203.442 -51.6225 0
      vertex 215.9 0 0
      vertex 203.442 -66.6225 0
    endloop
  endfacet
  facet normal 0 0 -1
    outer loop
      vertex 185.109 -19.8675 0
      vertex 203.442 -51.6225 0
      vertex 190.452 -44.1225 0
    endloop
  endfacet
  facet normal 0 0 -1
    outer loop
      vertex 185.109 -19.8675 0
      vertex 190.452 -44.1225 0
      vertex 185.109 -34.8675 0
    endloop
  endfacet
  facet normal 0 0 -1
    outer loop
      vertex 203.442 -51.6225 0
      vertex 185.109 -19.8675 0
      vertex 215.9 0 0
    endloop
  endfacet
  facet normal 0 0 -1
    outer loop
      vertex 172.118 -12.3675 0
      vertex 215.9 0 0
      vertex 185.109 -19.8675 0
    endloop
  endfacet
  facet normal 0 0 -1
    outer loop
      vertex 159.128 -34.8675 0
      vertex 148.441 -34.8675 0
      vertex 159.128 -19.8675 0
    endloop
  endfacet
  facet normal 0 0 -1
    outer loop
      vertex 148.441 -19.8675 0
      vertex 159.128 -19.8675 0
      vertex 148.441 -34.8675 0
    endloop
  endfacet
  facet normal 0 0 -1
    outer loop
      vertex 148.441 -19.8675 0
      vertex 172.118 -12.3675 0
      vertex 159.128 -19.8675 0
    endloop
  endfacet
  facet normal 0 0 -1
    outer loop
      vertex 135.451 -12.3675 0
      vertex 172.118 -12.3675 0
      vertex 148.441 -19.8675 0
    endloop
  endfacet
  facet normal 0 0 -1
    outer loop
      vertex 135.451 -12.3675 0
      vertex 215.9 0 0
      vertex 172.118 -12.3675 0
    endloop
  endfacet
  facet normal 0 0 -1
    outer loop
      vertex 122.46 -34.8675 0
      vertex 111.773 -34.8675 0
      vertex 122.46 -19.8675 0
    endloop
  endfacet
  facet normal 0 0 -1
    outer loop
      vertex 111.773 -19.8675 0
      vertex 122.46 -19.8675 0
      vertex 111.773 -34.8675 0
    endloop
  endfacet
  facet normal 0 0 -1
    outer loop
      vertex 111.773 -19.8675 0
      vertex 135.451 -12.3675 0
      vertex 122.46 -19.8675 0
    endloop
  endfacet
  facet normal 0 0 -1
    outer loop
      vertex 98.7831 -12.3675 0
      vertex 135.451 -12.3675 0
      vertex 111.773 -19.8675 0
    endloop
  endfacet
  facet normal 0 0 -1
    outer loop
      vertex 98.7831 -12.3675 0
      vertex 215.9 0 0
      vertex 135.451 -12.3675 0
    endloop
  endfacet
  facet normal 0 0 -1
    outer loop
      vertex 85.7927 -34.8675 0
      vertex 75.106 -34.8675 0
      vertex 85.7927 -19.8675 0
    endloop
  endfacet
  facet normal 0 0 -1
    outer loop
      vertex 75.106 -19.8675 0
      vertex 85.7927 -19.8675 0
      vertex 75.106 -34.8675 0
    endloop
  endfacet
  facet normal 0 0 -1
    outer loop
      vertex 75.106 -19.8675 0
      vertex 98.7831 -12.3675 0
      vertex 85.7927 -19.8675 0
    endloop
  endfacet
  facet normal 0 0 -1
    outer loop
      vertex 62.1156 -12.3675 0
      vertex 98.7831 -12.3675 0
      vertex 75.106 -19.8675 0
    endloop
  endfacet
  facet normal 0 0 -1
    outer loop
      vertex 0 0 0
      vertex 98.7831 -12.3675 0
      vertex 62.1156 -12.3675 0
    endloop
  endfacet
  facet normal 0 0 -1
    outer loop
      vertex 49.1252 -34.8675 0
      vertex 38.4385 -34.8675 0
      vertex 49.1252 -19.8675 0
    endloop
  endfacet
  facet normal 0 0 -1
    outer loop
      vertex 38.4385 -19.8675 0
      vertex 49.1252 -19.8675 0
      vertex 38.4385 -34.8675 0
    endloop
  endfacet
  facet normal 0 0 -1
    outer loop
      vertex 38.4385 -19.8675 0
      vertex 62.1156 -12.3675 0
      vertex 49.1252 -19.8675 0
    endloop
  endfacet
  facet normal 0 0 -1
    outer loop
      vertex 25.4481 -12.3675 0
      vertex 62.1156 -12.3675 0
      vertex 38.4385 -19.8675 0
    endloop
  endfacet
  facet normal 0 0 -1
    outer loop
      vertex 0 0 0
      vertex 62.1156 -12.3675 0
      vertex 25.4481 -12.3675 0
    endloop
  endfacet
  facet normal 0 0 -1
    outer loop
      vertex 98.7831 -12.3675 0
      vertex 0 0 0
      vertex 215.9 0 0
    endloop
  endfacet
  facet normal 0 0 -1
    outer loop
      vertex 12.4577 -19.8675 0
      vertex 0 0 0
      vertex 25.4481 -12.3675 0
    endloop
  endfacet
  facet normal 0 0 -1
    outer loop
      vertex 12.4577 -34.8675 0
      vertex 0 0 0
      vertex 12.4577 -19.8675 0
    endloop
  endfacet
  facet normal 0 0 -1
    outer loop
      vertex 185.109 -83.3775 0
      vertex 190.452 -74.1225 0
      vertex 185.109 -98.3775 0
    endloop
  endfacet
  facet normal 0 0 -1
    outer loop
      vertex 185.109 -83.3775 0
      vertex 177.462 -66.6225 0
      vertex 190.452 -74.1225 0
    endloop
  endfacet
  facet normal 0 0 -1
    outer loop
      vertex 166.775 -66.6225 0
      vertex 177.462 -66.6225 0
      vertex 172.118 -75.8775 0
    endloop
  endfacet
  facet normal 0 0 -1
    outer loop
      vertex 172.118 -75.8775 0
      vertex 177.462 -66.6225 0
      vertex 185.109 -83.3775 0
    endloop
  endfacet
  facet normal 0 1 -0
    outer loop
      vertex 215.9 0 0
      vertex 0 0 1
      vertex 215.9 0 1
    endloop
  endfacet
  facet normal 0 1 0
    outer loop
      vertex 0 0 1
      vertex 215.9 0 0
      vertex 0 0 0
    endloop
  endfacet
  facet normal 0 -1 0
    outer loop
      vertex 0 -150 0
      vertex 215.9 -150 1
      vertex 0 -150 1
    endloop
  endfacet
  facet normal 0 -1 -0
    outer loop
      vertex 215.9 -150 1
      vertex 0 -150 0
      vertex 215.9 -150 0
    endloop
  endfacet
  facet normal -1 0 0
    outer loop
      vertex 1.67 -148.33 1
      vertex 1.67 -1.67 5
      vertex 1.67 -1.67 1
    endloop
  endfacet
  facet normal -1 -0 0
    outer loop
      vertex 1.67 -1.67 5
      vertex 1.67 -148.33 1
      vertex 1.67 -148.33 5
    endloop
  endfacet
  facet normal 0 0 1
    outer loop
      vertex 214.23 -1.67 5
      vertex 213.37 -2.53 5
      vertex 214.23 -148.33 5
    endloop
  endfacet
  facet normal 0 0 1
    outer loop
      vertex 214.23 -1.67 5
      vertex 2.53 -2.53 5
      vertex 213.37 -2.53 5
    endloop
  endfacet
  facet normal 0 0 1
    outer loop
      vertex 2.53 -2.53 5
      vertex 1.67 -1.67 5
      vertex 2.53 -147.47 5
    endloop
  endfacet
  facet normal -0 0 1
    outer loop
      vertex 1.67 -1.67 5
      vertex 2.53 -2.53 5
      vertex 214.23 -1.67 5
    endloop
  endfacet
  facet normal -0 0 1
    outer loop
      vertex 213.37 -147.47 5
      vertex 214.23 -148.33 5
      vertex 213.37 -2.53 5
    endloop
  endfacet
  facet normal -0 0 1
    outer loop
      vertex 2.53 -147.47 5
      vertex 214.23 -148.33 5
      vertex 213.37 -147.47 5
    endloop
  endfacet
  facet normal 0 0 1
    outer loop
      vertex 2.53 -147.47 5
      vertex 1.67 -148.33 5
      vertex 214.23 -148.33 5
    endloop
  endfacet
  facet normal 0 0 1
    outer loop
      vertex 1.67 -148.33 5
      vertex 2.53 -147.47 5
      vertex 1.67 -1.67 5
    endloop
  endfacet
  facet normal 1 -0 0
    outer loop
      vertex 214.23 -148.33 5
      vertex 214.23 -1.67 1
      vertex 214.23 -1.67 5
    endloop
  endfacet
  facet normal 1 0 0
    outer loop
      vertex 214.23 -1.67 1
      vertex 214.23 -148.33 5
      vertex 214.23 -148.33 1
    endloop
  endfacet
  facet normal 0 1 -0
    outer loop
      vertex 214.23 -1.67 1
      vertex 1.67 -1.67 5
      vertex 214.23 -1.67 5
    endloop
  endfacet
  facet normal 0 1 0
    outer loop
      vertex 1.67 -1.67 5
      vertex 214.23 -1.67 1
      vertex 1.67 -1.67 1
    endloop
  endfacet
  facet normal 0 -1 0
    outer loop
      vertex 1.67 -148.33 1
      vertex 214.23 -148.33 5
      vertex 1.67 -148.33 5
    endloop
  endfacet
  facet normal 0 -1 -0
    outer loop
      vertex 214.23 -148.33 5
      vertex 1.67 -148.33 1
      vertex 214.23 -148.33 1
    endloop
  endfacet
  facet normal 0.5 0.866025 -0
    outer loop
      vertex 25.4481 -42.3675 0
      vertex 12.4577 -34.8675 1
      vertex 25.4481 -42.3675 1
    endloop
  endfacet
  facet normal 0.5 0.866025 0
    outer loop
      vertex 12.4577 -34.8675 1
      vertex 25.4481 -42.3675 0
      vertex 12.4577 -34.8675 0
    endloop
  endfacet
  facet normal 1 -0 0
    outer loop
      vertex 12.4577 -34.8675 1
      vertex 12.4577 -19.8675 0
      vertex 12.4577 -19.8675 1
    endloop
  endfacet
  facet normal 1 0 0
    outer loop
      vertex 12.4577 -19.8675 0
      vertex 12.4577 -34.8675 1
      vertex 12.4577 -34.8675 0
    endloop
  endfacet
  facet normal 0.5 -0.866025 0
    outer loop
      vertex 12.4577 -19.8675 0
      vertex 25.4481 -12.3675 1
      vertex 12.4577 -19.8675 1
    endloop
  endfacet
  facet normal 0.5 -0.866025 0
    outer loop
      vertex 25.4481 -12.3675 1
      vertex 12.4577 -19.8675 0
      vertex 25.4481 -12.3675 0
    endloop
  endfacet
  facet normal -0.5 0.866025 0
    outer loop
      vertex 38.4385 -34.8675 0
      vertex 25.4481 -42.3675 1
      vertex 38.4385 -34.8675 1
    endloop
  endfacet
  facet normal -0.5 0.866025 0
    outer loop
      vertex 25.4481 -42.3675 1
      vertex 38.4385 -34.8675 0
      vertex 25.4481 -42.3675 0
    endloop
  endfacet
  facet normal -1 0 0
    outer loop
      vertex 38.4385 -34.8675 0
      vertex 38.4385 -19.8675 1
      vertex 38.4385 -19.8675 0
    endloop
  endfacet
  facet normal -1 -0 0
    outer loop
      vertex 38.4385 -19.8675 1
      vertex 38.4385 -34.8675 0
      vertex 38.4385 -34.8675 1
    endloop
  endfacet
  facet normal -0.5 -0.866025 0
    outer loop
      vertex 25.4481 -12.3675 0
      vertex 38.4385 -19.8675 1
      vertex 25.4481 -12.3675 1
    endloop
  endfacet
  facet normal -0.5 -0.866025 -0
    outer loop
      vertex 38.4385 -19.8675 1
      vertex 25.4481 -12.3675 0
      vertex 38.4385 -19.8675 0
    endloop
  endfacet
  facet normal 0.5 0.866025 -0
    outer loop
      vertex 62.1156 -42.3675 0
      vertex 49.1252 -34.8675 1
      vertex 62.1156 -42.3675 1
    endloop
  endfacet
  facet normal 0.5 0.866025 0
    outer loop
      vertex 49.1252 -34.8675 1
      vertex 62.1156 -42.3675 0
      vertex 49.1252 -34.8675 0
    endloop
  endfacet
  facet normal 1 -0 0
    outer loop
      vertex 49.1252 -34.8675 1
      vertex 49.1252 -19.8675 0
      vertex 49.1252 -19.8675 1
    endloop
  endfacet
  facet normal 1 0 0
    outer loop
      vertex 49.1252 -19.8675 0
      vertex 49.1252 -34.8675 1
      vertex 49.1252 -34.8675 0
    endloop
  endfacet
  facet normal -0.5 -0.866025 0
    outer loop
      vertex 62.1156 -12.3675 0
      vertex 75.106 -19.8675 1
      vertex 62.1156 -12.3675 1
    endloop
  endfacet
  facet normal -0.5 -0.866025 -0
    outer loop
      vertex 75.106 -19.8675 1
      vertex 62.1156 -12.3675 0
      vertex 75.106 -19.8675 0
    endloop
  endfacet
  facet normal 0.5 -0.866025 0
    outer loop
      vertex 49.1252 -19.8675 0
      vertex 62.1156 -12.3675 1
      vertex 49.1252 -19.8675 1
    endloop
  endfacet
  facet normal 0.5 -0.866025 0
    outer loop
      vertex 62.1156 -12.3675 1
      vertex 49.1252 -19.8675 0
      vertex 62.1156 -12.3675 0
    endloop
  endfacet
  facet normal -0.5 0.866025 0
    outer loop
      vertex 75.106 -34.8675 0
      vertex 62.1156 -42.3675 1
      vertex 75.106 -34.8675 1
    endloop
  endfacet
  facet normal -0.5 0.866025 0
    outer loop
      vertex 62.1156 -42.3675 1
      vertex 75.106 -34.8675 0
      vertex 62.1156 -42.3675 0
    endloop
  endfacet
  facet normal -1 0 0
    outer loop
      vertex 75.106 -34.8675 0
      vertex 75.106 -19.8675 1
      vertex 75.106 -19.8675 0
    endloop
  endfacet
  facet normal -1 -0 0
    outer loop
      vertex 75.106 -19.8675 1
      vertex 75.106 -34.8675 0
      vertex 75.106 -34.8675 1
    endloop
  endfacet
  facet normal 0.5 0.866025 -0
    outer loop
      vertex 98.7831 -42.3675 0
      vertex 85.7927 -34.8675 1
      vertex 98.7831 -42.3675 1
    endloop
  endfacet
  facet normal 0.5 0.866025 0
    outer loop
      vertex 85.7927 -34.8675 1
      vertex 98.7831 -42.3675 0
      vertex 85.7927 -34.8675 0
    endloop
  endfacet
  facet normal -1 0 0
    outer loop
      vertex 111.773 -34.8675 0
      vertex 111.773 -19.8675 1
      vertex 111.773 -19.8675 0
    endloop
  endfacet
  facet normal -1 -0 0
    outer loop
      vertex 111.773 -19.8675 1
      vertex 111.773 -34.8675 0
      vertex 111.773 -34.8675 1
    endloop
  endfacet
  facet normal 1 -0 0
    outer loop
      vertex 85.7927 -34.8675 1
      vertex 85.7927 -19.8675 0
      vertex 85.7927 -19.8675 1
    endloop
  endfacet
  facet normal 1 0 0
    outer loop
      vertex 85.7927 -19.8675 0
      vertex 85.7927 -34.8675 1
      vertex 85.7927 -34.8675 0
    endloop
  endfacet
  facet normal -0.5 -0.866025 0
    outer loop
      vertex 98.7831 -12.3675 0
      vertex 111.773 -19.8675 1
      vertex 98.7831 -12.3675 1
    endloop
  endfacet
  facet normal -0.5 -0.866025 -0
    outer loop
      vertex 111.773 -19.8675 1
      vertex 98.7831 -12.3675 0
      vertex 111.773 -19.8675 0
    endloop
  endfacet
  facet normal -0.5 0.866025 0
    outer loop
      vertex 111.773 -34.8675 0
      vertex 98.7831 -42.3675 1
      vertex 111.773 -34.8675 1
    endloop
  endfacet
  facet normal -0.5 0.866025 0
    outer loop
      vertex 98.7831 -42.3675 1
      vertex 111.773 -34.8675 0
      vertex 98.7831 -42.3675 0
    endloop
  endfacet
  facet normal 0.5 -0.866025 0
    outer loop
      vertex 85.7927 -19.8675 0
      vertex 98.7831 -12.3675 1
      vertex 85.7927 -19.8675 1
    endloop
  endfacet
  facet normal 0.5 -0.866025 0
    outer loop
      vertex 98.7831 -12.3675 1
      vertex 85.7927 -19.8675 0
      vertex 98.7831 -12.3675 0
    endloop
  endfacet
  facet normal 0.5 0.866025 -0
    outer loop
      vertex 135.451 -42.3675 0
      vertex 122.46 -34.8675 1
      vertex 135.451 -42.3675 1
    endloop
  endfacet
  facet normal 0.5 0.866025 0
    outer loop
      vertex 122.46 -34.8675 1
      vertex 135.451 -42.3675 0
      vertex 122.46 -34.8675 0
    endloop
  endfacet
  facet normal -1 0 0
    outer loop
      vertex 148.441 -34.8675 0
      vertex 148.441 -19.8675 1
      vertex 148.441 -19.8675 0
    endloop
  endfacet
  facet normal -1 -0 0
    outer loop
      vertex 148.441 -19.8675 1
      vertex 148.441 -34.8675 0
      vertex 148.441 -34.8675 1
    endloop
  endfacet
  facet normal 1 -0 0
    outer loop
      vertex 122.46 -34.8675 1
      vertex 122.46 -19.8675 0
      vertex 122.46 -19.8675 1
    endloop
  endfacet
  facet normal 1 0 0
    outer loop
      vertex 122.46 -19.8675 0
      vertex 122.46 -34.8675 1
      vertex 122.46 -34.8675 0
    endloop
  endfacet
  facet normal -0.5 -0.866025 0
    outer loop
      vertex 135.451 -12.3675 0
      vertex 148.441 -19.8675 1
      vertex 135.451 -12.3675 1
    endloop
  endfacet
  facet normal -0.5 -0.866025 -0
    outer loop
      vertex 148.441 -19.8675 1
      vertex 135.451 -12.3675 0
      vertex 148.441 -19.8675 0
    endloop
  endfacet
  facet normal -0.5 0.866025 0
    outer loop
      vertex 148.441 -34.8675 0
      vertex 135.451 -42.3675 1
      vertex 148.441 -34.8675 1
    endloop
  endfacet
  facet normal -0.5 0.866025 0
    outer loop
      vertex 135.451 -42.3675 1
      vertex 148.441 -34.8675 0
      vertex 135.451 -42.3675 0
    endloop
  endfacet
  facet normal 0.5 -0.866025 0
    outer loop
      vertex 122.46 -19.8675 0
      vertex 135.451 -12.3675 1
      vertex 122.46 -19.8675 1
    endloop
  endfacet
  facet normal 0.5 -0.866025 0
    outer loop
      vertex 135.451 -12.3675 1
      vertex 122.46 -19.8675 0
      vertex 135.451 -12.3675 0
    endloop
  endfacet
  facet normal 0.5 0.866025 -0
    outer loop
      vertex 172.118 -42.3675 0
      vertex 159.128 -34.8675 1
      vertex 172.118 -42.3675 1
    endloop
  endfacet
  facet normal 0.5 0.866025 0
    outer loop
      vertex 159.128 -34.8675 1
      vertex 172.118 -42.3675 0
      vertex 159.128 -34.8675 0
    endloop
  endfacet
  facet normal 1 -0 0
    outer loop
      vertex 159.128 -34.8675 1
      vertex 159.128 -19.8675 0
      vertex 159.128 -19.8675 1
    endloop
  endfacet
  facet normal 1 0 0
    outer loop
      vertex 159.128 -19.8675 0
      vertex 159.128 -34.8675 1
      vertex 159.128 -34.8675 0
    endloop
  endfacet
  facet normal -0.5 -0.866025 0
    outer loop
      vertex 172.118 -12.3675 0
      vertex 185.109 -19.8675 1
      vertex 172.118 -12.3675 1
    endloop
  endfacet
  facet normal -0.5 -0.866025 -0
    outer loop
      vertex 185.109 -19.8675 1
      vertex 172.118 -12.3675 0
      vertex 185.109 -19.8675 0
    endloop
  endfacet
  facet normal 0.5 -0.866025 0
    outer loop
      vertex 159.128 -19.8675 0
      vertex 172.118 -12.3675 1
      vertex 159.128 -19.8675 1
    endloop
  endfacet
  facet normal 0.5 -0.866025 0
    outer loop
      vertex 172.118 -12.3675 1
      vertex 159.128 -19.8675 0
      vertex 172.118 -12.3675 0
    endloop
  endfacet
  facet normal -0.5 0.866026 0
    outer loop
      vertex 185.109 -34.8675 0
      vertex 172.118 -42.3675 1
      vertex 185.109 -34.8675 1
    endloop
  endfacet
  facet normal -0.5 0.866026 0
    outer loop
      vertex 172.118 -42.3675 1
      vertex 185.109 -34.8675 0
      vertex 172.118 -42.3675 0
    endloop
  endfacet
  facet normal -1 0 0
    outer loop
      vertex 185.109 -34.8675 0
      vertex 185.109 -19.8675 1
      vertex 185.109 -19.8675 0
    endloop
  endfacet
  facet normal -1 -0 0
    outer loop
      vertex 185.109 -19.8675 1
      vertex 185.109 -34.8675 0
      vertex 185.109 -34.8675 1
    endloop
  endfacet
  facet normal 0.5 0.866025 -0
    outer loop
      vertex 43.7818 -74.1225 0
      vertex 30.7915 -66.6225 1
      vertex 43.7818 -74.1225 1
    endloop
  endfacet
  facet normal 0.5 0.866025 0
    outer loop
      vertex 30.7915 -66.6225 1
      vertex 43.7818 -74.1225 0
      vertex 30.7915 -66.6225 0
    endloop
  endfacet
  facet normal 1 -0 0
    outer loop
      vertex 30.7915 -66.6225 1
      vertex 30.7915 -51.6225 0
      vertex 30.7915 -51.6225 1
    endloop
  endfacet
  facet normal 1 0 0
    outer loop
      vertex 30.7915 -51.6225 0
      vertex 30.7915 -66.6225 1
      vertex 30.7915 -66.6225 0
    endloop
  endfacet
  facet normal -0.5 -0.866025 0
    outer loop
      vertex 43.7818 -44.1225 0
      vertex 56.7722 -51.6225 1
      vertex 43.7818 -44.1225 1
    endloop
  endfacet
  facet normal -0.5 -0.866025 -0
    outer loop
      vertex 56.7722 -51.6225 1
      vertex 43.7818 -44.1225 0
      vertex 56.7722 -51.6225 0
    endloop
  endfacet
  facet normal 0.5 -0.866025 0
    outer loop
      vertex 30.7915 -51.6225 0
      vertex 43.7818 -44.1225 1
      vertex 30.7915 -51.6225 1
    endloop
  endfacet
  facet normal 0.5 -0.866025 0
    outer loop
      vertex 43.7818 -44.1225 1
      vertex 30.7915 -51.6225 0
      vertex 43.7818 -44.1225 0
    endloop
  endfacet
  facet normal -0.5 0.866025 0
    outer loop
      vertex 56.7722 -66.6225 0
      vertex 43.7818 -74.1225 1
      vertex 56.7722 -66.6225 1
    endloop
  endfacet
  facet normal -0.5 0.866025 0
    outer loop
      vertex 43.7818 -74.1225 1
      vertex 56.7722 -66.6225 0
      vertex 43.7818 -74.1225 0
    endloop
  endfacet
  facet normal -1 0 0
    outer loop
      vertex 56.7722 -66.6225 0
      vertex 56.7722 -51.6225 1
      vertex 56.7722 -51.6225 0
    endloop
  endfacet
  facet normal -1 -0 0
    outer loop
      vertex 56.7722 -51.6225 1
      vertex 56.7722 -66.6225 0
      vertex 56.7722 -66.6225 1
    endloop
  endfacet
  facet normal 0.5 0.866025 -0
    outer loop
      vertex 80.4494 -74.1225 0
      vertex 67.459 -66.6225 1
      vertex 80.4494 -74.1225 1
    endloop
  endfacet
  facet normal 0.5 0.866025 0
    outer loop
      vertex 67.459 -66.6225 1
      vertex 80.4494 -74.1225 0
      vertex 67.459 -66.6225 0
    endloop
  endfacet
  facet normal 1 -0 0
    outer loop
      vertex 67.459 -66.6225 1
      vertex 67.459 -51.6225 0
      vertex 67.459 -51.6225 1
    endloop
  endfacet
  facet normal 1 0 0
    outer loop
      vertex 67.459 -51.6225 0
      vertex 67.459 -66.6225 1
      vertex 67.459 -66.6225 0
    endloop
  endfacet
  facet normal 0.5 -0.866025 0
    outer loop
      vertex 67.459 -51.6225 0
      vertex 80.4494 -44.1225 1
      vertex 67.459 -51.6225 1
    endloop
  endfacet
  facet normal 0.5 -0.866025 0
    outer loop
      vertex 80.4494 -44.1225 1
      vertex 67.459 -51.6225 0
      vertex 80.4494 -44.1225 0
    endloop
  endfacet
  facet normal -0.5 0.866025 0
    outer loop
      vertex 93.4397 -66.6225 0
      vertex 80.4494 -74.1225 1
      vertex 93.4397 -66.6225 1
    endloop
  endfacet
  facet normal -0.5 0.866025 0
    outer loop
      vertex 80.4494 -74.1225 1
      vertex 93.4397 -66.6225 0
      vertex 80.4494 -74.1225 0
    endloop
  endfacet
  facet normal -1 0 0
    outer loop
      vertex 93.4397 -66.6225 0
      vertex 93.4397 -51.6225 1
      vertex 93.4397 -51.6225 0
    endloop
  endfacet
  facet normal -1 -0 0
    outer loop
      vertex 93.4397 -51.6225 1
      vertex 93.4397 -66.6225 0
      vertex 93.4397 -66.6225 1
    endloop
  endfacet
  facet normal -0.5 -0.866025 0
    outer loop
      vertex 80.4494 -44.1225 0
      vertex 93.4397 -51.6225 1
      vertex 80.4494 -44.1225 1
    endloop
  endfacet
  facet normal -0.5 -0.866025 -0
    outer loop
      vertex 93.4397 -51.6225 1
      vertex 80.4494 -44.1225 0
      vertex 93.4397 -51.6225 0
    endloop
  endfacet
  facet normal 0.5 0.866026 -0
    outer loop
      vertex 117.117 -74.1225 0
      vertex 104.126 -66.6225 1
      vertex 117.117 -74.1225 1
    endloop
  endfacet
  facet normal 0.5 0.866026 0
    outer loop
      vertex 104.126 -66.6225 1
      vertex 117.117 -74.1225 0
      vertex 104.126 -66.6225 0
    endloop
  endfacet
  facet normal 1 -0 0
    outer loop
      vertex 104.126 -66.6225 1
      vertex 104.126 -51.6225 0
      vertex 104.126 -51.6225 1
    endloop
  endfacet
  facet normal 1 0 0
    outer loop
      vertex 104.126 -51.6225 0
      vertex 104.126 -66.6225 1
      vertex 104.126 -66.6225 0
    endloop
  endfacet
  facet normal 0.5 -0.866026 0
    outer loop
      vertex 104.126 -51.6225 0
      vertex 117.117 -44.1225 1
      vertex 104.126 -51.6225 1
    endloop
  endfacet
  facet normal 0.5 -0.866026 0
    outer loop
      vertex 117.117 -44.1225 1
      vertex 104.126 -51.6225 0
      vertex 117.117 -44.1225 0
    endloop
  endfacet
  facet normal -0.5 0.866025 0
    outer loop
      vertex 130.107 -66.6225 0
      vertex 117.117 -74.1225 1
      vertex 130.107 -66.6225 1
    endloop
  endfacet
  facet normal -0.5 0.866025 0
    outer loop
      vertex 117.117 -74.1225 1
      vertex 130.107 -66.6225 0
      vertex 117.117 -74.1225 0
    endloop
  endfacet
  facet normal -1 0 0
    outer loop
      vertex 130.107 -66.6225 0
      vertex 130.107 -51.6225 1
      vertex 130.107 -51.6225 0
    endloop
  endfacet
  facet normal -1 -0 0
    outer loop
      vertex 130.107 -51.6225 1
      vertex 130.107 -66.6225 0
      vertex 130.107 -66.6225 1
    endloop
  endfacet
  facet normal -0.5 -0.866025 0
    outer loop
      vertex 117.117 -44.1225 0
      vertex 130.107 -51.6225 1
      vertex 117.117 -44.1225 1
    endloop
  endfacet
  facet normal -0.5 -0.866025 -0
    outer loop
      vertex 130.107 -51.6225 1
      vertex 117.117 -44.1225 0
      vertex 130.107 -51.6225 0
    endloop
  endfacet
  facet normal 0.5 0.866026 -0
    outer loop
      vertex 153.784 -74.1225 0
      vertex 140.794 -66.6225 1
      vertex 153.784 -74.1225 1
    endloop
  endfacet
  facet normal 0.5 0.866026 0
    outer loop
      vertex 140.794 -66.6225 1
      vertex 153.784 -74.1225 0
      vertex 140.794 -66.6225 0
    endloop
  endfacet
  facet normal 1 -0 0
    outer loop
      vertex 140.794 -66.6225 1
      vertex 140.794 -51.6225 0
      vertex 140.794 -51.6225 1
    endloop
  endfacet
  facet normal 1 0 0
    outer loop
      vertex 140.794 -51.6225 0
      vertex 140.794 -66.6225 1
      vertex 140.794 -66.6225 0
    endloop
  endfacet
  facet normal -0.5 -0.866026 0
    outer loop
      vertex 153.784 -44.1225 0
      vertex 166.775 -51.6225 1
      vertex 153.784 -44.1225 1
    endloop
  endfacet
  facet normal -0.5 -0.866026 -0
    outer loop
      vertex 166.775 -51.6225 1
      vertex 153.784 -44.1225 0
      vertex 166.775 -51.6225 0
    endloop
  endfacet
  facet normal 0.5 -0.866026 0
    outer loop
      vertex 140.794 -51.6225 0
      vertex 153.784 -44.1225 1
      vertex 140.794 -51.6225 1
    endloop
  endfacet
  facet normal 0.5 -0.866026 0
    outer loop
      vertex 153.784 -44.1225 1
      vertex 140.794 -51.6225 0
      vertex 153.784 -44.1225 0
    endloop
  endfacet
  facet normal -0.5 0.866026 0
    outer loop
      vertex 166.775 -66.6225 0
      vertex 153.784 -74.1225 1
      vertex 166.775 -66.6225 1
    endloop
  endfacet
  facet normal -0.5 0.866026 0
    outer loop
      vertex 153.784 -74.1225 1
      vertex 166.775 -66.6225 0
      vertex 153.784 -74.1225 0
    endloop
  endfacet
  facet normal -1 0 0
    outer loop
      vertex 166.775 -66.6225 0
      vertex 166.775 -51.6225 1
      vertex 166.775 -51.6225 0
    endloop
  endfacet
  facet normal -1 -0 0
    outer loop
      vertex 166.775 -51.6225 1
      vertex 166.775 -66.6225 0
      vertex 166.775 -66.6225 1
    endloop
  endfacet
  facet normal 0.5 0.866025 -0
    outer loop
      vertex 190.452 -74.1225 0
      vertex 177.462 -66.6225 1
      vertex 190.452 -74.1225 1
    endloop
  endfacet
  facet normal 0.5 0.866025 0
    outer loop
      vertex 177.462 -66.6225 1
      vertex 190.452 -74.1225 0
      vertex 177.462 -66.6225 0
    endloop
  endfacet
  facet normal 1 -0 0
    outer loop
      vertex 177.462 -66.6225 1
      vertex 177.462 -51.6225 0
      vertex 177.462 -51.6225 1
    endloop
  endfacet
  facet normal 1 0 0
    outer loop
      vertex 177.462 -51.6225 0
      vertex 177.462 -66.6225 1
      vertex 177.462 -66.6225 0
    endloop
  endfacet
  facet normal -0.5 -0.866026 0
    outer loop
      vertex 190.452 -44.1225 0
      vertex 203.442 -51.6225 1
      vertex 190.452 -44.1225 1
    endloop
  endfacet
  facet normal -0.5 -0.866026 -0
    outer loop
      vertex 203.442 -51.6225 1
      vertex 190.452 -44.1225 0
      vertex 203.442 -51.6225 0
    endloop
  endfacet
  facet normal 0.5 -0.866025 0
    outer loop
      vertex 177.462 -51.6225 0
      vertex 190.452 -44.1225 1
      vertex 177.462 -51.6225 1
    endloop
  endfacet
  facet normal 0.5 -0.866025 0
    outer loop
      vertex 190.452 -44.1225 1
      vertex 177.462 -51.6225 0
      vertex 190.452 -44.1225 0
    endloop
  endfacet
  facet normal -0.5 0.866026 0
    outer loop
      vertex 203.442 -66.6225 0
      vertex 190.452 -74.1225 1
      vertex 203.442 -66.6225 1
    endloop
  endfacet
  facet normal -0.5 0.866026 0
    outer loop
      vertex 190.452 -74.1225 1
      vertex 203.442 -66.6225 0
      vertex 190.452 -74.1225 0
    endloop
  endfacet
  facet normal -1 0 0
    outer loop
      vertex 203.442 -66.6225 0
      vertex 203.442 -51.6225 1
      vertex 203.442 -51.6225 0
    endloop
  endfacet
  facet normal -1 -0 0
    outer loop
      vertex 203.442 -51.6225 1
      vertex 203.442 -66.6225 0
      vertex 203.442 -66.6225 1
    endloop
  endfacet
  facet normal 0.5 0.866025 -0
    outer loop
      vertex 25.4481 -105.878 0
      vertex 12.4577 -98.3775 1
      vertex 25.4481 -105.878 1
    endloop
  endfacet
  facet normal 0.5 0.866025 0
    outer loop
      vertex 12.4577 -98.3775 1
      vertex 25.4481 -105.878 0
      vertex 12.4577 -98.3775 0
    endloop
  endfacet
  facet normal 1 -0 0
    outer loop
      vertex 12.4577 -98.3775 1
      vertex 12.4577 -83.3775 0
      vertex 12.4577 -83.3775 1
    endloop
  endfacet
  facet normal 1 0 0
    outer loop
      vertex 12.4577 -83.3775 0
      vertex 12.4577 -98.3775 1
      vertex 12.4577 -98.3775 0
    endloop
  endfacet
  facet normal 0.5 -0.866025 0
    outer loop
      vertex 12.4577 -83.3775 0
      vertex 25.4481 -75.8775 1
      vertex 12.4577 -83.3775 1
    endloop
  endfacet
  facet normal 0.5 -0.866025 0
    outer loop
      vertex 25.4481 -75.8775 1
      vertex 12.4577 -83.3775 0
      vertex 25.4481 -75.8775 0
    endloop
  endfacet
  facet normal -0.5 0.866025 0
    outer loop
      vertex 38.4385 -98.3775 0
      vertex 25.4481 -105.878 1
      vertex 38.4385 -98.3775 1
    endloop
  endfacet
  facet normal -0.5 0.866025 0
    outer loop
      vertex 25.4481 -105.878 1
      vertex 38.4385 -98.3775 0
      vertex 25.4481 -105.878 0
    endloop
  endfacet
  facet normal -1 0 0
    outer loop
      vertex 38.4385 -98.3775 0
      vertex 38.4385 -83.3775 1
      vertex 38.4385 -83.3775 0
    endloop
  endfacet
  facet normal -1 -0 0
    outer loop
      vertex 38.4385 -83.3775 1
      vertex 38.4385 -98.3775 0
      vertex 38.4385 -98.3775 1
    endloop
  endfacet
  facet normal -0.5 -0.866025 0
    outer loop
      vertex 25.4481 -75.8775 0
      vertex 38.4385 -83.3775 1
      vertex 25.4481 -75.8775 1
    endloop
  endfacet
  facet normal -0.5 -0.866025 -0
    outer loop
      vertex 38.4385 -83.3775 1
      vertex 25.4481 -75.8775 0
      vertex 38.4385 -83.3775 0
    endloop
  endfacet
  facet normal 0.5 0.866025 -0
    outer loop
      vertex 62.1156 -105.878 0
      vertex 49.1252 -98.3775 1
      vertex 62.1156 -105.878 1
    endloop
  endfacet
  facet normal 0.5 0.866025 0
    outer loop
      vertex 49.1252 -98.3775 1
      vertex 62.1156 -105.878 0
      vertex 49.1252 -98.3775 0
    endloop
  endfacet
  facet normal 1 -0 0
    outer loop
      vertex 49.1252 -98.3775 1
      vertex 49.1252 -83.3775 0
      vertex 49.1252 -83.3775 1
    endloop
  endfacet
  facet normal 1 0 0
    outer loop
      vertex 49.1252 -83.3775 0
      vertex 49.1252 -98.3775 1
      vertex 49.1252 -98.3775 0
    endloop
  endfacet
  facet normal -0.5 -0.866025 0
    outer loop
      vertex 62.1156 -75.8775 0
      vertex 75.106 -83.3775 1
      vertex 62.1156 -75.8775 1
    endloop
  endfacet
  facet normal -0.5 -0.866025 -0
    outer loop
      vertex 75.106 -83.3775 1
      vertex 62.1156 -75.8775 0
      vertex 75.106 -83.3775 0
    endloop
  endfacet
  facet normal 0.5 -0.866025 0
    outer loop
      vertex 49.1252 -83.3775 0
      vertex 62.1156 -75.8775 1
      vertex 49.1252 -83.3775 1
    endloop
  endfacet
  facet normal 0.5 -0.866025 0
    outer loop
      vertex 62.1156 -75.8775 1
      vertex 49.1252 -83.3775 0
      vertex 62.1156 -75.8775 0
    endloop
  endfacet
  facet normal -0.5 0.866025 0
    outer loop
      vertex 75.106 -98.3775 0
      vertex 62.1156 -105.878 1
      vertex 75.106 -98.3775 1
    endloop
  endfacet
  facet normal -0.5 0.866025 0
    outer loop
      vertex 62.1156 -105.878 1
      vertex 75.106 -98.3775 0
      vertex 62.1156 -105.878 0
    endloop
  endfacet
  facet normal -1 0 0
    outer loop
      vertex 75.106 -98.3775 0
      vertex 75.106 -83.3775 1
      vertex 75.106 -83.3775 0
    endloop
  endfacet
  facet normal -1 -0 0
    outer loop
      vertex 75.106 -83.3775 1
      vertex 75.106 -98.3775 0
      vertex 75.106 -98.3775 1
    endloop
  endfacet
  facet normal 0.5 0.866025 -0
    outer loop
      vertex 98.7831 -105.878 0
      vertex 85.7927 -98.3775 1
      vertex 98.7831 -105.878 1
    endloop
  endfacet
  facet normal 0.5 0.866025 0
    outer loop
      vertex 85.7927 -98.3775 1
      vertex 98.7831 -105.878 0
      vertex 85.7927 -98.3775 0
    endloop
  endfacet
  facet normal -1 0 0
    outer loop
      vertex 111.773 -98.3775 0
      vertex 111.773 -83.3775 1
      vertex 111.773 -83.3775 0
    endloop
  endfacet
  facet normal -1 -0 0
    outer loop
      vertex 111.773 -83.3775 1
      vertex 111.773 -98.3775 0
      vertex 111.773 -98.3775 1
    endloop
  endfacet
  facet normal 1 -0 0
    outer loop
      vertex 85.7927 -98.3775 1
      vertex 85.7927 -83.3775 0
      vertex 85.7927 -83.3775 1
    endloop
  endfacet
  facet normal 1 0 0
    outer loop
      vertex 85.7927 -83.3775 0
      vertex 85.7927 -98.3775 1
      vertex 85.7927 -98.3775 0
    endloop
  endfacet
  facet normal -0.5 -0.866025 0
    outer loop
      vertex 98.7831 -75.8775 0
      vertex 111.773 -83.3775 1
      vertex 98.7831 -75.8775 1
    endloop
  endfacet
  facet normal -0.5 -0.866025 -0
    outer loop
      vertex 111.773 -83.3775 1
      vertex 98.7831 -75.8775 0
      vertex 111.773 -83.3775 0
    endloop
  endfacet
  facet normal -0.5 0.866025 0
    outer loop
      vertex 111.773 -98.3775 0
      vertex 98.7831 -105.878 1
      vertex 111.773 -98.3775 1
    endloop
  endfacet
  facet normal -0.5 0.866025 0
    outer loop
      vertex 98.7831 -105.878 1
      vertex 111.773 -98.3775 0
      vertex 98.7831 -105.878 0
    endloop
  endfacet
  facet normal 0.5 -0.866025 0
    outer loop
      vertex 85.7927 -83.3775 0
      vertex 98.7831 -75.8775 1
      vertex 85.7927 -83.3775 1
    endloop
  endfacet
  facet normal 0.5 -0.866025 0
    outer loop
      vertex 98.7831 -75.8775 1
      vertex 85.7927 -83.3775 0
      vertex 98.7831 -75.8775 0
    endloop
  endfacet
  facet normal 0.5 0.866025 -0
    outer loop
      vertex 135.451 -105.878 0
      vertex 122.46 -98.3775 1
      vertex 135.451 -105.878 1
    endloop
  endfacet
  facet normal 0.5 0.866025 0
    outer loop
      vertex 122.46 -98.3775 1
      vertex 135.451 -105.878 0
      vertex 122.46 -98.3775 0
    endloop
  endfacet
  facet normal -1 0 0
    outer loop
      vertex 148.441 -98.3775 0
      vertex 148.441 -83.3775 1
      vertex 148.441 -83.3775 0
    endloop
  endfacet
  facet normal -1 -0 0
    outer loop
      vertex 148.441 -83.3775 1
      vertex 148.441 -98.3775 0
      vertex 148.441 -98.3775 1
    endloop
  endfacet
  facet normal 1 -0 0
    outer loop
      vertex 122.46 -98.3775 1
      vertex 122.46 -83.3775 0
      vertex 122.46 -83.3775 1
    endloop
  endfacet
  facet normal 1 0 0
    outer loop
      vertex 122.46 -83.3775 0
      vertex 122.46 -98.3775 1
      vertex 122.46 -98.3775 0
    endloop
  endfacet
  facet normal -0.5 -0.866025 0
    outer loop
      vertex 135.451 -75.8775 0
      vertex 148.441 -83.3775 1
      vertex 135.451 -75.8775 1
    endloop
  endfacet
  facet normal -0.5 -0.866025 -0
    outer loop
      vertex 148.441 -83.3775 1
      vertex 135.451 -75.8775 0
      vertex 148.441 -83.3775 0
    endloop
  endfacet
  facet normal -0.5 0.866025 0
    outer loop
      vertex 148.441 -98.3775 0
      vertex 135.451 -105.878 1
      vertex 148.441 -98.3775 1
    endloop
  endfacet
  facet normal -0.5 0.866025 0
    outer loop
      vertex 135.451 -105.878 1
      vertex 148.441 -98.3775 0
      vertex 135.451 -105.878 0
    endloop
  endfacet
  facet normal 0.5 -0.866025 0
    outer loop
      vertex 122.46 -83.3775 0
      vertex 135.451 -75.8775 1
      vertex 122.46 -83.3775 1
    endloop
  endfacet
  facet normal 0.5 -0.866025 0
    outer loop
      vertex 135.451 -75.8775 1
      vertex 122.46 -83.3775 0
      vertex 135.451 -75.8775 0
    endloop
  endfacet
  facet normal 0.5 0.866025 -0
    outer loop
      vertex 172.118 -105.878 0
      vertex 159.128 -98.3775 1
      vertex 172.118 -105.878 1
    endloop
  endfacet
  facet normal 0.5 0.866025 0
    outer loop
      vertex 159.128 -98.3775 1
      vertex 172.118 -105.878 0
      vertex 159.128 -98.3775 0
    endloop
  endfacet
  facet normal 1 -0 0
    outer loop
      vertex 159.128 -98.3775 1
      vertex 159.128 -83.3775 0
      vertex 159.128 -83.3775 1
    endloop
  endfacet
  facet normal 1 0 0
    outer loop
      vertex 159.128 -83.3775 0
      vertex 159.128 -98.3775 1
      vertex 159.128 -98.3775 0
    endloop
  endfacet
  facet normal 0.5 -0.866025 0
    outer loop
      vertex 159.128 -83.3775 0
      vertex 172.118 -75.8775 1
      vertex 159.128 -83.3775 1
    endloop
  endfacet
  facet normal 0.5 -0.866025 0
    outer loop
      vertex 172.118 -75.8775 1
      vertex 159.128 -83.3775 0
      vertex 172.118 -75.8775 0
    endloop
  endfacet
  facet normal -0.5 0.866026 0
    outer loop
      vertex 185.109 -98.3775 0
      vertex 172.118 -105.878 1
      vertex 185.109 -98.3775 1
    endloop
  endfacet
  facet normal -0.5 0.866026 0
    outer loop
      vertex 172.118 -105.878 1
      vertex 185.109 -98.3775 0
      vertex 172.118 -105.878 0
    endloop
  endfacet
  facet normal -1 0 0
    outer loop
      vertex 185.109 -98.3775 0
      vertex 185.109 -83.3775 1
      vertex 185.109 -83.3775 0
    endloop
  endfacet
  facet normal -1 -0 0
    outer loop
      vertex 185.109 -83.3775 1
      vertex 185.109 -98.3775 0
      vertex 185.109 -98.3775 1
    endloop
  endfacet
  facet normal -0.5 -0.866026 0
    outer loop
      vertex 172.118 -75.8775 0
      vertex 185.109 -83.3775 1
      vertex 172.118 -75.8775 1
    endloop
  endfacet
  facet normal -0.5 -0.866026 -0
    outer loop
      vertex 185.109 -83.3775 1
      vertex 172.118 -75.8775 0
      vertex 185.109 -83.3775 0
    endloop
  endfacet
  facet normal 0.5 0.866025 -0
    outer loop
      vertex 43.7818 -137.633 0
      vertex 30.7915 -130.133 1
      vertex 43.7818 -137.633 1
    endloop
  endfacet
  facet normal 0.5 0.866025 0
    outer loop
      vertex 30.7915 -130.133 1
      vertex 43.7818 -137.633 0
      vertex 30.7915 -130.133 0
    endloop
  endfacet
  facet normal 1 -0 0
    outer loop
      vertex 30.7915 -130.133 1
      vertex 30.7915 -115.132 0
      vertex 30.7915 -115.132 1
    endloop
  endfacet
  facet normal 1 0 0
    outer loop
      vertex 30.7915 -115.132 0
      vertex 30.7915 -130.133 1
      vertex 30.7915 -130.133 0
    endloop
  endfacet
  facet normal 0.5 -0.866025 0
    outer loop
      vertex 30.7915 -115.132 0
      vertex 43.7818 -107.632 1
      vertex 30.7915 -115.132 1
    endloop
  endfacet
  facet normal 0.5 -0.866025 0
    outer loop
      vertex 43.7818 -107.632 1
      vertex 30.7915 -115.132 0
      vertex 43.7818 -107.632 0
    endloop
  endfacet
  facet normal -0.5 0.866025 0
    outer loop
      vertex 56.7722 -130.133 0
      vertex 43.7818 -137.633 1
      vertex 56.7722 -130.133 1
    endloop
  endfacet
  facet normal -0.5 0.866025 0
    outer loop
      vertex 43.7818 -137.633 1
      vertex 56.7722 -130.133 0
      vertex 43.7818 -137.633 0
    endloop
  endfacet
  facet normal -1 0 0
    outer loop
      vertex 56.7722 -130.133 0
      vertex 56.7722 -115.132 1
      vertex 56.7722 -115.132 0
    endloop
  endfacet
  facet normal -1 -0 0
    outer loop
      vertex 56.7722 -115.132 1
      vertex 56.7722 -130.133 0
      vertex 56.7722 -130.133 1
    endloop
  endfacet
  facet normal -0.5 -0.866025 0
    outer loop
      vertex 43.7818 -107.632 0
      vertex 56.7722 -115.132 1
      vertex 43.7818 -107.632 1
    endloop
  endfacet
  facet normal -0.5 -0.866025 -0
    outer loop
      vertex 56.7722 -115.132 1
      vertex 43.7818 -107.632 0
      vertex 56.7722 -115.132 0
    endloop
  endfacet
  facet normal 0.5 0.866025 -0
    outer loop
      vertex 80.4494 -137.633 0
      vertex 67.459 -130.133 1
      vertex 80.4494 -137.633 1
    endloop
  endfacet
  facet normal 0.5 0.866025 0
    outer loop
      vertex 67.459 -130.133 1
      vertex 80.4494 -137.633 0
      vertex 67.459 -130.133 0
    endloop
  endfacet
  facet normal 1 -0 0
    outer loop
      vertex 67.459 -130.133 1
      vertex 67.459 -115.132 0
      vertex 67.459 -115.132 1
    endloop
  endfacet
  facet normal 1 0 0
    outer loop
      vertex 67.459 -115.132 0
      vertex 67.459 -130.133 1
      vertex 67.459 -130.133 0
    endloop
  endfacet
  facet normal 0.5 -0.866025 0
    outer loop
      vertex 67.459 -115.132 0
      vertex 80.4494 -107.632 1
      vertex 67.459 -115.132 1
    endloop
  endfacet
  facet normal 0.5 -0.866025 0
    outer loop
      vertex 80.4494 -107.632 1
      vertex 67.459 -115.132 0
      vertex 80.4494 -107.632 0
    endloop
  endfacet
  facet normal -0.5 0.866025 0
    outer loop
      vertex 93.4397 -130.133 0
      vertex 80.4494 -137.633 1
      vertex 93.4397 -130.133 1
    endloop
  endfacet
  facet normal -0.5 0.866025 0
    outer loop
      vertex 80.4494 -137.633 1
      vertex 93.4397 -130.133 0
      vertex 80.4494 -137.633 0
    endloop
  endfacet
  facet normal -1 0 0
    outer loop
      vertex 93.4397 -130.133 0
      vertex 93.4397 -115.132 1
      vertex 93.4397 -115.132 0
    endloop
  endfacet
  facet normal -1 -0 0
    outer loop
      vertex 93.4397 -115.132 1
      vertex 93.4397 -130.133 0
      vertex 93.4397 -130.133 1
    endloop
  endfacet
  facet normal -0.5 -0.866025 0
    outer loop
      vertex 80.4494 -107.632 0
      vertex 93.4397 -115.132 1
      vertex 80.4494 -107.632 1
    endloop
  endfacet
  facet normal -0.5 -0.866025 -0
    outer loop
      vertex 93.4397 -115.132 1
      vertex 80.4494 -107.632 0
      vertex 93.4397 -115.132 0
    endloop
  endfacet
  facet normal 0.5 0.866026 -0
    outer loop
      vertex 117.117 -137.633 0
      vertex 104.126 -130.133 1
      vertex 117.117 -137.633 1
    endloop
  endfacet
  facet normal 0.5 0.866026 0
    outer loop
      vertex 104.126 -130.133 1
      vertex 117.117 -137.633 0
      vertex 104.126 -130.133 0
    endloop
  endfacet
  facet normal 1 -0 0
    outer loop
      vertex 104.126 -130.133 1
      vertex 104.126 -115.132 0
      vertex 104.126 -115.132 1
    endloop
  endfacet
  facet normal 1 0 0
    outer loop
      vertex 104.126 -115.132 0
      vertex 104.126 -130.133 1
      vertex 104.126 -130.133 0
    endloop
  endfacet
  facet normal -0.5 -0.866025 0
    outer loop
      vertex 117.117 -107.632 0
      vertex 130.107 -115.132 1
      vertex 117.117 -107.632 1
    endloop
  endfacet
  facet normal -0.5 -0.866025 -0
    outer loop
      vertex 130.107 -115.132 1
      vertex 117.117 -107.632 0
      vertex 130.107 -115.132 0
    endloop
  endfacet
  facet normal 0.5 -0.866026 0
    outer loop
      vertex 104.126 -115.132 0
      vertex 117.117 -107.632 1
      vertex 104.126 -115.132 1
    endloop
  endfacet
  facet normal 0.5 -0.866026 0
    outer loop
      vertex 117.117 -107.632 1
      vertex 104.126 -115.132 0
      vertex 117.117 -107.632 0
    endloop
  endfacet
  facet normal -0.5 0.866025 0
    outer loop
      vertex 130.107 -130.133 0
      vertex 117.117 -137.633 1
      vertex 130.107 -130.133 1
    endloop
  endfacet
  facet normal -0.5 0.866025 0
    outer loop
      vertex 117.117 -137.633 1
      vertex 130.107 -130.133 0
      vertex 117.117 -137.633 0
    endloop
  endfacet
  facet normal -1 0 0
    outer loop
      vertex 130.107 -130.133 0
      vertex 130.107 -115.132 1
      vertex 130.107 -115.132 0
    endloop
  endfacet
  facet normal -1 -0 0
    outer loop
      vertex 130.107 -115.132 1
      vertex 130.107 -130.133 0
      vertex 130.107 -130.133 1
    endloop
  endfacet
  facet normal 0.5 0.866026 -0
    outer loop
      vertex 153.784 -137.633 0
      vertex 140.794 -130.133 1
      vertex 153.784 -137.633 1
    endloop
  endfacet
  facet normal 0.5 0.866026 0
    outer loop
      vertex 140.794 -130.133 1
      vertex 153.784 -137.633 0
      vertex 140.794 -130.133 0
    endloop
  endfacet
  facet normal 1 -0 0
    outer loop
      vertex 140.794 -130.133 1
      vertex 140.794 -115.132 0
      vertex 140.794 -115.132 1
    endloop
  endfacet
  facet normal 1 0 0
    outer loop
      vertex 140.794 -115.132 0
      vertex 140.794 -130.133 1
      vertex 140.794 -130.133 0
    endloop
  endfacet
  facet normal 0.5 -0.866026 0
    outer loop
      vertex 140.794 -115.132 0
      vertex 153.784 -107.632 1
      vertex 140.794 -115.132 1
    endloop
  endfacet
  facet normal 0.5 -0.866026 0
    outer loop
      vertex 153.784 -107.632 1
      vertex 140.794 -115.132 0
      vertex 153.784 -107.632 0
    endloop
  endfacet
  facet normal -0.5 0.866026 0
    outer loop
      vertex 166.775 -130.133 0
      vertex 153.784 -137.633 1
      vertex 166.775 -130.133 1
    endloop
  endfacet
  facet normal -0.5 0.866026 0
    outer loop
      vertex 153.784 -137.633 1
      vertex 166.775 -130.133 0
      vertex 153.784 -137.633 0
    endloop
  endfacet
  facet normal -1 0 0
    outer loop
      vertex 166.775 -130.133 0
      vertex 166.775 -115.132 1
      vertex 166.775 -115.132 0
    endloop
  endfacet
  facet normal -1 -0 0
    outer loop
      vertex 166.775 -115.132 1
      vertex 166.775 -130.133 0
      vertex 166.775 -130.133 1
    endloop
  endfacet
  facet normal -0.5 -0.866026 0
    outer loop
      vertex 153.784 -107.632 0
      vertex 166.775 -115.132 1
      vertex 153.784 -107.632 1
    endloop
  endfacet
  facet normal -0.5 -0.866026 -0
    outer loop
      vertex 166.775 -115.132 1
      vertex 153.784 -107.632 0
      vertex 166.775 -115.132 0
    endloop
  endfacet
  facet normal 0.5 0.866025 -0
    outer loop
      vertex 190.452 -137.633 0
      vertex 177.462 -130.133 1
      vertex 190.452 -137.633 1
    endloop
  endfacet
  facet normal 0.5 0.866025 0
    outer loop
      vertex 177.462 -130.133 1
      vertex 190.452 -137.633 0
      vertex 177.462 -130.133 0
    endloop
  endfacet
  facet normal 1 -0 0
    outer loop
      vertex 177.462 -130.133 1
      vertex 177.462 -115.132 0
      vertex 177.462 -115.132 1
    endloop
  endfacet
  facet normal 1 0 0
    outer loop
      vertex 177.462 -115.132 0
      vertex 177.462 -130.133 1
      vertex 177.462 -130.133 0
    endloop
  endfacet
  facet normal 0.5 -0.866025 0
    outer loop
      vertex 177.462 -115.132 0
      vertex 190.452 -107.632 1
      vertex 177.462 -115.132 1
    endloop
  endfacet
  facet normal 0.5 -0.866025 0
    outer loop
      vertex 190.452 -107.632 1
      vertex 177.462 -115.132 0
      vertex 190.452 -107.632 0
    endloop
  endfacet
  facet normal -0.5 0.866026 0
    outer loop
      vertex 203.442 -130.133 0
      vertex 190.452 -137.633 1
      vertex 203.442 -130.133 1
    endloop
  endfacet
  facet normal -0.5 0.866026 0
    outer loop
      vertex 190.452 -137.633 1
      vertex 203.442 -130.133 0
      vertex 190.452 -137.633 0
    endloop
  endfacet
  facet normal -1 0 0
    outer loop
      vertex 203.442 -130.133 0
      vertex 203.442 -115.132 1
      vertex 203.442 -115.132 0
    endloop
  endfacet
  facet normal -1 -0 0
    outer loop
      vertex 203.442 -115.132 1
      vertex 203.442 -130.133 0
      vertex 203.442 -130.133 1
    endloop
  endfacet
  facet normal -0.5 -0.866026 0
    outer loop
      vertex 190.452 -107.632 0
      vertex 203.442 -115.132 1
      vertex 190.452 -107.632 1
    endloop
  endfacet
  facet normal -0.5 -0.866026 -0
    outer loop
      vertex 203.442 -115.132 1
      vertex 190.452 -107.632 0
      vertex 203.442 -115.132 0
    endloop
  endfacet
  facet normal 1 -0 0
    outer loop
      vertex 2.53 -147.47 5
      vertex 2.53 -2.53 1
      vertex 2.53 -2.53 5
    endloop
  endfacet
  facet normal 1 0 0
    outer loop
      vertex 2.53 -2.53 1
      vertex 2.53 -147.47 5
      vertex 2.53 -147.47 1
    endloop
  endfacet
  facet normal -1 0 0
    outer loop
      vertex 213.37 -147.47 1
      vertex 213.37 -2.53 5
      vertex 213.37 -2.53 1
    endloop
  endfacet
  facet normal -1 -0 0
    outer loop
      vertex 213.37 -2.53 5
      vertex 213.37 -147.47 1
      vertex 213.37 -147.47 5
    endloop
  endfacet
  facet normal 0 0 1
    outer loop
      vertex 49.1252 -34.8675 1
      vertex 38.4385 -34.8675 1
      vertex 43.7818 -44.1225 1
    endloop
  endfacet
  facet normal 0 0 1
    outer loop
      vertex 38.4385 -34.8675 1
      vertex 30.7915 -51.6225 1
      vertex 43.7818 -44.1225 1
    endloop
  endfacet
  facet normal 0 0 1
    outer loop
      vertex 30.7915 -51.6225 1
      vertex 25.4481 -42.3675 1
      vertex 30.7915 -66.6225 1
    endloop
  endfacet
  facet normal -0 0 1
    outer loop
      vertex 25.4481 -42.3675 1
      vertex 30.7915 -51.6225 1
      vertex 38.4385 -34.8675 1
    endloop
  endfacet
  facet normal 0 0 1
    outer loop
      vertex 49.1252 -98.3775 1
      vertex 38.4385 -98.3775 1
      vertex 43.7818 -107.632 1
    endloop
  endfacet
  facet normal 0 0 1
    outer loop
      vertex 38.4385 -98.3775 1
      vertex 30.7915 -115.132 1
      vertex 43.7818 -107.632 1
    endloop
  endfacet
  facet normal 0 0 1
    outer loop
      vertex 30.7915 -115.132 1
      vertex 25.4481 -105.878 1
      vertex 30.7915 -130.133 1
    endloop
  endfacet
  facet normal -0 0 1
    outer loop
      vertex 25.4481 -105.878 1
      vertex 30.7915 -115.132 1
      vertex 38.4385 -98.3775 1
    endloop
  endfacet
  facet normal 0 0 1
    outer loop
      vertex 49.1252 -98.3775 1
      vertex 56.7722 -115.132 1
      vertex 62.1156 -105.878 1
    endloop
  endfacet
  facet normal 0 0 1
    outer loop
      vertex 49.1252 -98.3775 1
      vertex 43.7818 -107.632 1
      vertex 56.7722 -115.132 1
    endloop
  endfacet
  facet normal 0 0 1
    outer loop
      vertex 49.1252 -83.3775 1
      vertex 38.4385 -83.3775 1
      vertex 49.1252 -98.3775 1
    endloop
  endfacet
  facet normal 0 0 1
    outer loop
      vertex 38.4385 -98.3775 1
      vertex 49.1252 -98.3775 1
      vertex 38.4385 -83.3775 1
    endloop
  endfacet
  facet normal 0 0 1
    outer loop
      vertex 30.7915 -66.6225 1
      vertex 38.4385 -83.3775 1
      vertex 43.7818 -74.1225 1
    endloop
  endfacet
  facet normal 0 0 1
    outer loop
      vertex 30.7915 -66.6225 1
      vertex 25.4481 -75.8775 1
      vertex 38.4385 -83.3775 1
    endloop
  endfacet
  facet normal 0 0 1
    outer loop
      vertex 25.4481 -42.3675 1
      vertex 25.4481 -75.8775 1
      vertex 30.7915 -66.6225 1
    endloop
  endfacet
  facet normal 0 0 1
    outer loop
      vertex 12.4577 -34.8675 1
      vertex 25.4481 -75.8775 1
      vertex 25.4481 -42.3675 1
    endloop
  endfacet
  facet normal 0 0 1
    outer loop
      vertex 25.4481 -75.8775 1
      vertex 12.4577 -34.8675 1
      vertex 12.4577 -83.3775 1
    endloop
  endfacet
  facet normal 0 0 1
    outer loop
      vertex 67.459 -66.6225 1
      vertex 56.7722 -66.6225 1
      vertex 62.1156 -75.8775 1
    endloop
  endfacet
  facet normal 0 0 1
    outer loop
      vertex 56.7722 -66.6225 1
      vertex 49.1252 -83.3775 1
      vertex 62.1156 -75.8775 1
    endloop
  endfacet
  facet normal 0 0 1
    outer loop
      vertex 38.4385 -83.3775 1
      vertex 49.1252 -83.3775 1
      vertex 43.7818 -74.1225 1
    endloop
  endfacet
  facet normal -0 0 1
    outer loop
      vertex 43.7818 -74.1225 1
      vertex 49.1252 -83.3775 1
      vertex 56.7722 -66.6225 1
    endloop
  endfacet
  facet normal 0 0 1
    outer loop
      vertex 85.7927 -34.8675 1
      vertex 75.106 -34.8675 1
      vertex 80.4494 -44.1225 1
    endloop
  endfacet
  facet normal 0 0 1
    outer loop
      vertex 75.106 -34.8675 1
      vertex 67.459 -51.6225 1
      vertex 80.4494 -44.1225 1
    endloop
  endfacet
  facet normal 0 0 1
    outer loop
      vertex 56.7722 -51.6225 1
      vertex 67.459 -51.6225 1
      vertex 62.1156 -42.3675 1
    endloop
  endfacet
  facet normal -0 0 1
    outer loop
      vertex 62.1156 -42.3675 1
      vertex 67.459 -51.6225 1
      vertex 75.106 -34.8675 1
    endloop
  endfacet
  facet normal 0 0 1
    outer loop
      vertex 85.7927 -98.3775 1
      vertex 75.106 -98.3775 1
      vertex 80.4494 -107.632 1
    endloop
  endfacet
  facet normal 0 0 1
    outer loop
      vertex 75.106 -98.3775 1
      vertex 67.459 -115.132 1
      vertex 80.4494 -107.632 1
    endloop
  endfacet
  facet normal 0 0 1
    outer loop
      vertex 56.7722 -115.132 1
      vertex 67.459 -115.132 1
      vertex 62.1156 -105.878 1
    endloop
  endfacet
  facet normal -0 0 1
    outer loop
      vertex 62.1156 -105.878 1
      vertex 67.459 -115.132 1
      vertex 75.106 -98.3775 1
    endloop
  endfacet
  facet normal 0 0 1
    outer loop
      vertex 85.7927 -98.3775 1
      vertex 93.4397 -115.132 1
      vertex 98.7831 -105.878 1
    endloop
  endfacet
  facet normal 0 0 1
    outer loop
      vertex 85.7927 -98.3775 1
      vertex 80.4494 -107.632 1
      vertex 93.4397 -115.132 1
    endloop
  endfacet
  facet normal 0 0 1
    outer loop
      vertex 85.7927 -83.3775 1
      vertex 75.106 -83.3775 1
      vertex 85.7927 -98.3775 1
    endloop
  endfacet
  facet normal 0 0 1
    outer loop
      vertex 75.106 -98.3775 1
      vertex 85.7927 -98.3775 1
      vertex 75.106 -83.3775 1
    endloop
  endfacet
  facet normal 0 0 1
    outer loop
      vertex 67.459 -66.6225 1
      vertex 75.106 -83.3775 1
      vertex 80.4494 -74.1225 1
    endloop
  endfacet
  facet normal 0 0 1
    outer loop
      vertex 67.459 -66.6225 1
      vertex 62.1156 -75.8775 1
      vertex 75.106 -83.3775 1
    endloop
  endfacet
  facet normal 0 0 1
    outer loop
      vertex 67.459 -51.6225 1
      vertex 56.7722 -51.6225 1
      vertex 67.459 -66.6225 1
    endloop
  endfacet
  facet normal 0 0 1
    outer loop
      vertex 56.7722 -66.6225 1
      vertex 67.459 -66.6225 1
      vertex 56.7722 -51.6225 1
    endloop
  endfacet
  facet normal 0 0 1
    outer loop
      vertex 49.1252 -34.8675 1
      vertex 56.7722 -51.6225 1
      vertex 62.1156 -42.3675 1
    endloop
  endfacet
  facet normal 0 0 1
    outer loop
      vertex 56.7722 -51.6225 1
      vertex 49.1252 -34.8675 1
      vertex 43.7818 -44.1225 1
    endloop
  endfacet
  facet normal 0 0 1
    outer loop
      vertex 104.126 -66.6225 1
      vertex 93.4397 -66.6225 1
      vertex 98.7831 -75.8775 1
    endloop
  endfacet
  facet normal 0 0 1
    outer loop
      vertex 93.4397 -66.6225 1
      vertex 85.7927 -83.3775 1
      vertex 98.7831 -75.8775 1
    endloop
  endfacet
  facet normal 0 0 1
    outer loop
      vertex 75.106 -83.3775 1
      vertex 85.7927 -83.3775 1
      vertex 80.4494 -74.1225 1
    endloop
  endfacet
  facet normal -0 0 1
    outer loop
      vertex 80.4494 -74.1225 1
      vertex 85.7927 -83.3775 1
      vertex 93.4397 -66.6225 1
    endloop
  endfacet
  facet normal 0 0 1
    outer loop
      vertex 122.46 -34.8675 1
      vertex 111.773 -34.8675 1
      vertex 117.117 -44.1225 1
    endloop
  endfacet
  facet normal 0 0 1
    outer loop
      vertex 111.773 -34.8675 1
      vertex 104.126 -51.6225 1
      vertex 117.117 -44.1225 1
    endloop
  endfacet
  facet normal 0 0 1
    outer loop
      vertex 93.4397 -51.6225 1
      vertex 104.126 -51.6225 1
      vertex 98.7831 -42.3675 1
    endloop
  endfacet
  facet normal -0 0 1
    outer loop
      vertex 98.7831 -42.3675 1
      vertex 104.126 -51.6225 1
      vertex 111.773 -34.8675 1
    endloop
  endfacet
  facet normal 0 0 1
    outer loop
      vertex 122.46 -98.3775 1
      vertex 111.773 -98.3775 1
      vertex 117.117 -107.632 1
    endloop
  endfacet
  facet normal 0 0 1
    outer loop
      vertex 111.773 -98.3775 1
      vertex 104.126 -115.132 1
      vertex 117.117 -107.632 1
    endloop
  endfacet
  facet normal 0 0 1
    outer loop
      vertex 93.4397 -115.132 1
      vertex 104.126 -115.132 1
      vertex 98.7831 -105.878 1
    endloop
  endfacet
  facet normal -0 0 1
    outer loop
      vertex 98.7831 -105.878 1
      vertex 104.126 -115.132 1
      vertex 111.773 -98.3775 1
    endloop
  endfacet
  facet normal 0 0 1
    outer loop
      vertex 122.46 -98.3775 1
      vertex 130.107 -115.132 1
      vertex 135.451 -105.878 1
    endloop
  endfacet
  facet normal 0 0 1
    outer loop
      vertex 122.46 -98.3775 1
      vertex 117.117 -107.632 1
      vertex 130.107 -115.132 1
    endloop
  endfacet
  facet normal 0 0 1
    outer loop
      vertex 122.46 -83.3775 1
      vertex 111.773 -83.3775 1
      vertex 122.46 -98.3775 1
    endloop
  endfacet
  facet normal 0 0 1
    outer loop
      vertex 111.773 -98.3775 1
      vertex 122.46 -98.3775 1
      vertex 111.773 -83.3775 1
    endloop
  endfacet
  facet normal 0 0 1
    outer loop
      vertex 104.126 -66.6225 1
      vertex 111.773 -83.3775 1
      vertex 117.117 -74.1225 1
    endloop
  endfacet
  facet normal 0 0 1
    outer loop
      vertex 104.126 -66.6225 1
      vertex 98.7831 -75.8775 1
      vertex 111.773 -83.3775 1
    endloop
  endfacet
  facet normal 0 0 1
    outer loop
      vertex 104.126 -51.6225 1
      vertex 93.4397 -51.6225 1
      vertex 104.126 -66.6225 1
    endloop
  endfacet
  facet normal 0 0 1
    outer loop
      vertex 93.4397 -66.6225 1
      vertex 104.126 -66.6225 1
      vertex 93.4397 -51.6225 1
    endloop
  endfacet
  facet normal 0 0 1
    outer loop
      vertex 85.7927 -34.8675 1
      vertex 93.4397 -51.6225 1
      vertex 98.7831 -42.3675 1
    endloop
  endfacet
  facet normal 0 0 1
    outer loop
      vertex 93.4397 -51.6225 1
      vertex 85.7927 -34.8675 1
      vertex 80.4494 -44.1225 1
    endloop
  endfacet
  facet normal 0 0 1
    outer loop
      vertex 140.794 -66.6225 1
      vertex 130.107 -66.6225 1
      vertex 135.451 -75.8775 1
    endloop
  endfacet
  facet normal 0 0 1
    outer loop
      vertex 130.107 -66.6225 1
      vertex 122.46 -83.3775 1
      vertex 135.451 -75.8775 1
    endloop
  endfacet
  facet normal 0 0 1
    outer loop
      vertex 111.773 -83.3775 1
      vertex 122.46 -83.3775 1
      vertex 117.117 -74.1225 1
    endloop
  endfacet
  facet normal -0 0 1
    outer loop
      vertex 117.117 -74.1225 1
      vertex 122.46 -83.3775 1
      vertex 130.107 -66.6225 1
    endloop
  endfacet
  facet normal 0 0 1
    outer loop
      vertex 159.128 -34.8675 1
      vertex 148.441 -34.8675 1
      vertex 153.784 -44.1225 1
    endloop
  endfacet
  facet normal 0 0 1
    outer loop
      vertex 148.441 -34.8675 1
      vertex 140.794 -51.6225 1
      vertex 153.784 -44.1225 1
    endloop
  endfacet
  facet normal 0 0 1
    outer loop
      vertex 130.107 -51.6225 1
      vertex 140.794 -51.6225 1
      vertex 135.451 -42.3675 1
    endloop
  endfacet
  facet normal -0 0 1
    outer loop
      vertex 135.451 -42.3675 1
      vertex 140.794 -51.6225 1
      vertex 148.441 -34.8675 1
    endloop
  endfacet
  facet normal 0 0 1
    outer loop
      vertex 159.128 -98.3775 1
      vertex 148.441 -98.3775 1
      vertex 153.784 -107.632 1
    endloop
  endfacet
  facet normal 0 0 1
    outer loop
      vertex 148.441 -98.3775 1
      vertex 140.794 -115.132 1
      vertex 153.784 -107.632 1
    endloop
  endfacet
  facet normal 0 0 1
    outer loop
      vertex 130.107 -115.132 1
      vertex 140.794 -115.132 1
      vertex 135.451 -105.878 1
    endloop
  endfacet
  facet normal -0 0 1
    outer loop
      vertex 135.451 -105.878 1
      vertex 140.794 -115.132 1
      vertex 148.441 -98.3775 1
    endloop
  endfacet
  facet normal 0 0 1
    outer loop
      vertex 159.128 -98.3775 1
      vertex 166.775 -115.132 1
      vertex 172.118 -105.878 1
    endloop
  endfacet
  facet normal 0 0 1
    outer loop
      vertex 159.128 -98.3775 1
      vertex 153.784 -107.632 1
      vertex 166.775 -115.132 1
    endloop
  endfacet
  facet normal 0 0 1
    outer loop
      vertex 159.128 -83.3775 1
      vertex 148.441 -83.3775 1
      vertex 159.128 -98.3775 1
    endloop
  endfacet
  facet normal 0 0 1
    outer loop
      vertex 148.441 -98.3775 1
      vertex 159.128 -98.3775 1
      vertex 148.441 -83.3775 1
    endloop
  endfacet
  facet normal 0 0 1
    outer loop
      vertex 140.794 -66.6225 1
      vertex 148.441 -83.3775 1
      vertex 153.784 -74.1225 1
    endloop
  endfacet
  facet normal 0 0 1
    outer loop
      vertex 140.794 -66.6225 1
      vertex 135.451 -75.8775 1
      vertex 148.441 -83.3775 1
    endloop
  endfacet
  facet normal 0 0 1
    outer loop
      vertex 140.794 -51.6225 1
      vertex 130.107 -51.6225 1
      vertex 140.794 -66.6225 1
    endloop
  endfacet
  facet normal 0 0 1
    outer loop
      vertex 130.107 -66.6225 1
      vertex 140.794 -66.6225 1
      vertex 130.107 -51.6225 1
    endloop
  endfacet
  facet normal 0 0 1
    outer loop
      vertex 122.46 -34.8675 1
      vertex 130.107 -51.6225 1
      vertex 135.451 -42.3675 1
    endloop
  endfacet
  facet normal 0 0 1
    outer loop
      vertex 130.107 -51.6225 1
      vertex 122.46 -34.8675 1
      vertex 117.117 -44.1225 1
    endloop
  endfacet
  facet normal 0 0 1
    outer loop
      vertex 177.462 -66.6225 1
      vertex 166.775 -66.6225 1
      vertex 172.118 -75.8775 1
    endloop
  endfacet
  facet normal 0 0 1
    outer loop
      vertex 166.775 -66.6225 1
      vertex 159.128 -83.3775 1
      vertex 172.118 -75.8775 1
    endloop
  endfacet
  facet normal 0 0 1
    outer loop
      vertex 148.441 -83.3775 1
      vertex 159.128 -83.3775 1
      vertex 153.784 -74.1225 1
    endloop
  endfacet
  facet normal -0 0 1
    outer loop
      vertex 153.784 -74.1225 1
      vertex 159.128 -83.3775 1
      vertex 166.775 -66.6225 1
    endloop
  endfacet
  facet normal -0 0 1
    outer loop
      vertex 190.452 -74.1225 1
      vertex 203.442 -115.132 1
      vertex 203.442 -66.6225 1
    endloop
  endfacet
  facet normal 0 0 1
    outer loop
      vertex 190.452 -74.1225 1
      vertex 190.452 -107.632 1
      vertex 203.442 -115.132 1
    endloop
  endfacet
  facet normal 0 0 1
    outer loop
      vertex 190.452 -74.1225 1
      vertex 185.109 -83.3775 1
      vertex 190.452 -107.632 1
    endloop
  endfacet
  facet normal 0 0 1
    outer loop
      vertex 177.462 -66.6225 1
      vertex 185.109 -83.3775 1
      vertex 190.452 -74.1225 1
    endloop
  endfacet
  facet normal 0 0 1
    outer loop
      vertex 177.462 -66.6225 1
      vertex 172.118 -75.8775 1
      vertex 185.109 -83.3775 1
    endloop
  endfacet
  facet normal 0 0 1
    outer loop
      vertex 177.462 -51.6225 1
      vertex 166.775 -51.6225 1
      vertex 177.462 -66.6225 1
    endloop
  endfacet
  facet normal 0 0 1
    outer loop
      vertex 166.775 -66.6225 1
      vertex 177.462 -66.6225 1
      vertex 166.775 -51.6225 1
    endloop
  endfacet
  facet normal 0 0 1
    outer loop
      vertex 159.128 -34.8675 1
      vertex 166.775 -51.6225 1
      vertex 172.118 -42.3675 1
    endloop
  endfacet
  facet normal 0 0 1
    outer loop
      vertex 166.775 -51.6225 1
      vertex 159.128 -34.8675 1
      vertex 153.784 -44.1225 1
    endloop
  endfacet
  facet normal 0 0 1
    outer loop
      vertex 203.442 -66.6225 1
      vertex 213.37 -2.53 1
      vertex 203.442 -51.6225 1
    endloop
  endfacet
  facet normal 0 0 1
    outer loop
      vertex 213.37 -2.53 1
      vertex 190.452 -44.1225 1
      vertex 203.442 -51.6225 1
    endloop
  endfacet
  facet normal 0 0 1
    outer loop
      vertex 213.37 -2.53 1
      vertex 185.109 -19.8675 1
      vertex 190.452 -44.1225 1
    endloop
  endfacet
  facet normal 0 0 1
    outer loop
      vertex 213.37 -2.53 1
      vertex 172.118 -12.3675 1
      vertex 185.109 -19.8675 1
    endloop
  endfacet
  facet normal -0 0 1
    outer loop
      vertex 148.441 -19.8675 1
      vertex 159.128 -34.8675 1
      vertex 159.128 -19.8675 1
    endloop
  endfacet
  facet normal 0 0 1
    outer loop
      vertex 148.441 -34.8675 1
      vertex 159.128 -34.8675 1
      vertex 148.441 -19.8675 1
    endloop
  endfacet
  facet normal 0 0 1
    outer loop
      vertex 172.118 -12.3675 1
      vertex 148.441 -19.8675 1
      vertex 159.128 -19.8675 1
    endloop
  endfacet
  facet normal 0 0 1
    outer loop
      vertex 172.118 -12.3675 1
      vertex 135.451 -12.3675 1
      vertex 148.441 -19.8675 1
    endloop
  endfacet
  facet normal 0 0 1
    outer loop
      vertex 213.37 -2.53 1
      vertex 135.451 -12.3675 1
      vertex 172.118 -12.3675 1
    endloop
  endfacet
  facet normal -0 0 1
    outer loop
      vertex 111.773 -19.8675 1
      vertex 122.46 -34.8675 1
      vertex 122.46 -19.8675 1
    endloop
  endfacet
  facet normal 0 0 1
    outer loop
      vertex 111.773 -34.8675 1
      vertex 122.46 -34.8675 1
      vertex 111.773 -19.8675 1
    endloop
  endfacet
  facet normal 0 0 1
    outer loop
      vertex 135.451 -12.3675 1
      vertex 111.773 -19.8675 1
      vertex 122.46 -19.8675 1
    endloop
  endfacet
  facet normal 0 0 1
    outer loop
      vertex 135.451 -12.3675 1
      vertex 98.7831 -12.3675 1
      vertex 111.773 -19.8675 1
    endloop
  endfacet
  facet normal 0 0 1
    outer loop
      vertex 213.37 -2.53 1
      vertex 98.7831 -12.3675 1
      vertex 135.451 -12.3675 1
    endloop
  endfacet
  facet normal -0 0 1
    outer loop
      vertex 75.106 -19.8675 1
      vertex 85.7927 -34.8675 1
      vertex 85.7927 -19.8675 1
    endloop
  endfacet
  facet normal 0 0 1
    outer loop
      vertex 75.106 -34.8675 1
      vertex 85.7927 -34.8675 1
      vertex 75.106 -19.8675 1
    endloop
  endfacet
  facet normal 0 0 1
    outer loop
      vertex 98.7831 -12.3675 1
      vertex 75.106 -19.8675 1
      vertex 85.7927 -19.8675 1
    endloop
  endfacet
  facet normal 0 0 1
    outer loop
      vertex 98.7831 -12.3675 1
      vertex 62.1156 -12.3675 1
      vertex 75.106 -19.8675 1
    endloop
  endfacet
  facet normal -0 0 1
    outer loop
      vertex 2.53 -2.53 1
      vertex 98.7831 -12.3675 1
      vertex 213.37 -2.53 1
    endloop
  endfacet
  facet normal -0 0 1
    outer loop
      vertex 38.4385 -19.8675 1
      vertex 49.1252 -34.8675 1
      vertex 49.1252 -19.8675 1
    endloop
  endfacet
  facet normal 0 0 1
    outer loop
      vertex 38.4385 -34.8675 1
      vertex 49.1252 -34.8675 1
      vertex 38.4385 -19.8675 1
    endloop
  endfacet
  facet normal 0 0 1
    outer loop
      vertex 62.1156 -12.3675 1
      vertex 38.4385 -19.8675 1
      vertex 49.1252 -19.8675 1
    endloop
  endfacet
  facet normal 0 0 1
    outer loop
      vertex 62.1156 -12.3675 1
      vertex 25.4481 -12.3675 1
      vertex 38.4385 -19.8675 1
    endloop
  endfacet
  facet normal 0 0 1
    outer loop
      vertex 98.7831 -12.3675 1
      vertex 2.53 -2.53 1
      vertex 62.1156 -12.3675 1
    endloop
  endfacet
  facet normal 0 0 1
    outer loop
      vertex 2.53 -2.53 1
      vertex 12.4577 -34.8675 1
      vertex 12.4577 -19.8675 1
    endloop
  endfacet
  facet normal 0 0 1
    outer loop
      vertex 12.4577 -34.8675 1
      vertex 2.53 -2.53 1
      vertex 12.4577 -83.3775 1
    endloop
  endfacet
  facet normal 0 0 1
    outer loop
      vertex 2.53 -147.47 1
      vertex 12.4577 -83.3775 1
      vertex 2.53 -2.53 1
    endloop
  endfacet
  facet normal 0 0 1
    outer loop
      vertex 25.4481 -12.3675 1
      vertex 2.53 -2.53 1
      vertex 12.4577 -19.8675 1
    endloop
  endfacet
  facet normal 0 0 1
    outer loop
      vertex 62.1156 -12.3675 1
      vertex 2.53 -2.53 1
      vertex 25.4481 -12.3675 1
    endloop
  endfacet
  facet normal 0 0 1
    outer loop
      vertex 213.37 -2.53 1
      vertex 203.442 -66.6225 1
      vertex 213.37 -147.47 1
    endloop
  endfacet
  facet normal -0 0 1
    outer loop
      vertex 203.442 -115.132 1
      vertex 213.37 -147.47 1
      vertex 203.442 -66.6225 1
    endloop
  endfacet
  facet normal -0 0 1
    outer loop
      vertex 203.442 -130.133 1
      vertex 213.37 -147.47 1
      vertex 203.442 -115.132 1
    endloop
  endfacet
  facet normal -0 0 1
    outer loop
      vertex 190.452 -137.633 1
      vertex 213.37 -147.47 1
      vertex 203.442 -130.133 1
    endloop
  endfacet
  facet normal 0 0 1
    outer loop
      vertex 177.462 -115.132 1
      vertex 166.775 -115.132 1
      vertex 177.462 -130.133 1
    endloop
  endfacet
  facet normal 0 0 1
    outer loop
      vertex 166.775 -130.133 1
      vertex 177.462 -130.133 1
      vertex 166.775 -115.132 1
    endloop
  endfacet
  facet normal -0 0 1
    outer loop
      vertex 166.775 -130.133 1
      vertex 190.452 -137.633 1
      vertex 177.462 -130.133 1
    endloop
  endfacet
  facet normal 0 0 1
    outer loop
      vertex 153.784 -137.633 1
      vertex 190.452 -137.633 1
      vertex 166.775 -130.133 1
    endloop
  endfacet
  facet normal 0 0 1
    outer loop
      vertex 190.452 -137.633 1
      vertex 153.784 -137.633 1
      vertex 213.37 -147.47 1
    endloop
  endfacet
  facet normal 0 0 1
    outer loop
      vertex 140.794 -115.132 1
      vertex 130.107 -115.132 1
      vertex 140.794 -130.133 1
    endloop
  endfacet
  facet normal 0 0 1
    outer loop
      vertex 130.107 -130.133 1
      vertex 140.794 -130.133 1
      vertex 130.107 -115.132 1
    endloop
  endfacet
  facet normal -0 0 1
    outer loop
      vertex 130.107 -130.133 1
      vertex 153.784 -137.633 1
      vertex 140.794 -130.133 1
    endloop
  endfacet
  facet normal 0 0 1
    outer loop
      vertex 117.117 -137.633 1
      vertex 153.784 -137.633 1
      vertex 130.107 -130.133 1
    endloop
  endfacet
  facet normal -0 0 1
    outer loop
      vertex 117.117 -137.633 1
      vertex 213.37 -147.47 1
      vertex 153.784 -137.633 1
    endloop
  endfacet
  facet normal 0 0 1
    outer loop
      vertex 104.126 -115.132 1
      vertex 93.4397 -115.132 1
      vertex 104.126 -130.133 1
    endloop
  endfacet
  facet normal 0 0 1
    outer loop
      vertex 93.4397 -130.133 1
      vertex 104.126 -130.133 1
      vertex 93.4397 -115.132 1
    endloop
  endfacet
  facet normal -0 0 1
    outer loop
      vertex 93.4397 -130.133 1
      vertex 117.117 -137.633 1
      vertex 104.126 -130.133 1
    endloop
  endfacet
  facet normal 0 0 1
    outer loop
      vertex 80.4494 -137.633 1
      vertex 117.117 -137.633 1
      vertex 93.4397 -130.133 1
    endloop
  endfacet
  facet normal 0 0 1
    outer loop
      vertex 2.53 -147.47 1
      vertex 117.117 -137.633 1
      vertex 80.4494 -137.633 1
    endloop
  endfacet
  facet normal 0 0 1
    outer loop
      vertex 67.459 -115.132 1
      vertex 56.7722 -115.132 1
      vertex 67.459 -130.133 1
    endloop
  endfacet
  facet normal 0 0 1
    outer loop
      vertex 56.7722 -130.133 1
      vertex 67.459 -130.133 1
      vertex 56.7722 -115.132 1
    endloop
  endfacet
  facet normal -0 0 1
    outer loop
      vertex 56.7722 -130.133 1
      vertex 80.4494 -137.633 1
      vertex 67.459 -130.133 1
    endloop
  endfacet
  facet normal 0 0 1
    outer loop
      vertex 43.7818 -137.633 1
      vertex 80.4494 -137.633 1
      vertex 56.7722 -130.133 1
    endloop
  endfacet
  facet normal 0 0 1
    outer loop
      vertex 2.53 -147.47 1
      vertex 80.4494 -137.633 1
      vertex 43.7818 -137.633 1
    endloop
  endfacet
  facet normal 0 0 1
    outer loop
      vertex 12.4577 -98.3775 1
      vertex 30.7915 -130.133 1
      vertex 25.4481 -105.878 1
    endloop
  endfacet
  facet normal 0 0 1
    outer loop
      vertex 117.117 -137.633 1
      vertex 2.53 -147.47 1
      vertex 213.37 -147.47 1
    endloop
  endfacet
  facet normal 0 0 1
    outer loop
      vertex 30.7915 -130.133 1
      vertex 2.53 -147.47 1
      vertex 43.7818 -137.633 1
    endloop
  endfacet
  facet normal 0 0 1
    outer loop
      vertex 12.4577 -98.3775 1
      vertex 2.53 -147.47 1
      vertex 30.7915 -130.133 1
    endloop
  endfacet
  facet normal 0 0 1
    outer loop
      vertex 12.4577 -83.3775 1
      vertex 2.53 -147.47 1
      vertex 12.4577 -98.3775 1
    endloop
  endfacet
  facet normal -0 0 1
    outer loop
      vertex 185.109 -34.8675 1
      vertex 190.452 -44.1225 1
      vertex 185.109 -19.8675 1
    endloop
  endfacet
  facet normal 0 0 1
    outer loop
      vertex 185.109 -34.8675 1
      vertex 177.462 -51.6225 1
      vertex 190.452 -44.1225 1
    endloop
  endfacet
  facet normal 0 0 1
    outer loop
      vertex 166.775 -51.6225 1
      vertex 177.462 -51.6225 1
      vertex 172.118 -42.3675 1
    endloop
  endfacet
  facet normal -0 0 1
    outer loop
      vertex 172.118 -42.3675 1
      vertex 177.462 -51.6225 1
      vertex 185.109 -34.8675 1
    endloop
  endfacet
  facet normal -0 0 1
    outer loop
      vertex 185.109 -98.3775 1
      vertex 190.452 -107.632 1
      vertex 185.109 -83.3775 1
    endloop
  endfacet
  facet normal 0 0 1
    outer loop
      vertex 185.109 -98.3775 1
      vertex 177.462 -115.132 1
      vertex 190.452 -107.632 1
    endloop
  endfacet
  facet normal 0 0 1
    outer loop
      vertex 166.775 -115.132 1
      vertex 177.462 -115.132 1
      vertex 172.118 -105.878 1
    endloop
  endfacet
  facet normal -0 0 1
    outer loop
      vertex 172.118 -105.878 1
      vertex 177.462 -115.132 1
      vertex 185.109 -98.3775 1
    endloop
  endfacet
  facet normal 0 -1 0
    outer loop
      vertex 2.53 -2.53 1
      vertex 213.37 -2.53 5
      vertex 2.53 -2.53 5
    endloop
  endfacet
  facet normal 0 -1 -0
    outer loop
      vertex 213.37 -2.53 5
      vertex 2.53 -2.53 1
      vertex 213.37 -2.53 1
    endloop
  endfacet
  facet normal 0 1 -0
    outer loop
      vertex 213.37 -147.47 1
      vertex 2.53 -147.47 5
      vertex 213.37 -147.47 5
    endloop
  endfacet
  facet normal 0 1 0
    outer loop
      vertex 2.53 -147.47 5
      vertex 213.37 -147.47 1
      vertex 2.53 -147.47 1
    endloop
  endfacet
endsolid OpenSCAD_Model
