solid OpenSCAD_Model
  facet normal 1 0 0
    outer loop
      vertex 123.4 33.0218 38.7
      vertex 123.4 0 38.7
      vertex 123.4 33.0061 38.251
    endloop
  endfacet
  facet normal 1 0 0
    outer loop
      vertex 123.4 52.8481 36.8635
      vertex 123.4 86 38.7
      vertex 123.4 52.9939 38.251
    endloop
  endfacet
  facet normal 1 0 -0
    outer loop
      vertex 123.4 52.9939 38.251
      vertex 123.4 86 38.7
      vertex 123.4 52.9782 38.7
    endloop
  endfacet
  facet normal 1 0 0
    outer loop
      vertex 123.4 52.5106 35.5098
      vertex 123.4 86 38.7
      vertex 123.4 52.8481 36.8635
    endloop
  endfacet
  facet normal 1 0 0
    outer loop
      vertex 123.4 51.9879 34.2163
      vertex 123.4 86 38.7
      vertex 123.4 52.5106 35.5098
    endloop
  endfacet
  facet normal 1 0 0
    outer loop
      vertex 123.4 51.2904 33.0081
      vertex 123.4 86 38.7
      vertex 123.4 51.9879 34.2163
    endloop
  endfacet
  facet normal 1 0 0
    outer loop
      vertex 123.4 86 38.7
      vertex 123.4 51.2904 33.0081
      vertex 123.4 86 0
    endloop
  endfacet
  facet normal 1 -0 0
    outer loop
      vertex 123.4 50.4314 31.9087
      vertex 123.4 86 0
      vertex 123.4 51.2904 33.0081
    endloop
  endfacet
  facet normal 1 -0 0
    outer loop
      vertex 123.4 49.4279 30.9396
      vertex 123.4 86 0
      vertex 123.4 50.4314 31.9087
    endloop
  endfacet
  facet normal 1 -0 0
    outer loop
      vertex 123.4 48.2992 30.1195
      vertex 123.4 86 0
      vertex 123.4 49.4279 30.9396
    endloop
  endfacet
  facet normal 1 -0 0
    outer loop
      vertex 123.4 47.0674 29.4645
      vertex 123.4 86 0
      vertex 123.4 48.2992 30.1195
    endloop
  endfacet
  facet normal 1 -0 0
    outer loop
      vertex 123.4 45.7564 28.9874
      vertex 123.4 86 0
      vertex 123.4 47.0674 29.4645
    endloop
  endfacet
  facet normal 1 -0 0
    outer loop
      vertex 123.4 44.3917 28.6973
      vertex 123.4 86 0
      vertex 123.4 45.7564 28.9874
    endloop
  endfacet
  facet normal 1 -0 0
    outer loop
      vertex 123.4 43 28.6
      vertex 123.4 86 0
      vertex 123.4 44.3917 28.6973
    endloop
  endfacet
  facet normal 1 0 0
    outer loop
      vertex 123.4 0 0
      vertex 123.4 43 28.6
      vertex 123.4 41.6083 28.6973
    endloop
  endfacet
  facet normal 1 0 0
    outer loop
      vertex 123.4 0 0
      vertex 123.4 41.6083 28.6973
      vertex 123.4 40.2436 28.9874
    endloop
  endfacet
  facet normal 1 0 0
    outer loop
      vertex 123.4 0 0
      vertex 123.4 40.2436 28.9874
      vertex 123.4 38.9326 29.4645
    endloop
  endfacet
  facet normal 1 0 0
    outer loop
      vertex 123.4 0 0
      vertex 123.4 38.9326 29.4645
      vertex 123.4 37.7008 30.1195
    endloop
  endfacet
  facet normal 1 0 0
    outer loop
      vertex 123.4 0 38.7
      vertex 123.4 33.1519 36.8635
      vertex 123.4 33.0061 38.251
    endloop
  endfacet
  facet normal 1 0 0
    outer loop
      vertex 123.4 0 38.7
      vertex 123.4 33.4894 35.5098
      vertex 123.4 33.1519 36.8635
    endloop
  endfacet
  facet normal 1 0 0
    outer loop
      vertex 123.4 0 38.7
      vertex 123.4 34.0121 34.2163
      vertex 123.4 33.4894 35.5098
    endloop
  endfacet
  facet normal 1 0 0
    outer loop
      vertex 123.4 0 38.7
      vertex 123.4 34.7096 33.0081
      vertex 123.4 34.0121 34.2163
    endloop
  endfacet
  facet normal 1 0 0
    outer loop
      vertex 123.4 0 0
      vertex 123.4 34.7096 33.0081
      vertex 123.4 0 38.7
    endloop
  endfacet
  facet normal 1 0 0
    outer loop
      vertex 123.4 34.7096 33.0081
      vertex 123.4 0 0
      vertex 123.4 35.5686 31.9087
    endloop
  endfacet
  facet normal 1 0 0
    outer loop
      vertex 123.4 35.5686 31.9087
      vertex 123.4 0 0
      vertex 123.4 36.5721 30.9396
    endloop
  endfacet
  facet normal 1 0 0
    outer loop
      vertex 123.4 36.5721 30.9396
      vertex 123.4 0 0
      vertex 123.4 37.7008 30.1195
    endloop
  endfacet
  facet normal 1 0 0
    outer loop
      vertex 123.4 43 28.6
      vertex 123.4 0 0
      vertex 123.4 86 0
    endloop
  endfacet
  facet normal 0.997564 -0.069752 0
    outer loop
      vertex 123.381 -0.278346 38.7
      vertex 123.4 0 0
      vertex 123.4 0 38.7
    endloop
  endfacet
  facet normal 0.997564 -0.069752 0
    outer loop
      vertex 123.4 0 0
      vertex 123.381 -0.278346 38.7
      vertex 123.381 -0.278346 0
    endloop
  endfacet
  facet normal -0.559191 0.829039 0
    outer loop
      vertex -0.999999 87.732 0
      vertex -1.23132 87.576 38.7
      vertex -0.999999 87.732 38.7
    endloop
  endfacet
  facet normal -0.559191 0.829039 0
    outer loop
      vertex -1.23132 87.576 38.7
      vertex -0.999999 87.732 0
      vertex -1.23132 87.576 0
    endloop
  endfacet
  facet normal -1 0 0
    outer loop
      vertex -1.99513 51.2904 33.0081
      vertex -1.99513 86.1395 38.7
      vertex -1.99513 86.1395 0
    endloop
  endfacet
  facet normal -1 0 0
    outer loop
      vertex -1.99513 86.1395 38.7
      vertex -1.99513 52.8481 36.8635
      vertex -1.99513 52.9939 38.251
    endloop
  endfacet
  facet normal -1 0 0
    outer loop
      vertex -1.99513 86.1395 38.7
      vertex -1.99513 52.5106 35.5098
      vertex -1.99513 52.8481 36.8635
    endloop
  endfacet
  facet normal -1 0 0
    outer loop
      vertex -1.99513 86.1395 38.7
      vertex -1.99513 51.9879 34.2163
      vertex -1.99513 52.5106 35.5098
    endloop
  endfacet
  facet normal -1 0 0
    outer loop
      vertex -1.99513 86.1395 38.7
      vertex -1.99513 51.2904 33.0081
      vertex -1.99513 51.9879 34.2163
    endloop
  endfacet
  facet normal -1 0 0
    outer loop
      vertex -1.99513 86.1395 0
      vertex -1.99513 50.4314 31.9087
      vertex -1.99513 51.2904 33.0081
    endloop
  endfacet
  facet normal -1 0 0
    outer loop
      vertex -1.99513 86.1395 0
      vertex -1.99513 49.4279 30.9396
      vertex -1.99513 50.4314 31.9087
    endloop
  endfacet
  facet normal -1 0 0
    outer loop
      vertex -1.99513 86.1395 0
      vertex -1.99513 48.2992 30.1195
      vertex -1.99513 49.4279 30.9396
    endloop
  endfacet
  facet normal -1 0 0
    outer loop
      vertex -1.99513 86.1395 0
      vertex -1.99513 47.0674 29.4645
      vertex -1.99513 48.2992 30.1195
    endloop
  endfacet
  facet normal -1 0 0
    outer loop
      vertex -1.99513 86.1395 0
      vertex -1.99513 45.7564 28.9874
      vertex -1.99513 47.0674 29.4645
    endloop
  endfacet
  facet normal -1 0 0
    outer loop
      vertex -1.99513 86.1395 0
      vertex -1.99513 44.3917 28.6973
      vertex -1.99513 45.7564 28.9874
    endloop
  endfacet
  facet normal -1 0 0
    outer loop
      vertex -1.99513 86.1395 0
      vertex -1.99513 43 28.6
      vertex -1.99513 44.3917 28.6973
    endloop
  endfacet
  facet normal -1 0 0
    outer loop
      vertex -1.99513 -0.139512 0
      vertex -1.99513 43 28.6
      vertex -1.99513 86.1395 0
    endloop
  endfacet
  facet normal -1 -0 0
    outer loop
      vertex -1.99513 43 28.6
      vertex -1.99513 -0.139512 0
      vertex -1.99513 41.6083 28.6973
    endloop
  endfacet
  facet normal -1 -0 0
    outer loop
      vertex -1.99513 41.6083 28.6973
      vertex -1.99513 -0.139512 0
      vertex -1.99513 40.2436 28.9874
    endloop
  endfacet
  facet normal -1 -0 0
    outer loop
      vertex -1.99513 40.2436 28.9874
      vertex -1.99513 -0.139512 0
      vertex -1.99513 38.9326 29.4645
    endloop
  endfacet
  facet normal -1 0 0
    outer loop
      vertex -1.99513 33.4894 35.5098
      vertex -1.99513 -0.139512 38.7
      vertex -1.99513 33.1519 36.8635
    endloop
  endfacet
  facet normal -1 0 0
    outer loop
      vertex -1.99513 34.0121 34.2163
      vertex -1.99513 -0.139512 38.7
      vertex -1.99513 33.4894 35.5098
    endloop
  endfacet
  facet normal -1 0 0
    outer loop
      vertex -1.99513 34.7096 33.0081
      vertex -1.99513 -0.139512 38.7
      vertex -1.99513 34.0121 34.2163
    endloop
  endfacet
  facet normal -1 0 0
    outer loop
      vertex -1.99513 -0.139512 38.7
      vertex -1.99513 34.7096 33.0081
      vertex -1.99513 -0.139512 0
    endloop
  endfacet
  facet normal -1 -0 0
    outer loop
      vertex -1.99513 35.5686 31.9087
      vertex -1.99513 -0.139512 0
      vertex -1.99513 34.7096 33.0081
    endloop
  endfacet
  facet normal -1 -0 0
    outer loop
      vertex -1.99513 36.5721 30.9396
      vertex -1.99513 -0.139512 0
      vertex -1.99513 35.5686 31.9087
    endloop
  endfacet
  facet normal -1 -0 0
    outer loop
      vertex -1.99513 37.7008 30.1195
      vertex -1.99513 -0.139512 0
      vertex -1.99513 36.5721 30.9396
    endloop
  endfacet
  facet normal -1 -0 0
    outer loop
      vertex -1.99513 38.9326 29.4645
      vertex -1.99513 -0.139512 0
      vertex -1.99513 37.7008 30.1195
    endloop
  endfacet
  facet normal -1 -0 0
    outer loop
      vertex -1.99513 86.1395 38.7
      vertex -1.99513 52.9939 38.251
      vertex -1.99513 52.9782 38.7
    endloop
  endfacet
  facet normal -1 0 0
    outer loop
      vertex -1.99513 33.1519 36.8635
      vertex -1.99513 -0.139512 38.7
      vertex -1.99513 33.0061 38.251
    endloop
  endfacet
  facet normal -1 0 0
    outer loop
      vertex -1.99513 33.0061 38.251
      vertex -1.99513 -0.139512 38.7
      vertex -1.99513 33.0218 38.7
    endloop
  endfacet
  facet normal -0 0 1
    outer loop
      vertex -1.99513 33.0218 38.7
      vertex 0 0 38.7
      vertex 0 33.0218 38.7
    endloop
  endfacet
  facet normal 0 -0 1
    outer loop
      vertex -1.9563 -0.415823 38.7
      vertex 0 0 38.7
      vertex -1.99513 -0.139512 38.7
    endloop
  endfacet
  facet normal 0 0 1
    outer loop
      vertex 0 0 38.7
      vertex -0.483843 -1.94059 38.7
      vertex -0.209057 -1.98904 38.7
    endloop
  endfacet
  facet normal 0 0 1
    outer loop
      vertex 0 0 38.7
      vertex -0.749212 -1.85437 38.7
      vertex -0.483843 -1.94059 38.7
    endloop
  endfacet
  facet normal 0 0 1
    outer loop
      vertex 0 0 38.7
      vertex -1 -1.73205 38.7
      vertex -0.749212 -1.85437 38.7
    endloop
  endfacet
  facet normal 0 0 1
    outer loop
      vertex 0 0 38.7
      vertex -1.23132 -1.57602 38.7
      vertex -1 -1.73205 38.7
    endloop
  endfacet
  facet normal 0 0 1
    outer loop
      vertex 0 0 38.7
      vertex -1.43868 -1.38932 38.7
      vertex -1.23132 -1.57602 38.7
    endloop
  endfacet
  facet normal 0 0 1
    outer loop
      vertex 0 0 38.7
      vertex -1.61803 -1.17557 38.7
      vertex -1.43868 -1.38932 38.7
    endloop
  endfacet
  facet normal 0 0 1
    outer loop
      vertex 0 0 38.7
      vertex -1.76589 -0.938943 38.7
      vertex -1.61803 -1.17557 38.7
    endloop
  endfacet
  facet normal 0 0 1
    outer loop
      vertex 0 0 38.7
      vertex -1.87938 -0.68404 38.7
      vertex -1.76589 -0.938943 38.7
    endloop
  endfacet
  facet normal 0 0 1
    outer loop
      vertex 0 0 38.7
      vertex -1.99513 33.0218 38.7
      vertex -1.99513 -0.139512 38.7
    endloop
  endfacet
  facet normal 0 0 1
    outer loop
      vertex 0 0 38.7
      vertex -1.9563 -0.415823 38.7
      vertex -1.87938 -0.68404 38.7
    endloop
  endfacet
  facet normal 0 0 1
    outer loop
      vertex 121.4 0 38.7
      vertex 123.4 0 38.7
      vertex 123.4 33.0218 38.7
    endloop
  endfacet
  facet normal 0 0 1
    outer loop
      vertex 123.4 0 38.7
      vertex 121.4 0 38.7
      vertex 123.381 -0.278346 38.7
    endloop
  endfacet
  facet normal 0 0 1
    outer loop
      vertex 123.381 -0.278346 38.7
      vertex 121.4 0 38.7
      vertex 123.323 -0.551274 38.7
    endloop
  endfacet
  facet normal 0 0 1
    outer loop
      vertex 123.323 -0.551274 38.7
      vertex 121.4 0 38.7
      vertex 123.227 -0.813473 38.7
    endloop
  endfacet
  facet normal 0 0 1
    outer loop
      vertex 123.227 -0.813473 38.7
      vertex 121.4 0 38.7
      vertex 123.096 -1.05984 38.7
    endloop
  endfacet
  facet normal 0 0 1
    outer loop
      vertex 123.096 -1.05984 38.7
      vertex 121.4 0 38.7
      vertex 122.932 -1.28557 38.7
    endloop
  endfacet
  facet normal 0 0 1
    outer loop
      vertex 122.932 -1.28557 38.7
      vertex 121.4 0 38.7
      vertex 122.738 -1.48629 38.7
    endloop
  endfacet
  facet normal 0 0 1
    outer loop
      vertex 122.738 -1.48629 38.7
      vertex 121.4 0 38.7
      vertex 122.518 -1.65807 38.7
    endloop
  endfacet
  facet normal 0 0 1
    outer loop
      vertex 122.518 -1.65807 38.7
      vertex 121.4 0 38.7
      vertex 122.277 -1.79759 38.7
    endloop
  endfacet
  facet normal 0 0 1
    outer loop
      vertex 122.277 -1.79759 38.7
      vertex 121.4 0 38.7
      vertex 122.018 -1.90211 38.7
    endloop
  endfacet
  facet normal 0 0 1
    outer loop
      vertex 122.018 -1.90211 38.7
      vertex 121.4 0 38.7
      vertex 121.747 -1.96961 38.7
    endloop
  endfacet
  facet normal 0 0 1
    outer loop
      vertex 121.4 0 38.7
      vertex 123.4 33.0218 38.7
      vertex 121.4 33.0218 38.7
    endloop
  endfacet
  facet normal 0 0 1
    outer loop
      vertex 121.747 -1.96961 38.7
      vertex 121.4 0 38.7
      vertex 121.47 -1.99878 38.7
    endloop
  endfacet
  facet normal 0 0 1
    outer loop
      vertex 121.4 0 38.7
      vertex 0.0697985 -1.99878 38.7
      vertex 121.47 -1.99878 38.7
    endloop
  endfacet
  facet normal -0 0 1
    outer loop
      vertex 0 0 38.7
      vertex 0.0697985 -1.99878 38.7
      vertex 121.4 0 38.7
    endloop
  endfacet
  facet normal 0 0 1
    outer loop
      vertex 0.0697985 -1.99878 38.7
      vertex 0 0 38.7
      vertex -0.209057 -1.98904 38.7
    endloop
  endfacet
  facet normal -0 0 1
    outer loop
      vertex 0.0697985 87.9988 38.7
      vertex 121.4 86 38.7
      vertex 121.47 87.9988 38.7
    endloop
  endfacet
  facet normal 0 0 1
    outer loop
      vertex 0.0697985 87.9988 38.7
      vertex 0 86 38.7
      vertex 121.4 86 38.7
    endloop
  endfacet
  facet normal -0 0 1
    outer loop
      vertex -0.209057 87.989 38.7
      vertex 0 86 38.7
      vertex 0.0697985 87.9988 38.7
    endloop
  endfacet
  facet normal -0 0 1
    outer loop
      vertex -0.483843 87.9406 38.7
      vertex 0 86 38.7
      vertex -0.209057 87.989 38.7
    endloop
  endfacet
  facet normal -0 0 1
    outer loop
      vertex -0.749212 87.8544 38.7
      vertex 0 86 38.7
      vertex -0.483843 87.9406 38.7
    endloop
  endfacet
  facet normal -0 0 1
    outer loop
      vertex -0.999999 87.732 38.7
      vertex 0 86 38.7
      vertex -0.749212 87.8544 38.7
    endloop
  endfacet
  facet normal -0 0 1
    outer loop
      vertex -1.23132 87.576 38.7
      vertex 0 86 38.7
      vertex -0.999999 87.732 38.7
    endloop
  endfacet
  facet normal -0 0 1
    outer loop
      vertex -1.43868 87.3893 38.7
      vertex 0 86 38.7
      vertex -1.23132 87.576 38.7
    endloop
  endfacet
  facet normal -0 0 1
    outer loop
      vertex -1.61803 87.1756 38.7
      vertex 0 86 38.7
      vertex -1.43868 87.3893 38.7
    endloop
  endfacet
  facet normal -0 0 1
    outer loop
      vertex -1.76589 86.9389 38.7
      vertex 0 86 38.7
      vertex -1.61803 87.1756 38.7
    endloop
  endfacet
  facet normal -0 0 1
    outer loop
      vertex -1.87938 86.684 38.7
      vertex 0 86 38.7
      vertex -1.76589 86.9389 38.7
    endloop
  endfacet
  facet normal -0 0 1
    outer loop
      vertex -1.9563 86.4158 38.7
      vertex 0 86 38.7
      vertex -1.87938 86.684 38.7
    endloop
  endfacet
  facet normal 0 0 1
    outer loop
      vertex 0 86 38.7
      vertex -1.9563 86.4158 38.7
      vertex -1.99513 86.1395 38.7
    endloop
  endfacet
  facet normal 0 0 1
    outer loop
      vertex -1.99513 52.9782 38.7
      vertex 0 86 38.7
      vertex -1.99513 86.1395 38.7
    endloop
  endfacet
  facet normal 0 0 1
    outer loop
      vertex 0 86 38.7
      vertex -1.99513 52.9782 38.7
      vertex 0 52.9782 38.7
    endloop
  endfacet
  facet normal 0 0 1
    outer loop
      vertex 121.4 86 38.7
      vertex 123.4 86 38.7
      vertex 123.381 86.2783 38.7
    endloop
  endfacet
  facet normal 0 0 1
    outer loop
      vertex 121.4 86 38.7
      vertex 123.381 86.2783 38.7
      vertex 123.323 86.5513 38.7
    endloop
  endfacet
  facet normal 0 0 1
    outer loop
      vertex 121.4 86 38.7
      vertex 123.323 86.5513 38.7
      vertex 123.227 86.8135 38.7
    endloop
  endfacet
  facet normal 0 0 1
    outer loop
      vertex 121.4 86 38.7
      vertex 123.227 86.8135 38.7
      vertex 123.096 87.0598 38.7
    endloop
  endfacet
  facet normal 0 0 1
    outer loop
      vertex 121.4 86 38.7
      vertex 123.096 87.0598 38.7
      vertex 122.932 87.2856 38.7
    endloop
  endfacet
  facet normal 0 0 1
    outer loop
      vertex 121.4 86 38.7
      vertex 122.932 87.2856 38.7
      vertex 122.738 87.4863 38.7
    endloop
  endfacet
  facet normal 0 0 1
    outer loop
      vertex 121.4 86 38.7
      vertex 122.738 87.4863 38.7
      vertex 122.518 87.6581 38.7
    endloop
  endfacet
  facet normal 0 0 1
    outer loop
      vertex 121.4 86 38.7
      vertex 122.518 87.6581 38.7
      vertex 122.277 87.7976 38.7
    endloop
  endfacet
  facet normal 0 0 1
    outer loop
      vertex 121.4 86 38.7
      vertex 122.277 87.7976 38.7
      vertex 122.018 87.9021 38.7
    endloop
  endfacet
  facet normal 0 0 1
    outer loop
      vertex 121.4 86 38.7
      vertex 122.018 87.9021 38.7
      vertex 121.747 87.9696 38.7
    endloop
  endfacet
  facet normal 0 0 1
    outer loop
      vertex 121.4 86 38.7
      vertex 121.747 87.9696 38.7
      vertex 121.47 87.9988 38.7
    endloop
  endfacet
  facet normal 0 0 1
    outer loop
      vertex 123.4 86 38.7
      vertex 121.4 86 38.7
      vertex 123.4 52.9782 38.7
    endloop
  endfacet
  facet normal 0 0 1
    outer loop
      vertex 123.4 52.9782 38.7
      vertex 121.4 86 38.7
      vertex 121.4 52.9782 38.7
    endloop
  endfacet
  facet normal 0 -1 0
    outer loop
      vertex 0.0697985 -1.99878 0
      vertex 121.47 -1.99878 38.7
      vertex 0.0697985 -1.99878 38.7
    endloop
  endfacet
  facet normal 0 -1 -0
    outer loop
      vertex 121.47 -1.99878 38.7
      vertex 0.0697985 -1.99878 0
      vertex 121.47 -1.99878 0
    endloop
  endfacet
  facet normal 0.809027 -0.587772 0
    outer loop
      vertex 122.932 -1.28557 38.7
      vertex 123.096 -1.05984 0
      vertex 123.096 -1.05984 38.7
    endloop
  endfacet
  facet normal 0.809027 -0.587772 0
    outer loop
      vertex 123.096 -1.05984 0
      vertex 122.932 -1.28557 38.7
      vertex 122.932 -1.28557 0
    endloop
  endfacet
  facet normal 0.939688 -0.342032 0
    outer loop
      vertex 123.227 -0.813473 38.7
      vertex 123.323 -0.551274 0
      vertex 123.323 -0.551274 38.7
    endloop
  endfacet
  facet normal 0.939688 -0.342032 0
    outer loop
      vertex 123.323 -0.551274 0
      vertex 123.227 -0.813473 38.7
      vertex 123.227 -0.813473 0
    endloop
  endfacet
  facet normal 0 1 -0
    outer loop
      vertex 121.47 87.9988 0
      vertex 0.0697985 87.9988 38.7
      vertex 121.47 87.9988 38.7
    endloop
  endfacet
  facet normal 0 1 0
    outer loop
      vertex 0.0697985 87.9988 38.7
      vertex 121.47 87.9988 0
      vertex 0.0697985 87.9988 0
    endloop
  endfacet
  facet normal 0.499997 -0.866027 0
    outer loop
      vertex 122.277 -1.79759 0
      vertex 122.518 -1.65807 38.7
      vertex 122.277 -1.79759 38.7
    endloop
  endfacet
  facet normal 0.499997 -0.866027 0
    outer loop
      vertex 122.518 -1.65807 38.7
      vertex 122.277 -1.79759 0
      vertex 122.518 -1.65807 0
    endloop
  endfacet
  facet normal -0.669131 -0.743145 0
    outer loop
      vertex -1.43868 -1.38932 0
      vertex -1.23132 -1.57602 38.7
      vertex -1.43868 -1.38932 38.7
    endloop
  endfacet
  facet normal -0.669131 -0.743145 -0
    outer loop
      vertex -1.23132 -1.57602 38.7
      vertex -1.43868 -1.38932 0
      vertex -1.23132 -1.57602 0
    endloop
  endfacet
  facet normal -0.0348999 -0.999391 0
    outer loop
      vertex -0.209057 -1.98904 0
      vertex 0.0697985 -1.99878 38.7
      vertex -0.209057 -1.98904 38.7
    endloop
  endfacet
  facet normal -0.0348999 -0.999391 -0
    outer loop
      vertex 0.0697985 -1.99878 38.7
      vertex -0.209057 -1.98904 0
      vertex 0.0697985 -1.99878 0
    endloop
  endfacet
  facet normal -0.848046 0.529923 0
    outer loop
      vertex -1.76589 86.9389 0
      vertex -1.61803 87.1756 38.7
      vertex -1.61803 87.1756 0
    endloop
  endfacet
  facet normal -0.848046 0.529923 0
    outer loop
      vertex -1.61803 87.1756 38.7
      vertex -1.76589 86.9389 0
      vertex -1.76589 86.9389 38.7
    endloop
  endfacet
  facet normal -0.990268 0.139171 0
    outer loop
      vertex -1.99513 86.1395 0
      vertex -1.9563 86.4158 38.7
      vertex -1.9563 86.4158 0
    endloop
  endfacet
  facet normal -0.990268 0.139171 0
    outer loop
      vertex -1.9563 86.4158 38.7
      vertex -1.99513 86.1395 0
      vertex -1.99513 86.1395 38.7
    endloop
  endfacet
  facet normal 0.997564 0.0697527 0
    outer loop
      vertex 123.4 86 38.7
      vertex 123.381 86.2783 0
      vertex 123.381 86.2783 38.7
    endloop
  endfacet
  facet normal 0.997564 0.0697527 0
    outer loop
      vertex 123.381 86.2783 0
      vertex 123.4 86 38.7
      vertex 123.4 86 0
    endloop
  endfacet
  facet normal 0.615664 0.788009 -0
    outer loop
      vertex 122.738 87.4863 0
      vertex 122.518 87.6581 38.7
      vertex 122.738 87.4863 38.7
    endloop
  endfacet
  facet normal 0.615664 0.788009 0
    outer loop
      vertex 122.518 87.6581 38.7
      vertex 122.738 87.4863 0
      vertex 122.518 87.6581 0
    endloop
  endfacet
  facet normal -0.309004 0.951061 0
    outer loop
      vertex -0.483843 87.9406 0
      vertex -0.749212 87.8544 38.7
      vertex -0.483843 87.9406 38.7
    endloop
  endfacet
  facet normal -0.309004 0.951061 0
    outer loop
      vertex -0.749212 87.8544 38.7
      vertex -0.483843 87.9406 0
      vertex -0.749212 87.8544 0
    endloop
  endfacet
  facet normal -0.0348897 0.999391 0
    outer loop
      vertex 0.0697985 87.9988 0
      vertex -0.209057 87.989 38.7
      vertex 0.0697985 87.9988 38.7
    endloop
  endfacet
  facet normal -0.0348897 0.999391 0
    outer loop
      vertex -0.209057 87.989 38.7
      vertex 0.0697985 87.9988 0
      vertex -0.209057 87.989 0
    endloop
  endfacet
  facet normal -0.438386 0.898787 0
    outer loop
      vertex -0.749212 87.8544 0
      vertex -0.999999 87.732 38.7
      vertex -0.749212 87.8544 38.7
    endloop
  endfacet
  facet normal -0.438386 0.898787 0
    outer loop
      vertex -0.999999 87.732 38.7
      vertex -0.749212 87.8544 0
      vertex -0.999999 87.732 0
    endloop
  endfacet
  facet normal 0.978147 -0.207916 0
    outer loop
      vertex 123.323 -0.551274 38.7
      vertex 123.381 -0.278346 0
      vertex 123.381 -0.278346 38.7
    endloop
  endfacet
  facet normal 0.978147 -0.207916 0
    outer loop
      vertex 123.381 -0.278346 0
      vertex 123.323 -0.551274 38.7
      vertex 123.323 -0.551274 0
    endloop
  endfacet
  facet normal 0.882945 -0.469477 0
    outer loop
      vertex 123.096 -1.05984 38.7
      vertex 123.227 -0.813473 0
      vertex 123.227 -0.813473 38.7
    endloop
  endfacet
  facet normal 0.882945 -0.469477 0
    outer loop
      vertex 123.227 -0.813473 0
      vertex 123.096 -1.05984 38.7
      vertex 123.096 -1.05984 0
    endloop
  endfacet
  facet normal 0.374612 -0.927181 0
    outer loop
      vertex 122.018 -1.90211 0
      vertex 122.277 -1.79759 38.7
      vertex 122.018 -1.90211 38.7
    endloop
  endfacet
  facet normal 0.374612 -0.927181 0
    outer loop
      vertex 122.277 -1.79759 38.7
      vertex 122.018 -1.90211 0
      vertex 122.277 -1.79759 0
    endloop
  endfacet
  facet normal 0 0 -1
    outer loop
      vertex 121.47 -1.99878 0
      vertex 123.4 0 0
      vertex 123.381 -0.278346 0
    endloop
  endfacet
  facet normal -0 0 -1
    outer loop
      vertex 123.4 0 0
      vertex 121.47 -1.99878 0
      vertex 123.4 86 0
    endloop
  endfacet
  facet normal 0 0 -1
    outer loop
      vertex 121.47 -1.99878 0
      vertex 123.381 -0.278346 0
      vertex 123.323 -0.551274 0
    endloop
  endfacet
  facet normal 0 0 -1
    outer loop
      vertex 121.47 87.9988 0
      vertex 123.4 86 0
      vertex 121.47 -1.99878 0
    endloop
  endfacet
  facet normal 0 0 -1
    outer loop
      vertex 121.47 -1.99878 0
      vertex 123.323 -0.551274 0
      vertex 123.227 -0.813473 0
    endloop
  endfacet
  facet normal 0 0 -1
    outer loop
      vertex 123.4 86 0
      vertex 121.47 87.9988 0
      vertex 123.381 86.2783 0
    endloop
  endfacet
  facet normal 0 0 -1
    outer loop
      vertex 121.47 -1.99878 0
      vertex 123.227 -0.813473 0
      vertex 123.096 -1.05984 0
    endloop
  endfacet
  facet normal 0 0 -1
    outer loop
      vertex 123.381 86.2783 0
      vertex 121.47 87.9988 0
      vertex 123.323 86.5513 0
    endloop
  endfacet
  facet normal 0 0 -1
    outer loop
      vertex 121.47 -1.99878 0
      vertex 123.096 -1.05984 0
      vertex 122.932 -1.28557 0
    endloop
  endfacet
  facet normal 0 0 -1
    outer loop
      vertex 123.323 86.5513 0
      vertex 121.47 87.9988 0
      vertex 123.227 86.8135 0
    endloop
  endfacet
  facet normal 0 0 -1
    outer loop
      vertex 121.47 -1.99878 0
      vertex 122.932 -1.28557 0
      vertex 122.738 -1.48629 0
    endloop
  endfacet
  facet normal 0 0 -1
    outer loop
      vertex 123.227 86.8135 0
      vertex 121.47 87.9988 0
      vertex 123.096 87.0598 0
    endloop
  endfacet
  facet normal 0 0 -1
    outer loop
      vertex 121.47 -1.99878 0
      vertex 122.738 -1.48629 0
      vertex 122.518 -1.65807 0
    endloop
  endfacet
  facet normal 0 0 -1
    outer loop
      vertex 123.096 87.0598 0
      vertex 121.47 87.9988 0
      vertex 122.932 87.2856 0
    endloop
  endfacet
  facet normal 0 0 -1
    outer loop
      vertex 121.47 -1.99878 0
      vertex 122.518 -1.65807 0
      vertex 122.277 -1.79759 0
    endloop
  endfacet
  facet normal 0 0 -1
    outer loop
      vertex 122.932 87.2856 0
      vertex 121.47 87.9988 0
      vertex 122.738 87.4863 0
    endloop
  endfacet
  facet normal 0 0 -1
    outer loop
      vertex 121.47 -1.99878 0
      vertex 122.277 -1.79759 0
      vertex 122.018 -1.90211 0
    endloop
  endfacet
  facet normal 0 0 -1
    outer loop
      vertex 122.738 87.4863 0
      vertex 121.47 87.9988 0
      vertex 122.518 87.6581 0
    endloop
  endfacet
  facet normal 0 0 -1
    outer loop
      vertex 121.47 -1.99878 0
      vertex 122.018 -1.90211 0
      vertex 121.747 -1.96961 0
    endloop
  endfacet
  facet normal 0 0 -1
    outer loop
      vertex 122.518 87.6581 0
      vertex 121.47 87.9988 0
      vertex 122.277 87.7976 0
    endloop
  endfacet
  facet normal 0 0 -1
    outer loop
      vertex 122.277 87.7976 0
      vertex 121.47 87.9988 0
      vertex 122.018 87.9021 0
    endloop
  endfacet
  facet normal 0 0 -1
    outer loop
      vertex 122.018 87.9021 0
      vertex 121.47 87.9988 0
      vertex 121.747 87.9696 0
    endloop
  endfacet
  facet normal 0 0 -1
    outer loop
      vertex 0.0697985 -1.99878 0
      vertex 121.47 87.9988 0
      vertex 121.47 -1.99878 0
    endloop
  endfacet
  facet normal 0 0 -1
    outer loop
      vertex 0.0697985 -1.99878 0
      vertex 0.0697985 87.9988 0
      vertex 121.47 87.9988 0
    endloop
  endfacet
  facet normal 0 0 -1
    outer loop
      vertex -1.99513 -0.139512 0
      vertex 0.0697985 -1.99878 0
      vertex -0.209057 -1.98904 0
    endloop
  endfacet
  facet normal 0 0 -1
    outer loop
      vertex 0.0697985 -1.99878 0
      vertex -1.99513 -0.139512 0
      vertex 0.0697985 87.9988 0
    endloop
  endfacet
  facet normal 0 0 -1
    outer loop
      vertex -1.99513 -0.139512 0
      vertex -0.209057 -1.98904 0
      vertex -0.483843 -1.94059 0
    endloop
  endfacet
  facet normal 0 0 -1
    outer loop
      vertex -1.99513 86.1395 0
      vertex 0.0697985 87.9988 0
      vertex -1.99513 -0.139512 0
    endloop
  endfacet
  facet normal 0 0 -1
    outer loop
      vertex -1.99513 -0.139512 0
      vertex -0.483843 -1.94059 0
      vertex -0.749212 -1.85437 0
    endloop
  endfacet
  facet normal 0 0 -1
    outer loop
      vertex 0.0697985 87.9988 0
      vertex -1.99513 86.1395 0
      vertex -0.209057 87.989 0
    endloop
  endfacet
  facet normal 0 0 -1
    outer loop
      vertex -0.483843 87.9406 0
      vertex -1.99513 86.1395 0
      vertex -0.749212 87.8544 0
    endloop
  endfacet
  facet normal 0 0 -1
    outer loop
      vertex -1.99513 -0.139512 0
      vertex -0.749212 -1.85437 0
      vertex -1 -1.73205 0
    endloop
  endfacet
  facet normal 0 0 -1
    outer loop
      vertex -1.99513 -0.139512 0
      vertex -1 -1.73205 0
      vertex -1.23132 -1.57602 0
    endloop
  endfacet
  facet normal 0 0 -1
    outer loop
      vertex -0.209057 87.989 0
      vertex -1.99513 86.1395 0
      vertex -0.483843 87.9406 0
    endloop
  endfacet
  facet normal 0 0 -1
    outer loop
      vertex -1.99513 -0.139512 0
      vertex -1.23132 -1.57602 0
      vertex -1.43868 -1.38932 0
    endloop
  endfacet
  facet normal 0 0 -1
    outer loop
      vertex -0.749212 87.8544 0
      vertex -1.99513 86.1395 0
      vertex -0.999999 87.732 0
    endloop
  endfacet
  facet normal 0 0 -1
    outer loop
      vertex -1.99513 -0.139512 0
      vertex -1.43868 -1.38932 0
      vertex -1.61803 -1.17557 0
    endloop
  endfacet
  facet normal 0 0 -1
    outer loop
      vertex -0.999999 87.732 0
      vertex -1.99513 86.1395 0
      vertex -1.23132 87.576 0
    endloop
  endfacet
  facet normal 0 0 -1
    outer loop
      vertex -1.99513 -0.139512 0
      vertex -1.61803 -1.17557 0
      vertex -1.76589 -0.938943 0
    endloop
  endfacet
  facet normal 0 0 -1
    outer loop
      vertex -1.23132 87.576 0
      vertex -1.99513 86.1395 0
      vertex -1.43868 87.3893 0
    endloop
  endfacet
  facet normal 0 0 -1
    outer loop
      vertex -1.99513 -0.139512 0
      vertex -1.76589 -0.938943 0
      vertex -1.87938 -0.68404 0
    endloop
  endfacet
  facet normal 0 0 -1
    outer loop
      vertex -1.43868 87.3893 0
      vertex -1.99513 86.1395 0
      vertex -1.61803 87.1756 0
    endloop
  endfacet
  facet normal 0 0 -1
    outer loop
      vertex -1.99513 -0.139512 0
      vertex -1.87938 -0.68404 0
      vertex -1.9563 -0.415823 0
    endloop
  endfacet
  facet normal 0 0 -1
    outer loop
      vertex -1.61803 87.1756 0
      vertex -1.99513 86.1395 0
      vertex -1.76589 86.9389 0
    endloop
  endfacet
  facet normal 0 0 -1
    outer loop
      vertex -1.76589 86.9389 0
      vertex -1.99513 86.1395 0
      vertex -1.87938 86.684 0
    endloop
  endfacet
  facet normal 0 0 -1
    outer loop
      vertex -1.87938 86.684 0
      vertex -1.99513 86.1395 0
      vertex -1.9563 86.4158 0
    endloop
  endfacet
  facet normal -0.96126 0.275643 0
    outer loop
      vertex -1.9563 86.4158 0
      vertex -1.87938 86.684 38.7
      vertex -1.87938 86.684 0
    endloop
  endfacet
  facet normal -0.96126 0.275643 0
    outer loop
      vertex -1.87938 86.684 38.7
      vertex -1.9563 86.4158 0
      vertex -1.9563 86.4158 38.7
    endloop
  endfacet
  facet normal 0.939689 0.342031 0
    outer loop
      vertex 123.323 86.5513 38.7
      vertex 123.227 86.8135 0
      vertex 123.227 86.8135 38.7
    endloop
  endfacet
  facet normal 0.939689 0.342031 0
    outer loop
      vertex 123.227 86.8135 0
      vertex 123.323 86.5513 38.7
      vertex 123.323 86.5513 0
    endloop
  endfacet
  facet normal 0.882941 0.469484 0
    outer loop
      vertex 123.227 86.8135 38.7
      vertex 123.096 87.0598 0
      vertex 123.096 87.0598 38.7
    endloop
  endfacet
  facet normal 0.882941 0.469484 0
    outer loop
      vertex 123.096 87.0598 0
      vertex 123.227 86.8135 38.7
      vertex 123.227 86.8135 0
    endloop
  endfacet
  facet normal 0.978148 0.207912 0
    outer loop
      vertex 123.381 86.2783 38.7
      vertex 123.323 86.5513 0
      vertex 123.323 86.5513 38.7
    endloop
  endfacet
  facet normal 0.978148 0.207912 0
    outer loop
      vertex 123.323 86.5513 0
      vertex 123.381 86.2783 38.7
      vertex 123.381 86.2783 0
    endloop
  endfacet
  facet normal 0.809029 0.587768 0
    outer loop
      vertex 123.096 87.0598 38.7
      vertex 122.932 87.2856 0
      vertex 122.932 87.2856 38.7
    endloop
  endfacet
  facet normal 0.809029 0.587768 0
    outer loop
      vertex 122.932 87.2856 0
      vertex 123.096 87.0598 38.7
      vertex 123.096 87.0598 0
    endloop
  endfacet
  facet normal 0.499991 0.86603 -0
    outer loop
      vertex 122.518 87.6581 0
      vertex 122.277 87.7976 38.7
      vertex 122.518 87.6581 38.7
    endloop
  endfacet
  facet normal 0.499991 0.86603 0
    outer loop
      vertex 122.277 87.7976 38.7
      vertex 122.518 87.6581 0
      vertex 122.277 87.7976 0
    endloop
  endfacet
  facet normal 0.374627 0.927176 -0
    outer loop
      vertex 122.277 87.7976 0
      vertex 122.018 87.9021 38.7
      vertex 122.277 87.7976 38.7
    endloop
  endfacet
  facet normal 0.374627 0.927176 0
    outer loop
      vertex 122.018 87.9021 38.7
      vertex 122.277 87.7976 0
      vertex 122.018 87.9021 0
    endloop
  endfacet
  facet normal 0.241905 0.9703 -0
    outer loop
      vertex 122.018 87.9021 0
      vertex 121.747 87.9696 38.7
      vertex 122.018 87.9021 38.7
    endloop
  endfacet
  facet normal 0.241905 0.9703 0
    outer loop
      vertex 121.747 87.9696 38.7
      vertex 122.018 87.9021 0
      vertex 121.747 87.9696 0
    endloop
  endfacet
  facet normal 0.10453 0.994522 -0
    outer loop
      vertex 121.747 87.9696 0
      vertex 121.47 87.9988 38.7
      vertex 121.747 87.9696 38.7
    endloop
  endfacet
  facet normal 0.10453 0.994522 0
    outer loop
      vertex 121.47 87.9988 38.7
      vertex 121.747 87.9696 0
      vertex 121.47 87.9988 0
    endloop
  endfacet
  facet normal -0.173655 0.984806 0
    outer loop
      vertex -0.209057 87.989 0
      vertex -0.483843 87.9406 38.7
      vertex -0.209057 87.989 38.7
    endloop
  endfacet
  facet normal -0.173655 0.984806 0
    outer loop
      vertex -0.483843 87.9406 38.7
      vertex -0.209057 87.989 0
      vertex -0.483843 87.9406 0
    endloop
  endfacet
  facet normal 0.241921 -0.970296 0
    outer loop
      vertex 121.747 -1.96961 0
      vertex 122.018 -1.90211 38.7
      vertex 121.747 -1.96961 38.7
    endloop
  endfacet
  facet normal 0.241921 -0.970296 0
    outer loop
      vertex 122.018 -1.90211 38.7
      vertex 121.747 -1.96961 0
      vertex 122.018 -1.90211 0
    endloop
  endfacet
  facet normal 0.104526 -0.994522 0
    outer loop
      vertex 121.47 -1.99878 0
      vertex 121.747 -1.96961 38.7
      vertex 121.47 -1.99878 38.7
    endloop
  endfacet
  facet normal 0.104526 -0.994522 0
    outer loop
      vertex 121.747 -1.96961 38.7
      vertex 121.47 -1.99878 0
      vertex 121.747 -1.96961 0
    endloop
  endfacet
  facet normal 0.719331 -0.694668 0
    outer loop
      vertex 122.738 -1.48629 38.7
      vertex 122.932 -1.28557 0
      vertex 122.932 -1.28557 38.7
    endloop
  endfacet
  facet normal 0.719331 -0.694668 0
    outer loop
      vertex 122.932 -1.28557 0
      vertex 122.738 -1.48629 38.7
      vertex 122.738 -1.48629 0
    endloop
  endfacet
  facet normal 0.615668 -0.788006 0
    outer loop
      vertex 122.518 -1.65807 0
      vertex 122.738 -1.48629 38.7
      vertex 122.518 -1.65807 38.7
    endloop
  endfacet
  facet normal 0.615668 -0.788006 0
    outer loop
      vertex 122.738 -1.48629 38.7
      vertex 122.518 -1.65807 0
      vertex 122.738 -1.48629 0
    endloop
  endfacet
  facet normal -0.766044 -0.642788 0
    outer loop
      vertex -1.43868 -1.38932 0
      vertex -1.61803 -1.17557 38.7
      vertex -1.61803 -1.17557 0
    endloop
  endfacet
  facet normal -0.766044 -0.642788 0
    outer loop
      vertex -1.61803 -1.17557 38.7
      vertex -1.43868 -1.38932 0
      vertex -1.43868 -1.38932 38.7
    endloop
  endfacet
  facet normal -0.961262 -0.275637 0
    outer loop
      vertex -1.87938 -0.68404 0
      vertex -1.9563 -0.415823 38.7
      vertex -1.9563 -0.415823 0
    endloop
  endfacet
  facet normal -0.961262 -0.275637 0
    outer loop
      vertex -1.9563 -0.415823 38.7
      vertex -1.87938 -0.68404 0
      vertex -1.87938 -0.68404 38.7
    endloop
  endfacet
  facet normal -0.990268 -0.139172 0
    outer loop
      vertex -1.9563 -0.415823 0
      vertex -1.99513 -0.139512 38.7
      vertex -1.99513 -0.139512 0
    endloop
  endfacet
  facet normal -0.990268 -0.139172 0
    outer loop
      vertex -1.99513 -0.139512 38.7
      vertex -1.9563 -0.415823 0
      vertex -1.9563 -0.415823 38.7
    endloop
  endfacet
  facet normal -0.309017 -0.951057 0
    outer loop
      vertex -0.749212 -1.85437 0
      vertex -0.483843 -1.94059 38.7
      vertex -0.749212 -1.85437 38.7
    endloop
  endfacet
  facet normal -0.309017 -0.951057 -0
    outer loop
      vertex -0.483843 -1.94059 38.7
      vertex -0.749212 -1.85437 0
      vertex -0.483843 -1.94059 0
    endloop
  endfacet
  facet normal -0.438371 -0.898794 0
    outer loop
      vertex -1 -1.73205 0
      vertex -0.749212 -1.85437 38.7
      vertex -1 -1.73205 38.7
    endloop
  endfacet
  facet normal -0.438371 -0.898794 -0
    outer loop
      vertex -0.749212 -1.85437 38.7
      vertex -1 -1.73205 0
      vertex -0.749212 -1.85437 0
    endloop
  endfacet
  facet normal -0.559193 -0.829038 0
    outer loop
      vertex -1.23132 -1.57602 0
      vertex -1 -1.73205 38.7
      vertex -1.23132 -1.57602 38.7
    endloop
  endfacet
  facet normal -0.559193 -0.829038 -0
    outer loop
      vertex -1 -1.73205 38.7
      vertex -1.23132 -1.57602 0
      vertex -1 -1.73205 0
    endloop
  endfacet
  facet normal -0.913547 0.406733 0
    outer loop
      vertex -1.87938 86.684 0
      vertex -1.76589 86.9389 38.7
      vertex -1.76589 86.9389 0
    endloop
  endfacet
  facet normal -0.913547 0.406733 0
    outer loop
      vertex -1.76589 86.9389 38.7
      vertex -1.87938 86.684 0
      vertex -1.87938 86.684 38.7
    endloop
  endfacet
  facet normal -0.766042 0.64279 0
    outer loop
      vertex -1.61803 87.1756 0
      vertex -1.43868 87.3893 38.7
      vertex -1.43868 87.3893 0
    endloop
  endfacet
  facet normal -0.766042 0.64279 0
    outer loop
      vertex -1.43868 87.3893 38.7
      vertex -1.61803 87.1756 0
      vertex -1.61803 87.1756 38.7
    endloop
  endfacet
  facet normal -0.669134 0.743141 0
    outer loop
      vertex -1.23132 87.576 0
      vertex -1.43868 87.3893 38.7
      vertex -1.23132 87.576 38.7
    endloop
  endfacet
  facet normal -0.669134 0.743141 0
    outer loop
      vertex -1.43868 87.3893 38.7
      vertex -1.23132 87.576 0
      vertex -1.43868 87.3893 0
    endloop
  endfacet
  facet normal 0.719331 0.694668 0
    outer loop
      vertex 122.932 87.2856 38.7
      vertex 122.738 87.4863 0
      vertex 122.738 87.4863 38.7
    endloop
  endfacet
  facet normal 0.719331 0.694668 0
    outer loop
      vertex 122.738 87.4863 0
      vertex 122.932 87.2856 38.7
      vertex 122.932 87.2856 0
    endloop
  endfacet
  facet normal -0.848048 -0.52992 0
    outer loop
      vertex -1.61803 -1.17557 0
      vertex -1.76589 -0.938943 38.7
      vertex -1.76589 -0.938943 0
    endloop
  endfacet
  facet normal -0.848048 -0.52992 0
    outer loop
      vertex -1.76589 -0.938943 38.7
      vertex -1.61803 -1.17557 0
      vertex -1.61803 -1.17557 38.7
    endloop
  endfacet
  facet normal -0.913545 -0.406737 0
    outer loop
      vertex -1.76589 -0.938943 0
      vertex -1.87938 -0.68404 38.7
      vertex -1.87938 -0.68404 0
    endloop
  endfacet
  facet normal -0.913545 -0.406737 0
    outer loop
      vertex -1.87938 -0.68404 38.7
      vertex -1.76589 -0.938943 0
      vertex -1.76589 -0.938943 38.7
    endloop
  endfacet
  facet normal -0.173649 -0.984808 0
    outer loop
      vertex -0.483843 -1.94059 0
      vertex -0.209057 -1.98904 38.7
      vertex -0.483843 -1.94059 38.7
    endloop
  endfacet
  facet normal -0.173649 -0.984808 -0
    outer loop
      vertex -0.209057 -1.98904 38.7
      vertex -0.483843 -1.94059 0
      vertex -0.209057 -1.98904 0
    endloop
  endfacet
  facet normal 1 0 0
    outer loop
      vertex 0 33.0218 38.7
      vertex 0 0 38.7
      vertex 0 33.0061 38.251
    endloop
  endfacet
  facet normal 1 0 0
    outer loop
      vertex 0 52.8481 36.8635
      vertex 0 86 38.7
      vertex 0 52.9939 38.251
    endloop
  endfacet
  facet normal 1 0 -0
    outer loop
      vertex 0 52.9939 38.251
      vertex 0 86 38.7
      vertex 0 52.9782 38.7
    endloop
  endfacet
  facet normal 1 0 0
    outer loop
      vertex 0 52.5106 35.5098
      vertex 0 86 38.7
      vertex 0 52.8481 36.8635
    endloop
  endfacet
  facet normal 1 0 0
    outer loop
      vertex 0 51.9879 34.2163
      vertex 0 86 38.7
      vertex 0 52.5106 35.5098
    endloop
  endfacet
  facet normal 1 0 0
    outer loop
      vertex 0 51.2904 33.0081
      vertex 0 86 38.7
      vertex 0 51.9879 34.2163
    endloop
  endfacet
  facet normal 1 0 0
    outer loop
      vertex 0 86 38.7
      vertex 0 51.2904 33.0081
      vertex 0 86 1
    endloop
  endfacet
  facet normal 1 -0 0
    outer loop
      vertex 0 50.4314 31.9087
      vertex 0 86 1
      vertex 0 51.2904 33.0081
    endloop
  endfacet
  facet normal 1 -0 0
    outer loop
      vertex 0 49.4279 30.9396
      vertex 0 86 1
      vertex 0 50.4314 31.9087
    endloop
  endfacet
  facet normal 1 -0 0
    outer loop
      vertex 0 48.2992 30.1195
      vertex 0 86 1
      vertex 0 49.4279 30.9396
    endloop
  endfacet
  facet normal 1 -0 0
    outer loop
      vertex 0 47.0674 29.4645
      vertex 0 86 1
      vertex 0 48.2992 30.1195
    endloop
  endfacet
  facet normal 1 -0 0
    outer loop
      vertex 0 45.7564 28.9874
      vertex 0 86 1
      vertex 0 47.0674 29.4645
    endloop
  endfacet
  facet normal 1 -0 0
    outer loop
      vertex 0 44.3917 28.6973
      vertex 0 86 1
      vertex 0 45.7564 28.9874
    endloop
  endfacet
  facet normal 1 -0 0
    outer loop
      vertex 0 43 28.6
      vertex 0 86 1
      vertex 0 44.3917 28.6973
    endloop
  endfacet
  facet normal 1 0 0
    outer loop
      vertex 0 0 1
      vertex 0 43 28.6
      vertex 0 41.6083 28.6973
    endloop
  endfacet
  facet normal 1 0 0
    outer loop
      vertex 0 0 1
      vertex 0 41.6083 28.6973
      vertex 0 40.2436 28.9874
    endloop
  endfacet
  facet normal 1 0 0
    outer loop
      vertex 0 0 1
      vertex 0 40.2436 28.9874
      vertex 0 38.9326 29.4645
    endloop
  endfacet
  facet normal 1 0 0
    outer loop
      vertex 0 0 1
      vertex 0 38.9326 29.4645
      vertex 0 37.7008 30.1195
    endloop
  endfacet
  facet normal 1 0 0
    outer loop
      vertex 0 0 38.7
      vertex 0 33.1519 36.8635
      vertex 0 33.0061 38.251
    endloop
  endfacet
  facet normal 1 0 0
    outer loop
      vertex 0 0 38.7
      vertex 0 33.4894 35.5098
      vertex 0 33.1519 36.8635
    endloop
  endfacet
  facet normal 1 0 0
    outer loop
      vertex 0 0 38.7
      vertex 0 34.0121 34.2163
      vertex 0 33.4894 35.5098
    endloop
  endfacet
  facet normal 1 0 0
    outer loop
      vertex 0 0 38.7
      vertex 0 34.7096 33.0081
      vertex 0 34.0121 34.2163
    endloop
  endfacet
  facet normal 1 0 0
    outer loop
      vertex 0 0 1
      vertex 0 34.7096 33.0081
      vertex 0 0 38.7
    endloop
  endfacet
  facet normal 1 0 0
    outer loop
      vertex 0 34.7096 33.0081
      vertex 0 0 1
      vertex 0 35.5686 31.9087
    endloop
  endfacet
  facet normal 1 0 0
    outer loop
      vertex 0 35.5686 31.9087
      vertex 0 0 1
      vertex 0 36.5721 30.9396
    endloop
  endfacet
  facet normal 1 0 0
    outer loop
      vertex 0 36.5721 30.9396
      vertex 0 0 1
      vertex 0 37.7008 30.1195
    endloop
  endfacet
  facet normal 1 0 0
    outer loop
      vertex 0 43 28.6
      vertex 0 0 1
      vertex 0 86 1
    endloop
  endfacet
  facet normal -1 0 0
    outer loop
      vertex 121.4 51.2904 33.0081
      vertex 121.4 86 38.7
      vertex 121.4 86 1
    endloop
  endfacet
  facet normal -1 0 0
    outer loop
      vertex 121.4 86 38.7
      vertex 121.4 52.8481 36.8635
      vertex 121.4 52.9939 38.251
    endloop
  endfacet
  facet normal -1 0 0
    outer loop
      vertex 121.4 86 38.7
      vertex 121.4 52.5106 35.5098
      vertex 121.4 52.8481 36.8635
    endloop
  endfacet
  facet normal -1 0 0
    outer loop
      vertex 121.4 86 38.7
      vertex 121.4 51.9879 34.2163
      vertex 121.4 52.5106 35.5098
    endloop
  endfacet
  facet normal -1 0 0
    outer loop
      vertex 121.4 86 38.7
      vertex 121.4 51.2904 33.0081
      vertex 121.4 51.9879 34.2163
    endloop
  endfacet
  facet normal -1 0 0
    outer loop
      vertex 121.4 86 1
      vertex 121.4 50.4314 31.9087
      vertex 121.4 51.2904 33.0081
    endloop
  endfacet
  facet normal -1 0 0
    outer loop
      vertex 121.4 86 1
      vertex 121.4 49.4279 30.9396
      vertex 121.4 50.4314 31.9087
    endloop
  endfacet
  facet normal -1 0 0
    outer loop
      vertex 121.4 86 1
      vertex 121.4 48.2992 30.1195
      vertex 121.4 49.4279 30.9396
    endloop
  endfacet
  facet normal -1 0 0
    outer loop
      vertex 121.4 86 1
      vertex 121.4 47.0674 29.4645
      vertex 121.4 48.2992 30.1195
    endloop
  endfacet
  facet normal -1 0 0
    outer loop
      vertex 121.4 86 1
      vertex 121.4 45.7564 28.9874
      vertex 121.4 47.0674 29.4645
    endloop
  endfacet
  facet normal -1 0 0
    outer loop
      vertex 121.4 86 1
      vertex 121.4 44.3917 28.6973
      vertex 121.4 45.7564 28.9874
    endloop
  endfacet
  facet normal -1 0 0
    outer loop
      vertex 121.4 86 1
      vertex 121.4 43 28.6
      vertex 121.4 44.3917 28.6973
    endloop
  endfacet
  facet normal -1 0 0
    outer loop
      vertex 121.4 0 1
      vertex 121.4 43 28.6
      vertex 121.4 86 1
    endloop
  endfacet
  facet normal -1 -0 0
    outer loop
      vertex 121.4 43 28.6
      vertex 121.4 0 1
      vertex 121.4 41.6083 28.6973
    endloop
  endfacet
  facet normal -1 -0 0
    outer loop
      vertex 121.4 41.6083 28.6973
      vertex 121.4 0 1
      vertex 121.4 40.2436 28.9874
    endloop
  endfacet
  facet normal -1 -0 0
    outer loop
      vertex 121.4 40.2436 28.9874
      vertex 121.4 0 1
      vertex 121.4 38.9326 29.4645
    endloop
  endfacet
  facet normal -1 0 0
    outer loop
      vertex 121.4 33.4894 35.5098
      vertex 121.4 0 38.7
      vertex 121.4 33.1519 36.8635
    endloop
  endfacet
  facet normal -1 0 0
    outer loop
      vertex 121.4 34.0121 34.2163
      vertex 121.4 0 38.7
      vertex 121.4 33.4894 35.5098
    endloop
  endfacet
  facet normal -1 0 0
    outer loop
      vertex 121.4 34.7096 33.0081
      vertex 121.4 0 38.7
      vertex 121.4 34.0121 34.2163
    endloop
  endfacet
  facet normal -1 0 0
    outer loop
      vertex 121.4 0 38.7
      vertex 121.4 34.7096 33.0081
      vertex 121.4 0 1
    endloop
  endfacet
  facet normal -1 -0 0
    outer loop
      vertex 121.4 35.5686 31.9087
      vertex 121.4 0 1
      vertex 121.4 34.7096 33.0081
    endloop
  endfacet
  facet normal -1 -0 0
    outer loop
      vertex 121.4 36.5721 30.9396
      vertex 121.4 0 1
      vertex 121.4 35.5686 31.9087
    endloop
  endfacet
  facet normal -1 -0 0
    outer loop
      vertex 121.4 37.7008 30.1195
      vertex 121.4 0 1
      vertex 121.4 36.5721 30.9396
    endloop
  endfacet
  facet normal -1 -0 0
    outer loop
      vertex 121.4 38.9326 29.4645
      vertex 121.4 0 1
      vertex 121.4 37.7008 30.1195
    endloop
  endfacet
  facet normal -1 -0 0
    outer loop
      vertex 121.4 86 38.7
      vertex 121.4 52.9939 38.251
      vertex 121.4 52.9782 38.7
    endloop
  endfacet
  facet normal -1 0 0
    outer loop
      vertex 121.4 33.1519 36.8635
      vertex 121.4 0 38.7
      vertex 121.4 33.0061 38.251
    endloop
  endfacet
  facet normal -1 0 0
    outer loop
      vertex 121.4 33.0061 38.251
      vertex 121.4 0 38.7
      vertex 121.4 33.0218 38.7
    endloop
  endfacet
  facet normal 0 -1 0
    outer loop
      vertex 0 86 1
      vertex 121.4 86 38.7
      vertex 0 86 38.7
    endloop
  endfacet
  facet normal 0 -1 -0
    outer loop
      vertex 121.4 86 38.7
      vertex 0 86 1
      vertex 121.4 86 1
    endloop
  endfacet
  facet normal -0 0 1
    outer loop
      vertex 0 86 1
      vertex 121.4 0 1
      vertex 121.4 86 1
    endloop
  endfacet
  facet normal 0 0 1
    outer loop
      vertex 121.4 0 1
      vertex 0 86 1
      vertex 0 0 1
    endloop
  endfacet
  facet normal 0 1 -0
    outer loop
      vertex 121.4 0 1
      vertex 0 0 38.7
      vertex 121.4 0 38.7
    endloop
  endfacet
  facet normal 0 1 0
    outer loop
      vertex 0 0 38.7
      vertex 121.4 0 1
      vertex 0 0 1
    endloop
  endfacet
  facet normal 0 -0.788012 0.61566
    outer loop
      vertex -1.99513 50.4314 31.9087
      vertex 0 51.2904 33.0081
      vertex -1.99513 51.2904 33.0081
    endloop
  endfacet
  facet normal 0 -0.788012 0.61566
    outer loop
      vertex 0 51.2904 33.0081
      vertex -1.99513 50.4314 31.9087
      vertex 0 50.4314 31.9087
    endloop
  endfacet
  facet normal 0 -0.788012 0.61566
    outer loop
      vertex 121.4 50.4314 31.9087
      vertex 123.4 51.2904 33.0081
      vertex 121.4 51.2904 33.0081
    endloop
  endfacet
  facet normal 0 -0.788012 0.61566
    outer loop
      vertex 123.4 51.2904 33.0081
      vertex 121.4 50.4314 31.9087
      vertex 123.4 50.4314 31.9087
    endloop
  endfacet
  facet normal 0 -0.207912 0.978148
    outer loop
      vertex -1.99513 45.7564 28.9874
      vertex 0 44.3917 28.6973
      vertex 0 45.7564 28.9874
    endloop
  endfacet
  facet normal 0 -0.207912 0.978148
    outer loop
      vertex 0 44.3917 28.6973
      vertex -1.99513 45.7564 28.9874
      vertex -1.99513 44.3917 28.6973
    endloop
  endfacet
  facet normal 0 -0.207912 0.978148
    outer loop
      vertex 121.4 45.7564 28.9874
      vertex 123.4 44.3917 28.6973
      vertex 123.4 45.7564 28.9874
    endloop
  endfacet
  facet normal 0 -0.207912 0.978148
    outer loop
      vertex 123.4 44.3917 28.6973
      vertex 121.4 45.7564 28.9874
      vertex 121.4 44.3917 28.6973
    endloop
  endfacet
  facet normal 0 -0.342021 0.939692
    outer loop
      vertex -1.99513 47.0674 29.4645
      vertex 0 45.7564 28.9874
      vertex 0 47.0674 29.4645
    endloop
  endfacet
  facet normal 0 -0.342021 0.939692
    outer loop
      vertex 0 45.7564 28.9874
      vertex -1.99513 47.0674 29.4645
      vertex -1.99513 45.7564 28.9874
    endloop
  endfacet
  facet normal 0 -0.342021 0.939692
    outer loop
      vertex 121.4 47.0674 29.4645
      vertex 123.4 45.7564 28.9874
      vertex 123.4 47.0674 29.4645
    endloop
  endfacet
  facet normal 0 -0.342021 0.939692
    outer loop
      vertex 123.4 45.7564 28.9874
      vertex 121.4 47.0674 29.4645
      vertex 121.4 45.7564 28.9874
    endloop
  endfacet
  facet normal 0 -0.587787 0.809016
    outer loop
      vertex -1.99513 49.4279 30.9396
      vertex 0 48.2992 30.1195
      vertex 0 49.4279 30.9396
    endloop
  endfacet
  facet normal 0 -0.587787 0.809016
    outer loop
      vertex 0 48.2992 30.1195
      vertex -1.99513 49.4279 30.9396
      vertex -1.99513 48.2992 30.1195
    endloop
  endfacet
  facet normal 0 -0.587787 0.809016
    outer loop
      vertex 121.4 49.4279 30.9396
      vertex 123.4 48.2992 30.1195
      vertex 123.4 49.4279 30.9396
    endloop
  endfacet
  facet normal 0 -0.587787 0.809016
    outer loop
      vertex 123.4 48.2992 30.1195
      vertex 121.4 49.4279 30.9396
      vertex 121.4 48.2992 30.1195
    endloop
  endfacet
  facet normal 0 -0.866025 0.5
    outer loop
      vertex -1.99513 51.2904 33.0081
      vertex 0 51.9879 34.2163
      vertex -1.99513 51.9879 34.2163
    endloop
  endfacet
  facet normal 0 -0.866025 0.5
    outer loop
      vertex 0 51.9879 34.2163
      vertex -1.99513 51.2904 33.0081
      vertex 0 51.2904 33.0081
    endloop
  endfacet
  facet normal 0 -0.866025 0.5
    outer loop
      vertex 121.4 51.2904 33.0081
      vertex 123.4 51.9879 34.2163
      vertex 121.4 51.9879 34.2163
    endloop
  endfacet
  facet normal 0 -0.866025 0.5
    outer loop
      vertex 123.4 51.9879 34.2163
      vertex 121.4 51.2904 33.0081
      vertex 123.4 51.2904 33.0081
    endloop
  endfacet
  facet normal 0 -0.999391 -0.0348977
    outer loop
      vertex -1.99513 52.9939 38.251
      vertex 0 52.9782 38.7
      vertex -1.99513 52.9782 38.7
    endloop
  endfacet
  facet normal 0 -0.999391 -0.0348977
    outer loop
      vertex 0 52.9782 38.7
      vertex -1.99513 52.9939 38.251
      vertex 0 52.9939 38.251
    endloop
  endfacet
  facet normal 0 -0.999391 -0.0348977
    outer loop
      vertex 121.4 52.9939 38.251
      vertex 123.4 52.9782 38.7
      vertex 121.4 52.9782 38.7
    endloop
  endfacet
  facet normal 0 -0.999391 -0.0348977
    outer loop
      vertex 123.4 52.9782 38.7
      vertex 121.4 52.9939 38.251
      vertex 123.4 52.9939 38.251
    endloop
  endfacet
  facet normal 0 -0.0697573 0.997564
    outer loop
      vertex -1.99513 44.3917 28.6973
      vertex 0 43 28.6
      vertex 0 44.3917 28.6973
    endloop
  endfacet
  facet normal 0 -0.0697573 0.997564
    outer loop
      vertex 0 43 28.6
      vertex -1.99513 44.3917 28.6973
      vertex -1.99513 43 28.6
    endloop
  endfacet
  facet normal 0 -0.0697573 0.997564
    outer loop
      vertex 121.4 44.3917 28.6973
      vertex 123.4 43 28.6
      vertex 123.4 44.3917 28.6973
    endloop
  endfacet
  facet normal 0 -0.0697573 0.997564
    outer loop
      vertex 123.4 43 28.6
      vertex 121.4 44.3917 28.6973
      vertex 121.4 43 28.6
    endloop
  endfacet
  facet normal 0 0.927184 0.374606
    outer loop
      vertex 0 34.0121 34.2163
      vertex -1.99513 33.4894 35.5098
      vertex 0 33.4894 35.5098
    endloop
  endfacet
  facet normal 0 0.927184 0.374606
    outer loop
      vertex -1.99513 33.4894 35.5098
      vertex 0 34.0121 34.2163
      vertex -1.99513 34.0121 34.2163
    endloop
  endfacet
  facet normal 0 0.927184 0.374606
    outer loop
      vertex 123.4 34.0121 34.2163
      vertex 121.4 33.4894 35.5098
      vertex 123.4 33.4894 35.5098
    endloop
  endfacet
  facet normal 0 0.927184 0.374606
    outer loop
      vertex 121.4 33.4894 35.5098
      vertex 123.4 34.0121 34.2163
      vertex 121.4 34.0121 34.2163
    endloop
  endfacet
  facet normal -0 0.342021 0.939692
    outer loop
      vertex -1.99513 40.2436 28.9874
      vertex 0 38.9326 29.4645
      vertex 0 40.2436 28.9874
    endloop
  endfacet
  facet normal 0 0.342021 0.939692
    outer loop
      vertex 0 38.9326 29.4645
      vertex -1.99513 40.2436 28.9874
      vertex -1.99513 38.9326 29.4645
    endloop
  endfacet
  facet normal -0 0.342021 0.939692
    outer loop
      vertex 121.4 40.2436 28.9874
      vertex 123.4 38.9326 29.4645
      vertex 123.4 40.2436 28.9874
    endloop
  endfacet
  facet normal 0 0.342021 0.939692
    outer loop
      vertex 123.4 38.9326 29.4645
      vertex 121.4 40.2436 28.9874
      vertex 121.4 38.9326 29.4645
    endloop
  endfacet
  facet normal -0 0.587787 0.809016
    outer loop
      vertex -1.99513 37.7008 30.1195
      vertex 0 36.5721 30.9396
      vertex 0 37.7008 30.1195
    endloop
  endfacet
  facet normal 0 0.587787 0.809016
    outer loop
      vertex 0 36.5721 30.9396
      vertex -1.99513 37.7008 30.1195
      vertex -1.99513 36.5721 30.9396
    endloop
  endfacet
  facet normal -0 0.587787 0.809016
    outer loop
      vertex 121.4 37.7008 30.1195
      vertex 123.4 36.5721 30.9396
      vertex 123.4 37.7008 30.1195
    endloop
  endfacet
  facet normal 0 0.587787 0.809016
    outer loop
      vertex 123.4 36.5721 30.9396
      vertex 121.4 37.7008 30.1195
      vertex 121.4 36.5721 30.9396
    endloop
  endfacet
  facet normal 0 0.999391 -0.0348977
    outer loop
      vertex 0 33.0061 38.251
      vertex -1.99513 33.0218 38.7
      vertex 0 33.0218 38.7
    endloop
  endfacet
  facet normal 0 0.999391 -0.0348977
    outer loop
      vertex -1.99513 33.0218 38.7
      vertex 0 33.0061 38.251
      vertex -1.99513 33.0061 38.251
    endloop
  endfacet
  facet normal 0 0.999391 -0.0348977
    outer loop
      vertex 123.4 33.0061 38.251
      vertex 121.4 33.0218 38.7
      vertex 123.4 33.0218 38.7
    endloop
  endfacet
  facet normal 0 0.999391 -0.0348977
    outer loop
      vertex 121.4 33.0218 38.7
      vertex 123.4 33.0061 38.251
      vertex 121.4 33.0061 38.251
    endloop
  endfacet
  facet normal 0 -0.694657 0.719341
    outer loop
      vertex -1.99513 50.4314 31.9087
      vertex 0 49.4279 30.9396
      vertex 0 50.4314 31.9087
    endloop
  endfacet
  facet normal 0 -0.694657 0.719341
    outer loop
      vertex 0 49.4279 30.9396
      vertex -1.99513 50.4314 31.9087
      vertex -1.99513 49.4279 30.9396
    endloop
  endfacet
  facet normal 0 -0.694657 0.719341
    outer loop
      vertex 121.4 50.4314 31.9087
      vertex 123.4 49.4279 30.9396
      vertex 123.4 50.4314 31.9087
    endloop
  endfacet
  facet normal 0 -0.694657 0.719341
    outer loop
      vertex 123.4 49.4279 30.9396
      vertex 121.4 50.4314 31.9087
      vertex 121.4 49.4279 30.9396
    endloop
  endfacet
  facet normal 0 -0.970296 0.24192
    outer loop
      vertex -1.99513 52.5106 35.5098
      vertex 0 52.8481 36.8635
      vertex -1.99513 52.8481 36.8635
    endloop
  endfacet
  facet normal 0 -0.970296 0.24192
    outer loop
      vertex 0 52.8481 36.8635
      vertex -1.99513 52.5106 35.5098
      vertex 0 52.5106 35.5098
    endloop
  endfacet
  facet normal 0 -0.970296 0.24192
    outer loop
      vertex 121.4 52.5106 35.5098
      vertex 123.4 52.8481 36.8635
      vertex 121.4 52.8481 36.8635
    endloop
  endfacet
  facet normal 0 -0.970296 0.24192
    outer loop
      vertex 123.4 52.8481 36.8635
      vertex 121.4 52.5106 35.5098
      vertex 123.4 52.5106 35.5098
    endloop
  endfacet
  facet normal 0 -0.994522 0.104529
    outer loop
      vertex -1.99513 52.8481 36.8635
      vertex 0 52.9939 38.251
      vertex -1.99513 52.9939 38.251
    endloop
  endfacet
  facet normal 0 -0.994522 0.104529
    outer loop
      vertex 0 52.9939 38.251
      vertex -1.99513 52.8481 36.8635
      vertex 0 52.8481 36.8635
    endloop
  endfacet
  facet normal 0 -0.994522 0.104529
    outer loop
      vertex 121.4 52.8481 36.8635
      vertex 123.4 52.9939 38.251
      vertex 121.4 52.9939 38.251
    endloop
  endfacet
  facet normal 0 -0.994522 0.104529
    outer loop
      vertex 123.4 52.9939 38.251
      vertex 121.4 52.8481 36.8635
      vertex 123.4 52.8481 36.8635
    endloop
  endfacet
  facet normal -0 0.0697573 0.997564
    outer loop
      vertex -1.99513 43 28.6
      vertex 0 41.6083 28.6973
      vertex 0 43 28.6
    endloop
  endfacet
  facet normal 0 0.0697573 0.997564
    outer loop
      vertex 0 41.6083 28.6973
      vertex -1.99513 43 28.6
      vertex -1.99513 41.6083 28.6973
    endloop
  endfacet
  facet normal -0 0.0697573 0.997564
    outer loop
      vertex 121.4 43 28.6
      vertex 123.4 41.6083 28.6973
      vertex 123.4 43 28.6
    endloop
  endfacet
  facet normal 0 0.0697573 0.997564
    outer loop
      vertex 123.4 41.6083 28.6973
      vertex 121.4 43 28.6
      vertex 121.4 41.6083 28.6973
    endloop
  endfacet
  facet normal -0 0.207912 0.978148
    outer loop
      vertex -1.99513 41.6083 28.6973
      vertex 0 40.2436 28.9874
      vertex 0 41.6083 28.6973
    endloop
  endfacet
  facet normal 0 0.207912 0.978148
    outer loop
      vertex 0 40.2436 28.9874
      vertex -1.99513 41.6083 28.6973
      vertex -1.99513 40.2436 28.9874
    endloop
  endfacet
  facet normal -0 0.207912 0.978148
    outer loop
      vertex 121.4 41.6083 28.6973
      vertex 123.4 40.2436 28.9874
      vertex 123.4 41.6083 28.6973
    endloop
  endfacet
  facet normal 0 0.207912 0.978148
    outer loop
      vertex 123.4 40.2436 28.9874
      vertex 121.4 41.6083 28.6973
      vertex 121.4 40.2436 28.9874
    endloop
  endfacet
  facet normal 0 0.994522 0.104529
    outer loop
      vertex 0 33.1519 36.8635
      vertex -1.99513 33.0061 38.251
      vertex 0 33.0061 38.251
    endloop
  endfacet
  facet normal 0 0.994522 0.104529
    outer loop
      vertex -1.99513 33.0061 38.251
      vertex 0 33.1519 36.8635
      vertex -1.99513 33.1519 36.8635
    endloop
  endfacet
  facet normal 0 0.994522 0.104529
    outer loop
      vertex 123.4 33.1519 36.8635
      vertex 121.4 33.0061 38.251
      vertex 123.4 33.0061 38.251
    endloop
  endfacet
  facet normal 0 0.994522 0.104529
    outer loop
      vertex 121.4 33.0061 38.251
      vertex 123.4 33.1519 36.8635
      vertex 121.4 33.1519 36.8635
    endloop
  endfacet
  facet normal 0 0.970296 0.24192
    outer loop
      vertex 0 33.4894 35.5098
      vertex -1.99513 33.1519 36.8635
      vertex 0 33.1519 36.8635
    endloop
  endfacet
  facet normal 0 0.970296 0.24192
    outer loop
      vertex -1.99513 33.1519 36.8635
      vertex 0 33.4894 35.5098
      vertex -1.99513 33.4894 35.5098
    endloop
  endfacet
  facet normal 0 0.970296 0.24192
    outer loop
      vertex 123.4 33.4894 35.5098
      vertex 121.4 33.1519 36.8635
      vertex 123.4 33.1519 36.8635
    endloop
  endfacet
  facet normal 0 0.970296 0.24192
    outer loop
      vertex 121.4 33.1519 36.8635
      vertex 123.4 33.4894 35.5098
      vertex 121.4 33.4894 35.5098
    endloop
  endfacet
  facet normal 0 0.866024 0.500002
    outer loop
      vertex 0 34.7096 33.0081
      vertex -1.99513 34.0121 34.2163
      vertex 0 34.0121 34.2163
    endloop
  endfacet
  facet normal 0 0.866024 0.500002
    outer loop
      vertex -1.99513 34.0121 34.2163
      vertex 0 34.7096 33.0081
      vertex -1.99513 34.7096 33.0081
    endloop
  endfacet
  facet normal 0 0.866024 0.500002
    outer loop
      vertex 123.4 34.7096 33.0081
      vertex 121.4 34.0121 34.2163
      vertex 123.4 34.0121 34.2163
    endloop
  endfacet
  facet normal 0 0.866024 0.500002
    outer loop
      vertex 121.4 34.0121 34.2163
      vertex 123.4 34.7096 33.0081
      vertex 121.4 34.7096 33.0081
    endloop
  endfacet
  facet normal -0 0.694657 0.719341
    outer loop
      vertex -1.99513 36.5721 30.9396
      vertex 0 35.5686 31.9087
      vertex 0 36.5721 30.9396
    endloop
  endfacet
  facet normal 0 0.694657 0.719341
    outer loop
      vertex 0 35.5686 31.9087
      vertex -1.99513 36.5721 30.9396
      vertex -1.99513 35.5686 31.9087
    endloop
  endfacet
  facet normal -0 0.694657 0.719341
    outer loop
      vertex 121.4 36.5721 30.9396
      vertex 123.4 35.5686 31.9087
      vertex 123.4 36.5721 30.9396
    endloop
  endfacet
  facet normal 0 0.694657 0.719341
    outer loop
      vertex 123.4 35.5686 31.9087
      vertex 121.4 36.5721 30.9396
      vertex 121.4 35.5686 31.9087
    endloop
  endfacet
  facet normal 0 0.788012 0.61566
    outer loop
      vertex 0 35.5686 31.9087
      vertex -1.99513 34.7096 33.0081
      vertex 0 34.7096 33.0081
    endloop
  endfacet
  facet normal 0 0.788012 0.61566
    outer loop
      vertex -1.99513 34.7096 33.0081
      vertex 0 35.5686 31.9087
      vertex -1.99513 35.5686 31.9087
    endloop
  endfacet
  facet normal 0 0.788012 0.61566
    outer loop
      vertex 123.4 35.5686 31.9087
      vertex 121.4 34.7096 33.0081
      vertex 123.4 34.7096 33.0081
    endloop
  endfacet
  facet normal 0 0.788012 0.61566
    outer loop
      vertex 121.4 34.7096 33.0081
      vertex 123.4 35.5686 31.9087
      vertex 121.4 35.5686 31.9087
    endloop
  endfacet
  facet normal -0 0.469471 0.882948
    outer loop
      vertex -1.99513 38.9326 29.4645
      vertex 0 37.7008 30.1195
      vertex 0 38.9326 29.4645
    endloop
  endfacet
  facet normal 0 0.469471 0.882948
    outer loop
      vertex 0 37.7008 30.1195
      vertex -1.99513 38.9326 29.4645
      vertex -1.99513 37.7008 30.1195
    endloop
  endfacet
  facet normal -0 0.469471 0.882948
    outer loop
      vertex 121.4 38.9326 29.4645
      vertex 123.4 37.7008 30.1195
      vertex 123.4 38.9326 29.4645
    endloop
  endfacet
  facet normal 0 0.469471 0.882948
    outer loop
      vertex 123.4 37.7008 30.1195
      vertex 121.4 38.9326 29.4645
      vertex 121.4 37.7008 30.1195
    endloop
  endfacet
  facet normal 0 -0.469471 0.882948
    outer loop
      vertex -1.99513 48.2992 30.1195
      vertex 0 47.0674 29.4645
      vertex 0 48.2992 30.1195
    endloop
  endfacet
  facet normal 0 -0.469471 0.882948
    outer loop
      vertex 0 47.0674 29.4645
      vertex -1.99513 48.2992 30.1195
      vertex -1.99513 47.0674 29.4645
    endloop
  endfacet
  facet normal 0 -0.469471 0.882948
    outer loop
      vertex 121.4 48.2992 30.1195
      vertex 123.4 47.0674 29.4645
      vertex 123.4 48.2992 30.1195
    endloop
  endfacet
  facet normal 0 -0.469471 0.882948
    outer loop
      vertex 123.4 47.0674 29.4645
      vertex 121.4 48.2992 30.1195
      vertex 121.4 47.0674 29.4645
    endloop
  endfacet
  facet normal 0 -0.927183 0.374608
    outer loop
      vertex -1.99513 51.9879 34.2163
      vertex 0 52.5106 35.5098
      vertex -1.99513 52.5106 35.5098
    endloop
  endfacet
  facet normal 0 -0.927183 0.374608
    outer loop
      vertex 0 52.5106 35.5098
      vertex -1.99513 51.9879 34.2163
      vertex 0 51.9879 34.2163
    endloop
  endfacet
  facet normal 0 -0.927183 0.374608
    outer loop
      vertex 121.4 51.9879 34.2163
      vertex 123.4 52.5106 35.5098
      vertex 121.4 52.5106 35.5098
    endloop
  endfacet
  facet normal 0 -0.927183 0.374608
    outer loop
      vertex 123.4 52.5106 35.5098
      vertex 121.4 51.9879 34.2163
      vertex 123.4 51.9879 34.2163
    endloop
  endfacet
endsolid OpenSCAD_Model
