  0
SECTION
  2
BLOCKS
  0
ENDSEC
  0
SECTION
  2
ENTITIES
  0
LINE
  8
0
 10
136
 20
273
 11
91
 21
273
  0
LINE
  8
0
 10
91
 20
273
 11
91
 21
148
  0
LINE
  8
0
 10
91
 20
148
 11
136
 21
148
  0
LINE
  8
0
 10
136
 20
148
 11
136
 21
273
  0
LINE
  8
0
 10
83
 20
264
 11
42
 21
264
  0
LINE
  8
0
 10
42
 20
264
 11
42
 21
244
  0
LINE
  8
0
 10
42
 20
244
 11
83
 21
244
  0
LINE
  8
0
 10
83
 20
244
 11
83
 21
264
  0
LINE
  8
0
 10
88
 20
216
 11
37
 21
216
  0
LINE
  8
0
 10
37
 20
216
 11
37
 21
241
  0
LINE
  8
0
 10
37
 20
241
 11
10
 21
241
  0
LINE
  8
0
 10
10
 20
241
 11
10
 21
196
  0
LINE
  8
0
 10
10
 20
196
 11
88
 21
196
  0
LINE
  8
0
 10
88
 20
196
 11
88
 21
216
  0
LINE
  8
0
 10
196
 20
214
 11
155
 21
214
  0
LINE
  8
0
 10
155
 20
214
 11
155
 21
194
  0
LINE
  8
0
 10
155
 20
194
 11
196
 21
194
  0
LINE
  8
0
 10
196
 20
194
 11
196
 21
214
  0
LINE
  8
0
 10
88
 20
168
 11
37
 21
168
  0
LINE
  8
0
 10
37
 20
168
 11
37
 21
193
  0
LINE
  8
0
 10
37
 20
193
 11
10
 21
193
  0
LINE
  8
0
 10
10
 20
193
 11
10
 21
148
  0
LINE
  8
0
 10
10
 20
148
 11
88
 21
148
  0
LINE
  8
0
 10
88
 20
148
 11
88
 21
168
  0
LINE
  8
0
 10
196
 20
191
 11
155
 21
191
  0
LINE
  8
0
 10
155
 20
191
 11
155
 21
171
  0
LINE
  8
0
 10
155
 20
171
 11
196
 21
171
  0
LINE
  8
0
 10
196
 20
171
 11
196
 21
191
  0
LINE
  8
0
 10
196
 20
168
 11
155
 21
168
  0
LINE
  8
0
 10
155
 20
168
 11
155
 21
148
  0
LINE
  8
0
 10
155
 20
148
 11
196
 21
148
  0
LINE
  8
0
 10
196
 20
148
 11
196
 21
168
  0
LINE
  8
0
 10
247
 20
145
 11
227
 21
145
  0
LINE
  8
0
 10
227
 20
145
 11
227
 21
10
  0
LINE
  8
0
 10
227
 20
10
 11
247
 21
10
  0
LINE
  8
0
 10
247
 20
10
 11
247
 21
145
  0
LINE
  8
0
 10
224
 20
145
 11
204
 21
145
  0
LINE
  8
0
 10
204
 20
145
 11
204
 21
10
  0
LINE
  8
0
 10
204
 20
10
 11
224
 21
10
  0
LINE
  8
0
 10
224
 20
10
 11
224
 21
145
  0
LINE
  8
0
 10
201
 20
145
 11
150
 21
145
  0
LINE
  8
0
 10
150
 20
145
 11
150
 21
10
  0
LINE
  8
0
 10
150
 20
10
 11
201
 21
10
  0
LINE
  8
0
 10
201
 20
10
 11
201
 21
145
  0
LINE
  8
0
 10
155
 20
63
 11
155
 21
140
  0
LINE
  8
0
 10
155
 20
140
 11
196
 21
140
  0
LINE
  8
0
 10
196
 20
140
 11
196
 21
63
  0
LINE
  8
0
 10
196
 20
63
 11
155
 21
63
  0
LINE
  8
0
 10
155
 20
15
 11
155
 21
58
  0
LINE
  8
0
 10
155
 20
58
 11
196
 21
58
  0
LINE
  8
0
 10
196
 20
58
 11
196
 21
15
  0
LINE
  8
0
 10
196
 20
15
 11
155
 21
15
  0
LINE
  8
0
 10
88
 20
145
 11
10
 21
145
  0
LINE
  8
0
 10
10
 20
145
 11
10
 21
10
  0
LINE
  8
0
 10
10
 20
10
 11
88
 21
10
  0
LINE
  8
0
 10
88
 20
10
 11
88
 21
145
  0
LINE
  8
0
 10
42
 20
63
 11
42
 21
140
  0
LINE
  8
0
 10
42
 20
140
 11
83
 21
140
  0
LINE
  8
0
 10
83
 20
140
 11
83
 21
63
  0
LINE
  8
0
 10
83
 20
63
 11
42
 21
63
  0
LINE
  8
0
 10
15
 20
15
 11
15
 21
140
  0
LINE
  8
0
 10
15
 20
140
 11
37
 21
140
  0
LINE
  8
0
 10
37
 20
140
 11
37
 21
15
  0
LINE
  8
0
 10
37
 20
15
 11
15
 21
15
  0
LINE
  8
0
 10
42
 20
15
 11
42
 21
58
  0
LINE
  8
0
 10
42
 20
58
 11
83
 21
58
  0
LINE
  8
0
 10
83
 20
58
 11
83
 21
15
  0
LINE
  8
0
 10
83
 20
15
 11
42
 21
15
  0
LINE
  8
0
 10
134
 20
140
 11
114
 21
140
  0
LINE
  8
0
 10
114
 20
140
 11
114
 21
15
  0
LINE
  8
0
 10
114
 20
15
 11
134
 21
15
  0
LINE
  8
0
 10
134
 20
15
 11
134
 21
140
  0
LINE
  8
0
 10
111
 20
140
 11
91
 21
140
  0
LINE
  8
0
 10
91
 20
140
 11
91
 21
15
  0
LINE
  8
0
 10
91
 20
15
 11
111
 21
15
  0
LINE
  8
0
 10
111
 20
15
 11
111
 21
140
  0
ENDSEC
  0
SECTION
  2
OBJECTS
  0
DICTIONARY
  0
ENDSEC
  0
EOF
