<?xml version="1.0" standalone="no"?>
<!DOCTYPE svg PUBLIC "-//W3C//DTD SVG 1.1//EN" "http://www.w3.org/Graphics/SVG/1.1/DTD/svg11.dtd">
<svg width="454" height="387" viewBox="10 -397 454 387" xmlns="http://www.w3.org/2000/svg" version="1.1">
<title>OpenSCAD Model</title>
<path d="
M 190,-367 L 161,-397 L 132,-397 L 132,-352 L 190,-352 z
M 68,-367 L 39,-397 L 10,-397 L 10,-352 L 68,-352 z
M 129,-367 L 100,-397 L 71,-397 L 71,-352 L 129,-352 z
M 312,-367 L 283,-397 L 254,-397 L 254,-352 L 312,-352 z
M 251,-367 L 222,-397 L 193,-397 L 193,-352 L 251,-352 z
M 444,-372 L 315,-372 L 315,-304 L 444,-304 z
M 360,-304.5 L 360,-367 L 365,-367 L 365,-304.5 z
M 370,-304.5 L 370,-367 L 377,-367 L 377,-304.5 z
M 382,-304.5 L 382,-367 L 389,-367 L 389,-304.5 z
M 394,-304.5 L 394,-367 L 409,-367 L 409,-304.5 z
M 414,-304.5 L 414,-367 L 439,-367 L 439,-304.5 z
M 320,-304.5 L 320,-367 L 325,-367 L 325,-304.5 z
M 350,-304.5 L 350,-367 L 355,-367 L 355,-304.5 z
M 340,-304.5 L 340,-367 L 345,-367 L 345,-304.5 z
M 330,-304.5 L 330,-367 L 335,-367 L 335,-304.5 z
M 190,-319 L 161,-349 L 132,-349 L 132,-304 L 190,-304 z
M 129,-319 L 100,-349 L 71,-349 L 71,-304 L 129,-304 z
M 68,-319 L 39,-349 L 10,-349 L 10,-304 L 68,-304 z
M 251,-319 L 222,-349 L 193,-349 L 193,-304 L 251,-304 z
M 312,-319 L 283,-349 L 254,-349 L 254,-304 L 312,-304 z
M 142,-298 L 10,-298 L 10,-278 L 142,-278 z
M 372,-298 L 240,-298 L 240,-278 L 372,-278 z
M 177,-293 L 145,-293 L 145,-278 L 177,-278 z
M 407,-293 L 375,-293 L 375,-278 L 407,-278 z
M 177,-275 L 145,-275 L 145,-255 L 177,-255 z
M 407,-275 L 375,-275 L 375,-255 L 407,-255 z
M 142,-275 L 10,-275 L 10,-255 L 142,-255 z
M 372,-275 L 240,-275 L 240,-255 L 372,-255 z
M 372,-252 L 240,-252 L 240,-157 L 372,-157 z
M 285,-218 L 285,-247 L 317,-247 L 317,-218 z
M 245,-162 L 245,-247 L 280,-247 L 280,-162 z
M 322,-162 L 322,-247 L 367,-247 L 367,-162 z
M 285,-196 L 285,-213 L 317,-213 L 317,-196 z
M 285,-162 L 285,-191 L 317,-191 L 317,-162 z
M 142,-252 L 10,-252 L 10,-157 L 142,-157 z
M 92,-162 L 92,-247 L 137,-247 L 137,-162 z
M 55,-218 L 55,-247 L 87,-247 L 87,-218 z
M 15,-162 L 15,-247 L 50,-247 L 50,-162 z
M 55,-196 L 55,-213 L 87,-213 L 87,-196 z
M 55,-162 L 55,-191 L 87,-191 L 87,-162 z
M 464,-247 L 444,-247 L 444,-162 L 464,-162 z
M 441,-247 L 421,-247 L 421,-162 L 441,-162 z
M 418,-247 L 398,-247 L 398,-162 L 418,-162 z
M 395,-247 L 375,-247 L 375,-162 L 395,-162 z
M 234,-247 L 214,-247 L 214,-162 L 234,-162 z
M 211,-247 L 191,-247 L 191,-162 L 211,-162 z
M 188,-247 L 168,-247 L 168,-162 L 188,-162 z
M 165,-247 L 145,-247 L 145,-162 L 165,-162 z
M 372,-151 L 240,-151 L 240,-131 L 372,-131 z
M 142,-151 L 10,-151 L 10,-131 L 142,-131 z
M 177,-146 L 145,-146 L 145,-131 L 177,-131 z
M 407,-146 L 375,-146 L 375,-131 L 407,-131 z
M 142,-128 L 10,-128 L 10,-108 L 142,-108 z
M 177,-128 L 145,-128 L 145,-108 L 177,-108 z
M 372,-128 L 240,-128 L 240,-108 L 372,-108 z
M 407,-128 L 375,-128 L 375,-108 L 407,-108 z
M 142,-105 L 10,-105 L 10,-10 L 142,-10 z
M 15,-15 L 15,-100 L 50,-100 L 50,-15 z
M 55,-71 L 55,-100 L 87,-100 L 87,-71 z
M 92,-15 L 92,-100 L 137,-100 L 137,-15 z
M 55,-49 L 55,-66 L 87,-66 L 87,-49 z
M 55,-15 L 55,-44 L 87,-44 L 87,-15 z
M 372,-105 L 240,-105 L 240,-10 L 372,-10 z
M 245,-15 L 245,-100 L 280,-100 L 280,-15 z
M 285,-71 L 285,-100 L 317,-100 L 317,-71 z
M 322,-15 L 322,-100 L 367,-100 L 367,-15 z
M 285,-49 L 285,-66 L 317,-66 L 317,-49 z
M 285,-15 L 285,-44 L 317,-44 L 317,-15 z
M 188,-100 L 168,-100 L 168,-15 L 188,-15 z
M 464,-100 L 444,-100 L 444,-15 L 464,-15 z
M 441,-100 L 421,-100 L 421,-15 L 441,-15 z
M 165,-100 L 145,-100 L 145,-15 L 165,-15 z
M 211,-100 L 191,-100 L 191,-15 L 211,-15 z
M 234,-100 L 214,-100 L 214,-15 L 234,-15 z
M 418,-100 L 398,-100 L 398,-15 L 418,-15 z
M 395,-100 L 375,-100 L 375,-15 L 395,-15 z
" stroke="black" fill="lightgray" stroke-width="0.5"/></svg>
