  0
SECTION
  2
BLOCKS
  0
ENDSEC
  0
SECTION
  2
ENTITIES
  0
LINE
  8
0
 10
196
 20
347
 11
111
 21
347
  0
LINE
  8
0
 10
111
 20
347
 11
111
 21
327
  0
LINE
  8
0
 10
111
 20
327
 11
196
 21
327
  0
LINE
  8
0
 10
196
 20
327
 11
196
 21
347
  0
LINE
  8
0
 10
95
 20
347
 11
10
 21
347
  0
LINE
  8
0
 10
10
 20
347
 11
10
 21
327
  0
LINE
  8
0
 10
10
 20
327
 11
95
 21
327
  0
LINE
  8
0
 10
95
 20
327
 11
95
 21
347
  0
LINE
  8
0
 10
196
 20
324
 11
111
 21
324
  0
LINE
  8
0
 10
111
 20
324
 11
111
 21
304
  0
LINE
  8
0
 10
111
 20
304
 11
196
 21
304
  0
LINE
  8
0
 10
196
 20
304
 11
196
 21
324
  0
LINE
  8
0
 10
95
 20
324
 11
10
 21
324
  0
LINE
  8
0
 10
10
 20
324
 11
10
 21
304
  0
LINE
  8
0
 10
10
 20
304
 11
95
 21
304
  0
LINE
  8
0
 10
95
 20
304
 11
95
 21
324
  0
LINE
  8
0
 10
371.5
 20
320.5
 11
313
 21
320.5
  0
LINE
  8
0
 10
313
 20
320.5
 11
313
 21
300.5
  0
LINE
  8
0
 10
313
 20
300.5
 11
371.5
 21
300.5
  0
LINE
  8
0
 10
371.5
 20
300.5
 11
371.5
 21
320.5
  0
LINE
  8
0
 10
270.5
 20
320.5
 11
212
 21
320.5
  0
LINE
  8
0
 10
212
 20
320.5
 11
212
 21
300.5
  0
LINE
  8
0
 10
212
 20
300.5
 11
270.5
 21
300.5
  0
LINE
  8
0
 10
270.5
 20
300.5
 11
270.5
 21
320.5
  0
LINE
  8
0
 10
206
 20
301
 11
111
 21
301
  0
LINE
  8
0
 10
111
 20
301
 11
111
 21
281
  0
LINE
  8
0
 10
111
 20
281
 11
206
 21
281
  0
LINE
  8
0
 10
206
 20
281
 11
206
 21
301
  0
LINE
  8
0
 10
105
 20
301
 11
10
 21
301
  0
LINE
  8
0
 10
10
 20
301
 11
10
 21
281
  0
LINE
  8
0
 10
10
 20
281
 11
105
 21
281
  0
LINE
  8
0
 10
105
 20
281
 11
105
 21
301
  0
LINE
  8
0
 10
371.5
 20
297.5
 11
313
 21
297.5
  0
LINE
  8
0
 10
313
 20
297.5
 11
313
 21
277.5
  0
LINE
  8
0
 10
313
 20
277.5
 11
371.5
 21
277.5
  0
LINE
  8
0
 10
371.5
 20
277.5
 11
371.5
 21
297.5
  0
LINE
  8
0
 10
270.5
 20
297.5
 11
212
 21
297.5
  0
LINE
  8
0
 10
212
 20
297.5
 11
212
 21
277.5
  0
LINE
  8
0
 10
212
 20
277.5
 11
270.5
 21
277.5
  0
LINE
  8
0
 10
270.5
 20
277.5
 11
270.5
 21
297.5
  0
LINE
  8
0
 10
105
 20
278
 11
10
 21
278
  0
LINE
  8
0
 10
10
 20
278
 11
10
 21
258
  0
LINE
  8
0
 10
10
 20
258
 11
105
 21
258
  0
LINE
  8
0
 10
105
 20
258
 11
105
 21
278
  0
LINE
  8
0
 10
206
 20
278
 11
111
 21
278
  0
LINE
  8
0
 10
111
 20
278
 11
111
 21
258
  0
LINE
  8
0
 10
111
 20
258
 11
206
 21
258
  0
LINE
  8
0
 10
206
 20
258
 11
206
 21
278
  0
LINE
  8
0
 10
307
 20
274.5
 11
212
 21
274.5
  0
LINE
  8
0
 10
212
 20
274.5
 11
212
 21
254.5
  0
LINE
  8
0
 10
212
 20
254.5
 11
307
 21
254.5
  0
LINE
  8
0
 10
307
 20
254.5
 11
307
 21
274.5
  0
LINE
  8
0
 10
408
 20
274.5
 11
313
 21
274.5
  0
LINE
  8
0
 10
313
 20
274.5
 11
313
 21
254.5
  0
LINE
  8
0
 10
313
 20
254.5
 11
408
 21
254.5
  0
LINE
  8
0
 10
408
 20
254.5
 11
408
 21
274.5
  0
LINE
  8
0
 10
105
 20
255
 11
10
 21
255
  0
LINE
  8
0
 10
10
 20
255
 11
10
 21
160
  0
LINE
  8
0
 10
10
 20
160
 11
105
 21
160
  0
LINE
  8
0
 10
105
 20
160
 11
105
 21
255
  0
LINE
  8
0
 10
15
 20
165
 11
15
 21
250
  0
LINE
  8
0
 10
15
 20
250
 11
100
 21
250
  0
LINE
  8
0
 10
100
 20
250
 11
100
 21
165
  0
LINE
  8
0
 10
100
 20
165
 11
15
 21
165
  0
LINE
  8
0
 10
206
 20
255
 11
111
 21
255
  0
LINE
  8
0
 10
111
 20
255
 11
111
 21
160
  0
LINE
  8
0
 10
111
 20
160
 11
206
 21
160
  0
LINE
  8
0
 10
206
 20
160
 11
206
 21
255
  0
LINE
  8
0
 10
116
 20
165
 11
116
 21
250
  0
LINE
  8
0
 10
116
 20
250
 11
201
 21
250
  0
LINE
  8
0
 10
201
 20
250
 11
201
 21
165
  0
LINE
  8
0
 10
201
 20
165
 11
116
 21
165
  0
LINE
  8
0
 10
307
 20
251.5
 11
212
 21
251.5
  0
LINE
  8
0
 10
212
 20
251.5
 11
212
 21
231.5
  0
LINE
  8
0
 10
212
 20
231.5
 11
307
 21
231.5
  0
LINE
  8
0
 10
307
 20
231.5
 11
307
 21
251.5
  0
LINE
  8
0
 10
408
 20
251.5
 11
313
 21
251.5
  0
LINE
  8
0
 10
313
 20
251.5
 11
313
 21
231.5
  0
LINE
  8
0
 10
313
 20
231.5
 11
408
 21
231.5
  0
LINE
  8
0
 10
408
 20
231.5
 11
408
 21
251.5
  0
LINE
  8
0
 10
307
 20
228.5
 11
212
 21
228.5
  0
LINE
  8
0
 10
212
 20
228.5
 11
212
 21
160
  0
LINE
  8
0
 10
212
 20
160
 11
307
 21
160
  0
LINE
  8
0
 10
307
 20
160
 11
307
 21
228.5
  0
LINE
  8
0
 10
217
 20
165
 11
217
 21
223.5
  0
LINE
  8
0
 10
217
 20
223.5
 11
302
 21
223.5
  0
LINE
  8
0
 10
302
 20
223.5
 11
302
 21
165
  0
LINE
  8
0
 10
302
 20
165
 11
217
 21
165
  0
LINE
  8
0
 10
408
 20
228.5
 11
313
 21
228.5
  0
LINE
  8
0
 10
313
 20
228.5
 11
313
 21
160
  0
LINE
  8
0
 10
313
 20
160
 11
408
 21
160
  0
LINE
  8
0
 10
408
 20
160
 11
408
 21
228.5
  0
LINE
  8
0
 10
318
 20
165
 11
318
 21
223.5
  0
LINE
  8
0
 10
318
 20
223.5
 11
403
 21
223.5
  0
LINE
  8
0
 10
403
 20
223.5
 11
403
 21
165
  0
LINE
  8
0
 10
403
 20
165
 11
318
 21
165
  0
LINE
  8
0
 10
274
 20
154
 11
10
 21
154
  0
LINE
  8
0
 10
10
 20
154
 11
10
 21
58
  0
LINE
  8
0
 10
10
 20
58
 11
274
 21
58
  0
LINE
  8
0
 10
274
 20
58
 11
274
 21
154
  0
LINE
  8
0
 10
15
 20
58.5
 11
15
 21
149
  0
LINE
  8
0
 10
15
 20
149
 11
96.3333
 21
149
  0
LINE
  8
0
 10
96.3333
 20
149
 11
96.3333
 21
58.5
  0
LINE
  8
0
 10
96.3333
 20
58.5
 11
15
 21
58.5
  0
LINE
  8
0
 10
101.333
 20
58.5
 11
101.333
 21
149
  0
LINE
  8
0
 10
101.333
 20
149
 11
182.667
 21
149
  0
LINE
  8
0
 10
182.667
 20
149
 11
182.667
 21
58.5
  0
LINE
  8
0
 10
182.667
 20
58.5
 11
101.333
 21
58.5
  0
LINE
  8
0
 10
187.667
 20
58.5
 11
187.667
 21
149
  0
LINE
  8
0
 10
187.667
 20
149
 11
269
 21
149
  0
LINE
  8
0
 10
269
 20
149
 11
269
 21
58.5
  0
LINE
  8
0
 10
269
 20
58.5
 11
187.667
 21
58.5
  0
LINE
  8
0
 10
368
 20
154
 11
277
 21
154
  0
LINE
  8
0
 10
277
 20
154
 11
277
 21
109
  0
LINE
  8
0
 10
277
 20
109
 11
368
 21
109
  0
LINE
  8
0
 10
368
 20
109
 11
368
 21
154
  0
LINE
  8
0
 10
464
 20
154
 11
373
 21
154
  0
LINE
  8
0
 10
373
 20
154
 11
373
 21
109
  0
LINE
  8
0
 10
373
 20
109
 11
464
 21
109
  0
LINE
  8
0
 10
464
 20
109
 11
464
 21
154
  0
LINE
  8
0
 10
368
 20
106
 11
277
 21
106
  0
LINE
  8
0
 10
277
 20
106
 11
277
 21
61
  0
LINE
  8
0
 10
277
 20
61
 11
368
 21
61
  0
LINE
  8
0
 10
368
 20
61
 11
368
 21
106
  0
LINE
  8
0
 10
464
 20
106
 11
373
 21
106
  0
LINE
  8
0
 10
373
 20
106
 11
373
 21
61
  0
LINE
  8
0
 10
373
 20
61
 11
464
 21
61
  0
LINE
  8
0
 10
464
 20
61
 11
464
 21
106
  0
LINE
  8
0
 10
274
 20
55
 11
10
 21
55
  0
LINE
  8
0
 10
10
 20
55
 11
10
 21
10
  0
LINE
  8
0
 10
10
 20
10
 11
274
 21
10
  0
LINE
  8
0
 10
274
 20
10
 11
274
 21
55
  0
LINE
  8
0
 10
15
 20
10.5
 11
15
 21
54.5
  0
LINE
  8
0
 10
15
 20
54.5
 11
96.3333
 21
54.5
  0
LINE
  8
0
 10
96.3333
 20
54.5
 11
96.3333
 21
10.5
  0
LINE
  8
0
 10
96.3333
 20
10.5
 11
15
 21
10.5
  0
LINE
  8
0
 10
101.333
 20
10.5
 11
101.333
 21
54.5
  0
LINE
  8
0
 10
101.333
 20
54.5
 11
182.667
 21
54.5
  0
LINE
  8
0
 10
182.667
 20
54.5
 11
182.667
 21
10.5
  0
LINE
  8
0
 10
182.667
 20
10.5
 11
101.333
 21
10.5
  0
LINE
  8
0
 10
187.667
 20
10.5
 11
187.667
 21
54.5
  0
LINE
  8
0
 10
187.667
 20
54.5
 11
269
 21
54.5
  0
LINE
  8
0
 10
269
 20
54.5
 11
269
 21
10.5
  0
LINE
  8
0
 10
269
 20
10.5
 11
187.667
 21
10.5
  0
ENDSEC
  0
SECTION
  2
OBJECTS
  0
DICTIONARY
  0
ENDSEC
  0
EOF
