  0
SECTION
  2
BLOCKS
  0
ENDSEC
  0
SECTION
  2
ENTITIES
  0
LINE
  8
0
 10
74
 20
323
 11
10
 21
323
  0
LINE
  8
0
 10
10
 20
323
 11
10
 21
303
  0
LINE
  8
0
 10
10
 20
303
 11
74
 21
303
  0
LINE
  8
0
 10
74
 20
303
 11
74
 21
323
  0
LINE
  8
0
 10
74
 20
300
 11
10
 21
300
  0
LINE
  8
0
 10
10
 20
300
 11
10
 21
280
  0
LINE
  8
0
 10
10
 20
280
 11
74
 21
280
  0
LINE
  8
0
 10
74
 20
280
 11
74
 21
300
  0
LINE
  8
0
 10
105
 20
277
 11
10
 21
277
  0
LINE
  8
0
 10
10
 20
277
 11
10
 21
257
  0
LINE
  8
0
 10
10
 20
257
 11
105
 21
257
  0
LINE
  8
0
 10
105
 20
257
 11
105
 21
277
  0
LINE
  8
0
 10
105
 20
254
 11
10
 21
254
  0
LINE
  8
0
 10
10
 20
254
 11
10
 21
234
  0
LINE
  8
0
 10
10
 20
234
 11
105
 21
234
  0
LINE
  8
0
 10
105
 20
234
 11
105
 21
254
  0
LINE
  8
0
 10
105
 20
231
 11
10
 21
231
  0
LINE
  8
0
 10
10
 20
231
 11
10
 21
157
  0
LINE
  8
0
 10
10
 20
157
 11
105
 21
157
  0
LINE
  8
0
 10
105
 20
157
 11
105
 21
231
  0
LINE
  8
0
 10
15
 20
162
 11
15
 21
226
  0
LINE
  8
0
 10
15
 20
226
 11
100
 21
226
  0
LINE
  8
0
 10
100
 20
226
 11
100
 21
162
  0
LINE
  8
0
 10
100
 20
162
 11
15
 21
162
  0
LINE
  8
0
 10
137
 20
151
 11
10
 21
151
  0
LINE
  8
0
 10
10
 20
151
 11
10
 21
131
  0
LINE
  8
0
 10
10
 20
131
 11
137
 21
131
  0
LINE
  8
0
 10
137
 20
131
 11
137
 21
151
  0
LINE
  8
0
 10
177
 20
146
 11
145
 21
146
  0
LINE
  8
0
 10
145
 20
146
 11
145
 21
131
  0
LINE
  8
0
 10
145
 20
131
 11
177
 21
131
  0
LINE
  8
0
 10
177
 20
131
 11
177
 21
146
  0
LINE
  8
0
 10
177
 20
128
 11
145
 21
128
  0
LINE
  8
0
 10
145
 20
128
 11
145
 21
108
  0
LINE
  8
0
 10
145
 20
108
 11
177
 21
108
  0
LINE
  8
0
 10
177
 20
108
 11
177
 21
128
  0
LINE
  8
0
 10
137
 20
128
 11
10
 21
128
  0
LINE
  8
0
 10
10
 20
128
 11
10
 21
108
  0
LINE
  8
0
 10
10
 20
108
 11
137
 21
108
  0
LINE
  8
0
 10
137
 20
108
 11
137
 21
128
  0
LINE
  8
0
 10
137
 20
105
 11
10
 21
105
  0
LINE
  8
0
 10
10
 20
105
 11
10
 21
10
  0
LINE
  8
0
 10
10
 20
10
 11
137
 21
10
  0
LINE
  8
0
 10
137
 20
10
 11
137
 21
105
  0
LINE
  8
0
 10
55
 20
71
 11
55
 21
100
  0
LINE
  8
0
 10
55
 20
100
 11
87
 21
100
  0
LINE
  8
0
 10
87
 20
100
 11
87
 21
71
  0
LINE
  8
0
 10
87
 20
71
 11
55
 21
71
  0
LINE
  8
0
 10
92
 20
15
 11
92
 21
100
  0
LINE
  8
0
 10
92
 20
100
 11
132
 21
100
  0
LINE
  8
0
 10
132
 20
100
 11
132
 21
15
  0
LINE
  8
0
 10
132
 20
15
 11
92
 21
15
  0
LINE
  8
0
 10
15
 20
15
 11
15
 21
100
  0
LINE
  8
0
 10
15
 20
100
 11
50
 21
100
  0
LINE
  8
0
 10
50
 20
100
 11
50
 21
15
  0
LINE
  8
0
 10
50
 20
15
 11
15
 21
15
  0
LINE
  8
0
 10
55
 20
49
 11
55
 21
66
  0
LINE
  8
0
 10
55
 20
66
 11
87
 21
66
  0
LINE
  8
0
 10
87
 20
66
 11
87
 21
49
  0
LINE
  8
0
 10
87
 20
49
 11
55
 21
49
  0
LINE
  8
0
 10
55
 20
15
 11
55
 21
44
  0
LINE
  8
0
 10
55
 20
44
 11
87
 21
44
  0
LINE
  8
0
 10
87
 20
44
 11
87
 21
15
  0
LINE
  8
0
 10
87
 20
15
 11
55
 21
15
  0
LINE
  8
0
 10
165
 20
100
 11
145
 21
100
  0
LINE
  8
0
 10
145
 20
100
 11
145
 21
15
  0
LINE
  8
0
 10
145
 20
15
 11
165
 21
15
  0
LINE
  8
0
 10
165
 20
15
 11
165
 21
100
  0
LINE
  8
0
 10
188
 20
100
 11
168
 21
100
  0
LINE
  8
0
 10
168
 20
100
 11
168
 21
15
  0
LINE
  8
0
 10
168
 20
15
 11
188
 21
15
  0
LINE
  8
0
 10
188
 20
15
 11
188
 21
100
  0
LINE
  8
0
 10
211
 20
100
 11
191
 21
100
  0
LINE
  8
0
 10
191
 20
100
 11
191
 21
15
  0
LINE
  8
0
 10
191
 20
15
 11
211
 21
15
  0
LINE
  8
0
 10
211
 20
15
 11
211
 21
100
  0
LINE
  8
0
 10
234
 20
100
 11
214
 21
100
  0
LINE
  8
0
 10
214
 20
100
 11
214
 21
15
  0
LINE
  8
0
 10
214
 20
15
 11
234
 21
15
  0
LINE
  8
0
 10
234
 20
15
 11
234
 21
100
  0
ENDSEC
  0
SECTION
  2
OBJECTS
  0
DICTIONARY
  0
ENDSEC
  0
EOF
