  0
SECTION
  2
BLOCKS
  0
ENDSEC
  0
SECTION
  2
ENTITIES
  0
LINE
  8
0
 10
362
 20
367
 11
328
 21
397
  0
LINE
  8
0
 10
328
 20
397
 11
294
 21
397
  0
LINE
  8
0
 10
294
 20
397
 11
294
 21
352
  0
LINE
  8
0
 10
294
 20
352
 11
362
 21
352
  0
LINE
  8
0
 10
362
 20
352
 11
362
 21
367
  0
LINE
  8
0
 10
291
 20
367
 11
257
 21
397
  0
LINE
  8
0
 10
257
 20
397
 11
223
 21
397
  0
LINE
  8
0
 10
223
 20
397
 11
223
 21
352
  0
LINE
  8
0
 10
223
 20
352
 11
291
 21
352
  0
LINE
  8
0
 10
291
 20
352
 11
291
 21
367
  0
LINE
  8
0
 10
220
 20
367
 11
186
 21
397
  0
LINE
  8
0
 10
186
 20
397
 11
152
 21
397
  0
LINE
  8
0
 10
152
 20
397
 11
152
 21
352
  0
LINE
  8
0
 10
152
 20
352
 11
220
 21
352
  0
LINE
  8
0
 10
220
 20
352
 11
220
 21
367
  0
LINE
  8
0
 10
149
 20
367
 11
115
 21
397
  0
LINE
  8
0
 10
115
 20
397
 11
81
 21
397
  0
LINE
  8
0
 10
81
 20
397
 11
81
 21
352
  0
LINE
  8
0
 10
81
 20
352
 11
149
 21
352
  0
LINE
  8
0
 10
149
 20
352
 11
149
 21
367
  0
LINE
  8
0
 10
78
 20
367
 11
44
 21
397
  0
LINE
  8
0
 10
44
 20
397
 11
10
 21
397
  0
LINE
  8
0
 10
10
 20
397
 11
10
 21
352
  0
LINE
  8
0
 10
10
 20
352
 11
78
 21
352
  0
LINE
  8
0
 10
78
 20
352
 11
78
 21
367
  0
LINE
  8
0
 10
362
 20
319
 11
328
 21
349
  0
LINE
  8
0
 10
328
 20
349
 11
294
 21
349
  0
LINE
  8
0
 10
294
 20
349
 11
294
 21
304
  0
LINE
  8
0
 10
294
 20
304
 11
362
 21
304
  0
LINE
  8
0
 10
362
 20
304
 11
362
 21
319
  0
LINE
  8
0
 10
291
 20
319
 11
257
 21
349
  0
LINE
  8
0
 10
257
 20
349
 11
223
 21
349
  0
LINE
  8
0
 10
223
 20
349
 11
223
 21
304
  0
LINE
  8
0
 10
223
 20
304
 11
291
 21
304
  0
LINE
  8
0
 10
291
 20
304
 11
291
 21
319
  0
LINE
  8
0
 10
220
 20
319
 11
186
 21
349
  0
LINE
  8
0
 10
186
 20
349
 11
152
 21
349
  0
LINE
  8
0
 10
152
 20
349
 11
152
 21
304
  0
LINE
  8
0
 10
152
 20
304
 11
220
 21
304
  0
LINE
  8
0
 10
220
 20
304
 11
220
 21
319
  0
LINE
  8
0
 10
149
 20
319
 11
115
 21
349
  0
LINE
  8
0
 10
115
 20
349
 11
81
 21
349
  0
LINE
  8
0
 10
81
 20
349
 11
81
 21
304
  0
LINE
  8
0
 10
81
 20
304
 11
149
 21
304
  0
LINE
  8
0
 10
149
 20
304
 11
149
 21
319
  0
LINE
  8
0
 10
78
 20
319
 11
44
 21
349
  0
LINE
  8
0
 10
44
 20
349
 11
10
 21
349
  0
LINE
  8
0
 10
10
 20
349
 11
10
 21
304
  0
LINE
  8
0
 10
10
 20
304
 11
78
 21
304
  0
LINE
  8
0
 10
78
 20
304
 11
78
 21
319
  0
LINE
  8
0
 10
372
 20
298
 11
240
 21
298
  0
LINE
  8
0
 10
240
 20
298
 11
240
 21
278
  0
LINE
  8
0
 10
240
 20
278
 11
372
 21
278
  0
LINE
  8
0
 10
372
 20
278
 11
372
 21
298
  0
LINE
  8
0
 10
142
 20
298
 11
10
 21
298
  0
LINE
  8
0
 10
10
 20
298
 11
10
 21
278
  0
LINE
  8
0
 10
10
 20
278
 11
142
 21
278
  0
LINE
  8
0
 10
142
 20
278
 11
142
 21
298
  0
LINE
  8
0
 10
407
 20
293
 11
375
 21
293
  0
LINE
  8
0
 10
375
 20
293
 11
375
 21
278
  0
LINE
  8
0
 10
375
 20
278
 11
407
 21
278
  0
LINE
  8
0
 10
407
 20
278
 11
407
 21
293
  0
LINE
  8
0
 10
177
 20
293
 11
145
 21
293
  0
LINE
  8
0
 10
145
 20
293
 11
145
 21
278
  0
LINE
  8
0
 10
145
 20
278
 11
177
 21
278
  0
LINE
  8
0
 10
177
 20
278
 11
177
 21
293
  0
LINE
  8
0
 10
407
 20
275
 11
375
 21
275
  0
LINE
  8
0
 10
375
 20
275
 11
375
 21
255
  0
LINE
  8
0
 10
375
 20
255
 11
407
 21
255
  0
LINE
  8
0
 10
407
 20
255
 11
407
 21
275
  0
LINE
  8
0
 10
372
 20
275
 11
240
 21
275
  0
LINE
  8
0
 10
240
 20
275
 11
240
 21
255
  0
LINE
  8
0
 10
240
 20
255
 11
372
 21
255
  0
LINE
  8
0
 10
372
 20
255
 11
372
 21
275
  0
LINE
  8
0
 10
177
 20
275
 11
145
 21
275
  0
LINE
  8
0
 10
145
 20
275
 11
145
 21
255
  0
LINE
  8
0
 10
145
 20
255
 11
177
 21
255
  0
LINE
  8
0
 10
177
 20
255
 11
177
 21
275
  0
LINE
  8
0
 10
142
 20
275
 11
10
 21
275
  0
LINE
  8
0
 10
10
 20
275
 11
10
 21
255
  0
LINE
  8
0
 10
10
 20
255
 11
142
 21
255
  0
LINE
  8
0
 10
142
 20
255
 11
142
 21
275
  0
LINE
  8
0
 10
142
 20
252
 11
10
 21
252
  0
LINE
  8
0
 10
10
 20
252
 11
10
 21
157
  0
LINE
  8
0
 10
10
 20
157
 11
142
 21
157
  0
LINE
  8
0
 10
142
 20
157
 11
142
 21
252
  0
LINE
  8
0
 10
55
 20
218
 11
55
 21
247
  0
LINE
  8
0
 10
55
 20
247
 11
87
 21
247
  0
LINE
  8
0
 10
87
 20
247
 11
87
 21
218
  0
LINE
  8
0
 10
87
 20
218
 11
55
 21
218
  0
LINE
  8
0
 10
92
 20
162
 11
92
 21
247
  0
LINE
  8
0
 10
92
 20
247
 11
137
 21
247
  0
LINE
  8
0
 10
137
 20
247
 11
137
 21
162
  0
LINE
  8
0
 10
137
 20
162
 11
92
 21
162
  0
LINE
  8
0
 10
15
 20
162
 11
15
 21
247
  0
LINE
  8
0
 10
15
 20
247
 11
50
 21
247
  0
LINE
  8
0
 10
50
 20
247
 11
50
 21
162
  0
LINE
  8
0
 10
50
 20
162
 11
15
 21
162
  0
LINE
  8
0
 10
55
 20
196
 11
55
 21
213
  0
LINE
  8
0
 10
55
 20
213
 11
87
 21
213
  0
LINE
  8
0
 10
87
 20
213
 11
87
 21
196
  0
LINE
  8
0
 10
87
 20
196
 11
55
 21
196
  0
LINE
  8
0
 10
55
 20
162
 11
55
 21
191
  0
LINE
  8
0
 10
55
 20
191
 11
87
 21
191
  0
LINE
  8
0
 10
87
 20
191
 11
87
 21
162
  0
LINE
  8
0
 10
87
 20
162
 11
55
 21
162
  0
LINE
  8
0
 10
372
 20
252
 11
240
 21
252
  0
LINE
  8
0
 10
240
 20
252
 11
240
 21
157
  0
LINE
  8
0
 10
240
 20
157
 11
372
 21
157
  0
LINE
  8
0
 10
372
 20
157
 11
372
 21
252
  0
LINE
  8
0
 10
245
 20
162
 11
245
 21
247
  0
LINE
  8
0
 10
245
 20
247
 11
280
 21
247
  0
LINE
  8
0
 10
280
 20
247
 11
280
 21
162
  0
LINE
  8
0
 10
280
 20
162
 11
245
 21
162
  0
LINE
  8
0
 10
285
 20
218
 11
285
 21
247
  0
LINE
  8
0
 10
285
 20
247
 11
317
 21
247
  0
LINE
  8
0
 10
317
 20
247
 11
317
 21
218
  0
LINE
  8
0
 10
317
 20
218
 11
285
 21
218
  0
LINE
  8
0
 10
322
 20
162
 11
322
 21
247
  0
LINE
  8
0
 10
322
 20
247
 11
367
 21
247
  0
LINE
  8
0
 10
367
 20
247
 11
367
 21
162
  0
LINE
  8
0
 10
367
 20
162
 11
322
 21
162
  0
LINE
  8
0
 10
285
 20
196
 11
285
 21
213
  0
LINE
  8
0
 10
285
 20
213
 11
317
 21
213
  0
LINE
  8
0
 10
317
 20
213
 11
317
 21
196
  0
LINE
  8
0
 10
317
 20
196
 11
285
 21
196
  0
LINE
  8
0
 10
285
 20
162
 11
285
 21
191
  0
LINE
  8
0
 10
285
 20
191
 11
317
 21
191
  0
LINE
  8
0
 10
317
 20
191
 11
317
 21
162
  0
LINE
  8
0
 10
317
 20
162
 11
285
 21
162
  0
LINE
  8
0
 10
395
 20
247
 11
375
 21
247
  0
LINE
  8
0
 10
375
 20
247
 11
375
 21
162
  0
LINE
  8
0
 10
375
 20
162
 11
395
 21
162
  0
LINE
  8
0
 10
395
 20
162
 11
395
 21
247
  0
LINE
  8
0
 10
418
 20
247
 11
398
 21
247
  0
LINE
  8
0
 10
398
 20
247
 11
398
 21
162
  0
LINE
  8
0
 10
398
 20
162
 11
418
 21
162
  0
LINE
  8
0
 10
418
 20
162
 11
418
 21
247
  0
LINE
  8
0
 10
234
 20
247
 11
214
 21
247
  0
LINE
  8
0
 10
214
 20
247
 11
214
 21
162
  0
LINE
  8
0
 10
214
 20
162
 11
234
 21
162
  0
LINE
  8
0
 10
234
 20
162
 11
234
 21
247
  0
LINE
  8
0
 10
211
 20
247
 11
191
 21
247
  0
LINE
  8
0
 10
191
 20
247
 11
191
 21
162
  0
LINE
  8
0
 10
191
 20
162
 11
211
 21
162
  0
LINE
  8
0
 10
211
 20
162
 11
211
 21
247
  0
LINE
  8
0
 10
188
 20
247
 11
168
 21
247
  0
LINE
  8
0
 10
168
 20
247
 11
168
 21
162
  0
LINE
  8
0
 10
168
 20
162
 11
188
 21
162
  0
LINE
  8
0
 10
188
 20
162
 11
188
 21
247
  0
LINE
  8
0
 10
165
 20
247
 11
145
 21
247
  0
LINE
  8
0
 10
145
 20
247
 11
145
 21
162
  0
LINE
  8
0
 10
145
 20
162
 11
165
 21
162
  0
LINE
  8
0
 10
165
 20
162
 11
165
 21
247
  0
LINE
  8
0
 10
441
 20
247
 11
421
 21
247
  0
LINE
  8
0
 10
421
 20
247
 11
421
 21
162
  0
LINE
  8
0
 10
421
 20
162
 11
441
 21
162
  0
LINE
  8
0
 10
441
 20
162
 11
441
 21
247
  0
LINE
  8
0
 10
464
 20
247
 11
444
 21
247
  0
LINE
  8
0
 10
444
 20
247
 11
444
 21
162
  0
LINE
  8
0
 10
444
 20
162
 11
464
 21
162
  0
LINE
  8
0
 10
464
 20
162
 11
464
 21
247
  0
LINE
  8
0
 10
372
 20
151
 11
240
 21
151
  0
LINE
  8
0
 10
240
 20
151
 11
240
 21
131
  0
LINE
  8
0
 10
240
 20
131
 11
372
 21
131
  0
LINE
  8
0
 10
372
 20
131
 11
372
 21
151
  0
LINE
  8
0
 10
142
 20
151
 11
10
 21
151
  0
LINE
  8
0
 10
10
 20
151
 11
10
 21
131
  0
LINE
  8
0
 10
10
 20
131
 11
142
 21
131
  0
LINE
  8
0
 10
142
 20
131
 11
142
 21
151
  0
LINE
  8
0
 10
177
 20
146
 11
145
 21
146
  0
LINE
  8
0
 10
145
 20
146
 11
145
 21
131
  0
LINE
  8
0
 10
145
 20
131
 11
177
 21
131
  0
LINE
  8
0
 10
177
 20
131
 11
177
 21
146
  0
LINE
  8
0
 10
407
 20
146
 11
375
 21
146
  0
LINE
  8
0
 10
375
 20
146
 11
375
 21
131
  0
LINE
  8
0
 10
375
 20
131
 11
407
 21
131
  0
LINE
  8
0
 10
407
 20
131
 11
407
 21
146
  0
LINE
  8
0
 10
142
 20
128
 11
10
 21
128
  0
LINE
  8
0
 10
10
 20
128
 11
10
 21
108
  0
LINE
  8
0
 10
10
 20
108
 11
142
 21
108
  0
LINE
  8
0
 10
142
 20
108
 11
142
 21
128
  0
LINE
  8
0
 10
177
 20
128
 11
145
 21
128
  0
LINE
  8
0
 10
145
 20
128
 11
145
 21
108
  0
LINE
  8
0
 10
145
 20
108
 11
177
 21
108
  0
LINE
  8
0
 10
177
 20
108
 11
177
 21
128
  0
LINE
  8
0
 10
372
 20
128
 11
240
 21
128
  0
LINE
  8
0
 10
240
 20
128
 11
240
 21
108
  0
LINE
  8
0
 10
240
 20
108
 11
372
 21
108
  0
LINE
  8
0
 10
372
 20
108
 11
372
 21
128
  0
LINE
  8
0
 10
407
 20
128
 11
375
 21
128
  0
LINE
  8
0
 10
375
 20
128
 11
375
 21
108
  0
LINE
  8
0
 10
375
 20
108
 11
407
 21
108
  0
LINE
  8
0
 10
407
 20
108
 11
407
 21
128
  0
LINE
  8
0
 10
142
 20
105
 11
10
 21
105
  0
LINE
  8
0
 10
10
 20
105
 11
10
 21
10
  0
LINE
  8
0
 10
10
 20
10
 11
142
 21
10
  0
LINE
  8
0
 10
142
 20
10
 11
142
 21
105
  0
LINE
  8
0
 10
15
 20
15
 11
15
 21
100
  0
LINE
  8
0
 10
15
 20
100
 11
50
 21
100
  0
LINE
  8
0
 10
50
 20
100
 11
50
 21
15
  0
LINE
  8
0
 10
50
 20
15
 11
15
 21
15
  0
LINE
  8
0
 10
55
 20
71
 11
55
 21
100
  0
LINE
  8
0
 10
55
 20
100
 11
87
 21
100
  0
LINE
  8
0
 10
87
 20
100
 11
87
 21
71
  0
LINE
  8
0
 10
87
 20
71
 11
55
 21
71
  0
LINE
  8
0
 10
92
 20
15
 11
92
 21
100
  0
LINE
  8
0
 10
92
 20
100
 11
137
 21
100
  0
LINE
  8
0
 10
137
 20
100
 11
137
 21
15
  0
LINE
  8
0
 10
137
 20
15
 11
92
 21
15
  0
LINE
  8
0
 10
55
 20
49
 11
55
 21
66
  0
LINE
  8
0
 10
55
 20
66
 11
87
 21
66
  0
LINE
  8
0
 10
87
 20
66
 11
87
 21
49
  0
LINE
  8
0
 10
87
 20
49
 11
55
 21
49
  0
LINE
  8
0
 10
55
 20
15
 11
55
 21
44
  0
LINE
  8
0
 10
55
 20
44
 11
87
 21
44
  0
LINE
  8
0
 10
87
 20
44
 11
87
 21
15
  0
LINE
  8
0
 10
87
 20
15
 11
55
 21
15
  0
LINE
  8
0
 10
372
 20
105
 11
240
 21
105
  0
LINE
  8
0
 10
240
 20
105
 11
240
 21
10
  0
LINE
  8
0
 10
240
 20
10
 11
372
 21
10
  0
LINE
  8
0
 10
372
 20
10
 11
372
 21
105
  0
LINE
  8
0
 10
245
 20
15
 11
245
 21
100
  0
LINE
  8
0
 10
245
 20
100
 11
280
 21
100
  0
LINE
  8
0
 10
280
 20
100
 11
280
 21
15
  0
LINE
  8
0
 10
280
 20
15
 11
245
 21
15
  0
LINE
  8
0
 10
285
 20
71
 11
285
 21
100
  0
LINE
  8
0
 10
285
 20
100
 11
317
 21
100
  0
LINE
  8
0
 10
317
 20
100
 11
317
 21
71
  0
LINE
  8
0
 10
317
 20
71
 11
285
 21
71
  0
LINE
  8
0
 10
322
 20
15
 11
322
 21
100
  0
LINE
  8
0
 10
322
 20
100
 11
367
 21
100
  0
LINE
  8
0
 10
367
 20
100
 11
367
 21
15
  0
LINE
  8
0
 10
367
 20
15
 11
322
 21
15
  0
LINE
  8
0
 10
285
 20
49
 11
285
 21
66
  0
LINE
  8
0
 10
285
 20
66
 11
317
 21
66
  0
LINE
  8
0
 10
317
 20
66
 11
317
 21
49
  0
LINE
  8
0
 10
317
 20
49
 11
285
 21
49
  0
LINE
  8
0
 10
285
 20
15
 11
285
 21
44
  0
LINE
  8
0
 10
285
 20
44
 11
317
 21
44
  0
LINE
  8
0
 10
317
 20
44
 11
317
 21
15
  0
LINE
  8
0
 10
317
 20
15
 11
285
 21
15
  0
LINE
  8
0
 10
188
 20
100
 11
168
 21
100
  0
LINE
  8
0
 10
168
 20
100
 11
168
 21
15
  0
LINE
  8
0
 10
168
 20
15
 11
188
 21
15
  0
LINE
  8
0
 10
188
 20
15
 11
188
 21
100
  0
LINE
  8
0
 10
464
 20
100
 11
444
 21
100
  0
LINE
  8
0
 10
444
 20
100
 11
444
 21
15
  0
LINE
  8
0
 10
444
 20
15
 11
464
 21
15
  0
LINE
  8
0
 10
464
 20
15
 11
464
 21
100
  0
LINE
  8
0
 10
441
 20
100
 11
421
 21
100
  0
LINE
  8
0
 10
421
 20
100
 11
421
 21
15
  0
LINE
  8
0
 10
421
 20
15
 11
441
 21
15
  0
LINE
  8
0
 10
441
 20
15
 11
441
 21
100
  0
LINE
  8
0
 10
165
 20
100
 11
145
 21
100
  0
LINE
  8
0
 10
145
 20
100
 11
145
 21
15
  0
LINE
  8
0
 10
145
 20
15
 11
165
 21
15
  0
LINE
  8
0
 10
165
 20
15
 11
165
 21
100
  0
LINE
  8
0
 10
211
 20
100
 11
191
 21
100
  0
LINE
  8
0
 10
191
 20
100
 11
191
 21
15
  0
LINE
  8
0
 10
191
 20
15
 11
211
 21
15
  0
LINE
  8
0
 10
211
 20
15
 11
211
 21
100
  0
LINE
  8
0
 10
234
 20
100
 11
214
 21
100
  0
LINE
  8
0
 10
214
 20
100
 11
214
 21
15
  0
LINE
  8
0
 10
214
 20
15
 11
234
 21
15
  0
LINE
  8
0
 10
234
 20
15
 11
234
 21
100
  0
LINE
  8
0
 10
418
 20
100
 11
398
 21
100
  0
LINE
  8
0
 10
398
 20
100
 11
398
 21
15
  0
LINE
  8
0
 10
398
 20
15
 11
418
 21
15
  0
LINE
  8
0
 10
418
 20
15
 11
418
 21
100
  0
LINE
  8
0
 10
395
 20
100
 11
375
 21
100
  0
LINE
  8
0
 10
375
 20
100
 11
375
 21
15
  0
LINE
  8
0
 10
375
 20
15
 11
395
 21
15
  0
LINE
  8
0
 10
395
 20
15
 11
395
 21
100
  0
ENDSEC
  0
SECTION
  2
OBJECTS
  0
DICTIONARY
  0
ENDSEC
  0
EOF
