solid OpenSCAD_Model
  facet normal 0.866026 0.499998 0
    outer loop
      vertex 121.6 44.2 2
      vertex 120.8 45.5856 0
      vertex 120.8 45.5856 2
    endloop
  endfacet
  facet normal 0.866026 0.499998 0
    outer loop
      vertex 120.8 45.5856 0
      vertex 121.6 44.2 2
      vertex 121.6 44.2 0
    endloop
  endfacet
  facet normal 0 0 -1
    outer loop
      vertex 120.8 -1.38564 0
      vertex 121.6 44.2 0
      vertex 121.6 0 0
    endloop
  endfacet
  facet normal 0 0 -1
    outer loop
      vertex 120.8 -1.38564 0
      vertex 120.8 45.5856 0
      vertex 121.6 44.2 0
    endloop
  endfacet
  facet normal 0 0 -1
    outer loop
      vertex -0.799999 -1.38564 0
      vertex 120.8 45.5856 0
      vertex 120.8 -1.38564 0
    endloop
  endfacet
  facet normal 0 0 -1
    outer loop
      vertex -0.799999 -1.38564 0
      vertex -0.799999 45.5856 0
      vertex 120.8 45.5856 0
    endloop
  endfacet
  facet normal 0 0 -1
    outer loop
      vertex -1.6 0 0
      vertex -0.799999 45.5856 0
      vertex -0.799999 -1.38564 0
    endloop
  endfacet
  facet normal 0 0 -1
    outer loop
      vertex -0.799999 45.5856 0
      vertex -1.6 0 0
      vertex -1.6 44.2 0
    endloop
  endfacet
  facet normal 0.866027 -0.499998 0
    outer loop
      vertex 120.8 -1.38564 2
      vertex 121.6 0 0
      vertex 121.6 0 2
    endloop
  endfacet
  facet normal 0.866027 -0.499998 0
    outer loop
      vertex 121.6 0 0
      vertex 120.8 -1.38564 2
      vertex 120.8 -1.38564 0
    endloop
  endfacet
  facet normal 0 1 -0
    outer loop
      vertex 120.8 45.5856 0
      vertex -0.799999 45.5856 2
      vertex 120.8 45.5856 2
    endloop
  endfacet
  facet normal 0 1 0
    outer loop
      vertex -0.799999 45.5856 2
      vertex 120.8 45.5856 0
      vertex -0.799999 45.5856 0
    endloop
  endfacet
  facet normal -0.866025 -0.5 0
    outer loop
      vertex -0.799999 -1.38564 0
      vertex -1.6 0 2
      vertex -1.6 0 0
    endloop
  endfacet
  facet normal -0.866025 -0.5 0
    outer loop
      vertex -1.6 0 2
      vertex -0.799999 -1.38564 0
      vertex -0.799999 -1.38564 2
    endloop
  endfacet
  facet normal 1 -0 0
    outer loop
      vertex 121.6 0 2
      vertex 121.6 44.2 0
      vertex 121.6 44.2 2
    endloop
  endfacet
  facet normal 1 0 0
    outer loop
      vertex 121.6 44.2 0
      vertex 121.6 0 2
      vertex 121.6 0 0
    endloop
  endfacet
  facet normal -0.866025 0.5 0
    outer loop
      vertex -1.6 44.2 0
      vertex -0.799999 45.5856 2
      vertex -0.799999 45.5856 0
    endloop
  endfacet
  facet normal -0.866025 0.5 0
    outer loop
      vertex -0.799999 45.5856 2
      vertex -1.6 44.2 0
      vertex -1.6 44.2 2
    endloop
  endfacet
  facet normal 0 -1 0
    outer loop
      vertex -0.799999 -1.38564 0
      vertex 120.8 -1.38564 2
      vertex -0.799999 -1.38564 2
    endloop
  endfacet
  facet normal 0 -1 -0
    outer loop
      vertex 120.8 -1.38564 2
      vertex -0.799999 -1.38564 0
      vertex 120.8 -1.38564 0
    endloop
  endfacet
  facet normal 0 0 1
    outer loop
      vertex 119.8 44 2
      vertex 121.6 44.2 2
      vertex 120.8 45.5856 2
    endloop
  endfacet
  facet normal 0 0 1
    outer loop
      vertex 121.6 44.2 2
      vertex 119.8 44 2
      vertex 121.6 0 2
    endloop
  endfacet
  facet normal -0 0 1
    outer loop
      vertex 119.8 0.2 2
      vertex 121.6 0 2
      vertex 119.8 44 2
    endloop
  endfacet
  facet normal 0 0 1
    outer loop
      vertex 120.8 45.5856 2
      vertex 0.2 44 2
      vertex 119.8 44 2
    endloop
  endfacet
  facet normal -0 0 1
    outer loop
      vertex -1.6 44.2 2
      vertex 0.2 44 2
      vertex -0.799999 45.5856 2
    endloop
  endfacet
  facet normal -0 0 1
    outer loop
      vertex -0.799999 45.5856 2
      vertex 0.2 44 2
      vertex 120.8 45.5856 2
    endloop
  endfacet
  facet normal 0 0 1
    outer loop
      vertex 121.6 0 2
      vertex 119.8 0.2 2
      vertex 120.8 -1.38564 2
    endloop
  endfacet
  facet normal -0 0 1
    outer loop
      vertex 0.2 0.2 2
      vertex 120.8 -1.38564 2
      vertex 119.8 0.2 2
    endloop
  endfacet
  facet normal 0 0 1
    outer loop
      vertex 0.2 0.2 2
      vertex -0.799999 -1.38564 2
      vertex 120.8 -1.38564 2
    endloop
  endfacet
  facet normal 0 0 1
    outer loop
      vertex 0.2 44 2
      vertex -1.6 44.2 2
      vertex 0.2 0.2 2
    endloop
  endfacet
  facet normal 0 0 1
    outer loop
      vertex -1.6 0 2
      vertex 0.2 0.2 2
      vertex -1.6 44.2 2
    endloop
  endfacet
  facet normal 0 0 1
    outer loop
      vertex 0.2 0.2 2
      vertex -1.6 0 2
      vertex -0.799999 -1.38564 2
    endloop
  endfacet
  facet normal -1 0 0
    outer loop
      vertex -1.6 0 0
      vertex -1.6 44.2 2
      vertex -1.6 44.2 0
    endloop
  endfacet
  facet normal -1 -0 0
    outer loop
      vertex -1.6 44.2 2
      vertex -1.6 0 0
      vertex -1.6 0 2
    endloop
  endfacet
  facet normal -1 0 0
    outer loop
      vertex 0.2 0.2 2
      vertex 0.2 44 13
      vertex 0.2 44 2
    endloop
  endfacet
  facet normal -1 -0 0
    outer loop
      vertex 0.2 44 13
      vertex 0.2 0.2 2
      vertex 0.2 0.2 13
    endloop
  endfacet
  facet normal 0 0 1
    outer loop
      vertex 119.8 44 13
      vertex 118.2 42.4 13
      vertex 119.8 0.2 13
    endloop
  endfacet
  facet normal 0 0 1
    outer loop
      vertex 119.8 44 13
      vertex 1.8 42.4 13
      vertex 118.2 42.4 13
    endloop
  endfacet
  facet normal 0 0 1
    outer loop
      vertex 1.8 42.4 13
      vertex 0.2 44 13
      vertex 1.8 1.8 13
    endloop
  endfacet
  facet normal -0 0 1
    outer loop
      vertex 0.2 44 13
      vertex 1.8 42.4 13
      vertex 119.8 44 13
    endloop
  endfacet
  facet normal -0 0 1
    outer loop
      vertex 118.2 1.8 13
      vertex 119.8 0.2 13
      vertex 118.2 42.4 13
    endloop
  endfacet
  facet normal -0 0 1
    outer loop
      vertex 1.8 1.8 13
      vertex 119.8 0.2 13
      vertex 118.2 1.8 13
    endloop
  endfacet
  facet normal 0 0 1
    outer loop
      vertex 1.8 1.8 13
      vertex 0.2 0.2 13
      vertex 119.8 0.2 13
    endloop
  endfacet
  facet normal 0 0 1
    outer loop
      vertex 0.2 0.2 13
      vertex 1.8 1.8 13
      vertex 0.2 44 13
    endloop
  endfacet
  facet normal 1 -0 0
    outer loop
      vertex 119.8 0.2 13
      vertex 119.8 44 2
      vertex 119.8 44 13
    endloop
  endfacet
  facet normal 1 0 0
    outer loop
      vertex 119.8 44 2
      vertex 119.8 0.2 13
      vertex 119.8 0.2 2
    endloop
  endfacet
  facet normal 0 -1 0
    outer loop
      vertex 0.2 0.2 2
      vertex 119.8 0.2 13
      vertex 0.2 0.2 13
    endloop
  endfacet
  facet normal 0 -1 -0
    outer loop
      vertex 119.8 0.2 13
      vertex 0.2 0.2 2
      vertex 119.8 0.2 2
    endloop
  endfacet
  facet normal 0 1 -0
    outer loop
      vertex 119.8 44 2
      vertex 0.2 44 13
      vertex 119.8 44 13
    endloop
  endfacet
  facet normal 0 1 0
    outer loop
      vertex 0.2 44 13
      vertex 119.8 44 2
      vertex 0.2 44 2
    endloop
  endfacet
  facet normal 1 -0 0
    outer loop
      vertex 1.8 1.8 13
      vertex 1.8 42.4 1
      vertex 1.8 42.4 13
    endloop
  endfacet
  facet normal 1 0 0
    outer loop
      vertex 1.8 42.4 1
      vertex 1.8 1.8 13
      vertex 1.8 1.8 1
    endloop
  endfacet
  facet normal -1 0 0
    outer loop
      vertex 118.2 1.8 1
      vertex 118.2 42.4 13
      vertex 118.2 42.4 1
    endloop
  endfacet
  facet normal -1 -0 0
    outer loop
      vertex 118.2 42.4 13
      vertex 118.2 1.8 1
      vertex 118.2 1.8 13
    endloop
  endfacet
  facet normal -0 0 1
    outer loop
      vertex 1.8 42.4 1
      vertex 118.2 1.8 1
      vertex 118.2 42.4 1
    endloop
  endfacet
  facet normal 0 0 1
    outer loop
      vertex 118.2 1.8 1
      vertex 1.8 42.4 1
      vertex 1.8 1.8 1
    endloop
  endfacet
  facet normal 0 1 -0
    outer loop
      vertex 118.2 1.8 1
      vertex 1.8 1.8 13
      vertex 118.2 1.8 13
    endloop
  endfacet
  facet normal 0 1 0
    outer loop
      vertex 1.8 1.8 13
      vertex 118.2 1.8 1
      vertex 1.8 1.8 1
    endloop
  endfacet
  facet normal 0 -1 0
    outer loop
      vertex 1.8 42.4 1
      vertex 118.2 42.4 13
      vertex 1.8 42.4 13
    endloop
  endfacet
  facet normal 0 -1 -0
    outer loop
      vertex 118.2 42.4 13
      vertex 1.8 42.4 1
      vertex 118.2 42.4 1
    endloop
  endfacet
endsolid OpenSCAD_Model
