solid OpenSCAD_Model
  facet normal 1 -0 0
    outer loop
      vertex 102.4 0 24.1
      vertex 102.4 86.8 0
      vertex 102.4 86.8 24.1
    endloop
  endfacet
  facet normal 1 0 0
    outer loop
      vertex 102.4 86.8 0
      vertex 102.4 0 24.1
      vertex 102.4 0 0
    endloop
  endfacet
  facet normal 0.866024 -0.500002 0
    outer loop
      vertex 101.6 -1.38564 24.1
      vertex 102.4 0 0
      vertex 102.4 0 24.1
    endloop
  endfacet
  facet normal 0.866024 -0.500002 0
    outer loop
      vertex 102.4 0 0
      vertex 101.6 -1.38564 24.1
      vertex 101.6 -1.38564 0
    endloop
  endfacet
  facet normal 0 -1 0
    outer loop
      vertex -0.799999 -1.38564 0
      vertex 101.6 -1.38564 24.1
      vertex -0.799999 -1.38564 24.1
    endloop
  endfacet
  facet normal 0 -1 -0
    outer loop
      vertex 101.6 -1.38564 24.1
      vertex -0.799999 -1.38564 0
      vertex 101.6 -1.38564 0
    endloop
  endfacet
  facet normal -1 0 0
    outer loop
      vertex -1.6 0 0
      vertex -1.6 86.8 24.1
      vertex -1.6 86.8 0
    endloop
  endfacet
  facet normal -1 -0 0
    outer loop
      vertex -1.6 86.8 24.1
      vertex -1.6 0 0
      vertex -1.6 0 24.1
    endloop
  endfacet
  facet normal 0.866024 0.500003 0
    outer loop
      vertex 102.4 86.8 24.1
      vertex 101.6 88.1856 0
      vertex 101.6 88.1856 24.1
    endloop
  endfacet
  facet normal 0.866024 0.500003 0
    outer loop
      vertex 101.6 88.1856 0
      vertex 102.4 86.8 24.1
      vertex 102.4 86.8 0
    endloop
  endfacet
  facet normal -0.866025 0.500002 0
    outer loop
      vertex -1.6 86.8 0
      vertex -0.799999 88.1856 24.1
      vertex -0.799999 88.1856 0
    endloop
  endfacet
  facet normal -0.866025 0.500002 0
    outer loop
      vertex -0.799999 88.1856 24.1
      vertex -1.6 86.8 0
      vertex -1.6 86.8 24.1
    endloop
  endfacet
  facet normal 0 0 1
    outer loop
      vertex 100.8 86.8 24.1
      vertex 102.4 86.8 24.1
      vertex 101.6 88.1856 24.1
    endloop
  endfacet
  facet normal 0 0 1
    outer loop
      vertex 102.4 86.8 24.1
      vertex 100.8 86.8 24.1
      vertex 102.4 0 24.1
    endloop
  endfacet
  facet normal 0 0 1
    outer loop
      vertex 100.8 0 24.1
      vertex 102.4 0 24.1
      vertex 100.8 86.8 24.1
    endloop
  endfacet
  facet normal 0 0 1
    outer loop
      vertex 101.6 88.1856 24.1
      vertex 0 86.8 24.1
      vertex 100.8 86.8 24.1
    endloop
  endfacet
  facet normal 0 0 1
    outer loop
      vertex -1.6 86.8 24.1
      vertex 0 86.8 24.1
      vertex -0.799999 88.1856 24.1
    endloop
  endfacet
  facet normal -0 0 1
    outer loop
      vertex -0.799999 88.1856 24.1
      vertex 0 86.8 24.1
      vertex 101.6 88.1856 24.1
    endloop
  endfacet
  facet normal 0 0 1
    outer loop
      vertex 102.4 0 24.1
      vertex 100.8 0 24.1
      vertex 101.6 -1.38564 24.1
    endloop
  endfacet
  facet normal -0 0 1
    outer loop
      vertex 0 0 24.1
      vertex 101.6 -1.38564 24.1
      vertex 100.8 0 24.1
    endloop
  endfacet
  facet normal 0 0 1
    outer loop
      vertex 0 0 24.1
      vertex -0.799999 -1.38564 24.1
      vertex 101.6 -1.38564 24.1
    endloop
  endfacet
  facet normal 0 0 1
    outer loop
      vertex 0 86.8 24.1
      vertex -1.6 86.8 24.1
      vertex 0 0 24.1
    endloop
  endfacet
  facet normal 0 0 1
    outer loop
      vertex -1.6 0 24.1
      vertex 0 0 24.1
      vertex -1.6 86.8 24.1
    endloop
  endfacet
  facet normal 0 0 1
    outer loop
      vertex 0 0 24.1
      vertex -1.6 0 24.1
      vertex -0.799999 -1.38564 24.1
    endloop
  endfacet
  facet normal 0 0 -1
    outer loop
      vertex 34.1711 29.1711 0
      vertex 69.6289 29.1711 0
      vertex 35.4147 27.6557 0
    endloop
  endfacet
  facet normal 0 0 -1
    outer loop
      vertex 68.3853 59.1443 0
      vertex 36.9079 62.7491 0
      vertex 37.1 64.7 0
    endloop
  endfacet
  facet normal 0 0 -1
    outer loop
      vertex 69.6289 29.1711 0
      vertex 34.1711 29.1711 0
      vertex 69.6289 57.6289 0
    endloop
  endfacet
  facet normal 0 0 -1
    outer loop
      vertex 68.3853 59.1443 0
      vertex 36.3388 60.8732 0
      vertex 36.9079 62.7491 0
    endloop
  endfacet
  facet normal 0 0 -1
    outer loop
      vertex 34.1711 57.6289 0
      vertex 69.6289 57.6289 0
      vertex 34.1711 29.1711 0
    endloop
  endfacet
  facet normal 0 0 -1
    outer loop
      vertex 68.3853 59.1443 0
      vertex 35.4147 59.1443 0
      vertex 36.3388 60.8732 0
    endloop
  endfacet
  facet normal 0 0 -1
    outer loop
      vertex 69.6289 57.6289 0
      vertex 34.1711 57.6289 0
      vertex 68.3853 59.1443 0
    endloop
  endfacet
  facet normal -0 0 -1
    outer loop
      vertex 68.3853 59.1443 0
      vertex 34.1711 57.6289 0
      vertex 35.4147 59.1443 0
    endloop
  endfacet
  facet normal 0 0 -1
    outer loop
      vertex 32.6557 30.4147 0
      vertex 34.1711 57.6289 0
      vertex 34.1711 29.1711 0
    endloop
  endfacet
  facet normal 0 0 -1
    outer loop
      vertex 32.6557 30.4147 0
      vertex 32.6557 56.3853 0
      vertex 34.1711 57.6289 0
    endloop
  endfacet
  facet normal 0 0 -1
    outer loop
      vertex 30.9268 31.3388 0
      vertex 32.6557 56.3853 0
      vertex 32.6557 30.4147 0
    endloop
  endfacet
  facet normal 0 0 -1
    outer loop
      vertex 30.9268 31.3388 0
      vertex 30.9268 55.4612 0
      vertex 32.6557 56.3853 0
    endloop
  endfacet
  facet normal 0 0 -1
    outer loop
      vertex 29.0509 31.9079 0
      vertex 30.9268 55.4612 0
      vertex 30.9268 31.3388 0
    endloop
  endfacet
  facet normal 0 0 -1
    outer loop
      vertex 29.0509 31.9079 0
      vertex 29.0509 54.8921 0
      vertex 30.9268 55.4612 0
    endloop
  endfacet
  facet normal 0 0 -1
    outer loop
      vertex 27.1 32.1 0
      vertex 29.0509 54.8921 0
      vertex 29.0509 31.9079 0
    endloop
  endfacet
  facet normal 0 0 -1
    outer loop
      vertex 27.1 32.1 0
      vertex 27.1 54.7 0
      vertex 29.0509 54.8921 0
    endloop
  endfacet
  facet normal 0 0 -1
    outer loop
      vertex 25.1491 31.9079 0
      vertex 27.1 54.7 0
      vertex 27.1 32.1 0
    endloop
  endfacet
  facet normal 0 0 -1
    outer loop
      vertex 25.1491 31.9079 0
      vertex 25.1491 54.8921 0
      vertex 27.1 54.7 0
    endloop
  endfacet
  facet normal 0 0 -1
    outer loop
      vertex 23.2732 31.3388 0
      vertex 25.1491 54.8921 0
      vertex 25.1491 31.9079 0
    endloop
  endfacet
  facet normal 0 0 -1
    outer loop
      vertex 23.2732 31.3388 0
      vertex 23.2732 55.4612 0
      vertex 25.1491 54.8921 0
    endloop
  endfacet
  facet normal 0 0 -1
    outer loop
      vertex 21.5443 30.4147 0
      vertex 23.2732 55.4612 0
      vertex 23.2732 31.3388 0
    endloop
  endfacet
  facet normal 0 0 -1
    outer loop
      vertex 21.5443 30.4147 0
      vertex 21.5443 56.3853 0
      vertex 23.2732 55.4612 0
    endloop
  endfacet
  facet normal 0 0 -1
    outer loop
      vertex 20.0289 29.1711 0
      vertex 21.5443 56.3853 0
      vertex 21.5443 30.4147 0
    endloop
  endfacet
  facet normal 0 0 -1
    outer loop
      vertex 20.0289 29.1711 0
      vertex 20.0289 57.6289 0
      vertex 21.5443 56.3853 0
    endloop
  endfacet
  facet normal 0 0 -1
    outer loop
      vertex 18.7853 27.6557 0
      vertex 20.0289 57.6289 0
      vertex 20.0289 29.1711 0
    endloop
  endfacet
  facet normal 0 0 -1
    outer loop
      vertex 18.7853 27.6557 0
      vertex 18.7853 59.1443 0
      vertex 20.0289 57.6289 0
    endloop
  endfacet
  facet normal 0 0 -1
    outer loop
      vertex 17.8612 25.9268 0
      vertex 18.7853 59.1443 0
      vertex 18.7853 27.6557 0
    endloop
  endfacet
  facet normal 0 0 -1
    outer loop
      vertex 17.8612 25.9268 0
      vertex 17.8612 60.8732 0
      vertex 18.7853 59.1443 0
    endloop
  endfacet
  facet normal 0 0 -1
    outer loop
      vertex -1.6 0 0
      vertex 17.8612 25.9268 0
      vertex 17.2921 24.0509 0
    endloop
  endfacet
  facet normal -0 0 -1
    outer loop
      vertex 17.8612 25.9268 0
      vertex -1.6 0 0
      vertex 17.8612 60.8732 0
    endloop
  endfacet
  facet normal 0 0 -1
    outer loop
      vertex -1.6 0 0
      vertex 17.2921 24.0509 0
      vertex 17.1 22.1 0
    endloop
  endfacet
  facet normal 0 0 -1
    outer loop
      vertex -1.6 86.8 0
      vertex 17.8612 60.8732 0
      vertex -1.6 0 0
    endloop
  endfacet
  facet normal 0 0 -1
    outer loop
      vertex 102.4 0 0
      vertex 85.9388 25.9268 0
      vertex 102.4 86.8 0
    endloop
  endfacet
  facet normal 0 0 -1
    outer loop
      vertex 102.4 86.8 0
      vertex 86.5079 62.7491 0
      vertex 86.7 64.7 0
    endloop
  endfacet
  facet normal 0 0 -1
    outer loop
      vertex 85.9388 60.8732 0
      vertex 102.4 86.8 0
      vertex 85.9388 25.9268 0
    endloop
  endfacet
  facet normal 0 0 -1
    outer loop
      vertex 102.4 86.8 0
      vertex 85.9388 60.8732 0
      vertex 86.5079 62.7491 0
    endloop
  endfacet
  facet normal 0 0 -1
    outer loop
      vertex 85.0147 27.6557 0
      vertex 85.9388 60.8732 0
      vertex 85.9388 25.9268 0
    endloop
  endfacet
  facet normal 0 0 -1
    outer loop
      vertex 85.0147 27.6557 0
      vertex 85.0147 59.1443 0
      vertex 85.9388 60.8732 0
    endloop
  endfacet
  facet normal 0 0 -1
    outer loop
      vertex 83.7711 29.1711 0
      vertex 85.0147 59.1443 0
      vertex 85.0147 27.6557 0
    endloop
  endfacet
  facet normal 0 0 -1
    outer loop
      vertex 83.7711 29.1711 0
      vertex 83.7711 57.6289 0
      vertex 85.0147 59.1443 0
    endloop
  endfacet
  facet normal 0 0 -1
    outer loop
      vertex 82.2557 30.4147 0
      vertex 83.7711 57.6289 0
      vertex 83.7711 29.1711 0
    endloop
  endfacet
  facet normal 0 0 -1
    outer loop
      vertex 82.2557 30.4147 0
      vertex 82.2557 56.3853 0
      vertex 83.7711 57.6289 0
    endloop
  endfacet
  facet normal 0 0 -1
    outer loop
      vertex 80.5268 31.3388 0
      vertex 82.2557 56.3853 0
      vertex 82.2557 30.4147 0
    endloop
  endfacet
  facet normal 0 0 -1
    outer loop
      vertex 80.5268 31.3388 0
      vertex 80.5268 55.4612 0
      vertex 82.2557 56.3853 0
    endloop
  endfacet
  facet normal 0 0 -1
    outer loop
      vertex 78.6509 31.9079 0
      vertex 80.5268 55.4612 0
      vertex 80.5268 31.3388 0
    endloop
  endfacet
  facet normal 0 0 -1
    outer loop
      vertex 78.6509 31.9079 0
      vertex 78.6509 54.8921 0
      vertex 80.5268 55.4612 0
    endloop
  endfacet
  facet normal 0 0 -1
    outer loop
      vertex 76.7 32.1 0
      vertex 78.6509 54.8921 0
      vertex 78.6509 31.9079 0
    endloop
  endfacet
  facet normal 0 0 -1
    outer loop
      vertex 76.7 32.1 0
      vertex 76.7 54.7 0
      vertex 78.6509 54.8921 0
    endloop
  endfacet
  facet normal 0 0 -1
    outer loop
      vertex 74.7491 31.9079 0
      vertex 76.7 54.7 0
      vertex 76.7 32.1 0
    endloop
  endfacet
  facet normal 0 0 -1
    outer loop
      vertex 74.7491 31.9079 0
      vertex 74.7491 54.8921 0
      vertex 76.7 54.7 0
    endloop
  endfacet
  facet normal 0 0 -1
    outer loop
      vertex 72.8732 31.3388 0
      vertex 74.7491 54.8921 0
      vertex 74.7491 31.9079 0
    endloop
  endfacet
  facet normal 0 0 -1
    outer loop
      vertex 72.8732 31.3388 0
      vertex 72.8732 55.4612 0
      vertex 74.7491 54.8921 0
    endloop
  endfacet
  facet normal 0 0 -1
    outer loop
      vertex 71.1443 30.4147 0
      vertex 72.8732 55.4612 0
      vertex 72.8732 31.3388 0
    endloop
  endfacet
  facet normal 0 0 -1
    outer loop
      vertex 71.1443 30.4147 0
      vertex 71.1443 56.3853 0
      vertex 72.8732 55.4612 0
    endloop
  endfacet
  facet normal 0 0 -1
    outer loop
      vertex 69.6289 29.1711 0
      vertex 71.1443 56.3853 0
      vertex 71.1443 30.4147 0
    endloop
  endfacet
  facet normal 0 0 -1
    outer loop
      vertex 69.6289 29.1711 0
      vertex 69.6289 57.6289 0
      vertex 71.1443 56.3853 0
    endloop
  endfacet
  facet normal 0 0 -1
    outer loop
      vertex 35.4147 27.6557 0
      vertex 68.3853 27.6557 0
      vertex 36.3388 25.9268 0
    endloop
  endfacet
  facet normal 0 0 -1
    outer loop
      vertex 68.3853 27.6557 0
      vertex 35.4147 27.6557 0
      vertex 69.6289 29.1711 0
    endloop
  endfacet
  facet normal 0 0 -1
    outer loop
      vertex 66.8922 24.0509 0
      vertex 36.9079 24.0509 0
      vertex 67.4612 25.9268 0
    endloop
  endfacet
  facet normal 0 0 -1
    outer loop
      vertex 36.3388 25.9268 0
      vertex 67.4612 25.9268 0
      vertex 36.9079 24.0509 0
    endloop
  endfacet
  facet normal 0 0 -1
    outer loop
      vertex 36.9079 24.0509 0
      vertex 66.8922 24.0509 0
      vertex 37.1 22.1 0
    endloop
  endfacet
  facet normal 0 0 -1
    outer loop
      vertex 67.4612 25.9268 0
      vertex 36.3388 25.9268 0
      vertex 68.3853 27.6557 0
    endloop
  endfacet
  facet normal 0 0 -1
    outer loop
      vertex 37.1 22.1 0
      vertex 66.8922 24.0509 0
      vertex 66.7 22.1 0
    endloop
  endfacet
  facet normal 0 0 -1
    outer loop
      vertex 68.3853 59.1443 0
      vertex 37.1 64.7 0
      vertex 67.4612 60.8732 0
    endloop
  endfacet
  facet normal 0 0 -1
    outer loop
      vertex 83.7711 15.0289 0
      vertex 102.4 0 0
      vertex 101.6 -1.38564 0
    endloop
  endfacet
  facet normal 0 0 -1
    outer loop
      vertex 86.5079 24.0509 0
      vertex 102.4 0 0
      vertex 86.7 22.1 0
    endloop
  endfacet
  facet normal 0 0 -1
    outer loop
      vertex 85.9388 25.9268 0
      vertex 102.4 0 0
      vertex 86.5079 24.0509 0
    endloop
  endfacet
  facet normal 0 0 -1
    outer loop
      vertex 102.4 0 0
      vertex 86.5079 20.1491 0
      vertex 86.7 22.1 0
    endloop
  endfacet
  facet normal 0 0 -1
    outer loop
      vertex 102.4 0 0
      vertex 85.9388 18.2732 0
      vertex 86.5079 20.1491 0
    endloop
  endfacet
  facet normal 0 0 -1
    outer loop
      vertex 102.4 0 0
      vertex 85.0147 16.5443 0
      vertex 85.9388 18.2732 0
    endloop
  endfacet
  facet normal 0 0 -1
    outer loop
      vertex 102.4 0 0
      vertex 83.7711 15.0289 0
      vertex 85.0147 16.5443 0
    endloop
  endfacet
  facet normal 0 0 -1
    outer loop
      vertex 101.6 -1.38564 0
      vertex 82.2557 13.7853 0
      vertex 83.7711 15.0289 0
    endloop
  endfacet
  facet normal 0 0 -1
    outer loop
      vertex 101.6 -1.38564 0
      vertex 80.5268 12.8612 0
      vertex 82.2557 13.7853 0
    endloop
  endfacet
  facet normal 0 0 -1
    outer loop
      vertex 101.6 -1.38564 0
      vertex 78.6509 12.2921 0
      vertex 80.5268 12.8612 0
    endloop
  endfacet
  facet normal 0 0 -1
    outer loop
      vertex 101.6 -1.38564 0
      vertex 76.7 12.1 0
      vertex 78.6509 12.2921 0
    endloop
  endfacet
  facet normal 0 0 -1
    outer loop
      vertex 101.6 -1.38564 0
      vertex 74.7491 12.2921 0
      vertex 76.7 12.1 0
    endloop
  endfacet
  facet normal 0 0 -1
    outer loop
      vertex 29.0509 12.2921 0
      vertex 74.7491 12.2921 0
      vertex 101.6 -1.38564 0
    endloop
  endfacet
  facet normal 0 0 -1
    outer loop
      vertex 67.4612 60.8732 0
      vertex 37.1 64.7 0
      vertex 66.8922 62.7491 0
    endloop
  endfacet
  facet normal 0 0 -1
    outer loop
      vertex 66.8922 20.1491 0
      vertex 37.1 22.1 0
      vertex 66.7 22.1 0
    endloop
  endfacet
  facet normal 0 0 -1
    outer loop
      vertex 36.9079 20.1491 0
      vertex 66.8922 20.1491 0
      vertex 67.4612 18.2732 0
    endloop
  endfacet
  facet normal 0 0 -1
    outer loop
      vertex 36.3388 18.2732 0
      vertex 67.4612 18.2732 0
      vertex 68.3853 16.5443 0
    endloop
  endfacet
  facet normal 0 0 -1
    outer loop
      vertex 35.4147 16.5443 0
      vertex 68.3853 16.5443 0
      vertex 69.6289 15.0289 0
    endloop
  endfacet
  facet normal 0 0 -1
    outer loop
      vertex 34.1711 15.0289 0
      vertex 69.6289 15.0289 0
      vertex 71.1443 13.7853 0
    endloop
  endfacet
  facet normal 0 0 -1
    outer loop
      vertex 32.6557 13.7853 0
      vertex 71.1443 13.7853 0
      vertex 72.8732 12.8612 0
    endloop
  endfacet
  facet normal 0 0 -1
    outer loop
      vertex 74.7491 12.2921 0
      vertex 29.0509 12.2921 0
      vertex 72.8732 12.8612 0
    endloop
  endfacet
  facet normal 0 0 -1
    outer loop
      vertex 66.8922 20.1491 0
      vertex 36.9079 20.1491 0
      vertex 37.1 22.1 0
    endloop
  endfacet
  facet normal 0 0 -1
    outer loop
      vertex 67.4612 18.2732 0
      vertex 36.3388 18.2732 0
      vertex 36.9079 20.1491 0
    endloop
  endfacet
  facet normal 0 0 -1
    outer loop
      vertex 68.3853 16.5443 0
      vertex 35.4147 16.5443 0
      vertex 36.3388 18.2732 0
    endloop
  endfacet
  facet normal 0 0 -1
    outer loop
      vertex 69.6289 15.0289 0
      vertex 34.1711 15.0289 0
      vertex 35.4147 16.5443 0
    endloop
  endfacet
  facet normal 0 0 -1
    outer loop
      vertex 71.1443 13.7853 0
      vertex 32.6557 13.7853 0
      vertex 34.1711 15.0289 0
    endloop
  endfacet
  facet normal 0 0 -1
    outer loop
      vertex 72.8732 12.8612 0
      vertex 30.9268 12.8612 0
      vertex 32.6557 13.7853 0
    endloop
  endfacet
  facet normal -0 0 -1
    outer loop
      vertex 72.8732 12.8612 0
      vertex 29.0509 12.2921 0
      vertex 30.9268 12.8612 0
    endloop
  endfacet
  facet normal 0 0 -1
    outer loop
      vertex -0.799999 -1.38564 0
      vertex 29.0509 12.2921 0
      vertex 101.6 -1.38564 0
    endloop
  endfacet
  facet normal 0 0 -1
    outer loop
      vertex 29.0509 12.2921 0
      vertex -0.799999 -1.38564 0
      vertex 27.1 12.1 0
    endloop
  endfacet
  facet normal -0 0 -1
    outer loop
      vertex 17.2921 20.1491 0
      vertex -1.6 0 0
      vertex 17.1 22.1 0
    endloop
  endfacet
  facet normal -0 0 -1
    outer loop
      vertex 17.8612 18.2732 0
      vertex -1.6 0 0
      vertex 17.2921 20.1491 0
    endloop
  endfacet
  facet normal -0 0 -1
    outer loop
      vertex 18.7853 16.5443 0
      vertex -1.6 0 0
      vertex 17.8612 18.2732 0
    endloop
  endfacet
  facet normal -0 0 -1
    outer loop
      vertex 20.0289 15.0289 0
      vertex -1.6 0 0
      vertex 18.7853 16.5443 0
    endloop
  endfacet
  facet normal 0 0 -1
    outer loop
      vertex -1.6 0 0
      vertex 20.0289 15.0289 0
      vertex -0.799999 -1.38564 0
    endloop
  endfacet
  facet normal -0 0 -1
    outer loop
      vertex 21.5443 13.7853 0
      vertex -0.799999 -1.38564 0
      vertex 20.0289 15.0289 0
    endloop
  endfacet
  facet normal -0 0 -1
    outer loop
      vertex 23.2732 12.8612 0
      vertex -0.799999 -1.38564 0
      vertex 21.5443 13.7853 0
    endloop
  endfacet
  facet normal -0 0 -1
    outer loop
      vertex 25.1491 12.2921 0
      vertex -0.799999 -1.38564 0
      vertex 23.2732 12.8612 0
    endloop
  endfacet
  facet normal -0 0 -1
    outer loop
      vertex 27.1 12.1 0
      vertex -0.799999 -1.38564 0
      vertex 25.1491 12.2921 0
    endloop
  endfacet
  facet normal 0 0 -1
    outer loop
      vertex 86.5079 66.6509 0
      vertex 102.4 86.8 0
      vertex 86.7 64.7 0
    endloop
  endfacet
  facet normal 0 0 -1
    outer loop
      vertex 85.9388 68.5268 0
      vertex 102.4 86.8 0
      vertex 86.5079 66.6509 0
    endloop
  endfacet
  facet normal 0 0 -1
    outer loop
      vertex 85.0147 70.2557 0
      vertex 102.4 86.8 0
      vertex 85.9388 68.5268 0
    endloop
  endfacet
  facet normal 0 0 -1
    outer loop
      vertex 83.7711 71.7711 0
      vertex 102.4 86.8 0
      vertex 85.0147 70.2557 0
    endloop
  endfacet
  facet normal -0 0 -1
    outer loop
      vertex 102.4 86.8 0
      vertex 83.7711 71.7711 0
      vertex 101.6 88.1856 0
    endloop
  endfacet
  facet normal 0 0 -1
    outer loop
      vertex 82.2557 73.0147 0
      vertex 101.6 88.1856 0
      vertex 83.7711 71.7711 0
    endloop
  endfacet
  facet normal 0 0 -1
    outer loop
      vertex 80.5268 73.9388 0
      vertex 101.6 88.1856 0
      vertex 82.2557 73.0147 0
    endloop
  endfacet
  facet normal 0 0 -1
    outer loop
      vertex 78.6509 74.5079 0
      vertex 101.6 88.1856 0
      vertex 80.5268 73.9388 0
    endloop
  endfacet
  facet normal 0 0 -1
    outer loop
      vertex 76.7 74.7 0
      vertex 101.6 88.1856 0
      vertex 78.6509 74.5079 0
    endloop
  endfacet
  facet normal 0 0 -1
    outer loop
      vertex 74.7491 74.5079 0
      vertex 101.6 88.1856 0
      vertex 76.7 74.7 0
    endloop
  endfacet
  facet normal 0 0 -1
    outer loop
      vertex 29.0509 74.5079 0
      vertex 74.7491 74.5079 0
      vertex 72.8732 73.9388 0
    endloop
  endfacet
  facet normal 0 0 -1
    outer loop
      vertex 66.8922 62.7491 0
      vertex 37.1 64.7 0
      vertex 66.7 64.7 0
    endloop
  endfacet
  facet normal 0 0 -1
    outer loop
      vertex 66.7 64.7 0
      vertex 37.1 64.7 0
      vertex 66.8922 66.6509 0
    endloop
  endfacet
  facet normal 0 0 -1
    outer loop
      vertex 36.9079 66.6509 0
      vertex 66.8922 66.6509 0
      vertex 37.1 64.7 0
    endloop
  endfacet
  facet normal 0 0 -1
    outer loop
      vertex 66.8922 66.6509 0
      vertex 36.9079 66.6509 0
      vertex 67.4612 68.5268 0
    endloop
  endfacet
  facet normal 0 0 -1
    outer loop
      vertex 36.3388 68.5268 0
      vertex 67.4612 68.5268 0
      vertex 36.9079 66.6509 0
    endloop
  endfacet
  facet normal 0 0 -1
    outer loop
      vertex 67.4612 68.5268 0
      vertex 36.3388 68.5268 0
      vertex 68.3853 70.2557 0
    endloop
  endfacet
  facet normal 0 0 -1
    outer loop
      vertex 35.4147 70.2557 0
      vertex 68.3853 70.2557 0
      vertex 36.3388 68.5268 0
    endloop
  endfacet
  facet normal 0 0 -1
    outer loop
      vertex 68.3853 70.2557 0
      vertex 35.4147 70.2557 0
      vertex 69.6289 71.7711 0
    endloop
  endfacet
  facet normal 0 0 -1
    outer loop
      vertex 34.1711 71.7711 0
      vertex 69.6289 71.7711 0
      vertex 35.4147 70.2557 0
    endloop
  endfacet
  facet normal 0 0 -1
    outer loop
      vertex 69.6289 71.7711 0
      vertex 34.1711 71.7711 0
      vertex 71.1443 73.0147 0
    endloop
  endfacet
  facet normal 0 0 -1
    outer loop
      vertex 32.6557 73.0147 0
      vertex 71.1443 73.0147 0
      vertex 34.1711 71.7711 0
    endloop
  endfacet
  facet normal 0 0 -1
    outer loop
      vertex 71.1443 73.0147 0
      vertex 32.6557 73.0147 0
      vertex 72.8732 73.9388 0
    endloop
  endfacet
  facet normal 0 0 -1
    outer loop
      vertex 30.9268 73.9388 0
      vertex 72.8732 73.9388 0
      vertex 32.6557 73.0147 0
    endloop
  endfacet
  facet normal 0 0 -1
    outer loop
      vertex 29.0509 74.5079 0
      vertex 72.8732 73.9388 0
      vertex 30.9268 73.9388 0
    endloop
  endfacet
  facet normal 0 0 -1
    outer loop
      vertex 74.7491 74.5079 0
      vertex 29.0509 74.5079 0
      vertex 101.6 88.1856 0
    endloop
  endfacet
  facet normal 0 0 -1
    outer loop
      vertex -0.799999 88.1856 0
      vertex 29.0509 74.5079 0
      vertex 27.1 74.7 0
    endloop
  endfacet
  facet normal 0 0 -1
    outer loop
      vertex -0.799999 88.1856 0
      vertex 27.1 74.7 0
      vertex 25.1491 74.5079 0
    endloop
  endfacet
  facet normal 0 0 -1
    outer loop
      vertex 17.8612 60.8732 0
      vertex -1.6 86.8 0
      vertex 17.2921 62.7491 0
    endloop
  endfacet
  facet normal 0 0 -1
    outer loop
      vertex 29.0509 74.5079 0
      vertex -0.799999 88.1856 0
      vertex 101.6 88.1856 0
    endloop
  endfacet
  facet normal 0 0 -1
    outer loop
      vertex 23.2732 73.9388 0
      vertex -0.799999 88.1856 0
      vertex 25.1491 74.5079 0
    endloop
  endfacet
  facet normal 0 0 -1
    outer loop
      vertex 21.5443 73.0147 0
      vertex -0.799999 88.1856 0
      vertex 23.2732 73.9388 0
    endloop
  endfacet
  facet normal 0 0 -1
    outer loop
      vertex 20.0289 71.7711 0
      vertex -0.799999 88.1856 0
      vertex 21.5443 73.0147 0
    endloop
  endfacet
  facet normal 0 0 -1
    outer loop
      vertex -1.6 86.8 0
      vertex 20.0289 71.7711 0
      vertex 18.7853 70.2557 0
    endloop
  endfacet
  facet normal 0 0 -1
    outer loop
      vertex -1.6 86.8 0
      vertex 18.7853 70.2557 0
      vertex 17.8612 68.5268 0
    endloop
  endfacet
  facet normal 0 0 -1
    outer loop
      vertex -1.6 86.8 0
      vertex 17.8612 68.5268 0
      vertex 17.2921 66.6509 0
    endloop
  endfacet
  facet normal 0 0 -1
    outer loop
      vertex 17.2921 62.7491 0
      vertex -1.6 86.8 0
      vertex 17.1 64.7 0
    endloop
  endfacet
  facet normal 0 0 -1
    outer loop
      vertex 17.1 64.7 0
      vertex -1.6 86.8 0
      vertex 17.2921 66.6509 0
    endloop
  endfacet
  facet normal 0 0 -1
    outer loop
      vertex 20.0289 71.7711 0
      vertex -1.6 86.8 0
      vertex -0.799999 88.1856 0
    endloop
  endfacet
  facet normal -0.866025 -0.5 0
    outer loop
      vertex -0.799999 -1.38564 0
      vertex -1.6 0 24.1
      vertex -1.6 0 0
    endloop
  endfacet
  facet normal -0.866025 -0.5 0
    outer loop
      vertex -1.6 0 24.1
      vertex -0.799999 -1.38564 0
      vertex -0.799999 -1.38564 24.1
    endloop
  endfacet
  facet normal 0 1 -0
    outer loop
      vertex 101.6 88.1856 0
      vertex -0.799999 88.1856 24.1
      vertex 101.6 88.1856 24.1
    endloop
  endfacet
  facet normal 0 1 0
    outer loop
      vertex -0.799999 88.1856 24.1
      vertex 101.6 88.1856 0
      vertex -0.799999 88.1856 0
    endloop
  endfacet
  facet normal 1 -0 0
    outer loop
      vertex 0 0 24.1
      vertex 0 86.8 17
      vertex 0 86.8 24.1
    endloop
  endfacet
  facet normal 1 0 0
    outer loop
      vertex 0 86.8 17
      vertex 0 0 24.1
      vertex 0 0 17
    endloop
  endfacet
  facet normal -1 0 0
    outer loop
      vertex 100.8 0 17
      vertex 100.8 86.8 24.1
      vertex 100.8 86.8 17
    endloop
  endfacet
  facet normal -1 -0 0
    outer loop
      vertex 100.8 86.8 24.1
      vertex 100.8 0 17
      vertex 100.8 0 24.1
    endloop
  endfacet
  facet normal 0 -1 0
    outer loop
      vertex 0 86.8 17
      vertex 100.8 86.8 24.1
      vertex 0 86.8 24.1
    endloop
  endfacet
  facet normal 0 -1 -0
    outer loop
      vertex 100.8 86.8 24.1
      vertex 0 86.8 17
      vertex 100.8 86.8 17
    endloop
  endfacet
  facet normal -0 0 1
    outer loop
      vertex 1.6 44.2 17
      vertex 52.6 42.6 17
      vertex 52.6 44.2 17
    endloop
  endfacet
  facet normal 0 0 1
    outer loop
      vertex 52.6 42.6 17
      vertex 1.6 44.2 17
      vertex 1.6 42.6 17
    endloop
  endfacet
  facet normal -0 0 1
    outer loop
      vertex 54.2 44.2 17
      vertex 99.2 42.6 17
      vertex 99.2 44.2 17
    endloop
  endfacet
  facet normal 0 0 1
    outer loop
      vertex 99.2 42.6 17
      vertex 54.2 44.2 17
      vertex 54.2 42.6 17
    endloop
  endfacet
  facet normal 0 0 1
    outer loop
      vertex 99.2 44.2 17
      vertex 100.8 86.8 17
      vertex 99.2 85.2 17
    endloop
  endfacet
  facet normal 0 0 1
    outer loop
      vertex 100.8 86.8 17
      vertex 54.2 85.2 17
      vertex 99.2 85.2 17
    endloop
  endfacet
  facet normal 0 0 1
    outer loop
      vertex 52.6 44.2 17
      vertex 54.2 44.2 17
      vertex 54.2 85.2 17
    endloop
  endfacet
  facet normal 0 0 1
    outer loop
      vertex 54.2 44.2 17
      vertex 52.6 44.2 17
      vertex 54.2 42.6 17
    endloop
  endfacet
  facet normal 0 0 1
    outer loop
      vertex 52.6 44.2 17
      vertex 54.2 85.2 17
      vertex 52.6 85.2 17
    endloop
  endfacet
  facet normal 0 0 1
    outer loop
      vertex 100.8 86.8 17
      vertex 52.6 85.2 17
      vertex 54.2 85.2 17
    endloop
  endfacet
  facet normal -0 0 1
    outer loop
      vertex 0 86.8 17
      vertex 52.6 85.2 17
      vertex 100.8 86.8 17
    endloop
  endfacet
  facet normal 0 0 1
    outer loop
      vertex 0 86.8 17
      vertex 1.6 44.2 17
      vertex 1.6 85.2 17
    endloop
  endfacet
  facet normal 0 0 1
    outer loop
      vertex 1.6 44.2 17
      vertex 0 86.8 17
      vertex 1.6 42.6 17
    endloop
  endfacet
  facet normal 0 0 1
    outer loop
      vertex 0 0 17
      vertex 1.6 42.6 17
      vertex 0 86.8 17
    endloop
  endfacet
  facet normal 0 0 1
    outer loop
      vertex 52.6 85.2 17
      vertex 0 86.8 17
      vertex 1.6 85.2 17
    endloop
  endfacet
  facet normal 0 0 1
    outer loop
      vertex 100.8 86.8 17
      vertex 99.2 44.2 17
      vertex 100.8 0 17
    endloop
  endfacet
  facet normal -0 0 1
    outer loop
      vertex 99.2 42.6 17
      vertex 100.8 0 17
      vertex 99.2 44.2 17
    endloop
  endfacet
  facet normal -0 0 1
    outer loop
      vertex 99.2 1.6 17
      vertex 100.8 0 17
      vertex 99.2 42.6 17
    endloop
  endfacet
  facet normal -0 0 1
    outer loop
      vertex 54.2 1.6 17
      vertex 100.8 0 17
      vertex 99.2 1.6 17
    endloop
  endfacet
  facet normal 0 0 1
    outer loop
      vertex 52.6 42.6 17
      vertex 54.2 42.6 17
      vertex 52.6 44.2 17
    endloop
  endfacet
  facet normal 0 0 1
    outer loop
      vertex 54.2 42.6 17
      vertex 52.6 42.6 17
      vertex 54.2 1.6 17
    endloop
  endfacet
  facet normal 0 0 1
    outer loop
      vertex 52.6 1.6 17
      vertex 54.2 1.6 17
      vertex 52.6 42.6 17
    endloop
  endfacet
  facet normal -0 0 1
    outer loop
      vertex 52.6 1.6 17
      vertex 100.8 0 17
      vertex 54.2 1.6 17
    endloop
  endfacet
  facet normal 0 0 1
    outer loop
      vertex 0 0 17
      vertex 52.6 1.6 17
      vertex 1.6 1.6 17
    endloop
  endfacet
  facet normal 0 0 1
    outer loop
      vertex 52.6 1.6 17
      vertex 0 0 17
      vertex 100.8 0 17
    endloop
  endfacet
  facet normal 0 0 1
    outer loop
      vertex 1.6 42.6 17
      vertex 0 0 17
      vertex 1.6 1.6 17
    endloop
  endfacet
  facet normal 0 1 -0
    outer loop
      vertex 100.8 0 17
      vertex 0 0 24.1
      vertex 100.8 0 24.1
    endloop
  endfacet
  facet normal 0 1 0
    outer loop
      vertex 0 0 24.1
      vertex 100.8 0 17
      vertex 0 0 17
    endloop
  endfacet
  facet normal 1 -0 0
    outer loop
      vertex 1.6 1.6 17
      vertex 1.6 42.6 1
      vertex 1.6 42.6 17
    endloop
  endfacet
  facet normal 1 0 0
    outer loop
      vertex 1.6 42.6 1
      vertex 1.6 1.6 17
      vertex 1.6 1.6 1
    endloop
  endfacet
  facet normal -1 0 0
    outer loop
      vertex 52.6 1.6 1
      vertex 52.6 42.6 17
      vertex 52.6 42.6 1
    endloop
  endfacet
  facet normal -1 -0 0
    outer loop
      vertex 52.6 42.6 17
      vertex 52.6 1.6 1
      vertex 52.6 1.6 17
    endloop
  endfacet
  facet normal 0 0 1
    outer loop
      vertex 52.6 42.6 1
      vertex 37.1 22.1 1
      vertex 52.6 1.6 1
    endloop
  endfacet
  facet normal 0 0 1
    outer loop
      vertex 52.6 42.6 1
      vertex 36.9079 24.0509 1
      vertex 37.1 22.1 1
    endloop
  endfacet
  facet normal 0 0 1
    outer loop
      vertex 52.6 42.6 1
      vertex 36.3388 25.9268 1
      vertex 36.9079 24.0509 1
    endloop
  endfacet
  facet normal 0 0 1
    outer loop
      vertex 52.6 42.6 1
      vertex 35.4147 27.6557 1
      vertex 36.3388 25.9268 1
    endloop
  endfacet
  facet normal 0 0 1
    outer loop
      vertex 52.6 42.6 1
      vertex 34.1711 29.1711 1
      vertex 35.4147 27.6557 1
    endloop
  endfacet
  facet normal 0 0 1
    outer loop
      vertex 52.6 42.6 1
      vertex 32.6557 30.4147 1
      vertex 34.1711 29.1711 1
    endloop
  endfacet
  facet normal 0 0 1
    outer loop
      vertex 52.6 42.6 1
      vertex 30.9268 31.3388 1
      vertex 32.6557 30.4147 1
    endloop
  endfacet
  facet normal 0 0 1
    outer loop
      vertex 52.6 42.6 1
      vertex 29.0509 31.9079 1
      vertex 30.9268 31.3388 1
    endloop
  endfacet
  facet normal 0 0 1
    outer loop
      vertex 52.6 42.6 1
      vertex 27.1 32.1 1
      vertex 29.0509 31.9079 1
    endloop
  endfacet
  facet normal -0 0 1
    outer loop
      vertex 1.6 42.6 1
      vertex 27.1 32.1 1
      vertex 52.6 42.6 1
    endloop
  endfacet
  facet normal 0 0 1
    outer loop
      vertex 27.1 32.1 1
      vertex 1.6 42.6 1
      vertex 25.1491 31.9079 1
    endloop
  endfacet
  facet normal 0 0 1
    outer loop
      vertex 17.2921 24.0509 1
      vertex 1.6 42.6 1
      vertex 17.1 22.1 1
    endloop
  endfacet
  facet normal 0 0 1
    outer loop
      vertex 17.8612 25.9268 1
      vertex 1.6 42.6 1
      vertex 17.2921 24.0509 1
    endloop
  endfacet
  facet normal 0 0 1
    outer loop
      vertex 18.7853 27.6557 1
      vertex 1.6 42.6 1
      vertex 17.8612 25.9268 1
    endloop
  endfacet
  facet normal 0 0 1
    outer loop
      vertex 20.0289 29.1711 1
      vertex 1.6 42.6 1
      vertex 18.7853 27.6557 1
    endloop
  endfacet
  facet normal 0 0 1
    outer loop
      vertex 21.5443 30.4147 1
      vertex 1.6 42.6 1
      vertex 20.0289 29.1711 1
    endloop
  endfacet
  facet normal 0 0 1
    outer loop
      vertex 23.2732 31.3388 1
      vertex 1.6 42.6 1
      vertex 21.5443 30.4147 1
    endloop
  endfacet
  facet normal 0 0 1
    outer loop
      vertex 25.1491 31.9079 1
      vertex 1.6 42.6 1
      vertex 23.2732 31.3388 1
    endloop
  endfacet
  facet normal -0 0 1
    outer loop
      vertex 36.9079 20.1491 1
      vertex 52.6 1.6 1
      vertex 37.1 22.1 1
    endloop
  endfacet
  facet normal -0 0 1
    outer loop
      vertex 36.3388 18.2732 1
      vertex 52.6 1.6 1
      vertex 36.9079 20.1491 1
    endloop
  endfacet
  facet normal -0 0 1
    outer loop
      vertex 35.4147 16.5443 1
      vertex 52.6 1.6 1
      vertex 36.3388 18.2732 1
    endloop
  endfacet
  facet normal -0 0 1
    outer loop
      vertex 34.1711 15.0289 1
      vertex 52.6 1.6 1
      vertex 35.4147 16.5443 1
    endloop
  endfacet
  facet normal -0 0 1
    outer loop
      vertex 32.6557 13.7853 1
      vertex 52.6 1.6 1
      vertex 34.1711 15.0289 1
    endloop
  endfacet
  facet normal -0 0 1
    outer loop
      vertex 30.9268 12.8612 1
      vertex 52.6 1.6 1
      vertex 32.6557 13.7853 1
    endloop
  endfacet
  facet normal -0 0 1
    outer loop
      vertex 29.0509 12.2921 1
      vertex 52.6 1.6 1
      vertex 30.9268 12.8612 1
    endloop
  endfacet
  facet normal -0 0 1
    outer loop
      vertex 27.1 12.1 1
      vertex 52.6 1.6 1
      vertex 29.0509 12.2921 1
    endloop
  endfacet
  facet normal 0 0 1
    outer loop
      vertex 1.6 1.6 1
      vertex 27.1 12.1 1
      vertex 25.1491 12.2921 1
    endloop
  endfacet
  facet normal 0 0 1
    outer loop
      vertex 1.6 1.6 1
      vertex 25.1491 12.2921 1
      vertex 23.2732 12.8612 1
    endloop
  endfacet
  facet normal 0 0 1
    outer loop
      vertex 1.6 1.6 1
      vertex 17.1 22.1 1
      vertex 1.6 42.6 1
    endloop
  endfacet
  facet normal 0 0 1
    outer loop
      vertex 17.1 22.1 1
      vertex 1.6 1.6 1
      vertex 17.2921 20.1491 1
    endloop
  endfacet
  facet normal 0 0 1
    outer loop
      vertex 17.2921 20.1491 1
      vertex 1.6 1.6 1
      vertex 17.8612 18.2732 1
    endloop
  endfacet
  facet normal 0 0 1
    outer loop
      vertex 27.1 12.1 1
      vertex 1.6 1.6 1
      vertex 52.6 1.6 1
    endloop
  endfacet
  facet normal 0 0 1
    outer loop
      vertex 21.5443 13.7853 1
      vertex 1.6 1.6 1
      vertex 23.2732 12.8612 1
    endloop
  endfacet
  facet normal 0 0 1
    outer loop
      vertex 20.0289 15.0289 1
      vertex 1.6 1.6 1
      vertex 21.5443 13.7853 1
    endloop
  endfacet
  facet normal 0 0 1
    outer loop
      vertex 18.7853 16.5443 1
      vertex 1.6 1.6 1
      vertex 20.0289 15.0289 1
    endloop
  endfacet
  facet normal 0 0 1
    outer loop
      vertex 17.8612 18.2732 1
      vertex 1.6 1.6 1
      vertex 18.7853 16.5443 1
    endloop
  endfacet
  facet normal 0 1 -0
    outer loop
      vertex 52.6 1.6 1
      vertex 1.6 1.6 17
      vertex 52.6 1.6 17
    endloop
  endfacet
  facet normal 0 1 0
    outer loop
      vertex 1.6 1.6 17
      vertex 52.6 1.6 1
      vertex 1.6 1.6 1
    endloop
  endfacet
  facet normal 0 -1 0
    outer loop
      vertex 1.6 42.6 1
      vertex 52.6 42.6 17
      vertex 1.6 42.6 17
    endloop
  endfacet
  facet normal 0 -1 -0
    outer loop
      vertex 52.6 42.6 17
      vertex 1.6 42.6 1
      vertex 52.6 42.6 1
    endloop
  endfacet
  facet normal 1 -0 0
    outer loop
      vertex 1.6 44.2 17
      vertex 1.6 85.2 1
      vertex 1.6 85.2 17
    endloop
  endfacet
  facet normal 1 0 0
    outer loop
      vertex 1.6 85.2 1
      vertex 1.6 44.2 17
      vertex 1.6 44.2 1
    endloop
  endfacet
  facet normal -1 0 0
    outer loop
      vertex 52.6 44.2 1
      vertex 52.6 85.2 17
      vertex 52.6 85.2 1
    endloop
  endfacet
  facet normal -1 -0 0
    outer loop
      vertex 52.6 85.2 17
      vertex 52.6 44.2 1
      vertex 52.6 44.2 17
    endloop
  endfacet
  facet normal 0 -1 0
    outer loop
      vertex 1.6 85.2 1
      vertex 52.6 85.2 17
      vertex 1.6 85.2 17
    endloop
  endfacet
  facet normal 0 -1 -0
    outer loop
      vertex 52.6 85.2 17
      vertex 1.6 85.2 1
      vertex 52.6 85.2 1
    endloop
  endfacet
  facet normal 0 0 1
    outer loop
      vertex 52.6 85.2 1
      vertex 37.1 64.7 1
      vertex 52.6 44.2 1
    endloop
  endfacet
  facet normal 0 0 1
    outer loop
      vertex 52.6 85.2 1
      vertex 36.9079 66.6509 1
      vertex 37.1 64.7 1
    endloop
  endfacet
  facet normal 0 0 1
    outer loop
      vertex 52.6 85.2 1
      vertex 36.3388 68.5268 1
      vertex 36.9079 66.6509 1
    endloop
  endfacet
  facet normal 0 0 1
    outer loop
      vertex 52.6 85.2 1
      vertex 35.4147 70.2557 1
      vertex 36.3388 68.5268 1
    endloop
  endfacet
  facet normal 0 0 1
    outer loop
      vertex 52.6 85.2 1
      vertex 34.1711 71.7711 1
      vertex 35.4147 70.2557 1
    endloop
  endfacet
  facet normal 0 0 1
    outer loop
      vertex 52.6 85.2 1
      vertex 32.6557 73.0147 1
      vertex 34.1711 71.7711 1
    endloop
  endfacet
  facet normal 0 0 1
    outer loop
      vertex 52.6 85.2 1
      vertex 30.9268 73.9388 1
      vertex 32.6557 73.0147 1
    endloop
  endfacet
  facet normal 0 0 1
    outer loop
      vertex 52.6 85.2 1
      vertex 29.0509 74.5079 1
      vertex 30.9268 73.9388 1
    endloop
  endfacet
  facet normal 0 0 1
    outer loop
      vertex 52.6 85.2 1
      vertex 27.1 74.7 1
      vertex 29.0509 74.5079 1
    endloop
  endfacet
  facet normal -0 0 1
    outer loop
      vertex 1.6 85.2 1
      vertex 27.1 74.7 1
      vertex 52.6 85.2 1
    endloop
  endfacet
  facet normal 0 0 1
    outer loop
      vertex 27.1 74.7 1
      vertex 1.6 85.2 1
      vertex 25.1491 74.5079 1
    endloop
  endfacet
  facet normal 0 0 1
    outer loop
      vertex 17.2921 66.6509 1
      vertex 1.6 85.2 1
      vertex 17.1 64.7 1
    endloop
  endfacet
  facet normal 0 0 1
    outer loop
      vertex 17.8612 68.5268 1
      vertex 1.6 85.2 1
      vertex 17.2921 66.6509 1
    endloop
  endfacet
  facet normal 0 0 1
    outer loop
      vertex 18.7853 70.2557 1
      vertex 1.6 85.2 1
      vertex 17.8612 68.5268 1
    endloop
  endfacet
  facet normal 0 0 1
    outer loop
      vertex 20.0289 71.7711 1
      vertex 1.6 85.2 1
      vertex 18.7853 70.2557 1
    endloop
  endfacet
  facet normal 0 0 1
    outer loop
      vertex 21.5443 73.0147 1
      vertex 1.6 85.2 1
      vertex 20.0289 71.7711 1
    endloop
  endfacet
  facet normal 0 0 1
    outer loop
      vertex 23.2732 73.9388 1
      vertex 1.6 85.2 1
      vertex 21.5443 73.0147 1
    endloop
  endfacet
  facet normal 0 0 1
    outer loop
      vertex 25.1491 74.5079 1
      vertex 1.6 85.2 1
      vertex 23.2732 73.9388 1
    endloop
  endfacet
  facet normal -0 0 1
    outer loop
      vertex 36.9079 62.7491 1
      vertex 52.6 44.2 1
      vertex 37.1 64.7 1
    endloop
  endfacet
  facet normal -0 0 1
    outer loop
      vertex 36.3388 60.8732 1
      vertex 52.6 44.2 1
      vertex 36.9079 62.7491 1
    endloop
  endfacet
  facet normal -0 0 1
    outer loop
      vertex 35.4147 59.1443 1
      vertex 52.6 44.2 1
      vertex 36.3388 60.8732 1
    endloop
  endfacet
  facet normal -0 0 1
    outer loop
      vertex 34.1711 57.6289 1
      vertex 52.6 44.2 1
      vertex 35.4147 59.1443 1
    endloop
  endfacet
  facet normal -0 0 1
    outer loop
      vertex 32.6557 56.3853 1
      vertex 52.6 44.2 1
      vertex 34.1711 57.6289 1
    endloop
  endfacet
  facet normal -0 0 1
    outer loop
      vertex 30.9268 55.4612 1
      vertex 52.6 44.2 1
      vertex 32.6557 56.3853 1
    endloop
  endfacet
  facet normal -0 0 1
    outer loop
      vertex 29.0509 54.8921 1
      vertex 52.6 44.2 1
      vertex 30.9268 55.4612 1
    endloop
  endfacet
  facet normal -0 0 1
    outer loop
      vertex 27.1 54.7 1
      vertex 52.6 44.2 1
      vertex 29.0509 54.8921 1
    endloop
  endfacet
  facet normal 0 0 1
    outer loop
      vertex 1.6 44.2 1
      vertex 27.1 54.7 1
      vertex 25.1491 54.8921 1
    endloop
  endfacet
  facet normal 0 0 1
    outer loop
      vertex 1.6 44.2 1
      vertex 25.1491 54.8921 1
      vertex 23.2732 55.4612 1
    endloop
  endfacet
  facet normal 0 0 1
    outer loop
      vertex 1.6 44.2 1
      vertex 17.1 64.7 1
      vertex 1.6 85.2 1
    endloop
  endfacet
  facet normal 0 0 1
    outer loop
      vertex 17.1 64.7 1
      vertex 1.6 44.2 1
      vertex 17.2921 62.7491 1
    endloop
  endfacet
  facet normal 0 0 1
    outer loop
      vertex 17.2921 62.7491 1
      vertex 1.6 44.2 1
      vertex 17.8612 60.8732 1
    endloop
  endfacet
  facet normal 0 0 1
    outer loop
      vertex 27.1 54.7 1
      vertex 1.6 44.2 1
      vertex 52.6 44.2 1
    endloop
  endfacet
  facet normal 0 0 1
    outer loop
      vertex 21.5443 56.3853 1
      vertex 1.6 44.2 1
      vertex 23.2732 55.4612 1
    endloop
  endfacet
  facet normal 0 0 1
    outer loop
      vertex 20.0289 57.6289 1
      vertex 1.6 44.2 1
      vertex 21.5443 56.3853 1
    endloop
  endfacet
  facet normal 0 0 1
    outer loop
      vertex 18.7853 59.1443 1
      vertex 1.6 44.2 1
      vertex 20.0289 57.6289 1
    endloop
  endfacet
  facet normal 0 0 1
    outer loop
      vertex 17.8612 60.8732 1
      vertex 1.6 44.2 1
      vertex 18.7853 59.1443 1
    endloop
  endfacet
  facet normal 0 1 -0
    outer loop
      vertex 52.6 44.2 1
      vertex 1.6 44.2 17
      vertex 52.6 44.2 17
    endloop
  endfacet
  facet normal 0 1 0
    outer loop
      vertex 1.6 44.2 17
      vertex 52.6 44.2 1
      vertex 1.6 44.2 1
    endloop
  endfacet
  facet normal 1 -0 0
    outer loop
      vertex 54.2 1.6 17
      vertex 54.2 42.6 1
      vertex 54.2 42.6 17
    endloop
  endfacet
  facet normal 1 0 0
    outer loop
      vertex 54.2 42.6 1
      vertex 54.2 1.6 17
      vertex 54.2 1.6 1
    endloop
  endfacet
  facet normal -1 0 0
    outer loop
      vertex 99.2 1.6 1
      vertex 99.2 42.6 17
      vertex 99.2 42.6 1
    endloop
  endfacet
  facet normal -1 -0 0
    outer loop
      vertex 99.2 42.6 17
      vertex 99.2 1.6 1
      vertex 99.2 1.6 17
    endloop
  endfacet
  facet normal 0 0 1
    outer loop
      vertex 99.2 42.6 1
      vertex 86.7 22.1 1
      vertex 99.2 1.6 1
    endloop
  endfacet
  facet normal 0 0 1
    outer loop
      vertex 99.2 42.6 1
      vertex 86.5079 24.0509 1
      vertex 86.7 22.1 1
    endloop
  endfacet
  facet normal 0 0 1
    outer loop
      vertex 99.2 42.6 1
      vertex 85.9388 25.9268 1
      vertex 86.5079 24.0509 1
    endloop
  endfacet
  facet normal 0 0 1
    outer loop
      vertex 99.2 42.6 1
      vertex 85.0147 27.6557 1
      vertex 85.9388 25.9268 1
    endloop
  endfacet
  facet normal 0 0 1
    outer loop
      vertex 99.2 42.6 1
      vertex 83.7711 29.1711 1
      vertex 85.0147 27.6557 1
    endloop
  endfacet
  facet normal 0 0 1
    outer loop
      vertex 99.2 42.6 1
      vertex 82.2557 30.4147 1
      vertex 83.7711 29.1711 1
    endloop
  endfacet
  facet normal 0 0 1
    outer loop
      vertex 99.2 42.6 1
      vertex 80.5268 31.3388 1
      vertex 82.2557 30.4147 1
    endloop
  endfacet
  facet normal 0 0 1
    outer loop
      vertex 99.2 42.6 1
      vertex 78.6509 31.9079 1
      vertex 80.5268 31.3388 1
    endloop
  endfacet
  facet normal 0 0 1
    outer loop
      vertex 99.2 42.6 1
      vertex 76.7 32.1 1
      vertex 78.6509 31.9079 1
    endloop
  endfacet
  facet normal -0 0 1
    outer loop
      vertex 54.2 42.6 1
      vertex 76.7 32.1 1
      vertex 99.2 42.6 1
    endloop
  endfacet
  facet normal 0 0 1
    outer loop
      vertex 76.7 32.1 1
      vertex 54.2 42.6 1
      vertex 74.7491 31.9079 1
    endloop
  endfacet
  facet normal 0 0 1
    outer loop
      vertex 66.8922 24.0509 1
      vertex 54.2 42.6 1
      vertex 66.7 22.1 1
    endloop
  endfacet
  facet normal 0 0 1
    outer loop
      vertex 67.4612 25.9268 1
      vertex 54.2 42.6 1
      vertex 66.8922 24.0509 1
    endloop
  endfacet
  facet normal 0 0 1
    outer loop
      vertex 68.3853 27.6557 1
      vertex 54.2 42.6 1
      vertex 67.4612 25.9268 1
    endloop
  endfacet
  facet normal 0 0 1
    outer loop
      vertex 69.6289 29.1711 1
      vertex 54.2 42.6 1
      vertex 68.3853 27.6557 1
    endloop
  endfacet
  facet normal 0 0 1
    outer loop
      vertex 71.1443 30.4147 1
      vertex 54.2 42.6 1
      vertex 69.6289 29.1711 1
    endloop
  endfacet
  facet normal 0 0 1
    outer loop
      vertex 72.8732 31.3388 1
      vertex 54.2 42.6 1
      vertex 71.1443 30.4147 1
    endloop
  endfacet
  facet normal 0 0 1
    outer loop
      vertex 74.7491 31.9079 1
      vertex 54.2 42.6 1
      vertex 72.8732 31.3388 1
    endloop
  endfacet
  facet normal -0 0 1
    outer loop
      vertex 86.5079 20.1491 1
      vertex 99.2 1.6 1
      vertex 86.7 22.1 1
    endloop
  endfacet
  facet normal -0 0 1
    outer loop
      vertex 85.9388 18.2732 1
      vertex 99.2 1.6 1
      vertex 86.5079 20.1491 1
    endloop
  endfacet
  facet normal -0 0 1
    outer loop
      vertex 85.0147 16.5443 1
      vertex 99.2 1.6 1
      vertex 85.9388 18.2732 1
    endloop
  endfacet
  facet normal -0 0 1
    outer loop
      vertex 83.7711 15.0289 1
      vertex 99.2 1.6 1
      vertex 85.0147 16.5443 1
    endloop
  endfacet
  facet normal -0 0 1
    outer loop
      vertex 82.2557 13.7853 1
      vertex 99.2 1.6 1
      vertex 83.7711 15.0289 1
    endloop
  endfacet
  facet normal -0 0 1
    outer loop
      vertex 80.5268 12.8612 1
      vertex 99.2 1.6 1
      vertex 82.2557 13.7853 1
    endloop
  endfacet
  facet normal -0 0 1
    outer loop
      vertex 78.6509 12.2921 1
      vertex 99.2 1.6 1
      vertex 80.5268 12.8612 1
    endloop
  endfacet
  facet normal -0 0 1
    outer loop
      vertex 76.7 12.1 1
      vertex 99.2 1.6 1
      vertex 78.6509 12.2921 1
    endloop
  endfacet
  facet normal 0 0 1
    outer loop
      vertex 54.2 1.6 1
      vertex 76.7 12.1 1
      vertex 74.7491 12.2921 1
    endloop
  endfacet
  facet normal 0 0 1
    outer loop
      vertex 54.2 1.6 1
      vertex 74.7491 12.2921 1
      vertex 72.8732 12.8612 1
    endloop
  endfacet
  facet normal 0 0 1
    outer loop
      vertex 54.2 1.6 1
      vertex 66.7 22.1 1
      vertex 54.2 42.6 1
    endloop
  endfacet
  facet normal 0 0 1
    outer loop
      vertex 66.7 22.1 1
      vertex 54.2 1.6 1
      vertex 66.8922 20.1491 1
    endloop
  endfacet
  facet normal 0 0 1
    outer loop
      vertex 66.8922 20.1491 1
      vertex 54.2 1.6 1
      vertex 67.4612 18.2732 1
    endloop
  endfacet
  facet normal 0 0 1
    outer loop
      vertex 76.7 12.1 1
      vertex 54.2 1.6 1
      vertex 99.2 1.6 1
    endloop
  endfacet
  facet normal 0 0 1
    outer loop
      vertex 71.1443 13.7853 1
      vertex 54.2 1.6 1
      vertex 72.8732 12.8612 1
    endloop
  endfacet
  facet normal 0 0 1
    outer loop
      vertex 69.6289 15.0289 1
      vertex 54.2 1.6 1
      vertex 71.1443 13.7853 1
    endloop
  endfacet
  facet normal 0 0 1
    outer loop
      vertex 68.3853 16.5443 1
      vertex 54.2 1.6 1
      vertex 69.6289 15.0289 1
    endloop
  endfacet
  facet normal 0 0 1
    outer loop
      vertex 67.4612 18.2732 1
      vertex 54.2 1.6 1
      vertex 68.3853 16.5443 1
    endloop
  endfacet
  facet normal 0 1 -0
    outer loop
      vertex 99.2 1.6 1
      vertex 54.2 1.6 17
      vertex 99.2 1.6 17
    endloop
  endfacet
  facet normal 0 1 0
    outer loop
      vertex 54.2 1.6 17
      vertex 99.2 1.6 1
      vertex 54.2 1.6 1
    endloop
  endfacet
  facet normal 0 -1 0
    outer loop
      vertex 54.2 42.6 1
      vertex 99.2 42.6 17
      vertex 54.2 42.6 17
    endloop
  endfacet
  facet normal 0 -1 -0
    outer loop
      vertex 99.2 42.6 17
      vertex 54.2 42.6 1
      vertex 99.2 42.6 1
    endloop
  endfacet
  facet normal 1 -0 0
    outer loop
      vertex 54.2 44.2 17
      vertex 54.2 85.2 1
      vertex 54.2 85.2 17
    endloop
  endfacet
  facet normal 1 0 0
    outer loop
      vertex 54.2 85.2 1
      vertex 54.2 44.2 17
      vertex 54.2 44.2 1
    endloop
  endfacet
  facet normal -1 0 0
    outer loop
      vertex 99.2 44.2 1
      vertex 99.2 85.2 17
      vertex 99.2 85.2 1
    endloop
  endfacet
  facet normal -1 -0 0
    outer loop
      vertex 99.2 85.2 17
      vertex 99.2 44.2 1
      vertex 99.2 44.2 17
    endloop
  endfacet
  facet normal 0 0 1
    outer loop
      vertex 99.2 85.2 1
      vertex 86.7 64.7 1
      vertex 99.2 44.2 1
    endloop
  endfacet
  facet normal 0 0 1
    outer loop
      vertex 99.2 85.2 1
      vertex 86.5079 66.6509 1
      vertex 86.7 64.7 1
    endloop
  endfacet
  facet normal 0 0 1
    outer loop
      vertex 99.2 85.2 1
      vertex 85.9388 68.5268 1
      vertex 86.5079 66.6509 1
    endloop
  endfacet
  facet normal 0 0 1
    outer loop
      vertex 99.2 85.2 1
      vertex 85.0147 70.2557 1
      vertex 85.9388 68.5268 1
    endloop
  endfacet
  facet normal 0 0 1
    outer loop
      vertex 99.2 85.2 1
      vertex 83.7711 71.7711 1
      vertex 85.0147 70.2557 1
    endloop
  endfacet
  facet normal 0 0 1
    outer loop
      vertex 99.2 85.2 1
      vertex 82.2557 73.0147 1
      vertex 83.7711 71.7711 1
    endloop
  endfacet
  facet normal 0 0 1
    outer loop
      vertex 99.2 85.2 1
      vertex 80.5268 73.9388 1
      vertex 82.2557 73.0147 1
    endloop
  endfacet
  facet normal 0 0 1
    outer loop
      vertex 99.2 85.2 1
      vertex 78.6509 74.5079 1
      vertex 80.5268 73.9388 1
    endloop
  endfacet
  facet normal 0 0 1
    outer loop
      vertex 99.2 85.2 1
      vertex 76.7 74.7 1
      vertex 78.6509 74.5079 1
    endloop
  endfacet
  facet normal -0 0 1
    outer loop
      vertex 54.2 85.2 1
      vertex 76.7 74.7 1
      vertex 99.2 85.2 1
    endloop
  endfacet
  facet normal 0 0 1
    outer loop
      vertex 76.7 74.7 1
      vertex 54.2 85.2 1
      vertex 74.7491 74.5079 1
    endloop
  endfacet
  facet normal 0 0 1
    outer loop
      vertex 66.8922 66.6509 1
      vertex 54.2 85.2 1
      vertex 66.7 64.7 1
    endloop
  endfacet
  facet normal 0 0 1
    outer loop
      vertex 67.4612 68.5268 1
      vertex 54.2 85.2 1
      vertex 66.8922 66.6509 1
    endloop
  endfacet
  facet normal 0 0 1
    outer loop
      vertex 68.3853 70.2557 1
      vertex 54.2 85.2 1
      vertex 67.4612 68.5268 1
    endloop
  endfacet
  facet normal 0 0 1
    outer loop
      vertex 69.6289 71.7711 1
      vertex 54.2 85.2 1
      vertex 68.3853 70.2557 1
    endloop
  endfacet
  facet normal 0 0 1
    outer loop
      vertex 71.1443 73.0147 1
      vertex 54.2 85.2 1
      vertex 69.6289 71.7711 1
    endloop
  endfacet
  facet normal 0 0 1
    outer loop
      vertex 72.8732 73.9388 1
      vertex 54.2 85.2 1
      vertex 71.1443 73.0147 1
    endloop
  endfacet
  facet normal 0 0 1
    outer loop
      vertex 74.7491 74.5079 1
      vertex 54.2 85.2 1
      vertex 72.8732 73.9388 1
    endloop
  endfacet
  facet normal -0 0 1
    outer loop
      vertex 86.5079 62.7491 1
      vertex 99.2 44.2 1
      vertex 86.7 64.7 1
    endloop
  endfacet
  facet normal -0 0 1
    outer loop
      vertex 85.9388 60.8732 1
      vertex 99.2 44.2 1
      vertex 86.5079 62.7491 1
    endloop
  endfacet
  facet normal -0 0 1
    outer loop
      vertex 85.0147 59.1443 1
      vertex 99.2 44.2 1
      vertex 85.9388 60.8732 1
    endloop
  endfacet
  facet normal -0 0 1
    outer loop
      vertex 83.7711 57.6289 1
      vertex 99.2 44.2 1
      vertex 85.0147 59.1443 1
    endloop
  endfacet
  facet normal -0 0 1
    outer loop
      vertex 82.2557 56.3853 1
      vertex 99.2 44.2 1
      vertex 83.7711 57.6289 1
    endloop
  endfacet
  facet normal -0 0 1
    outer loop
      vertex 80.5268 55.4612 1
      vertex 99.2 44.2 1
      vertex 82.2557 56.3853 1
    endloop
  endfacet
  facet normal -0 0 1
    outer loop
      vertex 78.6509 54.8921 1
      vertex 99.2 44.2 1
      vertex 80.5268 55.4612 1
    endloop
  endfacet
  facet normal -0 0 1
    outer loop
      vertex 76.7 54.7 1
      vertex 99.2 44.2 1
      vertex 78.6509 54.8921 1
    endloop
  endfacet
  facet normal 0 0 1
    outer loop
      vertex 54.2 44.2 1
      vertex 76.7 54.7 1
      vertex 74.7491 54.8921 1
    endloop
  endfacet
  facet normal 0 0 1
    outer loop
      vertex 54.2 44.2 1
      vertex 74.7491 54.8921 1
      vertex 72.8732 55.4612 1
    endloop
  endfacet
  facet normal 0 0 1
    outer loop
      vertex 54.2 44.2 1
      vertex 66.7 64.7 1
      vertex 54.2 85.2 1
    endloop
  endfacet
  facet normal 0 0 1
    outer loop
      vertex 66.7 64.7 1
      vertex 54.2 44.2 1
      vertex 66.8922 62.7491 1
    endloop
  endfacet
  facet normal 0 0 1
    outer loop
      vertex 66.8922 62.7491 1
      vertex 54.2 44.2 1
      vertex 67.4612 60.8732 1
    endloop
  endfacet
  facet normal 0 0 1
    outer loop
      vertex 76.7 54.7 1
      vertex 54.2 44.2 1
      vertex 99.2 44.2 1
    endloop
  endfacet
  facet normal 0 0 1
    outer loop
      vertex 71.1443 56.3853 1
      vertex 54.2 44.2 1
      vertex 72.8732 55.4612 1
    endloop
  endfacet
  facet normal 0 0 1
    outer loop
      vertex 69.6289 57.6289 1
      vertex 54.2 44.2 1
      vertex 71.1443 56.3853 1
    endloop
  endfacet
  facet normal 0 0 1
    outer loop
      vertex 68.3853 59.1443 1
      vertex 54.2 44.2 1
      vertex 69.6289 57.6289 1
    endloop
  endfacet
  facet normal 0 0 1
    outer loop
      vertex 67.4612 60.8732 1
      vertex 54.2 44.2 1
      vertex 68.3853 59.1443 1
    endloop
  endfacet
  facet normal 0 1 -0
    outer loop
      vertex 99.2 44.2 1
      vertex 54.2 44.2 17
      vertex 99.2 44.2 17
    endloop
  endfacet
  facet normal 0 1 0
    outer loop
      vertex 54.2 44.2 17
      vertex 99.2 44.2 1
      vertex 54.2 44.2 1
    endloop
  endfacet
  facet normal 0 -1 0
    outer loop
      vertex 54.2 85.2 1
      vertex 99.2 85.2 17
      vertex 54.2 85.2 17
    endloop
  endfacet
  facet normal 0 -1 -0
    outer loop
      vertex 99.2 85.2 17
      vertex 54.2 85.2 1
      vertex 99.2 85.2 1
    endloop
  endfacet
  facet normal -0.995185 -0.0980166 0
    outer loop
      vertex 37.1 22.1 0
      vertex 36.9079 24.0509 1
      vertex 36.9079 24.0509 0
    endloop
  endfacet
  facet normal -0.995185 -0.0980166 0
    outer loop
      vertex 36.9079 24.0509 1
      vertex 37.1 22.1 0
      vertex 37.1 22.1 1
    endloop
  endfacet
  facet normal 0.995185 -0.0980176 0
    outer loop
      vertex 17.1 22.1 1
      vertex 17.2921 24.0509 0
      vertex 17.2921 24.0509 1
    endloop
  endfacet
  facet normal 0.995185 -0.0980176 0
    outer loop
      vertex 17.2921 24.0509 0
      vertex 17.1 22.1 1
      vertex 17.1 22.1 0
    endloop
  endfacet
  facet normal -0.0980166 -0.995185 0
    outer loop
      vertex 27.1 32.1 0
      vertex 29.0509 31.9079 1
      vertex 27.1 32.1 1
    endloop
  endfacet
  facet normal -0.0980166 -0.995185 -0
    outer loop
      vertex 29.0509 31.9079 1
      vertex 27.1 32.1 0
      vertex 29.0509 31.9079 0
    endloop
  endfacet
  facet normal 0.77301 0.634393 0
    outer loop
      vertex 20.0289 15.0289 1
      vertex 18.7853 16.5443 0
      vertex 18.7853 16.5443 1
    endloop
  endfacet
  facet normal 0.77301 0.634393 0
    outer loop
      vertex 18.7853 16.5443 0
      vertex 20.0289 15.0289 1
      vertex 20.0289 15.0289 0
    endloop
  endfacet
  facet normal -0.634394 -0.77301 0
    outer loop
      vertex 32.6557 30.4147 0
      vertex 34.1711 29.1711 1
      vertex 32.6557 30.4147 1
    endloop
  endfacet
  facet normal -0.634394 -0.77301 -0
    outer loop
      vertex 34.1711 29.1711 1
      vertex 32.6557 30.4147 0
      vertex 34.1711 29.1711 0
    endloop
  endfacet
  facet normal -0.471397 -0.881921 0
    outer loop
      vertex 30.9268 31.3388 0
      vertex 32.6557 30.4147 1
      vertex 30.9268 31.3388 1
    endloop
  endfacet
  facet normal -0.471397 -0.881921 -0
    outer loop
      vertex 32.6557 30.4147 1
      vertex 30.9268 31.3388 0
      vertex 32.6557 30.4147 0
    endloop
  endfacet
  facet normal 0.634394 -0.77301 0
    outer loop
      vertex 20.0289 29.1711 0
      vertex 21.5443 30.4147 1
      vertex 20.0289 29.1711 1
    endloop
  endfacet
  facet normal 0.634394 -0.77301 0
    outer loop
      vertex 21.5443 30.4147 1
      vertex 20.0289 29.1711 0
      vertex 21.5443 30.4147 0
    endloop
  endfacet
  facet normal 0.290284 -0.95694 0
    outer loop
      vertex 23.2732 31.3388 0
      vertex 25.1491 31.9079 1
      vertex 23.2732 31.3388 1
    endloop
  endfacet
  facet normal 0.290284 -0.95694 0
    outer loop
      vertex 25.1491 31.9079 1
      vertex 23.2732 31.3388 0
      vertex 25.1491 31.9079 0
    endloop
  endfacet
  facet normal -0.881921 -0.471397 0
    outer loop
      vertex 36.3388 25.9268 0
      vertex 35.4147 27.6557 1
      vertex 35.4147 27.6557 0
    endloop
  endfacet
  facet normal -0.881921 -0.471397 0
    outer loop
      vertex 35.4147 27.6557 1
      vertex 36.3388 25.9268 0
      vertex 36.3388 25.9268 1
    endloop
  endfacet
  facet normal -0.95694 -0.290285 0
    outer loop
      vertex 36.9079 24.0509 0
      vertex 36.3388 25.9268 1
      vertex 36.3388 25.9268 0
    endloop
  endfacet
  facet normal -0.95694 -0.290285 0
    outer loop
      vertex 36.3388 25.9268 1
      vertex 36.9079 24.0509 0
      vertex 36.9079 24.0509 1
    endloop
  endfacet
  facet normal -0.77301 -0.634394 0
    outer loop
      vertex 35.4147 27.6557 0
      vertex 34.1711 29.1711 1
      vertex 34.1711 29.1711 0
    endloop
  endfacet
  facet normal -0.77301 -0.634394 0
    outer loop
      vertex 34.1711 29.1711 1
      vertex 35.4147 27.6557 0
      vertex 35.4147 27.6557 1
    endloop
  endfacet
  facet normal -0.290285 -0.95694 0
    outer loop
      vertex 29.0509 31.9079 0
      vertex 30.9268 31.3388 1
      vertex 29.0509 31.9079 1
    endloop
  endfacet
  facet normal -0.290285 -0.95694 -0
    outer loop
      vertex 30.9268 31.3388 1
      vertex 29.0509 31.9079 0
      vertex 30.9268 31.3388 0
    endloop
  endfacet
  facet normal 0.881921 -0.471397 0
    outer loop
      vertex 17.8612 25.9268 1
      vertex 18.7853 27.6557 0
      vertex 18.7853 27.6557 1
    endloop
  endfacet
  facet normal 0.881921 -0.471397 0
    outer loop
      vertex 18.7853 27.6557 0
      vertex 17.8612 25.9268 1
      vertex 17.8612 25.9268 0
    endloop
  endfacet
  facet normal 0.773011 -0.634393 0
    outer loop
      vertex 18.7853 27.6557 1
      vertex 20.0289 29.1711 0
      vertex 20.0289 29.1711 1
    endloop
  endfacet
  facet normal 0.773011 -0.634393 0
    outer loop
      vertex 20.0289 29.1711 0
      vertex 18.7853 27.6557 1
      vertex 18.7853 27.6557 0
    endloop
  endfacet
  facet normal 0.95694 -0.290285 0
    outer loop
      vertex 17.2921 24.0509 1
      vertex 17.8612 25.9268 0
      vertex 17.8612 25.9268 1
    endloop
  endfacet
  facet normal 0.95694 -0.290285 0
    outer loop
      vertex 17.8612 25.9268 0
      vertex 17.2921 24.0509 1
      vertex 17.2921 24.0509 0
    endloop
  endfacet
  facet normal 0.471397 -0.881921 0
    outer loop
      vertex 21.5443 30.4147 0
      vertex 23.2732 31.3388 1
      vertex 21.5443 30.4147 1
    endloop
  endfacet
  facet normal 0.471397 -0.881921 0
    outer loop
      vertex 23.2732 31.3388 1
      vertex 21.5443 30.4147 0
      vertex 23.2732 31.3388 0
    endloop
  endfacet
  facet normal 0.0980168 -0.995185 0
    outer loop
      vertex 25.1491 31.9079 0
      vertex 27.1 32.1 1
      vertex 25.1491 31.9079 1
    endloop
  endfacet
  facet normal 0.0980168 -0.995185 0
    outer loop
      vertex 27.1 32.1 1
      vertex 25.1491 31.9079 0
      vertex 27.1 32.1 0
    endloop
  endfacet
  facet normal -0.0980171 0.995185 0
    outer loop
      vertex 29.0509 12.2921 0
      vertex 27.1 12.1 1
      vertex 29.0509 12.2921 1
    endloop
  endfacet
  facet normal -0.0980171 0.995185 0
    outer loop
      vertex 27.1 12.1 1
      vertex 29.0509 12.2921 0
      vertex 27.1 12.1 0
    endloop
  endfacet
  facet normal -0.471397 0.881921 0
    outer loop
      vertex 32.6557 13.7853 0
      vertex 30.9268 12.8612 1
      vertex 32.6557 13.7853 1
    endloop
  endfacet
  facet normal -0.471397 0.881921 0
    outer loop
      vertex 30.9268 12.8612 1
      vertex 32.6557 13.7853 0
      vertex 30.9268 12.8612 0
    endloop
  endfacet
  facet normal 0.634393 0.77301 -0
    outer loop
      vertex 21.5443 13.7853 0
      vertex 20.0289 15.0289 1
      vertex 21.5443 13.7853 1
    endloop
  endfacet
  facet normal 0.634393 0.77301 0
    outer loop
      vertex 20.0289 15.0289 1
      vertex 21.5443 13.7853 0
      vertex 20.0289 15.0289 0
    endloop
  endfacet
  facet normal 0.290284 0.95694 -0
    outer loop
      vertex 25.1491 12.2921 0
      vertex 23.2732 12.8612 1
      vertex 25.1491 12.2921 1
    endloop
  endfacet
  facet normal 0.290284 0.95694 0
    outer loop
      vertex 23.2732 12.8612 1
      vertex 25.1491 12.2921 0
      vertex 23.2732 12.8612 0
    endloop
  endfacet
  facet normal 0.881921 0.471397 0
    outer loop
      vertex 18.7853 16.5443 1
      vertex 17.8612 18.2732 0
      vertex 17.8612 18.2732 1
    endloop
  endfacet
  facet normal 0.881921 0.471397 0
    outer loop
      vertex 17.8612 18.2732 0
      vertex 18.7853 16.5443 1
      vertex 18.7853 16.5443 0
    endloop
  endfacet
  facet normal 0.995185 0.0980178 0
    outer loop
      vertex 17.2921 20.1491 1
      vertex 17.1 22.1 0
      vertex 17.1 22.1 1
    endloop
  endfacet
  facet normal 0.995185 0.0980178 0
    outer loop
      vertex 17.1 22.1 0
      vertex 17.2921 20.1491 1
      vertex 17.2921 20.1491 0
    endloop
  endfacet
  facet normal -0.290285 0.95694 0
    outer loop
      vertex 30.9268 12.8612 0
      vertex 29.0509 12.2921 1
      vertex 30.9268 12.8612 1
    endloop
  endfacet
  facet normal -0.290285 0.95694 0
    outer loop
      vertex 29.0509 12.2921 1
      vertex 30.9268 12.8612 0
      vertex 29.0509 12.2921 0
    endloop
  endfacet
  facet normal -0.634393 0.77301 0
    outer loop
      vertex 34.1711 15.0289 0
      vertex 32.6557 13.7853 1
      vertex 34.1711 15.0289 1
    endloop
  endfacet
  facet normal -0.634393 0.77301 0
    outer loop
      vertex 32.6557 13.7853 1
      vertex 34.1711 15.0289 0
      vertex 32.6557 13.7853 0
    endloop
  endfacet
  facet normal -0.95694 0.290284 0
    outer loop
      vertex 36.3388 18.2732 0
      vertex 36.9079 20.1491 1
      vertex 36.9079 20.1491 0
    endloop
  endfacet
  facet normal -0.95694 0.290284 0
    outer loop
      vertex 36.9079 20.1491 1
      vertex 36.3388 18.2732 0
      vertex 36.3388 18.2732 1
    endloop
  endfacet
  facet normal -0.881921 0.471397 0
    outer loop
      vertex 35.4147 16.5443 0
      vertex 36.3388 18.2732 1
      vertex 36.3388 18.2732 0
    endloop
  endfacet
  facet normal -0.881921 0.471397 0
    outer loop
      vertex 36.3388 18.2732 1
      vertex 35.4147 16.5443 0
      vertex 35.4147 16.5443 1
    endloop
  endfacet
  facet normal -0.995185 0.0980168 0
    outer loop
      vertex 36.9079 20.1491 0
      vertex 37.1 22.1 1
      vertex 37.1 22.1 0
    endloop
  endfacet
  facet normal -0.995185 0.0980168 0
    outer loop
      vertex 37.1 22.1 1
      vertex 36.9079 20.1491 0
      vertex 36.9079 20.1491 1
    endloop
  endfacet
  facet normal 0.471397 0.881921 -0
    outer loop
      vertex 23.2732 12.8612 0
      vertex 21.5443 13.7853 1
      vertex 23.2732 12.8612 1
    endloop
  endfacet
  facet normal 0.471397 0.881921 0
    outer loop
      vertex 21.5443 13.7853 1
      vertex 23.2732 12.8612 0
      vertex 21.5443 13.7853 0
    endloop
  endfacet
  facet normal 0.0980173 0.995185 -0
    outer loop
      vertex 27.1 12.1 0
      vertex 25.1491 12.2921 1
      vertex 27.1 12.1 1
    endloop
  endfacet
  facet normal 0.0980173 0.995185 0
    outer loop
      vertex 25.1491 12.2921 1
      vertex 27.1 12.1 0
      vertex 25.1491 12.2921 0
    endloop
  endfacet
  facet normal 0.95694 0.290284 0
    outer loop
      vertex 17.8612 18.2732 1
      vertex 17.2921 20.1491 0
      vertex 17.2921 20.1491 1
    endloop
  endfacet
  facet normal 0.95694 0.290284 0
    outer loop
      vertex 17.2921 20.1491 0
      vertex 17.8612 18.2732 1
      vertex 17.8612 18.2732 0
    endloop
  endfacet
  facet normal -0.77301 0.634394 0
    outer loop
      vertex 34.1711 15.0289 0
      vertex 35.4147 16.5443 1
      vertex 35.4147 16.5443 0
    endloop
  endfacet
  facet normal -0.77301 0.634394 0
    outer loop
      vertex 35.4147 16.5443 1
      vertex 34.1711 15.0289 0
      vertex 34.1711 15.0289 1
    endloop
  endfacet
  facet normal -0.995185 -0.0980166 0
    outer loop
      vertex 37.1 64.7 0
      vertex 36.9079 66.6509 1
      vertex 36.9079 66.6509 0
    endloop
  endfacet
  facet normal -0.995185 -0.0980166 0
    outer loop
      vertex 36.9079 66.6509 1
      vertex 37.1 64.7 0
      vertex 37.1 64.7 1
    endloop
  endfacet
  facet normal 0.0980168 -0.995185 0
    outer loop
      vertex 25.1491 74.5079 0
      vertex 27.1 74.7 1
      vertex 25.1491 74.5079 1
    endloop
  endfacet
  facet normal 0.0980168 -0.995185 0
    outer loop
      vertex 27.1 74.7 1
      vertex 25.1491 74.5079 0
      vertex 27.1 74.7 0
    endloop
  endfacet
  facet normal -0.0980166 0.995185 0
    outer loop
      vertex 29.0509 54.8921 0
      vertex 27.1 54.7 1
      vertex 29.0509 54.8921 1
    endloop
  endfacet
  facet normal -0.0980166 0.995185 0
    outer loop
      vertex 27.1 54.7 1
      vertex 29.0509 54.8921 0
      vertex 27.1 54.7 0
    endloop
  endfacet
  facet normal -0.77301 0.634394 0
    outer loop
      vertex 34.1711 57.6289 0
      vertex 35.4147 59.1443 1
      vertex 35.4147 59.1443 0
    endloop
  endfacet
  facet normal -0.77301 0.634394 0
    outer loop
      vertex 35.4147 59.1443 1
      vertex 34.1711 57.6289 0
      vertex 34.1711 57.6289 1
    endloop
  endfacet
  facet normal -0.634394 -0.77301 0
    outer loop
      vertex 32.6557 73.0147 0
      vertex 34.1711 71.7711 1
      vertex 32.6557 73.0147 1
    endloop
  endfacet
  facet normal -0.634394 -0.77301 -0
    outer loop
      vertex 34.1711 71.7711 1
      vertex 32.6557 73.0147 0
      vertex 34.1711 71.7711 0
    endloop
  endfacet
  facet normal 0.773011 -0.634393 0
    outer loop
      vertex 18.7853 70.2557 1
      vertex 20.0289 71.7711 0
      vertex 20.0289 71.7711 1
    endloop
  endfacet
  facet normal 0.773011 -0.634393 0
    outer loop
      vertex 20.0289 71.7711 0
      vertex 18.7853 70.2557 1
      vertex 18.7853 70.2557 0
    endloop
  endfacet
  facet normal 0.471398 -0.881921 0
    outer loop
      vertex 21.5443 73.0147 0
      vertex 23.2732 73.9388 1
      vertex 21.5443 73.0147 1
    endloop
  endfacet
  facet normal 0.471398 -0.881921 0
    outer loop
      vertex 23.2732 73.9388 1
      vertex 21.5443 73.0147 0
      vertex 23.2732 73.9388 0
    endloop
  endfacet
  facet normal -0.881921 -0.471397 0
    outer loop
      vertex 36.3388 68.5268 0
      vertex 35.4147 70.2557 1
      vertex 35.4147 70.2557 0
    endloop
  endfacet
  facet normal -0.881921 -0.471397 0
    outer loop
      vertex 35.4147 70.2557 1
      vertex 36.3388 68.5268 0
      vertex 36.3388 68.5268 1
    endloop
  endfacet
  facet normal -0.95694 -0.290285 0
    outer loop
      vertex 36.9079 66.6509 0
      vertex 36.3388 68.5268 1
      vertex 36.3388 68.5268 0
    endloop
  endfacet
  facet normal -0.95694 -0.290285 0
    outer loop
      vertex 36.3388 68.5268 1
      vertex 36.9079 66.6509 0
      vertex 36.9079 66.6509 1
    endloop
  endfacet
  facet normal -0.77301 -0.634394 0
    outer loop
      vertex 35.4147 70.2557 0
      vertex 34.1711 71.7711 1
      vertex 34.1711 71.7711 0
    endloop
  endfacet
  facet normal -0.77301 -0.634394 0
    outer loop
      vertex 34.1711 71.7711 1
      vertex 35.4147 70.2557 0
      vertex 35.4147 70.2557 1
    endloop
  endfacet
  facet normal -0.290283 -0.956941 0
    outer loop
      vertex 29.0509 74.5079 0
      vertex 30.9268 73.9388 1
      vertex 29.0509 74.5079 1
    endloop
  endfacet
  facet normal -0.290283 -0.956941 -0
    outer loop
      vertex 30.9268 73.9388 1
      vertex 29.0509 74.5079 0
      vertex 30.9268 73.9388 0
    endloop
  endfacet
  facet normal -0.0980166 -0.995185 0
    outer loop
      vertex 27.1 74.7 0
      vertex 29.0509 74.5079 1
      vertex 27.1 74.7 1
    endloop
  endfacet
  facet normal -0.0980166 -0.995185 -0
    outer loop
      vertex 29.0509 74.5079 1
      vertex 27.1 74.7 0
      vertex 29.0509 74.5079 0
    endloop
  endfacet
  facet normal -0.471398 -0.88192 0
    outer loop
      vertex 30.9268 73.9388 0
      vertex 32.6557 73.0147 1
      vertex 30.9268 73.9388 1
    endloop
  endfacet
  facet normal -0.471398 -0.88192 -0
    outer loop
      vertex 32.6557 73.0147 1
      vertex 30.9268 73.9388 0
      vertex 32.6557 73.0147 0
    endloop
  endfacet
  facet normal 0.95694 -0.290285 0
    outer loop
      vertex 17.2921 66.6509 1
      vertex 17.8612 68.5268 0
      vertex 17.8612 68.5268 1
    endloop
  endfacet
  facet normal 0.95694 -0.290285 0
    outer loop
      vertex 17.8612 68.5268 0
      vertex 17.2921 66.6509 1
      vertex 17.2921 66.6509 0
    endloop
  endfacet
  facet normal 0.881921 -0.471397 0
    outer loop
      vertex 17.8612 68.5268 1
      vertex 18.7853 70.2557 0
      vertex 18.7853 70.2557 1
    endloop
  endfacet
  facet normal 0.881921 -0.471397 0
    outer loop
      vertex 18.7853 70.2557 0
      vertex 17.8612 68.5268 1
      vertex 17.8612 68.5268 0
    endloop
  endfacet
  facet normal 0.995185 -0.0980176 0
    outer loop
      vertex 17.1 64.7 1
      vertex 17.2921 66.6509 0
      vertex 17.2921 66.6509 1
    endloop
  endfacet
  facet normal 0.995185 -0.0980176 0
    outer loop
      vertex 17.2921 66.6509 0
      vertex 17.1 64.7 1
      vertex 17.1 64.7 0
    endloop
  endfacet
  facet normal 0.634394 -0.77301 0
    outer loop
      vertex 20.0289 71.7711 0
      vertex 21.5443 73.0147 1
      vertex 20.0289 71.7711 1
    endloop
  endfacet
  facet normal 0.634394 -0.77301 0
    outer loop
      vertex 21.5443 73.0147 1
      vertex 20.0289 71.7711 0
      vertex 21.5443 73.0147 0
    endloop
  endfacet
  facet normal 0.290283 -0.956941 0
    outer loop
      vertex 23.2732 73.9388 0
      vertex 25.1491 74.5079 1
      vertex 23.2732 73.9388 1
    endloop
  endfacet
  facet normal 0.290283 -0.956941 0
    outer loop
      vertex 25.1491 74.5079 1
      vertex 23.2732 73.9388 0
      vertex 25.1491 74.5079 0
    endloop
  endfacet
  facet normal -0.995185 0.0980168 0
    outer loop
      vertex 36.9079 62.7491 0
      vertex 37.1 64.7 1
      vertex 37.1 64.7 0
    endloop
  endfacet
  facet normal -0.995185 0.0980168 0
    outer loop
      vertex 37.1 64.7 1
      vertex 36.9079 62.7491 0
      vertex 36.9079 62.7491 1
    endloop
  endfacet
  facet normal -0.290285 0.95694 0
    outer loop
      vertex 30.9268 55.4612 0
      vertex 29.0509 54.8921 1
      vertex 30.9268 55.4612 1
    endloop
  endfacet
  facet normal -0.290285 0.95694 0
    outer loop
      vertex 29.0509 54.8921 1
      vertex 30.9268 55.4612 0
      vertex 29.0509 54.8921 0
    endloop
  endfacet
  facet normal 0.995185 0.0980178 0
    outer loop
      vertex 17.2921 62.7491 1
      vertex 17.1 64.7 0
      vertex 17.1 64.7 1
    endloop
  endfacet
  facet normal 0.995185 0.0980178 0
    outer loop
      vertex 17.1 64.7 0
      vertex 17.2921 62.7491 1
      vertex 17.2921 62.7491 0
    endloop
  endfacet
  facet normal -0.881921 0.471397 0
    outer loop
      vertex 35.4147 59.1443 0
      vertex 36.3388 60.8732 1
      vertex 36.3388 60.8732 0
    endloop
  endfacet
  facet normal -0.881921 0.471397 0
    outer loop
      vertex 36.3388 60.8732 1
      vertex 35.4147 59.1443 0
      vertex 35.4147 59.1443 1
    endloop
  endfacet
  facet normal 0.471397 0.881921 -0
    outer loop
      vertex 23.2732 55.4612 0
      vertex 21.5443 56.3853 1
      vertex 23.2732 55.4612 1
    endloop
  endfacet
  facet normal 0.471397 0.881921 0
    outer loop
      vertex 21.5443 56.3853 1
      vertex 23.2732 55.4612 0
      vertex 21.5443 56.3853 0
    endloop
  endfacet
  facet normal 0.773011 0.634393 0
    outer loop
      vertex 20.0289 57.6289 1
      vertex 18.7853 59.1443 0
      vertex 18.7853 59.1443 1
    endloop
  endfacet
  facet normal 0.773011 0.634393 0
    outer loop
      vertex 18.7853 59.1443 0
      vertex 20.0289 57.6289 1
      vertex 20.0289 57.6289 0
    endloop
  endfacet
  facet normal 0.95694 0.290285 0
    outer loop
      vertex 17.8612 60.8732 1
      vertex 17.2921 62.7491 0
      vertex 17.2921 62.7491 1
    endloop
  endfacet
  facet normal 0.95694 0.290285 0
    outer loop
      vertex 17.2921 62.7491 0
      vertex 17.8612 60.8732 1
      vertex 17.8612 60.8732 0
    endloop
  endfacet
  facet normal -0.634394 0.77301 0
    outer loop
      vertex 34.1711 57.6289 0
      vertex 32.6557 56.3853 1
      vertex 34.1711 57.6289 1
    endloop
  endfacet
  facet normal -0.634394 0.77301 0
    outer loop
      vertex 32.6557 56.3853 1
      vertex 34.1711 57.6289 0
      vertex 32.6557 56.3853 0
    endloop
  endfacet
  facet normal -0.471397 0.881921 0
    outer loop
      vertex 32.6557 56.3853 0
      vertex 30.9268 55.4612 1
      vertex 32.6557 56.3853 1
    endloop
  endfacet
  facet normal -0.471397 0.881921 0
    outer loop
      vertex 30.9268 55.4612 1
      vertex 32.6557 56.3853 0
      vertex 30.9268 55.4612 0
    endloop
  endfacet
  facet normal -0.95694 0.290285 0
    outer loop
      vertex 36.3388 60.8732 0
      vertex 36.9079 62.7491 1
      vertex 36.9079 62.7491 0
    endloop
  endfacet
  facet normal -0.95694 0.290285 0
    outer loop
      vertex 36.9079 62.7491 1
      vertex 36.3388 60.8732 0
      vertex 36.3388 60.8732 1
    endloop
  endfacet
  facet normal 0.0980168 0.995185 -0
    outer loop
      vertex 27.1 54.7 0
      vertex 25.1491 54.8921 1
      vertex 27.1 54.7 1
    endloop
  endfacet
  facet normal 0.0980168 0.995185 0
    outer loop
      vertex 25.1491 54.8921 1
      vertex 27.1 54.7 0
      vertex 25.1491 54.8921 0
    endloop
  endfacet
  facet normal 0.290284 0.95694 -0
    outer loop
      vertex 25.1491 54.8921 0
      vertex 23.2732 55.4612 1
      vertex 25.1491 54.8921 1
    endloop
  endfacet
  facet normal 0.290284 0.95694 0
    outer loop
      vertex 23.2732 55.4612 1
      vertex 25.1491 54.8921 0
      vertex 23.2732 55.4612 0
    endloop
  endfacet
  facet normal 0.634394 0.77301 -0
    outer loop
      vertex 21.5443 56.3853 0
      vertex 20.0289 57.6289 1
      vertex 21.5443 56.3853 1
    endloop
  endfacet
  facet normal 0.634394 0.77301 0
    outer loop
      vertex 20.0289 57.6289 1
      vertex 21.5443 56.3853 0
      vertex 20.0289 57.6289 0
    endloop
  endfacet
  facet normal 0.881921 0.471397 0
    outer loop
      vertex 18.7853 59.1443 1
      vertex 17.8612 60.8732 0
      vertex 17.8612 60.8732 1
    endloop
  endfacet
  facet normal 0.881921 0.471397 0
    outer loop
      vertex 17.8612 60.8732 0
      vertex 18.7853 59.1443 1
      vertex 18.7853 59.1443 0
    endloop
  endfacet
  facet normal -0.471397 -0.881921 0
    outer loop
      vertex 80.5268 31.3388 0
      vertex 82.2557 30.4147 1
      vertex 80.5268 31.3388 1
    endloop
  endfacet
  facet normal -0.471397 -0.881921 -0
    outer loop
      vertex 82.2557 30.4147 1
      vertex 80.5268 31.3388 0
      vertex 82.2557 30.4147 0
    endloop
  endfacet
  facet normal -0.995185 0.0980168 0
    outer loop
      vertex 86.5079 20.1491 0
      vertex 86.7 22.1 1
      vertex 86.7 22.1 0
    endloop
  endfacet
  facet normal -0.995185 0.0980168 0
    outer loop
      vertex 86.7 22.1 1
      vertex 86.5079 20.1491 0
      vertex 86.5079 20.1491 1
    endloop
  endfacet
  facet normal 0.290285 0.95694 -0
    outer loop
      vertex 74.7491 12.2921 0
      vertex 72.8732 12.8612 1
      vertex 74.7491 12.2921 1
    endloop
  endfacet
  facet normal 0.290285 0.95694 0
    outer loop
      vertex 72.8732 12.8612 1
      vertex 74.7491 12.2921 0
      vertex 72.8732 12.8612 0
    endloop
  endfacet
  facet normal -0.0980166 -0.995185 0
    outer loop
      vertex 76.7 32.1 0
      vertex 78.6509 31.9079 1
      vertex 76.7 32.1 1
    endloop
  endfacet
  facet normal -0.0980166 -0.995185 -0
    outer loop
      vertex 78.6509 31.9079 1
      vertex 76.7 32.1 0
      vertex 78.6509 31.9079 0
    endloop
  endfacet
  facet normal 0.290285 -0.95694 0
    outer loop
      vertex 72.8732 31.3388 0
      vertex 74.7491 31.9079 1
      vertex 72.8732 31.3388 1
    endloop
  endfacet
  facet normal 0.290285 -0.95694 0
    outer loop
      vertex 74.7491 31.9079 1
      vertex 72.8732 31.3388 0
      vertex 74.7491 31.9079 0
    endloop
  endfacet
  facet normal 0.881922 -0.471395 0
    outer loop
      vertex 67.4612 25.9268 1
      vertex 68.3853 27.6557 0
      vertex 68.3853 27.6557 1
    endloop
  endfacet
  facet normal 0.881922 -0.471395 0
    outer loop
      vertex 68.3853 27.6557 0
      vertex 67.4612 25.9268 1
      vertex 67.4612 25.9268 0
    endloop
  endfacet
  facet normal -0.77301 0.634394 0
    outer loop
      vertex 83.7711 15.0289 0
      vertex 85.0147 16.5443 1
      vertex 85.0147 16.5443 0
    endloop
  endfacet
  facet normal -0.77301 0.634394 0
    outer loop
      vertex 85.0147 16.5443 1
      vertex 83.7711 15.0289 0
      vertex 83.7711 15.0289 1
    endloop
  endfacet
  facet normal -0.956941 -0.290283 0
    outer loop
      vertex 86.5079 24.0509 0
      vertex 85.9388 25.9268 1
      vertex 85.9388 25.9268 0
    endloop
  endfacet
  facet normal -0.956941 -0.290283 0
    outer loop
      vertex 85.9388 25.9268 1
      vertex 86.5079 24.0509 0
      vertex 86.5079 24.0509 1
    endloop
  endfacet
  facet normal -0.88192 -0.471398 0
    outer loop
      vertex 85.9388 25.9268 0
      vertex 85.0147 27.6557 1
      vertex 85.0147 27.6557 0
    endloop
  endfacet
  facet normal -0.88192 -0.471398 0
    outer loop
      vertex 85.0147 27.6557 1
      vertex 85.9388 25.9268 0
      vertex 85.9388 25.9268 1
    endloop
  endfacet
  facet normal -0.77301 -0.634394 0
    outer loop
      vertex 85.0147 27.6557 0
      vertex 83.7711 29.1711 1
      vertex 83.7711 29.1711 0
    endloop
  endfacet
  facet normal -0.77301 -0.634394 0
    outer loop
      vertex 83.7711 29.1711 1
      vertex 85.0147 27.6557 0
      vertex 85.0147 27.6557 1
    endloop
  endfacet
  facet normal -0.634394 -0.77301 0
    outer loop
      vertex 82.2557 30.4147 0
      vertex 83.7711 29.1711 1
      vertex 82.2557 30.4147 1
    endloop
  endfacet
  facet normal -0.634394 -0.77301 -0
    outer loop
      vertex 83.7711 29.1711 1
      vertex 82.2557 30.4147 0
      vertex 83.7711 29.1711 0
    endloop
  endfacet
  facet normal -0.290285 -0.95694 0
    outer loop
      vertex 78.6509 31.9079 0
      vertex 80.5268 31.3388 1
      vertex 78.6509 31.9079 1
    endloop
  endfacet
  facet normal -0.290285 -0.95694 -0
    outer loop
      vertex 80.5268 31.3388 1
      vertex 78.6509 31.9079 0
      vertex 80.5268 31.3388 0
    endloop
  endfacet
  facet normal 0.995184 -0.0980205 0
    outer loop
      vertex 66.7 22.1 1
      vertex 66.8922 24.0509 0
      vertex 66.8922 24.0509 1
    endloop
  endfacet
  facet normal 0.995184 -0.0980205 0
    outer loop
      vertex 66.8922 24.0509 0
      vertex 66.7 22.1 1
      vertex 66.7 22.1 0
    endloop
  endfacet
  facet normal 0.77301 -0.634394 0
    outer loop
      vertex 68.3853 27.6557 1
      vertex 69.6289 29.1711 0
      vertex 69.6289 29.1711 1
    endloop
  endfacet
  facet normal 0.77301 -0.634394 0
    outer loop
      vertex 69.6289 29.1711 0
      vertex 68.3853 27.6557 1
      vertex 68.3853 27.6557 0
    endloop
  endfacet
  facet normal 0.471395 -0.881922 0
    outer loop
      vertex 71.1443 30.4147 0
      vertex 72.8732 31.3388 1
      vertex 71.1443 30.4147 1
    endloop
  endfacet
  facet normal 0.471395 -0.881922 0
    outer loop
      vertex 72.8732 31.3388 1
      vertex 71.1443 30.4147 0
      vertex 72.8732 31.3388 0
    endloop
  endfacet
  facet normal 0.098017 -0.995185 0
    outer loop
      vertex 74.7491 31.9079 0
      vertex 76.7 32.1 1
      vertex 74.7491 31.9079 1
    endloop
  endfacet
  facet normal 0.098017 -0.995185 0
    outer loop
      vertex 76.7 32.1 1
      vertex 74.7491 31.9079 0
      vertex 76.7 32.1 0
    endloop
  endfacet
  facet normal 0.634394 -0.77301 0
    outer loop
      vertex 69.6289 29.1711 0
      vertex 71.1443 30.4147 1
      vertex 69.6289 29.1711 1
    endloop
  endfacet
  facet normal 0.634394 -0.77301 0
    outer loop
      vertex 71.1443 30.4147 1
      vertex 69.6289 29.1711 0
      vertex 71.1443 30.4147 0
    endloop
  endfacet
  facet normal -0.995185 -0.0980166 0
    outer loop
      vertex 86.7 22.1 0
      vertex 86.5079 24.0509 1
      vertex 86.5079 24.0509 0
    endloop
  endfacet
  facet normal -0.995185 -0.0980166 0
    outer loop
      vertex 86.5079 24.0509 1
      vertex 86.7 22.1 0
      vertex 86.7 22.1 1
    endloop
  endfacet
  facet normal -0.0980171 0.995185 0
    outer loop
      vertex 78.6509 12.2921 0
      vertex 76.7 12.1 1
      vertex 78.6509 12.2921 1
    endloop
  endfacet
  facet normal -0.0980171 0.995185 0
    outer loop
      vertex 76.7 12.1 1
      vertex 78.6509 12.2921 0
      vertex 76.7 12.1 0
    endloop
  endfacet
  facet normal -0.881921 0.471398 0
    outer loop
      vertex 85.0147 16.5443 0
      vertex 85.9388 18.2732 1
      vertex 85.9388 18.2732 0
    endloop
  endfacet
  facet normal -0.881921 0.471398 0
    outer loop
      vertex 85.9388 18.2732 1
      vertex 85.0147 16.5443 0
      vertex 85.0147 16.5443 1
    endloop
  endfacet
  facet normal -0.956941 0.290283 0
    outer loop
      vertex 85.9388 18.2732 0
      vertex 86.5079 20.1491 1
      vertex 86.5079 20.1491 0
    endloop
  endfacet
  facet normal -0.956941 0.290283 0
    outer loop
      vertex 86.5079 20.1491 1
      vertex 85.9388 18.2732 0
      vertex 85.9388 18.2732 1
    endloop
  endfacet
  facet normal -0.471397 0.881921 0
    outer loop
      vertex 82.2557 13.7853 0
      vertex 80.5268 12.8612 1
      vertex 82.2557 13.7853 1
    endloop
  endfacet
  facet normal -0.471397 0.881921 0
    outer loop
      vertex 80.5268 12.8612 1
      vertex 82.2557 13.7853 0
      vertex 80.5268 12.8612 0
    endloop
  endfacet
  facet normal -0.634393 0.77301 0
    outer loop
      vertex 83.7711 15.0289 0
      vertex 82.2557 13.7853 1
      vertex 83.7711 15.0289 1
    endloop
  endfacet
  facet normal -0.634393 0.77301 0
    outer loop
      vertex 82.2557 13.7853 1
      vertex 83.7711 15.0289 0
      vertex 82.2557 13.7853 0
    endloop
  endfacet
  facet normal 0.0980175 0.995185 -0
    outer loop
      vertex 76.7 12.1 0
      vertex 74.7491 12.2921 1
      vertex 76.7 12.1 1
    endloop
  endfacet
  facet normal 0.0980175 0.995185 0
    outer loop
      vertex 74.7491 12.2921 1
      vertex 76.7 12.1 0
      vertex 74.7491 12.2921 0
    endloop
  endfacet
  facet normal 0.634393 0.77301 -0
    outer loop
      vertex 71.1443 13.7853 0
      vertex 69.6289 15.0289 1
      vertex 71.1443 13.7853 1
    endloop
  endfacet
  facet normal 0.634393 0.77301 0
    outer loop
      vertex 69.6289 15.0289 1
      vertex 71.1443 13.7853 0
      vertex 69.6289 15.0289 0
    endloop
  endfacet
  facet normal 0.881922 0.471395 0
    outer loop
      vertex 68.3853 16.5443 1
      vertex 67.4612 18.2732 0
      vertex 67.4612 18.2732 1
    endloop
  endfacet
  facet normal 0.881922 0.471395 0
    outer loop
      vertex 67.4612 18.2732 0
      vertex 68.3853 16.5443 1
      vertex 68.3853 16.5443 0
    endloop
  endfacet
  facet normal 0.995184 0.0980207 0
    outer loop
      vertex 66.8922 20.1491 1
      vertex 66.7 22.1 0
      vertex 66.7 22.1 1
    endloop
  endfacet
  facet normal 0.995184 0.0980207 0
    outer loop
      vertex 66.7 22.1 0
      vertex 66.8922 20.1491 1
      vertex 66.8922 20.1491 0
    endloop
  endfacet
  facet normal 0.77301 0.634394 0
    outer loop
      vertex 69.6289 15.0289 1
      vertex 68.3853 16.5443 0
      vertex 68.3853 16.5443 1
    endloop
  endfacet
  facet normal 0.77301 0.634394 0
    outer loop
      vertex 68.3853 16.5443 0
      vertex 69.6289 15.0289 1
      vertex 69.6289 15.0289 0
    endloop
  endfacet
  facet normal 0.956941 -0.290283 0
    outer loop
      vertex 66.8922 24.0509 1
      vertex 67.4612 25.9268 0
      vertex 67.4612 25.9268 1
    endloop
  endfacet
  facet normal 0.956941 -0.290283 0
    outer loop
      vertex 67.4612 25.9268 0
      vertex 66.8922 24.0509 1
      vertex 66.8922 24.0509 0
    endloop
  endfacet
  facet normal -0.290285 0.95694 0
    outer loop
      vertex 80.5268 12.8612 0
      vertex 78.6509 12.2921 1
      vertex 80.5268 12.8612 1
    endloop
  endfacet
  facet normal -0.290285 0.95694 0
    outer loop
      vertex 78.6509 12.2921 1
      vertex 80.5268 12.8612 0
      vertex 78.6509 12.2921 0
    endloop
  endfacet
  facet normal 0.471395 0.881922 -0
    outer loop
      vertex 72.8732 12.8612 0
      vertex 71.1443 13.7853 1
      vertex 72.8732 12.8612 1
    endloop
  endfacet
  facet normal 0.471395 0.881922 0
    outer loop
      vertex 71.1443 13.7853 1
      vertex 72.8732 12.8612 0
      vertex 71.1443 13.7853 0
    endloop
  endfacet
  facet normal 0.956941 0.290283 0
    outer loop
      vertex 67.4612 18.2732 1
      vertex 66.8922 20.1491 0
      vertex 66.8922 20.1491 1
    endloop
  endfacet
  facet normal 0.956941 0.290283 0
    outer loop
      vertex 66.8922 20.1491 0
      vertex 67.4612 18.2732 1
      vertex 67.4612 18.2732 0
    endloop
  endfacet
  facet normal -0.88192 -0.471398 0
    outer loop
      vertex 85.9388 68.5268 0
      vertex 85.0147 70.2557 1
      vertex 85.0147 70.2557 0
    endloop
  endfacet
  facet normal -0.88192 -0.471398 0
    outer loop
      vertex 85.0147 70.2557 1
      vertex 85.9388 68.5268 0
      vertex 85.9388 68.5268 1
    endloop
  endfacet
  facet normal 0.995184 -0.0980205 0
    outer loop
      vertex 66.7 64.7 1
      vertex 66.8922 66.6509 0
      vertex 66.8922 66.6509 1
    endloop
  endfacet
  facet normal 0.995184 -0.0980205 0
    outer loop
      vertex 66.8922 66.6509 0
      vertex 66.7 64.7 1
      vertex 66.7 64.7 0
    endloop
  endfacet
  facet normal -0.77301 -0.634394 0
    outer loop
      vertex 85.0147 70.2557 0
      vertex 83.7711 71.7711 1
      vertex 83.7711 71.7711 0
    endloop
  endfacet
  facet normal -0.77301 -0.634394 0
    outer loop
      vertex 83.7711 71.7711 1
      vertex 85.0147 70.2557 0
      vertex 85.0147 70.2557 1
    endloop
  endfacet
  facet normal -0.290283 -0.956941 0
    outer loop
      vertex 78.6509 74.5079 0
      vertex 80.5268 73.9388 1
      vertex 78.6509 74.5079 1
    endloop
  endfacet
  facet normal -0.290283 -0.956941 -0
    outer loop
      vertex 80.5268 73.9388 1
      vertex 78.6509 74.5079 0
      vertex 80.5268 73.9388 0
    endloop
  endfacet
  facet normal 0.471397 -0.881921 0
    outer loop
      vertex 71.1443 73.0147 0
      vertex 72.8732 73.9388 1
      vertex 71.1443 73.0147 1
    endloop
  endfacet
  facet normal 0.471397 -0.881921 0
    outer loop
      vertex 72.8732 73.9388 1
      vertex 71.1443 73.0147 0
      vertex 72.8732 73.9388 0
    endloop
  endfacet
  facet normal 0.956941 -0.290283 0
    outer loop
      vertex 66.8922 66.6509 1
      vertex 67.4612 68.5268 0
      vertex 67.4612 68.5268 1
    endloop
  endfacet
  facet normal 0.956941 -0.290283 0
    outer loop
      vertex 67.4612 68.5268 0
      vertex 66.8922 66.6509 1
      vertex 66.8922 66.6509 0
    endloop
  endfacet
  facet normal -0.995185 0.0980168 0
    outer loop
      vertex 86.5079 62.7491 0
      vertex 86.7 64.7 1
      vertex 86.7 64.7 0
    endloop
  endfacet
  facet normal -0.995185 0.0980168 0
    outer loop
      vertex 86.7 64.7 1
      vertex 86.5079 62.7491 0
      vertex 86.5079 62.7491 1
    endloop
  endfacet
  facet normal -0.290285 0.95694 0
    outer loop
      vertex 80.5268 55.4612 0
      vertex 78.6509 54.8921 1
      vertex 80.5268 55.4612 1
    endloop
  endfacet
  facet normal -0.290285 0.95694 0
    outer loop
      vertex 78.6509 54.8921 1
      vertex 80.5268 55.4612 0
      vertex 78.6509 54.8921 0
    endloop
  endfacet
  facet normal -0.634394 -0.77301 0
    outer loop
      vertex 82.2557 73.0147 0
      vertex 83.7711 71.7711 1
      vertex 82.2557 73.0147 1
    endloop
  endfacet
  facet normal -0.634394 -0.77301 -0
    outer loop
      vertex 83.7711 71.7711 1
      vertex 82.2557 73.0147 0
      vertex 83.7711 71.7711 0
    endloop
  endfacet
  facet normal 0.098017 -0.995185 0
    outer loop
      vertex 74.7491 74.5079 0
      vertex 76.7 74.7 1
      vertex 74.7491 74.5079 1
    endloop
  endfacet
  facet normal 0.098017 -0.995185 0
    outer loop
      vertex 76.7 74.7 1
      vertex 74.7491 74.5079 0
      vertex 76.7 74.7 0
    endloop
  endfacet
  facet normal -0.471398 -0.88192 0
    outer loop
      vertex 80.5268 73.9388 0
      vertex 82.2557 73.0147 1
      vertex 80.5268 73.9388 1
    endloop
  endfacet
  facet normal -0.471398 -0.88192 -0
    outer loop
      vertex 82.2557 73.0147 1
      vertex 80.5268 73.9388 0
      vertex 82.2557 73.0147 0
    endloop
  endfacet
  facet normal 0.995184 0.0980207 0
    outer loop
      vertex 66.8922 62.7491 1
      vertex 66.7 64.7 0
      vertex 66.7 64.7 1
    endloop
  endfacet
  facet normal 0.995184 0.0980207 0
    outer loop
      vertex 66.7 64.7 0
      vertex 66.8922 62.7491 1
      vertex 66.8922 62.7491 0
    endloop
  endfacet
  facet normal 0.881922 -0.471395 0
    outer loop
      vertex 67.4612 68.5268 1
      vertex 68.3853 70.2557 0
      vertex 68.3853 70.2557 1
    endloop
  endfacet
  facet normal 0.881922 -0.471395 0
    outer loop
      vertex 68.3853 70.2557 0
      vertex 67.4612 68.5268 1
      vertex 67.4612 68.5268 0
    endloop
  endfacet
  facet normal 0.634394 -0.77301 0
    outer loop
      vertex 69.6289 71.7711 0
      vertex 71.1443 73.0147 1
      vertex 69.6289 71.7711 1
    endloop
  endfacet
  facet normal 0.634394 -0.77301 0
    outer loop
      vertex 71.1443 73.0147 1
      vertex 69.6289 71.7711 0
      vertex 71.1443 73.0147 0
    endloop
  endfacet
  facet normal 0.290283 -0.956941 0
    outer loop
      vertex 72.8732 73.9388 0
      vertex 74.7491 74.5079 1
      vertex 72.8732 73.9388 1
    endloop
  endfacet
  facet normal 0.290283 -0.956941 0
    outer loop
      vertex 74.7491 74.5079 1
      vertex 72.8732 73.9388 0
      vertex 74.7491 74.5079 0
    endloop
  endfacet
  facet normal 0.77301 -0.634394 0
    outer loop
      vertex 68.3853 70.2557 1
      vertex 69.6289 71.7711 0
      vertex 69.6289 71.7711 1
    endloop
  endfacet
  facet normal 0.77301 -0.634394 0
    outer loop
      vertex 69.6289 71.7711 0
      vertex 68.3853 70.2557 1
      vertex 68.3853 70.2557 0
    endloop
  endfacet
  facet normal -0.995185 -0.0980166 0
    outer loop
      vertex 86.7 64.7 0
      vertex 86.5079 66.6509 1
      vertex 86.5079 66.6509 0
    endloop
  endfacet
  facet normal -0.995185 -0.0980166 0
    outer loop
      vertex 86.5079 66.6509 1
      vertex 86.7 64.7 0
      vertex 86.7 64.7 1
    endloop
  endfacet
  facet normal 0.471395 0.881922 -0
    outer loop
      vertex 72.8732 55.4612 0
      vertex 71.1443 56.3853 1
      vertex 72.8732 55.4612 1
    endloop
  endfacet
  facet normal 0.471395 0.881922 0
    outer loop
      vertex 71.1443 56.3853 1
      vertex 72.8732 55.4612 0
      vertex 71.1443 56.3853 0
    endloop
  endfacet
  facet normal 0.77301 0.634394 0
    outer loop
      vertex 69.6289 57.6289 1
      vertex 68.3853 59.1443 0
      vertex 68.3853 59.1443 1
    endloop
  endfacet
  facet normal 0.77301 0.634394 0
    outer loop
      vertex 68.3853 59.1443 0
      vertex 69.6289 57.6289 1
      vertex 69.6289 57.6289 0
    endloop
  endfacet
  facet normal -0.634394 0.77301 0
    outer loop
      vertex 83.7711 57.6289 0
      vertex 82.2557 56.3853 1
      vertex 83.7711 57.6289 1
    endloop
  endfacet
  facet normal -0.634394 0.77301 0
    outer loop
      vertex 82.2557 56.3853 1
      vertex 83.7711 57.6289 0
      vertex 82.2557 56.3853 0
    endloop
  endfacet
  facet normal -0.956941 -0.290283 0
    outer loop
      vertex 86.5079 66.6509 0
      vertex 85.9388 68.5268 1
      vertex 85.9388 68.5268 0
    endloop
  endfacet
  facet normal -0.956941 -0.290283 0
    outer loop
      vertex 85.9388 68.5268 1
      vertex 86.5079 66.6509 0
      vertex 86.5079 66.6509 1
    endloop
  endfacet
  facet normal -0.0980166 -0.995185 0
    outer loop
      vertex 76.7 74.7 0
      vertex 78.6509 74.5079 1
      vertex 76.7 74.7 1
    endloop
  endfacet
  facet normal -0.0980166 -0.995185 -0
    outer loop
      vertex 78.6509 74.5079 1
      vertex 76.7 74.7 0
      vertex 78.6509 74.5079 0
    endloop
  endfacet
  facet normal -0.88192 0.471398 0
    outer loop
      vertex 85.0147 59.1443 0
      vertex 85.9388 60.8732 1
      vertex 85.9388 60.8732 0
    endloop
  endfacet
  facet normal -0.88192 0.471398 0
    outer loop
      vertex 85.9388 60.8732 1
      vertex 85.0147 59.1443 0
      vertex 85.0147 59.1443 1
    endloop
  endfacet
  facet normal 0.956941 0.290283 0
    outer loop
      vertex 67.4612 60.8732 1
      vertex 66.8922 62.7491 0
      vertex 66.8922 62.7491 1
    endloop
  endfacet
  facet normal 0.956941 0.290283 0
    outer loop
      vertex 66.8922 62.7491 0
      vertex 67.4612 60.8732 1
      vertex 67.4612 60.8732 0
    endloop
  endfacet
  facet normal 0.634394 0.77301 -0
    outer loop
      vertex 71.1443 56.3853 0
      vertex 69.6289 57.6289 1
      vertex 71.1443 56.3853 1
    endloop
  endfacet
  facet normal 0.634394 0.77301 0
    outer loop
      vertex 69.6289 57.6289 1
      vertex 71.1443 56.3853 0
      vertex 69.6289 57.6289 0
    endloop
  endfacet
  facet normal -0.471397 0.881921 0
    outer loop
      vertex 82.2557 56.3853 0
      vertex 80.5268 55.4612 1
      vertex 82.2557 56.3853 1
    endloop
  endfacet
  facet normal -0.471397 0.881921 0
    outer loop
      vertex 80.5268 55.4612 1
      vertex 82.2557 56.3853 0
      vertex 80.5268 55.4612 0
    endloop
  endfacet
  facet normal -0.956941 0.290283 0
    outer loop
      vertex 85.9388 60.8732 0
      vertex 86.5079 62.7491 1
      vertex 86.5079 62.7491 0
    endloop
  endfacet
  facet normal -0.956941 0.290283 0
    outer loop
      vertex 86.5079 62.7491 1
      vertex 85.9388 60.8732 0
      vertex 85.9388 60.8732 1
    endloop
  endfacet
  facet normal -0.0980166 0.995185 0
    outer loop
      vertex 78.6509 54.8921 0
      vertex 76.7 54.7 1
      vertex 78.6509 54.8921 1
    endloop
  endfacet
  facet normal -0.0980166 0.995185 0
    outer loop
      vertex 76.7 54.7 1
      vertex 78.6509 54.8921 0
      vertex 76.7 54.7 0
    endloop
  endfacet
  facet normal 0.098017 0.995185 -0
    outer loop
      vertex 76.7 54.7 0
      vertex 74.7491 54.8921 1
      vertex 76.7 54.7 1
    endloop
  endfacet
  facet normal 0.098017 0.995185 0
    outer loop
      vertex 74.7491 54.8921 1
      vertex 76.7 54.7 0
      vertex 74.7491 54.8921 0
    endloop
  endfacet
  facet normal 0.881922 0.471395 0
    outer loop
      vertex 68.3853 59.1443 1
      vertex 67.4612 60.8732 0
      vertex 67.4612 60.8732 1
    endloop
  endfacet
  facet normal 0.881922 0.471395 0
    outer loop
      vertex 67.4612 60.8732 0
      vertex 68.3853 59.1443 1
      vertex 68.3853 59.1443 0
    endloop
  endfacet
  facet normal -0.77301 0.634394 0
    outer loop
      vertex 83.7711 57.6289 0
      vertex 85.0147 59.1443 1
      vertex 85.0147 59.1443 0
    endloop
  endfacet
  facet normal -0.77301 0.634394 0
    outer loop
      vertex 85.0147 59.1443 1
      vertex 83.7711 57.6289 0
      vertex 83.7711 57.6289 1
    endloop
  endfacet
  facet normal 0.290285 0.95694 -0
    outer loop
      vertex 74.7491 54.8921 0
      vertex 72.8732 55.4612 1
      vertex 74.7491 54.8921 1
    endloop
  endfacet
  facet normal 0.290285 0.95694 0
    outer loop
      vertex 72.8732 55.4612 1
      vertex 74.7491 54.8921 0
      vertex 72.8732 55.4612 0
    endloop
  endfacet
endsolid OpenSCAD_Model
