solid OpenSCAD_Model
  facet normal 0 1 -0
    outer loop
      vertex 118.76 43.5795 0
      vertex 0.0300131 43.5795 2
      vertex 118.76 43.5795 2
    endloop
  endfacet
  facet normal 0 1 0
    outer loop
      vertex 0.0300131 43.5795 2
      vertex 118.76 43.5795 0
      vertex 0.0300131 43.5795 0
    endloop
  endfacet
  facet normal 0.104539 0.994521 -0
    outer loop
      vertex 118.879 43.5669 0
      vertex 118.76 43.5795 2
      vertex 118.879 43.5669 2
    endloop
  endfacet
  facet normal 0.104539 0.994521 0
    outer loop
      vertex 118.76 43.5795 2
      vertex 118.879 43.5669 0
      vertex 118.76 43.5795 0
    endloop
  endfacet
  facet normal -0.0349101 0.99939 0
    outer loop
      vertex 0.0300131 43.5795 0
      vertex -0.0898943 43.5753 2
      vertex 0.0300131 43.5795 2
    endloop
  endfacet
  facet normal -0.0349101 0.99939 0
    outer loop
      vertex -0.0898943 43.5753 2
      vertex 0.0300131 43.5795 0
      vertex -0.0898943 43.5753 0
    endloop
  endfacet
  facet normal 0 -1 0
    outer loop
      vertex 0.0300131 -0.859476 0
      vertex 118.76 -0.859476 2
      vertex 0.0300131 -0.859476 2
    endloop
  endfacet
  facet normal 0 -1 -0
    outer loop
      vertex 118.76 -0.859476 2
      vertex 0.0300131 -0.859476 0
      vertex 118.76 -0.859476 0
    endloop
  endfacet
  facet normal -0.30901 0.951059 0
    outer loop
      vertex -0.208053 43.5545 0
      vertex -0.322161 43.5174 2
      vertex -0.208053 43.5545 2
    endloop
  endfacet
  facet normal -0.30901 0.951059 0
    outer loop
      vertex -0.322161 43.5174 2
      vertex -0.208053 43.5545 0
      vertex -0.322161 43.5174 0
    endloop
  endfacet
  facet normal 1 -0 0
    outer loop
      vertex 119.59 0 2
      vertex 119.59 42.72 0
      vertex 119.59 42.72 2
    endloop
  endfacet
  facet normal 1 0 0
    outer loop
      vertex 119.59 42.72 0
      vertex 119.59 0 2
      vertex 119.59 0 0
    endloop
  endfacet
  facet normal -0.990268 0.139172 0
    outer loop
      vertex -0.857904 42.78 0
      vertex -0.841207 42.8988 2
      vertex -0.841207 42.8988 0
    endloop
  endfacet
  facet normal -0.990268 0.139172 0
    outer loop
      vertex -0.841207 42.8988 2
      vertex -0.857904 42.78 0
      vertex -0.857904 42.78 2
    endloop
  endfacet
  facet normal 0.104531 -0.994522 0
    outer loop
      vertex 118.76 -0.859476 0
      vertex 118.879 -0.846934 2
      vertex 118.76 -0.859476 2
    endloop
  endfacet
  facet normal 0.104531 -0.994522 0
    outer loop
      vertex 118.879 -0.846934 2
      vertex 118.76 -0.859476 0
      vertex 118.879 -0.846934 0
    endloop
  endfacet
  facet normal -0.173659 0.984806 0
    outer loop
      vertex -0.0898943 43.5753 0
      vertex -0.208053 43.5545 2
      vertex -0.0898943 43.5753 2
    endloop
  endfacet
  facet normal -0.173659 0.984806 0
    outer loop
      vertex -0.208053 43.5545 2
      vertex -0.0898943 43.5753 0
      vertex -0.208053 43.5545 0
    endloop
  endfacet
  facet normal -0.43835 0.898804 0
    outer loop
      vertex -0.322161 43.5174 0
      vertex -0.429999 43.4648 2
      vertex -0.322161 43.5174 2
    endloop
  endfacet
  facet normal -0.43835 0.898804 0
    outer loop
      vertex -0.429999 43.4648 2
      vertex -0.322161 43.5174 0
      vertex -0.429999 43.4648 0
    endloop
  endfacet
  facet normal 0.241922 -0.970296 0
    outer loop
      vertex 118.879 -0.846934 0
      vertex 118.996 -0.817908 2
      vertex 118.879 -0.846934 2
    endloop
  endfacet
  facet normal 0.241922 -0.970296 0
    outer loop
      vertex 118.996 -0.817908 2
      vertex 118.879 -0.846934 0
      vertex 118.996 -0.817908 0
    endloop
  endfacet
  facet normal 0.997564 -0.0697568 0
    outer loop
      vertex 119.582 -0.119688 2
      vertex 119.59 0 0
      vertex 119.59 0 2
    endloop
  endfacet
  facet normal 0.997564 -0.0697568 0
    outer loop
      vertex 119.59 0 0
      vertex 119.582 -0.119688 2
      vertex 119.582 -0.119688 0
    endloop
  endfacet
  facet normal 0.719347 -0.694651 0
    outer loop
      vertex 119.305 -0.639104 2
      vertex 119.389 -0.552797 0
      vertex 119.389 -0.552797 2
    endloop
  endfacet
  facet normal 0.719347 -0.694651 0
    outer loop
      vertex 119.389 -0.552797 0
      vertex 119.305 -0.639104 2
      vertex 119.305 -0.639104 0
    endloop
  endfacet
  facet normal 0.374601 0.927186 -0
    outer loop
      vertex 119.107 43.493 0
      vertex 118.996 43.5379 2
      vertex 119.107 43.493 2
    endloop
  endfacet
  facet normal 0.374601 0.927186 0
    outer loop
      vertex 118.996 43.5379 2
      vertex 119.107 43.493 0
      vertex 118.996 43.5379 0
    endloop
  endfacet
  facet normal 0.499976 0.866039 -0
    outer loop
      vertex 119.211 43.433 0
      vertex 119.107 43.493 2
      vertex 119.211 43.433 2
    endloop
  endfacet
  facet normal 0.499976 0.866039 0
    outer loop
      vertex 119.107 43.493 2
      vertex 119.211 43.433 0
      vertex 119.107 43.493 0
    endloop
  endfacet
  facet normal 0.939688 0.342034 0
    outer loop
      vertex 119.557 42.957 2
      vertex 119.516 43.0698 0
      vertex 119.516 43.0698 2
    endloop
  endfacet
  facet normal 0.939688 0.342034 0
    outer loop
      vertex 119.516 43.0698 0
      vertex 119.557 42.957 2
      vertex 119.557 42.957 0
    endloop
  endfacet
  facet normal 0.882942 0.469482 0
    outer loop
      vertex 119.516 43.0698 2
      vertex 119.459 43.1757 0
      vertex 119.459 43.1757 2
    endloop
  endfacet
  facet normal 0.882942 0.469482 0
    outer loop
      vertex 119.459 43.1757 0
      vertex 119.516 43.0698 2
      vertex 119.516 43.0698 0
    endloop
  endfacet
  facet normal 0.809011 0.587794 0
    outer loop
      vertex 119.459 43.1757 2
      vertex 119.389 43.2728 0
      vertex 119.389 43.2728 2
    endloop
  endfacet
  facet normal 0.809011 0.587794 0
    outer loop
      vertex 119.389 43.2728 0
      vertex 119.459 43.1757 2
      vertex 119.459 43.1757 0
    endloop
  endfacet
  facet normal -1 0 0
    outer loop
      vertex -0.857904 -0.0599899 0
      vertex -0.857904 42.78 2
      vertex -0.857904 42.78 0
    endloop
  endfacet
  facet normal -1 -0 0
    outer loop
      vertex -0.857904 42.78 2
      vertex -0.857904 -0.0599899 0
      vertex -0.857904 -0.0599899 2
    endloop
  endfacet
  facet normal -0.438369 -0.898795 0
    outer loop
      vertex -0.429999 -0.744781 0
      vertex -0.322161 -0.797378 2
      vertex -0.429999 -0.744781 2
    endloop
  endfacet
  facet normal -0.438369 -0.898795 -0
    outer loop
      vertex -0.322161 -0.797378 2
      vertex -0.429999 -0.744781 0
      vertex -0.322161 -0.797378 0
    endloop
  endfacet
  facet normal -0.990268 -0.139171 0
    outer loop
      vertex -0.841207 -0.178803 0
      vertex -0.857904 -0.0599899 2
      vertex -0.857904 -0.0599899 0
    endloop
  endfacet
  facet normal -0.990268 -0.139171 0
    outer loop
      vertex -0.857904 -0.0599899 2
      vertex -0.841207 -0.178803 0
      vertex -0.841207 -0.178803 2
    endloop
  endfacet
  facet normal 0.939687 -0.342037 0
    outer loop
      vertex 119.516 -0.349793 2
      vertex 119.557 -0.237047 0
      vertex 119.557 -0.237047 2
    endloop
  endfacet
  facet normal 0.939687 -0.342037 0
    outer loop
      vertex 119.557 -0.237047 0
      vertex 119.516 -0.349793 2
      vertex 119.516 -0.349793 0
    endloop
  endfacet
  facet normal 0.978156 -0.207872 0
    outer loop
      vertex 119.557 -0.237047 2
      vertex 119.582 -0.119688 0
      vertex 119.582 -0.119688 2
    endloop
  endfacet
  facet normal 0.978156 -0.207872 0
    outer loop
      vertex 119.582 -0.119688 0
      vertex 119.557 -0.237047 2
      vertex 119.557 -0.237047 0
    endloop
  endfacet
  facet normal 0.374608 -0.927183 0
    outer loop
      vertex 118.996 -0.817908 0
      vertex 119.107 -0.772963 2
      vertex 118.996 -0.817908 2
    endloop
  endfacet
  facet normal 0.374608 -0.927183 0
    outer loop
      vertex 119.107 -0.772963 2
      vertex 118.996 -0.817908 0
      vertex 119.107 -0.772963 0
    endloop
  endfacet
  facet normal 0.615674 -0.788001 0
    outer loop
      vertex 119.211 -0.712972 0
      vertex 119.305 -0.639104 2
      vertex 119.211 -0.712972 2
    endloop
  endfacet
  facet normal 0.615674 -0.788001 0
    outer loop
      vertex 119.305 -0.639104 2
      vertex 119.211 -0.712972 0
      vertex 119.305 -0.639104 0
    endloop
  endfacet
  facet normal 0.499982 -0.866036 0
    outer loop
      vertex 119.107 -0.772963 0
      vertex 119.211 -0.712972 2
      vertex 119.107 -0.772963 2
    endloop
  endfacet
  facet normal 0.499982 -0.866036 0
    outer loop
      vertex 119.211 -0.712972 2
      vertex 119.107 -0.772963 0
      vertex 119.211 -0.712972 0
    endloop
  endfacet
  facet normal 0.241922 0.970296 -0
    outer loop
      vertex 118.996 43.5379 0
      vertex 118.879 43.5669 2
      vertex 118.996 43.5379 2
    endloop
  endfacet
  facet normal 0.241922 0.970296 0
    outer loop
      vertex 118.879 43.5669 2
      vertex 118.996 43.5379 0
      vertex 118.879 43.5669 0
    endloop
  endfacet
  facet normal 0.615674 0.788001 -0
    outer loop
      vertex 119.305 43.3591 0
      vertex 119.211 43.433 2
      vertex 119.305 43.3591 2
    endloop
  endfacet
  facet normal 0.615674 0.788001 0
    outer loop
      vertex 119.211 43.433 2
      vertex 119.305 43.3591 0
      vertex 119.211 43.433 0
    endloop
  endfacet
  facet normal 0.719351 0.694647 0
    outer loop
      vertex 119.389 43.2728 2
      vertex 119.305 43.3591 0
      vertex 119.305 43.3591 2
    endloop
  endfacet
  facet normal 0.719351 0.694647 0
    outer loop
      vertex 119.305 43.3591 0
      vertex 119.389 43.2728 2
      vertex 119.389 43.2728 0
    endloop
  endfacet
  facet normal 0.978156 0.207872 0
    outer loop
      vertex 119.582 42.8397 2
      vertex 119.557 42.957 0
      vertex 119.557 42.957 2
    endloop
  endfacet
  facet normal 0.978156 0.207872 0
    outer loop
      vertex 119.557 42.957 0
      vertex 119.582 42.8397 2
      vertex 119.582 42.8397 0
    endloop
  endfacet
  facet normal 0.997564 0.0697579 0
    outer loop
      vertex 119.59 42.72 2
      vertex 119.582 42.8397 0
      vertex 119.582 42.8397 2
    endloop
  endfacet
  facet normal 0.997564 0.0697579 0
    outer loop
      vertex 119.582 42.8397 0
      vertex 119.59 42.72 2
      vertex 119.59 42.72 0
    endloop
  endfacet
  facet normal -0.913546 0.406736 0
    outer loop
      vertex -0.808135 43.0141 0
      vertex -0.759335 43.1237 2
      vertex -0.759335 43.1237 0
    endloop
  endfacet
  facet normal -0.913546 0.406736 0
    outer loop
      vertex -0.759335 43.1237 2
      vertex -0.808135 43.0141 0
      vertex -0.808135 43.0141 2
    endloop
  endfacet
  facet normal -0.848047 0.529922 0
    outer loop
      vertex -0.759335 43.1237 0
      vertex -0.695754 43.2255 2
      vertex -0.695754 43.2255 0
    endloop
  endfacet
  facet normal -0.848047 0.529922 0
    outer loop
      vertex -0.695754 43.2255 2
      vertex -0.759335 43.1237 0
      vertex -0.759335 43.1237 2
    endloop
  endfacet
  facet normal -0.559193 0.829037 0
    outer loop
      vertex -0.429999 43.4648 0
      vertex -0.529469 43.3977 2
      vertex -0.429999 43.4648 2
    endloop
  endfacet
  facet normal -0.559193 0.829037 0
    outer loop
      vertex -0.529469 43.3977 2
      vertex -0.429999 43.4648 0
      vertex -0.529469 43.3977 0
    endloop
  endfacet
  facet normal -0.0349022 -0.999391 0
    outer loop
      vertex -0.0898943 -0.855289 0
      vertex 0.0300131 -0.859476 2
      vertex -0.0898943 -0.855289 2
    endloop
  endfacet
  facet normal -0.0349022 -0.999391 -0
    outer loop
      vertex 0.0300131 -0.859476 2
      vertex -0.0898943 -0.855289 0
      vertex 0.0300131 -0.859476 0
    endloop
  endfacet
  facet normal -0.848049 -0.529918 0
    outer loop
      vertex -0.695754 -0.505495 0
      vertex -0.759335 -0.403745 2
      vertex -0.759335 -0.403745 0
    endloop
  endfacet
  facet normal -0.848049 -0.529918 0
    outer loop
      vertex -0.759335 -0.403745 2
      vertex -0.695754 -0.505495 0
      vertex -0.695754 -0.505495 2
    endloop
  endfacet
  facet normal 0.809005 -0.587801 0
    outer loop
      vertex 119.389 -0.552797 2
      vertex 119.459 -0.45573 0
      vertex 119.459 -0.45573 2
    endloop
  endfacet
  facet normal 0.809005 -0.587801 0
    outer loop
      vertex 119.459 -0.45573 0
      vertex 119.389 -0.552797 2
      vertex 119.389 -0.552797 0
    endloop
  endfacet
  facet normal 0.882947 -0.469472 0
    outer loop
      vertex 119.459 -0.45573 2
      vertex 119.516 -0.349793 0
      vertex 119.516 -0.349793 2
    endloop
  endfacet
  facet normal 0.882947 -0.469472 0
    outer loop
      vertex 119.516 -0.349793 0
      vertex 119.459 -0.45573 2
      vertex 119.459 -0.45573 0
    endloop
  endfacet
  facet normal -0.961261 0.275639 0
    outer loop
      vertex -0.841207 42.8988 0
      vertex -0.808135 43.0141 2
      vertex -0.808135 43.0141 0
    endloop
  endfacet
  facet normal -0.961261 0.275639 0
    outer loop
      vertex -0.808135 43.0141 2
      vertex -0.841207 42.8988 0
      vertex -0.841207 42.8988 2
    endloop
  endfacet
  facet normal -0.309017 -0.951056 0
    outer loop
      vertex -0.322161 -0.797378 0
      vertex -0.208053 -0.834454 2
      vertex -0.322161 -0.797378 2
    endloop
  endfacet
  facet normal -0.309017 -0.951056 -0
    outer loop
      vertex -0.208053 -0.834454 2
      vertex -0.322161 -0.797378 0
      vertex -0.208053 -0.834454 0
    endloop
  endfacet
  facet normal -0.559193 -0.829037 0
    outer loop
      vertex -0.529469 -0.677689 0
      vertex -0.429999 -0.744781 2
      vertex -0.529469 -0.677689 2
    endloop
  endfacet
  facet normal -0.559193 -0.829037 -0
    outer loop
      vertex -0.429999 -0.744781 2
      vertex -0.529469 -0.677689 0
      vertex -0.429999 -0.744781 0
    endloop
  endfacet
  facet normal -0.766041 -0.642791 0
    outer loop
      vertex -0.618631 -0.597405 0
      vertex -0.695754 -0.505495 2
      vertex -0.695754 -0.505495 0
    endloop
  endfacet
  facet normal -0.766041 -0.642791 0
    outer loop
      vertex -0.695754 -0.505495 2
      vertex -0.618631 -0.597405 0
      vertex -0.618631 -0.597405 2
    endloop
  endfacet
  facet normal -0.766045 0.642787 0
    outer loop
      vertex -0.695754 43.2255 0
      vertex -0.618631 43.3174 2
      vertex -0.618631 43.3174 0
    endloop
  endfacet
  facet normal -0.766045 0.642787 0
    outer loop
      vertex -0.618631 43.3174 2
      vertex -0.695754 43.2255 0
      vertex -0.695754 43.2255 2
    endloop
  endfacet
  facet normal -0.669138 0.743138 0
    outer loop
      vertex -0.529469 43.3977 0
      vertex -0.618631 43.3174 2
      vertex -0.529469 43.3977 2
    endloop
  endfacet
  facet normal -0.669138 0.743138 0
    outer loop
      vertex -0.618631 43.3174 2
      vertex -0.529469 43.3977 0
      vertex -0.618631 43.3174 0
    endloop
  endfacet
  facet normal -0.173652 -0.984807 0
    outer loop
      vertex -0.208053 -0.834454 0
      vertex -0.0898943 -0.855289 2
      vertex -0.208053 -0.834454 2
    endloop
  endfacet
  facet normal -0.173652 -0.984807 -0
    outer loop
      vertex -0.0898943 -0.855289 2
      vertex -0.208053 -0.834454 0
      vertex -0.0898943 -0.855289 0
    endloop
  endfacet
  facet normal -0.669133 -0.743142 0
    outer loop
      vertex -0.618631 -0.597405 0
      vertex -0.529469 -0.677689 2
      vertex -0.618631 -0.597405 2
    endloop
  endfacet
  facet normal -0.669133 -0.743142 -0
    outer loop
      vertex -0.529469 -0.677689 2
      vertex -0.618631 -0.597405 0
      vertex -0.529469 -0.677689 0
    endloop
  endfacet
  facet normal 0 0 1
    outer loop
      vertex 118.53 42.52 2
      vertex 119.59 42.72 2
      vertex 119.582 42.8397 2
    endloop
  endfacet
  facet normal 0 0 1
    outer loop
      vertex 119.59 42.72 2
      vertex 118.53 42.52 2
      vertex 119.59 0 2
    endloop
  endfacet
  facet normal 0 0 1
    outer loop
      vertex 118.53 42.52 2
      vertex 119.582 42.8397 2
      vertex 119.557 42.957 2
    endloop
  endfacet
  facet normal -0 0 1
    outer loop
      vertex 118.53 0.2 2
      vertex 119.59 0 2
      vertex 118.53 42.52 2
    endloop
  endfacet
  facet normal 0 0 1
    outer loop
      vertex 118.53 42.52 2
      vertex 119.557 42.957 2
      vertex 119.516 43.0698 2
    endloop
  endfacet
  facet normal 0 0 1
    outer loop
      vertex 119.59 0 2
      vertex 118.53 0.2 2
      vertex 119.582 -0.119688 2
    endloop
  endfacet
  facet normal 0 0 1
    outer loop
      vertex 118.53 42.52 2
      vertex 119.516 43.0698 2
      vertex 119.459 43.1757 2
    endloop
  endfacet
  facet normal 0 0 1
    outer loop
      vertex 119.582 -0.119688 2
      vertex 118.53 0.2 2
      vertex 119.557 -0.237047 2
    endloop
  endfacet
  facet normal 0 0 1
    outer loop
      vertex 118.53 42.52 2
      vertex 119.459 43.1757 2
      vertex 119.389 43.2728 2
    endloop
  endfacet
  facet normal 0 0 1
    outer loop
      vertex 119.557 -0.237047 2
      vertex 118.53 0.2 2
      vertex 119.516 -0.349793 2
    endloop
  endfacet
  facet normal 0 0 1
    outer loop
      vertex 118.53 42.52 2
      vertex 119.389 43.2728 2
      vertex 119.305 43.3591 2
    endloop
  endfacet
  facet normal 0 0 1
    outer loop
      vertex 119.516 -0.349793 2
      vertex 118.53 0.2 2
      vertex 119.459 -0.45573 2
    endloop
  endfacet
  facet normal 0 0 1
    outer loop
      vertex 118.53 42.52 2
      vertex 119.305 43.3591 2
      vertex 119.211 43.433 2
    endloop
  endfacet
  facet normal 0 0 1
    outer loop
      vertex 119.459 -0.45573 2
      vertex 118.53 0.2 2
      vertex 119.389 -0.552797 2
    endloop
  endfacet
  facet normal 0 0 1
    outer loop
      vertex 118.53 42.52 2
      vertex 119.211 43.433 2
      vertex 119.107 43.493 2
    endloop
  endfacet
  facet normal 0 0 1
    outer loop
      vertex 119.389 -0.552797 2
      vertex 118.53 0.2 2
      vertex 119.305 -0.639104 2
    endloop
  endfacet
  facet normal 0 0 1
    outer loop
      vertex 118.53 42.52 2
      vertex 119.107 43.493 2
      vertex 118.996 43.5379 2
    endloop
  endfacet
  facet normal 0 0 1
    outer loop
      vertex 119.305 -0.639104 2
      vertex 118.53 0.2 2
      vertex 119.211 -0.712972 2
    endloop
  endfacet
  facet normal 0 0 1
    outer loop
      vertex 118.53 42.52 2
      vertex 118.996 43.5379 2
      vertex 118.879 43.5669 2
    endloop
  endfacet
  facet normal 0 0 1
    outer loop
      vertex 119.211 -0.712972 2
      vertex 118.53 0.2 2
      vertex 119.107 -0.772963 2
    endloop
  endfacet
  facet normal 0 0 1
    outer loop
      vertex 118.53 42.52 2
      vertex 118.879 43.5669 2
      vertex 118.76 43.5795 2
    endloop
  endfacet
  facet normal 0 0 1
    outer loop
      vertex 119.107 -0.772963 2
      vertex 118.53 0.2 2
      vertex 118.996 -0.817908 2
    endloop
  endfacet
  facet normal 0 0 1
    outer loop
      vertex 118.996 -0.817908 2
      vertex 118.53 0.2 2
      vertex 118.879 -0.846934 2
    endloop
  endfacet
  facet normal -0 0 1
    outer loop
      vertex 0.0300131 43.5795 2
      vertex 118.53 42.52 2
      vertex 118.76 43.5795 2
    endloop
  endfacet
  facet normal -0 0 1
    outer loop
      vertex -0.0898943 43.5753 2
      vertex 0.2 42.52 2
      vertex 0.0300131 43.5795 2
    endloop
  endfacet
  facet normal 0 0 1
    outer loop
      vertex 118.53 42.52 2
      vertex 0.0300131 43.5795 2
      vertex 0.2 42.52 2
    endloop
  endfacet
  facet normal 0 0 1
    outer loop
      vertex 118.879 -0.846934 2
      vertex 118.53 0.2 2
      vertex 118.76 -0.859476 2
    endloop
  endfacet
  facet normal 0 0 1
    outer loop
      vertex 0.0300131 -0.859476 2
      vertex 118.53 0.2 2
      vertex 0.2 0.2 2
    endloop
  endfacet
  facet normal 0 0 1
    outer loop
      vertex 118.53 0.2 2
      vertex 0.0300131 -0.859476 2
      vertex 118.76 -0.859476 2
    endloop
  endfacet
  facet normal 0 0 1
    outer loop
      vertex 0.2 42.52 2
      vertex -0.857904 42.78 2
      vertex 0.2 0.2 2
    endloop
  endfacet
  facet normal -0 0 1
    outer loop
      vertex -0.208053 43.5545 2
      vertex 0.2 42.52 2
      vertex -0.0898943 43.5753 2
    endloop
  endfacet
  facet normal 0 0 1
    outer loop
      vertex -0.857904 -0.0599899 2
      vertex 0.2 0.2 2
      vertex -0.857904 42.78 2
    endloop
  endfacet
  facet normal -0 0 1
    outer loop
      vertex -0.322161 43.5174 2
      vertex 0.2 42.52 2
      vertex -0.208053 43.5545 2
    endloop
  endfacet
  facet normal 0 -0 1
    outer loop
      vertex -0.841207 -0.178803 2
      vertex 0.2 0.2 2
      vertex -0.857904 -0.0599899 2
    endloop
  endfacet
  facet normal -0 0 1
    outer loop
      vertex -0.429999 43.4648 2
      vertex 0.2 42.52 2
      vertex -0.322161 43.5174 2
    endloop
  endfacet
  facet normal 0 0 1
    outer loop
      vertex 0.2 0.2 2
      vertex -0.0898943 -0.855289 2
      vertex 0.0300131 -0.859476 2
    endloop
  endfacet
  facet normal -0 0 1
    outer loop
      vertex -0.529469 43.3977 2
      vertex 0.2 42.52 2
      vertex -0.429999 43.4648 2
    endloop
  endfacet
  facet normal 0 0 1
    outer loop
      vertex 0.2 0.2 2
      vertex -0.208053 -0.834454 2
      vertex -0.0898943 -0.855289 2
    endloop
  endfacet
  facet normal -0 0 1
    outer loop
      vertex -0.618631 43.3174 2
      vertex 0.2 42.52 2
      vertex -0.529469 43.3977 2
    endloop
  endfacet
  facet normal 0 0 1
    outer loop
      vertex 0.2 0.2 2
      vertex -0.322161 -0.797378 2
      vertex -0.208053 -0.834454 2
    endloop
  endfacet
  facet normal -0 0 1
    outer loop
      vertex -0.695754 43.2255 2
      vertex 0.2 42.52 2
      vertex -0.618631 43.3174 2
    endloop
  endfacet
  facet normal 0 0 1
    outer loop
      vertex 0.2 0.2 2
      vertex -0.429999 -0.744781 2
      vertex -0.322161 -0.797378 2
    endloop
  endfacet
  facet normal -0 0 1
    outer loop
      vertex -0.759335 43.1237 2
      vertex 0.2 42.52 2
      vertex -0.695754 43.2255 2
    endloop
  endfacet
  facet normal 0 0 1
    outer loop
      vertex 0.2 0.2 2
      vertex -0.529469 -0.677689 2
      vertex -0.429999 -0.744781 2
    endloop
  endfacet
  facet normal -0 0 1
    outer loop
      vertex -0.808135 43.0141 2
      vertex 0.2 42.52 2
      vertex -0.759335 43.1237 2
    endloop
  endfacet
  facet normal 0 0 1
    outer loop
      vertex 0.2 0.2 2
      vertex -0.618631 -0.597405 2
      vertex -0.529469 -0.677689 2
    endloop
  endfacet
  facet normal -0 0 1
    outer loop
      vertex -0.841207 42.8988 2
      vertex 0.2 42.52 2
      vertex -0.808135 43.0141 2
    endloop
  endfacet
  facet normal 0 0 1
    outer loop
      vertex 0.2 0.2 2
      vertex -0.695754 -0.505495 2
      vertex -0.618631 -0.597405 2
    endloop
  endfacet
  facet normal 0 0 1
    outer loop
      vertex 0.2 42.52 2
      vertex -0.841207 42.8988 2
      vertex -0.857904 42.78 2
    endloop
  endfacet
  facet normal 0 0 1
    outer loop
      vertex 0.2 0.2 2
      vertex -0.759335 -0.403745 2
      vertex -0.695754 -0.505495 2
    endloop
  endfacet
  facet normal 0 0 1
    outer loop
      vertex 0.2 0.2 2
      vertex -0.808135 -0.294137 2
      vertex -0.759335 -0.403745 2
    endloop
  endfacet
  facet normal 0 0 1
    outer loop
      vertex 0.2 0.2 2
      vertex -0.841207 -0.178803 2
      vertex -0.808135 -0.294137 2
    endloop
  endfacet
  facet normal -0.913546 -0.406736 0
    outer loop
      vertex -0.759335 -0.403745 0
      vertex -0.808135 -0.294137 2
      vertex -0.808135 -0.294137 0
    endloop
  endfacet
  facet normal -0.913546 -0.406736 0
    outer loop
      vertex -0.808135 -0.294137 2
      vertex -0.759335 -0.403745 0
      vertex -0.759335 -0.403745 2
    endloop
  endfacet
  facet normal 0 0 -1
    outer loop
      vertex 118.76 -0.859476 0
      vertex 119.59 0 0
      vertex 119.582 -0.119688 0
    endloop
  endfacet
  facet normal -0 0 -1
    outer loop
      vertex 119.59 0 0
      vertex 118.76 -0.859476 0
      vertex 119.59 42.72 0
    endloop
  endfacet
  facet normal 0 0 -1
    outer loop
      vertex 118.76 -0.859476 0
      vertex 119.582 -0.119688 0
      vertex 119.557 -0.237047 0
    endloop
  endfacet
  facet normal 0 0 -1
    outer loop
      vertex 118.76 43.5795 0
      vertex 119.59 42.72 0
      vertex 118.76 -0.859476 0
    endloop
  endfacet
  facet normal 0 0 -1
    outer loop
      vertex 118.76 -0.859476 0
      vertex 119.557 -0.237047 0
      vertex 119.516 -0.349793 0
    endloop
  endfacet
  facet normal 0 0 -1
    outer loop
      vertex 119.59 42.72 0
      vertex 118.76 43.5795 0
      vertex 119.582 42.8397 0
    endloop
  endfacet
  facet normal 0 0 -1
    outer loop
      vertex 118.76 -0.859476 0
      vertex 119.516 -0.349793 0
      vertex 119.459 -0.45573 0
    endloop
  endfacet
  facet normal 0 0 -1
    outer loop
      vertex 119.582 42.8397 0
      vertex 118.76 43.5795 0
      vertex 119.557 42.957 0
    endloop
  endfacet
  facet normal 0 0 -1
    outer loop
      vertex 118.76 -0.859476 0
      vertex 119.459 -0.45573 0
      vertex 119.389 -0.552797 0
    endloop
  endfacet
  facet normal 0 0 -1
    outer loop
      vertex 119.557 42.957 0
      vertex 118.76 43.5795 0
      vertex 119.516 43.0698 0
    endloop
  endfacet
  facet normal 0 0 -1
    outer loop
      vertex 118.76 -0.859476 0
      vertex 119.389 -0.552797 0
      vertex 119.305 -0.639104 0
    endloop
  endfacet
  facet normal 0 0 -1
    outer loop
      vertex 119.516 43.0698 0
      vertex 118.76 43.5795 0
      vertex 119.459 43.1757 0
    endloop
  endfacet
  facet normal 0 0 -1
    outer loop
      vertex 118.76 -0.859476 0
      vertex 119.305 -0.639104 0
      vertex 119.211 -0.712972 0
    endloop
  endfacet
  facet normal 0 0 -1
    outer loop
      vertex 119.459 43.1757 0
      vertex 118.76 43.5795 0
      vertex 119.389 43.2728 0
    endloop
  endfacet
  facet normal 0 0 -1
    outer loop
      vertex 118.76 -0.859476 0
      vertex 119.211 -0.712972 0
      vertex 119.107 -0.772963 0
    endloop
  endfacet
  facet normal 0 0 -1
    outer loop
      vertex 119.389 43.2728 0
      vertex 118.76 43.5795 0
      vertex 119.305 43.3591 0
    endloop
  endfacet
  facet normal 0 0 -1
    outer loop
      vertex 118.76 -0.859476 0
      vertex 119.107 -0.772963 0
      vertex 118.996 -0.817908 0
    endloop
  endfacet
  facet normal 0 0 -1
    outer loop
      vertex 119.305 43.3591 0
      vertex 118.76 43.5795 0
      vertex 119.211 43.433 0
    endloop
  endfacet
  facet normal 0 0 -1
    outer loop
      vertex 118.76 -0.859476 0
      vertex 118.996 -0.817908 0
      vertex 118.879 -0.846934 0
    endloop
  endfacet
  facet normal 0 0 -1
    outer loop
      vertex 119.211 43.433 0
      vertex 118.76 43.5795 0
      vertex 119.107 43.493 0
    endloop
  endfacet
  facet normal 0 0 -1
    outer loop
      vertex 119.107 43.493 0
      vertex 118.76 43.5795 0
      vertex 118.996 43.5379 0
    endloop
  endfacet
  facet normal 0 0 -1
    outer loop
      vertex 118.996 43.5379 0
      vertex 118.76 43.5795 0
      vertex 118.879 43.5669 0
    endloop
  endfacet
  facet normal 0 0 -1
    outer loop
      vertex 0.0300131 -0.859476 0
      vertex 118.76 43.5795 0
      vertex 118.76 -0.859476 0
    endloop
  endfacet
  facet normal 0 0 -1
    outer loop
      vertex 0.0300131 -0.859476 0
      vertex 0.0300131 43.5795 0
      vertex 118.76 43.5795 0
    endloop
  endfacet
  facet normal 0 0 -1
    outer loop
      vertex -0.857904 -0.0599899 0
      vertex 0.0300131 -0.859476 0
      vertex -0.0898943 -0.855289 0
    endloop
  endfacet
  facet normal 0 0 -1
    outer loop
      vertex 0.0300131 -0.859476 0
      vertex -0.857904 -0.0599899 0
      vertex 0.0300131 43.5795 0
    endloop
  endfacet
  facet normal 0 0 -1
    outer loop
      vertex -0.857904 -0.0599899 0
      vertex -0.0898943 -0.855289 0
      vertex -0.208053 -0.834454 0
    endloop
  endfacet
  facet normal 0 0 -1
    outer loop
      vertex -0.857904 42.78 0
      vertex 0.0300131 43.5795 0
      vertex -0.857904 -0.0599899 0
    endloop
  endfacet
  facet normal 0 0 -1
    outer loop
      vertex -0.857904 -0.0599899 0
      vertex -0.208053 -0.834454 0
      vertex -0.322161 -0.797378 0
    endloop
  endfacet
  facet normal 0 0 -1
    outer loop
      vertex 0.0300131 43.5795 0
      vertex -0.857904 42.78 0
      vertex -0.0898943 43.5753 0
    endloop
  endfacet
  facet normal 0 0 -1
    outer loop
      vertex -0.857904 -0.0599899 0
      vertex -0.322161 -0.797378 0
      vertex -0.429999 -0.744781 0
    endloop
  endfacet
  facet normal 0 0 -1
    outer loop
      vertex -0.0898943 43.5753 0
      vertex -0.857904 42.78 0
      vertex -0.208053 43.5545 0
    endloop
  endfacet
  facet normal 0 0 -1
    outer loop
      vertex -0.857904 -0.0599899 0
      vertex -0.429999 -0.744781 0
      vertex -0.529469 -0.677689 0
    endloop
  endfacet
  facet normal 0 0 -1
    outer loop
      vertex -0.208053 43.5545 0
      vertex -0.857904 42.78 0
      vertex -0.322161 43.5174 0
    endloop
  endfacet
  facet normal 0 0 -1
    outer loop
      vertex -0.857904 -0.0599899 0
      vertex -0.529469 -0.677689 0
      vertex -0.618631 -0.597405 0
    endloop
  endfacet
  facet normal 0 0 -1
    outer loop
      vertex -0.322161 43.5174 0
      vertex -0.857904 42.78 0
      vertex -0.429999 43.4648 0
    endloop
  endfacet
  facet normal 0 0 -1
    outer loop
      vertex -0.857904 -0.0599899 0
      vertex -0.618631 -0.597405 0
      vertex -0.695754 -0.505495 0
    endloop
  endfacet
  facet normal 0 0 -1
    outer loop
      vertex -0.429999 43.4648 0
      vertex -0.857904 42.78 0
      vertex -0.529469 43.3977 0
    endloop
  endfacet
  facet normal 0 0 -1
    outer loop
      vertex -0.857904 -0.0599899 0
      vertex -0.695754 -0.505495 0
      vertex -0.759335 -0.403745 0
    endloop
  endfacet
  facet normal 0 0 -1
    outer loop
      vertex -0.529469 43.3977 0
      vertex -0.857904 42.78 0
      vertex -0.618631 43.3174 0
    endloop
  endfacet
  facet normal 0 0 -1
    outer loop
      vertex -0.857904 -0.0599899 0
      vertex -0.759335 -0.403745 0
      vertex -0.808135 -0.294137 0
    endloop
  endfacet
  facet normal 0 0 -1
    outer loop
      vertex -0.618631 43.3174 0
      vertex -0.857904 42.78 0
      vertex -0.695754 43.2255 0
    endloop
  endfacet
  facet normal 0 0 -1
    outer loop
      vertex -0.857904 -0.0599899 0
      vertex -0.808135 -0.294137 0
      vertex -0.841207 -0.178803 0
    endloop
  endfacet
  facet normal 0 0 -1
    outer loop
      vertex -0.695754 43.2255 0
      vertex -0.857904 42.78 0
      vertex -0.759335 43.1237 0
    endloop
  endfacet
  facet normal 0 0 -1
    outer loop
      vertex -0.759335 43.1237 0
      vertex -0.857904 42.78 0
      vertex -0.808135 43.0141 0
    endloop
  endfacet
  facet normal 0 0 -1
    outer loop
      vertex -0.808135 43.0141 0
      vertex -0.857904 42.78 0
      vertex -0.841207 42.8988 0
    endloop
  endfacet
  facet normal -0.961261 -0.275639 0
    outer loop
      vertex -0.808135 -0.294137 0
      vertex -0.841207 -0.178803 2
      vertex -0.841207 -0.178803 0
    endloop
  endfacet
  facet normal -0.961261 -0.275639 0
    outer loop
      vertex -0.841207 -0.178803 2
      vertex -0.808135 -0.294137 0
      vertex -0.808135 -0.294137 2
    endloop
  endfacet
  facet normal -1 0 0
    outer loop
      vertex 0.2 0.2 2
      vertex 0.2 42.52 13
      vertex 0.2 42.52 2
    endloop
  endfacet
  facet normal -1 -0 0
    outer loop
      vertex 0.2 42.52 13
      vertex 0.2 0.2 2
      vertex 0.2 0.2 13
    endloop
  endfacet
  facet normal 0 0 1
    outer loop
      vertex 118.53 42.52 13
      vertex 117.67 41.66 13
      vertex 118.53 0.2 13
    endloop
  endfacet
  facet normal 0 0 1
    outer loop
      vertex 118.53 42.52 13
      vertex 1.06 41.66 13
      vertex 117.67 41.66 13
    endloop
  endfacet
  facet normal 0 0 1
    outer loop
      vertex 1.06 41.66 13
      vertex 0.2 42.52 13
      vertex 1.06 1.06 13
    endloop
  endfacet
  facet normal -0 0 1
    outer loop
      vertex 0.2 42.52 13
      vertex 1.06 41.66 13
      vertex 118.53 42.52 13
    endloop
  endfacet
  facet normal -0 0 1
    outer loop
      vertex 117.67 1.06 13
      vertex 118.53 0.2 13
      vertex 117.67 41.66 13
    endloop
  endfacet
  facet normal -0 0 1
    outer loop
      vertex 1.06 1.06 13
      vertex 118.53 0.2 13
      vertex 117.67 1.06 13
    endloop
  endfacet
  facet normal 0 0 1
    outer loop
      vertex 1.06 1.06 13
      vertex 0.2 0.2 13
      vertex 118.53 0.2 13
    endloop
  endfacet
  facet normal 0 0 1
    outer loop
      vertex 0.2 0.2 13
      vertex 1.06 1.06 13
      vertex 0.2 42.52 13
    endloop
  endfacet
  facet normal 1 -0 0
    outer loop
      vertex 118.53 0.2 13
      vertex 118.53 42.52 2
      vertex 118.53 42.52 13
    endloop
  endfacet
  facet normal 1 0 0
    outer loop
      vertex 118.53 42.52 2
      vertex 118.53 0.2 13
      vertex 118.53 0.2 2
    endloop
  endfacet
  facet normal 0 1 -0
    outer loop
      vertex 118.53 42.52 2
      vertex 0.2 42.52 13
      vertex 118.53 42.52 13
    endloop
  endfacet
  facet normal 0 1 0
    outer loop
      vertex 0.2 42.52 13
      vertex 118.53 42.52 2
      vertex 0.2 42.52 2
    endloop
  endfacet
  facet normal 0 -1 0
    outer loop
      vertex 0.2 0.2 2
      vertex 118.53 0.2 13
      vertex 0.2 0.2 13
    endloop
  endfacet
  facet normal 0 -1 -0
    outer loop
      vertex 118.53 0.2 13
      vertex 0.2 0.2 2
      vertex 118.53 0.2 2
    endloop
  endfacet
  facet normal 1 -0 0
    outer loop
      vertex 1.06 1.06 13
      vertex 1.06 41.66 1
      vertex 1.06 41.66 13
    endloop
  endfacet
  facet normal 1 0 0
    outer loop
      vertex 1.06 41.66 1
      vertex 1.06 1.06 13
      vertex 1.06 1.06 1
    endloop
  endfacet
  facet normal -1 0 0
    outer loop
      vertex 117.67 1.06 1
      vertex 117.67 41.66 13
      vertex 117.67 41.66 1
    endloop
  endfacet
  facet normal -1 -0 0
    outer loop
      vertex 117.67 41.66 13
      vertex 117.67 1.06 1
      vertex 117.67 1.06 13
    endloop
  endfacet
  facet normal -0 0 1
    outer loop
      vertex 1.06 41.66 1
      vertex 117.67 1.06 1
      vertex 117.67 41.66 1
    endloop
  endfacet
  facet normal 0 0 1
    outer loop
      vertex 117.67 1.06 1
      vertex 1.06 41.66 1
      vertex 1.06 1.06 1
    endloop
  endfacet
  facet normal 0 1 -0
    outer loop
      vertex 117.67 1.06 1
      vertex 1.06 1.06 13
      vertex 117.67 1.06 13
    endloop
  endfacet
  facet normal 0 1 0
    outer loop
      vertex 1.06 1.06 13
      vertex 117.67 1.06 1
      vertex 1.06 1.06 1
    endloop
  endfacet
  facet normal 0 -1 0
    outer loop
      vertex 1.06 41.66 1
      vertex 117.67 41.66 13
      vertex 1.06 41.66 13
    endloop
  endfacet
  facet normal 0 -1 -0
    outer loop
      vertex 117.67 41.66 13
      vertex 1.06 41.66 1
      vertex 117.67 41.66 1
    endloop
  endfacet
endsolid OpenSCAD_Model
