solid OpenSCAD_Model
  facet normal 1 -0 0
    outer loop
      vertex 100.25 0 2
      vertex 100.25 85.39 0
      vertex 100.25 85.39 2
    endloop
  endfacet
  facet normal 1 0 0
    outer loop
      vertex 100.25 85.39 0
      vertex 100.25 0 2
      vertex 100.25 0 0
    endloop
  endfacet
  facet normal -0.990268 -0.139171 0
    outer loop
      vertex -0.841207 -0.178803 0
      vertex -0.857904 -0.0599899 2
      vertex -0.857904 -0.0599899 0
    endloop
  endfacet
  facet normal -0.990268 -0.139171 0
    outer loop
      vertex -0.857904 -0.0599899 2
      vertex -0.841207 -0.178803 0
      vertex -0.841207 -0.178803 2
    endloop
  endfacet
  facet normal 0.997564 -0.0697568 0
    outer loop
      vertex 100.242 -0.119688 2
      vertex 100.25 0 0
      vertex 100.25 0 2
    endloop
  endfacet
  facet normal 0.997564 -0.0697568 0
    outer loop
      vertex 100.25 0 0
      vertex 100.242 -0.119688 2
      vertex 100.242 -0.119688 0
    endloop
  endfacet
  facet normal -1 0 0
    outer loop
      vertex -0.857904 -0.0599899 0
      vertex -0.857904 85.45 2
      vertex -0.857904 85.45 0
    endloop
  endfacet
  facet normal -1 -0 0
    outer loop
      vertex -0.857904 85.45 2
      vertex -0.857904 -0.0599899 0
      vertex -0.857904 -0.0599899 2
    endloop
  endfacet
  facet normal 0 0 1
    outer loop
      vertex 99.19 85.19 2
      vertex 100.25 85.39 2
      vertex 100.242 85.5097 2
    endloop
  endfacet
  facet normal 0 0 1
    outer loop
      vertex 100.25 85.39 2
      vertex 99.19 85.19 2
      vertex 100.25 0 2
    endloop
  endfacet
  facet normal 0 0 1
    outer loop
      vertex 99.19 85.19 2
      vertex 100.242 85.5097 2
      vertex 100.217 85.627 2
    endloop
  endfacet
  facet normal -0 0 1
    outer loop
      vertex 99.19 0.2 2
      vertex 100.25 0 2
      vertex 99.19 85.19 2
    endloop
  endfacet
  facet normal 0 0 1
    outer loop
      vertex 99.19 85.19 2
      vertex 100.217 85.627 2
      vertex 100.176 85.7398 2
    endloop
  endfacet
  facet normal 0 0 1
    outer loop
      vertex 100.25 0 2
      vertex 99.19 0.2 2
      vertex 100.242 -0.119688 2
    endloop
  endfacet
  facet normal 0 0 1
    outer loop
      vertex 99.19 85.19 2
      vertex 100.176 85.7398 2
      vertex 100.119 85.8457 2
    endloop
  endfacet
  facet normal 0 0 1
    outer loop
      vertex 100.242 -0.119688 2
      vertex 99.19 0.2 2
      vertex 100.217 -0.237047 2
    endloop
  endfacet
  facet normal 0 0 1
    outer loop
      vertex 99.19 85.19 2
      vertex 100.119 85.8457 2
      vertex 100.049 85.9428 2
    endloop
  endfacet
  facet normal 0 0 1
    outer loop
      vertex 100.217 -0.237047 2
      vertex 99.19 0.2 2
      vertex 100.176 -0.349793 2
    endloop
  endfacet
  facet normal 0 0 1
    outer loop
      vertex 99.19 85.19 2
      vertex 100.049 85.9428 2
      vertex 99.9655 86.0291 2
    endloop
  endfacet
  facet normal 0 0 1
    outer loop
      vertex 100.176 -0.349793 2
      vertex 99.19 0.2 2
      vertex 100.119 -0.45573 2
    endloop
  endfacet
  facet normal 0 0 1
    outer loop
      vertex 99.19 85.19 2
      vertex 99.9655 86.0291 2
      vertex 99.8709 86.103 2
    endloop
  endfacet
  facet normal 0 0 1
    outer loop
      vertex 100.119 -0.45573 2
      vertex 99.19 0.2 2
      vertex 100.049 -0.552797 2
    endloop
  endfacet
  facet normal 0 0 1
    outer loop
      vertex 99.19 85.19 2
      vertex 99.8709 86.103 2
      vertex 99.767 86.163 2
    endloop
  endfacet
  facet normal 0 0 1
    outer loop
      vertex 100.049 -0.552797 2
      vertex 99.19 0.2 2
      vertex 99.9655 -0.639104 2
    endloop
  endfacet
  facet normal 0 0 1
    outer loop
      vertex 99.19 85.19 2
      vertex 99.767 86.163 2
      vertex 99.6558 86.2079 2
    endloop
  endfacet
  facet normal 0 0 1
    outer loop
      vertex 99.9655 -0.639104 2
      vertex 99.19 0.2 2
      vertex 99.8709 -0.712972 2
    endloop
  endfacet
  facet normal 0 0 1
    outer loop
      vertex 99.19 85.19 2
      vertex 99.6558 86.2079 2
      vertex 99.5393 86.2369 2
    endloop
  endfacet
  facet normal 0 0 1
    outer loop
      vertex 99.8709 -0.712972 2
      vertex 99.19 0.2 2
      vertex 99.767 -0.772963 2
    endloop
  endfacet
  facet normal 0 0 1
    outer loop
      vertex 99.19 85.19 2
      vertex 99.5393 86.2369 2
      vertex 99.42 86.2495 2
    endloop
  endfacet
  facet normal 0 0 1
    outer loop
      vertex 99.767 -0.772963 2
      vertex 99.19 0.2 2
      vertex 99.6558 -0.817908 2
    endloop
  endfacet
  facet normal 0 0 1
    outer loop
      vertex 99.6558 -0.817908 2
      vertex 99.19 0.2 2
      vertex 99.5393 -0.846934 2
    endloop
  endfacet
  facet normal -0 0 1
    outer loop
      vertex 0.0300131 86.2495 2
      vertex 99.19 85.19 2
      vertex 99.42 86.2495 2
    endloop
  endfacet
  facet normal -0 0 1
    outer loop
      vertex -0.0898943 86.2453 2
      vertex 0.2 85.19 2
      vertex 0.0300131 86.2495 2
    endloop
  endfacet
  facet normal 0 0 1
    outer loop
      vertex 99.19 85.19 2
      vertex 0.0300131 86.2495 2
      vertex 0.2 85.19 2
    endloop
  endfacet
  facet normal 0 0 1
    outer loop
      vertex 99.5393 -0.846934 2
      vertex 99.19 0.2 2
      vertex 99.42 -0.859476 2
    endloop
  endfacet
  facet normal 0 0 1
    outer loop
      vertex 0.0300131 -0.859476 2
      vertex 99.19 0.2 2
      vertex 0.2 0.2 2
    endloop
  endfacet
  facet normal 0 0 1
    outer loop
      vertex 99.19 0.2 2
      vertex 0.0300131 -0.859476 2
      vertex 99.42 -0.859476 2
    endloop
  endfacet
  facet normal 0 0 1
    outer loop
      vertex 0.2 85.19 2
      vertex -0.857904 85.45 2
      vertex 0.2 0.2 2
    endloop
  endfacet
  facet normal -0 0 1
    outer loop
      vertex -0.208053 86.2245 2
      vertex 0.2 85.19 2
      vertex -0.0898943 86.2453 2
    endloop
  endfacet
  facet normal 0 0 1
    outer loop
      vertex -0.857904 -0.0599899 2
      vertex 0.2 0.2 2
      vertex -0.857904 85.45 2
    endloop
  endfacet
  facet normal -0 0 1
    outer loop
      vertex -0.322161 86.1874 2
      vertex 0.2 85.19 2
      vertex -0.208053 86.2245 2
    endloop
  endfacet
  facet normal 0 -0 1
    outer loop
      vertex -0.841207 -0.178803 2
      vertex 0.2 0.2 2
      vertex -0.857904 -0.0599899 2
    endloop
  endfacet
  facet normal -0 0 1
    outer loop
      vertex -0.429999 86.1348 2
      vertex 0.2 85.19 2
      vertex -0.322161 86.1874 2
    endloop
  endfacet
  facet normal 0 0 1
    outer loop
      vertex 0.2 0.2 2
      vertex -0.0898943 -0.855289 2
      vertex 0.0300131 -0.859476 2
    endloop
  endfacet
  facet normal -0 0 1
    outer loop
      vertex -0.529469 86.0677 2
      vertex 0.2 85.19 2
      vertex -0.429999 86.1348 2
    endloop
  endfacet
  facet normal 0 0 1
    outer loop
      vertex 0.2 0.2 2
      vertex -0.208053 -0.834454 2
      vertex -0.0898943 -0.855289 2
    endloop
  endfacet
  facet normal -0 0 1
    outer loop
      vertex -0.618631 85.9874 2
      vertex 0.2 85.19 2
      vertex -0.529469 86.0677 2
    endloop
  endfacet
  facet normal 0 0 1
    outer loop
      vertex 0.2 0.2 2
      vertex -0.322161 -0.797378 2
      vertex -0.208053 -0.834454 2
    endloop
  endfacet
  facet normal -0 0 1
    outer loop
      vertex -0.695754 85.8955 2
      vertex 0.2 85.19 2
      vertex -0.618631 85.9874 2
    endloop
  endfacet
  facet normal 0 0 1
    outer loop
      vertex 0.2 0.2 2
      vertex -0.429999 -0.744781 2
      vertex -0.322161 -0.797378 2
    endloop
  endfacet
  facet normal -0 0 1
    outer loop
      vertex -0.759335 85.7937 2
      vertex 0.2 85.19 2
      vertex -0.695754 85.8955 2
    endloop
  endfacet
  facet normal 0 0 1
    outer loop
      vertex 0.2 0.2 2
      vertex -0.529469 -0.677689 2
      vertex -0.429999 -0.744781 2
    endloop
  endfacet
  facet normal -0 0 1
    outer loop
      vertex -0.808135 85.6841 2
      vertex 0.2 85.19 2
      vertex -0.759335 85.7937 2
    endloop
  endfacet
  facet normal 0 0 1
    outer loop
      vertex 0.2 0.2 2
      vertex -0.618631 -0.597405 2
      vertex -0.529469 -0.677689 2
    endloop
  endfacet
  facet normal -0 0 1
    outer loop
      vertex -0.841207 85.5688 2
      vertex 0.2 85.19 2
      vertex -0.808135 85.6841 2
    endloop
  endfacet
  facet normal 0 0 1
    outer loop
      vertex 0.2 0.2 2
      vertex -0.695754 -0.505495 2
      vertex -0.618631 -0.597405 2
    endloop
  endfacet
  facet normal 0 0 1
    outer loop
      vertex 0.2 85.19 2
      vertex -0.841207 85.5688 2
      vertex -0.857904 85.45 2
    endloop
  endfacet
  facet normal 0 0 1
    outer loop
      vertex 0.2 0.2 2
      vertex -0.759335 -0.403745 2
      vertex -0.695754 -0.505495 2
    endloop
  endfacet
  facet normal 0 0 1
    outer loop
      vertex 0.2 0.2 2
      vertex -0.808135 -0.294137 2
      vertex -0.759335 -0.403745 2
    endloop
  endfacet
  facet normal 0 0 1
    outer loop
      vertex 0.2 0.2 2
      vertex -0.841207 -0.178803 2
      vertex -0.808135 -0.294137 2
    endloop
  endfacet
  facet normal 0 -1 0
    outer loop
      vertex 0.0300131 -0.859476 0
      vertex 99.42 -0.859476 2
      vertex 0.0300131 -0.859476 2
    endloop
  endfacet
  facet normal 0 -1 -0
    outer loop
      vertex 99.42 -0.859476 2
      vertex 0.0300131 -0.859476 0
      vertex 99.42 -0.859476 0
    endloop
  endfacet
  facet normal 0.809005 -0.587801 0
    outer loop
      vertex 100.049 -0.552797 2
      vertex 100.119 -0.45573 0
      vertex 100.119 -0.45573 2
    endloop
  endfacet
  facet normal 0.809005 -0.587801 0
    outer loop
      vertex 100.119 -0.45573 0
      vertex 100.049 -0.552797 2
      vertex 100.049 -0.552797 0
    endloop
  endfacet
  facet normal -0.559193 0.829037 0
    outer loop
      vertex -0.429999 86.1348 0
      vertex -0.529469 86.0677 2
      vertex -0.429999 86.1348 2
    endloop
  endfacet
  facet normal -0.559193 0.829037 0
    outer loop
      vertex -0.529469 86.0677 2
      vertex -0.429999 86.1348 0
      vertex -0.529469 86.0677 0
    endloop
  endfacet
  facet normal 0.997564 0.0697557 0
    outer loop
      vertex 100.25 85.39 2
      vertex 100.242 85.5097 0
      vertex 100.242 85.5097 2
    endloop
  endfacet
  facet normal 0.997564 0.0697557 0
    outer loop
      vertex 100.242 85.5097 0
      vertex 100.25 85.39 2
      vertex 100.25 85.39 0
    endloop
  endfacet
  facet normal 0.978143 -0.207933 0
    outer loop
      vertex 100.217 -0.237047 2
      vertex 100.242 -0.119688 0
      vertex 100.242 -0.119688 2
    endloop
  endfacet
  facet normal 0.978143 -0.207933 0
    outer loop
      vertex 100.242 -0.119688 0
      vertex 100.217 -0.237047 2
      vertex 100.217 -0.237047 0
    endloop
  endfacet
  facet normal 0.978142 0.207939 0
    outer loop
      vertex 100.242 85.5097 2
      vertex 100.217 85.627 0
      vertex 100.217 85.627 2
    endloop
  endfacet
  facet normal 0.978142 0.207939 0
    outer loop
      vertex 100.217 85.627 0
      vertex 100.242 85.5097 2
      vertex 100.242 85.5097 0
    endloop
  endfacet
  facet normal 0.500009 -0.86602 0
    outer loop
      vertex 99.767 -0.772963 0
      vertex 99.8709 -0.712972 2
      vertex 99.767 -0.772963 2
    endloop
  endfacet
  facet normal 0.500009 -0.86602 0
    outer loop
      vertex 99.8709 -0.712972 2
      vertex 99.767 -0.772963 0
      vertex 99.8709 -0.712972 0
    endloop
  endfacet
  facet normal 0.615643 -0.788025 0
    outer loop
      vertex 99.8709 -0.712972 0
      vertex 99.9655 -0.639104 2
      vertex 99.8709 -0.712972 2
    endloop
  endfacet
  facet normal 0.615643 -0.788025 0
    outer loop
      vertex 99.9655 -0.639104 2
      vertex 99.8709 -0.712972 0
      vertex 99.9655 -0.639104 0
    endloop
  endfacet
  facet normal -0.559193 -0.829037 0
    outer loop
      vertex -0.529469 -0.677689 0
      vertex -0.429999 -0.744781 2
      vertex -0.529469 -0.677689 2
    endloop
  endfacet
  facet normal -0.559193 -0.829037 -0
    outer loop
      vertex -0.429999 -0.744781 2
      vertex -0.529469 -0.677689 0
      vertex -0.429999 -0.744781 0
    endloop
  endfacet
  facet normal -0.0349022 -0.999391 0
    outer loop
      vertex -0.0898943 -0.855289 0
      vertex 0.0300131 -0.859476 2
      vertex -0.0898943 -0.855289 2
    endloop
  endfacet
  facet normal -0.0349022 -0.999391 -0
    outer loop
      vertex 0.0300131 -0.859476 2
      vertex -0.0898943 -0.855289 0
      vertex 0.0300131 -0.859476 0
    endloop
  endfacet
  facet normal -0.848038 0.529936 0
    outer loop
      vertex -0.759335 85.7937 0
      vertex -0.695754 85.8955 2
      vertex -0.695754 85.8955 0
    endloop
  endfacet
  facet normal -0.848038 0.529936 0
    outer loop
      vertex -0.695754 85.8955 2
      vertex -0.759335 85.7937 0
      vertex -0.759335 85.7937 2
    endloop
  endfacet
  facet normal -0.990268 0.139172 0
    outer loop
      vertex -0.857904 85.45 0
      vertex -0.841207 85.5688 2
      vertex -0.841207 85.5688 0
    endloop
  endfacet
  facet normal -0.990268 0.139172 0
    outer loop
      vertex -0.841207 85.5688 2
      vertex -0.857904 85.45 0
      vertex -0.857904 85.45 2
    endloop
  endfacet
  facet normal 0 1 -0
    outer loop
      vertex 99.42 86.2495 0
      vertex 0.0300131 86.2495 2
      vertex 99.42 86.2495 2
    endloop
  endfacet
  facet normal 0 1 0
    outer loop
      vertex 0.0300131 86.2495 2
      vertex 99.42 86.2495 0
      vertex 0.0300131 86.2495 0
    endloop
  endfacet
  facet normal 0.500003 0.866024 -0
    outer loop
      vertex 99.8709 86.103 0
      vertex 99.767 86.163 2
      vertex 99.8709 86.103 2
    endloop
  endfacet
  facet normal 0.500003 0.866024 0
    outer loop
      vertex 99.767 86.163 2
      vertex 99.8709 86.103 0
      vertex 99.767 86.163 0
    endloop
  endfacet
  facet normal 0.939687 -0.342037 0
    outer loop
      vertex 100.176 -0.349793 2
      vertex 100.217 -0.237047 0
      vertex 100.217 -0.237047 2
    endloop
  endfacet
  facet normal 0.939687 -0.342037 0
    outer loop
      vertex 100.217 -0.237047 0
      vertex 100.176 -0.349793 2
      vertex 100.176 -0.349793 0
    endloop
  endfacet
  facet normal 0.374608 -0.927183 0
    outer loop
      vertex 99.6558 -0.817908 0
      vertex 99.767 -0.772963 2
      vertex 99.6558 -0.817908 2
    endloop
  endfacet
  facet normal 0.374608 -0.927183 0
    outer loop
      vertex 99.767 -0.772963 2
      vertex 99.6558 -0.817908 0
      vertex 99.767 -0.772963 0
    endloop
  endfacet
  facet normal 0.719347 -0.694651 0
    outer loop
      vertex 99.9655 -0.639104 2
      vertex 100.049 -0.552797 0
      vertex 100.049 -0.552797 2
    endloop
  endfacet
  facet normal 0.719347 -0.694651 0
    outer loop
      vertex 100.049 -0.552797 0
      vertex 99.9655 -0.639104 2
      vertex 99.9655 -0.639104 0
    endloop
  endfacet
  facet normal -0.848049 -0.529918 0
    outer loop
      vertex -0.695754 -0.505495 0
      vertex -0.759335 -0.403745 2
      vertex -0.759335 -0.403745 0
    endloop
  endfacet
  facet normal -0.848049 -0.529918 0
    outer loop
      vertex -0.759335 -0.403745 2
      vertex -0.695754 -0.505495 0
      vertex -0.695754 -0.505495 2
    endloop
  endfacet
  facet normal -0.669133 -0.743142 0
    outer loop
      vertex -0.618631 -0.597405 0
      vertex -0.529469 -0.677689 2
      vertex -0.618631 -0.597405 2
    endloop
  endfacet
  facet normal -0.669133 -0.743142 -0
    outer loop
      vertex -0.529469 -0.677689 2
      vertex -0.618631 -0.597405 0
      vertex -0.529469 -0.677689 0
    endloop
  endfacet
  facet normal 0 0 -1
    outer loop
      vertex 99.42 -0.859476 0
      vertex 100.25 0 0
      vertex 100.242 -0.119688 0
    endloop
  endfacet
  facet normal -0 0 -1
    outer loop
      vertex 100.25 0 0
      vertex 99.42 -0.859476 0
      vertex 100.25 85.39 0
    endloop
  endfacet
  facet normal 0 0 -1
    outer loop
      vertex 99.42 -0.859476 0
      vertex 100.242 -0.119688 0
      vertex 100.217 -0.237047 0
    endloop
  endfacet
  facet normal 0 0 -1
    outer loop
      vertex 99.42 86.2495 0
      vertex 100.25 85.39 0
      vertex 99.42 -0.859476 0
    endloop
  endfacet
  facet normal 0 0 -1
    outer loop
      vertex 99.42 -0.859476 0
      vertex 100.217 -0.237047 0
      vertex 100.176 -0.349793 0
    endloop
  endfacet
  facet normal 0 0 -1
    outer loop
      vertex 100.25 85.39 0
      vertex 99.42 86.2495 0
      vertex 100.242 85.5097 0
    endloop
  endfacet
  facet normal 0 0 -1
    outer loop
      vertex 99.42 -0.859476 0
      vertex 100.176 -0.349793 0
      vertex 100.119 -0.45573 0
    endloop
  endfacet
  facet normal 0 0 -1
    outer loop
      vertex 100.242 85.5097 0
      vertex 99.42 86.2495 0
      vertex 100.217 85.627 0
    endloop
  endfacet
  facet normal 0 0 -1
    outer loop
      vertex 99.42 -0.859476 0
      vertex 100.119 -0.45573 0
      vertex 100.049 -0.552797 0
    endloop
  endfacet
  facet normal 0 0 -1
    outer loop
      vertex 100.217 85.627 0
      vertex 99.42 86.2495 0
      vertex 100.176 85.7398 0
    endloop
  endfacet
  facet normal 0 0 -1
    outer loop
      vertex 99.42 -0.859476 0
      vertex 100.049 -0.552797 0
      vertex 99.9655 -0.639104 0
    endloop
  endfacet
  facet normal 0 0 -1
    outer loop
      vertex 100.176 85.7398 0
      vertex 99.42 86.2495 0
      vertex 100.119 85.8457 0
    endloop
  endfacet
  facet normal 0 0 -1
    outer loop
      vertex 99.42 -0.859476 0
      vertex 99.9655 -0.639104 0
      vertex 99.8709 -0.712972 0
    endloop
  endfacet
  facet normal 0 0 -1
    outer loop
      vertex 100.119 85.8457 0
      vertex 99.42 86.2495 0
      vertex 100.049 85.9428 0
    endloop
  endfacet
  facet normal 0 0 -1
    outer loop
      vertex 99.42 -0.859476 0
      vertex 99.8709 -0.712972 0
      vertex 99.767 -0.772963 0
    endloop
  endfacet
  facet normal 0 0 -1
    outer loop
      vertex 100.049 85.9428 0
      vertex 99.42 86.2495 0
      vertex 99.9655 86.0291 0
    endloop
  endfacet
  facet normal 0 0 -1
    outer loop
      vertex 99.42 -0.859476 0
      vertex 99.767 -0.772963 0
      vertex 99.6558 -0.817908 0
    endloop
  endfacet
  facet normal 0 0 -1
    outer loop
      vertex 99.9655 86.0291 0
      vertex 99.42 86.2495 0
      vertex 99.8709 86.103 0
    endloop
  endfacet
  facet normal 0 0 -1
    outer loop
      vertex 99.42 -0.859476 0
      vertex 99.6558 -0.817908 0
      vertex 99.5393 -0.846934 0
    endloop
  endfacet
  facet normal 0 0 -1
    outer loop
      vertex 99.8709 86.103 0
      vertex 99.42 86.2495 0
      vertex 99.767 86.163 0
    endloop
  endfacet
  facet normal 0 0 -1
    outer loop
      vertex 99.767 86.163 0
      vertex 99.42 86.2495 0
      vertex 99.6558 86.2079 0
    endloop
  endfacet
  facet normal 0 0 -1
    outer loop
      vertex 99.6558 86.2079 0
      vertex 99.42 86.2495 0
      vertex 99.5393 86.2369 0
    endloop
  endfacet
  facet normal 0 0 -1
    outer loop
      vertex 0.0300131 -0.859476 0
      vertex 99.42 86.2495 0
      vertex 99.42 -0.859476 0
    endloop
  endfacet
  facet normal 0 0 -1
    outer loop
      vertex 0.0300131 -0.859476 0
      vertex 0.0300131 86.2495 0
      vertex 99.42 86.2495 0
    endloop
  endfacet
  facet normal 0 0 -1
    outer loop
      vertex -0.857904 -0.0599899 0
      vertex 0.0300131 -0.859476 0
      vertex -0.0898943 -0.855289 0
    endloop
  endfacet
  facet normal 0 0 -1
    outer loop
      vertex 0.0300131 -0.859476 0
      vertex -0.857904 -0.0599899 0
      vertex 0.0300131 86.2495 0
    endloop
  endfacet
  facet normal 0 0 -1
    outer loop
      vertex -0.857904 -0.0599899 0
      vertex -0.0898943 -0.855289 0
      vertex -0.208053 -0.834454 0
    endloop
  endfacet
  facet normal 0 0 -1
    outer loop
      vertex -0.857904 85.45 0
      vertex 0.0300131 86.2495 0
      vertex -0.857904 -0.0599899 0
    endloop
  endfacet
  facet normal 0 0 -1
    outer loop
      vertex -0.857904 -0.0599899 0
      vertex -0.208053 -0.834454 0
      vertex -0.322161 -0.797378 0
    endloop
  endfacet
  facet normal 0 0 -1
    outer loop
      vertex 0.0300131 86.2495 0
      vertex -0.857904 85.45 0
      vertex -0.0898943 86.2453 0
    endloop
  endfacet
  facet normal 0 0 -1
    outer loop
      vertex -0.857904 -0.0599899 0
      vertex -0.322161 -0.797378 0
      vertex -0.429999 -0.744781 0
    endloop
  endfacet
  facet normal 0 0 -1
    outer loop
      vertex -0.0898943 86.2453 0
      vertex -0.857904 85.45 0
      vertex -0.208053 86.2245 0
    endloop
  endfacet
  facet normal 0 0 -1
    outer loop
      vertex -0.857904 -0.0599899 0
      vertex -0.429999 -0.744781 0
      vertex -0.529469 -0.677689 0
    endloop
  endfacet
  facet normal 0 0 -1
    outer loop
      vertex -0.208053 86.2245 0
      vertex -0.857904 85.45 0
      vertex -0.322161 86.1874 0
    endloop
  endfacet
  facet normal 0 0 -1
    outer loop
      vertex -0.857904 -0.0599899 0
      vertex -0.529469 -0.677689 0
      vertex -0.618631 -0.597405 0
    endloop
  endfacet
  facet normal 0 0 -1
    outer loop
      vertex -0.322161 86.1874 0
      vertex -0.857904 85.45 0
      vertex -0.429999 86.1348 0
    endloop
  endfacet
  facet normal 0 0 -1
    outer loop
      vertex -0.857904 -0.0599899 0
      vertex -0.618631 -0.597405 0
      vertex -0.695754 -0.505495 0
    endloop
  endfacet
  facet normal 0 0 -1
    outer loop
      vertex -0.429999 86.1348 0
      vertex -0.857904 85.45 0
      vertex -0.529469 86.0677 0
    endloop
  endfacet
  facet normal 0 0 -1
    outer loop
      vertex -0.857904 -0.0599899 0
      vertex -0.695754 -0.505495 0
      vertex -0.759335 -0.403745 0
    endloop
  endfacet
  facet normal 0 0 -1
    outer loop
      vertex -0.529469 86.0677 0
      vertex -0.857904 85.45 0
      vertex -0.618631 85.9874 0
    endloop
  endfacet
  facet normal 0 0 -1
    outer loop
      vertex -0.857904 -0.0599899 0
      vertex -0.759335 -0.403745 0
      vertex -0.808135 -0.294137 0
    endloop
  endfacet
  facet normal 0 0 -1
    outer loop
      vertex -0.618631 85.9874 0
      vertex -0.857904 85.45 0
      vertex -0.695754 85.8955 0
    endloop
  endfacet
  facet normal 0 0 -1
    outer loop
      vertex -0.857904 -0.0599899 0
      vertex -0.808135 -0.294137 0
      vertex -0.841207 -0.178803 0
    endloop
  endfacet
  facet normal 0 0 -1
    outer loop
      vertex -0.695754 85.8955 0
      vertex -0.857904 85.45 0
      vertex -0.759335 85.7937 0
    endloop
  endfacet
  facet normal 0 0 -1
    outer loop
      vertex -0.759335 85.7937 0
      vertex -0.857904 85.45 0
      vertex -0.808135 85.6841 0
    endloop
  endfacet
  facet normal 0 0 -1
    outer loop
      vertex -0.808135 85.6841 0
      vertex -0.857904 85.45 0
      vertex -0.841207 85.5688 0
    endloop
  endfacet
  facet normal 0.374601 0.927186 -0
    outer loop
      vertex 99.767 86.163 0
      vertex 99.6558 86.2079 2
      vertex 99.767 86.163 2
    endloop
  endfacet
  facet normal 0.374601 0.927186 0
    outer loop
      vertex 99.6558 86.2079 2
      vertex 99.767 86.163 0
      vertex 99.6558 86.2079 0
    endloop
  endfacet
  facet normal 0.615643 0.788025 -0
    outer loop
      vertex 99.9655 86.0291 0
      vertex 99.8709 86.103 2
      vertex 99.9655 86.0291 2
    endloop
  endfacet
  facet normal 0.615643 0.788025 0
    outer loop
      vertex 99.8709 86.103 2
      vertex 99.9655 86.0291 0
      vertex 99.8709 86.103 0
    endloop
  endfacet
  facet normal -0.309039 0.951049 0
    outer loop
      vertex -0.208053 86.2245 0
      vertex -0.322161 86.1874 2
      vertex -0.208053 86.2245 2
    endloop
  endfacet
  facet normal -0.309039 0.951049 0
    outer loop
      vertex -0.322161 86.1874 2
      vertex -0.208053 86.2245 0
      vertex -0.322161 86.1874 0
    endloop
  endfacet
  facet normal 0.104539 0.994521 -0
    outer loop
      vertex 99.5393 86.2369 0
      vertex 99.42 86.2495 2
      vertex 99.5393 86.2369 2
    endloop
  endfacet
  facet normal 0.104539 0.994521 0
    outer loop
      vertex 99.42 86.2495 2
      vertex 99.5393 86.2369 0
      vertex 99.42 86.2495 0
    endloop
  endfacet
  facet normal -0.0349101 0.99939 0
    outer loop
      vertex 0.0300131 86.2495 0
      vertex -0.0898943 86.2453 2
      vertex 0.0300131 86.2495 2
    endloop
  endfacet
  facet normal -0.0349101 0.99939 0
    outer loop
      vertex -0.0898943 86.2453 2
      vertex 0.0300131 86.2495 0
      vertex -0.0898943 86.2453 0
    endloop
  endfacet
  facet normal -0.438375 0.898792 0
    outer loop
      vertex -0.322161 86.1874 0
      vertex -0.429999 86.1348 2
      vertex -0.322161 86.1874 2
    endloop
  endfacet
  facet normal -0.438375 0.898792 0
    outer loop
      vertex -0.429999 86.1348 2
      vertex -0.322161 86.1874 0
      vertex -0.429999 86.1348 0
    endloop
  endfacet
  facet normal 0.939688 0.342034 0
    outer loop
      vertex 100.217 85.627 2
      vertex 100.176 85.7398 0
      vertex 100.176 85.7398 2
    endloop
  endfacet
  facet normal 0.939688 0.342034 0
    outer loop
      vertex 100.176 85.7398 0
      vertex 100.217 85.627 2
      vertex 100.217 85.627 0
    endloop
  endfacet
  facet normal 0.808989 0.587824 0
    outer loop
      vertex 100.119 85.8457 2
      vertex 100.049 85.9428 0
      vertex 100.049 85.9428 2
    endloop
  endfacet
  facet normal 0.808989 0.587824 0
    outer loop
      vertex 100.049 85.9428 0
      vertex 100.119 85.8457 2
      vertex 100.119 85.8457 0
    endloop
  endfacet
  facet normal 0.882974 -0.469423 0
    outer loop
      vertex 100.119 -0.45573 2
      vertex 100.176 -0.349793 0
      vertex 100.176 -0.349793 2
    endloop
  endfacet
  facet normal 0.882974 -0.469423 0
    outer loop
      vertex 100.176 -0.349793 0
      vertex 100.119 -0.45573 2
      vertex 100.119 -0.45573 0
    endloop
  endfacet
  facet normal 0.241922 -0.970296 0
    outer loop
      vertex 99.5393 -0.846934 0
      vertex 99.6558 -0.817908 2
      vertex 99.5393 -0.846934 2
    endloop
  endfacet
  facet normal 0.241922 -0.970296 0
    outer loop
      vertex 99.6558 -0.817908 2
      vertex 99.5393 -0.846934 0
      vertex 99.6558 -0.817908 0
    endloop
  endfacet
  facet normal 0.104531 -0.994522 0
    outer loop
      vertex 99.42 -0.859476 0
      vertex 99.5393 -0.846934 2
      vertex 99.42 -0.859476 2
    endloop
  endfacet
  facet normal 0.104531 -0.994522 0
    outer loop
      vertex 99.5393 -0.846934 2
      vertex 99.42 -0.859476 0
      vertex 99.5393 -0.846934 0
    endloop
  endfacet
  facet normal -0.766041 -0.642791 0
    outer loop
      vertex -0.618631 -0.597405 0
      vertex -0.695754 -0.505495 2
      vertex -0.695754 -0.505495 0
    endloop
  endfacet
  facet normal -0.766041 -0.642791 0
    outer loop
      vertex -0.695754 -0.505495 2
      vertex -0.618631 -0.597405 0
      vertex -0.618631 -0.597405 2
    endloop
  endfacet
  facet normal -0.913546 -0.406736 0
    outer loop
      vertex -0.759335 -0.403745 0
      vertex -0.808135 -0.294137 2
      vertex -0.808135 -0.294137 0
    endloop
  endfacet
  facet normal -0.913546 -0.406736 0
    outer loop
      vertex -0.808135 -0.294137 2
      vertex -0.759335 -0.403745 0
      vertex -0.759335 -0.403745 2
    endloop
  endfacet
  facet normal -0.961261 -0.275639 0
    outer loop
      vertex -0.808135 -0.294137 0
      vertex -0.841207 -0.178803 2
      vertex -0.841207 -0.178803 0
    endloop
  endfacet
  facet normal -0.961261 -0.275639 0
    outer loop
      vertex -0.841207 -0.178803 2
      vertex -0.808135 -0.294137 0
      vertex -0.808135 -0.294137 2
    endloop
  endfacet
  facet normal -0.438369 -0.898795 0
    outer loop
      vertex -0.429999 -0.744781 0
      vertex -0.322161 -0.797378 2
      vertex -0.429999 -0.744781 2
    endloop
  endfacet
  facet normal -0.438369 -0.898795 -0
    outer loop
      vertex -0.322161 -0.797378 2
      vertex -0.429999 -0.744781 0
      vertex -0.322161 -0.797378 0
    endloop
  endfacet
  facet normal -0.961261 0.275639 0
    outer loop
      vertex -0.841207 85.5688 0
      vertex -0.808135 85.6841 2
      vertex -0.808135 85.6841 0
    endloop
  endfacet
  facet normal -0.961261 0.275639 0
    outer loop
      vertex -0.808135 85.6841 2
      vertex -0.841207 85.5688 0
      vertex -0.841207 85.5688 2
    endloop
  endfacet
  facet normal -0.913551 0.406725 0
    outer loop
      vertex -0.808135 85.6841 0
      vertex -0.759335 85.7937 2
      vertex -0.759335 85.7937 0
    endloop
  endfacet
  facet normal -0.913551 0.406725 0
    outer loop
      vertex -0.759335 85.7937 2
      vertex -0.808135 85.6841 0
      vertex -0.808135 85.6841 2
    endloop
  endfacet
  facet normal -0.766045 0.642787 0
    outer loop
      vertex -0.695754 85.8955 0
      vertex -0.618631 85.9874 2
      vertex -0.618631 85.9874 0
    endloop
  endfacet
  facet normal -0.766045 0.642787 0
    outer loop
      vertex -0.618631 85.9874 2
      vertex -0.695754 85.8955 0
      vertex -0.695754 85.8955 2
    endloop
  endfacet
  facet normal -0.669138 0.743138 0
    outer loop
      vertex -0.529469 86.0677 0
      vertex -0.618631 85.9874 2
      vertex -0.529469 86.0677 2
    endloop
  endfacet
  facet normal -0.669138 0.743138 0
    outer loop
      vertex -0.618631 85.9874 2
      vertex -0.529469 86.0677 0
      vertex -0.618631 85.9874 0
    endloop
  endfacet
  facet normal 0.241892 0.970303 -0
    outer loop
      vertex 99.6558 86.2079 0
      vertex 99.5393 86.2369 2
      vertex 99.6558 86.2079 2
    endloop
  endfacet
  facet normal 0.241892 0.970303 0
    outer loop
      vertex 99.5393 86.2369 2
      vertex 99.6558 86.2079 0
      vertex 99.5393 86.2369 0
    endloop
  endfacet
  facet normal -0.173598 0.984817 0
    outer loop
      vertex -0.0898943 86.2453 0
      vertex -0.208053 86.2245 2
      vertex -0.0898943 86.2453 2
    endloop
  endfacet
  facet normal -0.173598 0.984817 0
    outer loop
      vertex -0.208053 86.2245 2
      vertex -0.0898943 86.2453 0
      vertex -0.208053 86.2245 0
    endloop
  endfacet
  facet normal 0.882982 0.469406 0
    outer loop
      vertex 100.176 85.7398 2
      vertex 100.119 85.8457 0
      vertex 100.119 85.8457 2
    endloop
  endfacet
  facet normal 0.882982 0.469406 0
    outer loop
      vertex 100.119 85.8457 0
      vertex 100.176 85.7398 2
      vertex 100.176 85.7398 0
    endloop
  endfacet
  facet normal -0.173652 -0.984807 0
    outer loop
      vertex -0.208053 -0.834454 0
      vertex -0.0898943 -0.855289 2
      vertex -0.208053 -0.834454 2
    endloop
  endfacet
  facet normal -0.173652 -0.984807 -0
    outer loop
      vertex -0.0898943 -0.855289 2
      vertex -0.208053 -0.834454 0
      vertex -0.0898943 -0.855289 0
    endloop
  endfacet
  facet normal -0.309017 -0.951056 0
    outer loop
      vertex -0.322161 -0.797378 0
      vertex -0.208053 -0.834454 2
      vertex -0.322161 -0.797378 2
    endloop
  endfacet
  facet normal -0.309017 -0.951056 -0
    outer loop
      vertex -0.208053 -0.834454 2
      vertex -0.322161 -0.797378 0
      vertex -0.208053 -0.834454 0
    endloop
  endfacet
  facet normal 0.719366 0.694631 0
    outer loop
      vertex 100.049 85.9428 2
      vertex 99.9655 86.0291 0
      vertex 99.9655 86.0291 2
    endloop
  endfacet
  facet normal 0.719366 0.694631 0
    outer loop
      vertex 99.9655 86.0291 0
      vertex 100.049 85.9428 2
      vertex 100.049 85.9428 0
    endloop
  endfacet
  facet normal -1 0 0
    outer loop
      vertex 0.2 0.2 2
      vertex 0.2 85.19 9
      vertex 0.2 85.19 2
    endloop
  endfacet
  facet normal -1 -0 0
    outer loop
      vertex 0.2 85.19 9
      vertex 0.2 0.2 2
      vertex 0.2 0.2 9
    endloop
  endfacet
  facet normal 0 0 1
    outer loop
      vertex 99.19 85.19 9
      vertex 98.33 84.33 9
      vertex 99.19 0.2 9
    endloop
  endfacet
  facet normal 0 0 1
    outer loop
      vertex 99.19 85.19 9
      vertex 1.06 84.33 9
      vertex 98.33 84.33 9
    endloop
  endfacet
  facet normal 0 0 1
    outer loop
      vertex 1.06 84.33 9
      vertex 0.2 85.19 9
      vertex 1.06 1.06 9
    endloop
  endfacet
  facet normal -0 0 1
    outer loop
      vertex 0.2 85.19 9
      vertex 1.06 84.33 9
      vertex 99.19 85.19 9
    endloop
  endfacet
  facet normal -0 0 1
    outer loop
      vertex 98.33 1.06 9
      vertex 99.19 0.2 9
      vertex 98.33 84.33 9
    endloop
  endfacet
  facet normal -0 0 1
    outer loop
      vertex 1.06 1.06 9
      vertex 99.19 0.2 9
      vertex 98.33 1.06 9
    endloop
  endfacet
  facet normal 0 0 1
    outer loop
      vertex 1.06 1.06 9
      vertex 0.2 0.2 9
      vertex 99.19 0.2 9
    endloop
  endfacet
  facet normal 0 0 1
    outer loop
      vertex 0.2 0.2 9
      vertex 1.06 1.06 9
      vertex 0.2 85.19 9
    endloop
  endfacet
  facet normal 1 -0 0
    outer loop
      vertex 99.19 0.2 9
      vertex 99.19 85.19 2
      vertex 99.19 85.19 9
    endloop
  endfacet
  facet normal 1 0 0
    outer loop
      vertex 99.19 85.19 2
      vertex 99.19 0.2 9
      vertex 99.19 0.2 2
    endloop
  endfacet
  facet normal 0 -1 0
    outer loop
      vertex 0.2 0.2 2
      vertex 99.19 0.2 9
      vertex 0.2 0.2 9
    endloop
  endfacet
  facet normal 0 -1 -0
    outer loop
      vertex 99.19 0.2 9
      vertex 0.2 0.2 2
      vertex 99.19 0.2 2
    endloop
  endfacet
  facet normal 0 1 -0
    outer loop
      vertex 99.19 85.19 2
      vertex 0.2 85.19 9
      vertex 99.19 85.19 9
    endloop
  endfacet
  facet normal 0 1 0
    outer loop
      vertex 0.2 85.19 9
      vertex 99.19 85.19 2
      vertex 0.2 85.19 2
    endloop
  endfacet
  facet normal 1 -0 0
    outer loop
      vertex 1.06 1.06 9
      vertex 1.06 84.33 1
      vertex 1.06 84.33 9
    endloop
  endfacet
  facet normal 1 0 0
    outer loop
      vertex 1.06 84.33 1
      vertex 1.06 1.06 9
      vertex 1.06 1.06 1
    endloop
  endfacet
  facet normal -1 0 0
    outer loop
      vertex 98.33 1.06 1
      vertex 98.33 84.33 9
      vertex 98.33 84.33 1
    endloop
  endfacet
  facet normal -1 -0 0
    outer loop
      vertex 98.33 84.33 9
      vertex 98.33 1.06 1
      vertex 98.33 1.06 9
    endloop
  endfacet
  facet normal 0 -1 0
    outer loop
      vertex 1.06 84.33 1
      vertex 98.33 84.33 9
      vertex 1.06 84.33 9
    endloop
  endfacet
  facet normal 0 -1 -0
    outer loop
      vertex 98.33 84.33 9
      vertex 1.06 84.33 1
      vertex 98.33 84.33 1
    endloop
  endfacet
  facet normal -0 0 1
    outer loop
      vertex 1.06 84.33 1
      vertex 98.33 1.06 1
      vertex 98.33 84.33 1
    endloop
  endfacet
  facet normal 0 0 1
    outer loop
      vertex 98.33 1.06 1
      vertex 1.06 84.33 1
      vertex 1.06 1.06 1
    endloop
  endfacet
  facet normal 0 1 -0
    outer loop
      vertex 98.33 1.06 1
      vertex 1.06 1.06 9
      vertex 98.33 1.06 9
    endloop
  endfacet
  facet normal 0 1 0
    outer loop
      vertex 1.06 1.06 9
      vertex 98.33 1.06 1
      vertex 1.06 1.06 1
    endloop
  endfacet
endsolid OpenSCAD_Model
