solid OpenSCAD_Model
  facet normal -1 0 0
    outer loop
      vertex -0.45 -0.45 -0.6
      vertex -0.45 10.55 61.2
      vertex -0.45 10.55 -0.6
    endloop
  endfacet
  facet normal -1 -0 0
    outer loop
      vertex -0.45 10.55 61.2
      vertex -0.45 -0.45 -0.6
      vertex -0.45 -0.45 61.2
    endloop
  endfacet
  facet normal 0 0 1
    outer loop
      vertex 150.175 10.55 61.2
      vertex 149.725 10.1 61.2
      vertex 150.175 -0.45 61.2
    endloop
  endfacet
  facet normal 0 0 1
    outer loop
      vertex 150.175 10.55 61.2
      vertex -1.90735e-07 10.1 61.2
      vertex 149.725 10.1 61.2
    endloop
  endfacet
  facet normal 0 0 1
    outer loop
      vertex -1.90735e-07 10.1 61.2
      vertex -0.45 10.55 61.2
      vertex -1.90735e-07 -1.90735e-07 61.2
    endloop
  endfacet
  facet normal -0 0 1
    outer loop
      vertex -0.45 10.55 61.2
      vertex -1.90735e-07 10.1 61.2
      vertex 150.175 10.55 61.2
    endloop
  endfacet
  facet normal -0 0 1
    outer loop
      vertex 149.725 -1.90735e-07 61.2
      vertex 150.175 -0.45 61.2
      vertex 149.725 10.1 61.2
    endloop
  endfacet
  facet normal -0 0 1
    outer loop
      vertex -1.90735e-07 -1.90735e-07 61.2
      vertex 150.175 -0.45 61.2
      vertex 149.725 -1.90735e-07 61.2
    endloop
  endfacet
  facet normal 0 0 1
    outer loop
      vertex -1.90735e-07 -1.90735e-07 61.2
      vertex -0.45 -0.45 61.2
      vertex 150.175 -0.45 61.2
    endloop
  endfacet
  facet normal 0 0 1
    outer loop
      vertex -0.45 -0.45 61.2
      vertex -1.90735e-07 -1.90735e-07 61.2
      vertex -0.45 10.55 61.2
    endloop
  endfacet
  facet normal 1 -0 0
    outer loop
      vertex 150.175 -0.45 61.2
      vertex 150.175 10.55 -0.6
      vertex 150.175 10.55 61.2
    endloop
  endfacet
  facet normal 1 0 0
    outer loop
      vertex 150.175 10.55 -0.6
      vertex 150.175 -0.45 61.2
      vertex 150.175 -0.45 -0.6
    endloop
  endfacet
  facet normal 0 0 -1
    outer loop
      vertex -0.45 -0.45 -0.6
      vertex 150.175 10.55 -0.6
      vertex 150.175 -0.45 -0.6
    endloop
  endfacet
  facet normal -0 0 -1
    outer loop
      vertex 150.175 10.55 -0.6
      vertex -0.45 -0.45 -0.6
      vertex -0.45 10.55 -0.6
    endloop
  endfacet
  facet normal 0 -1 0
    outer loop
      vertex -0.45 -0.45 -0.6
      vertex 150.175 -0.45 61.2
      vertex -0.45 -0.45 61.2
    endloop
  endfacet
  facet normal 0 -1 -0
    outer loop
      vertex 150.175 -0.45 61.2
      vertex -0.45 -0.45 -0.6
      vertex 150.175 -0.45 -0.6
    endloop
  endfacet
  facet normal 0 1 -0
    outer loop
      vertex 150.175 10.55 -0.6
      vertex -0.45 10.55 61.2
      vertex 150.175 10.55 61.2
    endloop
  endfacet
  facet normal 0 1 0
    outer loop
      vertex -0.45 10.55 61.2
      vertex 150.175 10.55 -0.6
      vertex -0.45 10.55 -0.6
    endloop
  endfacet
  facet normal 1 -0 0
    outer loop
      vertex -1.90735e-07 -1.90735e-07 61.2
      vertex -1.90735e-07 10.1 -5.72205e-07
      vertex -1.90735e-07 10.1 61.2
    endloop
  endfacet
  facet normal 1 0 0
    outer loop
      vertex -1.90735e-07 10.1 -5.72205e-07
      vertex -1.90735e-07 -1.90735e-07 61.2
      vertex -1.90735e-07 -1.90735e-07 -5.72205e-07
    endloop
  endfacet
  facet normal -1 0 0
    outer loop
      vertex 149.725 -1.90735e-07 -5.72205e-07
      vertex 149.725 10.1 61.2
      vertex 149.725 10.1 -5.72205e-07
    endloop
  endfacet
  facet normal -1 -0 0
    outer loop
      vertex 149.725 10.1 61.2
      vertex 149.725 -1.90735e-07 -5.72205e-07
      vertex 149.725 -1.90735e-07 61.2
    endloop
  endfacet
  facet normal 0 -1 0
    outer loop
      vertex -1.90735e-07 10.1 -5.72205e-07
      vertex 149.725 10.1 61.2
      vertex -1.90735e-07 10.1 61.2
    endloop
  endfacet
  facet normal 0 -1 -0
    outer loop
      vertex 149.725 10.1 61.2
      vertex -1.90735e-07 10.1 -5.72205e-07
      vertex 149.725 10.1 -5.72205e-07
    endloop
  endfacet
  facet normal -0 0 1
    outer loop
      vertex -1.90735e-07 10.1 -5.72205e-07
      vertex 149.725 -1.90735e-07 -5.72205e-07
      vertex 149.725 10.1 -5.72205e-07
    endloop
  endfacet
  facet normal 0 0 1
    outer loop
      vertex 149.725 -1.90735e-07 -5.72205e-07
      vertex -1.90735e-07 10.1 -5.72205e-07
      vertex -1.90735e-07 -1.90735e-07 -5.72205e-07
    endloop
  endfacet
  facet normal 0 1 -0
    outer loop
      vertex 149.725 -1.90735e-07 -5.72205e-07
      vertex -1.90735e-07 -1.90735e-07 61.2
      vertex 149.725 -1.90735e-07 61.2
    endloop
  endfacet
  facet normal 0 1 0
    outer loop
      vertex -1.90735e-07 -1.90735e-07 61.2
      vertex 149.725 -1.90735e-07 -5.72205e-07
      vertex -1.90735e-07 -1.90735e-07 -5.72205e-07
    endloop
  endfacet
endsolid OpenSCAD_Model
