solid OpenSCAD_Model
  facet normal -1 0 0
    outer loop
      vertex -0.45 -0.45 -0.6
      vertex -0.45 6.35 81.6
      vertex -0.45 6.35 -0.6
    endloop
  endfacet
  facet normal -1 -0 0
    outer loop
      vertex -0.45 6.35 81.6
      vertex -0.45 -0.45 -0.6
      vertex -0.45 -0.45 81.6
    endloop
  endfacet
  facet normal 0 0 1
    outer loop
      vertex 131.125 6.35 81.6
      vertex 130.675 5.9 81.6
      vertex 131.125 -0.45 81.6
    endloop
  endfacet
  facet normal 0 0 1
    outer loop
      vertex 131.125 6.35 81.6
      vertex -1.90735e-07 5.9 81.6
      vertex 130.675 5.9 81.6
    endloop
  endfacet
  facet normal 0 0 1
    outer loop
      vertex -1.90735e-07 5.9 81.6
      vertex -0.45 6.35 81.6
      vertex -1.90735e-07 -1.90735e-07 81.6
    endloop
  endfacet
  facet normal -0 0 1
    outer loop
      vertex -0.45 6.35 81.6
      vertex -1.90735e-07 5.9 81.6
      vertex 131.125 6.35 81.6
    endloop
  endfacet
  facet normal -0 0 1
    outer loop
      vertex 130.675 -1.90735e-07 81.6
      vertex 131.125 -0.45 81.6
      vertex 130.675 5.9 81.6
    endloop
  endfacet
  facet normal -0 0 1
    outer loop
      vertex -1.90735e-07 -1.90735e-07 81.6
      vertex 131.125 -0.45 81.6
      vertex 130.675 -1.90735e-07 81.6
    endloop
  endfacet
  facet normal 0 0 1
    outer loop
      vertex -1.90735e-07 -1.90735e-07 81.6
      vertex -0.45 -0.45 81.6
      vertex 131.125 -0.45 81.6
    endloop
  endfacet
  facet normal 0 0 1
    outer loop
      vertex -0.45 -0.45 81.6
      vertex -1.90735e-07 -1.90735e-07 81.6
      vertex -0.45 6.35 81.6
    endloop
  endfacet
  facet normal 1 -0 0
    outer loop
      vertex 131.125 -0.45 81.6
      vertex 131.125 6.35 -0.6
      vertex 131.125 6.35 81.6
    endloop
  endfacet
  facet normal 1 0 0
    outer loop
      vertex 131.125 6.35 -0.6
      vertex 131.125 -0.45 81.6
      vertex 131.125 -0.45 -0.6
    endloop
  endfacet
  facet normal 0 0 -1
    outer loop
      vertex -0.45 -0.45 -0.6
      vertex 131.125 6.35 -0.6
      vertex 131.125 -0.45 -0.6
    endloop
  endfacet
  facet normal -0 0 -1
    outer loop
      vertex 131.125 6.35 -0.6
      vertex -0.45 -0.45 -0.6
      vertex -0.45 6.35 -0.6
    endloop
  endfacet
  facet normal 0 -1 0
    outer loop
      vertex -0.45 -0.45 -0.6
      vertex 131.125 -0.45 81.6
      vertex -0.45 -0.45 81.6
    endloop
  endfacet
  facet normal 0 -1 -0
    outer loop
      vertex 131.125 -0.45 81.6
      vertex -0.45 -0.45 -0.6
      vertex 131.125 -0.45 -0.6
    endloop
  endfacet
  facet normal 0 1 -0
    outer loop
      vertex 131.125 6.35 -0.6
      vertex -0.45 6.35 81.6
      vertex 131.125 6.35 81.6
    endloop
  endfacet
  facet normal 0 1 0
    outer loop
      vertex -0.45 6.35 81.6
      vertex 131.125 6.35 -0.6
      vertex -0.45 6.35 -0.6
    endloop
  endfacet
  facet normal 1 -0 0
    outer loop
      vertex -1.90735e-07 -1.90735e-07 81.6
      vertex -1.90735e-07 5.9 -5.72205e-07
      vertex -1.90735e-07 5.9 81.6
    endloop
  endfacet
  facet normal 1 0 0
    outer loop
      vertex -1.90735e-07 5.9 -5.72205e-07
      vertex -1.90735e-07 -1.90735e-07 81.6
      vertex -1.90735e-07 -1.90735e-07 -5.72205e-07
    endloop
  endfacet
  facet normal -1 0 0
    outer loop
      vertex 130.675 -1.90735e-07 -5.72205e-07
      vertex 130.675 5.9 81.6
      vertex 130.675 5.9 -5.72205e-07
    endloop
  endfacet
  facet normal -1 -0 0
    outer loop
      vertex 130.675 5.9 81.6
      vertex 130.675 -1.90735e-07 -5.72205e-07
      vertex 130.675 -1.90735e-07 81.6
    endloop
  endfacet
  facet normal 0 -1 0
    outer loop
      vertex -1.90735e-07 5.9 -5.72205e-07
      vertex 130.675 5.9 81.6
      vertex -1.90735e-07 5.9 81.6
    endloop
  endfacet
  facet normal 0 -1 -0
    outer loop
      vertex 130.675 5.9 81.6
      vertex -1.90735e-07 5.9 -5.72205e-07
      vertex 130.675 5.9 -5.72205e-07
    endloop
  endfacet
  facet normal -0 0 1
    outer loop
      vertex -1.90735e-07 5.9 -5.72205e-07
      vertex 130.675 -1.90735e-07 -5.72205e-07
      vertex 130.675 5.9 -5.72205e-07
    endloop
  endfacet
  facet normal 0 0 1
    outer loop
      vertex 130.675 -1.90735e-07 -5.72205e-07
      vertex -1.90735e-07 5.9 -5.72205e-07
      vertex -1.90735e-07 -1.90735e-07 -5.72205e-07
    endloop
  endfacet
  facet normal 0 1 -0
    outer loop
      vertex 130.675 -1.90735e-07 -5.72205e-07
      vertex -1.90735e-07 -1.90735e-07 81.6
      vertex 130.675 -1.90735e-07 81.6
    endloop
  endfacet
  facet normal 0 1 0
    outer loop
      vertex -1.90735e-07 -1.90735e-07 81.6
      vertex 130.675 -1.90735e-07 -5.72205e-07
      vertex -1.90735e-07 -1.90735e-07 -5.72205e-07
    endloop
  endfacet
endsolid OpenSCAD_Model
