solid OpenSCAD_Model
  facet normal -1 0 0
    outer loop
      vertex -0.45 -0.45 -0.6
      vertex -0.45 12.25 51
      vertex -0.45 12.25 -0.6
    endloop
  endfacet
  facet normal -1 -0 0
    outer loop
      vertex -0.45 12.25 51
      vertex -0.45 -0.45 -0.6
      vertex -0.45 -0.45 51
    endloop
  endfacet
  facet normal 0 0 1
    outer loop
      vertex 45.9 12.25 51
      vertex 45.45 11.8 51
      vertex 45.9 -0.45 51
    endloop
  endfacet
  facet normal 0 0 1
    outer loop
      vertex 45.9 12.25 51
      vertex -1.90735e-07 11.8 51
      vertex 45.45 11.8 51
    endloop
  endfacet
  facet normal 0 0 1
    outer loop
      vertex -1.90735e-07 11.8 51
      vertex -0.45 12.25 51
      vertex -1.90735e-07 -1.90735e-07 51
    endloop
  endfacet
  facet normal -0 0 1
    outer loop
      vertex -0.45 12.25 51
      vertex -1.90735e-07 11.8 51
      vertex 45.9 12.25 51
    endloop
  endfacet
  facet normal -0 0 1
    outer loop
      vertex 45.45 -1.90735e-07 51
      vertex 45.9 -0.45 51
      vertex 45.45 11.8 51
    endloop
  endfacet
  facet normal -0 0 1
    outer loop
      vertex -1.90735e-07 -1.90735e-07 51
      vertex 45.9 -0.45 51
      vertex 45.45 -1.90735e-07 51
    endloop
  endfacet
  facet normal 0 0 1
    outer loop
      vertex -1.90735e-07 -1.90735e-07 51
      vertex -0.45 -0.45 51
      vertex 45.9 -0.45 51
    endloop
  endfacet
  facet normal 0 0 1
    outer loop
      vertex -0.45 -0.45 51
      vertex -1.90735e-07 -1.90735e-07 51
      vertex -0.45 12.25 51
    endloop
  endfacet
  facet normal 1 -0 0
    outer loop
      vertex 45.9 -0.45 51
      vertex 45.9 12.25 -0.6
      vertex 45.9 12.25 51
    endloop
  endfacet
  facet normal 1 0 0
    outer loop
      vertex 45.9 12.25 -0.6
      vertex 45.9 -0.45 51
      vertex 45.9 -0.45 -0.6
    endloop
  endfacet
  facet normal 0 1 -0
    outer loop
      vertex 45.9 12.25 -0.6
      vertex -0.45 12.25 51
      vertex 45.9 12.25 51
    endloop
  endfacet
  facet normal 0 1 0
    outer loop
      vertex -0.45 12.25 51
      vertex 45.9 12.25 -0.6
      vertex -0.45 12.25 -0.6
    endloop
  endfacet
  facet normal 0 0 -1
    outer loop
      vertex -0.45 -0.45 -0.6
      vertex 45.9 12.25 -0.6
      vertex 45.9 -0.45 -0.6
    endloop
  endfacet
  facet normal -0 0 -1
    outer loop
      vertex 45.9 12.25 -0.6
      vertex -0.45 -0.45 -0.6
      vertex -0.45 12.25 -0.6
    endloop
  endfacet
  facet normal 0 -1 0
    outer loop
      vertex -0.45 -0.45 -0.6
      vertex 45.9 -0.45 51
      vertex -0.45 -0.45 51
    endloop
  endfacet
  facet normal 0 -1 -0
    outer loop
      vertex 45.9 -0.45 51
      vertex -0.45 -0.45 -0.6
      vertex 45.9 -0.45 -0.6
    endloop
  endfacet
  facet normal 1 -0 0
    outer loop
      vertex -1.90735e-07 -1.90735e-07 51
      vertex -1.90735e-07 11.8 -5.72205e-07
      vertex -1.90735e-07 11.8 51
    endloop
  endfacet
  facet normal 1 0 0
    outer loop
      vertex -1.90735e-07 11.8 -5.72205e-07
      vertex -1.90735e-07 -1.90735e-07 51
      vertex -1.90735e-07 -1.90735e-07 -5.72205e-07
    endloop
  endfacet
  facet normal -1 0 0
    outer loop
      vertex 45.45 -1.90735e-07 -5.72205e-07
      vertex 45.45 11.8 51
      vertex 45.45 11.8 -5.72205e-07
    endloop
  endfacet
  facet normal -1 -0 0
    outer loop
      vertex 45.45 11.8 51
      vertex 45.45 -1.90735e-07 -5.72205e-07
      vertex 45.45 -1.90735e-07 51
    endloop
  endfacet
  facet normal 0 -1 0
    outer loop
      vertex -1.90735e-07 11.8 -5.72205e-07
      vertex 45.45 11.8 51
      vertex -1.90735e-07 11.8 51
    endloop
  endfacet
  facet normal 0 -1 -0
    outer loop
      vertex 45.45 11.8 51
      vertex -1.90735e-07 11.8 -5.72205e-07
      vertex 45.45 11.8 -5.72205e-07
    endloop
  endfacet
  facet normal -0 0 1
    outer loop
      vertex -1.90735e-07 11.8 -5.72205e-07
      vertex 45.45 -1.90735e-07 -5.72205e-07
      vertex 45.45 11.8 -5.72205e-07
    endloop
  endfacet
  facet normal 0 0 1
    outer loop
      vertex 45.45 -1.90735e-07 -5.72205e-07
      vertex -1.90735e-07 11.8 -5.72205e-07
      vertex -1.90735e-07 -1.90735e-07 -5.72205e-07
    endloop
  endfacet
  facet normal 0 1 -0
    outer loop
      vertex 45.45 -1.90735e-07 -5.72205e-07
      vertex -1.90735e-07 -1.90735e-07 51
      vertex 45.45 -1.90735e-07 51
    endloop
  endfacet
  facet normal 0 1 0
    outer loop
      vertex -1.90735e-07 -1.90735e-07 51
      vertex 45.45 -1.90735e-07 -5.72205e-07
      vertex -1.90735e-07 -1.90735e-07 -5.72205e-07
    endloop
  endfacet
endsolid OpenSCAD_Model
