<?xml version="1.0" standalone="no"?>
<!DOCTYPE svg PUBLIC "-//W3C//DTD SVG 1.1//EN" "http://www.w3.org/Graphics/SVG/1.1/DTD/svg11.dtd">
<svg width="224" height="313" viewBox="10 -323 224 313" xmlns="http://www.w3.org/2000/svg" version="1.1">
<title>OpenSCAD Model</title>
<path d="
M 74,-323 L 10,-323 L 10,-303 L 74,-303 z
M 74,-300 L 10,-300 L 10,-280 L 74,-280 z
M 105,-277 L 10,-277 L 10,-257 L 105,-257 z
M 105,-254 L 10,-254 L 10,-234 L 105,-234 z
M 105,-231 L 10,-231 L 10,-157 L 105,-157 z
M 15,-162 L 15,-226 L 100,-226 L 100,-162 z
M 137,-151 L 10,-151 L 10,-131 L 137,-131 z
M 177,-146 L 145,-146 L 145,-131 L 177,-131 z
M 177,-128 L 145,-128 L 145,-108 L 177,-108 z
M 137,-128 L 10,-128 L 10,-108 L 137,-108 z
M 137,-105 L 10,-105 L 10,-10 L 137,-10 z
M 92,-15 L 92,-100 L 132,-100 L 132,-15 z
M 55,-71 L 55,-100 L 87,-100 L 87,-71 z
M 15,-15 L 15,-100 L 50,-100 L 50,-15 z
M 55,-49 L 55,-66 L 87,-66 L 87,-49 z
M 55,-15 L 55,-44 L 87,-44 L 87,-15 z
M 165,-100 L 145,-100 L 145,-15 L 165,-15 z
M 188,-100 L 168,-100 L 168,-15 L 188,-15 z
M 211,-100 L 191,-100 L 191,-15 L 211,-15 z
M 234,-100 L 214,-100 L 214,-15 L 234,-15 z
" stroke="black" fill="lightgray" stroke-width="0.5"/></svg>
