  0
SECTION
  2
BLOCKS
  0
ENDSEC
  0
SECTION
  2
ENTITIES
  0
LINE
  8
0
 10
136
 20
273
 11
91
 21
273
  0
LINE
  8
0
 10
91
 20
273
 11
91
 21
148
  0
LINE
  8
0
 10
91
 20
148
 11
136
 21
148
  0
LINE
  8
0
 10
136
 20
148
 11
136
 21
273
  0
LINE
  8
0
 10
83
 20
264
 11
42
 21
264
  0
LINE
  8
0
 10
42
 20
264
 11
42
 21
244
  0
LINE
  8
0
 10
42
 20
244
 11
83
 21
244
  0
LINE
  8
0
 10
83
 20
244
 11
83
 21
264
  0
LINE
  8
0
 10
88
 20
216
 11
37
 21
216
  0
LINE
  8
0
 10
37
 20
216
 11
37
 21
241
  0
LINE
  8
0
 10
37
 20
241
 11
10
 21
241
  0
LINE
  8
0
 10
10
 20
241
 11
10
 21
196
  0
LINE
  8
0
 10
10
 20
196
 11
88
 21
196
  0
LINE
  8
0
 10
88
 20
196
 11
88
 21
216
  0
LINE
  8
0
 10
189
 20
214
 11
148
 21
214
  0
LINE
  8
0
 10
148
 20
214
 11
148
 21
194
  0
LINE
  8
0
 10
148
 20
194
 11
189
 21
194
  0
LINE
  8
0
 10
189
 20
194
 11
189
 21
214
  0
LINE
  8
0
 10
88
 20
168
 11
37
 21
168
  0
LINE
  8
0
 10
37
 20
168
 11
37
 21
193
  0
LINE
  8
0
 10
37
 20
193
 11
10
 21
193
  0
LINE
  8
0
 10
10
 20
193
 11
10
 21
148
  0
LINE
  8
0
 10
10
 20
148
 11
88
 21
148
  0
LINE
  8
0
 10
88
 20
148
 11
88
 21
168
  0
LINE
  8
0
 10
189
 20
191
 11
148
 21
191
  0
LINE
  8
0
 10
148
 20
191
 11
148
 21
171
  0
LINE
  8
0
 10
148
 20
171
 11
189
 21
171
  0
LINE
  8
0
 10
189
 20
171
 11
189
 21
191
  0
LINE
  8
0
 10
189
 20
168
 11
148
 21
168
  0
LINE
  8
0
 10
148
 20
168
 11
148
 21
148
  0
LINE
  8
0
 10
148
 20
148
 11
189
 21
148
  0
LINE
  8
0
 10
189
 20
148
 11
189
 21
168
  0
LINE
  8
0
 10
194
 20
145
 11
143
 21
145
  0
LINE
  8
0
 10
143
 20
145
 11
143
 21
10
  0
LINE
  8
0
 10
143
 20
10
 11
194
 21
10
  0
LINE
  8
0
 10
194
 20
10
 11
194
 21
145
  0
LINE
  8
0
 10
148
 20
63
 11
148
 21
140
  0
LINE
  8
0
 10
148
 20
140
 11
189
 21
140
  0
LINE
  8
0
 10
189
 20
140
 11
189
 21
63
  0
LINE
  8
0
 10
189
 20
63
 11
148
 21
63
  0
LINE
  8
0
 10
148
 20
15
 11
148
 21
58
  0
LINE
  8
0
 10
148
 20
58
 11
189
 21
58
  0
LINE
  8
0
 10
189
 20
58
 11
189
 21
15
  0
LINE
  8
0
 10
189
 20
15
 11
148
 21
15
  0
LINE
  8
0
 10
217
 20
145
 11
197
 21
145
  0
LINE
  8
0
 10
197
 20
145
 11
197
 21
10
  0
LINE
  8
0
 10
197
 20
10
 11
217
 21
10
  0
LINE
  8
0
 10
217
 20
10
 11
217
 21
145
  0
LINE
  8
0
 10
240
 20
145
 11
220
 21
145
  0
LINE
  8
0
 10
220
 20
145
 11
220
 21
10
  0
LINE
  8
0
 10
220
 20
10
 11
240
 21
10
  0
LINE
  8
0
 10
240
 20
10
 11
240
 21
145
  0
LINE
  8
0
 10
88
 20
145
 11
10
 21
145
  0
LINE
  8
0
 10
10
 20
145
 11
10
 21
10
  0
LINE
  8
0
 10
10
 20
10
 11
88
 21
10
  0
LINE
  8
0
 10
88
 20
10
 11
88
 21
145
  0
LINE
  8
0
 10
42
 20
63
 11
42
 21
140
  0
LINE
  8
0
 10
42
 20
140
 11
83
 21
140
  0
LINE
  8
0
 10
83
 20
140
 11
83
 21
63
  0
LINE
  8
0
 10
83
 20
63
 11
42
 21
63
  0
LINE
  8
0
 10
15
 20
15
 11
15
 21
140
  0
LINE
  8
0
 10
15
 20
140
 11
37
 21
140
  0
LINE
  8
0
 10
37
 20
140
 11
37
 21
15
  0
LINE
  8
0
 10
37
 20
15
 11
15
 21
15
  0
LINE
  8
0
 10
42
 20
15
 11
42
 21
58
  0
LINE
  8
0
 10
42
 20
58
 11
83
 21
58
  0
LINE
  8
0
 10
83
 20
58
 11
83
 21
15
  0
LINE
  8
0
 10
83
 20
15
 11
42
 21
15
  0
LINE
  8
0
 10
111
 20
140
 11
91
 21
140
  0
LINE
  8
0
 10
91
 20
140
 11
91
 21
15
  0
LINE
  8
0
 10
91
 20
15
 11
111
 21
15
  0
LINE
  8
0
 10
111
 20
15
 11
111
 21
140
  0
LINE
  8
0
 10
134
 20
140
 11
114
 21
140
  0
LINE
  8
0
 10
114
 20
140
 11
114
 21
15
  0
LINE
  8
0
 10
114
 20
15
 11
134
 21
15
  0
LINE
  8
0
 10
134
 20
15
 11
134
 21
140
  0
ENDSEC
  0
SECTION
  2
OBJECTS
  0
DICTIONARY
  0
ENDSEC
  0
EOF
