  0
SECTION
  2
BLOCKS
  0
ENDSEC
  0
SECTION
  2
ENTITIES
  0
LINE
  8
0
 10
0
 11
0
 20
0
 21
39
  0
LINE
  8
0
 10
0
 11
132.9
 20
39
 21
39
  0
LINE
  8
0
 10
132.9
 11
132.9
 20
39
 21
0
  0
LINE
  8
0
 10
132.9
 11
0
 20
0
 21
0
  0
LINE
  8
0
 10
0
 11
0
 20
41
 21
80
  0
LINE
  8
0
 10
0
 11
132.9
 20
80
 21
80
  0
LINE
  8
0
 10
132.9
 11
132.9
 20
80
 21
41
  0
LINE
  8
0
 10
132.9
 11
0
 20
41
 21
41
  0
LINE
  8
0
 10
0
 11
0
 20
82
 21
121
  0
LINE
  8
0
 10
0
 11
132.9
 20
121
 21
121
  0
LINE
  8
0
 10
132.9
 11
132.9
 20
121
 21
82
  0
LINE
  8
0
 10
132.9
 11
0
 20
82
 21
82
  0
LINE
  8
0
 10
0
 11
0
 20
123
 21
162
  0
LINE
  8
0
 10
0
 11
132.9
 20
162
 21
162
  0
LINE
  8
0
 10
132.9
 11
132.9
 20
162
 21
123
  0
LINE
  8
0
 10
132.9
 11
0
 20
123
 21
123
  0
LINE
  8
0
 10
0
 11
0
 20
164
 21
203
  0
LINE
  8
0
 10
0
 11
132.9
 20
203
 21
203
  0
LINE
  8
0
 10
132.9
 11
132.9
 20
203
 21
164
  0
LINE
  8
0
 10
132.9
 11
0
 20
164
 21
164
  0
LINE
  8
0
 10
0
 11
0
 20
205
 21
244
  0
LINE
  8
0
 10
0
 11
132.9
 20
244
 21
244
  0
LINE
  8
0
 10
132.9
 11
132.9
 20
244
 21
205
  0
LINE
  8
0
 10
132.9
 11
0
 20
205
 21
205
  0
LINE
  8
0
 10
0
 11
0
 20
246
 21
285
  0
LINE
  8
0
 10
0
 11
132.9
 20
285
 21
285
  0
LINE
  8
0
 10
132.9
 11
132.9
 20
285
 21
246
  0
LINE
  8
0
 10
132.9
 11
0
 20
246
 21
246
  0
LINE
  8
0
 10
0
 11
0
 20
287
 21
326
  0
LINE
  8
0
 10
0
 11
132.9
 20
326
 21
326
  0
LINE
  8
0
 10
132.9
 11
132.9
 20
326
 21
287
  0
LINE
  8
0
 10
132.9
 11
0
 20
287
 21
287
  0
LINE
  8
0
 10
0
 11
0
 20
328
 21
367
  0
LINE
  8
0
 10
0
 11
132.9
 20
367
 21
367
  0
LINE
  8
0
 10
132.9
 11
132.9
 20
367
 21
328
  0
LINE
  8
0
 10
132.9
 11
0
 20
328
 21
328
  0
LINE
  8
0
 10
2
 11
2
 20
4
 21
13
  0
LINE
  8
0
 10
2
 11
11
 20
13
 21
13
  0
LINE
  8
0
 10
11
 11
11
 20
13
 21
4
  0
LINE
  8
0
 10
11
 11
2
 20
4
 21
4
  0
LINE
  8
0
 10
2
 11
2
 20
16
 21
25
  0
LINE
  8
0
 10
2
 11
11
 20
25
 21
25
  0
LINE
  8
0
 10
11
 11
11
 20
25
 21
16
  0
LINE
  8
0
 10
11
 11
2
 20
16
 21
16
  0
LINE
  8
0
 10
2
 11
2
 20
28
 21
37
  0
LINE
  8
0
 10
2
 11
11
 20
37
 21
37
  0
LINE
  8
0
 10
11
 11
11
 20
37
 21
28
  0
LINE
  8
0
 10
11
 11
2
 20
28
 21
28
  0
LINE
  8
0
 10
2
 11
2
 20
45
 21
54
  0
LINE
  8
0
 10
2
 11
11
 20
54
 21
54
  0
LINE
  8
0
 10
11
 11
11
 20
54
 21
45
  0
LINE
  8
0
 10
11
 11
2
 20
45
 21
45
  0
LINE
  8
0
 10
2
 11
2
 20
57
 21
66
  0
LINE
  8
0
 10
2
 11
11
 20
66
 21
66
  0
LINE
  8
0
 10
11
 11
11
 20
66
 21
57
  0
LINE
  8
0
 10
11
 11
2
 20
57
 21
57
  0
LINE
  8
0
 10
2
 11
2
 20
69
 21
78
  0
LINE
  8
0
 10
2
 11
11
 20
78
 21
78
  0
LINE
  8
0
 10
11
 11
11
 20
78
 21
69
  0
LINE
  8
0
 10
11
 11
2
 20
69
 21
69
  0
LINE
  8
0
 10
2
 11
2
 20
86
 21
95
  0
LINE
  8
0
 10
2
 11
11
 20
95
 21
95
  0
LINE
  8
0
 10
11
 11
11
 20
95
 21
86
  0
LINE
  8
0
 10
11
 11
2
 20
86
 21
86
  0
LINE
  8
0
 10
2
 11
2
 20
98
 21
107
  0
LINE
  8
0
 10
2
 11
11
 20
107
 21
107
  0
LINE
  8
0
 10
11
 11
11
 20
107
 21
98
  0
LINE
  8
0
 10
11
 11
2
 20
98
 21
98
  0
LINE
  8
0
 10
2
 11
2
 20
110
 21
119
  0
LINE
  8
0
 10
2
 11
11
 20
119
 21
119
  0
LINE
  8
0
 10
11
 11
11
 20
119
 21
110
  0
LINE
  8
0
 10
11
 11
2
 20
110
 21
110
  0
LINE
  8
0
 10
2
 11
2
 20
127
 21
136
  0
LINE
  8
0
 10
2
 11
11
 20
136
 21
136
  0
LINE
  8
0
 10
11
 11
11
 20
136
 21
127
  0
LINE
  8
0
 10
11
 11
2
 20
127
 21
127
  0
LINE
  8
0
 10
2
 11
2
 20
139
 21
148
  0
LINE
  8
0
 10
2
 11
11
 20
148
 21
148
  0
LINE
  8
0
 10
11
 11
11
 20
148
 21
139
  0
LINE
  8
0
 10
11
 11
2
 20
139
 21
139
  0
LINE
  8
0
 10
2
 11
2
 20
151
 21
160
  0
LINE
  8
0
 10
2
 11
11
 20
160
 21
160
  0
LINE
  8
0
 10
11
 11
11
 20
160
 21
151
  0
LINE
  8
0
 10
11
 11
2
 20
151
 21
151
  0
LINE
  8
0
 10
2
 11
2
 20
168
 21
177
  0
LINE
  8
0
 10
2
 11
11
 20
177
 21
177
  0
LINE
  8
0
 10
11
 11
11
 20
177
 21
168
  0
LINE
  8
0
 10
11
 11
2
 20
168
 21
168
  0
LINE
  8
0
 10
2
 11
2
 20
180
 21
189
  0
LINE
  8
0
 10
2
 11
11
 20
189
 21
189
  0
LINE
  8
0
 10
11
 11
11
 20
189
 21
180
  0
LINE
  8
0
 10
11
 11
2
 20
180
 21
180
  0
LINE
  8
0
 10
2
 11
2
 20
192
 21
201
  0
LINE
  8
0
 10
2
 11
11
 20
201
 21
201
  0
LINE
  8
0
 10
11
 11
11
 20
201
 21
192
  0
LINE
  8
0
 10
11
 11
2
 20
192
 21
192
  0
LINE
  8
0
 10
2
 11
2
 20
209
 21
218
  0
LINE
  8
0
 10
2
 11
11
 20
218
 21
218
  0
LINE
  8
0
 10
11
 11
11
 20
218
 21
209
  0
LINE
  8
0
 10
11
 11
2
 20
209
 21
209
  0
LINE
  8
0
 10
2
 11
2
 20
221
 21
230
  0
LINE
  8
0
 10
2
 11
11
 20
230
 21
230
  0
LINE
  8
0
 10
11
 11
11
 20
230
 21
221
  0
LINE
  8
0
 10
11
 11
2
 20
221
 21
221
  0
LINE
  8
0
 10
2
 11
2
 20
233
 21
242
  0
LINE
  8
0
 10
2
 11
11
 20
242
 21
242
  0
LINE
  8
0
 10
11
 11
11
 20
242
 21
233
  0
LINE
  8
0
 10
11
 11
2
 20
233
 21
233
  0
LINE
  8
0
 10
2
 11
2
 20
250
 21
259
  0
LINE
  8
0
 10
2
 11
11
 20
259
 21
259
  0
LINE
  8
0
 10
11
 11
11
 20
259
 21
250
  0
LINE
  8
0
 10
11
 11
2
 20
250
 21
250
  0
LINE
  8
0
 10
2
 11
2
 20
262
 21
271
  0
LINE
  8
0
 10
2
 11
11
 20
271
 21
271
  0
LINE
  8
0
 10
11
 11
11
 20
271
 21
262
  0
LINE
  8
0
 10
11
 11
2
 20
262
 21
262
  0
LINE
  8
0
 10
2
 11
2
 20
274
 21
283
  0
LINE
  8
0
 10
2
 11
11
 20
283
 21
283
  0
LINE
  8
0
 10
11
 11
11
 20
283
 21
274
  0
LINE
  8
0
 10
11
 11
2
 20
274
 21
274
  0
LINE
  8
0
 10
2
 11
2
 20
291
 21
300
  0
LINE
  8
0
 10
2
 11
11
 20
300
 21
300
  0
LINE
  8
0
 10
11
 11
11
 20
300
 21
291
  0
LINE
  8
0
 10
11
 11
2
 20
291
 21
291
  0
LINE
  8
0
 10
2
 11
2
 20
303
 21
312
  0
LINE
  8
0
 10
2
 11
11
 20
312
 21
312
  0
LINE
  8
0
 10
11
 11
11
 20
312
 21
303
  0
LINE
  8
0
 10
11
 11
2
 20
303
 21
303
  0
LINE
  8
0
 10
2
 11
2
 20
315
 21
324
  0
LINE
  8
0
 10
2
 11
11
 20
324
 21
324
  0
LINE
  8
0
 10
11
 11
11
 20
324
 21
315
  0
LINE
  8
0
 10
11
 11
2
 20
315
 21
315
  0
LINE
  8
0
 10
2
 11
2
 20
332
 21
341
  0
LINE
  8
0
 10
2
 11
11
 20
341
 21
341
  0
LINE
  8
0
 10
11
 11
11
 20
341
 21
332
  0
LINE
  8
0
 10
11
 11
2
 20
332
 21
332
  0
LINE
  8
0
 10
2
 11
2
 20
344
 21
353
  0
LINE
  8
0
 10
2
 11
11
 20
353
 21
353
  0
LINE
  8
0
 10
11
 11
11
 20
353
 21
344
  0
LINE
  8
0
 10
11
 11
2
 20
344
 21
344
  0
LINE
  8
0
 10
2
 11
2
 20
356
 21
365
  0
LINE
  8
0
 10
2
 11
11
 20
365
 21
365
  0
LINE
  8
0
 10
11
 11
11
 20
365
 21
356
  0
LINE
  8
0
 10
11
 11
2
 20
356
 21
356
  0
LINE
  8
0
 10
12.9
 11
12.9
 20
4
 21
13
  0
LINE
  8
0
 10
12.9
 11
21.9
 20
13
 21
13
  0
LINE
  8
0
 10
21.9
 11
21.9
 20
13
 21
4
  0
LINE
  8
0
 10
21.9
 11
12.9
 20
4
 21
4
  0
LINE
  8
0
 10
12.9
 11
12.9
 20
16
 21
25
  0
LINE
  8
0
 10
12.9
 11
21.9
 20
25
 21
25
  0
LINE
  8
0
 10
21.9
 11
21.9
 20
25
 21
16
  0
LINE
  8
0
 10
21.9
 11
12.9
 20
16
 21
16
  0
LINE
  8
0
 10
12.9
 11
12.9
 20
28
 21
37
  0
LINE
  8
0
 10
12.9
 11
21.9
 20
37
 21
37
  0
LINE
  8
0
 10
21.9
 11
21.9
 20
37
 21
28
  0
LINE
  8
0
 10
21.9
 11
12.9
 20
28
 21
28
  0
LINE
  8
0
 10
12.9
 11
12.9
 20
45
 21
54
  0
LINE
  8
0
 10
12.9
 11
21.9
 20
54
 21
54
  0
LINE
  8
0
 10
21.9
 11
21.9
 20
54
 21
45
  0
LINE
  8
0
 10
21.9
 11
12.9
 20
45
 21
45
  0
LINE
  8
0
 10
12.9
 11
12.9
 20
57
 21
66
  0
LINE
  8
0
 10
12.9
 11
21.9
 20
66
 21
66
  0
LINE
  8
0
 10
21.9
 11
21.9
 20
66
 21
57
  0
LINE
  8
0
 10
21.9
 11
12.9
 20
57
 21
57
  0
LINE
  8
0
 10
12.9
 11
12.9
 20
69
 21
78
  0
LINE
  8
0
 10
12.9
 11
21.9
 20
78
 21
78
  0
LINE
  8
0
 10
21.9
 11
21.9
 20
78
 21
69
  0
LINE
  8
0
 10
21.9
 11
12.9
 20
69
 21
69
  0
LINE
  8
0
 10
12.9
 11
12.9
 20
86
 21
95
  0
LINE
  8
0
 10
12.9
 11
21.9
 20
95
 21
95
  0
LINE
  8
0
 10
21.9
 11
21.9
 20
95
 21
86
  0
LINE
  8
0
 10
21.9
 11
12.9
 20
86
 21
86
  0
LINE
  8
0
 10
12.9
 11
12.9
 20
98
 21
107
  0
LINE
  8
0
 10
12.9
 11
21.9
 20
107
 21
107
  0
LINE
  8
0
 10
21.9
 11
21.9
 20
107
 21
98
  0
LINE
  8
0
 10
21.9
 11
12.9
 20
98
 21
98
  0
LINE
  8
0
 10
12.9
 11
12.9
 20
110
 21
119
  0
LINE
  8
0
 10
12.9
 11
21.9
 20
119
 21
119
  0
LINE
  8
0
 10
21.9
 11
21.9
 20
119
 21
110
  0
LINE
  8
0
 10
21.9
 11
12.9
 20
110
 21
110
  0
LINE
  8
0
 10
12.9
 11
12.9
 20
127
 21
136
  0
LINE
  8
0
 10
12.9
 11
21.9
 20
136
 21
136
  0
LINE
  8
0
 10
21.9
 11
21.9
 20
136
 21
127
  0
LINE
  8
0
 10
21.9
 11
12.9
 20
127
 21
127
  0
LINE
  8
0
 10
12.9
 11
12.9
 20
139
 21
148
  0
LINE
  8
0
 10
12.9
 11
21.9
 20
148
 21
148
  0
LINE
  8
0
 10
21.9
 11
21.9
 20
148
 21
139
  0
LINE
  8
0
 10
21.9
 11
12.9
 20
139
 21
139
  0
LINE
  8
0
 10
12.9
 11
12.9
 20
151
 21
160
  0
LINE
  8
0
 10
12.9
 11
21.9
 20
160
 21
160
  0
LINE
  8
0
 10
21.9
 11
21.9
 20
160
 21
151
  0
LINE
  8
0
 10
21.9
 11
12.9
 20
151
 21
151
  0
LINE
  8
0
 10
12.9
 11
12.9
 20
168
 21
177
  0
LINE
  8
0
 10
12.9
 11
21.9
 20
177
 21
177
  0
LINE
  8
0
 10
21.9
 11
21.9
 20
177
 21
168
  0
LINE
  8
0
 10
21.9
 11
12.9
 20
168
 21
168
  0
LINE
  8
0
 10
12.9
 11
12.9
 20
180
 21
189
  0
LINE
  8
0
 10
12.9
 11
21.9
 20
189
 21
189
  0
LINE
  8
0
 10
21.9
 11
21.9
 20
189
 21
180
  0
LINE
  8
0
 10
21.9
 11
12.9
 20
180
 21
180
  0
LINE
  8
0
 10
12.9
 11
12.9
 20
192
 21
201
  0
LINE
  8
0
 10
12.9
 11
21.9
 20
201
 21
201
  0
LINE
  8
0
 10
21.9
 11
21.9
 20
201
 21
192
  0
LINE
  8
0
 10
21.9
 11
12.9
 20
192
 21
192
  0
LINE
  8
0
 10
12.9
 11
12.9
 20
209
 21
218
  0
LINE
  8
0
 10
12.9
 11
21.9
 20
218
 21
218
  0
LINE
  8
0
 10
21.9
 11
21.9
 20
218
 21
209
  0
LINE
  8
0
 10
21.9
 11
12.9
 20
209
 21
209
  0
LINE
  8
0
 10
12.9
 11
12.9
 20
221
 21
230
  0
LINE
  8
0
 10
12.9
 11
21.9
 20
230
 21
230
  0
LINE
  8
0
 10
21.9
 11
21.9
 20
230
 21
221
  0
LINE
  8
0
 10
21.9
 11
12.9
 20
221
 21
221
  0
LINE
  8
0
 10
12.9
 11
12.9
 20
233
 21
242
  0
LINE
  8
0
 10
12.9
 11
21.9
 20
242
 21
242
  0
LINE
  8
0
 10
21.9
 11
21.9
 20
242
 21
233
  0
LINE
  8
0
 10
21.9
 11
12.9
 20
233
 21
233
  0
LINE
  8
0
 10
12.9
 11
12.9
 20
250
 21
259
  0
LINE
  8
0
 10
12.9
 11
21.9
 20
259
 21
259
  0
LINE
  8
0
 10
21.9
 11
21.9
 20
259
 21
250
  0
LINE
  8
0
 10
21.9
 11
12.9
 20
250
 21
250
  0
LINE
  8
0
 10
12.9
 11
12.9
 20
262
 21
271
  0
LINE
  8
0
 10
12.9
 11
21.9
 20
271
 21
271
  0
LINE
  8
0
 10
21.9
 11
21.9
 20
271
 21
262
  0
LINE
  8
0
 10
21.9
 11
12.9
 20
262
 21
262
  0
LINE
  8
0
 10
12.9
 11
12.9
 20
274
 21
283
  0
LINE
  8
0
 10
12.9
 11
21.9
 20
283
 21
283
  0
LINE
  8
0
 10
21.9
 11
21.9
 20
283
 21
274
  0
LINE
  8
0
 10
21.9
 11
12.9
 20
274
 21
274
  0
LINE
  8
0
 10
12.9
 11
12.9
 20
291
 21
300
  0
LINE
  8
0
 10
12.9
 11
21.9
 20
300
 21
300
  0
LINE
  8
0
 10
21.9
 11
21.9
 20
300
 21
291
  0
LINE
  8
0
 10
21.9
 11
12.9
 20
291
 21
291
  0
LINE
  8
0
 10
12.9
 11
12.9
 20
303
 21
312
  0
LINE
  8
0
 10
12.9
 11
21.9
 20
312
 21
312
  0
LINE
  8
0
 10
21.9
 11
21.9
 20
312
 21
303
  0
LINE
  8
0
 10
21.9
 11
12.9
 20
303
 21
303
  0
LINE
  8
0
 10
12.9
 11
12.9
 20
315
 21
324
  0
LINE
  8
0
 10
12.9
 11
21.9
 20
324
 21
324
  0
LINE
  8
0
 10
21.9
 11
21.9
 20
324
 21
315
  0
LINE
  8
0
 10
21.9
 11
12.9
 20
315
 21
315
  0
LINE
  8
0
 10
12.9
 11
12.9
 20
332
 21
341
  0
LINE
  8
0
 10
12.9
 11
21.9
 20
341
 21
341
  0
LINE
  8
0
 10
21.9
 11
21.9
 20
341
 21
332
  0
LINE
  8
0
 10
21.9
 11
12.9
 20
332
 21
332
  0
LINE
  8
0
 10
12.9
 11
12.9
 20
344
 21
353
  0
LINE
  8
0
 10
12.9
 11
21.9
 20
353
 21
353
  0
LINE
  8
0
 10
21.9
 11
21.9
 20
353
 21
344
  0
LINE
  8
0
 10
21.9
 11
12.9
 20
344
 21
344
  0
LINE
  8
0
 10
12.9
 11
12.9
 20
356
 21
365
  0
LINE
  8
0
 10
12.9
 11
21.9
 20
365
 21
365
  0
LINE
  8
0
 10
21.9
 11
21.9
 20
365
 21
356
  0
LINE
  8
0
 10
21.9
 11
12.9
 20
356
 21
356
  0
LINE
  8
0
 10
23.8
 11
23.8
 20
4
 21
13
  0
LINE
  8
0
 10
23.8
 11
32.8
 20
13
 21
13
  0
LINE
  8
0
 10
32.8
 11
32.8
 20
13
 21
4
  0
LINE
  8
0
 10
32.8
 11
23.8
 20
4
 21
4
  0
LINE
  8
0
 10
23.8
 11
23.8
 20
16
 21
25
  0
LINE
  8
0
 10
23.8
 11
32.8
 20
25
 21
25
  0
LINE
  8
0
 10
32.8
 11
32.8
 20
25
 21
16
  0
LINE
  8
0
 10
32.8
 11
23.8
 20
16
 21
16
  0
LINE
  8
0
 10
23.8
 11
23.8
 20
28
 21
37
  0
LINE
  8
0
 10
23.8
 11
32.8
 20
37
 21
37
  0
LINE
  8
0
 10
32.8
 11
32.8
 20
37
 21
28
  0
LINE
  8
0
 10
32.8
 11
23.8
 20
28
 21
28
  0
LINE
  8
0
 10
23.8
 11
23.8
 20
45
 21
54
  0
LINE
  8
0
 10
23.8
 11
32.8
 20
54
 21
54
  0
LINE
  8
0
 10
32.8
 11
32.8
 20
54
 21
45
  0
LINE
  8
0
 10
32.8
 11
23.8
 20
45
 21
45
  0
LINE
  8
0
 10
23.8
 11
23.8
 20
57
 21
66
  0
LINE
  8
0
 10
23.8
 11
32.8
 20
66
 21
66
  0
LINE
  8
0
 10
32.8
 11
32.8
 20
66
 21
57
  0
LINE
  8
0
 10
32.8
 11
23.8
 20
57
 21
57
  0
LINE
  8
0
 10
23.8
 11
23.8
 20
69
 21
78
  0
LINE
  8
0
 10
23.8
 11
32.8
 20
78
 21
78
  0
LINE
  8
0
 10
32.8
 11
32.8
 20
78
 21
69
  0
LINE
  8
0
 10
32.8
 11
23.8
 20
69
 21
69
  0
LINE
  8
0
 10
23.8
 11
23.8
 20
86
 21
95
  0
LINE
  8
0
 10
23.8
 11
32.8
 20
95
 21
95
  0
LINE
  8
0
 10
32.8
 11
32.8
 20
95
 21
86
  0
LINE
  8
0
 10
32.8
 11
23.8
 20
86
 21
86
  0
LINE
  8
0
 10
23.8
 11
23.8
 20
98
 21
107
  0
LINE
  8
0
 10
23.8
 11
32.8
 20
107
 21
107
  0
LINE
  8
0
 10
32.8
 11
32.8
 20
107
 21
98
  0
LINE
  8
0
 10
32.8
 11
23.8
 20
98
 21
98
  0
LINE
  8
0
 10
23.8
 11
23.8
 20
110
 21
119
  0
LINE
  8
0
 10
23.8
 11
32.8
 20
119
 21
119
  0
LINE
  8
0
 10
32.8
 11
32.8
 20
119
 21
110
  0
LINE
  8
0
 10
32.8
 11
23.8
 20
110
 21
110
  0
LINE
  8
0
 10
23.8
 11
23.8
 20
127
 21
136
  0
LINE
  8
0
 10
23.8
 11
32.8
 20
136
 21
136
  0
LINE
  8
0
 10
32.8
 11
32.8
 20
136
 21
127
  0
LINE
  8
0
 10
32.8
 11
23.8
 20
127
 21
127
  0
LINE
  8
0
 10
23.8
 11
23.8
 20
139
 21
148
  0
LINE
  8
0
 10
23.8
 11
32.8
 20
148
 21
148
  0
LINE
  8
0
 10
32.8
 11
32.8
 20
148
 21
139
  0
LINE
  8
0
 10
32.8
 11
23.8
 20
139
 21
139
  0
LINE
  8
0
 10
23.8
 11
23.8
 20
151
 21
160
  0
LINE
  8
0
 10
23.8
 11
32.8
 20
160
 21
160
  0
LINE
  8
0
 10
32.8
 11
32.8
 20
160
 21
151
  0
LINE
  8
0
 10
32.8
 11
23.8
 20
151
 21
151
  0
LINE
  8
0
 10
23.8
 11
23.8
 20
168
 21
177
  0
LINE
  8
0
 10
23.8
 11
32.8
 20
177
 21
177
  0
LINE
  8
0
 10
32.8
 11
32.8
 20
177
 21
168
  0
LINE
  8
0
 10
32.8
 11
23.8
 20
168
 21
168
  0
LINE
  8
0
 10
23.8
 11
23.8
 20
180
 21
189
  0
LINE
  8
0
 10
23.8
 11
32.8
 20
189
 21
189
  0
LINE
  8
0
 10
32.8
 11
32.8
 20
189
 21
180
  0
LINE
  8
0
 10
32.8
 11
23.8
 20
180
 21
180
  0
LINE
  8
0
 10
23.8
 11
23.8
 20
192
 21
201
  0
LINE
  8
0
 10
23.8
 11
32.8
 20
201
 21
201
  0
LINE
  8
0
 10
32.8
 11
32.8
 20
201
 21
192
  0
LINE
  8
0
 10
32.8
 11
23.8
 20
192
 21
192
  0
LINE
  8
0
 10
23.8
 11
23.8
 20
209
 21
218
  0
LINE
  8
0
 10
23.8
 11
32.8
 20
218
 21
218
  0
LINE
  8
0
 10
32.8
 11
32.8
 20
218
 21
209
  0
LINE
  8
0
 10
32.8
 11
23.8
 20
209
 21
209
  0
LINE
  8
0
 10
23.8
 11
23.8
 20
221
 21
230
  0
LINE
  8
0
 10
23.8
 11
32.8
 20
230
 21
230
  0
LINE
  8
0
 10
32.8
 11
32.8
 20
230
 21
221
  0
LINE
  8
0
 10
32.8
 11
23.8
 20
221
 21
221
  0
LINE
  8
0
 10
23.8
 11
23.8
 20
233
 21
242
  0
LINE
  8
0
 10
23.8
 11
32.8
 20
242
 21
242
  0
LINE
  8
0
 10
32.8
 11
32.8
 20
242
 21
233
  0
LINE
  8
0
 10
32.8
 11
23.8
 20
233
 21
233
  0
LINE
  8
0
 10
23.8
 11
23.8
 20
250
 21
259
  0
LINE
  8
0
 10
23.8
 11
32.8
 20
259
 21
259
  0
LINE
  8
0
 10
32.8
 11
32.8
 20
259
 21
250
  0
LINE
  8
0
 10
32.8
 11
23.8
 20
250
 21
250
  0
LINE
  8
0
 10
23.8
 11
23.8
 20
262
 21
271
  0
LINE
  8
0
 10
23.8
 11
32.8
 20
271
 21
271
  0
LINE
  8
0
 10
32.8
 11
32.8
 20
271
 21
262
  0
LINE
  8
0
 10
32.8
 11
23.8
 20
262
 21
262
  0
LINE
  8
0
 10
23.8
 11
23.8
 20
274
 21
283
  0
LINE
  8
0
 10
23.8
 11
32.8
 20
283
 21
283
  0
LINE
  8
0
 10
32.8
 11
32.8
 20
283
 21
274
  0
LINE
  8
0
 10
32.8
 11
23.8
 20
274
 21
274
  0
LINE
  8
0
 10
23.8
 11
23.8
 20
291
 21
300
  0
LINE
  8
0
 10
23.8
 11
32.8
 20
300
 21
300
  0
LINE
  8
0
 10
32.8
 11
32.8
 20
300
 21
291
  0
LINE
  8
0
 10
32.8
 11
23.8
 20
291
 21
291
  0
LINE
  8
0
 10
23.8
 11
23.8
 20
303
 21
312
  0
LINE
  8
0
 10
23.8
 11
32.8
 20
312
 21
312
  0
LINE
  8
0
 10
32.8
 11
32.8
 20
312
 21
303
  0
LINE
  8
0
 10
32.8
 11
23.8
 20
303
 21
303
  0
LINE
  8
0
 10
23.8
 11
23.8
 20
315
 21
324
  0
LINE
  8
0
 10
23.8
 11
32.8
 20
324
 21
324
  0
LINE
  8
0
 10
32.8
 11
32.8
 20
324
 21
315
  0
LINE
  8
0
 10
32.8
 11
23.8
 20
315
 21
315
  0
LINE
  8
0
 10
23.8
 11
23.8
 20
332
 21
341
  0
LINE
  8
0
 10
23.8
 11
32.8
 20
341
 21
341
  0
LINE
  8
0
 10
32.8
 11
32.8
 20
341
 21
332
  0
LINE
  8
0
 10
32.8
 11
23.8
 20
332
 21
332
  0
LINE
  8
0
 10
23.8
 11
23.8
 20
344
 21
353
  0
LINE
  8
0
 10
23.8
 11
32.8
 20
353
 21
353
  0
LINE
  8
0
 10
32.8
 11
32.8
 20
353
 21
344
  0
LINE
  8
0
 10
32.8
 11
23.8
 20
344
 21
344
  0
LINE
  8
0
 10
23.8
 11
23.8
 20
356
 21
365
  0
LINE
  8
0
 10
23.8
 11
32.8
 20
365
 21
365
  0
LINE
  8
0
 10
32.8
 11
32.8
 20
365
 21
356
  0
LINE
  8
0
 10
32.8
 11
23.8
 20
356
 21
356
  0
LINE
  8
0
 10
34.7
 11
34.7
 20
4
 21
13
  0
LINE
  8
0
 10
34.7
 11
43.7
 20
13
 21
13
  0
LINE
  8
0
 10
43.7
 11
43.7
 20
13
 21
4
  0
LINE
  8
0
 10
43.7
 11
34.7
 20
4
 21
4
  0
LINE
  8
0
 10
34.7
 11
34.7
 20
16
 21
25
  0
LINE
  8
0
 10
34.7
 11
43.7
 20
25
 21
25
  0
LINE
  8
0
 10
43.7
 11
43.7
 20
25
 21
16
  0
LINE
  8
0
 10
43.7
 11
34.7
 20
16
 21
16
  0
LINE
  8
0
 10
34.7
 11
34.7
 20
28
 21
37
  0
LINE
  8
0
 10
34.7
 11
43.7
 20
37
 21
37
  0
LINE
  8
0
 10
43.7
 11
43.7
 20
37
 21
28
  0
LINE
  8
0
 10
43.7
 11
34.7
 20
28
 21
28
  0
LINE
  8
0
 10
34.7
 11
34.7
 20
45
 21
54
  0
LINE
  8
0
 10
34.7
 11
43.7
 20
54
 21
54
  0
LINE
  8
0
 10
43.7
 11
43.7
 20
54
 21
45
  0
LINE
  8
0
 10
43.7
 11
34.7
 20
45
 21
45
  0
LINE
  8
0
 10
34.7
 11
34.7
 20
57
 21
66
  0
LINE
  8
0
 10
34.7
 11
43.7
 20
66
 21
66
  0
LINE
  8
0
 10
43.7
 11
43.7
 20
66
 21
57
  0
LINE
  8
0
 10
43.7
 11
34.7
 20
57
 21
57
  0
LINE
  8
0
 10
34.7
 11
34.7
 20
69
 21
78
  0
LINE
  8
0
 10
34.7
 11
43.7
 20
78
 21
78
  0
LINE
  8
0
 10
43.7
 11
43.7
 20
78
 21
69
  0
LINE
  8
0
 10
43.7
 11
34.7
 20
69
 21
69
  0
LINE
  8
0
 10
34.7
 11
34.7
 20
86
 21
95
  0
LINE
  8
0
 10
34.7
 11
43.7
 20
95
 21
95
  0
LINE
  8
0
 10
43.7
 11
43.7
 20
95
 21
86
  0
LINE
  8
0
 10
43.7
 11
34.7
 20
86
 21
86
  0
LINE
  8
0
 10
34.7
 11
34.7
 20
98
 21
107
  0
LINE
  8
0
 10
34.7
 11
43.7
 20
107
 21
107
  0
LINE
  8
0
 10
43.7
 11
43.7
 20
107
 21
98
  0
LINE
  8
0
 10
43.7
 11
34.7
 20
98
 21
98
  0
LINE
  8
0
 10
34.7
 11
34.7
 20
110
 21
119
  0
LINE
  8
0
 10
34.7
 11
43.7
 20
119
 21
119
  0
LINE
  8
0
 10
43.7
 11
43.7
 20
119
 21
110
  0
LINE
  8
0
 10
43.7
 11
34.7
 20
110
 21
110
  0
LINE
  8
0
 10
34.7
 11
34.7
 20
127
 21
136
  0
LINE
  8
0
 10
34.7
 11
43.7
 20
136
 21
136
  0
LINE
  8
0
 10
43.7
 11
43.7
 20
136
 21
127
  0
LINE
  8
0
 10
43.7
 11
34.7
 20
127
 21
127
  0
LINE
  8
0
 10
34.7
 11
34.7
 20
139
 21
148
  0
LINE
  8
0
 10
34.7
 11
43.7
 20
148
 21
148
  0
LINE
  8
0
 10
43.7
 11
43.7
 20
148
 21
139
  0
LINE
  8
0
 10
43.7
 11
34.7
 20
139
 21
139
  0
LINE
  8
0
 10
34.7
 11
34.7
 20
151
 21
160
  0
LINE
  8
0
 10
34.7
 11
43.7
 20
160
 21
160
  0
LINE
  8
0
 10
43.7
 11
43.7
 20
160
 21
151
  0
LINE
  8
0
 10
43.7
 11
34.7
 20
151
 21
151
  0
LINE
  8
0
 10
34.7
 11
34.7
 20
168
 21
177
  0
LINE
  8
0
 10
34.7
 11
43.7
 20
177
 21
177
  0
LINE
  8
0
 10
43.7
 11
43.7
 20
177
 21
168
  0
LINE
  8
0
 10
43.7
 11
34.7
 20
168
 21
168
  0
LINE
  8
0
 10
34.7
 11
34.7
 20
180
 21
189
  0
LINE
  8
0
 10
34.7
 11
43.7
 20
189
 21
189
  0
LINE
  8
0
 10
43.7
 11
43.7
 20
189
 21
180
  0
LINE
  8
0
 10
43.7
 11
34.7
 20
180
 21
180
  0
LINE
  8
0
 10
34.7
 11
34.7
 20
192
 21
201
  0
LINE
  8
0
 10
34.7
 11
43.7
 20
201
 21
201
  0
LINE
  8
0
 10
43.7
 11
43.7
 20
201
 21
192
  0
LINE
  8
0
 10
43.7
 11
34.7
 20
192
 21
192
  0
LINE
  8
0
 10
34.7
 11
34.7
 20
209
 21
218
  0
LINE
  8
0
 10
34.7
 11
43.7
 20
218
 21
218
  0
LINE
  8
0
 10
43.7
 11
43.7
 20
218
 21
209
  0
LINE
  8
0
 10
43.7
 11
34.7
 20
209
 21
209
  0
LINE
  8
0
 10
34.7
 11
34.7
 20
221
 21
230
  0
LINE
  8
0
 10
34.7
 11
43.7
 20
230
 21
230
  0
LINE
  8
0
 10
43.7
 11
43.7
 20
230
 21
221
  0
LINE
  8
0
 10
43.7
 11
34.7
 20
221
 21
221
  0
LINE
  8
0
 10
34.7
 11
34.7
 20
233
 21
242
  0
LINE
  8
0
 10
34.7
 11
43.7
 20
242
 21
242
  0
LINE
  8
0
 10
43.7
 11
43.7
 20
242
 21
233
  0
LINE
  8
0
 10
43.7
 11
34.7
 20
233
 21
233
  0
LINE
  8
0
 10
34.7
 11
34.7
 20
250
 21
259
  0
LINE
  8
0
 10
34.7
 11
43.7
 20
259
 21
259
  0
LINE
  8
0
 10
43.7
 11
43.7
 20
259
 21
250
  0
LINE
  8
0
 10
43.7
 11
34.7
 20
250
 21
250
  0
LINE
  8
0
 10
34.7
 11
34.7
 20
262
 21
271
  0
LINE
  8
0
 10
34.7
 11
43.7
 20
271
 21
271
  0
LINE
  8
0
 10
43.7
 11
43.7
 20
271
 21
262
  0
LINE
  8
0
 10
43.7
 11
34.7
 20
262
 21
262
  0
LINE
  8
0
 10
34.7
 11
34.7
 20
274
 21
283
  0
LINE
  8
0
 10
34.7
 11
43.7
 20
283
 21
283
  0
LINE
  8
0
 10
43.7
 11
43.7
 20
283
 21
274
  0
LINE
  8
0
 10
43.7
 11
34.7
 20
274
 21
274
  0
LINE
  8
0
 10
34.7
 11
34.7
 20
291
 21
300
  0
LINE
  8
0
 10
34.7
 11
43.7
 20
300
 21
300
  0
LINE
  8
0
 10
43.7
 11
43.7
 20
300
 21
291
  0
LINE
  8
0
 10
43.7
 11
34.7
 20
291
 21
291
  0
LINE
  8
0
 10
34.7
 11
34.7
 20
303
 21
312
  0
LINE
  8
0
 10
34.7
 11
43.7
 20
312
 21
312
  0
LINE
  8
0
 10
43.7
 11
43.7
 20
312
 21
303
  0
LINE
  8
0
 10
43.7
 11
34.7
 20
303
 21
303
  0
LINE
  8
0
 10
34.7
 11
34.7
 20
315
 21
324
  0
LINE
  8
0
 10
34.7
 11
43.7
 20
324
 21
324
  0
LINE
  8
0
 10
43.7
 11
43.7
 20
324
 21
315
  0
LINE
  8
0
 10
43.7
 11
34.7
 20
315
 21
315
  0
LINE
  8
0
 10
34.7
 11
34.7
 20
332
 21
341
  0
LINE
  8
0
 10
34.7
 11
43.7
 20
341
 21
341
  0
LINE
  8
0
 10
43.7
 11
43.7
 20
341
 21
332
  0
LINE
  8
0
 10
43.7
 11
34.7
 20
332
 21
332
  0
LINE
  8
0
 10
34.7
 11
34.7
 20
344
 21
353
  0
LINE
  8
0
 10
34.7
 11
43.7
 20
353
 21
353
  0
LINE
  8
0
 10
43.7
 11
43.7
 20
353
 21
344
  0
LINE
  8
0
 10
43.7
 11
34.7
 20
344
 21
344
  0
LINE
  8
0
 10
34.7
 11
34.7
 20
356
 21
365
  0
LINE
  8
0
 10
34.7
 11
43.7
 20
365
 21
365
  0
LINE
  8
0
 10
43.7
 11
43.7
 20
365
 21
356
  0
LINE
  8
0
 10
43.7
 11
34.7
 20
356
 21
356
  0
LINE
  8
0
 10
45.6
 11
45.6
 20
4
 21
13
  0
LINE
  8
0
 10
45.6
 11
54.6
 20
13
 21
13
  0
LINE
  8
0
 10
54.6
 11
54.6
 20
13
 21
4
  0
LINE
  8
0
 10
54.6
 11
45.6
 20
4
 21
4
  0
LINE
  8
0
 10
45.6
 11
45.6
 20
16
 21
25
  0
LINE
  8
0
 10
45.6
 11
54.6
 20
25
 21
25
  0
LINE
  8
0
 10
54.6
 11
54.6
 20
25
 21
16
  0
LINE
  8
0
 10
54.6
 11
45.6
 20
16
 21
16
  0
LINE
  8
0
 10
45.6
 11
45.6
 20
28
 21
37
  0
LINE
  8
0
 10
45.6
 11
54.6
 20
37
 21
37
  0
LINE
  8
0
 10
54.6
 11
54.6
 20
37
 21
28
  0
LINE
  8
0
 10
54.6
 11
45.6
 20
28
 21
28
  0
LINE
  8
0
 10
45.6
 11
45.6
 20
45
 21
54
  0
LINE
  8
0
 10
45.6
 11
54.6
 20
54
 21
54
  0
LINE
  8
0
 10
54.6
 11
54.6
 20
54
 21
45
  0
LINE
  8
0
 10
54.6
 11
45.6
 20
45
 21
45
  0
LINE
  8
0
 10
45.6
 11
45.6
 20
57
 21
66
  0
LINE
  8
0
 10
45.6
 11
54.6
 20
66
 21
66
  0
LINE
  8
0
 10
54.6
 11
54.6
 20
66
 21
57
  0
LINE
  8
0
 10
54.6
 11
45.6
 20
57
 21
57
  0
LINE
  8
0
 10
45.6
 11
45.6
 20
69
 21
78
  0
LINE
  8
0
 10
45.6
 11
54.6
 20
78
 21
78
  0
LINE
  8
0
 10
54.6
 11
54.6
 20
78
 21
69
  0
LINE
  8
0
 10
54.6
 11
45.6
 20
69
 21
69
  0
LINE
  8
0
 10
45.6
 11
45.6
 20
86
 21
95
  0
LINE
  8
0
 10
45.6
 11
54.6
 20
95
 21
95
  0
LINE
  8
0
 10
54.6
 11
54.6
 20
95
 21
86
  0
LINE
  8
0
 10
54.6
 11
45.6
 20
86
 21
86
  0
LINE
  8
0
 10
45.6
 11
45.6
 20
98
 21
107
  0
LINE
  8
0
 10
45.6
 11
54.6
 20
107
 21
107
  0
LINE
  8
0
 10
54.6
 11
54.6
 20
107
 21
98
  0
LINE
  8
0
 10
54.6
 11
45.6
 20
98
 21
98
  0
LINE
  8
0
 10
45.6
 11
45.6
 20
110
 21
119
  0
LINE
  8
0
 10
45.6
 11
54.6
 20
119
 21
119
  0
LINE
  8
0
 10
54.6
 11
54.6
 20
119
 21
110
  0
LINE
  8
0
 10
54.6
 11
45.6
 20
110
 21
110
  0
LINE
  8
0
 10
45.6
 11
45.6
 20
127
 21
136
  0
LINE
  8
0
 10
45.6
 11
54.6
 20
136
 21
136
  0
LINE
  8
0
 10
54.6
 11
54.6
 20
136
 21
127
  0
LINE
  8
0
 10
54.6
 11
45.6
 20
127
 21
127
  0
LINE
  8
0
 10
45.6
 11
45.6
 20
139
 21
148
  0
LINE
  8
0
 10
45.6
 11
54.6
 20
148
 21
148
  0
LINE
  8
0
 10
54.6
 11
54.6
 20
148
 21
139
  0
LINE
  8
0
 10
54.6
 11
45.6
 20
139
 21
139
  0
LINE
  8
0
 10
45.6
 11
45.6
 20
151
 21
160
  0
LINE
  8
0
 10
45.6
 11
54.6
 20
160
 21
160
  0
LINE
  8
0
 10
54.6
 11
54.6
 20
160
 21
151
  0
LINE
  8
0
 10
54.6
 11
45.6
 20
151
 21
151
  0
LINE
  8
0
 10
45.6
 11
45.6
 20
168
 21
177
  0
LINE
  8
0
 10
45.6
 11
54.6
 20
177
 21
177
  0
LINE
  8
0
 10
54.6
 11
54.6
 20
177
 21
168
  0
LINE
  8
0
 10
54.6
 11
45.6
 20
168
 21
168
  0
LINE
  8
0
 10
45.6
 11
45.6
 20
180
 21
189
  0
LINE
  8
0
 10
45.6
 11
54.6
 20
189
 21
189
  0
LINE
  8
0
 10
54.6
 11
54.6
 20
189
 21
180
  0
LINE
  8
0
 10
54.6
 11
45.6
 20
180
 21
180
  0
LINE
  8
0
 10
45.6
 11
45.6
 20
192
 21
201
  0
LINE
  8
0
 10
45.6
 11
54.6
 20
201
 21
201
  0
LINE
  8
0
 10
54.6
 11
54.6
 20
201
 21
192
  0
LINE
  8
0
 10
54.6
 11
45.6
 20
192
 21
192
  0
LINE
  8
0
 10
45.6
 11
45.6
 20
209
 21
218
  0
LINE
  8
0
 10
45.6
 11
54.6
 20
218
 21
218
  0
LINE
  8
0
 10
54.6
 11
54.6
 20
218
 21
209
  0
LINE
  8
0
 10
54.6
 11
45.6
 20
209
 21
209
  0
LINE
  8
0
 10
45.6
 11
45.6
 20
221
 21
230
  0
LINE
  8
0
 10
45.6
 11
54.6
 20
230
 21
230
  0
LINE
  8
0
 10
54.6
 11
54.6
 20
230
 21
221
  0
LINE
  8
0
 10
54.6
 11
45.6
 20
221
 21
221
  0
LINE
  8
0
 10
45.6
 11
45.6
 20
233
 21
242
  0
LINE
  8
0
 10
45.6
 11
54.6
 20
242
 21
242
  0
LINE
  8
0
 10
54.6
 11
54.6
 20
242
 21
233
  0
LINE
  8
0
 10
54.6
 11
45.6
 20
233
 21
233
  0
LINE
  8
0
 10
45.6
 11
45.6
 20
250
 21
259
  0
LINE
  8
0
 10
45.6
 11
54.6
 20
259
 21
259
  0
LINE
  8
0
 10
54.6
 11
54.6
 20
259
 21
250
  0
LINE
  8
0
 10
54.6
 11
45.6
 20
250
 21
250
  0
LINE
  8
0
 10
45.6
 11
45.6
 20
262
 21
271
  0
LINE
  8
0
 10
45.6
 11
54.6
 20
271
 21
271
  0
LINE
  8
0
 10
54.6
 11
54.6
 20
271
 21
262
  0
LINE
  8
0
 10
54.6
 11
45.6
 20
262
 21
262
  0
LINE
  8
0
 10
45.6
 11
45.6
 20
274
 21
283
  0
LINE
  8
0
 10
45.6
 11
54.6
 20
283
 21
283
  0
LINE
  8
0
 10
54.6
 11
54.6
 20
283
 21
274
  0
LINE
  8
0
 10
54.6
 11
45.6
 20
274
 21
274
  0
LINE
  8
0
 10
45.6
 11
45.6
 20
291
 21
300
  0
LINE
  8
0
 10
45.6
 11
54.6
 20
300
 21
300
  0
LINE
  8
0
 10
54.6
 11
54.6
 20
300
 21
291
  0
LINE
  8
0
 10
54.6
 11
45.6
 20
291
 21
291
  0
LINE
  8
0
 10
45.6
 11
45.6
 20
303
 21
312
  0
LINE
  8
0
 10
45.6
 11
54.6
 20
312
 21
312
  0
LINE
  8
0
 10
54.6
 11
54.6
 20
312
 21
303
  0
LINE
  8
0
 10
54.6
 11
45.6
 20
303
 21
303
  0
LINE
  8
0
 10
45.6
 11
45.6
 20
315
 21
324
  0
LINE
  8
0
 10
45.6
 11
54.6
 20
324
 21
324
  0
LINE
  8
0
 10
54.6
 11
54.6
 20
324
 21
315
  0
LINE
  8
0
 10
54.6
 11
45.6
 20
315
 21
315
  0
LINE
  8
0
 10
45.6
 11
45.6
 20
332
 21
341
  0
LINE
  8
0
 10
45.6
 11
54.6
 20
341
 21
341
  0
LINE
  8
0
 10
54.6
 11
54.6
 20
341
 21
332
  0
LINE
  8
0
 10
54.6
 11
45.6
 20
332
 21
332
  0
LINE
  8
0
 10
45.6
 11
45.6
 20
344
 21
353
  0
LINE
  8
0
 10
45.6
 11
54.6
 20
353
 21
353
  0
LINE
  8
0
 10
54.6
 11
54.6
 20
353
 21
344
  0
LINE
  8
0
 10
54.6
 11
45.6
 20
344
 21
344
  0
LINE
  8
0
 10
45.6
 11
45.6
 20
356
 21
365
  0
LINE
  8
0
 10
45.6
 11
54.6
 20
365
 21
365
  0
LINE
  8
0
 10
54.6
 11
54.6
 20
365
 21
356
  0
LINE
  8
0
 10
54.6
 11
45.6
 20
356
 21
356
  0
LINE
  8
0
 10
56.5
 11
56.5
 20
4
 21
13
  0
LINE
  8
0
 10
56.5
 11
65.5
 20
13
 21
13
  0
LINE
  8
0
 10
65.5
 11
65.5
 20
13
 21
4
  0
LINE
  8
0
 10
65.5
 11
56.5
 20
4
 21
4
  0
LINE
  8
0
 10
56.5
 11
56.5
 20
16
 21
25
  0
LINE
  8
0
 10
56.5
 11
65.5
 20
25
 21
25
  0
LINE
  8
0
 10
65.5
 11
65.5
 20
25
 21
16
  0
LINE
  8
0
 10
65.5
 11
56.5
 20
16
 21
16
  0
LINE
  8
0
 10
56.5
 11
56.5
 20
28
 21
37
  0
LINE
  8
0
 10
56.5
 11
65.5
 20
37
 21
37
  0
LINE
  8
0
 10
65.5
 11
65.5
 20
37
 21
28
  0
LINE
  8
0
 10
65.5
 11
56.5
 20
28
 21
28
  0
LINE
  8
0
 10
56.5
 11
56.5
 20
45
 21
54
  0
LINE
  8
0
 10
56.5
 11
65.5
 20
54
 21
54
  0
LINE
  8
0
 10
65.5
 11
65.5
 20
54
 21
45
  0
LINE
  8
0
 10
65.5
 11
56.5
 20
45
 21
45
  0
LINE
  8
0
 10
56.5
 11
56.5
 20
57
 21
66
  0
LINE
  8
0
 10
56.5
 11
65.5
 20
66
 21
66
  0
LINE
  8
0
 10
65.5
 11
65.5
 20
66
 21
57
  0
LINE
  8
0
 10
65.5
 11
56.5
 20
57
 21
57
  0
LINE
  8
0
 10
56.5
 11
56.5
 20
69
 21
78
  0
LINE
  8
0
 10
56.5
 11
65.5
 20
78
 21
78
  0
LINE
  8
0
 10
65.5
 11
65.5
 20
78
 21
69
  0
LINE
  8
0
 10
65.5
 11
56.5
 20
69
 21
69
  0
LINE
  8
0
 10
56.5
 11
56.5
 20
86
 21
95
  0
LINE
  8
0
 10
56.5
 11
65.5
 20
95
 21
95
  0
LINE
  8
0
 10
65.5
 11
65.5
 20
95
 21
86
  0
LINE
  8
0
 10
65.5
 11
56.5
 20
86
 21
86
  0
LINE
  8
0
 10
56.5
 11
56.5
 20
98
 21
107
  0
LINE
  8
0
 10
56.5
 11
65.5
 20
107
 21
107
  0
LINE
  8
0
 10
65.5
 11
65.5
 20
107
 21
98
  0
LINE
  8
0
 10
65.5
 11
56.5
 20
98
 21
98
  0
LINE
  8
0
 10
56.5
 11
56.5
 20
110
 21
119
  0
LINE
  8
0
 10
56.5
 11
65.5
 20
119
 21
119
  0
LINE
  8
0
 10
65.5
 11
65.5
 20
119
 21
110
  0
LINE
  8
0
 10
65.5
 11
56.5
 20
110
 21
110
  0
LINE
  8
0
 10
56.5
 11
56.5
 20
127
 21
136
  0
LINE
  8
0
 10
56.5
 11
65.5
 20
136
 21
136
  0
LINE
  8
0
 10
65.5
 11
65.5
 20
136
 21
127
  0
LINE
  8
0
 10
65.5
 11
56.5
 20
127
 21
127
  0
LINE
  8
0
 10
56.5
 11
56.5
 20
139
 21
148
  0
LINE
  8
0
 10
56.5
 11
65.5
 20
148
 21
148
  0
LINE
  8
0
 10
65.5
 11
65.5
 20
148
 21
139
  0
LINE
  8
0
 10
65.5
 11
56.5
 20
139
 21
139
  0
LINE
  8
0
 10
56.5
 11
56.5
 20
151
 21
160
  0
LINE
  8
0
 10
56.5
 11
65.5
 20
160
 21
160
  0
LINE
  8
0
 10
65.5
 11
65.5
 20
160
 21
151
  0
LINE
  8
0
 10
65.5
 11
56.5
 20
151
 21
151
  0
LINE
  8
0
 10
56.5
 11
56.5
 20
168
 21
177
  0
LINE
  8
0
 10
56.5
 11
65.5
 20
177
 21
177
  0
LINE
  8
0
 10
65.5
 11
65.5
 20
177
 21
168
  0
LINE
  8
0
 10
65.5
 11
56.5
 20
168
 21
168
  0
LINE
  8
0
 10
56.5
 11
56.5
 20
180
 21
189
  0
LINE
  8
0
 10
56.5
 11
65.5
 20
189
 21
189
  0
LINE
  8
0
 10
65.5
 11
65.5
 20
189
 21
180
  0
LINE
  8
0
 10
65.5
 11
56.5
 20
180
 21
180
  0
LINE
  8
0
 10
56.5
 11
56.5
 20
192
 21
201
  0
LINE
  8
0
 10
56.5
 11
65.5
 20
201
 21
201
  0
LINE
  8
0
 10
65.5
 11
65.5
 20
201
 21
192
  0
LINE
  8
0
 10
65.5
 11
56.5
 20
192
 21
192
  0
LINE
  8
0
 10
56.5
 11
56.5
 20
209
 21
218
  0
LINE
  8
0
 10
56.5
 11
65.5
 20
218
 21
218
  0
LINE
  8
0
 10
65.5
 11
65.5
 20
218
 21
209
  0
LINE
  8
0
 10
65.5
 11
56.5
 20
209
 21
209
  0
LINE
  8
0
 10
56.5
 11
56.5
 20
221
 21
230
  0
LINE
  8
0
 10
56.5
 11
65.5
 20
230
 21
230
  0
LINE
  8
0
 10
65.5
 11
65.5
 20
230
 21
221
  0
LINE
  8
0
 10
65.5
 11
56.5
 20
221
 21
221
  0
LINE
  8
0
 10
56.5
 11
56.5
 20
233
 21
242
  0
LINE
  8
0
 10
56.5
 11
65.5
 20
242
 21
242
  0
LINE
  8
0
 10
65.5
 11
65.5
 20
242
 21
233
  0
LINE
  8
0
 10
65.5
 11
56.5
 20
233
 21
233
  0
LINE
  8
0
 10
56.5
 11
56.5
 20
250
 21
259
  0
LINE
  8
0
 10
56.5
 11
65.5
 20
259
 21
259
  0
LINE
  8
0
 10
65.5
 11
65.5
 20
259
 21
250
  0
LINE
  8
0
 10
65.5
 11
56.5
 20
250
 21
250
  0
LINE
  8
0
 10
56.5
 11
56.5
 20
262
 21
271
  0
LINE
  8
0
 10
56.5
 11
65.5
 20
271
 21
271
  0
LINE
  8
0
 10
65.5
 11
65.5
 20
271
 21
262
  0
LINE
  8
0
 10
65.5
 11
56.5
 20
262
 21
262
  0
LINE
  8
0
 10
56.5
 11
56.5
 20
274
 21
283
  0
LINE
  8
0
 10
56.5
 11
65.5
 20
283
 21
283
  0
LINE
  8
0
 10
65.5
 11
65.5
 20
283
 21
274
  0
LINE
  8
0
 10
65.5
 11
56.5
 20
274
 21
274
  0
LINE
  8
0
 10
56.5
 11
56.5
 20
291
 21
300
  0
LINE
  8
0
 10
56.5
 11
65.5
 20
300
 21
300
  0
LINE
  8
0
 10
65.5
 11
65.5
 20
300
 21
291
  0
LINE
  8
0
 10
65.5
 11
56.5
 20
291
 21
291
  0
LINE
  8
0
 10
56.5
 11
56.5
 20
303
 21
312
  0
LINE
  8
0
 10
56.5
 11
65.5
 20
312
 21
312
  0
LINE
  8
0
 10
65.5
 11
65.5
 20
312
 21
303
  0
LINE
  8
0
 10
65.5
 11
56.5
 20
303
 21
303
  0
LINE
  8
0
 10
56.5
 11
56.5
 20
315
 21
324
  0
LINE
  8
0
 10
56.5
 11
65.5
 20
324
 21
324
  0
LINE
  8
0
 10
65.5
 11
65.5
 20
324
 21
315
  0
LINE
  8
0
 10
65.5
 11
56.5
 20
315
 21
315
  0
LINE
  8
0
 10
56.5
 11
56.5
 20
332
 21
341
  0
LINE
  8
0
 10
56.5
 11
65.5
 20
341
 21
341
  0
LINE
  8
0
 10
65.5
 11
65.5
 20
341
 21
332
  0
LINE
  8
0
 10
65.5
 11
56.5
 20
332
 21
332
  0
LINE
  8
0
 10
56.5
 11
56.5
 20
344
 21
353
  0
LINE
  8
0
 10
56.5
 11
65.5
 20
353
 21
353
  0
LINE
  8
0
 10
65.5
 11
65.5
 20
353
 21
344
  0
LINE
  8
0
 10
65.5
 11
56.5
 20
344
 21
344
  0
LINE
  8
0
 10
56.5
 11
56.5
 20
356
 21
365
  0
LINE
  8
0
 10
56.5
 11
65.5
 20
365
 21
365
  0
LINE
  8
0
 10
65.5
 11
65.5
 20
365
 21
356
  0
LINE
  8
0
 10
65.5
 11
56.5
 20
356
 21
356
  0
LINE
  8
0
 10
67.4
 11
67.4
 20
4
 21
13
  0
LINE
  8
0
 10
67.4
 11
76.4
 20
13
 21
13
  0
LINE
  8
0
 10
76.4
 11
76.4
 20
13
 21
4
  0
LINE
  8
0
 10
76.4
 11
67.4
 20
4
 21
4
  0
LINE
  8
0
 10
67.4
 11
67.4
 20
16
 21
25
  0
LINE
  8
0
 10
67.4
 11
76.4
 20
25
 21
25
  0
LINE
  8
0
 10
76.4
 11
76.4
 20
25
 21
16
  0
LINE
  8
0
 10
76.4
 11
67.4
 20
16
 21
16
  0
LINE
  8
0
 10
67.4
 11
67.4
 20
28
 21
37
  0
LINE
  8
0
 10
67.4
 11
76.4
 20
37
 21
37
  0
LINE
  8
0
 10
76.4
 11
76.4
 20
37
 21
28
  0
LINE
  8
0
 10
76.4
 11
67.4
 20
28
 21
28
  0
LINE
  8
0
 10
67.4
 11
67.4
 20
45
 21
54
  0
LINE
  8
0
 10
67.4
 11
76.4
 20
54
 21
54
  0
LINE
  8
0
 10
76.4
 11
76.4
 20
54
 21
45
  0
LINE
  8
0
 10
76.4
 11
67.4
 20
45
 21
45
  0
LINE
  8
0
 10
67.4
 11
67.4
 20
57
 21
66
  0
LINE
  8
0
 10
67.4
 11
76.4
 20
66
 21
66
  0
LINE
  8
0
 10
76.4
 11
76.4
 20
66
 21
57
  0
LINE
  8
0
 10
76.4
 11
67.4
 20
57
 21
57
  0
LINE
  8
0
 10
67.4
 11
67.4
 20
69
 21
78
  0
LINE
  8
0
 10
67.4
 11
76.4
 20
78
 21
78
  0
LINE
  8
0
 10
76.4
 11
76.4
 20
78
 21
69
  0
LINE
  8
0
 10
76.4
 11
67.4
 20
69
 21
69
  0
LINE
  8
0
 10
67.4
 11
67.4
 20
86
 21
95
  0
LINE
  8
0
 10
67.4
 11
76.4
 20
95
 21
95
  0
LINE
  8
0
 10
76.4
 11
76.4
 20
95
 21
86
  0
LINE
  8
0
 10
76.4
 11
67.4
 20
86
 21
86
  0
LINE
  8
0
 10
67.4
 11
67.4
 20
98
 21
107
  0
LINE
  8
0
 10
67.4
 11
76.4
 20
107
 21
107
  0
LINE
  8
0
 10
76.4
 11
76.4
 20
107
 21
98
  0
LINE
  8
0
 10
76.4
 11
67.4
 20
98
 21
98
  0
LINE
  8
0
 10
67.4
 11
67.4
 20
110
 21
119
  0
LINE
  8
0
 10
67.4
 11
76.4
 20
119
 21
119
  0
LINE
  8
0
 10
76.4
 11
76.4
 20
119
 21
110
  0
LINE
  8
0
 10
76.4
 11
67.4
 20
110
 21
110
  0
LINE
  8
0
 10
67.4
 11
67.4
 20
127
 21
136
  0
LINE
  8
0
 10
67.4
 11
76.4
 20
136
 21
136
  0
LINE
  8
0
 10
76.4
 11
76.4
 20
136
 21
127
  0
LINE
  8
0
 10
76.4
 11
67.4
 20
127
 21
127
  0
LINE
  8
0
 10
67.4
 11
67.4
 20
139
 21
148
  0
LINE
  8
0
 10
67.4
 11
76.4
 20
148
 21
148
  0
LINE
  8
0
 10
76.4
 11
76.4
 20
148
 21
139
  0
LINE
  8
0
 10
76.4
 11
67.4
 20
139
 21
139
  0
LINE
  8
0
 10
67.4
 11
67.4
 20
151
 21
160
  0
LINE
  8
0
 10
67.4
 11
76.4
 20
160
 21
160
  0
LINE
  8
0
 10
76.4
 11
76.4
 20
160
 21
151
  0
LINE
  8
0
 10
76.4
 11
67.4
 20
151
 21
151
  0
LINE
  8
0
 10
67.4
 11
67.4
 20
168
 21
177
  0
LINE
  8
0
 10
67.4
 11
76.4
 20
177
 21
177
  0
LINE
  8
0
 10
76.4
 11
76.4
 20
177
 21
168
  0
LINE
  8
0
 10
76.4
 11
67.4
 20
168
 21
168
  0
LINE
  8
0
 10
67.4
 11
67.4
 20
180
 21
189
  0
LINE
  8
0
 10
67.4
 11
76.4
 20
189
 21
189
  0
LINE
  8
0
 10
76.4
 11
76.4
 20
189
 21
180
  0
LINE
  8
0
 10
76.4
 11
67.4
 20
180
 21
180
  0
LINE
  8
0
 10
67.4
 11
67.4
 20
192
 21
201
  0
LINE
  8
0
 10
67.4
 11
76.4
 20
201
 21
201
  0
LINE
  8
0
 10
76.4
 11
76.4
 20
201
 21
192
  0
LINE
  8
0
 10
76.4
 11
67.4
 20
192
 21
192
  0
LINE
  8
0
 10
67.4
 11
67.4
 20
209
 21
218
  0
LINE
  8
0
 10
67.4
 11
76.4
 20
218
 21
218
  0
LINE
  8
0
 10
76.4
 11
76.4
 20
218
 21
209
  0
LINE
  8
0
 10
76.4
 11
67.4
 20
209
 21
209
  0
LINE
  8
0
 10
67.4
 11
67.4
 20
221
 21
230
  0
LINE
  8
0
 10
67.4
 11
76.4
 20
230
 21
230
  0
LINE
  8
0
 10
76.4
 11
76.4
 20
230
 21
221
  0
LINE
  8
0
 10
76.4
 11
67.4
 20
221
 21
221
  0
LINE
  8
0
 10
67.4
 11
67.4
 20
233
 21
242
  0
LINE
  8
0
 10
67.4
 11
76.4
 20
242
 21
242
  0
LINE
  8
0
 10
76.4
 11
76.4
 20
242
 21
233
  0
LINE
  8
0
 10
76.4
 11
67.4
 20
233
 21
233
  0
LINE
  8
0
 10
67.4
 11
67.4
 20
250
 21
259
  0
LINE
  8
0
 10
67.4
 11
76.4
 20
259
 21
259
  0
LINE
  8
0
 10
76.4
 11
76.4
 20
259
 21
250
  0
LINE
  8
0
 10
76.4
 11
67.4
 20
250
 21
250
  0
LINE
  8
0
 10
67.4
 11
67.4
 20
262
 21
271
  0
LINE
  8
0
 10
67.4
 11
76.4
 20
271
 21
271
  0
LINE
  8
0
 10
76.4
 11
76.4
 20
271
 21
262
  0
LINE
  8
0
 10
76.4
 11
67.4
 20
262
 21
262
  0
LINE
  8
0
 10
67.4
 11
67.4
 20
274
 21
283
  0
LINE
  8
0
 10
67.4
 11
76.4
 20
283
 21
283
  0
LINE
  8
0
 10
76.4
 11
76.4
 20
283
 21
274
  0
LINE
  8
0
 10
76.4
 11
67.4
 20
274
 21
274
  0
LINE
  8
0
 10
67.4
 11
67.4
 20
291
 21
300
  0
LINE
  8
0
 10
67.4
 11
76.4
 20
300
 21
300
  0
LINE
  8
0
 10
76.4
 11
76.4
 20
300
 21
291
  0
LINE
  8
0
 10
76.4
 11
67.4
 20
291
 21
291
  0
LINE
  8
0
 10
67.4
 11
67.4
 20
303
 21
312
  0
LINE
  8
0
 10
67.4
 11
76.4
 20
312
 21
312
  0
LINE
  8
0
 10
76.4
 11
76.4
 20
312
 21
303
  0
LINE
  8
0
 10
76.4
 11
67.4
 20
303
 21
303
  0
LINE
  8
0
 10
67.4
 11
67.4
 20
315
 21
324
  0
LINE
  8
0
 10
67.4
 11
76.4
 20
324
 21
324
  0
LINE
  8
0
 10
76.4
 11
76.4
 20
324
 21
315
  0
LINE
  8
0
 10
76.4
 11
67.4
 20
315
 21
315
  0
LINE
  8
0
 10
67.4
 11
67.4
 20
332
 21
341
  0
LINE
  8
0
 10
67.4
 11
76.4
 20
341
 21
341
  0
LINE
  8
0
 10
76.4
 11
76.4
 20
341
 21
332
  0
LINE
  8
0
 10
76.4
 11
67.4
 20
332
 21
332
  0
LINE
  8
0
 10
67.4
 11
67.4
 20
344
 21
353
  0
LINE
  8
0
 10
67.4
 11
76.4
 20
353
 21
353
  0
LINE
  8
0
 10
76.4
 11
76.4
 20
353
 21
344
  0
LINE
  8
0
 10
76.4
 11
67.4
 20
344
 21
344
  0
LINE
  8
0
 10
67.4
 11
67.4
 20
356
 21
365
  0
LINE
  8
0
 10
67.4
 11
76.4
 20
365
 21
365
  0
LINE
  8
0
 10
76.4
 11
76.4
 20
365
 21
356
  0
LINE
  8
0
 10
76.4
 11
67.4
 20
356
 21
356
  0
LINE
  8
0
 10
78.3
 11
78.3
 20
4
 21
13
  0
LINE
  8
0
 10
78.3
 11
87.3
 20
13
 21
13
  0
LINE
  8
0
 10
87.3
 11
87.3
 20
13
 21
4
  0
LINE
  8
0
 10
87.3
 11
78.3
 20
4
 21
4
  0
LINE
  8
0
 10
78.3
 11
78.3
 20
16
 21
25
  0
LINE
  8
0
 10
78.3
 11
87.3
 20
25
 21
25
  0
LINE
  8
0
 10
87.3
 11
87.3
 20
25
 21
16
  0
LINE
  8
0
 10
87.3
 11
78.3
 20
16
 21
16
  0
LINE
  8
0
 10
78.3
 11
78.3
 20
28
 21
37
  0
LINE
  8
0
 10
78.3
 11
87.3
 20
37
 21
37
  0
LINE
  8
0
 10
87.3
 11
87.3
 20
37
 21
28
  0
LINE
  8
0
 10
87.3
 11
78.3
 20
28
 21
28
  0
LINE
  8
0
 10
78.3
 11
78.3
 20
45
 21
54
  0
LINE
  8
0
 10
78.3
 11
87.3
 20
54
 21
54
  0
LINE
  8
0
 10
87.3
 11
87.3
 20
54
 21
45
  0
LINE
  8
0
 10
87.3
 11
78.3
 20
45
 21
45
  0
LINE
  8
0
 10
78.3
 11
78.3
 20
57
 21
66
  0
LINE
  8
0
 10
78.3
 11
87.3
 20
66
 21
66
  0
LINE
  8
0
 10
87.3
 11
87.3
 20
66
 21
57
  0
LINE
  8
0
 10
87.3
 11
78.3
 20
57
 21
57
  0
LINE
  8
0
 10
78.3
 11
78.3
 20
69
 21
78
  0
LINE
  8
0
 10
78.3
 11
87.3
 20
78
 21
78
  0
LINE
  8
0
 10
87.3
 11
87.3
 20
78
 21
69
  0
LINE
  8
0
 10
87.3
 11
78.3
 20
69
 21
69
  0
LINE
  8
0
 10
78.3
 11
78.3
 20
86
 21
95
  0
LINE
  8
0
 10
78.3
 11
87.3
 20
95
 21
95
  0
LINE
  8
0
 10
87.3
 11
87.3
 20
95
 21
86
  0
LINE
  8
0
 10
87.3
 11
78.3
 20
86
 21
86
  0
LINE
  8
0
 10
78.3
 11
78.3
 20
98
 21
107
  0
LINE
  8
0
 10
78.3
 11
87.3
 20
107
 21
107
  0
LINE
  8
0
 10
87.3
 11
87.3
 20
107
 21
98
  0
LINE
  8
0
 10
87.3
 11
78.3
 20
98
 21
98
  0
LINE
  8
0
 10
78.3
 11
78.3
 20
110
 21
119
  0
LINE
  8
0
 10
78.3
 11
87.3
 20
119
 21
119
  0
LINE
  8
0
 10
87.3
 11
87.3
 20
119
 21
110
  0
LINE
  8
0
 10
87.3
 11
78.3
 20
110
 21
110
  0
LINE
  8
0
 10
78.3
 11
78.3
 20
127
 21
136
  0
LINE
  8
0
 10
78.3
 11
87.3
 20
136
 21
136
  0
LINE
  8
0
 10
87.3
 11
87.3
 20
136
 21
127
  0
LINE
  8
0
 10
87.3
 11
78.3
 20
127
 21
127
  0
LINE
  8
0
 10
78.3
 11
78.3
 20
139
 21
148
  0
LINE
  8
0
 10
78.3
 11
87.3
 20
148
 21
148
  0
LINE
  8
0
 10
87.3
 11
87.3
 20
148
 21
139
  0
LINE
  8
0
 10
87.3
 11
78.3
 20
139
 21
139
  0
LINE
  8
0
 10
78.3
 11
78.3
 20
151
 21
160
  0
LINE
  8
0
 10
78.3
 11
87.3
 20
160
 21
160
  0
LINE
  8
0
 10
87.3
 11
87.3
 20
160
 21
151
  0
LINE
  8
0
 10
87.3
 11
78.3
 20
151
 21
151
  0
LINE
  8
0
 10
78.3
 11
78.3
 20
168
 21
177
  0
LINE
  8
0
 10
78.3
 11
87.3
 20
177
 21
177
  0
LINE
  8
0
 10
87.3
 11
87.3
 20
177
 21
168
  0
LINE
  8
0
 10
87.3
 11
78.3
 20
168
 21
168
  0
LINE
  8
0
 10
78.3
 11
78.3
 20
180
 21
189
  0
LINE
  8
0
 10
78.3
 11
87.3
 20
189
 21
189
  0
LINE
  8
0
 10
87.3
 11
87.3
 20
189
 21
180
  0
LINE
  8
0
 10
87.3
 11
78.3
 20
180
 21
180
  0
LINE
  8
0
 10
78.3
 11
78.3
 20
192
 21
201
  0
LINE
  8
0
 10
78.3
 11
87.3
 20
201
 21
201
  0
LINE
  8
0
 10
87.3
 11
87.3
 20
201
 21
192
  0
LINE
  8
0
 10
87.3
 11
78.3
 20
192
 21
192
  0
LINE
  8
0
 10
78.3
 11
78.3
 20
209
 21
218
  0
LINE
  8
0
 10
78.3
 11
87.3
 20
218
 21
218
  0
LINE
  8
0
 10
87.3
 11
87.3
 20
218
 21
209
  0
LINE
  8
0
 10
87.3
 11
78.3
 20
209
 21
209
  0
LINE
  8
0
 10
78.3
 11
78.3
 20
221
 21
230
  0
LINE
  8
0
 10
78.3
 11
87.3
 20
230
 21
230
  0
LINE
  8
0
 10
87.3
 11
87.3
 20
230
 21
221
  0
LINE
  8
0
 10
87.3
 11
78.3
 20
221
 21
221
  0
LINE
  8
0
 10
78.3
 11
78.3
 20
233
 21
242
  0
LINE
  8
0
 10
78.3
 11
87.3
 20
242
 21
242
  0
LINE
  8
0
 10
87.3
 11
87.3
 20
242
 21
233
  0
LINE
  8
0
 10
87.3
 11
78.3
 20
233
 21
233
  0
LINE
  8
0
 10
78.3
 11
78.3
 20
250
 21
259
  0
LINE
  8
0
 10
78.3
 11
87.3
 20
259
 21
259
  0
LINE
  8
0
 10
87.3
 11
87.3
 20
259
 21
250
  0
LINE
  8
0
 10
87.3
 11
78.3
 20
250
 21
250
  0
LINE
  8
0
 10
78.3
 11
78.3
 20
262
 21
271
  0
LINE
  8
0
 10
78.3
 11
87.3
 20
271
 21
271
  0
LINE
  8
0
 10
87.3
 11
87.3
 20
271
 21
262
  0
LINE
  8
0
 10
87.3
 11
78.3
 20
262
 21
262
  0
LINE
  8
0
 10
78.3
 11
78.3
 20
274
 21
283
  0
LINE
  8
0
 10
78.3
 11
87.3
 20
283
 21
283
  0
LINE
  8
0
 10
87.3
 11
87.3
 20
283
 21
274
  0
LINE
  8
0
 10
87.3
 11
78.3
 20
274
 21
274
  0
LINE
  8
0
 10
78.3
 11
78.3
 20
291
 21
300
  0
LINE
  8
0
 10
78.3
 11
87.3
 20
300
 21
300
  0
LINE
  8
0
 10
87.3
 11
87.3
 20
300
 21
291
  0
LINE
  8
0
 10
87.3
 11
78.3
 20
291
 21
291
  0
LINE
  8
0
 10
78.3
 11
78.3
 20
303
 21
312
  0
LINE
  8
0
 10
78.3
 11
87.3
 20
312
 21
312
  0
LINE
  8
0
 10
87.3
 11
87.3
 20
312
 21
303
  0
LINE
  8
0
 10
87.3
 11
78.3
 20
303
 21
303
  0
LINE
  8
0
 10
78.3
 11
78.3
 20
315
 21
324
  0
LINE
  8
0
 10
78.3
 11
87.3
 20
324
 21
324
  0
LINE
  8
0
 10
87.3
 11
87.3
 20
324
 21
315
  0
LINE
  8
0
 10
87.3
 11
78.3
 20
315
 21
315
  0
LINE
  8
0
 10
78.3
 11
78.3
 20
332
 21
341
  0
LINE
  8
0
 10
78.3
 11
87.3
 20
341
 21
341
  0
LINE
  8
0
 10
87.3
 11
87.3
 20
341
 21
332
  0
LINE
  8
0
 10
87.3
 11
78.3
 20
332
 21
332
  0
LINE
  8
0
 10
78.3
 11
78.3
 20
344
 21
353
  0
LINE
  8
0
 10
78.3
 11
87.3
 20
353
 21
353
  0
LINE
  8
0
 10
87.3
 11
87.3
 20
353
 21
344
  0
LINE
  8
0
 10
87.3
 11
78.3
 20
344
 21
344
  0
LINE
  8
0
 10
78.3
 11
78.3
 20
356
 21
365
  0
LINE
  8
0
 10
78.3
 11
87.3
 20
365
 21
365
  0
LINE
  8
0
 10
87.3
 11
87.3
 20
365
 21
356
  0
LINE
  8
0
 10
87.3
 11
78.3
 20
356
 21
356
  0
LINE
  8
0
 10
89.2
 11
89.2
 20
4
 21
13
  0
LINE
  8
0
 10
89.2
 11
98.2
 20
13
 21
13
  0
LINE
  8
0
 10
98.2
 11
98.2
 20
13
 21
4
  0
LINE
  8
0
 10
98.2
 11
89.2
 20
4
 21
4
  0
LINE
  8
0
 10
89.2
 11
89.2
 20
16
 21
25
  0
LINE
  8
0
 10
89.2
 11
98.2
 20
25
 21
25
  0
LINE
  8
0
 10
98.2
 11
98.2
 20
25
 21
16
  0
LINE
  8
0
 10
98.2
 11
89.2
 20
16
 21
16
  0
LINE
  8
0
 10
89.2
 11
89.2
 20
28
 21
37
  0
LINE
  8
0
 10
89.2
 11
98.2
 20
37
 21
37
  0
LINE
  8
0
 10
98.2
 11
98.2
 20
37
 21
28
  0
LINE
  8
0
 10
98.2
 11
89.2
 20
28
 21
28
  0
LINE
  8
0
 10
89.2
 11
89.2
 20
45
 21
54
  0
LINE
  8
0
 10
89.2
 11
98.2
 20
54
 21
54
  0
LINE
  8
0
 10
98.2
 11
98.2
 20
54
 21
45
  0
LINE
  8
0
 10
98.2
 11
89.2
 20
45
 21
45
  0
LINE
  8
0
 10
89.2
 11
89.2
 20
57
 21
66
  0
LINE
  8
0
 10
89.2
 11
98.2
 20
66
 21
66
  0
LINE
  8
0
 10
98.2
 11
98.2
 20
66
 21
57
  0
LINE
  8
0
 10
98.2
 11
89.2
 20
57
 21
57
  0
LINE
  8
0
 10
89.2
 11
89.2
 20
69
 21
78
  0
LINE
  8
0
 10
89.2
 11
98.2
 20
78
 21
78
  0
LINE
  8
0
 10
98.2
 11
98.2
 20
78
 21
69
  0
LINE
  8
0
 10
98.2
 11
89.2
 20
69
 21
69
  0
LINE
  8
0
 10
89.2
 11
89.2
 20
86
 21
95
  0
LINE
  8
0
 10
89.2
 11
98.2
 20
95
 21
95
  0
LINE
  8
0
 10
98.2
 11
98.2
 20
95
 21
86
  0
LINE
  8
0
 10
98.2
 11
89.2
 20
86
 21
86
  0
LINE
  8
0
 10
89.2
 11
89.2
 20
98
 21
107
  0
LINE
  8
0
 10
89.2
 11
98.2
 20
107
 21
107
  0
LINE
  8
0
 10
98.2
 11
98.2
 20
107
 21
98
  0
LINE
  8
0
 10
98.2
 11
89.2
 20
98
 21
98
  0
LINE
  8
0
 10
89.2
 11
89.2
 20
110
 21
119
  0
LINE
  8
0
 10
89.2
 11
98.2
 20
119
 21
119
  0
LINE
  8
0
 10
98.2
 11
98.2
 20
119
 21
110
  0
LINE
  8
0
 10
98.2
 11
89.2
 20
110
 21
110
  0
LINE
  8
0
 10
89.2
 11
89.2
 20
127
 21
136
  0
LINE
  8
0
 10
89.2
 11
98.2
 20
136
 21
136
  0
LINE
  8
0
 10
98.2
 11
98.2
 20
136
 21
127
  0
LINE
  8
0
 10
98.2
 11
89.2
 20
127
 21
127
  0
LINE
  8
0
 10
89.2
 11
89.2
 20
139
 21
148
  0
LINE
  8
0
 10
89.2
 11
98.2
 20
148
 21
148
  0
LINE
  8
0
 10
98.2
 11
98.2
 20
148
 21
139
  0
LINE
  8
0
 10
98.2
 11
89.2
 20
139
 21
139
  0
LINE
  8
0
 10
89.2
 11
89.2
 20
151
 21
160
  0
LINE
  8
0
 10
89.2
 11
98.2
 20
160
 21
160
  0
LINE
  8
0
 10
98.2
 11
98.2
 20
160
 21
151
  0
LINE
  8
0
 10
98.2
 11
89.2
 20
151
 21
151
  0
LINE
  8
0
 10
89.2
 11
89.2
 20
168
 21
177
  0
LINE
  8
0
 10
89.2
 11
98.2
 20
177
 21
177
  0
LINE
  8
0
 10
98.2
 11
98.2
 20
177
 21
168
  0
LINE
  8
0
 10
98.2
 11
89.2
 20
168
 21
168
  0
LINE
  8
0
 10
89.2
 11
89.2
 20
180
 21
189
  0
LINE
  8
0
 10
89.2
 11
98.2
 20
189
 21
189
  0
LINE
  8
0
 10
98.2
 11
98.2
 20
189
 21
180
  0
LINE
  8
0
 10
98.2
 11
89.2
 20
180
 21
180
  0
LINE
  8
0
 10
89.2
 11
89.2
 20
192
 21
201
  0
LINE
  8
0
 10
89.2
 11
98.2
 20
201
 21
201
  0
LINE
  8
0
 10
98.2
 11
98.2
 20
201
 21
192
  0
LINE
  8
0
 10
98.2
 11
89.2
 20
192
 21
192
  0
LINE
  8
0
 10
89.2
 11
89.2
 20
209
 21
218
  0
LINE
  8
0
 10
89.2
 11
98.2
 20
218
 21
218
  0
LINE
  8
0
 10
98.2
 11
98.2
 20
218
 21
209
  0
LINE
  8
0
 10
98.2
 11
89.2
 20
209
 21
209
  0
LINE
  8
0
 10
89.2
 11
89.2
 20
221
 21
230
  0
LINE
  8
0
 10
89.2
 11
98.2
 20
230
 21
230
  0
LINE
  8
0
 10
98.2
 11
98.2
 20
230
 21
221
  0
LINE
  8
0
 10
98.2
 11
89.2
 20
221
 21
221
  0
LINE
  8
0
 10
89.2
 11
89.2
 20
233
 21
242
  0
LINE
  8
0
 10
89.2
 11
98.2
 20
242
 21
242
  0
LINE
  8
0
 10
98.2
 11
98.2
 20
242
 21
233
  0
LINE
  8
0
 10
98.2
 11
89.2
 20
233
 21
233
  0
LINE
  8
0
 10
89.2
 11
89.2
 20
250
 21
259
  0
LINE
  8
0
 10
89.2
 11
98.2
 20
259
 21
259
  0
LINE
  8
0
 10
98.2
 11
98.2
 20
259
 21
250
  0
LINE
  8
0
 10
98.2
 11
89.2
 20
250
 21
250
  0
LINE
  8
0
 10
89.2
 11
89.2
 20
262
 21
271
  0
LINE
  8
0
 10
89.2
 11
98.2
 20
271
 21
271
  0
LINE
  8
0
 10
98.2
 11
98.2
 20
271
 21
262
  0
LINE
  8
0
 10
98.2
 11
89.2
 20
262
 21
262
  0
LINE
  8
0
 10
89.2
 11
89.2
 20
274
 21
283
  0
LINE
  8
0
 10
89.2
 11
98.2
 20
283
 21
283
  0
LINE
  8
0
 10
98.2
 11
98.2
 20
283
 21
274
  0
LINE
  8
0
 10
98.2
 11
89.2
 20
274
 21
274
  0
LINE
  8
0
 10
89.2
 11
89.2
 20
291
 21
300
  0
LINE
  8
0
 10
89.2
 11
98.2
 20
300
 21
300
  0
LINE
  8
0
 10
98.2
 11
98.2
 20
300
 21
291
  0
LINE
  8
0
 10
98.2
 11
89.2
 20
291
 21
291
  0
LINE
  8
0
 10
89.2
 11
89.2
 20
303
 21
312
  0
LINE
  8
0
 10
89.2
 11
98.2
 20
312
 21
312
  0
LINE
  8
0
 10
98.2
 11
98.2
 20
312
 21
303
  0
LINE
  8
0
 10
98.2
 11
89.2
 20
303
 21
303
  0
LINE
  8
0
 10
89.2
 11
89.2
 20
315
 21
324
  0
LINE
  8
0
 10
89.2
 11
98.2
 20
324
 21
324
  0
LINE
  8
0
 10
98.2
 11
98.2
 20
324
 21
315
  0
LINE
  8
0
 10
98.2
 11
89.2
 20
315
 21
315
  0
LINE
  8
0
 10
89.2
 11
89.2
 20
332
 21
341
  0
LINE
  8
0
 10
89.2
 11
98.2
 20
341
 21
341
  0
LINE
  8
0
 10
98.2
 11
98.2
 20
341
 21
332
  0
LINE
  8
0
 10
98.2
 11
89.2
 20
332
 21
332
  0
LINE
  8
0
 10
89.2
 11
89.2
 20
344
 21
353
  0
LINE
  8
0
 10
89.2
 11
98.2
 20
353
 21
353
  0
LINE
  8
0
 10
98.2
 11
98.2
 20
353
 21
344
  0
LINE
  8
0
 10
98.2
 11
89.2
 20
344
 21
344
  0
LINE
  8
0
 10
89.2
 11
89.2
 20
356
 21
365
  0
LINE
  8
0
 10
89.2
 11
98.2
 20
365
 21
365
  0
LINE
  8
0
 10
98.2
 11
98.2
 20
365
 21
356
  0
LINE
  8
0
 10
98.2
 11
89.2
 20
356
 21
356
  0
LINE
  8
0
 10
100.1
 11
100.1
 20
4
 21
13
  0
LINE
  8
0
 10
100.1
 11
109.1
 20
13
 21
13
  0
LINE
  8
0
 10
109.1
 11
109.1
 20
13
 21
4
  0
LINE
  8
0
 10
109.1
 11
100.1
 20
4
 21
4
  0
LINE
  8
0
 10
100.1
 11
100.1
 20
16
 21
25
  0
LINE
  8
0
 10
100.1
 11
109.1
 20
25
 21
25
  0
LINE
  8
0
 10
109.1
 11
109.1
 20
25
 21
16
  0
LINE
  8
0
 10
109.1
 11
100.1
 20
16
 21
16
  0
LINE
  8
0
 10
100.1
 11
100.1
 20
28
 21
37
  0
LINE
  8
0
 10
100.1
 11
109.1
 20
37
 21
37
  0
LINE
  8
0
 10
109.1
 11
109.1
 20
37
 21
28
  0
LINE
  8
0
 10
109.1
 11
100.1
 20
28
 21
28
  0
LINE
  8
0
 10
100.1
 11
100.1
 20
45
 21
54
  0
LINE
  8
0
 10
100.1
 11
109.1
 20
54
 21
54
  0
LINE
  8
0
 10
109.1
 11
109.1
 20
54
 21
45
  0
LINE
  8
0
 10
109.1
 11
100.1
 20
45
 21
45
  0
LINE
  8
0
 10
100.1
 11
100.1
 20
57
 21
66
  0
LINE
  8
0
 10
100.1
 11
109.1
 20
66
 21
66
  0
LINE
  8
0
 10
109.1
 11
109.1
 20
66
 21
57
  0
LINE
  8
0
 10
109.1
 11
100.1
 20
57
 21
57
  0
LINE
  8
0
 10
100.1
 11
100.1
 20
69
 21
78
  0
LINE
  8
0
 10
100.1
 11
109.1
 20
78
 21
78
  0
LINE
  8
0
 10
109.1
 11
109.1
 20
78
 21
69
  0
LINE
  8
0
 10
109.1
 11
100.1
 20
69
 21
69
  0
LINE
  8
0
 10
100.1
 11
100.1
 20
86
 21
95
  0
LINE
  8
0
 10
100.1
 11
109.1
 20
95
 21
95
  0
LINE
  8
0
 10
109.1
 11
109.1
 20
95
 21
86
  0
LINE
  8
0
 10
109.1
 11
100.1
 20
86
 21
86
  0
LINE
  8
0
 10
100.1
 11
100.1
 20
98
 21
107
  0
LINE
  8
0
 10
100.1
 11
109.1
 20
107
 21
107
  0
LINE
  8
0
 10
109.1
 11
109.1
 20
107
 21
98
  0
LINE
  8
0
 10
109.1
 11
100.1
 20
98
 21
98
  0
LINE
  8
0
 10
100.1
 11
100.1
 20
110
 21
119
  0
LINE
  8
0
 10
100.1
 11
109.1
 20
119
 21
119
  0
LINE
  8
0
 10
109.1
 11
109.1
 20
119
 21
110
  0
LINE
  8
0
 10
109.1
 11
100.1
 20
110
 21
110
  0
LINE
  8
0
 10
100.1
 11
100.1
 20
127
 21
136
  0
LINE
  8
0
 10
100.1
 11
109.1
 20
136
 21
136
  0
LINE
  8
0
 10
109.1
 11
109.1
 20
136
 21
127
  0
LINE
  8
0
 10
109.1
 11
100.1
 20
127
 21
127
  0
LINE
  8
0
 10
100.1
 11
100.1
 20
139
 21
148
  0
LINE
  8
0
 10
100.1
 11
109.1
 20
148
 21
148
  0
LINE
  8
0
 10
109.1
 11
109.1
 20
148
 21
139
  0
LINE
  8
0
 10
109.1
 11
100.1
 20
139
 21
139
  0
LINE
  8
0
 10
100.1
 11
100.1
 20
151
 21
160
  0
LINE
  8
0
 10
100.1
 11
109.1
 20
160
 21
160
  0
LINE
  8
0
 10
109.1
 11
109.1
 20
160
 21
151
  0
LINE
  8
0
 10
109.1
 11
100.1
 20
151
 21
151
  0
LINE
  8
0
 10
100.1
 11
100.1
 20
168
 21
177
  0
LINE
  8
0
 10
100.1
 11
109.1
 20
177
 21
177
  0
LINE
  8
0
 10
109.1
 11
109.1
 20
177
 21
168
  0
LINE
  8
0
 10
109.1
 11
100.1
 20
168
 21
168
  0
LINE
  8
0
 10
100.1
 11
100.1
 20
180
 21
189
  0
LINE
  8
0
 10
100.1
 11
109.1
 20
189
 21
189
  0
LINE
  8
0
 10
109.1
 11
109.1
 20
189
 21
180
  0
LINE
  8
0
 10
109.1
 11
100.1
 20
180
 21
180
  0
LINE
  8
0
 10
100.1
 11
100.1
 20
192
 21
201
  0
LINE
  8
0
 10
100.1
 11
109.1
 20
201
 21
201
  0
LINE
  8
0
 10
109.1
 11
109.1
 20
201
 21
192
  0
LINE
  8
0
 10
109.1
 11
100.1
 20
192
 21
192
  0
LINE
  8
0
 10
100.1
 11
100.1
 20
209
 21
218
  0
LINE
  8
0
 10
100.1
 11
109.1
 20
218
 21
218
  0
LINE
  8
0
 10
109.1
 11
109.1
 20
218
 21
209
  0
LINE
  8
0
 10
109.1
 11
100.1
 20
209
 21
209
  0
LINE
  8
0
 10
100.1
 11
100.1
 20
221
 21
230
  0
LINE
  8
0
 10
100.1
 11
109.1
 20
230
 21
230
  0
LINE
  8
0
 10
109.1
 11
109.1
 20
230
 21
221
  0
LINE
  8
0
 10
109.1
 11
100.1
 20
221
 21
221
  0
LINE
  8
0
 10
100.1
 11
100.1
 20
233
 21
242
  0
LINE
  8
0
 10
100.1
 11
109.1
 20
242
 21
242
  0
LINE
  8
0
 10
109.1
 11
109.1
 20
242
 21
233
  0
LINE
  8
0
 10
109.1
 11
100.1
 20
233
 21
233
  0
LINE
  8
0
 10
100.1
 11
100.1
 20
250
 21
259
  0
LINE
  8
0
 10
100.1
 11
109.1
 20
259
 21
259
  0
LINE
  8
0
 10
109.1
 11
109.1
 20
259
 21
250
  0
LINE
  8
0
 10
109.1
 11
100.1
 20
250
 21
250
  0
LINE
  8
0
 10
100.1
 11
100.1
 20
262
 21
271
  0
LINE
  8
0
 10
100.1
 11
109.1
 20
271
 21
271
  0
LINE
  8
0
 10
109.1
 11
109.1
 20
271
 21
262
  0
LINE
  8
0
 10
109.1
 11
100.1
 20
262
 21
262
  0
LINE
  8
0
 10
100.1
 11
100.1
 20
274
 21
283
  0
LINE
  8
0
 10
100.1
 11
109.1
 20
283
 21
283
  0
LINE
  8
0
 10
109.1
 11
109.1
 20
283
 21
274
  0
LINE
  8
0
 10
109.1
 11
100.1
 20
274
 21
274
  0
LINE
  8
0
 10
100.1
 11
100.1
 20
291
 21
300
  0
LINE
  8
0
 10
100.1
 11
109.1
 20
300
 21
300
  0
LINE
  8
0
 10
109.1
 11
109.1
 20
300
 21
291
  0
LINE
  8
0
 10
109.1
 11
100.1
 20
291
 21
291
  0
LINE
  8
0
 10
100.1
 11
100.1
 20
303
 21
312
  0
LINE
  8
0
 10
100.1
 11
109.1
 20
312
 21
312
  0
LINE
  8
0
 10
109.1
 11
109.1
 20
312
 21
303
  0
LINE
  8
0
 10
109.1
 11
100.1
 20
303
 21
303
  0
LINE
  8
0
 10
100.1
 11
100.1
 20
315
 21
324
  0
LINE
  8
0
 10
100.1
 11
109.1
 20
324
 21
324
  0
LINE
  8
0
 10
109.1
 11
109.1
 20
324
 21
315
  0
LINE
  8
0
 10
109.1
 11
100.1
 20
315
 21
315
  0
LINE
  8
0
 10
100.1
 11
100.1
 20
332
 21
341
  0
LINE
  8
0
 10
100.1
 11
109.1
 20
341
 21
341
  0
LINE
  8
0
 10
109.1
 11
109.1
 20
341
 21
332
  0
LINE
  8
0
 10
109.1
 11
100.1
 20
332
 21
332
  0
LINE
  8
0
 10
100.1
 11
100.1
 20
344
 21
353
  0
LINE
  8
0
 10
100.1
 11
109.1
 20
353
 21
353
  0
LINE
  8
0
 10
109.1
 11
109.1
 20
353
 21
344
  0
LINE
  8
0
 10
109.1
 11
100.1
 20
344
 21
344
  0
LINE
  8
0
 10
100.1
 11
100.1
 20
356
 21
365
  0
LINE
  8
0
 10
100.1
 11
109.1
 20
365
 21
365
  0
LINE
  8
0
 10
109.1
 11
109.1
 20
365
 21
356
  0
LINE
  8
0
 10
109.1
 11
100.1
 20
356
 21
356
  0
LINE
  8
0
 10
111
 11
111
 20
4
 21
13
  0
LINE
  8
0
 10
111
 11
120
 20
13
 21
13
  0
LINE
  8
0
 10
120
 11
120
 20
13
 21
4
  0
LINE
  8
0
 10
120
 11
111
 20
4
 21
4
  0
LINE
  8
0
 10
111
 11
111
 20
16
 21
25
  0
LINE
  8
0
 10
111
 11
120
 20
25
 21
25
  0
LINE
  8
0
 10
120
 11
120
 20
25
 21
16
  0
LINE
  8
0
 10
120
 11
111
 20
16
 21
16
  0
LINE
  8
0
 10
111
 11
111
 20
28
 21
37
  0
LINE
  8
0
 10
111
 11
120
 20
37
 21
37
  0
LINE
  8
0
 10
120
 11
120
 20
37
 21
28
  0
LINE
  8
0
 10
120
 11
111
 20
28
 21
28
  0
LINE
  8
0
 10
111
 11
111
 20
45
 21
54
  0
LINE
  8
0
 10
111
 11
120
 20
54
 21
54
  0
LINE
  8
0
 10
120
 11
120
 20
54
 21
45
  0
LINE
  8
0
 10
120
 11
111
 20
45
 21
45
  0
LINE
  8
0
 10
111
 11
111
 20
57
 21
66
  0
LINE
  8
0
 10
111
 11
120
 20
66
 21
66
  0
LINE
  8
0
 10
120
 11
120
 20
66
 21
57
  0
LINE
  8
0
 10
120
 11
111
 20
57
 21
57
  0
LINE
  8
0
 10
111
 11
111
 20
69
 21
78
  0
LINE
  8
0
 10
111
 11
120
 20
78
 21
78
  0
LINE
  8
0
 10
120
 11
120
 20
78
 21
69
  0
LINE
  8
0
 10
120
 11
111
 20
69
 21
69
  0
LINE
  8
0
 10
111
 11
111
 20
86
 21
95
  0
LINE
  8
0
 10
111
 11
120
 20
95
 21
95
  0
LINE
  8
0
 10
120
 11
120
 20
95
 21
86
  0
LINE
  8
0
 10
120
 11
111
 20
86
 21
86
  0
LINE
  8
0
 10
111
 11
111
 20
98
 21
107
  0
LINE
  8
0
 10
111
 11
120
 20
107
 21
107
  0
LINE
  8
0
 10
120
 11
120
 20
107
 21
98
  0
LINE
  8
0
 10
120
 11
111
 20
98
 21
98
  0
LINE
  8
0
 10
111
 11
111
 20
110
 21
119
  0
LINE
  8
0
 10
111
 11
120
 20
119
 21
119
  0
LINE
  8
0
 10
120
 11
120
 20
119
 21
110
  0
LINE
  8
0
 10
120
 11
111
 20
110
 21
110
  0
LINE
  8
0
 10
111
 11
111
 20
127
 21
136
  0
LINE
  8
0
 10
111
 11
120
 20
136
 21
136
  0
LINE
  8
0
 10
120
 11
120
 20
136
 21
127
  0
LINE
  8
0
 10
120
 11
111
 20
127
 21
127
  0
LINE
  8
0
 10
111
 11
111
 20
139
 21
148
  0
LINE
  8
0
 10
111
 11
120
 20
148
 21
148
  0
LINE
  8
0
 10
120
 11
120
 20
148
 21
139
  0
LINE
  8
0
 10
120
 11
111
 20
139
 21
139
  0
LINE
  8
0
 10
111
 11
111
 20
151
 21
160
  0
LINE
  8
0
 10
111
 11
120
 20
160
 21
160
  0
LINE
  8
0
 10
120
 11
120
 20
160
 21
151
  0
LINE
  8
0
 10
120
 11
111
 20
151
 21
151
  0
LINE
  8
0
 10
111
 11
111
 20
168
 21
177
  0
LINE
  8
0
 10
111
 11
120
 20
177
 21
177
  0
LINE
  8
0
 10
120
 11
120
 20
177
 21
168
  0
LINE
  8
0
 10
120
 11
111
 20
168
 21
168
  0
LINE
  8
0
 10
111
 11
111
 20
180
 21
189
  0
LINE
  8
0
 10
111
 11
120
 20
189
 21
189
  0
LINE
  8
0
 10
120
 11
120
 20
189
 21
180
  0
LINE
  8
0
 10
120
 11
111
 20
180
 21
180
  0
LINE
  8
0
 10
111
 11
111
 20
192
 21
201
  0
LINE
  8
0
 10
111
 11
120
 20
201
 21
201
  0
LINE
  8
0
 10
120
 11
120
 20
201
 21
192
  0
LINE
  8
0
 10
120
 11
111
 20
192
 21
192
  0
LINE
  8
0
 10
111
 11
111
 20
209
 21
218
  0
LINE
  8
0
 10
111
 11
120
 20
218
 21
218
  0
LINE
  8
0
 10
120
 11
120
 20
218
 21
209
  0
LINE
  8
0
 10
120
 11
111
 20
209
 21
209
  0
LINE
  8
0
 10
111
 11
111
 20
221
 21
230
  0
LINE
  8
0
 10
111
 11
120
 20
230
 21
230
  0
LINE
  8
0
 10
120
 11
120
 20
230
 21
221
  0
LINE
  8
0
 10
120
 11
111
 20
221
 21
221
  0
LINE
  8
0
 10
111
 11
111
 20
233
 21
242
  0
LINE
  8
0
 10
111
 11
120
 20
242
 21
242
  0
LINE
  8
0
 10
120
 11
120
 20
242
 21
233
  0
LINE
  8
0
 10
120
 11
111
 20
233
 21
233
  0
LINE
  8
0
 10
111
 11
111
 20
250
 21
259
  0
LINE
  8
0
 10
111
 11
120
 20
259
 21
259
  0
LINE
  8
0
 10
120
 11
120
 20
259
 21
250
  0
LINE
  8
0
 10
120
 11
111
 20
250
 21
250
  0
LINE
  8
0
 10
111
 11
111
 20
262
 21
271
  0
LINE
  8
0
 10
111
 11
120
 20
271
 21
271
  0
LINE
  8
0
 10
120
 11
120
 20
271
 21
262
  0
LINE
  8
0
 10
120
 11
111
 20
262
 21
262
  0
LINE
  8
0
 10
111
 11
111
 20
274
 21
283
  0
LINE
  8
0
 10
111
 11
120
 20
283
 21
283
  0
LINE
  8
0
 10
120
 11
120
 20
283
 21
274
  0
LINE
  8
0
 10
120
 11
111
 20
274
 21
274
  0
LINE
  8
0
 10
111
 11
111
 20
291
 21
300
  0
LINE
  8
0
 10
111
 11
120
 20
300
 21
300
  0
LINE
  8
0
 10
120
 11
120
 20
300
 21
291
  0
LINE
  8
0
 10
120
 11
111
 20
291
 21
291
  0
LINE
  8
0
 10
111
 11
111
 20
303
 21
312
  0
LINE
  8
0
 10
111
 11
120
 20
312
 21
312
  0
LINE
  8
0
 10
120
 11
120
 20
312
 21
303
  0
LINE
  8
0
 10
120
 11
111
 20
303
 21
303
  0
LINE
  8
0
 10
111
 11
111
 20
315
 21
324
  0
LINE
  8
0
 10
111
 11
120
 20
324
 21
324
  0
LINE
  8
0
 10
120
 11
120
 20
324
 21
315
  0
LINE
  8
0
 10
120
 11
111
 20
315
 21
315
  0
LINE
  8
0
 10
111
 11
111
 20
332
 21
341
  0
LINE
  8
0
 10
111
 11
120
 20
341
 21
341
  0
LINE
  8
0
 10
120
 11
120
 20
341
 21
332
  0
LINE
  8
0
 10
120
 11
111
 20
332
 21
332
  0
LINE
  8
0
 10
111
 11
111
 20
344
 21
353
  0
LINE
  8
0
 10
111
 11
120
 20
353
 21
353
  0
LINE
  8
0
 10
120
 11
120
 20
353
 21
344
  0
LINE
  8
0
 10
120
 11
111
 20
344
 21
344
  0
LINE
  8
0
 10
111
 11
111
 20
356
 21
365
  0
LINE
  8
0
 10
111
 11
120
 20
365
 21
365
  0
LINE
  8
0
 10
120
 11
120
 20
365
 21
356
  0
LINE
  8
0
 10
120
 11
111
 20
356
 21
356
  0
LINE
  8
0
 10
121.9
 11
121.9
 20
4
 21
13
  0
LINE
  8
0
 10
121.9
 11
130.9
 20
13
 21
13
  0
LINE
  8
0
 10
130.9
 11
130.9
 20
13
 21
4
  0
LINE
  8
0
 10
130.9
 11
121.9
 20
4
 21
4
  0
LINE
  8
0
 10
121.9
 11
121.9
 20
16
 21
25
  0
LINE
  8
0
 10
121.9
 11
130.9
 20
25
 21
25
  0
LINE
  8
0
 10
130.9
 11
130.9
 20
25
 21
16
  0
LINE
  8
0
 10
130.9
 11
121.9
 20
16
 21
16
  0
LINE
  8
0
 10
121.9
 11
121.9
 20
28
 21
37
  0
LINE
  8
0
 10
121.9
 11
130.9
 20
37
 21
37
  0
LINE
  8
0
 10
130.9
 11
130.9
 20
37
 21
28
  0
LINE
  8
0
 10
130.9
 11
121.9
 20
28
 21
28
  0
LINE
  8
0
 10
121.9
 11
121.9
 20
45
 21
54
  0
LINE
  8
0
 10
121.9
 11
130.9
 20
54
 21
54
  0
LINE
  8
0
 10
130.9
 11
130.9
 20
54
 21
45
  0
LINE
  8
0
 10
130.9
 11
121.9
 20
45
 21
45
  0
LINE
  8
0
 10
121.9
 11
121.9
 20
57
 21
66
  0
LINE
  8
0
 10
121.9
 11
130.9
 20
66
 21
66
  0
LINE
  8
0
 10
130.9
 11
130.9
 20
66
 21
57
  0
LINE
  8
0
 10
130.9
 11
121.9
 20
57
 21
57
  0
LINE
  8
0
 10
121.9
 11
121.9
 20
69
 21
78
  0
LINE
  8
0
 10
121.9
 11
130.9
 20
78
 21
78
  0
LINE
  8
0
 10
130.9
 11
130.9
 20
78
 21
69
  0
LINE
  8
0
 10
130.9
 11
121.9
 20
69
 21
69
  0
LINE
  8
0
 10
121.9
 11
121.9
 20
86
 21
95
  0
LINE
  8
0
 10
121.9
 11
130.9
 20
95
 21
95
  0
LINE
  8
0
 10
130.9
 11
130.9
 20
95
 21
86
  0
LINE
  8
0
 10
130.9
 11
121.9
 20
86
 21
86
  0
LINE
  8
0
 10
121.9
 11
121.9
 20
98
 21
107
  0
LINE
  8
0
 10
121.9
 11
130.9
 20
107
 21
107
  0
LINE
  8
0
 10
130.9
 11
130.9
 20
107
 21
98
  0
LINE
  8
0
 10
130.9
 11
121.9
 20
98
 21
98
  0
LINE
  8
0
 10
121.9
 11
121.9
 20
110
 21
119
  0
LINE
  8
0
 10
121.9
 11
130.9
 20
119
 21
119
  0
LINE
  8
0
 10
130.9
 11
130.9
 20
119
 21
110
  0
LINE
  8
0
 10
130.9
 11
121.9
 20
110
 21
110
  0
LINE
  8
0
 10
121.9
 11
121.9
 20
127
 21
136
  0
LINE
  8
0
 10
121.9
 11
130.9
 20
136
 21
136
  0
LINE
  8
0
 10
130.9
 11
130.9
 20
136
 21
127
  0
LINE
  8
0
 10
130.9
 11
121.9
 20
127
 21
127
  0
LINE
  8
0
 10
121.9
 11
121.9
 20
139
 21
148
  0
LINE
  8
0
 10
121.9
 11
130.9
 20
148
 21
148
  0
LINE
  8
0
 10
130.9
 11
130.9
 20
148
 21
139
  0
LINE
  8
0
 10
130.9
 11
121.9
 20
139
 21
139
  0
LINE
  8
0
 10
121.9
 11
121.9
 20
151
 21
160
  0
LINE
  8
0
 10
121.9
 11
130.9
 20
160
 21
160
  0
LINE
  8
0
 10
130.9
 11
130.9
 20
160
 21
151
  0
LINE
  8
0
 10
130.9
 11
121.9
 20
151
 21
151
  0
LINE
  8
0
 10
121.9
 11
121.9
 20
168
 21
177
  0
LINE
  8
0
 10
121.9
 11
130.9
 20
177
 21
177
  0
LINE
  8
0
 10
130.9
 11
130.9
 20
177
 21
168
  0
LINE
  8
0
 10
130.9
 11
121.9
 20
168
 21
168
  0
LINE
  8
0
 10
121.9
 11
121.9
 20
180
 21
189
  0
LINE
  8
0
 10
121.9
 11
130.9
 20
189
 21
189
  0
LINE
  8
0
 10
130.9
 11
130.9
 20
189
 21
180
  0
LINE
  8
0
 10
130.9
 11
121.9
 20
180
 21
180
  0
LINE
  8
0
 10
121.9
 11
121.9
 20
192
 21
201
  0
LINE
  8
0
 10
121.9
 11
130.9
 20
201
 21
201
  0
LINE
  8
0
 10
130.9
 11
130.9
 20
201
 21
192
  0
LINE
  8
0
 10
130.9
 11
121.9
 20
192
 21
192
  0
LINE
  8
0
 10
121.9
 11
121.9
 20
209
 21
218
  0
LINE
  8
0
 10
121.9
 11
130.9
 20
218
 21
218
  0
LINE
  8
0
 10
130.9
 11
130.9
 20
218
 21
209
  0
LINE
  8
0
 10
130.9
 11
121.9
 20
209
 21
209
  0
LINE
  8
0
 10
121.9
 11
121.9
 20
221
 21
230
  0
LINE
  8
0
 10
121.9
 11
130.9
 20
230
 21
230
  0
LINE
  8
0
 10
130.9
 11
130.9
 20
230
 21
221
  0
LINE
  8
0
 10
130.9
 11
121.9
 20
221
 21
221
  0
LINE
  8
0
 10
121.9
 11
121.9
 20
233
 21
242
  0
LINE
  8
0
 10
121.9
 11
130.9
 20
242
 21
242
  0
LINE
  8
0
 10
130.9
 11
130.9
 20
242
 21
233
  0
LINE
  8
0
 10
130.9
 11
121.9
 20
233
 21
233
  0
LINE
  8
0
 10
121.9
 11
121.9
 20
250
 21
259
  0
LINE
  8
0
 10
121.9
 11
130.9
 20
259
 21
259
  0
LINE
  8
0
 10
130.9
 11
130.9
 20
259
 21
250
  0
LINE
  8
0
 10
130.9
 11
121.9
 20
250
 21
250
  0
LINE
  8
0
 10
121.9
 11
121.9
 20
262
 21
271
  0
LINE
  8
0
 10
121.9
 11
130.9
 20
271
 21
271
  0
LINE
  8
0
 10
130.9
 11
130.9
 20
271
 21
262
  0
LINE
  8
0
 10
130.9
 11
121.9
 20
262
 21
262
  0
LINE
  8
0
 10
121.9
 11
121.9
 20
274
 21
283
  0
LINE
  8
0
 10
121.9
 11
130.9
 20
283
 21
283
  0
LINE
  8
0
 10
130.9
 11
130.9
 20
283
 21
274
  0
LINE
  8
0
 10
130.9
 11
121.9
 20
274
 21
274
  0
LINE
  8
0
 10
121.9
 11
121.9
 20
291
 21
300
  0
LINE
  8
0
 10
121.9
 11
130.9
 20
300
 21
300
  0
LINE
  8
0
 10
130.9
 11
130.9
 20
300
 21
291
  0
LINE
  8
0
 10
130.9
 11
121.9
 20
291
 21
291
  0
LINE
  8
0
 10
121.9
 11
121.9
 20
303
 21
312
  0
LINE
  8
0
 10
121.9
 11
130.9
 20
312
 21
312
  0
LINE
  8
0
 10
130.9
 11
130.9
 20
312
 21
303
  0
LINE
  8
0
 10
130.9
 11
121.9
 20
303
 21
303
  0
LINE
  8
0
 10
121.9
 11
121.9
 20
315
 21
324
  0
LINE
  8
0
 10
121.9
 11
130.9
 20
324
 21
324
  0
LINE
  8
0
 10
130.9
 11
130.9
 20
324
 21
315
  0
LINE
  8
0
 10
130.9
 11
121.9
 20
315
 21
315
  0
LINE
  8
0
 10
121.9
 11
121.9
 20
332
 21
341
  0
LINE
  8
0
 10
121.9
 11
130.9
 20
341
 21
341
  0
LINE
  8
0
 10
130.9
 11
130.9
 20
341
 21
332
  0
LINE
  8
0
 10
130.9
 11
121.9
 20
332
 21
332
  0
LINE
  8
0
 10
121.9
 11
121.9
 20
344
 21
353
  0
LINE
  8
0
 10
121.9
 11
130.9
 20
353
 21
353
  0
LINE
  8
0
 10
130.9
 11
130.9
 20
353
 21
344
  0
LINE
  8
0
 10
130.9
 11
121.9
 20
344
 21
344
  0
LINE
  8
0
 10
121.9
 11
121.9
 20
356
 21
365
  0
LINE
  8
0
 10
121.9
 11
130.9
 20
365
 21
365
  0
LINE
  8
0
 10
130.9
 11
130.9
 20
365
 21
356
  0
LINE
  8
0
 10
130.9
 11
121.9
 20
356
 21
356
  0
ENDSEC
  0
SECTION
  2
OBJECTS
  0
DICTIONARY
  0
ENDSEC
  0
EOF
