  0
SECTION
  2
BLOCKS
  0
ENDSEC
  0
SECTION
  2
ENTITIES
  0
LINE
  8
0
 10
0
 11
0
 20
0
 21
69.282
  0
LINE
  8
0
 10
0
 11
2
 20
69.282
 21
69.282
  0
LINE
  8
0
 10
2
 11
22.5
 20
69.282
 21
33.775
  0
LINE
  8
0
 10
22.5
 11
24.492
 20
33.775
 21
34.925
  0
LINE
  8
0
 10
24.492
 11
4.656
 20
34.925
 21
69.282
  0
LINE
  8
0
 10
4.656
 11
31.713
 20
69.282
 21
69.282
  0
LINE
  8
0
 10
31.713
 11
52.213
 20
69.282
 21
33.775
  0
LINE
  8
0
 10
52.213
 11
54.205
 20
33.775
 21
34.925
  0
LINE
  8
0
 10
54.205
 11
34.369
 20
34.925
 21
69.282
  0
LINE
  8
0
 10
34.369
 11
61.426
 20
69.282
 21
69.282
  0
LINE
  8
0
 10
61.426
 11
81.926
 20
69.282
 21
33.775
  0
LINE
  8
0
 10
81.926
 11
83.918
 20
33.775
 21
34.925
  0
LINE
  8
0
 10
83.918
 11
64.082
 20
34.925
 21
69.282
  0
LINE
  8
0
 10
64.082
 11
91.138
 20
69.282
 21
69.282
  0
LINE
  8
0
 10
91.138
 11
111.638
 20
69.282
 21
33.775
  0
LINE
  8
0
 10
111.638
 11
113.63
 20
33.775
 21
34.925
  0
LINE
  8
0
 10
113.63
 11
93.794
 20
34.925
 21
69.282
  0
LINE
  8
0
 10
93.794
 11
148.564
 20
69.282
 21
69.282
  0
LINE
  8
0
 10
148.564
 11
169.064
 20
69.282
 21
33.775
  0
LINE
  8
0
 10
169.064
 11
171.056
 20
33.775
 21
34.925
  0
LINE
  8
0
 10
171.056
 11
151.22
 20
34.925
 21
69.282
  0
LINE
  8
0
 10
151.22
 11
192.133
 20
69.282
 21
69.282
  0
LINE
  8
0
 10
192.133
 11
212.633
 20
69.282
 21
33.775
  0
LINE
  8
0
 10
212.633
 11
214.625
 20
33.775
 21
34.925
  0
LINE
  8
0
 10
214.625
 11
194.789
 20
34.925
 21
69.282
  0
LINE
  8
0
 10
194.789
 11
265
 20
69.282
 21
69.282
  0
LINE
  8
0
 10
265
 11
265
 20
69.282
 21
0
  0
LINE
  8
0
 10
265
 11
0
 20
0
 21
0
  0
LINE
  8
0
 10
0
 11
0
 20
71.282
 21
140.564
  0
LINE
  8
0
 10
0
 11
2
 20
140.564
 21
140.564
  0
LINE
  8
0
 10
2
 11
22.5
 20
140.564
 21
105.057
  0
LINE
  8
0
 10
22.5
 11
24.492
 20
105.057
 21
106.207
  0
LINE
  8
0
 10
24.492
 11
4.656
 20
106.207
 21
140.564
  0
LINE
  8
0
 10
4.656
 11
31.713
 20
140.564
 21
140.564
  0
LINE
  8
0
 10
31.713
 11
52.213
 20
140.564
 21
105.057
  0
LINE
  8
0
 10
52.213
 11
54.205
 20
105.057
 21
106.207
  0
LINE
  8
0
 10
54.205
 11
34.369
 20
106.207
 21
140.564
  0
LINE
  8
0
 10
34.369
 11
61.426
 20
140.564
 21
140.564
  0
LINE
  8
0
 10
61.426
 11
81.926
 20
140.564
 21
105.057
  0
LINE
  8
0
 10
81.926
 11
83.918
 20
105.057
 21
106.207
  0
LINE
  8
0
 10
83.918
 11
64.082
 20
106.207
 21
140.564
  0
LINE
  8
0
 10
64.082
 11
91.138
 20
140.564
 21
140.564
  0
LINE
  8
0
 10
91.138
 11
111.638
 20
140.564
 21
105.057
  0
LINE
  8
0
 10
111.638
 11
113.63
 20
105.057
 21
106.207
  0
LINE
  8
0
 10
113.63
 11
93.794
 20
106.207
 21
140.564
  0
LINE
  8
0
 10
93.794
 11
148.564
 20
140.564
 21
140.564
  0
LINE
  8
0
 10
148.564
 11
169.064
 20
140.564
 21
105.057
  0
LINE
  8
0
 10
169.064
 11
171.056
 20
105.057
 21
106.207
  0
LINE
  8
0
 10
171.056
 11
151.22
 20
106.207
 21
140.564
  0
LINE
  8
0
 10
151.22
 11
192.133
 20
140.564
 21
140.564
  0
LINE
  8
0
 10
192.133
 11
212.633
 20
140.564
 21
105.057
  0
LINE
  8
0
 10
212.633
 11
214.625
 20
105.057
 21
106.207
  0
LINE
  8
0
 10
214.625
 11
194.789
 20
106.207
 21
140.564
  0
LINE
  8
0
 10
194.789
 11
265
 20
140.564
 21
140.564
  0
LINE
  8
0
 10
265
 11
265
 20
140.564
 21
71.282
  0
LINE
  8
0
 10
265
 11
0
 20
71.282
 21
71.282
  0
LINE
  8
0
 10
0
 11
0
 20
142.564
 21
222.564
  0
LINE
  8
0
 10
0
 11
115.6
 20
222.564
 21
222.564
  0
LINE
  8
0
 10
115.6
 11
115.6
 20
222.564
 21
142.564
  0
LINE
  8
0
 10
115.6
 11
112.6
 20
142.564
 21
142.564
  0
LINE
  8
0
 10
112.6
 11
112.6
 20
142.564
 21
183.564
  0
LINE
  8
0
 10
112.6
 11
110.3
 20
183.564
 21
183.564
  0
LINE
  8
0
 10
110.3
 11
110.3
 20
183.564
 21
142.564
  0
LINE
  8
0
 10
110.3
 11
5.3
 20
142.564
 21
142.564
  0
LINE
  8
0
 10
5.3
 11
5.3
 20
142.564
 21
183.564
  0
LINE
  8
0
 10
5.3
 11
3
 20
183.564
 21
183.564
  0
LINE
  8
0
 10
3
 11
3
 20
183.564
 21
142.564
  0
LINE
  8
0
 10
3
 11
0
 20
142.564
 21
142.564
  0
LINE
  8
0
 10
0
 11
0
 20
224.564
 21
304.564
  0
LINE
  8
0
 10
0
 11
115.6
 20
304.564
 21
304.564
  0
LINE
  8
0
 10
115.6
 11
115.6
 20
304.564
 21
224.564
  0
LINE
  8
0
 10
115.6
 11
112.6
 20
224.564
 21
224.564
  0
LINE
  8
0
 10
112.6
 11
112.6
 20
224.564
 21
265.564
  0
LINE
  8
0
 10
112.6
 11
110.3
 20
265.564
 21
265.564
  0
LINE
  8
0
 10
110.3
 11
110.3
 20
265.564
 21
224.564
  0
LINE
  8
0
 10
110.3
 11
5.3
 20
224.564
 21
224.564
  0
LINE
  8
0
 10
5.3
 11
5.3
 20
224.564
 21
265.564
  0
LINE
  8
0
 10
5.3
 11
3
 20
265.564
 21
265.564
  0
LINE
  8
0
 10
3
 11
3
 20
265.564
 21
224.564
  0
LINE
  8
0
 10
3
 11
0
 20
224.564
 21
224.564
  0
LINE
  8
0
 10
117.6
 11
117.6
 20
142.564
 21
222.564
  0
LINE
  8
0
 10
117.6
 11
233.2
 20
222.564
 21
222.564
  0
LINE
  8
0
 10
233.2
 11
233.2
 20
222.564
 21
142.564
  0
LINE
  8
0
 10
233.2
 11
230.2
 20
142.564
 21
142.564
  0
LINE
  8
0
 10
230.2
 11
230.2
 20
142.564
 21
183.564
  0
LINE
  8
0
 10
230.2
 11
227.9
 20
183.564
 21
183.564
  0
LINE
  8
0
 10
227.9
 11
227.9
 20
183.564
 21
142.564
  0
LINE
  8
0
 10
227.9
 11
122.9
 20
142.564
 21
142.564
  0
LINE
  8
0
 10
122.9
 11
122.9
 20
142.564
 21
183.564
  0
LINE
  8
0
 10
122.9
 11
120.6
 20
183.564
 21
183.564
  0
LINE
  8
0
 10
120.6
 11
120.6
 20
183.564
 21
142.564
  0
LINE
  8
0
 10
120.6
 11
117.6
 20
142.564
 21
142.564
  0
LINE
  8
0
 10
117.6
 11
117.6
 20
224.564
 21
304.564
  0
LINE
  8
0
 10
117.6
 11
233.2
 20
304.564
 21
304.564
  0
LINE
  8
0
 10
233.2
 11
233.2
 20
304.564
 21
224.564
  0
LINE
  8
0
 10
233.2
 11
230.2
 20
224.564
 21
224.564
  0
LINE
  8
0
 10
230.2
 11
230.2
 20
224.564
 21
265.564
  0
LINE
  8
0
 10
230.2
 11
227.9
 20
265.564
 21
265.564
  0
LINE
  8
0
 10
227.9
 11
227.9
 20
265.564
 21
224.564
  0
LINE
  8
0
 10
227.9
 11
122.9
 20
224.564
 21
224.564
  0
LINE
  8
0
 10
122.9
 11
122.9
 20
224.564
 21
265.564
  0
LINE
  8
0
 10
122.9
 11
120.6
 20
265.564
 21
265.564
  0
LINE
  8
0
 10
120.6
 11
120.6
 20
265.564
 21
224.564
  0
LINE
  8
0
 10
120.6
 11
117.6
 20
224.564
 21
224.564
  0
LINE
  8
0
 10
235.2
 11
235.2
 20
142.564
 21
222.564
  0
LINE
  8
0
 10
235.2
 11
350.8
 20
222.564
 21
222.564
  0
LINE
  8
0
 10
350.8
 11
350.8
 20
222.564
 21
142.564
  0
LINE
  8
0
 10
350.8
 11
347.8
 20
142.564
 21
142.564
  0
LINE
  8
0
 10
347.8
 11
347.8
 20
142.564
 21
183.564
  0
LINE
  8
0
 10
347.8
 11
345.5
 20
183.564
 21
183.564
  0
LINE
  8
0
 10
345.5
 11
345.5
 20
183.564
 21
142.564
  0
LINE
  8
0
 10
345.5
 11
240.5
 20
142.564
 21
142.564
  0
LINE
  8
0
 10
240.5
 11
240.5
 20
142.564
 21
183.564
  0
LINE
  8
0
 10
240.5
 11
238.2
 20
183.564
 21
183.564
  0
LINE
  8
0
 10
238.2
 11
238.2
 20
183.564
 21
142.564
  0
LINE
  8
0
 10
238.2
 11
235.2
 20
142.564
 21
142.564
  0
LINE
  8
0
 10
235.2
 11
235.2
 20
224.564
 21
304.564
  0
LINE
  8
0
 10
235.2
 11
350.8
 20
304.564
 21
304.564
  0
LINE
  8
0
 10
350.8
 11
350.8
 20
304.564
 21
224.564
  0
LINE
  8
0
 10
350.8
 11
347.8
 20
224.564
 21
224.564
  0
LINE
  8
0
 10
347.8
 11
347.8
 20
224.564
 21
265.564
  0
LINE
  8
0
 10
347.8
 11
345.5
 20
265.564
 21
265.564
  0
LINE
  8
0
 10
345.5
 11
345.5
 20
265.564
 21
224.564
  0
LINE
  8
0
 10
345.5
 11
240.5
 20
224.564
 21
224.564
  0
LINE
  8
0
 10
240.5
 11
240.5
 20
224.564
 21
265.564
  0
LINE
  8
0
 10
240.5
 11
238.2
 20
265.564
 21
265.564
  0
LINE
  8
0
 10
238.2
 11
238.2
 20
265.564
 21
224.564
  0
LINE
  8
0
 10
238.2
 11
235.2
 20
224.564
 21
224.564
  0
ENDSEC
  0
SECTION
  2
OBJECTS
  0
DICTIONARY
  0
ENDSEC
  0
EOF
