  0
SECTION
  2
BLOCKS
  0
ENDSEC
  0
SECTION
  2
ENTITIES
  0
LINE
  8
0
 10
0
 11
0
 20
0
 21
6
  0
LINE
  8
0
 10
0
 11
3
 20
6
 21
6
  0
LINE
  8
0
 10
3
 11
3
 20
6
 21
12
  0
LINE
  8
0
 10
3
 11
0
 20
12
 21
12
  0
LINE
  8
0
 10
0
 11
0
 20
12
 21
18
  0
LINE
  8
0
 10
0
 11
3
 20
18
 21
18
  0
LINE
  8
0
 10
3
 11
3
 20
18
 21
24
  0
LINE
  8
0
 10
3
 11
0
 20
24
 21
24
  0
LINE
  8
0
 10
0
 11
0
 20
24
 21
30
  0
LINE
  8
0
 10
0
 11
3
 20
30
 21
30
  0
LINE
  8
0
 10
3
 11
3
 20
30
 21
36
  0
LINE
  8
0
 10
3
 11
0
 20
36
 21
36
  0
LINE
  8
0
 10
0
 11
0
 20
36
 21
42
  0
LINE
  8
0
 10
0
 11
3
 20
42
 21
42
  0
LINE
  8
0
 10
3
 11
3
 20
42
 21
48
  0
LINE
  8
0
 10
3
 11
0
 20
48
 21
48
  0
LINE
  8
0
 10
0
 11
0
 20
48
 21
54
  0
LINE
  8
0
 10
0
 11
290
 20
54
 21
54
  0
LINE
  8
0
 10
290
 11
290
 20
54
 21
48
  0
LINE
  8
0
 10
290
 11
287
 20
48
 21
48
  0
LINE
  8
0
 10
287
 11
287
 20
48
 21
42
  0
LINE
  8
0
 10
287
 11
290
 20
42
 21
42
  0
LINE
  8
0
 10
290
 11
290
 20
42
 21
36
  0
LINE
  8
0
 10
290
 11
287
 20
36
 21
36
  0
LINE
  8
0
 10
287
 11
287
 20
36
 21
30
  0
LINE
  8
0
 10
287
 11
290
 20
30
 21
30
  0
LINE
  8
0
 10
290
 11
290
 20
30
 21
24
  0
LINE
  8
0
 10
290
 11
287
 20
24
 21
24
  0
LINE
  8
0
 10
287
 11
287
 20
24
 21
18
  0
LINE
  8
0
 10
287
 11
290
 20
18
 21
18
  0
LINE
  8
0
 10
290
 11
290
 20
18
 21
12
  0
LINE
  8
0
 10
290
 11
287
 20
12
 21
12
  0
LINE
  8
0
 10
287
 11
287
 20
12
 21
6
  0
LINE
  8
0
 10
287
 11
290
 20
6
 21
6
  0
LINE
  8
0
 10
290
 11
290
 20
6
 21
0
  0
LINE
  8
0
 10
290
 11
0
 20
0
 21
0
  0
LINE
  8
0
 10
0
 11
0
 20
56
 21
62
  0
LINE
  8
0
 10
0
 11
3
 20
62
 21
62
  0
LINE
  8
0
 10
3
 11
3
 20
62
 21
68
  0
LINE
  8
0
 10
3
 11
0
 20
68
 21
68
  0
LINE
  8
0
 10
0
 11
0
 20
68
 21
74
  0
LINE
  8
0
 10
0
 11
3
 20
74
 21
74
  0
LINE
  8
0
 10
3
 11
3
 20
74
 21
80
  0
LINE
  8
0
 10
3
 11
0
 20
80
 21
80
  0
LINE
  8
0
 10
0
 11
0
 20
80
 21
86
  0
LINE
  8
0
 10
0
 11
3
 20
86
 21
86
  0
LINE
  8
0
 10
3
 11
3
 20
86
 21
92
  0
LINE
  8
0
 10
3
 11
0
 20
92
 21
92
  0
LINE
  8
0
 10
0
 11
0
 20
92
 21
98
  0
LINE
  8
0
 10
0
 11
3
 20
98
 21
98
  0
LINE
  8
0
 10
3
 11
3
 20
98
 21
104
  0
LINE
  8
0
 10
3
 11
0
 20
104
 21
104
  0
LINE
  8
0
 10
0
 11
0
 20
104
 21
110
  0
LINE
  8
0
 10
0
 11
290
 20
110
 21
110
  0
LINE
  8
0
 10
290
 11
290
 20
110
 21
104
  0
LINE
  8
0
 10
290
 11
287
 20
104
 21
104
  0
LINE
  8
0
 10
287
 11
287
 20
104
 21
98
  0
LINE
  8
0
 10
287
 11
290
 20
98
 21
98
  0
LINE
  8
0
 10
290
 11
290
 20
98
 21
92
  0
LINE
  8
0
 10
290
 11
287
 20
92
 21
92
  0
LINE
  8
0
 10
287
 11
287
 20
92
 21
86
  0
LINE
  8
0
 10
287
 11
290
 20
86
 21
86
  0
LINE
  8
0
 10
290
 11
290
 20
86
 21
80
  0
LINE
  8
0
 10
290
 11
287
 20
80
 21
80
  0
LINE
  8
0
 10
287
 11
287
 20
80
 21
74
  0
LINE
  8
0
 10
287
 11
290
 20
74
 21
74
  0
LINE
  8
0
 10
290
 11
290
 20
74
 21
68
  0
LINE
  8
0
 10
290
 11
287
 20
68
 21
68
  0
LINE
  8
0
 10
287
 11
287
 20
68
 21
62
  0
LINE
  8
0
 10
287
 11
290
 20
62
 21
62
  0
LINE
  8
0
 10
290
 11
290
 20
62
 21
56
  0
LINE
  8
0
 10
290
 11
0
 20
56
 21
56
  0
LINE
  8
0
 10
0
 11
0
 20
112
 21
118
  0
LINE
  8
0
 10
0
 11
3
 20
118
 21
118
  0
LINE
  8
0
 10
3
 11
3
 20
118
 21
124
  0
LINE
  8
0
 10
3
 11
0
 20
124
 21
124
  0
LINE
  8
0
 10
0
 11
0
 20
124
 21
130
  0
LINE
  8
0
 10
0
 11
3
 20
130
 21
130
  0
LINE
  8
0
 10
3
 11
3
 20
130
 21
136
  0
LINE
  8
0
 10
3
 11
0
 20
136
 21
136
  0
LINE
  8
0
 10
0
 11
0
 20
136
 21
142
  0
LINE
  8
0
 10
0
 11
3
 20
142
 21
142
  0
LINE
  8
0
 10
3
 11
3
 20
142
 21
148
  0
LINE
  8
0
 10
3
 11
0
 20
148
 21
148
  0
LINE
  8
0
 10
0
 11
0
 20
148
 21
154
  0
LINE
  8
0
 10
0
 11
3
 20
154
 21
154
  0
LINE
  8
0
 10
3
 11
3
 20
154
 21
160
  0
LINE
  8
0
 10
3
 11
0
 20
160
 21
160
  0
LINE
  8
0
 10
0
 11
0
 20
160
 21
166
  0
LINE
  8
0
 10
0
 11
290
 20
166
 21
166
  0
LINE
  8
0
 10
290
 11
290
 20
166
 21
160
  0
LINE
  8
0
 10
290
 11
287
 20
160
 21
160
  0
LINE
  8
0
 10
287
 11
287
 20
160
 21
154
  0
LINE
  8
0
 10
287
 11
290
 20
154
 21
154
  0
LINE
  8
0
 10
290
 11
290
 20
154
 21
148
  0
LINE
  8
0
 10
290
 11
287
 20
148
 21
148
  0
LINE
  8
0
 10
287
 11
287
 20
148
 21
142
  0
LINE
  8
0
 10
287
 11
290
 20
142
 21
142
  0
LINE
  8
0
 10
290
 11
290
 20
142
 21
136
  0
LINE
  8
0
 10
290
 11
287
 20
136
 21
136
  0
LINE
  8
0
 10
287
 11
287
 20
136
 21
130
  0
LINE
  8
0
 10
287
 11
290
 20
130
 21
130
  0
LINE
  8
0
 10
290
 11
290
 20
130
 21
124
  0
LINE
  8
0
 10
290
 11
287
 20
124
 21
124
  0
LINE
  8
0
 10
287
 11
287
 20
124
 21
118
  0
LINE
  8
0
 10
287
 11
290
 20
118
 21
118
  0
LINE
  8
0
 10
290
 11
290
 20
118
 21
112
  0
LINE
  8
0
 10
290
 11
0
 20
112
 21
112
  0
LINE
  8
0
 10
0.05
 11
0.05
 20
174.025
 21
179.975
  0
LINE
  8
0
 10
0.05
 11
3
 20
179.975
 21
179.975
  0
LINE
  8
0
 10
3
 11
3
 20
179.975
 21
186.025
  0
LINE
  8
0
 10
3
 11
0.05
 20
186.025
 21
186.025
  0
LINE
  8
0
 10
0.05
 11
0.05
 20
186.025
 21
191.975
  0
LINE
  8
0
 10
0.05
 11
3
 20
191.975
 21
191.975
  0
LINE
  8
0
 10
3
 11
3
 20
191.975
 21
198.025
  0
LINE
  8
0
 10
3
 11
0.05
 20
198.025
 21
198.025
  0
LINE
  8
0
 10
0.05
 11
0.05
 20
198.025
 21
203.975
  0
LINE
  8
0
 10
0.05
 11
3
 20
203.975
 21
203.975
  0
LINE
  8
0
 10
3
 11
3
 20
203.975
 21
210.025
  0
LINE
  8
0
 10
3
 11
0.05
 20
210.025
 21
210.025
  0
LINE
  8
0
 10
0.05
 11
0.05
 20
210.025
 21
215.975
  0
LINE
  8
0
 10
0.05
 11
3
 20
215.975
 21
215.975
  0
LINE
  8
0
 10
3
 11
3
 20
215.975
 21
222
  0
LINE
  8
0
 10
3
 11
177.225
 20
222
 21
222
  0
LINE
  8
0
 10
177.225
 11
177.225
 20
222
 21
215.975
  0
LINE
  8
0
 10
177.225
 11
180.275
 20
215.975
 21
215.975
  0
LINE
  8
0
 10
180.275
 11
180.275
 20
215.975
 21
222
  0
LINE
  8
0
 10
180.275
 11
287
 20
222
 21
222
  0
LINE
  8
0
 10
287
 11
287
 20
222
 21
215.975
  0
LINE
  8
0
 10
287
 11
289.95
 20
215.975
 21
215.975
  0
LINE
  8
0
 10
289.95
 11
289.95
 20
215.975
 21
210.025
  0
LINE
  8
0
 10
289.95
 11
287
 20
210.025
 21
210.025
  0
LINE
  8
0
 10
287
 11
287
 20
210.025
 21
203.975
  0
LINE
  8
0
 10
287
 11
289.95
 20
203.975
 21
203.975
  0
LINE
  8
0
 10
289.95
 11
289.95
 20
203.975
 21
198.025
  0
LINE
  8
0
 10
289.95
 11
287
 20
198.025
 21
198.025
  0
LINE
  8
0
 10
287
 11
287
 20
198.025
 21
191.975
  0
LINE
  8
0
 10
287
 11
289.95
 20
191.975
 21
191.975
  0
LINE
  8
0
 10
289.95
 11
289.95
 20
191.975
 21
186.025
  0
LINE
  8
0
 10
289.95
 11
287
 20
186.025
 21
186.025
  0
LINE
  8
0
 10
287
 11
287
 20
186.025
 21
179.975
  0
LINE
  8
0
 10
287
 11
289.95
 20
179.975
 21
179.975
  0
LINE
  8
0
 10
289.95
 11
289.95
 20
179.975
 21
174.025
  0
LINE
  8
0
 10
289.95
 11
287
 20
174.025
 21
174.025
  0
LINE
  8
0
 10
287
 11
287
 20
174.025
 21
168
  0
LINE
  8
0
 10
287
 11
180.275
 20
168
 21
168
  0
LINE
  8
0
 10
180.275
 11
180.275
 20
168
 21
174.025
  0
LINE
  8
0
 10
180.275
 11
177.225
 20
174.025
 21
174.025
  0
LINE
  8
0
 10
177.225
 11
177.225
 20
174.025
 21
168
  0
LINE
  8
0
 10
177.225
 11
3
 20
168
 21
168
  0
LINE
  8
0
 10
3
 11
3
 20
168
 21
174.025
  0
LINE
  8
0
 10
3
 11
0.05
 20
174.025
 21
174.025
  0
LINE
  8
0
 10
0.05
 11
0.05
 20
230.025
 21
235.975
  0
LINE
  8
0
 10
0.05
 11
3
 20
235.975
 21
235.975
  0
LINE
  8
0
 10
3
 11
3
 20
235.975
 21
242.025
  0
LINE
  8
0
 10
3
 11
0.05
 20
242.025
 21
242.025
  0
LINE
  8
0
 10
0.05
 11
0.05
 20
242.025
 21
247.975
  0
LINE
  8
0
 10
0.05
 11
3
 20
247.975
 21
247.975
  0
LINE
  8
0
 10
3
 11
3
 20
247.975
 21
254.025
  0
LINE
  8
0
 10
3
 11
0.05
 20
254.025
 21
254.025
  0
LINE
  8
0
 10
0.05
 11
0.05
 20
254.025
 21
259.975
  0
LINE
  8
0
 10
0.05
 11
3
 20
259.975
 21
259.975
  0
LINE
  8
0
 10
3
 11
3
 20
259.975
 21
266.025
  0
LINE
  8
0
 10
3
 11
0.05
 20
266.025
 21
266.025
  0
LINE
  8
0
 10
0.05
 11
0.05
 20
266.025
 21
271.975
  0
LINE
  8
0
 10
0.05
 11
3
 20
271.975
 21
271.975
  0
LINE
  8
0
 10
3
 11
3
 20
271.975
 21
278
  0
LINE
  8
0
 10
3
 11
177.225
 20
278
 21
278
  0
LINE
  8
0
 10
177.225
 11
177.225
 20
278
 21
271.975
  0
LINE
  8
0
 10
177.225
 11
180.275
 20
271.975
 21
271.975
  0
LINE
  8
0
 10
180.275
 11
180.275
 20
271.975
 21
278
  0
LINE
  8
0
 10
180.275
 11
287
 20
278
 21
278
  0
LINE
  8
0
 10
287
 11
287
 20
278
 21
271.975
  0
LINE
  8
0
 10
287
 11
289.95
 20
271.975
 21
271.975
  0
LINE
  8
0
 10
289.95
 11
289.95
 20
271.975
 21
266.025
  0
LINE
  8
0
 10
289.95
 11
287
 20
266.025
 21
266.025
  0
LINE
  8
0
 10
287
 11
287
 20
266.025
 21
259.975
  0
LINE
  8
0
 10
287
 11
289.95
 20
259.975
 21
259.975
  0
LINE
  8
0
 10
289.95
 11
289.95
 20
259.975
 21
254.025
  0
LINE
  8
0
 10
289.95
 11
287
 20
254.025
 21
254.025
  0
LINE
  8
0
 10
287
 11
287
 20
254.025
 21
247.975
  0
LINE
  8
0
 10
287
 11
289.95
 20
247.975
 21
247.975
  0
LINE
  8
0
 10
289.95
 11
289.95
 20
247.975
 21
242.025
  0
LINE
  8
0
 10
289.95
 11
287
 20
242.025
 21
242.025
  0
LINE
  8
0
 10
287
 11
287
 20
242.025
 21
235.975
  0
LINE
  8
0
 10
287
 11
289.95
 20
235.975
 21
235.975
  0
LINE
  8
0
 10
289.95
 11
289.95
 20
235.975
 21
230.025
  0
LINE
  8
0
 10
289.95
 11
287
 20
230.025
 21
230.025
  0
LINE
  8
0
 10
287
 11
287
 20
230.025
 21
224
  0
LINE
  8
0
 10
287
 11
180.275
 20
224
 21
224
  0
LINE
  8
0
 10
180.275
 11
180.275
 20
224
 21
230.025
  0
LINE
  8
0
 10
180.275
 11
177.225
 20
230.025
 21
230.025
  0
LINE
  8
0
 10
177.225
 11
177.225
 20
230.025
 21
224
  0
LINE
  8
0
 10
177.225
 11
3
 20
224
 21
224
  0
LINE
  8
0
 10
3
 11
3
 20
224
 21
230.025
  0
LINE
  8
0
 10
3
 11
0.05
 20
230.025
 21
230.025
  0
LINE
  8
0
 10
0.05
 11
0.05
 20
286.025
 21
291.975
  0
LINE
  8
0
 10
0.05
 11
3
 20
291.975
 21
291.975
  0
LINE
  8
0
 10
3
 11
3
 20
291.975
 21
298.025
  0
LINE
  8
0
 10
3
 11
0.05
 20
298.025
 21
298.025
  0
LINE
  8
0
 10
0.05
 11
0.05
 20
298.025
 21
303.975
  0
LINE
  8
0
 10
0.05
 11
3
 20
303.975
 21
303.975
  0
LINE
  8
0
 10
3
 11
3
 20
303.975
 21
310.025
  0
LINE
  8
0
 10
3
 11
0.05
 20
310.025
 21
310.025
  0
LINE
  8
0
 10
0.05
 11
0.05
 20
310.025
 21
315.975
  0
LINE
  8
0
 10
0.05
 11
3
 20
315.975
 21
315.975
  0
LINE
  8
0
 10
3
 11
3
 20
315.975
 21
322.025
  0
LINE
  8
0
 10
3
 11
0.05
 20
322.025
 21
322.025
  0
LINE
  8
0
 10
0.05
 11
0.05
 20
322.025
 21
327.975
  0
LINE
  8
0
 10
0.05
 11
3
 20
327.975
 21
327.975
  0
LINE
  8
0
 10
3
 11
3
 20
327.975
 21
334
  0
LINE
  8
0
 10
3
 11
177.25
 20
334
 21
334
  0
LINE
  8
0
 10
177.25
 11
177.25
 20
334
 21
327.975
  0
LINE
  8
0
 10
177.25
 11
180.2
 20
327.975
 21
327.975
  0
LINE
  8
0
 10
180.2
 11
180.2
 20
327.975
 21
322.025
  0
LINE
  8
0
 10
180.2
 11
177.25
 20
322.025
 21
322.025
  0
LINE
  8
0
 10
177.25
 11
177.25
 20
322.025
 21
315.975
  0
LINE
  8
0
 10
177.25
 11
180.2
 20
315.975
 21
315.975
  0
LINE
  8
0
 10
180.2
 11
180.2
 20
315.975
 21
310.025
  0
LINE
  8
0
 10
180.2
 11
177.25
 20
310.025
 21
310.025
  0
LINE
  8
0
 10
177.25
 11
177.25
 20
310.025
 21
303.975
  0
LINE
  8
0
 10
177.25
 11
180.2
 20
303.975
 21
303.975
  0
LINE
  8
0
 10
180.2
 11
180.2
 20
303.975
 21
298.025
  0
LINE
  8
0
 10
180.2
 11
177.25
 20
298.025
 21
298.025
  0
LINE
  8
0
 10
177.25
 11
177.25
 20
298.025
 21
291.975
  0
LINE
  8
0
 10
177.25
 11
180.2
 20
291.975
 21
291.975
  0
LINE
  8
0
 10
180.2
 11
180.2
 20
291.975
 21
286.025
  0
LINE
  8
0
 10
180.2
 11
177.25
 20
286.025
 21
286.025
  0
LINE
  8
0
 10
177.25
 11
177.25
 20
286.025
 21
280
  0
LINE
  8
0
 10
177.25
 11
3
 20
280
 21
280
  0
LINE
  8
0
 10
3
 11
3
 20
280
 21
286.025
  0
LINE
  8
0
 10
3
 11
0.05
 20
286.025
 21
286.025
  0
LINE
  8
0
 10
0.05
 11
0.05
 20
342.025
 21
347.975
  0
LINE
  8
0
 10
0.05
 11
3
 20
347.975
 21
347.975
  0
LINE
  8
0
 10
3
 11
3
 20
347.975
 21
354.025
  0
LINE
  8
0
 10
3
 11
0.05
 20
354.025
 21
354.025
  0
LINE
  8
0
 10
0.05
 11
0.05
 20
354.025
 21
359.975
  0
LINE
  8
0
 10
0.05
 11
3
 20
359.975
 21
359.975
  0
LINE
  8
0
 10
3
 11
3
 20
359.975
 21
366.025
  0
LINE
  8
0
 10
3
 11
0.05
 20
366.025
 21
366.025
  0
LINE
  8
0
 10
0.05
 11
0.05
 20
366.025
 21
371.975
  0
LINE
  8
0
 10
0.05
 11
3
 20
371.975
 21
371.975
  0
LINE
  8
0
 10
3
 11
3
 20
371.975
 21
378.025
  0
LINE
  8
0
 10
3
 11
0.05
 20
378.025
 21
378.025
  0
LINE
  8
0
 10
0.05
 11
0.05
 20
378.025
 21
383.975
  0
LINE
  8
0
 10
0.05
 11
3
 20
383.975
 21
383.975
  0
LINE
  8
0
 10
3
 11
3
 20
383.975
 21
390
  0
LINE
  8
0
 10
3
 11
177.25
 20
390
 21
390
  0
LINE
  8
0
 10
177.25
 11
177.25
 20
390
 21
383.975
  0
LINE
  8
0
 10
177.25
 11
180.2
 20
383.975
 21
383.975
  0
LINE
  8
0
 10
180.2
 11
180.2
 20
383.975
 21
378.025
  0
LINE
  8
0
 10
180.2
 11
177.25
 20
378.025
 21
378.025
  0
LINE
  8
0
 10
177.25
 11
177.25
 20
378.025
 21
371.975
  0
LINE
  8
0
 10
177.25
 11
180.2
 20
371.975
 21
371.975
  0
LINE
  8
0
 10
180.2
 11
180.2
 20
371.975
 21
366.025
  0
LINE
  8
0
 10
180.2
 11
177.25
 20
366.025
 21
366.025
  0
LINE
  8
0
 10
177.25
 11
177.25
 20
366.025
 21
359.975
  0
LINE
  8
0
 10
177.25
 11
180.2
 20
359.975
 21
359.975
  0
LINE
  8
0
 10
180.2
 11
180.2
 20
359.975
 21
354.025
  0
LINE
  8
0
 10
180.2
 11
177.25
 20
354.025
 21
354.025
  0
LINE
  8
0
 10
177.25
 11
177.25
 20
354.025
 21
347.975
  0
LINE
  8
0
 10
177.25
 11
180.2
 20
347.975
 21
347.975
  0
LINE
  8
0
 10
180.2
 11
180.2
 20
347.975
 21
342.025
  0
LINE
  8
0
 10
180.2
 11
177.25
 20
342.025
 21
342.025
  0
LINE
  8
0
 10
177.25
 11
177.25
 20
342.025
 21
336
  0
LINE
  8
0
 10
177.25
 11
3
 20
336
 21
336
  0
LINE
  8
0
 10
3
 11
3
 20
336
 21
342.025
  0
LINE
  8
0
 10
3
 11
0.05
 20
342.025
 21
342.025
  0
LINE
  8
0
 10
0.05
 11
0.05
 20
398.025
 21
403.975
  0
LINE
  8
0
 10
0.05
 11
3
 20
403.975
 21
403.975
  0
LINE
  8
0
 10
3
 11
3
 20
403.975
 21
410.025
  0
LINE
  8
0
 10
3
 11
0.05
 20
410.025
 21
410.025
  0
LINE
  8
0
 10
0.05
 11
0.05
 20
410.025
 21
415.975
  0
LINE
  8
0
 10
0.05
 11
3
 20
415.975
 21
415.975
  0
LINE
  8
0
 10
3
 11
3
 20
415.975
 21
422.025
  0
LINE
  8
0
 10
3
 11
0.05
 20
422.025
 21
422.025
  0
LINE
  8
0
 10
0.05
 11
0.05
 20
422.025
 21
427.975
  0
LINE
  8
0
 10
0.05
 11
3
 20
427.975
 21
427.975
  0
LINE
  8
0
 10
3
 11
3
 20
427.975
 21
434.025
  0
LINE
  8
0
 10
3
 11
0.05
 20
434.025
 21
434.025
  0
LINE
  8
0
 10
0.05
 11
0.05
 20
434.025
 21
439.975
  0
LINE
  8
0
 10
0.05
 11
3
 20
439.975
 21
439.975
  0
LINE
  8
0
 10
3
 11
3
 20
439.975
 21
446
  0
LINE
  8
0
 10
3
 11
177.25
 20
446
 21
446
  0
LINE
  8
0
 10
177.25
 11
177.25
 20
446
 21
439.975
  0
LINE
  8
0
 10
177.25
 11
180.2
 20
439.975
 21
439.975
  0
LINE
  8
0
 10
180.2
 11
180.2
 20
439.975
 21
434.025
  0
LINE
  8
0
 10
180.2
 11
177.25
 20
434.025
 21
434.025
  0
LINE
  8
0
 10
177.25
 11
177.25
 20
434.025
 21
427.975
  0
LINE
  8
0
 10
177.25
 11
180.2
 20
427.975
 21
427.975
  0
LINE
  8
0
 10
180.2
 11
180.2
 20
427.975
 21
422.025
  0
LINE
  8
0
 10
180.2
 11
177.25
 20
422.025
 21
422.025
  0
LINE
  8
0
 10
177.25
 11
177.25
 20
422.025
 21
415.975
  0
LINE
  8
0
 10
177.25
 11
180.2
 20
415.975
 21
415.975
  0
LINE
  8
0
 10
180.2
 11
180.2
 20
415.975
 21
410.025
  0
LINE
  8
0
 10
180.2
 11
177.25
 20
410.025
 21
410.025
  0
LINE
  8
0
 10
177.25
 11
177.25
 20
410.025
 21
403.975
  0
LINE
  8
0
 10
177.25
 11
180.2
 20
403.975
 21
403.975
  0
LINE
  8
0
 10
180.2
 11
180.2
 20
403.975
 21
398.025
  0
LINE
  8
0
 10
180.2
 11
177.25
 20
398.025
 21
398.025
  0
LINE
  8
0
 10
177.25
 11
177.25
 20
398.025
 21
392
  0
LINE
  8
0
 10
177.25
 11
3
 20
392
 21
392
  0
LINE
  8
0
 10
3
 11
3
 20
392
 21
398.025
  0
LINE
  8
0
 10
3
 11
0.05
 20
398.025
 21
398.025
  0
LINE
  8
0
 10
93.975
 11
93.975
 20
61.975
 21
68.025
  0
LINE
  8
0
 10
93.975
 11
97.025
 20
68.025
 21
68.025
  0
LINE
  8
0
 10
97.025
 11
97.025
 20
68.025
 21
61.975
  0
LINE
  8
0
 10
97.025
 11
93.975
 20
61.975
 21
61.975
  0
LINE
  8
0
 10
93.975
 11
93.975
 20
73.975
 21
80.025
  0
LINE
  8
0
 10
93.975
 11
97.025
 20
80.025
 21
80.025
  0
LINE
  8
0
 10
97.025
 11
97.025
 20
80.025
 21
73.975
  0
LINE
  8
0
 10
97.025
 11
93.975
 20
73.975
 21
73.975
  0
LINE
  8
0
 10
93.975
 11
93.975
 20
85.975
 21
92.025
  0
LINE
  8
0
 10
93.975
 11
97.025
 20
92.025
 21
92.025
  0
LINE
  8
0
 10
97.025
 11
97.025
 20
92.025
 21
85.975
  0
LINE
  8
0
 10
97.025
 11
93.975
 20
85.975
 21
85.975
  0
LINE
  8
0
 10
93.975
 11
93.975
 20
97.975
 21
104.025
  0
LINE
  8
0
 10
93.975
 11
97.025
 20
104.025
 21
104.025
  0
LINE
  8
0
 10
97.025
 11
97.025
 20
104.025
 21
97.975
  0
LINE
  8
0
 10
97.025
 11
93.975
 20
97.975
 21
97.975
  0
LINE
  8
0
 10
93.975
 11
93.975
 20
117.975
 21
124.025
  0
LINE
  8
0
 10
93.975
 11
97.025
 20
124.025
 21
124.025
  0
LINE
  8
0
 10
97.025
 11
97.025
 20
124.025
 21
117.975
  0
LINE
  8
0
 10
97.025
 11
93.975
 20
117.975
 21
117.975
  0
LINE
  8
0
 10
93.975
 11
93.975
 20
129.975
 21
136.025
  0
LINE
  8
0
 10
93.975
 11
97.025
 20
136.025
 21
136.025
  0
LINE
  8
0
 10
97.025
 11
97.025
 20
136.025
 21
129.975
  0
LINE
  8
0
 10
97.025
 11
93.975
 20
129.975
 21
129.975
  0
LINE
  8
0
 10
93.975
 11
93.975
 20
141.975
 21
148.025
  0
LINE
  8
0
 10
93.975
 11
97.025
 20
148.025
 21
148.025
  0
LINE
  8
0
 10
97.025
 11
97.025
 20
148.025
 21
141.975
  0
LINE
  8
0
 10
97.025
 11
93.975
 20
141.975
 21
141.975
  0
LINE
  8
0
 10
93.975
 11
93.975
 20
153.975
 21
160.025
  0
LINE
  8
0
 10
93.975
 11
97.025
 20
160.025
 21
160.025
  0
LINE
  8
0
 10
97.025
 11
97.025
 20
160.025
 21
153.975
  0
LINE
  8
0
 10
97.025
 11
93.975
 20
153.975
 21
153.975
  0
LINE
  8
0
 10
144.975
 11
144.975
 20
61.975
 21
68.025
  0
LINE
  8
0
 10
144.975
 11
148.025
 20
68.025
 21
68.025
  0
LINE
  8
0
 10
148.025
 11
148.025
 20
68.025
 21
61.975
  0
LINE
  8
0
 10
148.025
 11
144.975
 20
61.975
 21
61.975
  0
LINE
  8
0
 10
144.975
 11
144.975
 20
73.975
 21
80.025
  0
LINE
  8
0
 10
144.975
 11
148.025
 20
80.025
 21
80.025
  0
LINE
  8
0
 10
148.025
 11
148.025
 20
80.025
 21
73.975
  0
LINE
  8
0
 10
148.025
 11
144.975
 20
73.975
 21
73.975
  0
LINE
  8
0
 10
144.975
 11
144.975
 20
85.975
 21
92.025
  0
LINE
  8
0
 10
144.975
 11
148.025
 20
92.025
 21
92.025
  0
LINE
  8
0
 10
148.025
 11
148.025
 20
92.025
 21
85.975
  0
LINE
  8
0
 10
148.025
 11
144.975
 20
85.975
 21
85.975
  0
LINE
  8
0
 10
144.975
 11
144.975
 20
97.975
 21
104.025
  0
LINE
  8
0
 10
144.975
 11
148.025
 20
104.025
 21
104.025
  0
LINE
  8
0
 10
148.025
 11
148.025
 20
104.025
 21
97.975
  0
LINE
  8
0
 10
148.025
 11
144.975
 20
97.975
 21
97.975
  0
LINE
  8
0
 10
144.975
 11
144.975
 20
117.975
 21
124.025
  0
LINE
  8
0
 10
144.975
 11
148.025
 20
124.025
 21
124.025
  0
LINE
  8
0
 10
148.025
 11
148.025
 20
124.025
 21
117.975
  0
LINE
  8
0
 10
148.025
 11
144.975
 20
117.975
 21
117.975
  0
LINE
  8
0
 10
144.975
 11
144.975
 20
129.975
 21
136.025
  0
LINE
  8
0
 10
144.975
 11
148.025
 20
136.025
 21
136.025
  0
LINE
  8
0
 10
148.025
 11
148.025
 20
136.025
 21
129.975
  0
LINE
  8
0
 10
148.025
 11
144.975
 20
129.975
 21
129.975
  0
LINE
  8
0
 10
144.975
 11
144.975
 20
141.975
 21
148.025
  0
LINE
  8
0
 10
144.975
 11
148.025
 20
148.025
 21
148.025
  0
LINE
  8
0
 10
148.025
 11
148.025
 20
148.025
 21
141.975
  0
LINE
  8
0
 10
148.025
 11
144.975
 20
141.975
 21
141.975
  0
LINE
  8
0
 10
144.975
 11
144.975
 20
153.975
 21
160.025
  0
LINE
  8
0
 10
144.975
 11
148.025
 20
160.025
 21
160.025
  0
LINE
  8
0
 10
148.025
 11
148.025
 20
160.025
 21
153.975
  0
LINE
  8
0
 10
148.025
 11
144.975
 20
153.975
 21
153.975
  0
LINE
  8
0
 10
177.225
 11
177.225
 20
179.975
 21
186.025
  0
LINE
  8
0
 10
177.225
 11
180.275
 20
186.025
 21
186.025
  0
LINE
  8
0
 10
180.275
 11
180.275
 20
186.025
 21
179.975
  0
LINE
  8
0
 10
180.275
 11
177.225
 20
179.975
 21
179.975
  0
LINE
  8
0
 10
177.225
 11
177.225
 20
191.975
 21
198.025
  0
LINE
  8
0
 10
177.225
 11
180.275
 20
198.025
 21
198.025
  0
LINE
  8
0
 10
180.275
 11
180.275
 20
198.025
 21
191.975
  0
LINE
  8
0
 10
180.275
 11
177.225
 20
191.975
 21
191.975
  0
LINE
  8
0
 10
177.225
 11
177.225
 20
203.975
 21
210.025
  0
LINE
  8
0
 10
177.225
 11
180.275
 20
210.025
 21
210.025
  0
LINE
  8
0
 10
180.275
 11
180.275
 20
210.025
 21
203.975
  0
LINE
  8
0
 10
180.275
 11
177.225
 20
203.975
 21
203.975
  0
LINE
  8
0
 10
177.225
 11
177.225
 20
235.975
 21
242.025
  0
LINE
  8
0
 10
177.225
 11
180.275
 20
242.025
 21
242.025
  0
LINE
  8
0
 10
180.275
 11
180.275
 20
242.025
 21
235.975
  0
LINE
  8
0
 10
180.275
 11
177.225
 20
235.975
 21
235.975
  0
LINE
  8
0
 10
177.225
 11
177.225
 20
247.975
 21
254.025
  0
LINE
  8
0
 10
177.225
 11
180.275
 20
254.025
 21
254.025
  0
LINE
  8
0
 10
180.275
 11
180.275
 20
254.025
 21
247.975
  0
LINE
  8
0
 10
180.275
 11
177.225
 20
247.975
 21
247.975
  0
LINE
  8
0
 10
177.225
 11
177.225
 20
259.975
 21
266.025
  0
LINE
  8
0
 10
177.225
 11
180.275
 20
266.025
 21
266.025
  0
LINE
  8
0
 10
180.275
 11
180.275
 20
266.025
 21
259.975
  0
LINE
  8
0
 10
180.275
 11
177.225
 20
259.975
 21
259.975
  0
LINE
  8
0
 10
195.975
 11
195.975
 20
61.975
 21
68.025
  0
LINE
  8
0
 10
195.975
 11
199.025
 20
68.025
 21
68.025
  0
LINE
  8
0
 10
199.025
 11
199.025
 20
68.025
 21
61.975
  0
LINE
  8
0
 10
199.025
 11
195.975
 20
61.975
 21
61.975
  0
LINE
  8
0
 10
195.975
 11
195.975
 20
73.975
 21
80.025
  0
LINE
  8
0
 10
195.975
 11
199.025
 20
80.025
 21
80.025
  0
LINE
  8
0
 10
199.025
 11
199.025
 20
80.025
 21
73.975
  0
LINE
  8
0
 10
199.025
 11
195.975
 20
73.975
 21
73.975
  0
LINE
  8
0
 10
195.975
 11
195.975
 20
85.975
 21
92.025
  0
LINE
  8
0
 10
195.975
 11
199.025
 20
92.025
 21
92.025
  0
LINE
  8
0
 10
199.025
 11
199.025
 20
92.025
 21
85.975
  0
LINE
  8
0
 10
199.025
 11
195.975
 20
85.975
 21
85.975
  0
LINE
  8
0
 10
195.975
 11
195.975
 20
97.975
 21
104.025
  0
LINE
  8
0
 10
195.975
 11
199.025
 20
104.025
 21
104.025
  0
LINE
  8
0
 10
199.025
 11
199.025
 20
104.025
 21
97.975
  0
LINE
  8
0
 10
199.025
 11
195.975
 20
97.975
 21
97.975
  0
LINE
  8
0
 10
195.975
 11
195.975
 20
117.975
 21
124.025
  0
LINE
  8
0
 10
195.975
 11
199.025
 20
124.025
 21
124.025
  0
LINE
  8
0
 10
199.025
 11
199.025
 20
124.025
 21
117.975
  0
LINE
  8
0
 10
199.025
 11
195.975
 20
117.975
 21
117.975
  0
LINE
  8
0
 10
195.975
 11
195.975
 20
129.975
 21
136.025
  0
LINE
  8
0
 10
195.975
 11
199.025
 20
136.025
 21
136.025
  0
LINE
  8
0
 10
199.025
 11
199.025
 20
136.025
 21
129.975
  0
LINE
  8
0
 10
199.025
 11
195.975
 20
129.975
 21
129.975
  0
LINE
  8
0
 10
195.975
 11
195.975
 20
141.975
 21
148.025
  0
LINE
  8
0
 10
195.975
 11
199.025
 20
148.025
 21
148.025
  0
LINE
  8
0
 10
199.025
 11
199.025
 20
148.025
 21
141.975
  0
LINE
  8
0
 10
199.025
 11
195.975
 20
141.975
 21
141.975
  0
LINE
  8
0
 10
195.975
 11
195.975
 20
153.975
 21
160.025
  0
LINE
  8
0
 10
195.975
 11
199.025
 20
160.025
 21
160.025
  0
LINE
  8
0
 10
199.025
 11
199.025
 20
160.025
 21
153.975
  0
LINE
  8
0
 10
199.025
 11
195.975
 20
153.975
 21
153.975
  0
ENDSEC
  0
SECTION
  2
OBJECTS
  0
DICTIONARY
  0
ENDSEC
  0
EOF
